<svg width="69" height="47" viewBox="0 0 69 47" fill="none" xmlns="http://www.w3.org/2000/svg">
<g clip-path="url(#clip0)">
<path fill-rule="evenodd" clip-rule="evenodd" d="M69 33.5645V42.5645H63.9776C63.9924 42.3783 64 42.19 64 42C64 38.134 60.866 35 57 35C53.134 35 50 38.134 50 42C50 42.5339 50.0598 43.0539 50.173 43.5536L50 43.5664L18.649 43.8438C17.9151 45.6927 16.1102 47 14 47C11.9211 47 10.1385 45.7312 9.38434 43.9258L1 44L0 15.0645L18 2.06454C24.8486 -2.14544 27.6537 0.530137 32.5 6.06454L22.5 13L24 15.0645H44C50.766 17.8557 57.5 28.0645 57.5 28.0645C58.224 28.1894 58.9075 28.2892 59.5577 28.3842C63.3492 28.9378 66.0115 29.3265 69 33.5645ZM39 41.5H18.9753C18.7245 38.9733 16.5927 37 14 37C11.4073 37 9.27555 38.9733 9.02469 41.5H3L2 16.5L17 6C17 6 16.5 8.53614 17.5 10.0567L39 41.5ZM57 47C59.7614 47 62 44.7614 62 42C62 39.2386 59.7614 37 57 37C54.2386 37 52 39.2386 52 42C52 44.7614 54.2386 47 57 47Z" fill="white"/>
</g>
<defs>
<clipPath id="clip0">
<rect width="69" height="47" fill="white"/>
</clipPath>
</defs>
</svg>
