<svg width="58" height="58" viewBox="0 0 58 58" fill="none" xmlns="http://www.w3.org/2000/svg">
<g clip-path="url(#clip0)">
<path fill-rule="evenodd" clip-rule="evenodd" d="M42.8803 6.70086L51.8034 15.6239L52.7949 14.6325C55.2735 12.1538 55.2735 8.18804 52.7949 5.7094C50.3162 3.23077 46.3504 3.23077 43.8718 5.7094L42.8803 6.70086ZM20.5727 8.67522L17.5983 11.6496L15.1197 9.17094L18.094 6.19658L15.6154 3.71795L4.21368 15.1197L13.6325 24.5385L11.1538 27.0171L0.74359 16.6068C-0.247863 15.6154 -0.247863 14.6239 0.74359 13.6325L13.6325 0.74359C14.6239 -0.247863 15.6154 -0.247863 16.6068 0.74359L27.0171 11.1538L24.5385 13.6325L19.0855 19.0855L16.6068 16.6068L22.5149 10.675L20.5727 8.67522ZM49.3248 37.4274L46.3504 40.4017L48.8291 42.8803L51.8034 39.906L54.2821 42.3846L42.8803 53.7863L33.4615 44.3675L30.9829 46.8462L41.3932 57.2564C42.3846 58.2479 43.3761 58.2479 44.3675 57.2564L57.2564 44.3675C58.2479 43.3761 58.2479 42.3846 57.2564 41.3932L46.8462 30.9829L44.3675 33.4615L38.9145 38.9145L41.3932 41.3932L47.371 35.5311L49.3248 37.4274ZM13.6325 43.8718C13.6325 44.3675 13.6325 44.3675 13.6325 44.8633H14.1282C16.6068 44.8633 18.5897 46.3504 18.5897 48.8291L49.8205 17.5983L40.8974 8.67522L9.66667 39.906C11.6496 40.4017 13.6325 42.3846 13.6325 44.3675V43.8718ZM6.69231 47.3419L5.5 52L5.70086 52.2991H6.19658L10.1624 50.812C10.1624 50.812 10.6581 50.812 10.6581 50.3162V49.8205L7.68376 46.8462H7.18803C7.18803 46.8462 6.69231 46.8462 6.69231 47.3419Z" fill="#FEFEFE"/>
</g>
<defs>
<clipPath id="clip0">
<rect width="58" height="58" fill="white"/>
</clipPath>
</defs>
</svg>
