<svg width="54" height="51" viewBox="0 0 54 51" fill="none" xmlns="http://www.w3.org/2000/svg">
<path fill-rule="evenodd" clip-rule="evenodd" d="M7.85455 0C12.2727 0 15.7091 3.46602 15.7091 7.92233C15.7091 12.3786 12.2727 15.8447 7.85455 15.8447C3.43636 15.8447 0 12.3786 0 7.92233C0 3.46602 3.43636 0 7.85455 0ZM41.7273 5.4466H20.6182C19.6364 5.4466 19.1455 4.95146 19.1455 3.96116C19.1455 2.97087 19.6364 2.47573 20.6182 2.47573H43.2C43.6909 2.97087 44.1818 3.46602 44.1818 3.96116V13.8641H46.6364C47.1273 13.8641 47.1273 13.8641 47.6182 14.3592C47.6182 14.8544 47.6182 14.8544 47.6182 15.3495L45.6545 18.8155L43.6909 22.2816C43.6909 22.7767 43.2 22.7767 42.7091 22.7767C42.2182 22.7767 42.2182 22.7767 41.7273 22.2816L39.7636 18.8155L37.8 15.3495C37.8 14.8544 37.8 14.8544 37.8 14.3592C37.8 13.8641 38.2909 13.8641 38.7818 13.8641H40.7455V5.4466H41.7273ZM9.81818 45.0583H24.0545C25.5273 45.0583 26.5091 46.0485 26.5091 47.534C26.5091 49.0194 25.5273 50.0097 24.0545 50.0097H7.85455C6.87273 49.5146 6.38182 49.0194 6.38182 48.0291V33.1748H2.94545C2.45455 33.1748 1.96364 32.6796 1.47273 32.1845C0.98182 31.6893 0.98182 31.1942 1.47273 30.699L4.41818 25.7476L7.36364 20.7961C7.85455 20.301 8.34545 19.8058 8.83636 19.8058C9.32727 19.8058 9.81818 20.301 10.3091 20.7961L13.2545 25.7476L16.2 30.699C16.6909 31.1942 16.6909 31.6893 16.2 32.1845C15.7091 32.6796 15.2182 33.1748 14.7273 33.1748H11.7818V46.0485L9.81818 45.0583ZM41.7273 26.2427C48.6 26.2427 54 31.6893 54 38.6214C54 45.5534 48.6 51 41.7273 51C34.8545 51 29.4545 45.5534 29.4545 38.6214C29.4545 31.6893 34.8545 26.2427 41.7273 26.2427ZM41.7273 31.1942C46.1455 31.1942 49.5818 34.6602 49.5818 39.1165C49.5818 43.5728 46.1455 47.0388 41.7273 47.0388C37.3091 47.0388 33.8727 43.5728 33.8727 39.1165C33.8727 34.6602 37.3091 31.1942 41.7273 31.1942Z" fill="#FEFEFE"/>
</svg>
