<svg width="71" height="56" viewBox="0 0 71 56" fill="none" xmlns="http://www.w3.org/2000/svg">
<g clip-path="url(#clip0)">
<path fill-rule="evenodd" clip-rule="evenodd" d="M55.4361 14.2167C56.267 13.114 56.052 11.5396 54.9557 10.7002C54.8363 10.6087 54.7113 10.5298 54.5824 10.4631L59.4326 4.02664C60.0973 3.1445 61.3471 2.97377 62.2241 3.64533L67.7818 7.90117C68.6588 8.57273 68.8308 9.83225 68.1661 10.7144L49.5568 35.4097L50.9162 47.3831C51.3876 51.5354 48.1426 55.1734 43.9673 55.1734H26.8816H17.0434H8.00114C3.19721 55.1734 -0.523431 50.9694 0.0604438 46.2011L4.10126 13.2011C4.4102 10.6781 5.87214 8.54923 7.91996 7.31649C9.18579 6.00069 10.9653 5.17343 12.9563 5.17343H39.8802C43.4371 5.17343 46.4274 7.84565 46.829 11.3831L47.7534 19.5254L51.6199 14.3944C51.7183 14.5017 51.8272 14.6019 51.9467 14.6934C53.0429 15.5328 54.6052 15.3194 55.4361 14.2167ZM45.1319 23.0043L43.8509 11.7218C43.6214 9.70041 41.9127 8.17343 39.8802 8.17343H36.2147H12.9581C10.5726 8.17343 8.71848 10.2523 8.98784 12.6251L10.3548 24.6668C8.27436 26.4993 6.96179 29.1831 6.96179 32.1734C6.96179 35.9747 9.08273 39.2806 12.2058 40.9722L13.0745 48.6251C13.304 50.6464 15.0125 52.1734 17.0448 52.1734H33.1272H43.9673C46.3532 52.1734 48.2075 50.0946 47.9381 47.7218L46.5872 35.8226C46.4019 35.6021 46.1899 35.3984 45.9521 35.2163C45.1896 34.6323 44.2861 34.3668 43.3992 34.3982C43.1808 33.5583 42.6918 32.7827 41.9521 32.2163C41.0016 31.4884 39.8322 31.2553 38.7486 31.4752L45.1319 23.0043ZM12.2058 40.9722C13.6202 41.7384 15.2402 42.1734 16.9618 42.1734C22.4846 42.1734 26.9618 37.6963 26.9618 32.1734C26.9618 26.6506 22.4846 22.1734 16.9618 22.1734C14.4293 22.1734 12.1167 23.1148 10.3548 24.6668L12.2058 40.9722ZM54.5824 10.4631L51.6199 14.3944C50.816 13.5164 50.7259 12.1594 51.4663 11.1768C52.2067 10.1943 53.5278 9.91781 54.5824 10.4631ZM63.9027 1.38529L63 2.58324L68.5576 6.83909L69.4604 5.64113C70.6237 4.09738 70.3226 1.89321 68.7879 0.717987C67.2532 -0.457233 65.066 -0.158471 63.9027 1.38529ZM36.5157 41.5822C36.2139 42.4845 37.2134 43.2654 38.0049 42.7457L41.0449 40.7492C41.6182 40.3728 41.6511 39.5385 41.1093 39.1152L39.2286 37.6458C38.6868 37.2225 37.8936 37.4628 37.675 38.1163L36.5157 41.5822Z" fill="white"/>
</g>
<defs>
<clipPath id="clip0">
<rect width="71" height="56" fill="white"/>
</clipPath>
</defs>
</svg>
