<svg width="48" height="48" viewBox="0 0 48 48" fill="none" xmlns="http://www.w3.org/2000/svg">
<path fill-rule="evenodd" clip-rule="evenodd" d="M3.32673 26.3529H18.5347C20.4356 26.3529 21.8614 27.7647 21.8614 29.6471V44.7059C21.8614 46.5882 20.4356 48 18.5347 48H3.32673C1.42574 48 0 46.5882 0 44.7059V29.6471C0 27.7647 1.42574 26.3529 3.32673 26.3529ZM3.32673 0H18.5347C20.4356 0 21.8614 1.41176 21.8614 3.29412V18.3529C21.8614 20.2353 20.4356 21.6471 18.5347 21.6471H3.32673C1.42574 21.6471 0 20.2353 0 18.3529V3.29412C0 1.41176 1.42574 0 3.32673 0ZM6.17822 3.76471H15.6832C17.1089 3.76471 18.0594 4.70588 18.0594 6.11765V15.5294C18.0594 16.9412 17.1089 17.8824 15.6832 17.8824H6.17822C4.75248 17.8824 3.80198 16.9412 3.80198 15.5294V6.11765C3.80198 4.70588 4.75248 3.76471 6.17822 3.76471ZM29.4653 26.3529H44.6733C46.5743 26.3529 48 27.7647 48 29.6471V44.7059C48 46.5882 46.5743 48 44.6733 48H29.4653C27.5644 48 26.1386 46.5882 26.1386 44.7059V29.6471C26.1386 27.7647 27.5644 26.3529 29.4653 26.3529ZM29.9406 30.1176H44.198V44.2353H29.9406V30.1176ZM29.4653 0H44.6733C46.5743 0 48 1.41176 48 3.29412V18.3529C48 20.2353 46.5743 21.6471 44.6733 21.6471H29.4653C27.5644 21.6471 26.1386 20.2353 26.1386 18.3529V3.29412C26.1386 1.41176 27.5644 0 29.4653 0Z" fill="#FEFEFE"/>
</svg>
