<svg id="fe5e6cd7-a483-4e23-944c-64a8ccbadb99" data-name="Capa 1" xmlns="http://www.w3.org/2000/svg" viewBox="0 0 512 512"><defs><style>.a1639d90-dffe-4420-b0b7-0579bcccba77{fill:#fff;}</style></defs><path class="a1639d90-dffe-4420-b0b7-0579bcccba77" d="M384.72,55.7a2.6,2.6,0,0,1,2.7,2.4,27.74,27.74,0,0,1,.09,3.41c0,3.86-.33,3.48,3.53,3.5.85,0,1.71,0,2.56,0,2.17.15,3.28,1.16,3.19,2.82s-1.17,2.44-3.19,2.51c-1.51,0-3,0-4.55,0-1.29,0-1.49.23-1.52,1.49,0,1.42,0,2.84,0,4.27a4.53,4.53,0,0,1-.44,2.2,2.52,2.52,0,0,1-2.61,1.32,2.18,2.18,0,0,1-2-1.7,13.43,13.43,0,0,1-.26-2.54c-.05-1.32,0-2.65-.05-4a1,1,0,0,0-1.09-1l-3.41,0c-.76,0-1.53,0-2.28,0a2.57,2.57,0,0,1-2.53-2.57,2.6,2.6,0,0,1,2.46-2.65,15.56,15.56,0,0,1,2.27-.1c1.13,0,2.27,0,3.41,0,.87,0,1.13-.33,1.18-1.25.08-1.61.1-3.22.17-4.84a7.23,7.23,0,0,1,.14-1.4A2.41,2.41,0,0,1,384.72,55.7Z"/><path class="a1639d90-dffe-4420-b0b7-0579bcccba77" d="M51.43,386.73a27.2,27.2,0,0,1,0-3.13,2.52,2.52,0,0,1,2.44-2.35,2.44,2.44,0,0,1,2.6,2.12,21.89,21.89,0,0,1,.07,2.56c0,1.24,0,2.47.07,3.7a.89.89,0,0,0,.91.91c1.52,0,3,0,4.56,0a6.07,6.07,0,0,1,2.24.29,2.67,2.67,0,0,1,1.75,2.37,2.53,2.53,0,0,1-1.72,2.38,6.79,6.79,0,0,1-1.95.31c-1.33.05-2.66,0-4,0-1.68,0-1.82.17-1.86,1.75,0,1.24,0,2.47,0,3.71a12,12,0,0,1-.06,1.7,2.53,2.53,0,0,1-4.9.41,7.59,7.59,0,0,1-.22-2c0-1.42,0-2.85,0-4.27,0-1.07-.26-1.28-1.4-1.31s-2.47,0-3.7,0a11.84,11.84,0,0,1-2-.11,2.6,2.6,0,0,1-.05-5.13,7.49,7.49,0,0,1,1.42-.11c.66,0,1.33,0,2,0C51.86,390.56,51.34,391,51.43,386.73Z"/><path class="a1639d90-dffe-4420-b0b7-0579bcccba77" d="M158.7,213.21c-4.18,0-3.8-.43-3.83,3.81a23.92,23.92,0,0,1-.2,3.39,2.53,2.53,0,0,1-2.47,2.3,2.75,2.75,0,0,1-2.61-2.21,8.73,8.73,0,0,1-.11-1.7c0-1.32,0-2.65,0-4s-.21-1.57-1.71-1.6c-1.33,0-2.65,0-4,0a8.69,8.69,0,0,1-1.69-.12,2.39,2.39,0,0,1-1.88-2.22,2.42,2.42,0,0,1,1.42-2.54,4.87,4.87,0,0,1,2.23-.35l4.54,0a1,1,0,0,0,1.05-1.07c0-1.42,0-2.84,0-4.26a9.2,9.2,0,0,1,.16-2,2.45,2.45,0,0,1,2.74-2,2.27,2.27,0,0,1,2.29,2.1,18.91,18.91,0,0,1,.2,2.82c0,1.14,0,2.28.07,3.41a.87.87,0,0,0,.91.89c1.33,0,2.65,0,4,.06a14.21,14.21,0,0,1,2.26.13,2.57,2.57,0,0,1,2.09,2.66,2.49,2.49,0,0,1-2.36,2.4,5.09,5.09,0,0,1-.56,0Z"/><path class="a1639d90-dffe-4420-b0b7-0579bcccba77" d="M371.56,193.72c.53.77,1.34.61,2.07.61h11.69a16.53,16.53,0,0,1,2,0,2.68,2.68,0,0,1,2.35,2.76,2.49,2.49,0,0,1-2.43,2.34c-.66.06-1.32,0-2,0H375c-3.62,0-3.29-.28-3.3,3.45,0,3.51,0,7,0,10.54a10.14,10.14,0,0,1-.11,2,2.61,2.61,0,0,1-2.7,2.06,2.5,2.5,0,0,1-2.33-2.42c-.06-.76,0-1.52,0-2.28,0-4,0-8,0-12,0-1.09-.25-1.32-1.37-1.34-2.66,0-5.32,0-8,0-1.23,0-2.47-.08-3.7-.12.17-1.54,1.45-1.24,2.37-1.31a44.24,44.24,0,0,1,6.2,0,7.51,7.51,0,0,0,6.52-2.59C369.32,194.6,370.12,193.54,371.56,193.72Z"/><path class="a1639d90-dffe-4420-b0b7-0579bcccba77" d="M371.56,193.72c-1.72,1.19-2.94,2.94-4.62,4.21a3.9,3.9,0,0,1-2.56.91c-2.95,0-5.89,0-8.84,0-.74,0-1.54-.15-2.1.57a21.61,21.61,0,0,1-2.54.07,2.56,2.56,0,0,1-2.47-2.6,2.77,2.77,0,0,1,2.35-2.49,14.51,14.51,0,0,1,2,0h10.81c.66,0,1.32,0,2,0a.89.89,0,0,0,.91-.89c0-.67.05-1.33.05-2V180.6a16.53,16.53,0,0,1,.05-2,2.35,2.35,0,0,1,2.25-2.15,2.54,2.54,0,0,1,2.78,1.92,3.92,3.92,0,0,1,.08.84Q371.63,186.47,371.56,193.72Z"/><path class="a1639d90-dffe-4420-b0b7-0579bcccba77" d="M387.7,411a2.54,2.54,0,0,1-2.21-3.89,4.69,4.69,0,0,1,.94-1.05c4.68-4.28,9.16-8.76,13.51-13.38a6.82,6.82,0,0,1,.61-.59,2.66,2.66,0,0,1,3.6.13,2.71,2.71,0,0,1,.17,3.39,10.48,10.48,0,0,1-.93,1.07c-4.12,4.57-8.57,8.82-13.1,13C389.51,410.4,388.76,411.13,387.7,411Z"/><path class="a1639d90-dffe-4420-b0b7-0579bcccba77" d="M415.12,128.7a2.69,2.69,0,0,1,2.4,1.27c1.45,2,3,4,4.33,6,2.17,3.22,4.27,6.5,6.38,9.75a9.15,9.15,0,0,1,.84,1.49,2.62,2.62,0,0,1-1.14,3.42,2.59,2.59,0,0,1-3.3-.77,8.61,8.61,0,0,1-.62-1q-4.74-7.78-10.17-15.09a7.77,7.77,0,0,1-.94-1.42A2.58,2.58,0,0,1,415.12,128.7Z"/><path class="a1639d90-dffe-4420-b0b7-0579bcccba77" d="M139.16,426.44a2.56,2.56,0,0,1-3.58,2.44,9.38,9.38,0,0,1-1.46-.87q-7.44-5-14.42-10.63a15.1,15.1,0,0,1-1.29-1.11,2.55,2.55,0,0,1-.39-3.57c1-1.23,2.28-1.37,3.77-.37a10.15,10.15,0,0,1,.89.7q6.87,5.54,14.17,10.49a14.27,14.27,0,0,1,1.58,1.2A2.24,2.24,0,0,1,139.16,426.44Z"/><path class="a1639d90-dffe-4420-b0b7-0579bcccba77" d="M404.66,115.2a2.64,2.64,0,0,1-3.88,2.47,5.84,5.84,0,0,1-1.28-1.11c-4.09-4.35-8.3-8.58-12.76-12.55a11,11,0,0,1-1.41-1.41,2.58,2.58,0,0,1,3.31-3.82A9.1,9.1,0,0,1,390,99.84c4.49,4,8.7,8.17,12.81,12.51a14.37,14.37,0,0,1,1.43,1.77A4.81,4.81,0,0,1,404.66,115.2Z"/><path class="a1639d90-dffe-4420-b0b7-0579bcccba77" d="M42.8,274.54a14.17,14.17,0,0,1,.08-1.6,2.71,2.71,0,0,1,2.36-2.14,2.64,2.64,0,0,1,2.68,2.09c.23,1.31.38,2.63.5,3.95.45,5.1,1.28,10.15,2.18,15.18a10.14,10.14,0,0,1,.19,2,2.43,2.43,0,0,1-2.1,2.33,2.52,2.52,0,0,1-2.79-1.47,7.06,7.06,0,0,1-.35-1.37c-.47-2.71-1-5.41-1.38-8.13C43.65,281.7,43.24,278,42.8,274.54Z"/><path class="a1639d90-dffe-4420-b0b7-0579bcccba77" d="M73.33,154.39a4.9,4.9,0,0,1-.72,2c-1.2,2.25-2.43,4.49-3.57,6.78-1.55,3.14-3,6.32-4.53,9.48a10.87,10.87,0,0,1-.94,1.75,2.45,2.45,0,0,1-3,.78,2.61,2.61,0,0,1-1.44-3.06,18.12,18.12,0,0,1,.74-1.84c2.36-5.38,5-10.62,7.82-15.77a9.38,9.38,0,0,1,1.23-1.9,2.6,2.6,0,0,1,4.45,1.77Z"/><path class="a1639d90-dffe-4420-b0b7-0579bcccba77" d="M108.57,108.28a2.35,2.35,0,0,1-2.21-1,2.66,2.66,0,0,1,0-3,6.14,6.14,0,0,1,1.14-1.25c4.47-4.24,9.15-8.22,14-12.06a7.75,7.75,0,0,1,1.41-1,2.59,2.59,0,0,1,3,4.17A10.15,10.15,0,0,1,125,95c-4.85,3.79-9.49,7.82-14,12C109.83,108.07,109.46,108.25,108.57,108.28Z"/><path class="a1639d90-dffe-4420-b0b7-0579bcccba77" d="M91.15,382.56a3,3,0,0,1,1.69.79,13.76,13.76,0,0,1,.92,1.08c3.71,4.43,7.55,8.75,11.6,12.87a14.32,14.32,0,0,1,1.52,1.69,2.58,2.58,0,0,1-3.53,3.62,9.16,9.16,0,0,1-1.28-1.13c-4.25-4.32-8.3-8.83-12.19-13.48a9.58,9.58,0,0,1-1.17-1.61A2.65,2.65,0,0,1,91.15,382.56Z"/><path class="a1639d90-dffe-4420-b0b7-0579bcccba77" d="M81.54,139.52A2.54,2.54,0,0,1,79.31,136a7.18,7.18,0,0,1,1-1.71q5.42-7.67,11.52-14.79a6.7,6.7,0,0,1,.78-.82,2.52,2.52,0,0,1,3.37,0,2.44,2.44,0,0,1,.47,3.32,10.27,10.27,0,0,1-1,1.36c-3.88,4.54-7.52,9.26-11,14.12a9.15,9.15,0,0,1-1.08,1.32A2.31,2.31,0,0,1,81.54,139.52Z"/><path class="a1639d90-dffe-4420-b0b7-0579bcccba77" d="M46.52,211.19c.43-1.87.86-4,1.42-6.11,1.1-4.11,2.27-8.21,3.43-12.31a9.41,9.41,0,0,1,.68-1.86,2.59,2.59,0,0,1,4.86,1.46,8.62,8.62,0,0,1-.43,1.64,180.89,180.89,0,0,0-4.63,17.57,7.13,7.13,0,0,1-.32,1.09,2.55,2.55,0,0,1-3.09,1.81C47.07,214.11,46.32,213,46.52,211.19Z"/><path class="a1639d90-dffe-4420-b0b7-0579bcccba77" d="M446.94,185.06a2.64,2.64,0,0,1-1.81,2.88,2.55,2.55,0,0,1-2.95-1.14,8.38,8.38,0,0,1-.54-1.31c-2.16-5.76-4.45-11.47-7.09-17a8.27,8.27,0,0,1-.55-1.31,2.55,2.55,0,0,1,1.22-2.91,2.65,2.65,0,0,1,3.13.49,7.84,7.84,0,0,1,1,1.69,183.81,183.81,0,0,1,7.08,17.05C446.67,184.08,446.84,184.72,446.94,185.06Z"/><path class="a1639d90-dffe-4420-b0b7-0579bcccba77" d="M374.23,421.45a2.69,2.69,0,0,1-.75,1.8,15,15,0,0,1-1.32,1.07q-7.26,5.24-15,9.83a14,14,0,0,1-1.75.94,2.45,2.45,0,0,1-3.19-1,2.41,2.41,0,0,1,.52-3.31,13.19,13.19,0,0,1,1.66-1.09q7.46-4.44,14.5-9.5a9.47,9.47,0,0,1,1.67-1.07A2.59,2.59,0,0,1,374.23,421.45Z"/><path class="a1639d90-dffe-4420-b0b7-0579bcccba77" d="M42,246.86c0-4.19.69-8.32.9-12.49a15.56,15.56,0,0,1,.45-2.8,2.47,2.47,0,0,1,2.24-1.88,2.71,2.71,0,0,1,2.65,1.78,4.19,4.19,0,0,1,.11,2,150.51,150.51,0,0,0-1.09,17.87,8.48,8.48,0,0,1-.23,2.25,2.42,2.42,0,0,1-2.83,1.81A2.38,2.38,0,0,1,42,253.1,8.5,8.5,0,0,1,42,252Z"/><path class="a1639d90-dffe-4420-b0b7-0579bcccba77" d="M450.48,202.68a2.3,2.3,0,0,1,2.22,1.48,6.66,6.66,0,0,1,.37,1.06,190.54,190.54,0,0,1,3.64,18.94,8.09,8.09,0,0,1,.12.84,2.6,2.6,0,1,1-5.16.67c-.29-1.29-.45-2.61-.64-3.92-.67-4.69-1.69-9.3-2.73-13.91a13.43,13.43,0,0,1-.41-2.8A2.27,2.27,0,0,1,450.48,202.68Z"/><path class="a1639d90-dffe-4420-b0b7-0579bcccba77" d="M449.79,309.62a2.47,2.47,0,0,1-2.55-3.22c.46-2.22,1-4.43,1.54-6.64.9-3.78,1.65-7.58,2.23-11.43a12.85,12.85,0,0,1,.5-2.21,2.44,2.44,0,0,1,2.63-1.72,2.62,2.62,0,0,1,2.37,2.42,6.07,6.07,0,0,1-.13,1.41c-1,6.08-2.23,12.11-3.75,18.07a13.93,13.93,0,0,1-.59,1.9A2.27,2.27,0,0,1,449.79,309.62Z"/><path class="a1639d90-dffe-4420-b0b7-0579bcccba77" d="M458.81,256c0,3,0,6.05,0,9.08a5.65,5.65,0,0,1-.4,2.5A2.46,2.46,0,0,1,455.6,269a2.34,2.34,0,0,1-2-2.07,6.64,6.64,0,0,1,0-1.41c.27-5.87.21-11.74.13-17.61,0-.76-.06-1.52,0-2.27a2.47,2.47,0,0,1,2.15-2.28,2.53,2.53,0,0,1,2.71,1.61,6.11,6.11,0,0,1,.29,2c0,3,0,6.06,0,9.08Z"/><path class="a1639d90-dffe-4420-b0b7-0579bcccba77" d="M433,397.21a15.4,15.4,0,1,0,15.17,15.56A15.33,15.33,0,0,0,433,397.21Zm-.12,25.58a10.17,10.17,0,1,1,10.09-10.22A10.2,10.2,0,0,1,432.83,422.79Z"/><path class="a1639d90-dffe-4420-b0b7-0579bcccba77" d="M121.23,37.65a15.31,15.31,0,0,0-15.3,15.48c0,8.53,7.36,15.57,15.48,15.23A15.06,15.06,0,0,0,136.7,52.94,15.1,15.1,0,0,0,121.23,37.65Zm0,25.51a10.13,10.13,0,1,1,10.25-10A10.14,10.14,0,0,1,121.21,63.16Z"/><path class="a1639d90-dffe-4420-b0b7-0579bcccba77" d="M133.43,129.73c-14.76.2-22.37,12.38-22.31,22.57.06,12.45,10.73,22.72,22.58,22.22a22.4,22.4,0,1,0-.27-44.79Zm0,37.2a14.77,14.77,0,1,1,14.95-14.6A14.77,14.77,0,0,1,133.4,166.93Z"/><path class="a1639d90-dffe-4420-b0b7-0579bcccba77" d="M454.53,110.28a15.3,15.3,0,0,0-15.3,15.47c0,8.54,7.36,15.58,15.48,15.23a15.35,15.35,0,1,0-.18-30.7Zm0,25.5a10.12,10.12,0,1,1,10.25-10A10.13,10.13,0,0,1,454.51,135.78Z"/><path class="a1639d90-dffe-4420-b0b7-0579bcccba77" d="M247.28,244.18a2.5,2.5,0,0,1-1.31-.37c-.92-.56-22.73-14.19-44.92-42.13A206.71,206.71,0,0,1,155.86,72.94a2.5,2.5,0,0,1,2.28-2.5c.47,0,46.84-4.35,87.21-32.41a2.49,2.49,0,0,1,2.7-.1c.51.31,51.48,30.24,89.21,30.35a2.52,2.52,0,0,1,2.49,2.27c.09,1,2.19,25.41-7.95,59.12-9.34,31.05-31.32,76-83,114A2.47,2.47,0,0,1,247.28,244.18Zm-86.4-169a201.83,201.83,0,0,0,44,123.26c18.51,23.34,37.18,36.73,42.36,40.22,49.51-36.89,70.69-80.21,79.75-110.18,8.19-27.13,8.2-48.48,7.94-55.22-35.61-1.15-79.51-25.34-88-30.2C210.94,67.52,170.8,73.9,160.88,75.16Z"/><path class="a1639d90-dffe-4420-b0b7-0579bcccba77" d="M247.38,228.61a2.1,2.1,0,0,1-1.11-.32c-.78-.48-17.16-10.25-36-34-2-2.57-4.26-8.53-6.72-11.75-1.81-2.36-4.73-2.85-6.25-5.25-2.29-3.59-9.28-4.7-11.47-8.77-1.9-3.54,1.09-14.67-.66-18.57-2.6-5.78-6-6.7-8-13.26-1-3.2.48-3.54-.38-6.92-3.31-13-6.93-30.9-7-46.62a2.12,2.12,0,0,1,1.94-2.12c.39,0,39.78-3.69,74.06-27.52a2.11,2.11,0,0,1,2.29-.08c.44.25,43.72,25.67,75.76,25.77a2.13,2.13,0,0,1,2.11,1.93,241.7,241.7,0,0,1-9.39,58,133.78,133.78,0,0,1-7.43,20.4c-.79,1.68,1.53,7.61.64,9.31-1.25,2.36-6.5,1.44-8,3.85-1.6,2.67-4.35,4.42-6.23,7.14-.42.61-4.05,7.1-4.49,7.71-10.44,14.59-21,24.94-42.41,40.67A2.18,2.18,0,0,1,247.38,228.61ZM174,85.07c.26,17.14,2.26,31.66,5.86,44.75.54,2-1.2,2.92-.6,4.81.67,2.07,3.61,6.65,4.36,8.65,1.07,2.88,2.3,4.11,3.54,6.89,1.71,3.83-.63,14.05,1.23,17.52,2.28,4.28,12.75,6.9,15.16,10.62,1,1.61,5.1,8,7.79,11.43a165.9,165.9,0,0,0,36,34.16c17.7-13.19,29.58-22.36,38.5-33.37,2.56-3.17,4.12-7.08,6.44-10.55,2.82-4.22,13.48-7.18,15.67-11.37,2-3.91.67-6.51,2.27-10.42.48-1.18-.75-9.35-.3-10.53.86-2.28,8-10.76,8.7-12.9.46-1.39-3.18-6-2.78-7.33,7-23,6.18-38.27,6-44-30.24-1-67.53-21.52-74.73-25.65C216.51,78.58,182.43,84,174,85.07Z"/><path class="a1639d90-dffe-4420-b0b7-0579bcccba77" d="M430.85,350.49a3,3,0,0,0-4-1.34c-.23.11-23.32,11.63-42.14,18.56-16.26,6-21.35-3.21-21.54-3.58a2.75,2.75,0,0,0-.17-.29c-.4-.61-40-61.48-46.35-73.54-1.77-3.33-2.28-6.23-1.51-8.63a8.24,8.24,0,0,1,3.65-4.42l99.91-40.36a3,3,0,1,0-2.25-5.57l-100,40.43-.18.08a14,14,0,0,0-6.77,7.89c-7-2.54-26.17-7-57.66,4.19-17.46-6.5-56.34-3.56-59.64-3.29a11.58,11.58,0,0,0-5.72-5.49L86.31,230.86a3,3,0,1,0-2.43,5.48L184,280.62a5.65,5.65,0,0,1,2.38,8.34l-51.19,75.12a3.25,3.25,0,0,1-3.59,1.3L72.79,348.44a3,3,0,0,0-1.66,5.77l58.8,16.94c.33.09.66.15,1,.21a2.82,2.82,0,0,0,.42.64L146,388.67a3.4,3.4,0,0,0,.34.32l-1.71,1.49a17.35,17.35,0,0,0-2.09,23.64,15.75,15.75,0,0,0,12.36,6.05,15.34,15.34,0,0,0,3.62-.45,18.73,18.73,0,0,0,24.58,22.74,18.72,18.72,0,0,0,30.4,17.72l1.53-1.27a14.41,14.41,0,0,0,23.62,11.43l7.49-6.24a3,3,0,0,0,.54.76c.46.46,9.63,9.48,20.22,9.48a17.31,17.31,0,0,0,6.51-1.24c8.27-3.31,10.27-11.32,10.09-17.64a24.06,24.06,0,0,0,5.24,2.8c7.16,2.3,14.38.14,20.33-6.08,4.48-4.68,4.68-11.5,4.32-15.88,7.93,2.75,15,.67,21-6.19s4.38-15.73,2.77-20.38c8.31-.11,14.31-2.44,17.85-6.94,3.74-4.75,4.46-11.51,2.16-20.1,4.52-.07,11-1.16,19.6-4.86a3,3,0,0,0,1.79-2.38,39.3,39.3,0,0,0,8.17-2.11c19.14-7,42.52-18.71,42.75-18.82A3,3,0,0,0,430.85,350.49ZM308.91,286a21.22,21.22,0,0,0,2.42,7.13c6.49,12.23,44.6,70.89,46.59,74A18.2,18.2,0,0,0,368,374.71c-10.21,3.18-15.27,1.6-16.08,1.3l-81.1-59.94a3,3,0,0,0-3.14-.26c-.31.16-31.34,15.94-47.63,25.34-9.54,5.5-19.58,7-25.57,3.74-3.56-1.92-5.52-5.43-5.81-10.41-.73-12.29,18.81-22.82,26.4-25.84a2.56,2.56,0,0,0,.47-.23A201,201,0,0,1,252.67,290l.15-.06C286.59,277.82,305.38,284.47,308.91,286ZM146.16,411a12.26,12.26,0,0,1,1.47-16.72L166.36,378a11,11,0,0,1,7.24-2.73,11.14,11.14,0,0,1,8.74,4.28,12.26,12.26,0,0,1-1.47,16.71l-18.73,16.28A11,11,0,0,1,146.16,411Zm20.16,22.41A13.32,13.32,0,0,1,168,414.7l21.86-18.19a13.25,13.25,0,0,1,18.66,1.72,13.3,13.3,0,0,1-1.72,18.69L185,435.11A13.25,13.25,0,0,1,166.32,433.39ZM210,456a13.26,13.26,0,0,1-16.93-20.42l21.85-18.19a13.25,13.25,0,0,1,18.66,1.72,13.3,13.3,0,0,1-1.72,18.69Zm25.1,10.25c-4.32,3.6-10.23,2.82-13.83-1.52-2.73-3.29-1.33-7.24.57-10.8l8-7.05a43.09,43.09,0,0,0,4.35-4l4.89-4.65a8.86,8.86,0,0,1,2.36-1.74A7.86,7.86,0,0,1,244.9,435a9.85,9.85,0,0,1,7.82,2.8c3.92,4,3.94,10.61-.38,14.21Zm115.23-67.13c-2.66,3.38-7.91,4.94-15.6,4.62l-30.35-22a3,3,0,0,0-3.6,4.8l30,23.32c1,2.16,4.23,10.47-.88,16.29-6,6.85-11.35,5.87-15.78,4-1.85-.78-8-5.42-14.65-10.7-3.59-3-8.15-6.68-13.93-11.35a3,3,0,0,0-3.81,4.64c1.86,1.55,7.09,5.9,12.75,10.41,5.84,4.83,11,9.17,12.58,10.74a.22.22,0,0,0,0,.08c.36,2.49,1.47,10.07-2.34,14-4.34,4.54-9.24,6.1-14.17,4.52-3.56-1.14-14.05-9.68-19.82-14.8a3,3,0,0,0-4.09,4.4l10.47,10.23c.52,2.79,1.63,12.12-5.95,15.15-9.38,3.75-20.15-6.81-20.26-6.91a2.34,2.34,0,0,0-.3-.25l4.86-4a14.44,14.44,0,0,0-13.82-24.79A18.7,18.7,0,0,0,216.79,410a18.72,18.72,0,0,0-27.42-19.75A17.31,17.31,0,0,0,186,376.39a15.59,15.59,0,0,0-22.61-2.18L150.8,385.12a3.81,3.81,0,0,0-.29-.41L137.56,370a9.13,9.13,0,0,0,2.58-2.53l51.2-75.12a11.53,11.53,0,0,0,2-5.79c5.16-.38,32-2.11,49,1.05a222.32,222.32,0,0,0-29.77,15.57c-3.19,1.3-31,13.23-29.93,31.66.52,9,5.16,13.3,8.95,15.34,7.9,4.26,19.94,2.79,31.41-3.82,14-8.08,39.07-21,45.71-24.35l79.85,59a3,3,0,0,0,.38.24,10.07,10.07,0,0,0,1.8.68c.05.22.13.47.24.83C353.24,390.17,353,395.66,350.32,399.08Z"/><path class="a1639d90-dffe-4420-b0b7-0579bcccba77" d="M262.56,142.41v-8.55l4.78,9.57a2.27,2.27,0,0,0,2,1.25,2.39,2.39,0,0,0,.53-.06,2.28,2.28,0,0,0,1.75-2.21V124.24a2.28,2.28,0,1,0-4.55,0v8.55l-4.78-9.57a2.27,2.27,0,0,0-4.31,1v18.17a2.28,2.28,0,0,0,4.55,0Z"/><path class="a1639d90-dffe-4420-b0b7-0579bcccba77" d="M252.33,144.68a2.27,2.27,0,0,0,2.28-2.27V128.78a6.82,6.82,0,0,0-13.64,0v13.63a2.28,2.28,0,0,0,4.55,0v-4.54h4.54v4.54A2.27,2.27,0,0,0,252.33,144.68Zm-6.81-11.36v-4.54a2.27,2.27,0,0,1,4.54,0v4.54Z"/><path class="a1639d90-dffe-4420-b0b7-0579bcccba77" d="M281.87,144.68a6.82,6.82,0,0,0,6.82-6.81v-9.09a6.83,6.83,0,0,0-6.82-6.82h-4.54a2.28,2.28,0,0,0-2.28,2.28v18.17a2.27,2.27,0,0,0,2.28,2.27Zm-2.27-18.17h2.27a2.27,2.27,0,0,1,2.27,2.27v9.09a2.27,2.27,0,0,1-2.27,2.27H279.6Z"/><path class="a1639d90-dffe-4420-b0b7-0579bcccba77" d="M226.77,122a2.28,2.28,0,0,0-2.27,2.28v18.17a2.28,2.28,0,0,0,4.55,0V135.6h.86l3.92,7.83a2.28,2.28,0,0,0,2,1.25,2.21,2.21,0,0,0,1-.24,2.26,2.26,0,0,0,1-3l-3.31-6.64a6.82,6.82,0,0,0-3.26-12.8Zm6.82,6.82a2.28,2.28,0,0,1-2.25,2.27h-2.29v-4.54h2.27A2.27,2.27,0,0,1,233.59,128.78Z"/><path class="a1639d90-dffe-4420-b0b7-0579bcccba77" d="M210.3,144.68h4.55a6.81,6.81,0,0,0,5.07-11.36A6.81,6.81,0,0,0,214.85,122H210.3a2.28,2.28,0,0,0-2.27,2.28v18.17A2.27,2.27,0,0,0,210.3,144.68Zm4.55-4.54h-2.28V135.6h2.28a2.27,2.27,0,0,1,0,4.54Zm0-13.63a2.27,2.27,0,1,1,0,4.54h-2.28v-4.54Z"/><path class="a1639d90-dffe-4420-b0b7-0579bcccba77" d="M305.23,128.43l-5.13-9-.05-9.55a10,10,0,0,0-4.9-9.26l-8.89-5.2-5.21-8.9a9.91,9.91,0,0,0-8.52-4.89l-10.29-.06-8.85-5a10,10,0,0,0-9.93-.09l-9,5.13-9.56,0a10,10,0,0,0-9.26,4.9,2.27,2.27,0,1,0,3.92,2.29,5.39,5.39,0,0,1,5.08-2.65h.2l10.24-.06a2.18,2.18,0,0,0,1.11-.3l9.5-5.42a5.4,5.4,0,0,1,5.39.06l0,0,9.37,5.34a2.21,2.21,0,0,0,1.12.3l10.89.06a5.4,5.4,0,0,1,4.62,2.64l5.5,9.41a2.3,2.3,0,0,0,.82.82l9.41,5.5a5.39,5.39,0,0,1,2.65,5.08,1.21,1.21,0,0,0,0,.19l.05,10.24a2.21,2.21,0,0,0,.3,1.12l5.42,9.5a5.39,5.39,0,0,1-.06,5.38v0l-5.35,9.38a2.18,2.18,0,0,0-.3,1.11l-.06,10.89a5.4,5.4,0,0,1-2.64,4.63l-9.41,5.5a2.36,2.36,0,0,0-.82.81l-5.5,9.42a5.42,5.42,0,0,1-5.08,2.65h-.19l-10.24.06a2.31,2.31,0,0,0-1.12.29l-9.5,5.42a5.36,5.36,0,0,1-5.38-.05l0,0-9.38-5.35a2.27,2.27,0,0,0-1.11-.29l-10.89-.06a5.4,5.4,0,0,1-4.63-2.64l-5.5-9.42a2.33,2.33,0,0,0-.81-.81l-9.42-5.5A5.43,5.43,0,0,1,201.2,157a1.34,1.34,0,0,0,0-.2l-.05-10.24a2.39,2.39,0,0,0-.3-1.11l-5.42-9.5a5.36,5.36,0,0,1,.05-5.38l0,0,5.35-9.37a2.43,2.43,0,0,0,.3-1.12l.05-10.89a5.39,5.39,0,0,1,2.65-4.62,2.27,2.27,0,0,0-2.3-3.92,9.93,9.93,0,0,0-4.89,8.52l0,10.29-5.05,8.85a9.92,9.92,0,0,0-.08,9.93l5.12,9,.06,9.56a10,10,0,0,0,4.89,9.26l8.9,5.2,5.2,8.9a10,10,0,0,0,8.53,4.89l10.29.06,8.84,5a9.93,9.93,0,0,0,9.93.08l9-5.12,9.55-.06a10,10,0,0,0,9.27-4.89l5.2-8.9,8.89-5.2a10,10,0,0,0,4.9-8.53l.05-10.29,5-8.84a10,10,0,0,0,.09-9.93Z"/><path class="a1639d90-dffe-4420-b0b7-0579bcccba77" d="M190,173.62l11.43,6.67,6.68,11.43a11.49,11.49,0,0,0,9.87,5.66l13.21.07,11.36,6.48A11.66,11.66,0,0,0,254,204l11.54-6.58,12.29-.06a11.66,11.66,0,0,0,10.8-5.67l6.68-11.43,11.42-6.68a11.52,11.52,0,0,0,5.67-9.87l.07-13.21L319,139.17a11.52,11.52,0,0,0,.11-11.51l-6.58-11.54-.07-12.29A11.62,11.62,0,0,0,306.75,93l-11.42-6.68-6.68-11.42a11.5,11.5,0,0,0-9.87-5.66l-13.22-.08L254.2,62.72a11.52,11.52,0,0,0-11.51-.11l-11.54,6.58-12.28.07a11.64,11.64,0,0,0-10.81,5.67,1.86,1.86,0,0,0,3.22,1.87A7.8,7.8,0,0,1,218.62,73h.17l12.87-.07a1.79,1.79,0,0,0,.91-.24l12-6.82a7.78,7.78,0,0,1,7.78.07l11.83,6.75a1.82,1.82,0,0,0,.91.24l13.71.07a7.82,7.82,0,0,1,6.68,3.82l6.92,11.85a1.8,1.8,0,0,0,.67.67l11.85,6.92a7.85,7.85,0,0,1,3.83,7.34.76.76,0,0,0,0,.15l.07,12.9a1.93,1.93,0,0,0,.24.91l6.82,12a7.78,7.78,0,0,1-.07,7.78L309,149.11a1.93,1.93,0,0,0-.24.91l-.07,13.71a7.79,7.79,0,0,1-3.82,6.67L293,177.33a1.8,1.8,0,0,0-.67.67l-6.92,11.84a7.83,7.83,0,0,1-7.34,3.83h-.16l-12.89.06a1.94,1.94,0,0,0-.91.25l-12,6.82a7.78,7.78,0,0,1-7.78-.07L232.57,194a1.82,1.82,0,0,0-.91-.24l-13.7-.08a7.78,7.78,0,0,1-6.68-3.82L204.35,178a1.84,1.84,0,0,0-.66-.67l-11.85-6.93a7.79,7.79,0,0,1-3.83-7.34c0-.05,0-.11,0-.16L188,150a1.83,1.83,0,0,0-.25-.91l-6.82-12a7.76,7.76,0,0,1,.08-7.78l6.74-11.83a1.83,1.83,0,0,0,.25-.91l.07-13.71a7.8,7.8,0,0,1,3.82-6.68,1.81,1.81,0,0,0,.86-1.13,1.83,1.83,0,0,0-.19-1.41,1.87,1.87,0,0,0-1.61-.92A1.89,1.89,0,0,0,190,93a11.56,11.56,0,0,0-5.66,9.87l-.07,13.22-6.48,11.36a11.52,11.52,0,0,0-.1,11.51l6.58,11.54.06,12.28A11.64,11.64,0,0,0,190,173.62Z"/><path class="a1639d90-dffe-4420-b0b7-0579bcccba77" d="M259.32,99.59l-6.1-1-2.85-5.49a2.27,2.27,0,0,0-4,0l-2.85,5.49-6.1,1a2.26,2.26,0,0,0-1.79,1.54,2.29,2.29,0,0,0,.54,2.3l4.35,4.4-.93,6.12a2.3,2.3,0,0,0,.91,2.18,2.35,2.35,0,0,0,1.34.43,2.31,2.31,0,0,0,1-.24l5.53-2.77,5.53,2.77a2.28,2.28,0,0,0,2.35-.19,2.26,2.26,0,0,0,.91-2.18l-.92-6.12,4.34-4.4a2.27,2.27,0,0,0-1.25-3.84Zm-7.13,5.86a2.31,2.31,0,0,0-.63,1.94l.44,2.9L249.37,109a2.24,2.24,0,0,0-1-.24,2.28,2.28,0,0,0-1,.24l-2.63,1.31.44-2.9a2.28,2.28,0,0,0-.63-1.94l-2.06-2.09,2.9-.48a2.28,2.28,0,0,0,1.64-1.2l1.36-2.61,1.35,2.61a2.28,2.28,0,0,0,1.65,1.2l2.9.48Z"/><path class="a1639d90-dffe-4420-b0b7-0579bcccba77" d="M235.6,165.52a2.28,2.28,0,0,0,1.79,1.54l6.1,1,2.85,5.49a2.27,2.27,0,0,0,4,0l2.85-5.49,6.1-1a2.28,2.28,0,0,0,1.79-1.54,2.25,2.25,0,0,0-.54-2.3l-4.34-4.4.92-6.12a2.27,2.27,0,0,0-3.26-2.37l-5.53,2.77-5.53-2.77a2.27,2.27,0,0,0-3.27,2.37l.93,6.12-4.35,4.4A2.29,2.29,0,0,0,235.6,165.52Zm8.92-4.32a2.28,2.28,0,0,0,.63-1.94l-.44-2.91,2.63,1.32a2.27,2.27,0,0,0,2,0l2.63-1.32-.44,2.91a2.31,2.31,0,0,0,.63,1.94l2.07,2.09-2.9.48a2.28,2.28,0,0,0-1.65,1.2l-1.35,2.61L247,165a2.28,2.28,0,0,0-1.64-1.2l-2.9-.48Z"/><path class="a1639d90-dffe-4420-b0b7-0579bcccba77" d="M212.12,99.36a2.28,2.28,0,0,0,0-4.55h0a2.28,2.28,0,0,0,0,4.55Z"/></svg>