<svg width="631" height="476" viewBox="0 0 631 476" fill="none" xmlns="http://www.w3.org/2000/svg">
<path d="M0.645508 170.089C3.55169 168.696 6.69461 168.028 9.72324 166.986C18.1602 164.122 26.6175 161.307 35.0625 158.464C36.3973 158.015 37.3442 158.275 38.034 159.634C39.8014 163.129 40.6504 166.903 41.2341 170.711C41.9467 175.26 42.3274 179.856 42.3729 184.462C42.4178 190.347 40.1443 195.349 37.1605 200.121C35.9115 202.12 34.5033 204.015 33.1809 205.968C32.8952 206.381 32.7727 206.842 32.0217 206.607C26.8175 204.959 21.6949 203.109 17.1356 200.035C13.1315 197.34 10.6294 193.272 8.11505 189.275C4.97666 184.251 2.46766 178.852 0.645508 173.204V170.089Z" fill="#F2F1F0"/>
<path d="M388.954 184.584C390.648 184.172 391.619 184.659 391.452 185.854C391.317 186.806 390.636 187.415 389.746 187.069C388.619 186.62 388.66 187.226 388.595 187.972C388.019 194.54 387.452 201.113 386.848 207.681C385.811 218.919 384.48 230.119 382.921 241.291C380.958 255.301 378.615 269.275 375.472 283.088C373.023 293.901 370.166 304.602 366.219 314.97C365.778 316.124 365.847 316.565 367.186 316.89C373.468 318.415 379.668 320.245 385.962 321.749C390.007 322.717 393.783 322.066 397.591 320.809C407.885 317.41 417.742 312.939 427.538 308.327C428.906 307.685 429.816 307.536 430.571 308.991C431.547 310.874 432.947 311.208 434.739 310.165C434.996 310.03 435.271 309.93 435.555 309.869C437.543 309.337 439.069 308.533 439.698 306.185C440.212 304.281 441.845 303.02 443.714 302.138C445.886 301.112 447.947 299.847 450.074 298.722C450.923 298.273 451.955 297.576 452.743 298.487C453.531 299.398 453.016 300.473 452.335 301.33C451.612 302.266 450.825 303.148 449.951 304.19H463.013C462.457 302.2 461.38 301.137 459.074 301.47C457.641 301.681 455.674 302.163 454.78 301.244C453.886 300.325 454.621 298.384 454.629 296.892C454.657 291.853 454.58 286.813 454.865 281.777C454.951 280.281 455.559 279.692 457.057 279.544C463.739 278.884 470.441 278.67 477.148 278.526C480.074 278.464 483.001 278.468 485.923 278.39C487.556 278.345 488.805 278.839 489.674 280.298C490.858 282.276 492.123 284.196 493.323 286.17C493.48 286.471 493.703 286.731 493.975 286.93C494.248 287.128 494.563 287.261 494.895 287.316C496.968 287.722 499.014 288.265 501.017 288.939C501.596 289.103 502.114 289.432 502.511 289.887C502.908 290.342 503.166 290.903 503.254 291.502C503.838 294.292 503.887 297.127 504.115 299.95C504.169 300.634 504.005 301.095 503.189 301.017C502.846 300.98 502.499 301.017 502.156 301.017C499.707 300.877 497.128 300.56 496.777 304.264H504.785C507.14 304.264 509.495 304.264 511.846 304.264C512.226 304.264 512.695 304.137 512.875 304.652C513.014 305.064 512.687 305.274 512.467 305.538C511.03 307.26 509.52 308.294 506.969 308.229C498.307 307.994 489.634 308.146 480.964 308.126C479.997 308.144 479.043 308.342 478.148 308.711C473.335 310.499 468.862 313.309 463.686 313.998C459.025 314.612 454.339 315.156 449.649 315.329C445.873 315.473 442.755 317.249 439.42 318.555C438.792 318.802 438.751 319.083 439.175 319.552C439.378 319.832 439.597 320.099 439.832 320.352C440.808 321.176 440.588 321.699 439.53 322.33C431.143 327.304 422.795 332.352 414.412 337.329C411.407 339.114 408.265 340.663 405.293 342.505C398.093 346.968 390.191 347.57 382.072 346.919C375.897 346.408 369.847 345.171 363.557 343.935C365.66 347.574 368.517 350.116 371.721 352.263C375.133 354.611 378.91 356.364 382.897 357.451C384.644 357.909 385.089 358.712 384.819 360.299C384.789 360.72 384.789 361.143 384.819 361.564C386.733 360.196 388.493 358.889 390.329 357.628C400.126 350.829 410.252 344.693 421.518 340.659C428.624 338.112 435.853 337.284 443.331 338.698C452.465 340.42 458.584 345.703 461.939 354.357C464.474 360.884 465.458 367.741 466.07 374.664C466.788 382.798 467.094 390.953 467.033 399.116C467.033 400.093 467.392 400.41 468.258 400.567C479.686 402.677 491.115 404.798 502.544 406.929C516.449 409.512 530.355 412.102 544.263 414.701C544.957 414.829 545.969 414.755 545.741 416.049C545.659 416.494 546.071 416.584 546.435 416.613C547.688 416.725 548.945 416.823 550.202 416.951C550.802 417.009 551.018 416.753 551.018 416.168C551.045 415.524 551.234 414.898 551.568 414.349C551.902 413.799 552.368 413.345 552.925 413.028C561.108 407.832 566.909 400.044 573.843 393.487C575.517 391.909 577.215 390.356 578.921 388.806C579.431 388.341 580.023 387.788 580.741 388.242C581.558 388.757 581.219 389.593 580.99 390.302C579.26 395.507 576.954 400.468 574.672 405.438C572.149 410.935 569.639 416.44 566.966 421.863C565.19 425.457 565.868 425.914 560.843 429.281C560.892 429.355 560.929 429.487 560.99 429.503C562.937 429.985 562.855 431.036 562.039 432.59C560.958 434.687 559.988 436.841 559.133 439.043C558.525 440.588 557.598 440.868 556.17 440.32C552.937 439.084 550.047 437.217 547.1 435.433C546.716 435.202 546.329 434.98 545.684 434.609C546.092 436.496 545.01 436.323 543.957 436.327C532.251 436.389 520.54 436.381 508.854 436.562C491.649 436.837 474.447 437.184 457.249 437.605C440.514 438.017 423.742 438.12 406.987 438.017C394.37 437.955 381.77 437.357 369.182 436.418C361.051 435.812 352.896 436.187 344.753 436.088C333.969 435.96 323.181 436.125 312.414 435.421C311.479 435.363 310.054 435.548 309.911 434.596C309.801 433.863 311.283 433.607 312.144 433.36C319.401 431.267 326.838 430.476 334.357 430.064C335.9 429.973 337.447 429.911 339.284 429.825C336.312 428.498 333.569 427.352 330.859 426.05C319.911 420.812 309.893 413.789 301.205 405.265C299.724 403.814 298.213 402.38 296.854 400.822C296.038 399.904 295.601 399.928 294.683 400.699C280.139 412.917 264.959 424.343 249.208 434.926C247.727 435.969 245.957 436.513 244.151 436.48C230.085 436.418 216.02 436.48 201.954 436.434C190.525 436.385 179.106 436.263 167.696 436.068C164.092 436.01 160.472 435.952 156.884 435.458C156.423 435.392 155.798 435.383 155.696 434.943C155.545 434.287 156.251 434.155 156.704 433.982C160.582 432.478 164.676 431.947 168.741 431.283C178.362 429.717 187.966 431.007 197.566 431.522C206.546 432 215.526 432.697 224.506 433.381C231.359 433.908 238.216 434.477 245.196 435.202C244.416 434.617 243.653 434.011 242.861 433.447C230.665 424.698 218.448 415.983 206.709 406.604C186.742 390.652 167.872 373.518 151.467 353.784C143.916 344.693 136.569 335.438 131.565 324.563C126.806 314.212 123.402 303.387 120.589 292.368C116.454 276.177 113.569 259.743 111.201 243.203C108.462 223.95 106.507 204.616 104.993 185.231C103.736 169.136 102.783 153.023 102.136 136.895C101.709 125.906 101.367 114.917 101.111 103.928C100.887 94.0839 100.887 84.2352 100.703 74.3907C100.679 72.9896 101.111 72.6888 102.426 72.7012C127.161 72.9278 151.896 73.2286 176.635 73.1874C188.689 73.1874 200.746 73.4182 212.795 73.2575C228.922 73.0432 245.041 72.7671 261.168 72.9938C278.901 73.2437 296.636 73.3426 314.373 73.2905C329.467 73.263 344.561 73.1888 359.655 73.0679C370.211 72.9938 380.767 72.8674 391.325 72.6888C392.803 72.66 393.138 73.1009 393.117 74.4855C392.962 84.6762 392.901 94.871 392.734 105.062C392.501 119.126 391.958 133.178 391.264 147.226C390.668 159.242 390.015 171.258 388.978 183.249C388.921 183.596 388.954 184.003 388.954 184.584Z" fill="#222221"/>
<path d="M554.301 137.738C555.934 137.779 557.093 138.517 558.318 138.975C565.783 141.723 573.253 144.468 580.685 147.303C588.604 150.323 596.482 153.455 604.49 156.228C605.866 156.706 606.412 158.013 606.123 159.599C605.127 165.212 602.576 170.21 599.923 175.126C597.24 180.023 594.255 184.744 590.984 189.26C586.241 195.899 580.371 200.93 572.751 203.955C568.163 205.776 563.469 207.206 558.771 208.645C557.632 208.995 556.971 208.723 556.289 207.688C552.207 201.474 548.248 195.207 545.864 188.057C544.023 182.556 544.105 176.985 544.505 171.298C544.887 166.019 545.622 160.772 546.705 155.594C547.787 150.344 548.983 145.094 551.603 140.347C552.273 139.106 553.032 137.948 554.301 137.738Z" fill="#F2F1F0"/>
<path d="M39.9209 393.206C39.9209 377.885 51.8926 365.906 67.2031 365.906C81.8197 365.906 93.9587 378.269 93.9547 393.136C93.9639 400.37 91.1263 407.311 86.0661 412.433C81.006 417.555 74.1378 420.437 66.9725 420.447C59.8071 420.456 52.9316 417.591 47.8585 412.483C42.7853 407.374 39.9301 400.44 39.9209 393.206Z" fill="#FF8025"/>
<path d="M501.927 283.114C501.547 283.089 501.405 282.739 501.172 282.504C500.878 282.208 501.098 281.977 501.294 281.796C503.294 279.999 505.307 278.215 507.303 276.414C507.711 276.068 507.907 276.34 508.119 276.591C508.331 276.842 508.703 277.135 508.352 277.456C506.278 279.344 504.176 281.202 502.082 283.065C502.07 283.098 502.001 283.094 501.927 283.114Z" fill="#282827"/>
<path d="M484.688 266.49C484.308 268.332 483.941 270.083 483.598 271.847C483.48 272.453 483.19 272.552 482.627 272.42C482.063 272.288 481.994 272.008 482.133 271.46C482.541 269.779 482.871 268.077 483.206 266.375C483.312 265.839 483.324 265.336 484.133 265.551C484.749 265.728 484.814 266.049 484.688 266.49Z" fill="#2B2B2A"/>
<path d="M464.411 271.812C463.868 271.961 463.799 271.487 463.701 271.128C463.24 269.48 462.815 267.832 462.346 266.183C462.187 265.619 462.346 265.388 462.889 265.174C463.538 264.91 463.705 265.252 463.832 265.73C464.289 267.44 464.677 269.175 465.219 270.86C465.509 271.767 464.823 271.594 464.411 271.812Z" fill="#2E2D2C"/>
<path d="M443.696 279.643C445.329 280.167 446.962 280.669 448.549 281.217C449.088 281.399 448.88 281.877 448.774 282.244C448.668 282.61 448.415 282.754 447.998 282.614C446.494 282.112 444.982 281.628 443.464 281.164C443.365 281.153 443.27 281.117 443.188 281.06C443.107 281.003 443.041 280.926 442.996 280.836C442.951 280.746 442.93 280.647 442.933 280.546C442.936 280.446 442.964 280.348 443.015 280.261C443.129 279.915 443.247 279.586 443.696 279.643Z" fill="#2A2A29"/>
<path d="M514.713 291.1C515.224 291.009 515.587 291.067 515.669 291.722C515.75 292.377 515.497 292.489 514.946 292.575C513.546 292.794 512.15 293.045 510.771 293.362C510.163 293.507 509.934 293.309 509.836 292.752C509.738 292.196 509.958 291.928 510.526 291.825C511.926 291.603 513.318 291.343 514.713 291.1Z" fill="#2E2E2C"/>
<path d="M447.182 292.872C447.663 292.806 448.063 292.802 448.137 293.482C448.206 294.096 447.965 294.306 447.423 294.359C446.235 294.508 445.055 294.697 443.872 294.866C443.435 294.928 443.084 294.866 443.014 294.31C442.945 293.754 442.99 293.399 443.623 293.325C444.81 293.185 446.01 293.024 447.182 292.872Z" fill="#2D2D2C"/>
<path d="M306.739 466.351C306.62 467.106 306.286 467.707 305.367 467.736C304.371 467.769 303.861 467.192 303.873 466.277C303.865 466.089 303.897 465.9 303.967 465.725C304.037 465.55 304.143 465.392 304.279 465.262C304.415 465.132 304.577 465.033 304.755 464.972C304.932 464.912 305.12 464.89 305.306 464.909C306.2 464.905 306.612 465.461 306.739 466.351Z" fill="#2F2E2D"/>
<path d="M629.449 391.913C630.547 391.913 631 392.515 631 393.327C631 394.266 630.413 394.785 629.453 394.732C629.266 394.736 629.081 394.699 628.91 394.623C628.739 394.546 628.587 394.433 628.465 394.29C628.342 394.148 628.253 393.98 628.202 393.798C628.151 393.617 628.141 393.426 628.172 393.24C628.221 392.428 628.698 391.864 629.449 391.913Z" fill="#2E2E2D"/>
<path d="M390.771 14.0312C391.588 14.192 392.232 14.6823 392.232 15.4859C392.248 15.6877 392.218 15.8904 392.146 16.0792C392.073 16.2679 391.96 16.4379 391.814 16.5766C391.668 16.7153 391.493 16.8192 391.302 16.8808C391.111 16.9423 390.909 16.9599 390.71 16.9323C390.525 16.9393 390.34 16.9054 390.169 16.8329C389.998 16.7604 389.845 16.651 389.72 16.5125C389.595 16.3739 389.502 16.2095 389.447 16.0308C389.391 15.852 389.375 15.6633 389.4 15.4776C389.412 14.5711 390.041 14.2208 390.771 14.0312Z" fill="#313130"/>
<path d="M57.2094 355.883C57.185 357.263 56.6502 357.783 55.8339 357.783C55.6327 357.799 55.4305 357.769 55.2422 357.696C55.054 357.623 54.8844 357.508 54.7461 357.359C54.6077 357.211 54.5042 357.033 54.4431 356.839C54.382 356.645 54.3649 356.439 54.3931 356.237C54.4339 355.318 55.0421 354.898 55.8625 354.923C56.6829 354.948 57.2298 355.422 57.2094 355.883Z" fill="#2C2C2B"/>
<path d="M31.6262 23.5591C31.4997 24.3833 31.1813 25.0179 30.2874 25.0921C30.0896 25.1294 29.8859 25.1203 29.6921 25.0653C29.4984 25.0104 29.3198 24.9111 29.1702 24.7752C29.0206 24.6393 28.904 24.4704 28.8294 24.2817C28.7549 24.093 28.7244 23.8894 28.7404 23.6869C28.7195 23.4997 28.7397 23.3101 28.7997 23.1317C28.8596 22.9533 28.9578 22.7904 29.0872 22.6546C29.2166 22.5189 29.374 22.4136 29.5483 22.3463C29.7226 22.279 29.9095 22.2513 30.0956 22.2652C30.9895 22.2322 31.4058 22.7844 31.6262 23.5591Z" fill="#2D2D2C"/>
<path d="M502.28 4.40608C502.231 5.29616 501.721 5.79477 500.876 5.77417C500.031 5.75356 499.48 5.31264 499.48 4.38135C499.458 4.17981 499.481 3.97581 499.549 3.78482C499.616 3.59383 499.726 3.42088 499.869 3.27908C500.013 3.13729 500.187 3.03038 500.377 2.96647C500.568 2.90257 500.771 2.88334 500.97 2.91024C501.157 2.90793 501.343 2.94648 501.515 3.02328C501.687 3.10008 501.84 3.21331 501.964 3.35526C502.088 3.49722 502.181 3.66457 502.236 3.8459C502.29 4.02724 502.305 4.2183 502.28 4.40608Z" fill="#2D2D2C"/>
<path d="M428.13 5.29171C427.926 6.11587 427.538 6.6969 426.632 6.66393C425.64 6.62684 425.195 6.00049 425.265 5.08567C425.334 4.17086 425.885 3.77115 426.775 3.84944C427.665 3.92774 428.012 4.50464 428.13 5.29171Z" fill="#2D2C2C"/>
<path d="M96.3943 420.115C96.2163 420.112 96.0408 420.072 95.8786 419.998C95.7164 419.924 95.5707 419.817 95.4505 419.685C95.3302 419.552 95.2379 419.396 95.1791 419.227C95.1204 419.057 95.0964 418.877 95.1086 418.698C95.1086 417.767 95.68 417.235 96.6473 417.284C96.8332 417.277 97.0183 417.312 97.1891 417.387C97.3599 417.461 97.5121 417.573 97.6345 417.715C97.757 417.856 97.8466 418.023 97.8968 418.204C97.9471 418.385 97.9567 418.575 97.9249 418.76C97.88 419.6 97.3943 420.115 96.3943 420.115Z" fill="#2D2C2B"/>
<path d="M568.172 36.5851C567.004 36.5562 566.539 36.0246 566.539 35.184C566.539 34.2527 567.07 33.7046 568.049 33.7664C568.235 33.7611 568.421 33.7967 568.592 33.871C568.763 33.9452 568.916 34.0562 569.04 34.1962C569.165 34.3362 569.257 34.5019 569.312 34.6818C569.366 34.8616 569.381 35.0513 569.355 35.2376C569.306 36.0782 568.792 36.5768 568.172 36.5851Z" fill="#2C2C2B"/>
<path d="M212.814 474.706C211.802 474.682 211.369 474.109 211.345 473.285C211.322 473.098 211.34 472.909 211.398 472.731C211.457 472.553 211.554 472.39 211.682 472.254C211.811 472.118 211.968 472.013 212.142 471.946C212.316 471.879 212.502 471.852 212.687 471.867C213.663 471.867 214.198 472.411 214.161 473.338C214.166 473.519 214.135 473.698 214.069 473.866C214.003 474.034 213.904 474.186 213.778 474.314C213.652 474.442 213.502 474.543 213.336 474.61C213.17 474.678 212.993 474.71 212.814 474.706Z" fill="#2C2C2B"/>
<path d="M594.757 119.785C594.716 120.671 594.288 121.215 593.39 121.244C593.201 121.265 593.011 121.246 592.831 121.186C592.651 121.126 592.486 121.027 592.348 120.897C592.209 120.766 592.1 120.607 592.029 120.43C591.957 120.253 591.924 120.063 591.933 119.872C591.917 119.68 591.94 119.488 592.002 119.306C592.064 119.125 592.162 118.958 592.291 118.817C592.42 118.676 592.577 118.564 592.751 118.487C592.926 118.41 593.114 118.371 593.304 118.372C594.12 118.351 594.667 118.895 594.757 119.785Z" fill="#313130"/>
<path d="M98.4881 223.571C98.4809 223.754 98.4364 223.933 98.3574 224.098C98.2784 224.262 98.1667 224.409 98.0292 224.528C97.8917 224.647 97.7314 224.736 97.5582 224.79C97.3851 224.844 97.2028 224.861 97.0228 224.84C96.8371 224.858 96.6499 224.834 96.4748 224.769C96.2997 224.705 96.1412 224.601 96.0111 224.466C95.8811 224.331 95.7826 224.168 95.7232 223.99C95.6637 223.812 95.6447 223.622 95.6676 223.435C95.6676 222.438 96.284 221.943 97.1738 222.005C97.9861 222.063 98.48 222.627 98.4881 223.571Z" fill="#2E2E2D"/>
<path d="M270.048 473.173C270.059 473.359 270.031 473.545 269.968 473.719C269.905 473.894 269.807 474.054 269.681 474.189C269.554 474.324 269.402 474.431 269.233 474.505C269.063 474.578 268.881 474.616 268.697 474.615C268.514 474.644 268.326 474.632 268.148 474.58C267.97 474.529 267.805 474.438 267.665 474.315C267.525 474.193 267.414 474.04 267.338 473.869C267.262 473.698 267.225 473.513 267.228 473.326C267.166 472.349 267.685 471.789 268.619 471.793C268.805 471.779 268.992 471.804 269.168 471.868C269.343 471.932 269.503 472.032 269.638 472.162C269.773 472.292 269.879 472.449 269.949 472.624C270.02 472.798 270.054 472.985 270.048 473.173Z" fill="#2B2B2A"/>
<path d="M288.559 470.495C288.416 471.278 288.102 471.88 287.175 471.917C286.249 471.954 285.771 471.505 285.722 470.627C285.665 469.671 286.159 469.098 287.122 469.086C288.016 469.074 288.404 469.671 288.559 470.495Z" fill="#2E2D2C"/>
<path d="M466.246 350.985C466.192 351.957 465.662 352.439 464.829 352.452C464.642 352.466 464.454 352.44 464.277 352.376C464.1 352.311 463.939 352.21 463.803 352.079C463.668 351.947 463.561 351.789 463.49 351.613C463.419 351.437 463.386 351.249 463.392 351.059C463.376 350.856 463.404 350.653 463.475 350.462C463.546 350.272 463.658 350.1 463.803 349.959C463.948 349.818 464.122 349.711 464.313 349.646C464.504 349.581 464.707 349.56 464.907 349.584C465.087 349.582 465.266 349.618 465.432 349.689C465.598 349.759 465.749 349.863 465.874 349.994C465.999 350.125 466.097 350.281 466.16 350.451C466.224 350.621 466.253 350.803 466.246 350.985Z" fill="#30302F"/>
<path d="M313.117 64.6025C313.123 64.7886 313.091 64.9739 313.023 65.1469C312.955 65.3199 312.852 65.4768 312.721 65.6077C312.59 65.7386 312.433 65.8406 312.261 65.9073C312.089 65.974 311.905 66.004 311.721 65.9953C310.798 65.9953 310.268 65.4473 310.317 64.4624C310.366 63.4775 310.949 63.1561 311.782 63.1767C312.615 63.1973 313.076 63.7289 313.117 64.6025Z" fill="#2E2E2D"/>
<path d="M409.943 10.0583C409.972 10.4703 409.449 10.9813 408.629 11.0349C407.731 11.0926 407.106 10.6228 407.106 9.61733C407.089 9.42998 407.112 9.241 407.175 9.06391C407.238 8.88681 407.339 8.72598 407.471 8.5929C407.603 8.45983 407.762 8.3578 407.938 8.29411C408.113 8.23043 408.3 8.20666 408.486 8.22451C409.339 8.20802 409.878 8.62422 409.943 10.0583Z" fill="#2E2D2C"/>
<path d="M538.02 15.1644C537.807 15.9514 537.407 16.4789 536.497 16.4624C535.587 16.4459 535.13 15.9143 535.146 15.0655C535.13 14.8632 535.159 14.6599 535.232 14.4709C535.306 14.282 535.421 14.1125 535.569 13.9753C535.717 13.8381 535.894 13.7369 536.087 13.6795C536.279 13.622 536.483 13.6098 536.681 13.6438C537.542 13.7139 537.918 14.3402 538.02 15.1644Z" fill="#2D2C2B"/>
<path d="M515.876 327.25C516.064 327.236 516.253 327.263 516.429 327.328C516.606 327.394 516.767 327.497 516.902 327.63C517.036 327.764 517.141 327.924 517.209 328.102C517.277 328.279 517.307 328.469 517.296 328.659C517.296 329.553 516.754 330.13 515.766 330.089C514.843 330.048 514.439 329.467 514.476 328.626C514.468 328.44 514.499 328.254 514.567 328.081C514.635 327.908 514.739 327.751 514.871 327.621C515.003 327.492 515.161 327.391 515.334 327.327C515.507 327.263 515.692 327.237 515.876 327.25Z" fill="#2D2D2C"/>
<path d="M584.056 134.645C584.941 134.756 585.529 135.172 585.578 136.033C585.609 136.234 585.593 136.44 585.532 136.634C585.472 136.828 585.368 137.005 585.229 137.152C585.089 137.299 584.919 137.412 584.729 137.481C584.54 137.551 584.338 137.576 584.137 137.554C583.952 137.57 583.766 137.544 583.592 137.478C583.418 137.413 583.26 137.309 583.131 137.174C583.001 137.04 582.903 136.878 582.842 136.701C582.782 136.524 582.762 136.335 582.782 136.149C582.774 135.217 583.354 134.867 584.056 134.645Z" fill="#2C2C2B"/>
<path d="M482.263 341.347C482.223 342.304 481.663 342.798 480.859 342.798C479.953 342.798 479.402 342.25 479.447 341.257C479.492 340.264 480.08 339.938 480.908 339.963C481.09 339.953 481.272 339.982 481.442 340.049C481.612 340.115 481.766 340.217 481.894 340.348C482.022 340.479 482.121 340.635 482.185 340.808C482.248 340.98 482.275 341.164 482.263 341.347Z" fill="#2E2D2C"/>
<path d="M341.045 42.7503C340.208 42.5813 339.633 42.1651 339.637 41.2792C339.637 40.282 340.273 39.8328 341.184 39.8781C342.094 39.9234 342.473 40.4633 342.441 41.3616C342.408 42.2599 341.792 42.6019 341.045 42.7503Z" fill="#2E2E2D"/>
<path d="M580.708 47.5C580.887 47.5005 581.064 47.5373 581.229 47.6083C581.394 47.6792 581.543 47.783 581.668 47.9133C581.792 48.0435 581.89 48.1978 581.954 48.3667C582.018 48.5357 582.048 48.716 582.042 48.897C582.056 49.0998 582.025 49.3032 581.953 49.4929C581.88 49.6825 581.768 49.8539 581.623 49.9949C581.478 50.1358 581.304 50.243 581.113 50.3089C580.923 50.3748 580.72 50.3978 580.52 50.3763C580.333 50.3746 580.149 50.3334 579.979 50.2553C579.809 50.1772 579.657 50.064 579.534 49.9231C579.41 49.7821 579.316 49.6165 579.26 49.4369C579.203 49.2573 579.185 49.0678 579.205 48.8805C579.242 47.9821 579.781 47.5577 580.708 47.5Z" fill="#313130"/>
<path d="M176.321 464.418C176.502 464.416 176.682 464.452 176.849 464.523C177.016 464.594 177.167 464.699 177.292 464.832C177.418 464.964 177.514 465.122 177.577 465.294C177.639 465.465 177.666 465.649 177.655 465.832C177.67 466.034 177.64 466.237 177.567 466.427C177.493 466.616 177.379 466.786 177.233 466.925C177.086 467.064 176.91 467.168 176.719 467.23C176.527 467.292 176.324 467.31 176.125 467.282C175.938 467.279 175.753 467.237 175.583 467.158C175.413 467.078 175.261 466.964 175.138 466.822C175.014 466.68 174.922 466.513 174.866 466.332C174.811 466.152 174.793 465.962 174.815 465.774C174.856 464.904 175.39 464.451 176.321 464.418Z" fill="#313030"/>
<path d="M21.028 59.5889C21.028 60.6232 20.5055 61.0724 19.6484 61.06C18.7912 61.0476 18.2239 60.5902 18.228 59.696C18.2101 59.4933 18.2374 59.2891 18.3076 59.0983C18.3779 58.9075 18.4894 58.735 18.6341 58.5933C18.7788 58.4515 18.953 58.3442 19.144 58.279C19.335 58.2139 19.538 58.1926 19.7382 58.2166C20.5096 58.2661 21.1015 58.7647 21.028 59.5889Z" fill="#2E2E2D"/>
<path d="M143.227 451.485C143.174 452.358 142.721 452.952 141.905 453.026C141.707 453.058 141.504 453.045 141.311 452.987C141.119 452.928 140.942 452.827 140.794 452.691C140.646 452.554 140.53 452.385 140.455 452.197C140.38 452.009 140.348 451.807 140.362 451.604C140.343 451.417 140.365 451.227 140.426 451.049C140.487 450.871 140.586 450.709 140.716 450.574C140.846 450.438 141.004 450.333 141.178 450.266C141.352 450.198 141.539 450.17 141.725 450.183C142.599 450.142 143.052 450.661 143.227 451.485Z" fill="#2F2F2E"/>
<path d="M499.417 333.867C499.229 334.625 498.915 335.247 497.988 335.264C496.98 335.264 496.523 334.728 496.547 333.78C496.536 333.592 496.566 333.404 496.635 333.229C496.705 333.054 496.811 332.897 496.948 332.768C497.084 332.64 497.247 332.544 497.425 332.486C497.603 332.429 497.791 332.412 497.976 332.437C498.841 332.461 499.27 333.026 499.417 333.867Z" fill="#2D2D2C"/>
<path d="M355.337 443.441C355.152 443.446 354.968 443.411 354.798 443.337C354.628 443.263 354.476 443.153 354.352 443.014C354.229 442.874 354.137 442.709 354.083 442.531C354.029 442.352 354.014 442.163 354.04 441.978C354.06 441.055 354.525 440.597 355.435 440.618C355.624 440.602 355.813 440.628 355.99 440.694C356.167 440.76 356.327 440.865 356.459 441.002C356.591 441.138 356.691 441.302 356.753 441.483C356.814 441.663 356.836 441.854 356.815 442.044C356.799 442.905 356.252 443.396 355.337 443.441Z" fill="#2C2C2A"/>
<path d="M537.591 167.352C537.406 167.381 537.217 167.369 537.038 167.317C536.858 167.266 536.691 167.175 536.55 167.052C536.408 166.929 536.294 166.776 536.217 166.605C536.139 166.433 536.1 166.246 536.101 166.058C536.072 165.857 536.088 165.652 536.149 165.459C536.209 165.266 536.312 165.088 536.45 164.941C536.588 164.793 536.757 164.679 536.944 164.607C537.132 164.535 537.334 164.507 537.534 164.525C537.719 164.509 537.906 164.534 538.082 164.599C538.257 164.664 538.415 164.767 538.547 164.901C538.678 165.034 538.779 165.195 538.843 165.372C538.906 165.549 538.93 165.738 538.913 165.926C538.943 166.112 538.93 166.302 538.875 166.483C538.82 166.663 538.725 166.828 538.598 166.966C538.47 167.103 538.313 167.209 538.139 167.276C537.964 167.343 537.777 167.369 537.591 167.352Z" fill="#2E2E2D"/>
<path d="M408.682 183.584C409.588 183.584 410.069 184.049 410.073 184.927C410.078 185.805 409.665 186.373 408.775 186.415C408.575 186.439 408.373 186.419 408.182 186.354C407.99 186.289 407.816 186.183 407.671 186.041C407.527 185.9 407.415 185.727 407.345 185.537C407.274 185.346 407.247 185.142 407.265 184.939C407.252 184.752 407.281 184.563 407.349 184.388C407.416 184.212 407.522 184.054 407.657 183.925C407.792 183.795 407.954 183.697 408.131 183.638C408.309 183.579 408.496 183.561 408.682 183.584Z" fill="#2E2E2D"/>
<path d="M447.422 182.927C447.271 183.71 446.798 184.303 445.961 184.262C445.76 184.27 445.56 184.231 445.375 184.151C445.191 184.07 445.026 183.948 444.894 183.795C444.762 183.642 444.665 183.461 444.611 183.265C444.557 183.069 444.547 182.864 444.582 182.663C444.584 182.475 444.626 182.289 444.707 182.118C444.787 181.948 444.903 181.797 445.046 181.676C445.19 181.556 445.358 181.468 445.538 181.419C445.719 181.37 445.908 181.362 446.092 181.394C446.949 181.452 447.382 182.012 447.422 182.927Z" fill="#2E2E2D"/>
<path d="M251.446 474.475C251.409 475.356 250.948 475.867 250.087 475.909C249.226 475.95 248.679 475.554 248.63 474.627C248.577 473.638 249.107 473.094 250.03 473.086C250.862 473.078 251.364 473.601 251.446 474.475Z" fill="#2E2E2D"/>
<path d="M484.501 178.82C484.387 179.689 483.987 180.208 483.064 180.179C482.879 180.194 482.692 180.168 482.518 180.104C482.343 180.039 482.184 179.938 482.051 179.807C481.919 179.675 481.816 179.516 481.749 179.341C481.682 179.166 481.653 178.978 481.664 178.791C481.649 178.589 481.679 178.385 481.752 178.197C481.826 178.008 481.941 177.839 482.088 177.701C482.236 177.564 482.413 177.462 482.605 177.404C482.798 177.346 483.001 177.332 483.199 177.365C484.113 177.406 484.44 178.016 484.501 178.82Z" fill="#2D2D2C"/>
<path d="M110.519 429.652C111.466 429.78 111.947 430.217 111.935 431.127C111.95 431.315 111.924 431.504 111.86 431.68C111.795 431.857 111.694 432.017 111.563 432.151C111.431 432.284 111.273 432.387 111.098 432.453C110.924 432.519 110.737 432.546 110.551 432.533C109.666 432.533 109.106 431.972 109.155 430.971C109.204 429.97 109.821 429.751 110.519 429.652Z" fill="#2D2D2C"/>
<path d="M324.473 460.503C324.294 461.348 323.849 461.896 322.955 461.859C322.061 461.822 321.628 461.278 321.661 460.376C321.694 459.473 322.192 459.016 323.09 459.049C323.987 459.082 324.375 459.679 324.473 460.503Z" fill="#2B2B2A"/>
<path d="M427.421 185.458C427.237 185.491 427.048 185.482 426.867 185.432C426.687 185.382 426.52 185.292 426.379 185.168C426.237 185.045 426.125 184.891 426.051 184.717C425.976 184.544 425.941 184.357 425.947 184.168C425.933 183.977 425.957 183.786 426.018 183.605C426.079 183.424 426.174 183.257 426.3 183.114C426.426 182.971 426.578 182.855 426.749 182.773C426.92 182.69 427.105 182.643 427.294 182.634C427.483 182.626 427.672 182.655 427.85 182.721C428.028 182.787 428.19 182.889 428.328 183.019C428.466 183.15 428.577 183.307 428.654 183.482C428.731 183.657 428.772 183.845 428.776 184.036C428.791 184.222 428.767 184.409 428.705 184.585C428.643 184.761 428.545 184.921 428.416 185.056C428.288 185.19 428.133 185.296 427.961 185.365C427.79 185.434 427.605 185.466 427.421 185.458Z" fill="#2C2C2B"/>
<path d="M626.263 375.165C626.269 375.352 626.236 375.538 626.167 375.711C626.097 375.884 625.992 376.041 625.859 376.17C625.726 376.3 625.568 376.4 625.394 376.464C625.22 376.528 625.035 376.555 624.85 376.542C623.965 376.542 623.401 375.981 623.45 374.984C623.499 373.987 624.103 373.657 624.916 373.694C625.728 373.731 626.254 374.238 626.263 375.165Z" fill="#2D2D2C"/>
<path d="M519.741 170.039C520.618 170.093 521.12 170.608 521.108 171.448C521.127 171.65 521.1 171.853 521.028 172.041C520.956 172.23 520.842 172.399 520.694 172.536C520.547 172.672 520.37 172.773 520.178 172.828C519.985 172.884 519.782 172.894 519.586 172.858C518.679 172.8 518.271 172.227 518.308 171.382C518.345 170.538 518.851 170.064 519.741 170.039Z" fill="#2C2C2B"/>
<path d="M534.313 324.352C535.15 324.434 535.672 324.863 535.688 325.753C535.71 325.939 535.691 326.127 535.633 326.305C535.575 326.483 535.48 326.646 535.353 326.783C535.227 326.92 535.072 327.027 534.9 327.098C534.728 327.168 534.543 327.2 534.358 327.191C533.435 327.224 532.885 326.701 532.893 325.716C532.901 324.731 533.484 324.442 534.313 324.352Z" fill="#2C2C2B"/>
<path d="M61.6294 264.871C61.5151 265.769 61.1682 266.367 60.2416 266.404C59.3151 266.441 58.8416 266.017 58.8048 265.085C58.7681 264.154 59.213 263.651 60.0987 263.594C60.9845 263.536 61.4008 264.146 61.6294 264.871Z" fill="#2C2B2B"/>
<path d="M373.668 24.2409C372.737 24.2162 372.223 23.7505 372.194 22.8563C372.172 22.6654 372.192 22.4721 372.252 22.2897C372.312 22.1073 372.41 21.9402 372.54 21.7999C372.67 21.6596 372.829 21.5495 373.005 21.4772C373.182 21.4049 373.371 21.3721 373.561 21.3811C373.751 21.3704 373.941 21.399 374.119 21.465C374.298 21.5311 374.461 21.6332 374.599 21.7651C374.737 21.8971 374.847 22.0561 374.922 22.2324C374.997 22.4087 375.035 22.5985 375.035 22.7904C375.055 23.6475 374.492 24.1626 373.668 24.2409Z" fill="#2E2E2D"/>
<path d="M24.9074 41.2479C24.8299 42.1421 24.3074 42.7149 23.5033 42.7108C23.303 42.7272 23.1016 42.6983 22.9138 42.626C22.726 42.5537 22.5566 42.4398 22.4181 42.2928C22.2795 42.1459 22.1753 41.9694 22.1131 41.7765C22.0508 41.5836 22.0322 41.379 22.0584 41.1778C22.1074 40.2919 22.6666 39.8551 23.5197 39.8674C24.3727 39.8798 24.8136 40.4443 24.9074 41.2479Z" fill="#2F2F2E"/>
<path d="M82.4667 233.711C83.3688 233.818 83.9361 234.284 83.9402 235.133C83.9402 236.06 83.4055 236.595 82.4259 236.563C81.4463 236.53 81.1034 235.973 81.1034 235.149C81.0969 234.964 81.1272 234.779 81.1926 234.605C81.258 234.432 81.3572 234.273 81.4843 234.139C81.6114 234.005 81.7638 233.898 81.9325 233.825C82.1013 233.751 82.2829 233.712 82.4667 233.711Z" fill="#2C2C2B"/>
<path d="M48.9991 302.215C48.1827 302.058 47.6521 301.601 47.6766 300.731C47.7011 299.862 48.1338 299.359 49.0603 299.375C49.9869 299.392 50.5583 299.952 50.5053 300.863C50.4522 301.687 49.8563 302.149 48.9991 302.215Z" fill="#2C2C2B"/>
<path d="M52.2876 338.187C52.1039 339.127 51.5529 339.683 50.7447 339.663C50.5551 339.668 50.3665 339.633 50.1919 339.558C50.0173 339.483 49.8609 339.371 49.7333 339.229C49.6057 339.087 49.51 338.919 49.4528 338.737C49.3956 338.554 49.3782 338.361 49.4019 338.171C49.388 337.98 49.417 337.789 49.4866 337.611C49.5561 337.433 49.6646 337.273 49.8038 337.143C49.9431 337.013 50.1095 336.916 50.2908 336.86C50.472 336.804 50.6635 336.79 50.8509 336.819C51.7366 336.861 52.1244 337.454 52.2876 338.187Z" fill="#2E2E2D"/>
<path d="M553.024 25.397C552.208 25.2528 551.604 24.8078 551.579 23.9713C551.551 23.0441 552.134 22.4878 553.077 22.5043C553.955 22.5043 554.416 23.0688 554.416 23.9383C554.416 24.8078 553.804 25.2034 553.024 25.397Z" fill="#2F2F2E"/>
<path d="M604.383 345.491C603.485 345.434 602.938 344.898 602.934 344.09C602.913 343.889 602.938 343.685 603.006 343.495C603.074 343.304 603.184 343.132 603.327 342.99C603.47 342.848 603.643 342.74 603.832 342.674C604.022 342.609 604.224 342.587 604.423 342.611C605.305 342.648 605.746 343.213 605.738 344.07C605.73 344.927 605.199 345.397 604.383 345.491Z" fill="#2B2B2A"/>
<path d="M89.2151 132.73C88.4191 132.623 87.8395 132.223 87.8558 131.321C87.8381 131.118 87.8653 130.914 87.9353 130.724C88.0054 130.533 88.1165 130.361 88.2607 130.22C88.405 130.078 88.5786 129.97 88.7691 129.905C88.9596 129.84 89.1621 129.818 89.362 129.841C89.5483 129.846 89.7314 129.89 89.8998 129.971C90.0682 130.051 90.2181 130.166 90.3398 130.309C90.4616 130.451 90.5526 130.618 90.6071 130.797C90.6615 130.977 90.6781 131.167 90.6559 131.353C90.6355 132.268 90.0845 132.656 89.2151 132.73Z" fill="#302F2E"/>
<path d="M71.0973 125.828C71.2797 125.814 71.463 125.84 71.6346 125.904C71.8063 125.967 71.9623 126.068 72.0921 126.198C72.2219 126.328 72.3223 126.485 72.3866 126.658C72.4509 126.831 72.4775 127.016 72.4647 127.2C72.4884 127.386 72.4718 127.576 72.416 127.755C72.3603 127.934 72.2667 128.099 72.1417 128.238C72.0168 128.377 71.8634 128.487 71.6923 128.56C71.5211 128.634 71.3362 128.669 71.1503 128.663C70.9507 128.687 70.7483 128.667 70.5576 128.603C70.3669 128.539 70.1926 128.432 70.0474 128.292C69.9022 128.152 69.7896 127.981 69.7177 127.791C69.6459 127.602 69.6166 127.398 69.6319 127.196C69.636 126.368 70.2156 125.886 71.0973 125.828Z" fill="#2D2C2B"/>
<path d="M358.412 31.3823C358.355 32.3053 357.901 32.8245 357.036 32.8534C356.851 32.8755 356.663 32.8578 356.485 32.8014C356.307 32.7451 356.143 32.6513 356.004 32.5264C355.864 32.4015 355.752 32.2482 355.676 32.0766C355.599 31.905 355.559 31.7189 355.559 31.5306C355.534 31.329 355.555 31.1245 355.62 30.9322C355.685 30.7398 355.791 30.5646 355.932 30.4194C356.072 30.2742 356.244 30.1628 356.433 30.0934C356.622 30.024 356.824 29.9983 357.024 30.0183C357.889 30.0265 358.33 30.5746 358.412 31.3823Z" fill="#2E2E2D"/>
<path d="M26.1159 97.5722C25.3648 97.4857 24.7567 97.1973 24.7077 96.2536C24.6587 95.3099 25.1158 94.7825 25.9322 94.7124C26.1295 94.6768 26.3323 94.6866 26.5254 94.7411C26.7185 94.7957 26.8968 94.8936 27.0471 95.0275C27.1975 95.1615 27.3159 95.328 27.3935 95.5146C27.4711 95.7012 27.506 95.9031 27.4955 96.1052C27.5445 97.0118 26.9893 97.4321 26.1159 97.5722Z" fill="#2B2B2A"/>
<path d="M596.103 84.2178C595.918 84.2173 595.735 84.1762 595.568 84.0974C595.4 84.0185 595.251 83.9038 595.131 83.7611C595.012 83.6185 594.924 83.4513 594.875 83.2711C594.826 83.091 594.816 82.9022 594.846 82.7178C594.891 81.7948 595.405 81.3374 596.291 81.3909C596.48 81.3832 596.668 81.4173 596.842 81.4908C597.017 81.5644 597.173 81.6755 597.3 81.8165C597.427 81.9575 597.522 82.1249 597.579 82.307C597.635 82.489 597.651 82.6813 597.626 82.8703C597.577 83.7357 597.034 84.1972 596.103 84.2178Z" fill="#2A2A29"/>
<path d="M20.0748 79.8724C19.2136 79.8435 18.6421 79.415 18.585 78.5579C18.5552 78.3569 18.5709 78.1518 18.631 77.9579C18.6911 77.764 18.794 77.5863 18.9319 77.4384C19.0698 77.2904 19.2392 77.176 19.4273 77.1036C19.6153 77.0313 19.8172 77.003 20.0177 77.0208C20.3749 77.0399 20.7117 77.1948 20.9604 77.4543C21.2092 77.7138 21.3515 78.0587 21.3587 78.4198C21.366 78.7808 21.2376 79.1313 20.9995 79.4008C20.7613 79.6702 20.4309 79.8387 20.0748 79.8724Z" fill="#2D2D2C"/>
<path d="M125.631 440.602C126.467 440.713 127.043 441.104 127.067 442.023C127.092 442.942 126.627 443.424 125.716 443.445C124.806 443.466 124.304 443.033 124.275 442.106C124.247 441.178 124.802 440.771 125.631 440.602Z" fill="#2A2A29"/>
<path d="M617.959 358.29C617.779 359.156 617.371 359.671 616.465 359.654C615.559 359.638 615.073 359.131 615.085 358.282C615.067 358.08 615.095 357.876 615.167 357.686C615.239 357.497 615.352 357.326 615.499 357.187C615.646 357.048 615.822 356.944 616.014 356.884C616.206 356.824 616.409 356.809 616.608 356.84C617.469 356.893 617.849 357.528 617.959 358.29Z" fill="#2C2C2B"/>
<path d="M39.1013 8.45966C38.0523 8.45966 37.6074 7.84154 37.6074 7.05859C37.6141 6.8719 37.6572 6.68836 37.7341 6.51846C37.8111 6.34857 37.9204 6.19564 38.0559 6.06841C38.1914 5.94118 38.3504 5.84214 38.5239 5.77694C38.6973 5.71174 38.8817 5.68167 39.0666 5.68843C39.2515 5.6952 39.4333 5.73867 39.6016 5.81636C39.7699 5.89406 39.9214 6.00446 40.0474 6.14125C40.1734 6.27805 40.2715 6.43857 40.3361 6.61364C40.4007 6.78872 40.4305 6.97492 40.4238 7.16161C40.3748 8.02286 39.8768 8.51735 39.1013 8.45966Z" fill="#2D2D2C"/>
<path d="M232.812 474.595C232.637 475.444 232.171 476.037 231.334 475.996C231.134 476.003 230.934 475.964 230.75 475.883C230.566 475.802 230.402 475.681 230.269 475.529C230.137 475.376 230.04 475.196 229.985 475.001C229.93 474.806 229.918 474.602 229.951 474.402C229.952 474.213 229.994 474.027 230.074 473.857C230.154 473.686 230.269 473.536 230.413 473.415C230.556 473.294 230.724 473.206 230.904 473.157C231.084 473.109 231.273 473.1 231.457 473.133C232.302 473.198 232.735 473.771 232.812 474.595Z" fill="#2D2D2C"/>
<path d="M598.726 101.971C598.689 102.474 598.208 102.98 597.33 102.956C597.141 102.961 596.953 102.924 596.779 102.849C596.605 102.775 596.449 102.663 596.321 102.522C596.193 102.381 596.097 102.214 596.039 102.032C595.981 101.85 595.962 101.658 595.983 101.468C595.983 100.603 596.538 100.121 597.449 100.141C598.359 100.162 598.787 100.66 598.726 101.971Z" fill="#2A2A29"/>
<path d="M590.389 333.613C590.279 334.507 589.793 335.051 588.948 335.047C588.763 335.043 588.58 335.003 588.41 334.928C588.24 334.853 588.087 334.744 587.958 334.609C587.83 334.474 587.729 334.315 587.661 334.14C587.594 333.966 587.561 333.78 587.565 333.593C587.568 333.405 587.609 333.221 587.683 333.049C587.758 332.878 587.865 332.723 587.999 332.593C588.132 332.463 588.29 332.361 588.463 332.293C588.636 332.225 588.82 332.192 589.006 332.196C589.842 332.245 590.287 332.814 590.389 333.613Z" fill="#2D2D2C"/>
<path d="M571.392 328.96C570.507 328.836 569.98 328.35 569.968 327.497C569.947 327.31 569.967 327.121 570.027 326.943C570.086 326.765 570.183 326.602 570.312 326.465C570.44 326.329 570.596 326.223 570.77 326.154C570.943 326.085 571.129 326.055 571.315 326.067C571.515 326.044 571.718 326.068 571.907 326.135C572.097 326.203 572.27 326.313 572.412 326.457C572.554 326.601 572.662 326.776 572.728 326.968C572.794 327.16 572.816 327.365 572.792 327.567C572.76 328.432 572.168 328.844 571.392 328.96Z" fill="#2D2D2B"/>
<path d="M49.8981 319.628C49.7185 320.452 49.2859 321.046 48.3961 320.996C47.5063 320.947 47.0818 320.403 47.094 319.5C47.1063 318.598 47.6287 318.148 48.5185 318.181C49.4083 318.214 49.8042 318.779 49.8981 319.628Z" fill="#292928"/>
<path d="M501.397 174.215C502.45 174.306 502.928 174.841 502.899 175.698C502.908 175.888 502.875 176.078 502.804 176.254C502.732 176.43 502.622 176.587 502.483 176.716C502.344 176.844 502.179 176.94 501.999 176.996C501.819 177.052 501.629 177.068 501.442 177.042C500.516 177.017 500.107 176.481 500.116 175.595C500.105 175.419 500.13 175.241 500.19 175.075C500.249 174.908 500.342 174.756 500.462 174.626C500.582 174.497 500.727 174.394 500.888 174.323C501.048 174.253 501.222 174.216 501.397 174.215Z" fill="#282827"/>
<path d="M464.662 179.676C465.016 179.682 465.353 179.827 465.602 180.08C465.851 180.334 465.993 180.675 465.997 181.032C466.007 181.411 465.868 181.779 465.61 182.054C465.351 182.33 464.995 182.49 464.619 182.501C464.244 182.511 463.879 182.37 463.607 182.109C463.334 181.849 463.175 181.489 463.164 181.11C463.152 180.257 463.654 179.738 464.662 179.676Z" fill="#2D2C2B"/>
<path d="M53.8388 119.266C54.0139 119.265 54.1873 119.301 54.3473 119.373C54.5073 119.445 54.6501 119.551 54.7662 119.683C54.8823 119.815 54.9688 119.971 55.0201 120.14C55.0714 120.309 55.0861 120.488 55.0633 120.663C55.074 120.854 55.0439 121.045 54.9751 121.222C54.9062 121.4 54.8002 121.561 54.6643 121.694C54.5284 121.827 54.3657 121.929 54.1874 121.993C54.009 122.057 53.8191 122.081 53.6306 122.064C52.7816 122.064 52.2673 121.549 52.2755 120.626C52.2836 119.703 52.7408 119.25 53.8388 119.266Z" fill="#292928"/>
<path d="M465.084 0.992096C465.084 2.22833 464.643 2.78052 463.769 2.81349C463.582 2.83549 463.391 2.81641 463.212 2.75754C463.032 2.69867 462.867 2.60139 462.728 2.47234C462.589 2.34328 462.479 2.18548 462.406 2.00969C462.333 1.83389 462.298 1.64423 462.304 1.45362C462.279 1.2647 462.296 1.0726 462.354 0.891233C462.412 0.709865 462.509 0.54376 462.639 0.404937C462.768 0.266115 462.926 0.158047 463.102 0.0885511C463.278 0.019055 463.467 -0.0101313 463.655 0.00310581C464.561 -0.0339813 465.043 0.406944 465.084 0.992096Z" fill="#292928"/>
<path d="M70.0843 250.584C69.1496 250.493 68.672 249.986 68.6924 249.121C68.6799 248.932 68.7073 248.743 68.7729 248.566C68.8385 248.389 68.9408 248.228 69.0729 248.094C69.205 247.959 69.3639 247.855 69.539 247.788C69.7141 247.721 69.9014 247.692 70.0884 247.703C70.2897 247.687 70.4921 247.718 70.6802 247.792C70.8684 247.866 71.0375 247.982 71.175 248.131C71.3124 248.281 71.4146 248.46 71.4738 248.654C71.533 248.849 71.5478 249.055 71.517 249.257C71.5113 249.44 71.4694 249.619 71.3939 249.786C71.3184 249.952 71.2107 250.101 71.0773 250.225C70.9438 250.348 70.7872 250.444 70.6167 250.505C70.4461 250.567 70.2651 250.594 70.0843 250.584Z" fill="#2D2D2C"/>
<path d="M339.976 453.893C339.078 453.852 338.552 453.44 338.543 452.513C338.522 452.326 338.542 452.137 338.6 451.959C338.659 451.781 338.756 451.618 338.883 451.482C339.011 451.345 339.166 451.239 339.339 451.169C339.511 451.099 339.697 451.068 339.882 451.079C340.07 451.057 340.26 451.077 340.439 451.138C340.618 451.199 340.782 451.299 340.919 451.43C341.055 451.562 341.162 451.723 341.23 451.9C341.299 452.078 341.328 452.269 341.315 452.459C341.33 452.644 341.306 452.831 341.245 453.006C341.184 453.181 341.088 453.342 340.961 453.477C340.835 453.612 340.682 453.719 340.513 453.791C340.343 453.862 340.16 453.897 339.976 453.893Z" fill="#292827"/>
<path d="M158.658 460.954C157.707 460.876 157.242 460.344 157.258 459.496C157.243 459.306 157.269 459.114 157.333 458.935C157.398 458.756 157.501 458.593 157.634 458.458C157.767 458.322 157.927 458.218 158.104 458.151C158.281 458.084 158.47 458.056 158.658 458.07C158.858 458.056 159.059 458.087 159.246 458.161C159.433 458.235 159.601 458.35 159.738 458.498C159.875 458.647 159.977 458.824 160.037 459.017C160.098 459.21 160.115 459.414 160.087 459.615C160.026 460.472 159.426 460.884 158.658 460.954Z" fill="#2D2D2C"/>
<path d="M554.313 325.218C554.215 326.042 553.774 326.582 552.872 326.553C552.689 326.548 552.509 326.507 552.343 326.431C552.176 326.356 552.025 326.248 551.899 326.114C551.774 325.98 551.675 325.822 551.61 325.65C551.545 325.477 551.514 325.293 551.519 325.109C551.524 324.924 551.565 324.743 551.64 324.574C551.715 324.406 551.821 324.253 551.954 324.127C552.087 324 552.243 323.901 552.414 323.835C552.585 323.769 552.767 323.738 552.95 323.743C553.844 323.763 554.284 324.291 554.313 325.218Z" fill="#282827"/>
<path d="M327.279 52.3617C327.284 52.5472 327.248 52.7315 327.174 52.9015C327.1 53.0715 326.99 53.2231 326.852 53.3454C326.714 53.4677 326.551 53.5578 326.374 53.6092C326.197 53.6607 326.012 53.6723 325.83 53.6432C325.647 53.6367 325.468 53.594 325.301 53.5174C325.135 53.4407 324.985 53.3318 324.86 53.1967C324.736 53.0616 324.638 52.9031 324.574 52.7301C324.51 52.5572 324.481 52.3732 324.487 52.1886C324.494 52.0041 324.536 51.8226 324.612 51.6546C324.688 51.4866 324.796 51.3354 324.93 51.2095C325.063 51.0836 325.22 50.9856 325.392 50.9209C325.563 50.8563 325.745 50.8264 325.928 50.8329C326.785 50.8824 327.263 51.4139 327.279 52.3617Z" fill="#282827"/>
<path d="M519.016 7.20703C519.873 7.29769 520.448 7.75922 520.457 8.63694C520.472 8.82604 520.447 9.01629 520.384 9.19485C520.32 9.37342 520.219 9.53615 520.088 9.67206C519.957 9.80797 519.798 9.91391 519.623 9.98273C519.448 10.0515 519.26 10.0816 519.073 10.071C518.885 10.0892 518.696 10.065 518.519 10.0002C518.341 9.93538 518.181 9.83152 518.048 9.69618C517.916 9.56084 517.815 9.39741 517.753 9.21775C517.69 9.0381 517.669 8.84673 517.689 8.65755C517.665 7.72213 518.154 7.30181 519.016 7.20703Z" fill="#2B2B2A"/>
<path d="M195.698 470.394C195.645 471.354 195.155 471.873 194.29 471.869C194.101 471.884 193.912 471.858 193.735 471.791C193.557 471.725 193.396 471.62 193.264 471.484C193.131 471.348 193.029 471.185 192.965 471.005C192.901 470.825 192.877 470.633 192.894 470.443C192.894 469.553 193.421 469.088 194.31 469.067C195.2 469.046 195.649 469.566 195.698 470.394Z" fill="#292928"/>
<path d="M446.489 2.40801C446.489 3.27749 446.06 3.82143 445.166 3.87088C444.98 3.89968 444.789 3.88637 444.608 3.83191C444.427 3.77745 444.26 3.68319 444.12 3.55592C443.979 3.42864 443.869 3.27151 443.795 3.09583C443.722 2.92015 443.689 2.73028 443.697 2.53987C443.671 2.35128 443.686 2.15924 443.742 1.97736C443.798 1.79548 443.893 1.62822 444.02 1.48744C444.147 1.34666 444.303 1.23581 444.477 1.16274C444.651 1.08967 444.839 1.05618 445.027 1.06464C445.901 1.02755 446.419 1.47259 446.489 2.40801Z" fill="#282827"/>
<path d="M482.309 3.49387C481.493 3.32903 480.929 2.86339 480.942 2.01039C480.942 1.06261 481.574 0.555752 482.501 0.609322C483.427 0.662892 483.815 1.25628 483.762 2.10928C483.709 2.96229 483.154 3.40321 482.309 3.49387Z" fill="#2D2D2C"/>
<path d="M54.402 282.416C54.2754 283.273 53.7856 283.797 52.9203 283.776C52.055 283.755 51.5652 283.207 51.5856 282.313C51.606 281.419 52.1203 280.941 53.0142 280.966C53.9081 280.99 54.3326 281.534 54.402 282.416Z" fill="#282827"/>
<path d="M39.392 110.549C39.2981 111.406 38.8124 111.962 37.9756 111.946C37.7901 111.941 37.6075 111.899 37.4381 111.822C37.2687 111.746 37.1159 111.637 36.9883 111.501C36.8608 111.365 36.761 111.204 36.6948 111.03C36.6285 110.855 36.597 110.668 36.6021 110.481C36.6072 110.294 36.6488 110.109 36.7244 109.938C36.8001 109.767 36.9084 109.613 37.0432 109.484C37.1779 109.355 37.3364 109.255 37.5097 109.188C37.683 109.121 37.8677 109.089 38.0532 109.094C38.9022 109.135 39.3675 109.663 39.392 110.549Z" fill="#2D2D2C"/>
<path d="M591.779 65.015C591.591 65.9422 591.085 66.4655 590.244 66.3914C590.043 66.3921 589.844 66.3471 589.663 66.2595C589.482 66.1719 589.322 66.0441 589.197 65.8857C589.071 65.7272 588.983 65.5421 588.938 65.3442C588.893 65.1464 588.893 64.9409 588.938 64.7431C589.04 63.8447 589.66 63.4574 590.493 63.548C591.326 63.6387 591.726 64.2692 591.779 65.015Z" fill="#2D2C2B"/>
<path d="M271.085 361.345C271.805 361.823 272.351 362.527 272.636 363.348C277.636 375.673 284.677 386.721 293.228 396.829C294.902 398.803 295.155 398.247 292.877 400.126C278.603 412.056 263.721 423.225 248.292 433.587C247.211 434.312 246.574 434.308 245.492 433.504C235.847 426.322 225.953 419.494 216.398 412.171C197.397 397.625 179.291 382.056 162.927 364.494C153.764 354.649 145.119 344.347 137.853 332.978C131.808 323.5 128.123 312.988 124.902 302.29C120.114 286.392 116.931 270.148 114.29 253.752C112.583 243.194 111.159 232.596 109.947 221.968C108.967 213.352 108.245 204.702 107.4 196.065C106.245 184.395 105.502 172.671 104.775 160.968C104.245 152.364 103.938 143.743 103.551 135.131C103.008 123.181 102.734 111.189 102.469 99.21C102.298 91.3806 102.334 83.5758 102.216 75.7587C102.196 74.5224 102.449 74.0856 103.8 74.1104C114.184 74.2876 124.567 74.3906 134.951 74.4771C142.356 74.5348 149.764 74.4359 157.168 74.5719C175.416 74.9016 193.667 74.9579 211.92 74.7408C229.88 74.5348 247.839 74.267 265.799 74.5348C281.526 74.7656 297.228 74.7738 312.971 74.7944C319.804 74.7944 326.637 74.848 333.466 74.7038C348.841 74.3823 364.225 74.5472 379.589 74.3741C383.03 74.3329 386.471 74.2752 389.908 74.1227C391.193 74.065 391.691 74.3205 391.663 75.771C391.463 86.4851 391.406 97.1991 391.201 107.913C391.063 115.144 390.833 122.374 390.512 129.605C389.908 143.649 389.246 157.692 388.295 171.719C387.556 182.573 386.74 193.419 385.699 204.245C384.279 219.038 382.569 233.803 380.316 248.498C377.54 266.629 374.156 284.596 368.932 302.179C367.646 306.494 366.221 310.763 364.621 314.974C364.401 315.559 364.319 316.132 363.352 315.901C357.168 314.418 350.939 313.202 344.205 312.7C346.437 311.686 348.348 310.936 350.156 309.98C355.086 307.375 355.899 303.737 352.633 299.159C351.127 297.045 349.605 294.939 348.029 292.874C347.539 292.232 347.474 291.828 348.197 291.362C348.57 291.091 348.908 290.774 349.205 290.418C350.646 288.844 350.678 287.361 349.16 285.857C347.727 284.443 346.176 283.149 344.67 281.798C343.984 281.184 342.988 280.784 343.445 279.482C343.686 278.806 342.984 278.851 342.707 279.004C341.511 279.671 340.947 278.728 340.204 278.143C340.494 277.492 341.102 277.397 341.625 277.318C342.335 277.224 342.486 276.795 342.392 276.239C342.27 275.538 341.674 275.872 341.27 275.827C341.043 275.846 340.819 275.889 340.6 275.954C339.813 276.053 339.286 277.211 338.474 276.75C337.402 276.081 336.391 275.317 335.453 274.467C334.898 274.005 335.453 273.614 335.723 273.387C337.527 271.858 339.086 270.239 338.988 267.593C338.988 266.942 339.739 266.617 340.143 266.143C342.013 263.947 342.425 261.754 339.274 260.576C338.645 260.341 338.727 260.065 338.825 259.554C339.103 258.423 339.053 257.236 338.682 256.134C338.539 252.684 339.449 249.363 339.907 245.988C341.237 235.769 342.4 225.533 343.319 215.264C344.258 204.772 345.002 194.268 345.552 183.752C345.919 176.59 346.18 169.416 346.405 162.242C346.699 152.924 346.596 143.599 347.033 134.286C347.058 133.767 347.033 133.244 347.033 132.724C347.033 131.81 346.625 131.315 345.699 131.315C345.18 131.315 344.666 131.315 344.147 131.315H151.307C149.041 131.336 148.952 131.406 148.952 133.639C148.952 140.991 149.017 148.342 149.25 155.694C149.523 164.426 149.882 173.153 150.25 181.881C150.535 188.59 150.943 195.286 151.409 201.978C151.978 210.176 152.693 218.362 153.556 226.538C154.323 233.675 155.135 240.812 156.197 247.913C158.593 263.909 161.458 279.803 166.989 295.075C169.421 301.837 172.838 308.195 177.128 313.94C183.195 322.094 189.882 329.758 197.128 336.864C209.52 348.975 222.961 359.825 237.006 369.921C240.231 372.241 243.537 374.454 246.639 376.926C247.599 377.701 248.248 377.577 249.186 376.881C255.901 371.915 262.778 367.18 269.391 362.079C269.885 361.687 270.391 361.284 271.085 361.345Z" fill="#FF8025"/>
<path d="M271.089 361.357C264.493 366.574 257.62 371.379 250.799 376.303C249.824 377.008 248.881 378.306 247.909 378.314C246.938 378.322 246.028 377.003 245.052 376.311C235.162 369.269 225.329 362.148 215.966 354.393C200.749 341.787 186.626 328.11 175.042 311.928C169.328 303.917 166.001 294.831 163.32 285.477C159.303 271.441 156.875 257.085 154.944 242.621C152.238 222.379 150.679 202.006 149.679 181.584C149.185 171.694 148.801 161.804 148.65 151.914C148.552 145.432 148.519 138.942 148.372 132.46C148.34 131.071 148.63 130.601 150.124 130.605C215.339 130.644 280.552 130.644 345.764 130.605C347.013 130.605 347.564 130.795 347.548 132.279C347.332 152.248 346.821 172.205 345.593 192.141C344.777 205.084 343.756 218.007 342.36 230.897C341.511 238.727 340.429 246.511 339.217 254.287C339.09 254.905 338.929 255.516 338.736 256.116C338.386 254.949 337.768 253.881 336.931 253.001C335.36 251.225 334.544 251.32 333.54 253.413C333.266 253.982 333.013 254.567 332.797 255.16C331.164 259.664 328.164 262.854 323.931 265.05C318.094 268.104 312.094 270.881 306.735 274.792C306.299 275.07 305.78 275.184 305.27 275.113C302.082 275.031 298.976 275.447 296.045 276.782C295.18 277.194 294.89 276.811 294.931 276.036C294.984 274.989 294.649 274.643 293.551 274.767C278.424 276.51 264.657 281.62 252.799 291.464C250.227 293.606 247.899 296.032 245.86 298.696C241.811 303.971 241.44 309.958 242.681 316.185C244.338 324.492 248.375 331.728 252.966 338.676C258.101 346.448 264.089 353.536 270.363 360.38C270.628 360.71 270.848 361.044 271.089 361.357Z" fill="white"/>
<path d="M337.083 314.885C339.602 313.888 342.018 314.156 344.386 314.283C353.014 314.749 361.337 316.904 369.66 319.063C375.692 320.629 381.652 322.488 387.815 323.551C391.048 324.111 394.076 323.444 397.101 322.5C407.562 319.236 417.51 314.671 427.416 310.051C428.64 309.478 429.228 309.639 430.057 310.698C432.555 313.941 435.183 317.081 437.812 320.23C438.367 320.901 438.432 321.223 437.604 321.725C425.828 328.863 414.085 336.053 401.934 342.527C396.301 345.531 390.211 345.873 384.031 345.556C376.394 345.144 368.97 343.347 361.472 342.037C361.302 342.039 361.132 342.057 360.966 342.09C362.455 345.799 364.868 348.717 367.823 351.206C372.06 354.774 376.929 357.148 382.15 358.837C382.823 359.051 383.431 359.097 383.374 360.106C382.966 372.028 382.288 383.912 379.203 395.508C375.121 410.796 366.431 422.705 353.488 431.544C353.182 431.787 352.822 431.951 352.44 432.022C352.058 432.094 351.664 432.072 351.292 431.956C330.773 426.505 313.246 415.955 298.638 400.486C288.05 389.294 279.658 376.631 273.866 362.266C273.547 361.479 272.951 360.951 272.409 360.366C263.633 350.863 255.343 340.998 249.229 329.46C246.514 324.342 244.384 319.006 243.718 313.167C243.114 307.863 244.208 303.071 247.661 298.9C254.931 290.123 264.343 284.605 274.796 280.67C280.18 278.643 285.76 277.406 291.433 276.52C293.013 276.277 293.629 276.652 293.78 278.317C294.16 282.582 294.67 286.835 295.205 291.092C295.356 292.328 295.038 292.863 293.801 293.276C287.829 295.27 281.85 297.302 276.58 300.907C269.257 305.91 268.466 311.304 274.266 318.866C277.715 323.361 282.303 323.625 287.286 322.624C289.866 322.105 292.466 321.672 295.042 321.107C295.98 320.901 296.368 321.173 296.674 322.039C297.85 325.232 299.123 328.381 300.283 331.578C300.605 332.481 301.017 332.814 301.972 332.847C303.458 332.88 304.94 333.124 306.426 333.259C307.368 333.334 307.871 333.634 307.683 334.755C307.519 335.724 307.609 336.816 307.05 337.599C306.075 338.967 306.483 339.832 307.458 340.994C313.842 348.556 321.797 354.069 330.198 359.027C333.806 361.153 337.443 363.23 341.047 365.36C341.916 365.871 342.271 365.876 342.377 364.697C343.444 353.233 344.277 341.751 344.875 330.251C344.949 328.859 344.753 327.754 343.463 327.07C342.365 326.489 342.549 325.496 342.843 324.659C343.586 322.558 343.116 320.971 341.434 319.496C339.912 318.149 338.659 316.554 337.083 314.885Z" fill="white"/>
<path d="M355.234 432.183C358.89 429.54 362.32 426.594 365.492 423.377C373.655 414.892 378.582 404.685 381.3 393.295C383.533 383.916 384.272 374.34 384.696 364.755C384.729 364.034 384.79 363.473 385.455 362.979C396.28 354.951 407.533 347.682 420.126 342.754C427.35 339.927 434.718 338.633 442.493 340.043C451.347 341.633 457.31 346.553 460.563 354.956C463.065 361.438 464.02 368.241 464.645 375.098C465.327 382.767 465.547 390.46 465.567 398.174C465.567 399.501 465.567 400.074 463.845 399.728C456.155 398.17 448.428 396.814 440.706 395.426C439.608 395.228 439.101 394.812 438.983 393.596C438.685 390.082 438.069 386.604 437.142 383.203C436.857 382.146 436.462 381.123 435.963 380.15C434.971 378.296 433.469 378.09 432.15 379.738C431.095 381.106 430.112 382.529 429.207 384.003C427.64 386.422 426.093 388.853 424.595 391.313C424.138 392.067 423.713 392.253 422.807 392.055C420.068 391.453 417.293 391.016 414.53 390.543C414.121 390.468 413.505 390.052 413.358 390.979C413.211 391.907 413.717 391.874 414.338 391.989C427.342 394.401 440.345 396.825 453.347 399.262L500.633 408.076C514.646 410.693 528.654 413.343 542.675 415.906C543.998 416.145 544.308 416.602 544.308 417.88C544.237 422.976 544.237 428.075 544.308 433.176C544.308 434.412 544.1 434.824 542.753 434.824C536.557 434.775 530.356 434.824 524.165 434.915C506.205 435.195 488.245 435.405 470.318 435.859C445.942 436.473 421.562 436.782 397.182 436.374C385.268 436.172 373.349 435.69 361.553 433.695C359.411 433.358 357.298 432.852 355.234 432.183Z" fill="white"/>
<path d="M329.455 328.986C322.434 324.527 316.671 318.914 313.23 311.126C312.589 309.68 312.556 308.093 312.075 306.618C311.814 305.823 312.524 305.641 312.952 305.337C315.295 303.688 317.655 302.04 320.095 300.35C318.073 298.862 316.496 296.84 315.536 294.507C315.272 293.867 315.133 293.181 315.128 292.488C315.128 291.664 315.303 290.988 316.03 290.555C316.377 290.344 316.782 290.249 317.186 290.286C317.59 290.323 317.971 290.49 318.275 290.761C318.992 291.236 319.632 291.82 320.173 292.492C320.989 293.687 321.924 293.213 322.724 292.764C323.524 292.315 322.724 291.672 322.557 291.161C321.74 288.94 320.842 286.768 320.291 284.456C320.151 283.955 320.124 283.428 320.213 282.915C320.301 282.401 320.502 281.914 320.802 281.49C323.349 277.855 327.034 275.589 330.643 273.227C331.23 272.844 331.487 273.335 331.806 273.582C337.002 277.583 342.259 281.506 347.125 285.944C349.329 287.951 349.308 289.076 346.741 290.522C345.259 291.346 345.271 291.944 346.284 293.069C347.1 293.963 347.696 295.039 348.488 295.953C349.28 296.868 348.896 297.346 348.039 297.812C346.778 298.508 345.39 298.504 344.027 298.583C343.431 298.615 343.055 298.706 343.076 299.448C343.096 300.19 343.541 300.12 344.002 300.111C345.851 300.078 347.676 299.922 349.247 298.797C349.896 298.331 350.268 298.253 350.717 299.011C351.439 300.247 352.476 301.253 352.794 302.753C353.308 305.176 352.949 306.391 350.888 307.78C347.659 309.952 343.949 311.015 340.341 312.292C339.707 312.561 339.048 312.763 338.373 312.894C335.345 313.265 333.916 315.181 333.026 317.946C331.99 321.185 330.953 324.42 330.034 327.696C329.958 328.17 329.758 328.615 329.455 328.986Z" fill="white"/>
<path d="M456.381 292.191C456.381 288.895 456.381 285.598 456.381 282.301C456.381 281.453 456.626 281.065 457.528 280.991C467.133 280.192 476.753 279.891 486.39 279.915C487.423 279.915 487.986 280.501 488.456 281.222C489.717 283.154 490.958 285.099 492.129 287.094C492.652 287.992 493.186 288.548 494.309 288.742C496.398 289.097 498.454 289.627 500.456 290.329C501.272 290.613 501.738 291.083 501.844 291.899C502.113 294.021 502.338 296.147 502.595 298.269C502.701 299.131 502.44 299.563 501.485 299.485C500.627 299.411 499.762 299.485 498.905 299.485C497.501 299.427 496.284 299.254 496.272 301.447C496.272 302.794 494.909 303.618 493.509 303.507C492.109 303.396 490.982 302.464 490.941 300.948C490.905 299.732 490.562 299.662 489.456 299.683C483.207 299.806 476.949 299.802 470.68 299.819C469.623 299.819 468.741 299.625 468.696 301.306C468.655 302.695 467.431 303.523 466.027 303.511C464.622 303.499 463.488 302.687 463.378 301.257C463.267 299.827 462.586 299.794 461.578 299.942C459.863 300.19 457.737 300.684 456.537 299.864C455.194 298.941 456.271 296.658 456.092 294.977C456.043 294.052 456.043 293.125 456.092 292.199L456.381 292.191Z" fill="#FF8025"/>
<path d="M281.779 321.638C279.946 321.819 278.603 320.748 277.318 319.718C274.439 317.461 272.513 314.188 271.926 310.557C271.517 308.237 272.775 306.436 274.24 304.842C276.987 301.846 280.567 300.111 284.175 298.487C287.893 296.838 291.71 295.426 295.604 294.259C296.665 293.934 297.204 293.518 296.791 292.36C296.723 292.199 296.694 292.023 296.706 291.849C296.808 291.025 295.938 289.941 296.991 289.422C297.938 288.956 299.812 290.188 300.159 291.247C301.873 296.489 305.028 300.778 308.975 304.483C310.355 305.777 310.808 307.331 311.102 309.061C311.179 309.365 311.162 309.686 311.055 309.981C310.947 310.275 310.752 310.529 310.498 310.71C308.653 312.275 306.926 313.969 305.837 316.194C305.727 316.392 305.575 316.563 305.393 316.695C305.21 316.827 305 316.916 304.779 316.957C297.261 319.301 289.644 321.098 281.779 321.638Z" fill="white"/>
<path d="M579.162 391.095C578.186 393.473 577.26 395.867 576.227 398.216C572.553 406.539 568.704 414.773 564.741 422.94C563.827 424.944 562.289 426.591 560.361 427.63C558.451 428.66 558.414 429.653 560.227 430.782C560.835 431.161 560.839 431.445 560.574 432.018C559.627 434.05 558.692 436.09 557.827 438.158C557.496 438.945 557.051 439.052 556.361 438.756C553.096 437.355 550.084 435.459 547.055 433.601C546.463 433.238 546.492 432.805 546.7 432.294C547.786 429.636 549.149 427.259 551.916 425.944C554.014 424.951 554.896 422.821 555.59 420.74C555.998 419.549 555.084 419.058 554.108 418.622C551.998 417.674 551.659 415.667 553.602 414.373C562.794 408.307 569.357 399.419 577.362 392.084C577.819 391.672 578.284 391.26 578.745 390.848L579.162 391.095Z" fill="white"/>
<path d="M332.639 358.616C323.888 353.7 315.639 348.125 308.99 340.415C308.333 339.653 307.892 339.117 308.496 337.922C309.243 336.451 309.141 334.662 309.312 332.977C309.382 332.289 309.129 332.099 308.496 332.037C306.728 331.868 304.973 331.547 303.19 331.428C302.214 331.362 301.679 331.114 301.328 330.092C300.328 327.208 299.21 324.373 298.063 321.546C297.704 320.656 297.867 320.396 298.798 320.194C300.532 319.823 302.241 319.343 303.916 318.756C304.92 318.402 305.394 318.616 305.986 319.51C309.524 324.867 313.002 330.278 317.586 334.757C320.149 337.258 321.774 340.192 323.055 343.411C325.333 349.093 328.966 353.795 333.1 358.171C333.158 358.542 333.019 358.707 332.639 358.616Z" fill="white"/>
<path d="M311.587 311.758C312.089 311.803 312.064 312.24 312.199 312.524C315.844 320.247 321.661 325.921 328.783 330.322C329.849 330.977 330.008 331.525 329.6 332.63C328.82 334.69 328.155 336.75 327.506 338.856C327.208 339.816 326.857 339.932 325.959 339.454C321.604 337.129 318.244 333.684 315.228 329.869C312.452 326.337 309.885 322.653 307.354 318.94C306.787 318.116 306.734 317.449 307.256 316.591C308.3 314.928 309.59 313.436 311.081 312.166C311.244 312.013 311.432 311.881 311.587 311.758Z" fill="white"/>
<path d="M433.277 312.299C435.204 311.582 437.004 310.889 438.824 310.238C439.203 310.135 439.546 309.925 439.812 309.634C440.077 309.342 440.256 308.98 440.326 308.59C440.59 307.373 441.151 306.243 441.958 305.3C442.765 304.358 443.792 303.635 444.947 303.196C447.029 302.339 448.947 301.082 451.298 299.809C450.991 300.668 450.476 301.436 449.8 302.042C449.235 302.614 448.629 303.145 447.988 303.629C447.078 304.313 446.959 304.791 447.784 305.817C449.253 307.655 450.931 308.223 453.249 308.174C460.47 308.017 467.698 308.116 475.388 308.116C469.87 310.655 464.776 312.839 458.984 313.028C454.927 313.16 450.886 313.745 446.837 314.128C444.024 314.396 441.706 316.012 439.188 317.062C438.028 317.545 437.347 317.474 436.608 316.44C435.604 315.06 434.465 313.766 433.277 312.299Z" fill="white"/>
<path d="M334.555 338.261C335.306 338.772 335.779 339.279 335.975 338.027C336.518 334.779 337.2 331.561 337.893 328.339C338.077 327.473 337.787 326.937 337.142 326.418C336.073 325.545 335.102 324.56 334.016 323.703C333.249 323.093 332.967 322.561 333.367 321.527C334.11 319.607 334.677 317.624 335.689 315.609C337.616 317.699 339.432 319.685 341.261 321.663C342.326 322.817 341.4 324.02 341.187 325.095C340.926 326.426 341.049 327.329 342.224 327.98C343.24 328.569 343.477 329.418 343.391 330.593C342.771 339.246 342.216 347.9 341.632 356.554C341.591 357.122 341.457 357.683 341.293 358.733C338.979 351.728 336.82 345.151 334.555 338.261Z" fill="white"/>
<path d="M323.08 339.616C324.386 340.283 325.447 340.79 326.472 341.359C327.496 341.927 328.227 341.878 328.513 340.506C328.67 339.74 329.023 339.03 329.537 338.445C330.898 344.239 332.258 350.032 333.619 355.823C328.59 351.471 325.537 345.941 323.08 339.616Z" fill="#FEFEFE"/>
<path d="M490.772 304.192H468.976C469.415 303.447 469.812 302.677 470.163 301.885C470.4 301.263 470.841 301.366 471.274 301.362C476.931 301.296 482.592 301.25 488.254 301.168C489.045 301.168 489.45 301.325 489.65 302.198C489.809 302.874 490.343 303.459 490.772 304.192Z" fill="#FDFDFD"/>
<path d="M545.692 430.47C545.692 426.321 545.692 422.587 545.692 418.854C545.692 418.145 545.945 417.988 546.607 418.03C549.109 418.157 551.55 418.442 553.648 420.032C554.027 420.325 554.26 420.473 553.99 420.951C553.174 422.439 552.57 424.112 550.811 424.854C548.403 425.867 547.166 428.035 545.692 430.47Z" fill="#FEFEFE"/>
<path d="M304.373 276.726C300.765 279.99 298.659 283.456 299.447 288.104C296.353 288.034 296.181 287.857 295.904 284.947C295.744 283.225 295.577 281.502 295.332 279.792C295.234 279.108 295.332 278.725 295.997 278.432C298.618 277.208 301.487 276.624 304.373 276.726Z" fill="#FEFEFE"/>
<path d="M334.836 335.901C330.579 332.992 330.538 329.827 332.595 324.441C333.734 325.455 334.836 326.436 335.946 327.417C336.203 327.647 336.46 327.862 336.354 328.282C335.86 330.8 335.358 333.318 334.836 335.901Z" fill="#FEFEFE"/>
<path d="M332.639 358.621L333.1 358.18L334.671 359.564C334.288 359.55 333.91 359.46 333.561 359.298C333.213 359.136 332.899 358.906 332.639 358.621Z" fill="#D2D2D1"/>
<path d="M64.7362 404.92C64.328 404.537 64.0505 404.331 63.8178 404.096C60.2055 400.453 56.6136 396.794 52.9727 393.18C52.3156 392.529 52.3645 392.183 52.9727 391.532C55.683 388.647 55.6626 388.647 58.3606 391.371C60.0259 393.048 61.7525 394.668 63.328 396.432C64.2546 397.466 64.7934 397.581 65.8342 396.489C69.9159 392.241 74.1078 388.132 78.1977 383.908C79.0508 383.031 79.5039 383.084 80.3243 383.937C82.7406 386.467 82.7733 386.41 80.3447 388.882C75.4466 393.827 70.5404 398.785 65.626 403.754C65.3057 404.124 65.0085 404.513 64.7362 404.92Z" fill="white"/>
<path d="M227.066 201.612C227.066 198.835 226.838 196.029 227.12 193.276C227.638 188.03 231.72 183.526 237.434 182.302C243.509 180.998 249.788 180.998 255.863 182.302C261.484 183.51 266.635 188.401 266.296 195.901C266.096 200.434 266.296 204.938 266.235 209.458C266.235 210.534 266.492 210.81 267.557 210.793C271.92 210.728 276.284 210.793 280.643 210.748C281.541 210.748 281.966 210.934 282.08 211.931C282.774 218.087 283.476 224.24 283.133 230.474C282.823 236.107 281.884 241.6 279.553 246.788C275.786 255.154 269.251 260.243 260.573 262.472C251.758 264.786 242.506 264.803 233.683 262.522C221.119 259.283 214.225 250.687 211.825 238.073C210.348 230.305 210.687 222.529 211.703 214.754C211.87 213.456 211.47 211.659 212.421 211.004C213.372 210.348 214.964 210.793 216.278 210.789C219.438 210.789 222.593 210.732 225.748 210.814C226.842 210.843 227.091 210.509 227.058 209.458C226.985 206.854 227.034 204.246 227.034 201.629L227.066 201.612Z" fill="#1E1E1F"/>
<path d="M337.846 391.371C337.65 391.783 337.437 392.195 337.237 392.582C334.503 397.655 330.131 400.927 325.254 403.622C324.049 404.281 322.811 404.874 321.543 405.398C321.164 405.554 320.613 406.222 320.204 405.196C319.841 404.285 320.413 404.252 320.927 404.03C324.091 402.695 327.075 400.958 329.805 398.862C332.483 396.868 334.68 394.289 336.233 391.317C336.409 390.963 336.482 390.303 337.164 390.736C337.437 390.905 337.89 390.843 337.846 391.371Z" fill="#262524"/>
<path d="M336.163 279.979C336.278 280.47 336.07 280.709 335.592 280.836C334.978 280.994 334.403 281.281 333.905 281.677C333.408 282.073 332.998 282.57 332.702 283.136C332.294 283.89 331.845 283.713 331.335 283.433C330.612 283.02 331.233 282.608 331.412 282.303C332.239 280.895 333.563 279.854 335.119 279.39C335.657 279.242 336.18 279.122 336.163 279.979Z" fill="#2B2B2A"/>
<path d="M335.049 284.322C335.175 283.143 335.93 282.566 337.037 282.385C337.326 282.34 337.788 282.125 337.877 282.628C337.939 282.987 338.106 283.654 337.722 283.712C336.812 283.844 336.163 285.051 335.049 284.322Z" fill="#272726"/>
<path d="M246.565 210.768C243.757 210.768 240.949 210.726 238.14 210.768C237.177 210.792 236.887 210.525 236.916 209.531C236.973 205.369 236.916 201.203 236.945 197.041C236.913 195.39 237.487 193.785 238.557 192.536C239.627 191.287 241.117 190.481 242.741 190.275C245.298 189.908 247.894 189.908 250.451 190.275C253.626 190.728 256.524 193.403 256.345 197.173C256.149 201.212 256.243 205.271 256.345 209.317C256.373 210.582 255.986 210.838 254.818 210.801C252.067 210.706 249.312 210.768 246.565 210.768Z" fill="white"/>
<path d="M255.282 243.002C255.253 246.237 252.902 248.981 249.567 249.649C246.18 250.329 242.665 248.458 241.441 245.322C240.261 242.306 241.347 239.063 244.298 237.245C244.64 237.068 244.919 236.79 245.1 236.447C245.28 236.104 245.352 235.714 245.306 235.329C245.306 234.126 245.102 232.91 245.494 231.715C245.902 230.43 246.739 229.618 248.086 229.568C249.433 229.519 250.294 230.356 250.771 231.6C251.249 232.845 251.016 234.118 251.008 235.379C250.963 235.765 251.04 236.156 251.227 236.496C251.413 236.836 251.701 237.108 252.049 237.274C253.062 237.832 253.901 238.663 254.472 239.675C255.043 240.686 255.323 241.839 255.282 243.002Z" fill="white"/>
</svg>
