<svg id="Слой_1" data-name="Слой 1" xmlns="http://www.w3.org/2000/svg" viewBox="0 0 1980 1230"><defs><style>.cls-1{fill:#fff;}.cls-2{fill:#ecebea;}.cls-3{fill:#231f20;}.cls-4{fill:#1e1e1c;}.cls-5{fill:#242021;}.cls-6{fill:#ec670d;}.cls-7{fill:#ec670c;}.cls-8{fill:#242022;}.cls-9{fill:#252122;}.cls-10{fill:#c2bfbf;}.cls-11{fill:#898887;}.cls-12{fill:#ec660c;}.cls-13{fill:#e27024;}.cls-14{fill:#d1d0d0;}.cls-15{fill:#949392;}.cls-16{fill:#272324;}.cls-17{fill:#272425;}.cls-18{fill:#282425;}.cls-19{fill:#2b2728;}.cls-20{fill:#292626;}.cls-21{fill:#2a2728;}.cls-22{fill:#f9f8f9;}</style></defs><path class="cls-1" d="M1660.52,626.13l-202.94-60.62s-15.92-4.55-31.83-38.66-79.58-97.77-142.11-166-71.62-100-139.83-108S967.6,213.08,967.6,213.08l-50.08-15.67S878.93,186.94,894.84,237,1040.36,347.23,1087,364.28l40.92,386.53,18.19,94.36,278.53,45.47,89.32-24.18,50.51,2.58S1692.93,826.59,1660.52,626.13Z"/><path class="cls-2" d="M731.5,291.9c9.89-2.33,19.62-5.31,29.66-6.95,1.1,7.63,7,10.7,12.85,14.19,8.33,5,16.63,10.07,24.79,15.35a23.51,23.51,0,0,0,3,1.74c3.84,1.77,7.32.79,9.42-2.63,1.82-3,.94-6.53-2.64-8.93-5.33-3.58-10.82-6.93-16.33-10.24-4.66-2.8-9.24-5.73-13.87-8.59-1.46-.9-3.4-1.53-3.41-3.8,12.36-2.61,24.84-4.42,37.36-6.1a467.86,467.86,0,0,1,73.86-3.79A221.81,221.81,0,0,1,919,274.9c1.29.23,2.64.42,3.79-.54,2.05-1.25,3,.67,4.09,1.59,20.37,16.48,41.37,32.07,63.88,45.56,1.5.89,3.42,1.45,3.7,3.63a2.52,2.52,0,0,1-1.78,1.42c-5.46.06-10.82-1.32-16.23-1.44-21.8-.49-43.16,2.2-63.81,9.5a23.39,23.39,0,0,0-7.26,4.18c-9.29,7.78-7.56,20.34,3.56,25.27,4.74,2.1,9.82,2.67,15,2.82,6.42.18,12.87-.81,19.24.65,2.88,3.45,2.78,7.59,2.45,11.69-.22,2.75-2.28,3.75-4.82,4.09a531.25,531.25,0,0,0-53.52,9.86c-43.42,10.44-84.47,26.44-121.12,52.36-22.39,15.84-41.31,35.38-58.25,56.9-19.18,24.36-35.36,50.61-49.49,78.11q-28.31,55.08-52.24,112.19a146.38,146.38,0,0,0-11.05,43,35.91,35.91,0,0,0,4.45,21c3.71,6.66,12.64,10.58,20.45,9.41,9.81-1.47,18-6.07,25.24-12.73,9.79-9,17.73-19.54,25.44-30.28,1.15-1.6,2-3.43,4-4.24a1.46,1.46,0,0,1,1.67,1.19c.05,2.81-1.57,5-2.8,7.3-11.35,21.08-22.53,42.24-29.69,65.23-.48,1.55-.9,3.24-2.76,3.84a259.27,259.27,0,0,1-70.91-7.15c-32.31-8-62.18-21.08-87.94-42.93-28.05-23.8-45-53.82-52-89.54-2.48-12.55-3.95-25.4-3.21-38.22a305.29,305.29,0,0,1,19.09-90.72,329.69,329.69,0,0,1,46.39-83.47,369.19,369.19,0,0,1,49.74-53.4c6.3-5.56,12.65-11,19.27-16.16,1.16-.91,2.25-2,2.27-3.66,6.81,4.19,13.46,8.64,20.32,12.76,6.37,3.83,12.52,8,19,11.62,4.56,2.51,8.32,1.88,10.44-1.57s1-7.14-3.52-10c-9.36-5.91-18.81-11.68-28.25-17.45-1.73-1.06-4.07-1.66-4.22-4.32,10.5-6.73,20.83-13.73,31.53-20.14a433.31,433.31,0,0,1,93.47-41.58c4.13-1.29,8.79-1.67,12.11-5,2.94.83,3.62,3.61,4.88,5.83,1.71,3,3,6.25,4.91,9.12,2.56,3.8,5.84,4.83,9.23,3s4.26-5.41,2.4-9.47c-1.37-3-3.08-5.81-4.41-8.83C731.34,294.14,730.81,293.06,731.5,291.9Z"/><path class="cls-2" d="M1331.48,969.94a326.33,326.33,0,0,1-42.4-5.39c-31.53-6.18-62.93-13.06-94.49-19.06a450.29,450.29,0,0,0-46.24-6.47c-9.66-.81-19.43-1.71-29-1.45-18.5.51-37,1.79-55.51,3.39-20.78,1.8-41.71,2.44-62.5-.92-.42-.06-.77-.56-1.16-.85,1.14-1.73,2.95-2,4.77-2.14a318,318,0,0,0,99.38-24.84c25.46-11,48.4-26.14,69.28-44.42,4-3.54,7.47-8,12.73-10a61.28,61.28,0,0,1,10.4-.28c38.63,1,76.47-4.38,113.51-15,23-6.6,45.7-6,68.3,1.07a460.17,460.17,0,0,0,82.62,18.28c17.53,2.11,35.09,4,52.75,4.59,3.74.14,7.62.06,10.88,2.49-4.82,12.79-12.62,23.84-21.17,34.23-13.86,16.86-29.73,31.63-48.61,42.88-18.55,11.05-38.35,18.69-59.76,22-10.54,1.6-21.1,3-31.79,3a8.1,8.1,0,0,0-2.31.68c-1.94,1.12-3-.65-4.24-1.44-4.32-2.69-8.27-5.93-12.58-8.6-7.31-4.53-12-2-12.29,6.49A2.6,2.6,0,0,1,1331.48,969.94Z"/><path class="cls-3" d="M994.16,324.7c-24.29-13.8-46.43-30.63-68.22-48-1-.82-2.09-1.58-3.13-2.37-9.13-8.38-18.26-16.75-25.23-27.13-5.49-8.18-9.77-16.85-9.43-27.06.48-14.56,8.54-28.5,29.37-22.76,15.36,4.24,30.38,9.56,45.85,13.5,57.89,14.76,115.85,29.2,174.63,40.08,12.77,2.36,25.87,3.25,38.19,7.68,20.86,7.51,37.87,20.8,52,37.46,31.63,37.34,66.17,71.89,100.43,106.75,30.91,31.45,60.73,63.87,85.54,100.54A427.88,427.88,0,0,1,1436.92,541c7.21,13.47,18.19,21.44,32.83,25.61,63.06,18,126,36.29,189,54.48,1,.28,1.87.67,2.84.86,1.59.3,2.77.56,2.17,2.8s-1.66,1.85-3.27,1.37c-8.21-2.42-16.45-4.71-24.67-7.09q-85.35-24.7-170.72-49.39c-13-3.74-23.1-11.11-29.76-22.88-12.77-22.55-26.4-44.5-42.32-65-19.58-25.19-41.07-48.69-63.38-71.45-36.29-37-72.83-73.77-106.65-113.15-16-18.67-35.64-33-60.65-37.64-16.53-3-33.11-5.8-49.6-9-44-8.66-87.45-19.48-130.92-30.36-22.19-5.55-44.06-12.21-66.05-18.45-15-4.26-25.43,6-23.35,21.69,1.69,12.74,8.8,22.57,17,31.74,13.65,15.23,30.2,27.07,46.45,39.24,32.41,24.26,67.53,43.47,106.1,56,18.35,6,32.4,16.37,39.64,35,3,7.8,7.16,15.17,10.67,22.79,10.45,22.73,20.34,45.8,35,66.27,23.28,32.51,51.73,58.9,89.61,73.78,4.74,1.87,9.58,3.54,14.23,5.62a21.39,21.39,0,0,1,8.55,6.57c.78,1,1.93,2,0,3.1-1.21.69-2,1.3-3.27-.19a21.3,21.3,0,0,0-13.33-7.72c-2,.6-3.48-.94-5.29-1.09a177.62,177.62,0,0,1-66.09-43.29,121.76,121.76,0,0,0-11.39-11,9.51,9.51,0,0,1-3.3-3.65c-1.7-3.52-4.8-6-7-9.07-12.91-16.47-23-34.62-31.93-53.46a73.54,73.54,0,0,0-4.26-7.8c-.26-2.75-1.8-5-2.84-7.48-5-10.58-10-21.17-15-31.71-1.88-3.92-4.42-5.58-8.84-5.55-23.23.15-46.47-.32-69.69.26-9.17.23-18.43.18-27.57,1.51a15.85,15.85,0,0,1-4.39-.29c-1-.14.5.81-.09,1.23-4,1.72-7.74,1.8-11-1.57-.56-5.48-1.38-11,.59-16.37a4.43,4.43,0,0,1,5.1-.56c2.13,1.94,1.53,4.56,1.64,7s.86,3.55,3.58,3.39c33.42-2,66.87-2.67,100.34-2.31a3.14,3.14,0,0,0,1.85-.63c-1.14-2.54-3.16-4.33-5.29-6-6.28-5-13.54-8.22-21-10.78-12-4.1-23.81-8.82-35.57-13.6-9.58-4.9-19.29-9.55-28.64-14.89A10.07,10.07,0,0,1,994.16,324.7Z"/><path class="cls-4" d="M1237.81,553.74c2.19-.62,3.68.8,5.29,1.83,18.46,47.86,23.51,97.54,18.56,148.19-5.21,53.28-27.17,99.55-62.13,139.83-3.12,3.6-6.49,7-9.74,10.45-.7,2.18-1.77,4-4.14,4.75-17.34,16-35.77,30.56-56.35,42.29-31.25,17.83-64.94,28.42-100.26,34.2-9.57,1.56-19.23,2.62-28.84,3.91-15.78.57-31.53,1.22-47.33.11-27.68-2-54.63-7.12-80.62-17-1.86-.21-3.83.19-5.56-.86-16.41-6.29-31.58-14.91-46.17-24.62a8.39,8.39,0,0,1-3.7-4.22A255.47,255.47,0,0,1,786,865.89a7.26,7.26,0,0,1-4.87-3.55,270.37,270.37,0,0,1-42.68-55.12c-.85-1.6-2.09-3-2.33-4.9-.57-4-3.75-6.75-4.75-10.52-2.27-1.11-3-3.43-4.24-5.36a275.36,275.36,0,0,1-25.87-103.1c-.2-4.36-1.32-8.66-.91-13.06a332.43,332.43,0,0,1,9.84-84.35c10.13-40.07,27.21-76.8,53.57-108.92,20.26-24.69,44.85-44.17,72.49-60a287.22,287.22,0,0,1,31.12-15.26q2.83-.87,5.64-1.86a39.57,39.57,0,0,0,4.88-2.09,213.59,213.59,0,0,1,46.64-12.37c8.75-1.29,17.48-3,26.41-2.71,3.12.11,6.27.25,9.32-.77,5.1-.11,10.31-1.64,15.17,1.2,3.4.05,6.69,1.44,10.14.81,5.65-2.26,11.37-.83,17-.1a320.32,320.32,0,0,1,105.74,32.93,11.58,11.58,0,0,1,3.9,3c1.1,1.85,3.67,3.24,1.92,6-2.93,1.39-5.08-.7-7.29-1.85A317.46,317.46,0,0,0,1009.3,392a250.24,250.24,0,0,0-45.86-3.45c-47.27,1.14-91.06,14.34-131.39,39.1a265.12,265.12,0,0,0-46.62,35.91c-16.42,16-29.86,34.4-41.07,54.38-19.93,35.55-31.18,73.91-35.1,114.28-4.57,47.17.25,93.34,18.15,137.62,11.19,27.66,27.06,52.49,46.69,74.92,19.25,22,40.66,41.49,66.13,56.23,27.57,15.95,57.41,25,88.69,30,21.15,3.34,42.47,3.89,63.73,2.76a332.74,332.74,0,0,0,76.45-13.35,265.72,265.72,0,0,0,105.26-59.31,255.54,255.54,0,0,0,70.72-107.16,227.18,227.18,0,0,0,11.82-62.08c.54-9.91,1-19.79.74-29.68-.82-35.08-6.64-69.28-18.94-102.26C1238,557.92,1236.65,556,1237.81,553.74Z"/><path class="cls-3" d="M959.54,383.28c-1.07,1.07-2.45.85-3.74.81-21-.66-41.34,3.73-61.42,9.36-5.8,1.62-11.14,4.76-17.24,5.54a30.46,30.46,0,0,1-3.94,1.45c-2,.78-4.11,1.17-6.11,1.93-19.68,6.79-39.39,13.49-58.05,22.83-21.36,10.69-41.48,23.2-59.45,39.09-33.91,30-58.79,66.75-80.66,105.89-17.27,30.9-31.19,63.4-46.24,95.37-8.31,17.67-16,35.56-20.64,54.6a71.84,71.84,0,0,0-2.19,22.59C601,758.63,611,765,626.39,760.13c11.32-3.58,19.3-12,26.56-20.83,16.19-19.72,29.76-41.24,42.74-63.15,1.51-2.55,2.18-6.07,5.87-6.85l1.11,14.23c-4.35,10.2-10.62,19.35-15.91,29-13.29,24.35-27,48.49-36.51,74.69-3.32,9.18-6,18.53-5.82,28.47a30.16,30.16,0,0,0,.33,4.44c2.07,11.76,10.93,16.68,22,12.15,6-2.45,11.29-6.18,16.62-9.79,15.21-10.31,28.75-22.73,42.95-34.3a6.6,6.6,0,0,1,2.43-1.65c.87,1.74,1.74,3.49,2.62,5.23C718.64,802,706,812.35,693.18,822.38c-8.17,6.38-16.8,12-26.53,16-13.87,5.7-25.51-5-27.47-16.5-1.47-8.69.64-17,2-25.4,8.28-26.93,21.59-51.58,34.77-76.28.26-.36.46-.79.17-1.16s-.69,0-1,.19c-8.4,11.42-16.31,23.25-26.62,33.13-7.25,7-15.25,12.62-25.37,14.5-15.47,2.87-26.62-5.34-28.55-21-1.95-15.86,2.26-30.8,7.47-45.43,10.85-30.42,25.81-59.05,39.29-88.3a630.59,630.59,0,0,1,54.94-96.45c41-58.85,96.59-96.63,164.9-116.78a504.56,504.56,0,0,1,80.18-16.76c2.49-.32,3.51-1,3.2-3.63-.42-3.42-.55-6.87-.8-10.31,3-2.23,6.23-3,9.76-1.28-1.33,3.18-4.34,5.49-3.64,9.74.53,3.22,1,5.26,4.77,5.1C956.36,381.7,958.27,381.59,959.54,383.28Z"/><path class="cls-5" d="M1185.65,858.79l4.14-4.75c.87,1.5,2.35.89,3.56.91a405.57,405.57,0,0,0,93.78-9.45c13-2.84,25.67-7.23,38.86-9.36,20.23-3.26,39.8.14,59,6.32,38.54,12.45,78.26,17.81,118.45,20.57,22.22,1.53,44.45,2.6,66.72,3,.65,0,1.31.05,2,.1,1.77.12,2.67.91,2.49,2.84s-1.48,1.73-2.83,1.67q-19.52-.85-39-1.64c-2.63-.11-5.27,0-7.9,0-15.61-1.29-31.22-2.53-46.81-3.88a443.54,443.54,0,0,1-97.66-19.46c-24.21-7.76-48.21-8-72.9-.9A375.25,375.25,0,0,1,1185.65,858.79Z"/><path class="cls-6" d="M1283,1001.88c0,6.92.07,13.84,0,20.76-.07,5.16-3.14,8.49-7.64,8.62s-8.19-3.57-8.16-8.71q.15-21.27.7-42.53a7.86,7.86,0,0,1,7.9-7.88,8,8,0,0,1,7.85,8c.17,7.25,0,14.51,0,21.77Z"/><path class="cls-7" d="M1079,993.28c0-6.92-.07-13.85,0-20.77.08-5.75,3.27-9.35,8-9.31s7.92,3.65,7.89,9.45q-.12,20.52-.55,41c-.1,4.9-3.6,8.56-7.8,8.63-4.56.08-8-3.56-8-8.76-.06-6.76,0-13.52,0-20.28Z"/><path class="cls-6" d="M775,282l33,20.73c5.3,3.32,6.84,7.57,4.3,11.87s-7.28,5-12.48,1.83c-11-6.71-21.78-13.65-32.84-20.19-4.56-2.69-6.74-6.07-5.81-11.33C765.6,279.27,767.8,278.8,775,282Z"/><path class="cls-6" d="M1250.55,1039.92a11.83,11.83,0,0,1-2,5.52q-10.14,17-20.25,34c-3.14,5.23-7.72,6.78-11.9,4.15-4-2.49-4.76-7.19-1.86-12.12q10.41-17.67,21-35.26c2.23-3.74,5.58-5.06,9.73-3.78C1248.89,1033.5,1250.35,1036.31,1250.55,1039.92Z"/><path class="cls-6" d="M1331.48,969.94c-1.24-4.06-1.11-7.88,2.7-10.52,4-2.8,7.69-1.12,11.25,1.43,5.18,3.7,10.49,7.23,15.74,10.83,5.38,3.83,10.77,7.63,16.12,11.48,5,3.59,6.07,8.07,3,12.21-2.84,3.85-7.38,4.23-12.24.74C1355.89,987.36,1343.1,979.47,1331.48,969.94Z"/><path class="cls-7" d="M664,115.71c-1.32,13.28-2.64,27.06-4.08,40.82-.52,5-4,7.84-8.66,7.48-4.43-.33-7.42-3.49-7-8.42.91-11.66,2.19-23.28,3.32-34.92.2-2.13.42-4.26.62-6.39.53-5.84,3.6-9,8.58-8.74S664.3,109.27,664,115.71Z"/><path class="cls-7" d="M1176.24,1109.08c-.11,5.28-4.08,9-8.9,8.26q-21.52-3.09-43-6.55c-4.59-.75-7-4.53-6.31-9.06a7.68,7.68,0,0,1,9-6.49c14,2,28,4.26,42,6.37C1173.64,1102.31,1175.92,1105.05,1176.24,1109.08Z"/><path class="cls-6" d="M637.74,215.61a7.54,7.54,0,0,1-5.76,7.56c-4,1.13-7.18-.54-9.18-4.07-3.16-5.58-6.13-11.27-9.17-16.93-3.58-6.66-7.23-13.3-10.72-20-2.54-4.89-1.37-9.32,2.79-11.51s8.61-.68,11.18,4c6.54,12,13,24.06,19.43,36.09A10.78,10.78,0,0,1,637.74,215.61Z"/><path class="cls-6" d="M720.68,233.17c0,6.44-6.14,10.43-11.5,7.28-12.64-7.42-25.08-15.2-37.48-23a7.63,7.63,0,0,1-2.36-10.49c2.09-3.54,6.59-5.24,10.29-3,12.74,7.59,25.31,15.45,37.88,23.31A6.61,6.61,0,0,1,720.68,233.17Z"/><path class="cls-6" d="M1189.5,1017.75c-4.33-.06-7-1.71-8-5.37s-.31-7.26,3.27-9c13.45-6.58,27-13,40.63-19.18,3.9-1.77,8.2.57,9.83,4.38a7.39,7.39,0,0,1-3.71,10c-13,6.35-26.15,12.46-39.28,18.59A9.57,9.57,0,0,1,1189.5,1017.75Z"/><path class="cls-6" d="M456.27,456.13a9.65,9.65,0,0,1-2.16,5.4c-8.82,10.66-17.55,21.41-26.45,32-3.52,4.19-8.18,4.74-11.75,1.81s-3.89-7.76-.55-11.87c8.74-10.73,17.59-21.38,26.38-32.07a8.06,8.06,0,0,1,9.74-2.69C454.75,450,456.12,452.72,456.27,456.13Z"/><path class="cls-7" d="M669.17,261.09c-1.33,12.94-2.63,25.88-4,38.81-.62,5.8-4,9.12-8.67,8.63-4.84-.51-7.67-4.74-7.08-10.56q2-19.16,3.86-38.33c.68-6.76,3.61-10.07,8.7-9.76C667.27,250.2,669.63,253.91,669.17,261.09Z"/><path class="cls-7" d="M731.5,291.9c1.94,3.78,3.91,7.54,5.82,11.34,2.39,4.74,1.29,9.29-2.75,11.55s-8.51.84-11.18-3.82c-2.92-5.11-5.74-10.27-8.61-15.4l-10.49-20.09c-2.93-5.62-2.15-10,2.19-12.45s8.79-.65,12,5.12Q724.95,280,731.5,291.9Z"/><path class="cls-7" d="M577.67,362.32q16.89,10.59,33.79,21.16c3.24,2,5,4.74,4.34,8.63-.61,3.71-3,5.68-6.53,6.51-2.28.54-4.21-.39-6-1.52-11.76-7.22-23.48-14.5-35.26-21.7a16.21,16.21,0,0,1-4.1-4.16C563.27,361,568.18,357.86,577.67,362.32Z"/><path class="cls-6" d="M1181.51,1059.13c-.12,6-6.57,10.07-11.65,6.71-12.37-8.18-24.46-16.79-36.48-25.47-3.67-2.65-4-7.09-1.56-10.58a7.76,7.76,0,0,1,11-2c11.84,8.09,23.56,16.36,35.29,24.6A7.64,7.64,0,0,1,1181.51,1059.13Z"/><path class="cls-7" d="M1249.27,1121.05c0-6.75,0-13.51,0-20.26.06-5.93,3.38-9.67,8.32-9.53,4.74.12,7.55,3.62,7.52,9.64q-.09,19.77-.32,39.53c-.07,6.1-3.2,9.8-8.11,9.8s-7.72-3.61-7.74-9.91,0-12.85,0-19.27Z"/><path class="cls-7" d="M735,124.23c4.33-.11,7,1.74,8.12,5.17s.61,7.41-3,9.09q-20.55,9.63-41.44,18.54c-3.92,1.66-7.53-.1-9.45-4.09A7.64,7.64,0,0,1,693,142.47c13.15-6.06,26.39-11.91,39.63-17.79A8.44,8.44,0,0,1,735,124.23Z"/><path class="cls-6" d="M481,353.79c-.21.93-.43,2.24-.81,3.49q-5.74,19.16-11.54,38.28c-1.71,5.57-5.5,7.89-10.33,6.47-4.46-1.32-6.42-5.47-4.87-10.71,3.92-13.25,7.86-26.5,11.94-39.71,1.43-4.64,5.25-6.92,9.37-6.08A8.18,8.18,0,0,1,481,353.79Z"/><path class="cls-8" d="M736.11,802.32l3.29,4c-.95,3.41-3.19,6.12-4.88,9.13-7,12.42-13,25.3-16.14,39.24-2.44,10.86-3.39,21.89,2.24,32.33,4.08,7.57,10.69,10.52,19.06,8.47,9.3-2.28,16.7-7.82,23.5-14.14a128.63,128.63,0,0,0,14.67-15.39c1.19-1.54,2.38-3.2,4.29-4l3.85,4C778.9,873,772.79,881,765.05,887.4a77.85,77.85,0,0,1-16.37,11c-18.1,8.57-33.52.43-37-19.31-1.72-9.65-.69-19,1.9-28.34A164.83,164.83,0,0,1,736.11,802.32Z"/><path class="cls-9" d="M867.35,920.39l4.9,1.93c-6.07,8.37-11.61,17.14-18.65,24.8-4.6,5-9.51,9.62-15.82,12.4-7.61,3.35-14.55,1.42-19.75-5.08-8.48-10.63-7.88-23-6.77-35.35.81-9,3.29-17.73,5.56-26.47l4,3.06a3.45,3.45,0,0,1,.29,2.87c-2.62,8.72-3.74,17.7-4.74,26.71-1,9.17.26,17.83,6.14,25.23,4.54,5.71,8.33,6.34,14.68,2.78,7-3.95,12.2-10,17.3-16a112.79,112.79,0,0,0,9-12.4A13,13,0,0,1,867.35,920.39Z"/><path class="cls-4" d="M953.69,367.29c-3.41-.75-6.59,1.1-10,.92-9.9.18-19.82.8-29.64-1-10.78-2-17.28-9.21-16.11-18.39,1-7.88,6.39-12.43,13.32-15.21a128.25,128.25,0,0,1,26.22-6.91c18.48-3.19,37-4.16,55.63-.94,1.3.42,2.76,0,4,.72,8.1,4.23,16.16,8.54,24.34,12.62a20.34,20.34,0,0,1,3.58,2.4c6,5.33,6.57,11.18,1.65,17.22a20.59,20.59,0,0,1-16.77,7.87c-1.8,0-3.61.11-5.41.05-6,.25-12.13-.64-18.14.62-2.12.35-4.21.56-6-1l-4.93,0C968.34,369,961.11,370.06,953.69,367.29Z"/><path class="cls-6" d="M446.63,621.48c1.33-12.79,2.58-25.58,4-38.35.62-5.5,4-8.22,8.88-7.69,4.61.5,7.4,4.39,6.87,9.68q-1.93,19.44-3.92,38.87a26.8,26.8,0,0,1-.67,3.89c-1.11,4.28-4.59,6.69-8.88,6s-6.49-3.62-6.64-7.94a31.51,31.51,0,0,1,.44-4.42Z"/><path class="cls-7" d="M699.27,339c-.3,3.37-1.75,5.92-5,7.35-12.82,5.68-25.58,11.47-38.42,17.08-5,2.17-9.43.48-11.2-3.85s-.07-8.37,4.62-10.51c12.74-5.82,25.5-11.63,38.35-17.21C693.53,329.34,699.31,333.09,699.27,339Z"/><path class="cls-7" d="M566,534.48c.11,4.53-1.53,7.16-5.13,8.29s-7.21.4-9.11-3q-10.8-19.43-21.1-39.15a7.88,7.88,0,0,1,13.87-7.43c7.13,12.82,14,25.78,20.89,38.72A7.9,7.9,0,0,1,566,534.48Z"/><path class="cls-7" d="M510,567.06a10.35,10.35,0,0,1-5.15-1.67c-11.63-7.2-23.28-14.36-34.88-21.61-4.7-2.94-6-7.69-3.4-11.73,2.42-3.79,7.16-4.6,11.79-1.77,11.68,7.12,23.29,14.35,34.92,21.53,3.65,2.26,5.24,5.39,4,9.64C516.3,565.11,513.54,566.61,510,567.06Z"/><path class="cls-7" d="M534.75,611.35c-1.44,14.28-2.73,28.07-4.27,41.83-.69,6.15-4.33,9.2-9.3,8.43-4.65-.73-7-4.79-6.43-10.5,1.25-11.8,2.37-23.62,3.56-35.42.2-2,.38-4,.75-5.89.92-4.73,4.28-7.23,8.79-6.7A7.74,7.74,0,0,1,534.75,611.35Z"/><path class="cls-7" d="M544.81,453.25c1.33-12.79,2.61-25.58,4-38.36.58-5.34,4.19-8.44,8.81-7.88s7.5,4.45,7,9.69q-2,19.68-4,39.36a24.84,24.84,0,0,1-.6,3.41c-1.09,4.41-4.23,6.55-8.77,6a7.63,7.63,0,0,1-6.77-7.82,39,39,0,0,1,.46-4.42Z"/><path class="cls-7" d="M704.12,410.71c-2.57-.34-5.11-1.29-6.51-4.12a7.84,7.84,0,0,1,1-9.19q11-13.35,22-26.75c1.78-2.17,3.47-4.43,5.41-6.45,3.29-3.41,7.67-3.61,11.08-.71a7.74,7.74,0,0,1,1.12,10.72c-9.09,11.31-18.41,22.44-27.7,33.58A7.79,7.79,0,0,1,704.12,410.71Z"/><path class="cls-7" d="M601.56,442.45c3.86-.07,6.27,1.13,7.81,3.79s1.78,5.9-.24,8.39c-9.33,11.52-18.74,23-28.35,34.26a7.7,7.7,0,0,1-11.08.42c-3.09-2.88-3.4-7.37-.35-11.15,8.8-10.89,17.75-21.67,26.65-32.48a9.7,9.7,0,0,1,1.37-1.42A7.3,7.3,0,0,1,601.56,442.45Z"/><path class="cls-10" d="M675.1,719.24a4.77,4.77,0,0,1,2.66-3.14c.21,1.9-.74,3-1.82,4.11Z"/><path class="cls-11" d="M997.16,326.48c-1.42.24-2.83.42-4-.72.33-.36.67-.71,1-1.06A4.65,4.65,0,0,1,997.16,326.48Z"/><path class="cls-6" d="M1277.9,906.86c0,.9-.71,2.36-1.56,3.79-7,11.76-14,23.54-21,35.25-2.89,4.8-7.65,6.14-11.7,3.56-3.89-2.47-4.71-7-1.91-11.73q10.54-17.9,21.27-35.69c2.08-3.46,5.17-5.07,9.23-3.79C1275.93,899.43,1277.84,902.07,1277.9,906.86Z"/><path class="cls-6" d="M1310.55,939.26c-3.82-.23-6.65-1.82-7.75-5.34-1.21-3.82-.43-7.6,3.33-9.44q20-9.74,40.25-18.91c4-1.83,8.17.18,10,4a7.48,7.48,0,0,1-3.32,10.2c-13.34,6.48-26.81,12.67-40.25,18.94A10.94,10.94,0,0,1,1310.55,939.26Z"/><path class="cls-1" d="M1157.92,496.59c.85.88,1.7,1.75,2.56,2.62,26.39,26.8,42.53,59.34,53,95a230.53,230.53,0,0,1,9,77.38c-3,56.48-22.59,106.58-59.91,149.31-40,45.77-90.36,73.15-150.46,81.52-58.19,8.12-112.74-3.36-162.84-34.42-45-27.89-77.25-66.65-97.46-115.41a237.38,237.38,0,0,1-16.9-71.53c-3.32-39.63,2.4-77.78,17.74-114.36a245.26,245.26,0,0,1,153.8-139.65A235.16,235.16,0,0,1,958,417.28c37.7-3.11,74.18,1.91,109.35,15.7A246,246,0,0,1,1142,479a111,111,0,0,1,7.9,8.19C1152.37,490.52,1155.93,492.89,1157.92,496.59Z"/><path class="cls-12" d="M1149.9,488.22c-17.67-17.05-37.09-31.69-59-43-42-21.77-86.56-31.18-133.57-26.49-86.09,8.59-150.89,51.12-192.85,126.47-51.77,93-34.12,211.2,41.14,286.45,40.84,40.83,90,64.7,147.38,70.62,123.52,12.77,233.47-67.72,261.09-183.53,19.18-80.4,1.2-153-51.61-216.74-.73-.88-1.37-1.84-2-2.76,1.63-.11,2.18,1.34,3,2.24,20.43,22.19,43.87,40.1,72.28,51a12,12,0,0,1,2,1.31A305.45,305.45,0,0,1,1255.25,619a355.49,355.49,0,0,1,3,73c-1.78,30-8.37,58.81-21.36,85.84-36.47,75.92-96,124.42-177.12,146.44a321.4,321.4,0,0,1-101,10.85c-56-2.83-107.52-18.62-151-55.35-49.13-41.52-83.51-92.59-95.52-156.56-15.32-81.63-2.82-158.68,44.87-227.64,39.08-56.5,94.69-89.79,161.49-103.38,63.67-12.95,124.21-.4,182.18,27.15,4.44,2.1,8.86,4.25,13.28,6.38,1.08,1.18,2.47,2,3.22,3.59,9.26,20.39,20.11,39.86,33.64,57.77C1151.23,488.11,1150.86,488.47,1149.9,488.22Z"/><path class="cls-2" d="M1005.29,365.31c5.9.46,11.69.08,16.68-3.46,7.63-5.4,8.5-11.67,3.11-20.35a5.07,5.07,0,0,1,2,0c14.2,6.62,29.3,10.92,43.68,17,8.1,3.44,15.33,8.3,20.3,16.39-3,1.43-5.89.35-8.69.34-32.85-.1-65.71,0-98.49,2.64-2.8.22-3.93-.3-3.65-3.27.25-2.78.16-5.6.23-8.4l5.93-.26C992.64,365.19,999,366.51,1005.29,365.31Z"/><path class="cls-1" d="M1112.21,419.77c-14.89-6.86-29.67-14-45.24-19.24-26.44-9-53.39-15.39-81.41-16.55l-4.64-.94c0-.27,0-.54,0-.81,6.54-.38,13.08-.81,19.63-1.15,6.73-.36,13.47-.78,20.21-.92,23.06-.49,46.11-.84,69.17-.26,3,.08,4.7.79,6,3.64,5.09,11.2,10.44,22.28,15.64,33.42A12.91,12.91,0,0,1,1112.21,419.77Z"/><path class="cls-1" d="M953.69,367.29l21.79-1.06a68.11,68.11,0,0,1-.06,16.94l-15.88.11-.49,0c-3.31-.6-8.25,2-9.6-.62-1.75-3.43-.91-8.25-.92-12.47C948.51,366.36,952.19,368.67,953.69,367.29Z"/><path class="cls-13" d="M1149.9,488.22l1.09-1.08c2.45,3.05,6,5.32,6.93,9.45Z"/><path class="cls-1" d="M701.56,669.3c-10.2,16.13-19.67,32.73-30.73,48.31-8.4,11.83-16.59,23.86-27.48,33.65a48,48,0,0,1-17.67,10.6c-14.92,4.66-26-2.94-27.16-18.56-1-14.49,2.83-28.1,7.6-41.49,10.56-29.64,25.1-57.55,38.23-86,17-37,37-72.36,61.14-105.31,39.92-54.37,93.35-88.63,157.4-107.54,1.41-.42,2.86-.71,4.29-1.05,1.07-.54,1.17.06,1.05.9-32.47,13.74-61.87,32.24-87,57.1-35.46,35.1-57.33,77.81-69.61,125.79a328.94,328.94,0,0,0-9.81,79.21C701.81,666.34,701.65,667.82,701.56,669.3Z"/><path class="cls-1" d="M728.74,786.57c-.78,3.26-3.88,4.36-6.06,6.21-14.47,12.28-28.77,24.79-44.9,34.92-3.33,2.09-6.92,3.78-10.41,5.63-12.75,6.73-23.2-2.65-24.16-14.53s2.46-22.85,6.47-33.69c9.84-26.65,23.66-51.37,37.69-76,4.93-8.64,9.18-17.69,15.3-25.63C704.86,719.52,712.94,754,728.74,786.57Z"/><path class="cls-1" d="M782.14,861.91c-9,13-19.82,24.23-33.91,31.66-17.21,9.06-30.64,1.34-32.72-18.07-1.38-12.87,2-24.78,6.45-36.54A179.28,179.28,0,0,1,736.86,809c.64-1,.93-2.54,2.54-2.73A274,274,0,0,0,782.14,861.91Z"/><path class="cls-1" d="M867.35,920.39c-7.09,12.53-15.35,24.16-27.17,32.67-8.85,6.38-15.17,4.7-20.82-4.58-4.05-6.64-4.9-13.89-4.42-21.38a117.41,117.41,0,0,1,5.89-31.42C835.57,905.36,850.89,914,867.35,920.39Z"/><path class="cls-14" d="M868.23,402.76l-1.05-.9c1.78-1.35,3.89-1.54,6-1.75,0,.22,0,.44,0,.66Z"/><path class="cls-15" d="M873.16,400.77a2.92,2.92,0,0,1,0-.66,4.26,4.26,0,0,1,4-1.12C876.2,400.44,874.75,400.75,873.16,400.77Z"/><path class="cls-12" d="M986,362.18c-13.21-.55-26.37.66-39.52,1.57a145,145,0,0,1-30.11-.52,21.4,21.4,0,0,1-4.32-1c-5-1.85-9.37-4.67-9.91-10.51-.51-5.52,2.65-9.49,7.17-12.07,8.87-5.07,18.86-6.78,28.73-8.54,18.78-3.35,37.68-4.32,56.52-.48,8,1.63,15.79,4.19,22.58,9a16.53,16.53,0,0,1,4.31,4c2.18,3.31,3.89,6.92,1.75,11-2.25,4.29-6.07,6.08-10.68,6.48-2.46.22-4.93.28-7.4.41C998.75,362.37,992.33,361.1,986,362.18Z"/><path class="cls-3" d="M1005.29,365.31c-6.29,1.08-12.62.85-18.95.7C992.61,364.39,999,365.6,1005.29,365.31Z"/><path class="cls-3" d="M986,362.18c6.35-1.1,12.74-.63,19.12-.68C998.78,363.17,992.36,362,986,362.18Z"/><path class="cls-3" d="M965.67,429.31c2.23,8,2.23,16.24,2.57,24.37,1.86,44,3.43,88,4.37,132,.28,13.36,1,26.7,1.23,40,0,3.23,1,4.42,4.15,5.23,18.25,4.66,27.88,23.6,20.17,39.52-4.95,10.23-14.12,14.43-24.69,15.81-11,1.43-21.13-.4-28.22-10.16-1-1.41-2.34-1.51-3.86-1.66-26.09-2.65-52.19-5.26-78.16-8.93-9-1.26-17.94-2.52-26.7-4.93-1.53-.42-4-.61-4-2.29,0-2.2,2.65-2.08,4.21-2.46,11.91-2.83,24.08-4,36.23-5,23-1.89,46.06-3.44,69.09-5a4.64,4.64,0,0,0,4.1-2.17,28.52,28.52,0,0,1,13.61-11.76c3.2-1.26,2.54-3.92,2.56-6.25.16-18.16.1-36.32.36-54.48q.87-62.6,2-125.2C964.77,440.43,965.32,434.87,965.67,429.31Z"/><path class="cls-16" d="M907.46,853.09c2.07,4.53.61,8.58.25,12.63-.1,1.14-.58,2.31-.4,3.39.38,2.25.71,4.84,3.31,5.63,2.27.69,3.63-1.29,4.85-2.76a25.59,25.59,0,0,0,5.5-11.43c.56-2.8-.39-4.32-3.39-3.24-1.84.66-3.12.88-3.68-1.45-.66-2.75,1.76-2.44,3-2.75,6.2-1.54,9.47,1.77,8.32,8.13a31,31,0,0,1-6.17,13.29c-2.42,3.2-5.4,5.47-9.68,4.34s-5.67-4.78-6.19-8.65c-.67-4.93,1.55-9.71,1-14.72C903.93,853.68,906.11,853.73,907.46,853.09Z"/><path class="cls-16" d="M1135.32,565.63a11.13,11.13,0,0,0-3.35,6.53c-.28,2.07-1.48,2.19-3.18,1.81-2.24-.5-1.16-1.9-.94-3.05,1.5-7.81,9.21-15.31,16.82-16.11,3.61-.39,6,1.19,6.44,5.1s-2.57,9.61-6,10.45C1141,571.41,1137.3,570.57,1135.32,565.63Z"/><path class="cls-17" d="M847.93,481.58c5.94,4.53,12.28,6.86,18.44,9.53,1.62.7,3.79,1,2.85,3.57-1.09,3-3,.95-4.35.41-6.44-2.51-12.87-5.11-18.52-9.2-4-2.86-3.81-5.78.16-8.6,4.82-3.44,13.11-2.39,17.16,2.3.71.81,2.57,1.8.93,3.16-1.14.95-2.37,1.76-4.12,0C857.1,479.25,853,478.13,847.93,481.58Z"/><path class="cls-18" d="M802.66,776.86c-6.84-.15-11.06-2.8-11.64-6.42-.34-2.09.12-4.51,2.14-4.94,1.35-.29,2.94,1.49,2.44,3.73-.4,1.76,1.14,2.1,2.31,2.64,4.55,2.1,11.39-.89,13-5.69,1.22-3.58-1-6.17-5-5.32-2.16.45-4.53.76-4.85-1.36s2.37-2.81,4.31-3.07c3.48-.47,6.6.44,8.8,3.31s1.94,5.92.41,8.86C811.79,774,807.14,776.68,802.66,776.86Z"/><path class="cls-17" d="M1161.84,767.07c0,7.35-2.81,9.76-8.43,8.9-3.35-.52-6.14-2.3-9.06-3.8-1.41-.72-2-1.51-1.12-3.09s1.64-1.67,3.12-.74a37.52,37.52,0,0,0,5.76,2.83c1.65.68,3.59,1.51,5-.25,1.25-1.58.7-3.47-.13-5.15-1.83-3.7-5-6.1-8.39-8.16-1.51-.9-3.58-1.47-1.85-3.94,1.59-2.27,3-.3,4.11.35C1156.56,757.31,1161.39,761.39,1161.84,767.07Z"/><path class="cls-16" d="M1197.14,642.05c-5.8-.7-10.57,1.57-15.48,3.16-1.57.51-3.21,2.18-4.43-.55-1.37-3.06,1.48-2.8,2.8-3.34,4.85-2,9.85-3.66,15.16-3.78,2.3,0,4.71.29,5.88,2.77s.13,4.51-1.31,6.39a13.2,13.2,0,0,1-8.6,5.24c-1.27.2-3.07,1.36-3.52-1.06-.35-1.85.16-2.89,2.46-3.15A8,8,0,0,0,1197.14,642.05Z"/><path class="cls-18" d="M1073.93,477.31c1.46,2.95-.77,4.11-2.55,4.05s-1.74-2.42-1.74-4a11.64,11.64,0,0,1,2.86-7.72c2.7-3.14,6.26-5.09,10-3s2.24,6.09,1.09,9.29a46.26,46.26,0,0,1-3.52,7c-.64,1.15-1,2.95-3.23,1.69s-1.07-2.57-.33-4c1.27-2.49,2.44-5,3.59-7.57.4-.89.83-2.11-.17-2.67-.8-.45-1.89,0-2.72.72A8.13,8.13,0,0,0,1073.93,477.31Z"/><path class="cls-19" d="M769.31,670.5c-3-.13-5.47-1-6.9-3.48-1.62-2.86-1.06-5.75.59-8.41.49-.79.9-2.54,2.45-1.36.95.72,1.95,1.42,1.56,3.21-1.26,5.72-.94,6,5,5.26a73.58,73.58,0,0,1,8.33-.89c3.68,0,5.86,1.89,5.77,5.81,0,.93.22,2.35-.81,2.53s-3-.5-3-1c-.62-4.78-3.93-2.73-6.36-2.59S771.39,670.2,769.31,670.5Z"/><path class="cls-20" d="M1100.22,820c0,.5,0,1,0,1.49.12,2.73-.5,6.38,3.33,6.57,3.21.15,4-2.84,3.8-5.73-.19-2.13,1.59-2.61,2.79-2.8,2-.3,1.52,1.74,1.63,2.8.54,5.08-3.27,10-7.8,10.29s-7.67-3.17-8.08-8.73a33.39,33.39,0,0,1,.18-6.4c.16-1.38-.56-3.46,2.26-3.41s1.83,2,1.94,3.46c.07.81,0,1.64,0,2.46Z"/><path class="cls-21" d="M792.53,568.91a21.2,21.2,0,0,1-.87,3.78c-.34.84-.38,2.72-2.16,1.83-1.17-.6-3-1-1.94-3.18a8.85,8.85,0,0,0,.38-5.34c-.24-1.66-.82-3.16-2.69-3.76a3,3,0,0,0-3.77,1.51c-1.06,2-2.47,2.23-4,1-2-1.57-.11-2.91.79-4,2.28-2.77,5.24-4.18,8.76-2.7C791.55,560,792.28,564.07,792.53,568.91Z"/><path class="cls-19" d="M1006,861.77a10.57,10.57,0,0,0,4,9.11c1.76,1.39,1.62,2.5.45,4-1.7,2.15-2.64-.12-3.45-.84a15,15,0,0,1-5.05-14.16c.18-1.25-.59-3.75,2.31-3.26,2.23.38,2.31,1.91,1.89,3.7A9,9,0,0,0,1006,861.77Z"/><path class="cls-22" d="M1137.43,562.83c1.65-.93,3-1.81,4.47-2.5s3.52-2.2,4.76-.28-.56,3.67-1.72,5.19c-1.39,1.83-3,1.55-4.65.2C1139.43,564.7,1138.62,563.92,1137.43,562.83Z"/></svg>