<svg id="Слой_1" data-name="Слой 1" xmlns="http://www.w3.org/2000/svg" viewBox="0 0 1980 1230"><defs><style>.cls-1{fill:#ecebea;}.cls-2{fill:#2b2526;}.cls-3{fill:#ec6912;}.cls-4{fill:#ec6a13;}.cls-5{fill:#ec6911;}.cls-6{fill:#ec6810;}.cls-7{fill:#ec6a14;}.cls-8{fill:#ed6f25;}.cls-9{fill:#fffefe;}.cls-10{fill:#fefefe;}.cls-11{fill:#fdfdfd;}.cls-12{fill:#fefdfe;}.cls-13{fill:#fcfcfc;}.cls-14{fill:#f6f5f5;}.cls-15{fill:#dcd2cb;}.cls-16{fill:#ec6c17;}.cls-17{fill:#ec6b15;}.cls-18{fill:#ec6d19;}.cls-19{fill:#2a2627;}.cls-20{fill:#3a3737;}.cls-21{fill:#383435;}.cls-22{fill:#343132;}.cls-23{fill:#fef3eb;}.cls-24{fill:#fdeee2;}.cls-25{fill:#fef8f4;}.cls-26{fill:#fff;}.cls-27{fill:#eb660c;}</style></defs><path class="cls-1" d="M1159.14,214.77c3.92.47,7.83,1.32,11.75,1.35,18.51.13,37-.08,55.52.1a154.63,154.63,0,0,1,21,1.39c23.42,3.44,47,6.24,70.13,11.14,44.74,9.47,87.1,25.87,127.32,47.6,26.29,14.2,51.27,30.47,74,49.94,11.1,9.51,22.26,19,32.66,29.24a421.68,421.68,0,0,1,63.64,80.55,44.37,44.37,0,0,0,3.19,4.08l-33.64,4.07c-6.62.81-10.26,4.86-9.7,10.78.54,5.77,5.11,9,11.79,8.25q20.6-2.33,41.2-4.71c6.5,15.23,13.43,30.3,19.41,45.74,8.88,22.92,14.61,46.68,18.35,71a381.77,381.77,0,0,1,4.46,66.91,366.78,366.78,0,0,1-15.34,96.45A378.32,378.32,0,0,1,1627,807.46c-13.14,24.89-28.41,48.41-46.69,69.85-10.24,12-21,23.57-31.72,35.16-1.56,1.69-4.15,2.44-6.26,3.63a27.12,27.12,0,0,1-1.32-2.57q-25.95-67-51.9-133.95c-12.11-31.15-24.38-62.24-36.58-93.35,2.29.28,4.62,1,6.84.75,17.29-1.91,34.58-3.89,51.82-6.13a9.66,9.66,0,0,0,8.44-10.86c-.84-5.27-5.35-8.73-11.12-8.08-16.32,1.82-32.6,3.91-48.93,5.68-5.78.63-9.42,3.35-10.91,8.95-4-11.81-8.36-23.5-11.78-35.46a150.63,150.63,0,0,0-39.62-66.68c-23.88-23.62-52.3-40.39-83.42-52-50.22-18.8-100.55-38-155.89-33.69-8.27.65-13.61-4.4-17.18-11.07-1.89-3.51-2.61-7.68-3.56-11.63-2-8.19-6.42-12.36-14.82-13.47-1.89-.24-3.8-.33-6.19-.53-8.1-27.23-16.23-54.28-24.08-81.4-.68-2.35.18-5.29.78-7.85,5.56-23.73,16.43-45.3,27.13-67C1133.33,268.86,1146.14,241.77,1159.14,214.77Zm340.13,336.06c-1.42-3.49-1.93-5.63-3-7.38q-13.37-21-26.94-41.83c-3.53-5.41-9.29-6.75-14.08-3.53-4.49,3-5.37,8.54-2,14,2.95,4.83,6.11,9.52,9.17,14.28,6,9.35,12,18.73,18.09,28,2.62,4,6.73,6.25,11,4.14C1494.67,557,1496.85,553.32,1499.27,550.83Zm-58.54-90.43c2.51-.31,5.42-.69,8.32-1,14-1.64,27.93-3.2,41.88-4.94,6.38-.81,9.93-4.93,9.48-10.47s-4.62-9.32-10.44-8.68q-25.9,2.84-51.73,6.29c-5.55.74-9,5.26-8.51,10.05C1430.27,456.93,1434.57,460.5,1440.73,460.4ZM1446,332.47c-.54-5.31-2.76-8.72-7.6-9.82-5.1-1.15-8.72,1.07-11,5.53q-11.47,22.1-22.85,44.22c-3,5.92-1.53,11.47,3.55,14.07s10.21.73,13.44-5.38q11.49-21.75,22.75-43.61A32.55,32.55,0,0,0,1446,332.47Zm82.18,283.2c1.37-1.21,4.68-3.08,6.42-5.91,3.88-6.29,7-13.06,10.37-19.64,4.39-8.48,8.92-16.9,13.12-25.47,2.48-5,.82-10.11-3.62-12.67s-10.34-1.56-12.81,3.06c-8.37,15.64-16.64,31.34-24.49,47.24C1513.91,608.86,1518.91,615.87,1528.18,615.67Zm-12-144.49c-5,.54-8.57,2.68-9.54,7.57-1,5.27,1.06,9.08,6.11,11.24,15.42,6.58,30.79,13.25,46.25,19.74a12,12,0,0,0,6.22.9,8.65,8.65,0,0,0,7.64-7.76c.75-4.88-1.28-8.51-5.71-10.44-15.73-6.84-31.52-13.54-47.3-20.26A25.68,25.68,0,0,0,1516.14,471.18Zm-131.09-55a28.37,28.37,0,0,0-2.12-4.88q-13.37-21-26.92-41.82c-3.45-5.29-8.82-6.63-13.6-3.76s-5.93,8.38-2.7,13.81c2.79,4.69,5.86,9.22,8.82,13.81,6.23,9.67,12.44,19.37,18.73,29,2.65,4.08,6.5,5.59,11.15,4.16C1382.83,425.13,1385,421.88,1385.05,416.15Zm-43.15,55.19c1.08,1.39,2.58,5.21,5.26,6.44,16.12,7.38,32.44,14.32,48.83,21.07a9.44,9.44,0,0,0,12.14-5.35c1.81-4.88-.13-9.75-5.08-12.33-2.24-1.17-4.64-2-7-3-13.25-5.68-26.47-11.45-39.77-17C1348.92,458.05,1342,462.16,1341.9,471.34ZM1601.11,606h-.84c0,1.36-.1,2.74,0,4.1.47,5.81,4.42,9.89,9.55,9.94s9.59-4.43,9.73-10.43c.38-16.58.7-33.16.84-49.75.06-6.55-4.1-11.05-9.59-11.06-5.66,0-9.64,4.33-9.68,11C1601.05,575.18,1601.11,590.59,1601.11,606Z"/><path class="cls-2" d="M1159.14,214.77c-13,27-25.81,54.09-39.07,81-10.7,21.68-21.57,43.25-27.13,67-.6,2.56-1.46,5.5-.78,7.85,7.85,27.12,16,54.17,24.08,81.4,2.39.2,4.3.29,6.19.53,8.4,1.11,12.85,5.28,14.82,13.47,1,3.95,1.67,8.12,3.56,11.63,3.57,6.67,8.91,11.72,17.18,11.07,55.34-4.34,105.67,14.89,155.89,33.69,31.12,11.65,59.54,28.42,83.42,52a150.63,150.63,0,0,1,39.62,66.68c3.42,12,7.82,23.65,11.78,35.46l3.86,9.69c12.2,31.11,24.47,62.2,36.58,93.35q26,66.93,51.9,133.95a27.12,27.12,0,0,0,1.32,2.57c5.6,18.8,11.51,37.52,16.7,56.44,3.36,12.24,5.65,24.84,2.79,37.59-3.54,15.84-13.9,25.74-28.63,31.52a113.86,113.86,0,0,1-43.51,8c-37.3-.62-74.7-1-111.86-4-36.95-2.91-73.63-9.05-110.5-13.15-9.45-1-19.17.07-28.76.45a780.28,780.28,0,0,1-109-2.73c-41.71-4.15-82.63-12-122.51-25-10.29-3.35-20.45-7.14-31.87-11.15,1.37,2.32,2,3.6,2.83,4.77,14.13,20.86,28.34,41.66,42.34,62.6a10,10,0,0,0,8.53,4.91c46.58,3.34,93.14,6.89,139.72,10.34,27.09,2,54.17,4,81.28,5.82,4.84.32,6.42,2.15,6,6.9-1,11.47-1.92,23-2.48,34.48-.2,4.23-3,4.91-5.92,6q-62.91,22.81-125.81,45.7c-10.63,3.86-21.57,7.09-31.81,11.81-11.7,5.39-23.52,5.4-35.89,4.41-41.49-3.33-83-6.27-124.52-9.36q-52.89-3.93-105.78-7.87c-34.09-2.5-68.19-4.87-102.28-7.36-31.36-2.3-62.72-4.7-94.08-7-3.94-.29-5-2.44-4.7-5.83.68-9.35,1.16-18.71,2.13-28a22.7,22.7,0,0,0-4.08-16.32q-69-101.1-137.56-202.52c-.85-1.25-1.65-2.53-3.08-4.74l145.14,10.66-105-82,29.84-27c-6.52-2.91-12.22-6.85-18.34-7.69-4.25-.58-9.83,2.16-13.53,5.06-8.43,6.61-16,14.37-24.06,21.42-32.38,28.17-70.23,44.56-112.37,51.2-12.16,1.92-24.22.54-34.91-6.56-5.89-3.91-7-6.92-5.56-13.87-4.2-1.47-8.53-2.65-12.55-4.5a25.85,25.85,0,0,1-7.61-5.32c-5.82-5.94-4.17-10.54,5.26-15.31-4-2.12-8.53-3.56-11.66-6.49-2.67-2.5-5.39-7-4.95-10.12.37-2.57,5.34-4.54,8.34-6.66.73-.51,1.76-.59,3.32-1.06-3.09-1.86-5.83-3.11-8.09-4.94-4.82-3.92-4.59-9.9.64-13.22a30.8,30.8,0,0,1,9.12-3.77,233.38,233.38,0,0,0,95.16-48.18c6.28-5.23,12.48-10.55,19.09-16.15-11.86-2.26-23.25-4.23-34.54-6.68a55.65,55.65,0,0,1-13.1-4.74c-1.92-1-4.14-3.71-4.09-5.59s2.42-4.8,4.34-5.39c8.17-2.49,16.44-5.14,24.86-6.16,17.62-2.14,35.34-4,53.07-4.68,26.57-1,49.67,8.38,69.28,26.28,19.19,17.52,38.32,35.08,57.67,52.8l14.51-12.77c7.3,5.12,14.4,9.94,21.32,15,37.33,27.33,79.24,45.63,122.11,62.1,3.79,1.46,6.24,1,8-2.77,3-6.54,6-13,9-19.55a47.26,47.26,0,0,0,2.19-4.68c10.18-29.25,20.83-58.36,30.31-87.83,9.07-28.19,16.53-56.89,25.38-85.15C844,576.46,876.21,539,928.69,520.48c15.2-5.37,30.17-11.39,46.5-17.58l-25-51.27c-2.85,1.54-4.65,2.66-6.58,3.53-13.32,6-26.33,12.83-40.09,17.55-19.26,6.6-37.26-1.1-47-18.43-5.72-10.13-7.68-21.23-7.63-32.68,0-1.46,2.2-3.73,3.8-4.21,4.47-1.34,9.22-1.67,13.74-2.86,18-4.74,24.06-13.1,23.54-32.5-13.6,11.21-28.64,17.64-46.94,16.05-1.4-7.93-3.23-15.73-4-23.64-.52-5.17-2.09-7.24-7.24-5.51-6.05-.09-12.11-.19-18.17-.26-11.79-.11-15.86-5.07-12-16.39,3.75-11,8.92-21.55,13.1-32.43,3.39-8.85,6.25-17.91,9.73-28-4.53-.38-8.15-1.22-11.65-.83s-6.75,2-10.34,3.16c.17-7.94,4.65-9.31,23.57-7.55V267.18H806c-3.7,0-6.38-.8-6.44-5.48-.11-8,1-10.84,6.28-11,6.41-.22,12.86.46,19.51.76V240.23c-7.59-1.14-14.91-1.33-21.64-3.4-30.28-9.33-47.33-43.36-27.2-74.88,12.5-19.58,29.75-34.6,47.72-48.82,32.66-25.87,68.26-47.43,103.78-69,22.47-13.64,48-19.12,73.83-22.49,24.71-3.23,49.4-3.35,74,2.12,25.89,5.76,40.91,19.51,43.49,53,.77,9.87.12,19.84.12,30.11,5.57.83,12.36,1.44,19,2.88,32.75,7.16,46.46,30,36.67,62.42C1170.7,186.67,1164.51,200.59,1159.14,214.77Zm189.39,330.29-2.66-1c-3.28-2-6.44-4.27-9.87-6-28.67-14.58-59-24.62-90-32.93-26.17-7-52.43-13.35-79.87-11.66-2.93.18-5.87.09-8.8.24-7.75.38-13.46-3.3-18.15-9-1.43-1.75-2.7-3.62-4.3-5.79-13.84,21.09-31.94,37.8-49,55.53-9.09,9.46-17.88,13.61-31.2,10-16.77-4.59-30.51,2-39.81,16.41-4.7,7.3-9.6,15.18-11.43,23.45a430.5,430.5,0,0,0-8.27,53.09c-1.52,16.31-.94,32.8-1.51,49.21,0,1.37-1.75,2.68-2.69,4-1-1.16-2.61-2.2-2.85-3.49-2.95-16.12-5.14-32.4-8.64-48.39-5.3-24.23-11.8-48.18-23.78-70.16-6.56-12-14.43-22.93-29.32-25.62-.18,0-.26-.58-.49-1.14l31.45-25.11c-.37-.66-.75-1.31-1.12-2-18.35,8-37.58,14.52-54.87,24.41-35,20-57.08,51.44-68.25,89.65-16,54.86-32,109.7-52,163.29-4.75,12.76-10.79,25.06-16.55,37.41-2.18,4.67-5.75,6.91-11.49,4.78-40.74-15.11-80.37-32.47-116.44-57.08-9-6.15-17.88-12.49-27.06-18.92l-81.44,73.2c32.49,25,64.49,49.49,96.24,74.27,7.62,5.94,15.31,9.28,25.35,9.87,39.39,2.32,78.72,5.75,118.08,8.71,36.24,2.72,72.49,5.3,108.73,8.13,3.73.29,5.26-.84,6.1-4.3,3.69-15.15,8.2-30.13,11.13-45.42,2.64-13.74,3.61-27.8,5.39-42.41L919,935.08c3.44.33,6.72,1,10,.87,4.83-.23,7.83,1.55,10.49,5.68,8.05,12.48,16.54,24.68,24.91,37,1.53,2.26,2.81,5.4,5,6.37,11.27,5,22.79,9.47,35.32,14.55C996.87,924.65,991.91,851.31,989,778c5.47-1.59,5.41,1.77,5.55,4.73.93,20.3,1.67,40.61,2.77,60.91,1.07,19.7,2.23,39.4,3.82,59.06,2.41,29.79,5.34,59.53,7.79,89.3.5,6,1.79,10.37,8.8,11.23,3.81.47,7.46,2.2,11.22,3.24a605.79,605.79,0,0,0,119.9,20.22c30.62,2.12,61.23,3,93.4.64l-17.1-5c1.11-8.57,2.18-16.84,3.3-25.45-1.89-.74-3.66-1.47-5.45-2.13-30.92-11.44-61.94-22.65-92.75-34.39-23.07-8.78-41.24-24-50.75-46.86-8.52-20.44-14.45-42-21.14-63.14a46.36,46.36,0,0,1-2-15c.15-6,4.34-7.76,9.23-4.26a29.82,29.82,0,0,1,7.16,6.83c7.4,10.55,14.49,21.31,21.7,32,1.47,2.17,3,4.33,5.63,8.19,2.21-5.31,4.32-8.79,5.13-12.55,7.12-33,5.49-66.47,4.09-99.86-.41-9.72-2.49-19.37-2.82-29.08-.26-8,6-11,12.87-7a67.28,67.28,0,0,1,5.82,4.37,10.69,10.69,0,0,1-.28-2.88c.82-3.6.67-8.7,3-10.32s7.44-.7,10.7.64c3.6,1.47,6.49,4.68,9.75,7.19,1.2-11.43,7-14.22,16.38-7.54,4.38,3.12,8,7.36,11.94,11.13,5-3.71,8.19-3.93,14.1-.11,9.11,5.87,14.57,14.56,17.9,24.64,5.84,17.66,7.2,36,6.94,54.37-.42,30.68-1.66,61.35-2.29,92-.3,14.51,9.28,23.38,24.52,23.15q1.81-12.23,3.64-24.57l71.77,11.66C1302,862.28,1291,812.53,1279.93,762.78a10.42,10.42,0,0,1,4.56,4.67q32.58,58,65.07,116a256.12,256.12,0,0,1,11.93,24.13c3.34,7.84,1.49,10.79-6.68,12.34a28.4,28.4,0,0,1-8.13.73c-22.9-2.39-45.81-4.77-68.66-7.57-10.59-1.29-21.08-3.5-32.21-5.4-5,37.33-10,74.12-15,112.09,23,4.3,45.09,9.31,67.44,12.38q41.19,5.67,82.74,8.62c31.76,2.25,63.61,3.59,95.44,4.28,17.68.38,35.47-1.47,52.35-7.43,23-8.13,33-25.26,28-49.17-3.57-16.95-7.16-34.13-13.17-50.3-22.75-61.25-46.68-122.05-69.8-183.16-14.9-39.4-29.58-78.88-43.56-118.61-11.4-32.38-31.47-57.64-59.28-77.18L1348.47,545ZM490.46,908.76c1.4,2.14,2,3.11,2.66,4.07q66.74,98.38,133.6,196.67a11.83,11.83,0,0,0,7.35,4.37c7.52,1.05,15.16,1.28,22.75,1.82,18.29,1.32,36.58,2.61,54.87,4,18.68,1.38,37.35,2.87,56,4.24,18.09,1.33,36.2,2.51,54.29,3.86,23.73,1.78,47.45,3.75,71.18,5.5s47.5,3.24,71.24,5c28.79,2.15,57.57,4.5,86.35,6.72,6.68.51,13.38.81,20.82,1.26-.84-1.45-1.17-2.11-1.59-2.72Q1002.44,1044,934.72,944.47a9.17,9.17,0,0,0-6.12-3.35c-28.25-2.23-56.51-4.18-84.77-6.25q-50.85-3.72-101.7-7.5l-104.62-7.75q-52-3.87-104-7.74C519.51,910.84,505.54,909.85,490.46,908.76ZM1032,292.18c2.68-1,6-1.78,8.77-3.4,8.16-4.72,10.13-12.46,9.32-21.18-.71-7.71-3-14.9-10.87-18.05s-15.31,0-20.09,5.82c-6.07,7.37-12.47,6.42-19,2.82-5.34-2.93-9.85-7.38-14.66-11.25-1.78-1.44-3.16-3.44-5.05-4.66-15.25-9.78-19-17.83-15.88-36.48-16.44,0-32.74,1.14-48.83-.26-28.33-2.45-56.89-5.48-78.66-28-7,28.6-7.42,57.14-5.73,85.86.41,7,1.34,14.46-.6,20.91-5.83,19.35-12.94,38.31-19.59,57.4-1.6,4.59-3.78,9-5,13.69-1.64,6.22-.23,7.78,6.23,7.83,9.95.07,19.9,0,29.94,0,1.68,10.27,3.29,20.18,4.92,30.15,14-.24,25.5-4.74,36-12.6,3-2.24,6.84-3.3,10.3-4.9.5,3.83,1.66,7.71,1.39,11.49-1.32,18.7-8.1,26.8-26.23,31.78-4.82,1.33-9.75,2.23-16,3.63,2.11,8.44,3.2,16.87,6.31,24.48,7.84,19.12,24.64,26.41,44.46,20.38,19.24-5.85,36.45-15.85,53.17-26.61,23.69-15.26,44.83-33.29,58.14-58.77,4.07.58,5,2.45,2.64,5.49-8.07,10.47-15.21,21.92-24.59,31.07-11.66,11.38-25.2,20.84-38.16,31.31.19.36.83,1.53,1.47,2.7,10.92,19.82,21.36,39.91,27.53,61.8,2,7.16,3.38,15,2.8,22.32-1.29,16.13-4,32.15-6.13,48.22-1,7.93-3.76,16.17-2.53,23.76,2.5,15.44,7.17,30.53,10.5,44,1.73-16,3.24-33.65,5.66-51.21,2.12-15.34,6.38-30.07,15.61-43,11.21-15.68,25.46-23.81,45.24-19.77a88.66,88.66,0,0,0,12.79,1.57c1.7.1,4-.39,5.12-1.52,16-16.28,32-32.64,47.74-49.24,1.41-1.48,1.92-5,1.28-7.07-11.11-35.89-22.65-71.66-33.59-107.6-1.72-5.65-4.44-8.2-9.87-8.5-8.9-.49-14.89-5.11-18.75-12.9-1.47-3-3.22-5.8-4.55-8.83C1047.29,327.43,1039.72,309.94,1032,292.18ZM591,767.88l-56.83-52.16c-16.37-15-35.48-25.12-57.77-24.89-22.76.24-45.5,3.23-68.2,5.44-5.8.57-11.45,2.75-17.17,4.19.06.62.11,1.25.17,1.87,18.47,7.91,38.54,8.79,58.87,11.93-5.33,4.6-10,8.44-14.45,12.52-24.71,22.65-52.35,40.69-83.82,52.46-10,3.74-20.49,6.21-30.66,9.55-2.22.73-4,2.71-6,4.11,1.87,1.8,3.43,4.26,5.65,5.27,8.1,3.64,16.71,3.79,25.31,2.2,17.65-3.24,33.7-10.88,49.59-18.78,12.16-6,24.11-12.53,36.41-19,.8,1.54,1.46,2.81,2.33,4.51-13,6.82-25.54,13.57-38.23,20-23.3,11.72-47.56,20.42-73.76,23-2.87.28-5.62,1.73-8.42,2.64-.18.75-.35,1.49-.52,2.24,3.55,2.4,6.85,5.38,10.71,7.1,12.06,5.38,24.47,3.76,36.76.66,26.61-6.7,51.59-17.48,75.9-30.65.76,1.09,1.55,2.15,2.25,3.28.14.22-.07.66-.17,1.31-19.45,10.9-39.83,20.28-61.4,26.5-15.66,4.52-31.85,7.17-47.76,10.85-2.29.53-4.34,2.12-6.51,3.22,1.44,2,2.48,5,4.38,5.68,6.86,2.51,13.94,5.65,21.06,6,16.84.77,32.68-4.9,48.09-11,16.64-6.54,32.88-14.1,49.57-21.33,2.65,2.16,1.66,4-1.58,5.5-11.29,5.3-22.35,11.13-33.87,15.85-19.1,7.82-38.42,15.12-59.26,17.07-2.15.2-4.21,1.45-8.26,2.92,4.06,3.23,6.55,5.91,9.6,7.51,10.55,5.55,21.89,5.47,33.18,3.28,42.31-8.2,80-25.76,111.57-55.62,6.79-6.42,14-12.46,21.28-18.31,5.88-4.71,12.68-4.83,19.36-1.8,5.29,2.39,10.34,5.3,15.72,8.1Zm523.39-35.6-2.19.74c-.18,3.05-.71,6.13-.47,9.15.31,4.07,1.42,8.07,1.84,12.14a449.41,449.41,0,0,1,.9,83.15c-1,12-3.54,23.89-6.31,35.61-.73,3.07-4.53,6.55-7.69,7.64-4.57,1.58-7-2.7-9.32-6.28-6.18-9.71-12.36-19.43-18.88-28.91-2.67-3.88-6.22-7.16-9.37-10.71l-1.58.74c.44,3.56.36,7.27,1.4,10.64,6.12,19.9,11.83,40,19,59.51,8.56,23.41,25.47,39.56,48.4,48.93,19.66,8,39.66,15.2,59.57,22.61,13.09,4.87,26.28,9.47,39.71,14.3,2.67-20,5.25-39.26,7.86-58.74-4.52-1.43-8.66-2.5-12.6-4.06-10.58-4.17-17.24-11.21-16.56-23.43.23-4.1,0-8.22.27-12.31,2-34.15,4.35-68.34,1.21-102.49a156.49,156.49,0,0,0-8.11-36.89c-2.26-6.49-8.63-11.67-13.59-17-1.19-1.28-4.17-.88-6.33-1.26-.14,2-.69,4.11-.31,6,.64,3.22,2.14,6.26,2.82,9.47,4.63,21.7,5.57,43.71,5.09,65.81-.16,7.55-.75,15.08-1.14,22.57-6.14.69-5-2.79-4.74-5.84,1.92-26.4,1.59-52.71-4-78.7-2.54-11.88-7.25-22.75-18-29.65-1.72-1.1-4.27-.9-6.44-1.3-.14,2-.7,4.1-.34,6,2.92,15.49,6.8,30.85,8.85,46.45a270.83,270.83,0,0,1,.32,64.26c-3.85.93-4.91-.06-4.65-4.07,1.71-25.8,1.8-51.58-3.14-77.12-2.22-11.49-5.94-22.36-15.26-30.19-2.72-2.29-6.3-3.56-9.84-5.48,3,21.64,7.2,41.71,8.13,61.93.94,20.56-1.37,41.26-2.26,61.9l-2.73.83c-.89-1.58-2.11-3.07-2.57-4.77-.39-1.42.14-3.09.19-4.65.69-22,1.85-44.09,1.86-66.14,0-11.77-3-23.27-10.59-32.84C1120.45,737,1117.2,734.79,1114.38,732.28Zm-40.25,419.55L630.36,1119c-.88,12.32-1.72,23.93-2.58,36l443.8,32.81C1072.45,1175.56,1073.27,1164,1074.13,1151.83Zm3.92-5.56L1238.32,1088l-.27-1.28-211-15.6Zm172.82-56.51a6.49,6.49,0,0,0-1.23,0q-83.67,30.29-167.33,60.65c-1.16.42-2.65,1.86-2.75,2.95-1,10.79-1.75,21.6-2.61,33.06,26.56-9.66,52.29-19,78-28.39,29.45-10.68,58.93-21.28,88.34-32.08,2-.75,4.88-2.75,5.07-4.42C1249.57,1111.1,1250.1,1100.58,1250.87,1089.76ZM936.25,540.1c10.67,5.59,17.85,14.27,23.11,24.38,5.17,9.93,9.51,20.28,14.41,30.89,2.65-19.78,5.09-39.11,7.89-58.39,1.47-10.13-2.37-18.92-5.33-28.6Zm182-82.84c2.91,8.27,5.57,15.85,8.56,24.37,3.62-6.2,7.58-11,4.5-17.7C1129,458.71,1124.31,457.78,1118.3,457.26Z"/><path class="cls-1" d="M831.72,368.93c5.15-1.73,6.72.34,7.24,5.51.81,7.91,2.64,15.71,4,23.64,18.3,1.59,33.34-4.84,46.94-16.05.52,19.4-5.55,27.76-23.54,32.5-4.52,1.19-9.27,1.52-13.74,2.86-1.6.48-3.79,2.75-3.8,4.21-.05,11.45,1.91,22.55,7.63,32.68,9.77,17.33,27.77,25,47,18.43,13.76-4.72,26.77-11.59,40.09-17.55,1.93-.87,3.73-2,6.58-3.53l25,51.27c-16.33,6.19-31.3,12.21-46.5,17.58C876.21,539,844,576.46,827.61,628.57c-8.85,28.26-16.31,57-25.38,85.15-9.48,29.47-20.13,58.58-30.31,87.83a47.26,47.26,0,0,1-2.19,4.68,375.36,375.36,0,0,1-36.19-104.58,399.72,399.72,0,0,1-5-41.59c-1-12.62-1.39-25.33-1.2-38,.45-30.86,5.49-61.09,13.76-90.81a384.24,384.24,0,0,1,31.82-78.5,377.94,377.94,0,0,1,43-63.89C821.31,382.35,826.45,375.58,831.72,368.93Z"/><path class="cls-3" d="M551.37,386.37c3.21,2.13,6.15,3.19,7.74,5.28q15.61,20.46,30.67,41.32c3.48,4.79,2.55,10.27-1.72,13.5a9.63,9.63,0,0,1-13.55-2c-10.42-13.86-20.83-27.75-30.72-42-1.62-2.33-1.66-7-.44-9.69S548.3,388.66,551.37,386.37Z"/><path class="cls-4" d="M1628,458.55q-20.61,2.35-41.2,4.71c-6.68.75-11.25-2.48-11.79-8.25-.56-5.92,3.08-10,9.7-10.78l33.64-4.07c5.18-.6,10.36-1.28,15.56-1.77,6.17-.58,10.67,2.65,11.51,8.07s-2.78,9.76-8.81,10.81C1633.74,457.77,1630.86,458.13,1628,458.55Z"/><path class="cls-3" d="M583.55,277.71c-1.47,3.7-2.15,5.94-3.2,8q-11,21.29-22.16,42.49c-3.17,6-8.41,8.05-13.46,5.5s-6.74-8-3.68-14c7.65-14.9,15.46-29.72,23.23-44.57,2.42-4.62,6.62-6.78,11.19-4.82C578.72,271.69,581,275.29,583.55,277.71Z"/><path class="cls-3" d="M552.24,601.2c-1.18,1.44-2.86,5-5.69,6.68-14.52,8.35-29.31,16.26-44.08,24.2-5.51,3-11,1.51-13.7-3.27s-1.11-10.32,4.35-13.35c14.66-8.14,29.34-16.24,44.13-24.13C544.47,587.48,552.06,591.58,552.24,601.2Z"/><path class="cls-3" d="M524.55,441.28a76.72,76.72,0,0,1-2.79,7.52q-11.14,21.54-22.46,43c-3.17,6-8.23,8.06-13.44,5.55s-6.89-7.93-3.79-14c7.67-14.89,15.49-29.71,23.28-44.54,2.41-4.6,6.61-6.82,11.18-4.92C519.79,435.27,522.09,438.92,524.55,441.28Z"/><path class="cls-5" d="M363.73,515c3.26,2.29,6.49,3.61,8.32,6,10.07,13.16,19.86,26.53,29.62,39.92,4,5.45,3.31,11-1.37,14.44-4.52,3.27-10.22,2-14.18-3.27-9.77-13.13-19.43-26.36-29.2-39.49-2.7-3.63-3.76-7.65-1.16-11.35C357.49,518.76,360.63,517.31,363.73,515Z"/><path class="cls-5" d="M661.55,567.93c-2,2.18-3.9,6.19-6.72,7-3.14.87-8.66,0-10.44-2.21-11.13-14-21.64-28.57-32.07-43.14-3-4.15-1.49-9.58,2.47-12.49s9.62-2.71,12.66,1.3c10.84,14.27,21.4,28.76,31.95,43.25C660.37,562.93,660.54,564.85,661.55,567.93Z"/><path class="cls-5" d="M578.25,527.16c.35,7.66-3,11.84-8.63,12.19s-9.56-3.17-10.3-9.57q-2.82-24.39-5.56-48.78c-.74-6.52,2.48-11.31,8.12-12.13s10.09,2.87,10.9,9.57C574.79,495.08,576.54,511.75,578.25,527.16Z"/><path class="cls-5" d="M482.79,334.1c-.1-.77-.24-1.54-.31-2.32-.49-6.07,2.55-10.38,7.8-11.07,5.9-.77,10.36,2.35,11.12,8.53q3.17,25.81,5.82,51.69c.53,5.11-3.52,9.53-8.57,10.13s-9.69-2.86-10.48-8.75c-1.57-11.78-2.75-23.61-4.07-35.42q-.72-6.39-1.4-12.78Z"/><path class="cls-6" d="M626.76,347.23H602.24c-5.79,0-9.88-3.69-10.11-9.1-.22-5.57,3.26-9.71,9.14-10q25.69-1.25,51.4-2c6.05-.17,9.9,3.62,10.12,9,.23,5.75-3.43,9.87-9.74,10.08-8.76.28-17.52.07-26.29.07Z"/><path class="cls-6" d="M484.05,558.63H460.11c-6,0-10-3.39-10.3-8.84-.36-5.94,3.06-10,9.35-10.33q25.39-1.22,50.8-2c6.16-.19,10.44,3.87,10.53,9.38s-3.84,9.58-10.16,9.75c-8.76.24-17.52.06-26.28.06Z"/><path class="cls-4" d="M1499.27,550.83c-2.42,2.49-4.6,6.14-7.81,7.71-4.3,2.11-8.41-.12-11-4.14-6.09-9.3-12.06-18.68-18.09-28-3.06-4.76-6.22-9.45-9.17-14.28-3.34-5.46-2.46-11,2-14,4.79-3.22,10.55-1.88,14.08,3.53q13.58,20.85,26.94,41.83C1497.34,545.2,1497.85,547.34,1499.27,550.83Z"/><path class="cls-7" d="M1440.73,460.4c-6.16.1-10.46-3.47-11-8.78-.48-4.79,3-9.31,8.51-10.05q25.83-3.42,51.73-6.29c5.82-.64,10,3.23,10.44,8.68s-3.1,9.66-9.48,10.47c-14,1.74-27.92,3.3-41.88,4.94C1446.15,459.71,1443.24,460.09,1440.73,460.4Z"/><path class="cls-4" d="M1446,332.47a32.55,32.55,0,0,1-1.75,5q-11.3,21.86-22.75,43.61c-3.23,6.11-8.29,8-13.44,5.38s-6.57-8.15-3.55-14.07q11.34-22.15,22.85-44.22c2.32-4.46,5.94-6.68,11-5.53C1443.24,323.75,1445.46,327.16,1446,332.47Z"/><path class="cls-4" d="M1452.56,686.23l-3.86-9.69c1.49-5.6,5.13-8.32,10.91-8.95,16.33-1.77,32.61-3.86,48.93-5.68,5.77-.65,10.28,2.81,11.12,8.08a9.66,9.66,0,0,1-8.44,10.86c-17.24,2.24-34.53,4.22-51.82,6.13C1457.18,687.23,1454.85,686.51,1452.56,686.23Z"/><path class="cls-3" d="M1528.18,615.67c-9.27.2-14.27-6.81-11-13.39,7.85-15.9,16.12-31.6,24.49-47.24,2.47-4.62,8.28-5.66,12.81-3.06s6.1,7.62,3.62,12.67c-4.2,8.57-8.73,17-13.12,25.47-3.41,6.58-6.49,13.35-10.37,19.64C1532.86,612.59,1529.55,614.46,1528.18,615.67Z"/><path class="cls-3" d="M1516.14,471.18a25.68,25.68,0,0,1,3.67,1c15.78,6.72,31.57,13.42,47.3,20.26,4.43,1.93,6.46,5.56,5.71,10.44a8.65,8.65,0,0,1-7.64,7.76,12,12,0,0,1-6.22-.9c-15.46-6.49-30.83-13.16-46.25-19.74-5-2.16-7.15-6-6.11-11.24C1507.57,473.86,1511.1,471.72,1516.14,471.18Z"/><path class="cls-3" d="M1385.05,416.15c0,5.73-2.22,9-6.64,10.33-4.65,1.43-8.5-.08-11.15-4.16-6.29-9.64-12.5-19.34-18.73-29-3-4.59-6-9.12-8.82-13.81-3.23-5.43-2-11,2.7-13.81s10.15-1.53,13.6,3.76q13.58,20.82,26.92,41.82A28.37,28.37,0,0,1,1385.05,416.15Z"/><path class="cls-3" d="M1341.9,471.34c.06-9.18,7-13.29,14.42-10.2,13.3,5.55,26.52,11.32,39.77,17,2.32,1,4.72,1.86,7,3,5,2.58,6.89,7.45,5.08,12.33a9.44,9.44,0,0,1-12.14,5.35c-16.39-6.75-32.71-13.69-48.83-21.07C1344.48,476.55,1343,472.73,1341.9,471.34Z"/><path class="cls-4" d="M1601.11,606c0-15.41-.06-30.82,0-46.24,0-6.63,4-11,9.68-11,5.49,0,9.65,4.51,9.59,11.06-.14,16.59-.46,33.17-.84,49.75-.14,6-4.51,10.48-9.73,10.43s-9.08-4.13-9.55-9.94c-.11-1.36,0-2.74,0-4.1Z"/><path class="cls-8" d="M1370.89,559.16c27.81,19.54,47.88,44.8,59.28,77.18,14,39.73,28.66,79.21,43.56,118.61,23.12,61.11,47,121.91,69.8,183.16,6,16.17,9.6,33.35,13.17,50.3,5,23.91-4.92,41-28,49.17-16.88,6-34.67,7.81-52.35,7.43-31.83-.69-63.68-2-95.44-4.28q-41.48-2.93-82.74-8.62c-22.35-3.07-44.44-8.08-67.44-12.38,5.1-38,10-74.76,15-112.09,11.13,1.9,21.62,4.11,32.21,5.4,22.85,2.8,45.76,5.18,68.66,7.57a28.4,28.4,0,0,0,8.13-.73c8.17-1.55,10-4.5,6.68-12.34a256.12,256.12,0,0,0-11.93-24.13q-32.38-58.06-65.07-116a10.42,10.42,0,0,0-4.56-4.67c11,49.75,22,99.5,33.36,150.63l-71.77-11.66q-1.83,12.35-3.64,24.57c-15.24.23-24.82-8.64-24.52-23.15.63-30.68,1.87-61.35,2.29-92,.26-18.38-1.1-36.71-6.94-54.37-3.33-10.08-8.79-18.77-17.9-24.64-5.91-3.82-9.14-3.6-14.1.11-4-3.77-7.56-8-11.94-11.13-9.4-6.68-15.18-3.89-16.38,7.54-3.26-2.51-6.15-5.72-9.75-7.19-3.26-1.34-8.37-2.29-10.7-.64s-2.14,6.72-3,10.32a10.69,10.69,0,0,0,.28,2.88,67.28,67.28,0,0,0-5.82-4.37c-6.89-4.06-13.13-1-12.87,7,.33,9.71,2.41,19.36,2.82,29.08,1.4,33.39,3,66.83-4.09,99.86-.81,3.76-2.92,7.24-5.13,12.55-2.66-3.86-4.16-6-5.63-8.19-7.21-10.69-14.3-21.45-21.7-32a29.82,29.82,0,0,0-7.16-6.83c-4.89-3.5-9.08-1.73-9.23,4.26a46.36,46.36,0,0,0,2,15c6.69,21.17,12.62,42.7,21.14,63.14,9.51,22.83,27.68,38.08,50.75,46.86,30.81,11.74,61.83,22.95,92.75,34.39,1.79.66,3.56,1.39,5.45,2.13-1.12,8.61-2.19,16.88-3.3,25.45l17.1,5c-32.17,2.32-62.78,1.48-93.4-.64A605.79,605.79,0,0,1,1029,1006.5c-3.76-1-7.41-2.77-11.22-3.24-7-.86-8.3-5.2-8.8-11.23-2.45-29.77-5.38-59.51-7.79-89.3-1.59-19.66-2.75-39.36-3.82-59.06-1.1-20.3-1.84-40.61-2.77-60.91-.14-3-.08-6.32-5.55-4.73,2.87,73.28,7.83,146.62,15.58,221.47-12.53-5.08-24-9.53-35.32-14.55-2.18-1-3.46-4.11-5-6.37-8.37-12.27-16.86-24.47-24.91-37-2.66-4.13-5.66-5.91-10.49-5.68-3.24.15-6.52-.54-10-.87l-19.74-94.84c-1.78,14.61-2.75,28.67-5.39,42.41-2.93,15.29-7.44,30.27-11.13,45.42-.84,3.46-2.37,4.59-6.1,4.3-36.24-2.83-72.49-5.41-108.73-8.13-39.36-3-78.69-6.39-118.08-8.71-10-.59-17.73-3.93-25.35-9.87-31.75-24.78-63.75-49.24-96.24-74.27l81.44-73.2c9.18,6.43,18,12.77,27.06,18.92,36.07,24.61,75.7,42,116.44,57.08,5.74,2.13,9.31-.11,11.49-4.78,5.76-12.35,11.8-24.65,16.55-37.41,19.93-53.59,35.91-108.43,52-163.29,11.17-38.21,33.21-69.61,68.25-89.65,17.29-9.89,36.52-16.38,54.87-24.41.37.65.75,1.3,1.12,2l-31.45,25.11c.23.56.31,1.11.49,1.14,14.89,2.69,22.76,13.58,29.32,25.62,12,22,18.48,45.93,23.78,70.16,3.5,16,5.69,32.27,8.64,48.39.24,1.29,1.87,2.33,2.85,3.49.94-1.34,2.64-2.65,2.69-4,.57-16.41,0-32.9,1.51-49.21a430.5,430.5,0,0,1,8.27-53.09c1.83-8.27,6.73-16.15,11.43-23.45,9.3-14.42,23-21,39.81-16.41,13.32,3.65,22.11-.5,31.2-10,17.06-17.73,35.16-34.44,49-55.53,1.6,2.17,2.87,4,4.3,5.79,4.69,5.73,10.4,9.41,18.15,9,2.93-.15,5.87-.06,8.8-.24,27.44-1.69,53.7,4.63,79.87,11.66,31,8.31,61.31,18.35,90,32.93,3.43,1.73,6.59,4,9.87,6l2.66,1-.06,0C1354.76,551.6,1361.47,557.53,1370.89,559.16ZM1280,760.3c-.08-.15-.16-.29-.25-.43-.09.09-.29.23-.27.28a4.48,4.48,0,0,0,.39.61Z"/><path class="cls-9" d="M490.46,908.76c15.08,1.09,29.05,2.08,43,3.12q52,3.84,104,7.74l104.62,7.75q50.85,3.75,101.7,7.5c28.26,2.07,56.52,4,84.77,6.25a9.17,9.17,0,0,1,6.12,3.35q67.78,99.43,135.29,199.07c.42.61.75,1.27,1.59,2.72-7.44-.45-14.14-.75-20.82-1.26-28.78-2.22-57.56-4.57-86.35-6.72-23.74-1.78-47.5-3.27-71.24-5s-47.45-3.72-71.18-5.5c-18.09-1.35-36.2-2.53-54.29-3.86-18.68-1.37-37.35-2.86-56-4.24-18.29-1.36-36.58-2.65-54.87-4-7.59-.54-15.23-.77-22.75-1.82a11.83,11.83,0,0,1-7.35-4.37q-67-98.22-133.6-196.67C492.47,911.87,491.86,910.9,490.46,908.76Zm185.17,131.82a12.11,12.11,0,0,0,1.37.86c2.29,1.07,4.59,2.12,6.9,3.18.35-2.5.8-5,1-7.51.1-1.06-.25-2.15-.66-5.26a83.92,83.92,0,0,1,7.41,4.69c2.38,1.91,4.23,4.58,6.8,6.09,1.71,1,4.27.53,6.45.71-.24-1.92-.55-3.83-.69-5.75a4.83,4.83,0,0,1,.63-1.78c1.57,1.83,3.17,3.64,4.73,5.48,3.47,4.09,7.6,4.49,12.66,2.8-1.07-2.7-1.87-4.75-2.68-6.8l1-1.74c4.92,6.06,9.4,13.28,20.37,7.84l-13.42-10.52c3.17-1.74,7.29-3.18,7.18-4.09-.34-2.79-1.68-6.14-3.77-7.91a37.73,37.73,0,0,0-23.15-8.68c-8.16-.36-10.73,3.09-8.11,10.92,1.46,4.34,3.48,8.5,5.25,12.74-1.26-.55-2.8-.82-3.73-1.71-6-5.81-11.68-12-17.86-17.53-2.1-1.9-5.35-2.52-8.08-3.73-.92,3-2.79,6.06-2.58,9,.46,6.31,2,12.55,3.05,18.81-4-.83-8.11-1.34-12-2.58-4.1-1.3-8.54-2.59-11.79-5.18s-3.92-6.55,1.61-8.35c3.38-1.11,3.36-3.29,2-6-2-4-5.26-5.67-9.63-4.93s-6.63,3.6-7.08,8.06c-1.36,13.58,11.72,26,27.13,25.94C671.18,1047.64,674.88,1046.3,675.63,1040.58Zm125.48-3.86c1.92-1.32,5.6-2.67,5.67-4.17.11-2.44-1.57-5.66-3.52-7.37-7-6.11-15.61-8.77-24.76-9.05-6.38-.19-9.27,3.53-7,9.48,2.41,6.3,5.91,12.2,9.13,18.17,3,5.6,7.9,5.89,13.76,4.47-1-2.64-1.75-4.85-2.54-7.07l1-1.13c4.92,5.46,9.06,12.79,19.42,8.16Zm52.43-.7,1.66-.78c2.69,3.51,5.76,6.8,8,10.58,3.67,6.26,8.94,7.42,16.58,5.81-4-9.49-7.26-19-11.92-27.84-1.89-3.59-6.93-4.24-11.49-2.13,1,3.12,1.91,5.83,2.79,8.54l-1.33,1.24c-5.12-7.06-10.72-12.88-21.11-9,4.49,8.88,8.86,17.28,13,25.8,2.36,4.86,5.72,4.76,10.12,2.94C857.62,1045.88,855.58,1041,853.54,1036Zm-121-20.36c4.11,7,8.68,13.25,11.53,20.16,4.2,10.16,12.51,10.39,21.11,10.33,5.15,0,8.29-4.6,7.39-9.74a15,15,0,0,0-14.21-12.48c-2.3-.12-4.61,0-6.85,0C748.3,1015.37,743,1012.93,732.5,1015.66ZM871,1022.44c4.75,10.07,9,19.36,13.55,28.54a5.52,5.52,0,0,0,3.44,2.62,83.43,83.43,0,0,0,13.83,2c7,.19,9.58-3.17,6.85-9.6a41,41,0,0,0-8.79-13.5C892.29,1025.1,882.92,1021.36,871,1022.44Zm-44.29,20,1.2-1.57a58.32,58.32,0,0,1,5.81,4.1c3.16,2.82,6,6,9.25,8.72.83.68,3,.33,4.16-.27.5-.25.59-2.82,0-3.56-8.17-9.6-16.28-19.27-24.94-28.41-2.28-2.42-6.39-1.93-7.24,2.35-1.8,9-1.63,18,4.07,25.81,1.27,1.74,4.1,2.34,6.21,3.46.69-2.38,1.52-4.74,2-7.17C827.43,1044.82,826.92,1043.6,826.74,1042.44Z"/><path class="cls-10" d="M1032,292.18c7.71,17.76,15.28,35.25,22.93,52.71,1.33,3,3.08,5.86,4.55,8.83,3.86,7.79,9.85,12.41,18.75,12.9,5.43.3,8.15,2.85,9.87,8.5,10.94,35.94,22.48,71.71,33.59,107.6.64,2.08.13,5.59-1.28,7.07-15.72,16.6-31.69,33-47.74,49.24-1.11,1.13-3.42,1.62-5.12,1.52a88.66,88.66,0,0,1-12.79-1.57c-19.78-4-34,4.09-45.24,19.77-9.23,12.92-13.49,27.65-15.61,43C991.5,619.3,990,637,988.26,653c-3.33-13.45-8-28.54-10.5-44-1.23-7.59,1.5-15.83,2.53-23.76,2.1-16.07,4.84-32.09,6.13-48.22.58-7.34-.78-15.16-2.8-22.32-6.17-21.89-16.61-42-27.53-61.8-.64-1.17-1.28-2.34-1.47-2.7,13-10.47,26.5-19.93,38.16-31.31,9.38-9.15,16.52-20.6,24.59-31.07,2.34-3,1.43-4.91-2.64-5.49-13.31,25.48-34.45,43.51-58.14,58.77-16.72,10.76-33.93,20.76-53.17,26.61-19.82,6-36.62-1.26-44.46-20.38-3.11-7.61-4.2-16-6.31-24.48,6.24-1.4,11.17-2.3,16-3.63,18.13-5,24.91-13.08,26.23-31.78.27-3.78-.89-7.66-1.39-11.49-3.46,1.6-7.32,2.66-10.3,4.9-10.48,7.86-22,12.36-36,12.6-1.63-10-3.24-19.88-4.92-30.15-10,0-20,.05-29.94,0-6.46-.05-7.87-1.61-6.23-7.83,1.23-4.68,3.41-9.1,5-13.69,6.65-19.09,13.76-38.05,19.59-57.4,1.94-6.45,1-13.94.6-20.91-1.69-28.72-1.27-57.26,5.73-85.86,21.77,22.5,50.33,25.53,78.66,28,16.09,1.4,32.39.26,48.83.26-3.13,18.65.63,26.7,15.88,36.48,1.89,1.22,3.27,3.22,5.05,4.66,4.81,3.87,9.32,8.32,14.66,11.25,6.55,3.6,13,4.55,19-2.82,4.78-5.8,12.21-9,20.09-5.82s10.16,10.34,10.87,18.05c.81,8.72-1.16,16.46-9.32,21.18C1038,290.4,1034.69,291.17,1032,292.18ZM878.66,266.9l0,.21c10.1-.93,20.22-1.62,30.27-2.93,3.08-.4,7-1.75,8.61-4s1.9-6.51,1.32-9.61c-.22-1.13-4.52-1.88-7-2.09s-5,.64-7.54.76c-9.54.46-19.11.52-28.61,1.37-2.88.26-7.08,1.89-8.08,4.07-3.57,7.78.16,12.53,8.69,12.23C877.1,266.87,877.88,266.9,878.66,266.9Zm33.21,21.5c-3.29-6.54-12-9.84-20.69-8.3-6.13,1.07-12.88,1.59-16,8.74,6.13-.7,11.92-3.17,17.8-3.4S904.89,287.2,911.87,288.4Z"/><path class="cls-11" d="M591,767.88,554.08,801.1c-5.38-2.8-10.43-5.71-15.72-8.1-6.68-3-13.48-2.91-19.36,1.8-7.3,5.85-14.49,11.89-21.28,18.31-31.58,29.86-69.26,47.42-111.57,55.62-11.29,2.19-22.63,2.27-33.18-3.28-3.05-1.6-5.54-4.28-9.6-7.51,4.05-1.47,6.11-2.72,8.26-2.92,20.84-1.95,40.16-9.25,59.26-17.07,11.52-4.72,22.58-10.55,33.87-15.85,3.24-1.52,4.23-3.34,1.58-5.5-16.69,7.23-32.93,14.79-49.57,21.33-15.41,6.05-31.25,11.72-48.09,11-7.12-.33-14.2-3.47-21.06-6-1.9-.69-2.94-3.72-4.38-5.68,2.17-1.1,4.22-2.69,6.51-3.22,15.91-3.68,32.1-6.33,47.76-10.85,21.57-6.22,41.95-15.6,61.4-26.5.1-.65.31-1.09.17-1.31-.7-1.13-1.49-2.19-2.25-3.28-24.31,13.17-49.29,24-75.9,30.65-12.29,3.1-24.7,4.72-36.76-.66-3.86-1.72-7.16-4.7-10.71-7.1.17-.75.34-1.49.52-2.24,2.8-.91,5.55-2.36,8.42-2.64,26.2-2.55,50.46-11.25,73.76-23,12.69-6.38,25.19-13.13,38.23-20-.87-1.7-1.53-3-2.33-4.51-12.3,6.42-24.25,12.91-36.41,19-15.89,7.9-31.94,15.54-49.59,18.78-8.6,1.59-17.21,1.44-25.31-2.2-2.22-1-3.78-3.47-5.65-5.27,2-1.4,3.81-3.38,6-4.11,10.17-3.34,20.65-5.81,30.66-9.55,31.47-11.77,59.11-29.81,83.82-52.46,4.45-4.08,9.12-7.92,14.45-12.52-20.33-3.14-40.4-4-58.87-11.93-.06-.62-.11-1.25-.17-1.87,5.72-1.44,11.37-3.62,17.17-4.19,22.7-2.21,45.44-5.2,68.2-5.44,22.29-.23,41.4,9.88,57.77,24.89ZM457.41,736.66c13.17,11.19,33.54,14.36,46.2,7.64,2.45-1.3,4.59-3.19,7.27-5.09L507,735.84c-13.67,9.8-28.81,9-46.47-2.57Z"/><path class="cls-12" d="M1114.38,732.28c2.82,2.51,6.07,4.67,8.37,7.57,7.58,9.57,10.59,21.07,10.59,32.84,0,22-1.17,44.1-1.86,66.14,0,1.56-.58,3.23-.19,4.65.46,1.7,1.68,3.19,2.57,4.77l2.73-.83c.89-20.64,3.2-41.34,2.26-61.9-.93-20.22-5.15-40.29-8.13-61.93,3.54,1.92,7.12,3.19,9.84,5.48,9.32,7.83,13,18.7,15.26,30.19,4.94,25.54,4.85,51.32,3.14,77.12-.26,4,.8,5,4.65,4.07a270.83,270.83,0,0,0-.32-64.26c-2-15.6-5.93-31-8.85-46.45-.36-1.92.2-4,.34-6,2.17.4,4.72.2,6.44,1.3,10.78,6.9,15.49,17.77,18,29.65,5.57,26,5.9,52.3,4,78.7-.22,3-1.4,6.53,4.74,5.84.39-7.49,1-15,1.14-22.57.48-22.1-.46-44.11-5.09-65.81-.68-3.21-2.18-6.25-2.82-9.47-.38-1.91.17-4,.31-6,2.16.38,5.14,0,6.33,1.26,5,5.35,11.33,10.53,13.59,17a156.49,156.49,0,0,1,8.11,36.89c3.14,34.15.8,68.34-1.21,102.49-.24,4.09,0,8.21-.27,12.31-.68,12.22,6,19.26,16.56,23.43,3.94,1.56,8.08,2.63,12.6,4.06-2.61,19.48-5.19,38.78-7.86,58.74-13.43-4.83-26.62-9.43-39.71-14.3-19.91-7.41-39.91-14.59-59.57-22.61-22.93-9.37-39.84-25.52-48.4-48.93-7.14-19.54-12.85-39.61-19-59.51-1-3.37-1-7.08-1.4-10.64l1.58-.74c3.15,3.55,6.7,6.83,9.37,10.71,6.52,9.48,12.7,19.2,18.88,28.91,2.27,3.58,4.75,7.86,9.32,6.28,3.16-1.09,7-4.57,7.69-7.64,2.77-11.72,5.32-23.64,6.31-35.61a449.41,449.41,0,0,0-.9-83.15c-.42-4.07-1.53-8.07-1.84-12.14-.24-3,.29-6.1.47-9.15Zm64.37,203.93,2.25-.49c-.47-1.78-.37-4.21-1.52-5.23-7.78-6.92-11.79-15.61-11.57-25.8a115.27,115.27,0,0,1,2.83-21.28c.84-4,.24-5.4-3.71-5.22C1158.12,902.93,1162.4,923.92,1178.75,936.21Z"/><path class="cls-10" d="M1074.13,1151.83c-.86,12.15-1.68,23.73-2.55,36L627.78,1155c.86-12.08,1.7-23.69,2.58-36Z"/><path class="cls-10" d="M1078.05,1146.27l-51-75.13,211,15.6.27,1.28Z"/><path class="cls-11" d="M1250.87,1089.76c-.77,10.82-1.3,21.34-2.47,31.78-.19,1.67-3.05,3.67-5.07,4.42-29.41,10.8-58.89,21.4-88.34,32.08-25.75,9.34-51.48,18.73-78,28.39.86-11.46,1.61-22.27,2.61-33.06.1-1.09,1.59-2.53,2.75-2.95q83.64-30.42,167.33-60.65A6.49,6.49,0,0,1,1250.87,1089.76Z"/><path class="cls-13" d="M936.25,540.1l40.08-31.72c3,9.68,6.8,18.47,5.33,28.6-2.8,19.28-5.24,38.61-7.89,58.39-4.9-10.61-9.24-21-14.41-30.89C954.1,554.37,946.92,545.69,936.25,540.1Z"/><path class="cls-14" d="M1118.3,457.26c6,.52,10.65,1.45,13.06,6.67,3.08,6.67-.88,11.5-4.5,17.7C1123.87,473.11,1121.21,465.53,1118.3,457.26Z"/><path class="cls-15" d="M1370.89,559.16c-9.42-1.63-16.13-7.56-22.42-14.14Z"/><path class="cls-15" d="M1348.53,545.06l-2.66-1Z"/><path class="cls-2" d="M1280,760.3l-.13.46a4.48,4.48,0,0,1-.39-.61s.18-.19.27-.28C1279.87,760,1280,760.15,1280,760.3Z"/><path class="cls-16" d="M801.11,1036.72l11.11,11.49c-10.36,4.63-14.5-2.7-19.42-8.16l-1,1.13c.79,2.22,1.59,4.43,2.54,7.07-5.86,1.42-10.74,1.13-13.76-4.47-3.22-6-6.72-11.87-9.13-18.17-2.26-5.95.63-9.67,7-9.48,9.15.28,17.75,2.94,24.76,9.05,2,1.71,3.63,4.93,3.52,7.37C806.71,1034.05,803,1035.4,801.11,1036.72Zm-9.79-8.2.8-2.13L780.65,1022C782.31,1030.14,787.05,1028.82,791.32,1028.52Z"/><path class="cls-17" d="M704.91,1035.85c-1.77-4.24-3.79-8.4-5.25-12.74-2.62-7.83,0-11.28,8.11-10.92a37.73,37.73,0,0,1,23.15,8.68c2.09,1.77,3.43,5.12,3.77,7.91.11.91-4,2.35-7.18,4.09l13.42,10.52c-11,5.44-15.45-1.78-20.37-7.84l-1,1.74c.81,2,1.61,4.1,2.68,6.8-5.06,1.69-9.19,1.29-12.66-2.8-1.56-1.84-3.16-3.65-4.73-5.48Zm15.27-13.57-12-4.69C710.9,1025.05,712.81,1025.87,720.18,1022.28Z"/><path class="cls-16" d="M853.54,1036c2,4.93,4.08,9.86,6.28,15.2-4.4,1.82-7.76,1.92-10.12-2.94-4.14-8.52-8.51-16.92-13-25.8,10.39-3.92,16,1.9,21.11,9l1.33-1.24c-.88-2.71-1.77-5.42-2.79-8.54,4.56-2.11,9.6-1.46,11.49,2.13,4.66,8.82,8,18.35,11.92,27.84-7.64,1.61-12.91.45-16.58-5.81-2.22-3.78-5.29-7.07-8-10.58Zm.33-2.1-.38-.41a3.72,3.72,0,0,0-.35.76c0,.1.22.25.33.38Zm5.86-2.36c-.15-.16-.28-.29-.42-.42a3.71,3.71,0,0,0-.36.79c0,.1.23.26.36.39C859.45,1032.06,859.6,1031.81,859.73,1031.56Z"/><path class="cls-16" d="M732.5,1015.66c10.52-2.73,15.8-.29,19,8.25,2.24,0,4.55-.1,6.85,0a15,15,0,0,1,14.21,12.48c.9,5.14-2.24,9.71-7.39,9.74-8.6.06-16.91-.17-21.11-10.33C741.18,1028.91,736.61,1022.7,732.5,1015.66Z"/><path class="cls-18" d="M871,1022.44c11.89-1.08,21.26,2.66,28.88,10a41,41,0,0,1,8.79,13.5c2.73,6.43.14,9.79-6.85,9.6a83.43,83.43,0,0,1-13.83-2,5.52,5.52,0,0,1-3.44-2.62C880.07,1041.8,875.78,1032.51,871,1022.44Zm15.13,9.46-1.34-.13.63.83c1.95,4.24,3.51,8.73,6,12.6.93,1.43,4.09,1.41,6.24,2.06.3-1.68,1.27-3.6.78-5A15,15,0,0,0,886.16,1031.9Z"/><path class="cls-16" d="M826.74,1042.44c.18,1.16.69,2.38.47,3.46-.47,2.43-1.3,4.79-2,7.17-2.11-1.12-4.94-1.72-6.21-3.46-5.7-7.8-5.87-16.79-4.07-25.81.85-4.28,5-4.77,7.24-2.35,8.66,9.14,16.77,18.81,24.94,28.41.63.74.54,3.31,0,3.56-1.18.6-3.33.95-4.16.27-3.27-2.69-6.09-5.9-9.25-8.72a58.32,58.32,0,0,0-5.81-4.1Z"/><path class="cls-18" d="M704.87,1035.81a4.83,4.83,0,0,0-.63,1.78c.14,1.92.45,3.83.69,5.75-2.18-.18-4.74.29-6.45-.71-2.57-1.51-4.42-4.18-6.8-6.09a83.92,83.92,0,0,0-7.41-4.69c.41,3.11.76,4.2.66,5.26-.23,2.51-.68,5-1,7.51-2.31-1.06-4.61-2.11-6.9-3.18a12.11,12.11,0,0,1-1.37-.86l.09.08c-1.08-6.26-2.6-12.5-3.06-18.81-.21-2.91,1.66-6,2.58-9,2.73,1.21,6,1.83,8.08,3.73,6.18,5.58,11.87,11.72,17.86,17.53.93.89,2.47,1.16,3.73,1.71Z"/><path class="cls-16" d="M675.63,1040.58c-.75,5.72-4.45,7.06-9.64,7.08-15.41,0-28.49-12.36-27.13-25.94.45-4.46,2.62-7.3,7.08-8.06s7.63.93,9.63,4.93c1.34,2.67,1.36,4.85-2,6-5.53,1.8-4.83,5.77-1.61,8.35s7.69,3.88,11.79,5.18c3.87,1.24,8,1.75,12,2.58Z"/><path class="cls-19" d="M878.66,266.9c-.78,0-1.56,0-2.34,0-8.53.3-12.26-4.45-8.69-12.23,1-2.18,5.2-3.81,8.08-4.07,9.5-.85,19.07-.91,28.61-1.37,2.53-.12,5.07-1,7.54-.76s6.8,1,7,2.09c.58,3.1.41,7.23-1.32,9.61s-5.53,3.61-8.61,4c-10.05,1.31-20.17,2-30.27,2.93Z"/><path class="cls-20" d="M911.87,288.4c-7-1.2-13-3.19-18.87-3s-11.67,2.7-17.8,3.4c3.1-7.15,9.85-7.67,16-8.74C899.92,278.56,908.58,281.86,911.87,288.4Z"/><path class="cls-21" d="M457.41,736.66l3.15-3.39c17.66,11.61,32.8,12.37,46.47,2.57l3.85,3.37c-2.68,1.9-4.82,3.79-7.27,5.09C491,751,470.58,747.85,457.41,736.66Z"/><path class="cls-22" d="M1178.75,936.21c-16.35-12.29-20.63-33.28-11.72-58,4-.18,4.55,1.25,3.71,5.22a115.27,115.27,0,0,0-2.83,21.28c-.22,10.19,3.79,18.88,11.57,25.8,1.15,1,1,3.45,1.52,5.23Z"/><path class="cls-23" d="M791.32,1028.52c-4.27.3-9,1.62-10.67-6.57l11.47,4.44Z"/><path class="cls-24" d="M720.18,1022.28c-7.37,3.59-9.28,2.77-12-4.69Z"/><path class="cls-9" d="M853.87,1033.92l-.4.73c-.11-.13-.35-.28-.33-.38a3.72,3.72,0,0,1,.35-.76Z"/><path class="cls-9" d="M859.73,1031.56c-.13.25-.28.5-.42.76-.13-.13-.38-.29-.36-.39a3.71,3.71,0,0,1,.36-.79Z"/><path class="cls-25" d="M886.16,1031.89c6.12,1.08,10.33,4.58,12.34,10.37.49,1.4-.48,3.32-.78,5-2.15-.65-5.31-.63-6.24-2.06-2.52-3.87-4.08-8.36-6-12.6Z"/><path class="cls-25" d="M885.45,1032.6l-.63-.83,1.34.13Z"/><rect class="cls-26" x="633.48" y="996.72" width="307.74" height="89.65" transform="translate(29.31 -21.52) rotate(1.6)"/><path class="cls-27" d="M641.93,1013.6a13.41,13.41,0,0,1,3.88.72,12.78,12.78,0,0,1,2.91,1.46,10.2,10.2,0,0,1,2.84,3.31,7.57,7.57,0,0,1,1,3.72,5.5,5.5,0,0,1-1.36,3.36l-1.36,1.62a28.91,28.91,0,0,1,3.67,1.54,5.07,5.07,0,0,1,1.54,1.07,7.92,7.92,0,0,1,1.61,2.43,13.88,13.88,0,0,1,1,4.25,7,7,0,0,1-.73,4.22,6.27,6.27,0,0,1-2.8,2.59,9.38,9.38,0,0,1-4.14.85,16.17,16.17,0,0,1-4.74-1,7,7,0,0,1-3.22-2.18,24.43,24.43,0,0,1-2.36-4.58c-.89-2.57-1.7-5.36-2.45-8.35s-1.47-6.19-2.15-9.6q-.93-4.66-.56-4.88a4.64,4.64,0,0,1,1.2-.39,29.24,29.24,0,0,1,4.37-.14C640.76,1013.57,641.36,1013.57,641.93,1013.6Zm4.92,17.95a2.57,2.57,0,0,0-1.57.34,1,1,0,0,0-.38,1.21l1.43,4.88a2.29,2.29,0,0,0,1.32,1.23,3,3,0,0,0,1.91.11,2.52,2.52,0,0,0,1.57-1.18,3.83,3.83,0,0,0,.3-2.61,4.71,4.71,0,0,0-1-2.17,5.32,5.32,0,0,0-1.71-1.31A5.18,5.18,0,0,0,646.85,1031.55Zm-3.38-13.15h-.12a2.09,2.09,0,0,0-1.12.29.63.63,0,0,0-.34.74l.93,4.09a1,1,0,0,0,.77.76,2.32,2.32,0,0,0,1.38-.13,2.28,2.28,0,0,0,1.2-1,2.89,2.89,0,0,0,.21-2,3.39,3.39,0,0,0-1.2-2A3.11,3.11,0,0,0,643.47,1018.4Z"/><path class="cls-27" d="M660.73,1013.82a12.63,12.63,0,0,1,5.16,1.42,9.73,9.73,0,0,1,3.86,3.62,10.6,10.6,0,0,1,1.36,5.94,21.28,21.28,0,0,1-2.37,8.32l8,6.41a2.81,2.81,0,0,1-.19,2.26,6.15,6.15,0,0,1-1.55,1.85,18.73,18.73,0,0,1-1.88,1.37l-7.19-5.77,2.68,7.06a11.54,11.54,0,0,1-1.25.47,16.9,16.9,0,0,1-2.1.53,5.92,5.92,0,0,1-2.09,0,1.49,1.49,0,0,1-1.24-1q-2.22-6.25-3.74-12.41t-2.81-12.32q-.67-3.21-1.39-6.43A12.33,12.33,0,0,1,660.73,1013.82Zm1.19,7.64c-.45-.05-.63.1-.52.46l1.36,4.63q.29.81,1,.54a2.86,2.86,0,0,0,1.22-1.13,2.92,2.92,0,0,0,.48-1.84,2.15,2.15,0,0,0-.74-1.25,6,6,0,0,0-1.41-1A4,4,0,0,0,661.92,1021.46Z"/><path class="cls-27" d="M683.5,1016.27a6.11,6.11,0,0,1,2,.42,2.51,2.51,0,0,1,1.27,1.06q2.13,3.91,4.39,8.53t4.47,9.32q2.14,4.49,4.1,8.5.19.39-.36,1.05a6.22,6.22,0,0,1-1.57,1.29,7.11,7.11,0,0,1-2.18.87,3.61,3.61,0,0,1-2.21-.2,3.18,3.18,0,0,1-1.62-1.89l-2.07-5.59a17.31,17.31,0,0,0-.71-1.7,6.66,6.66,0,0,0-.73-1.17,1.32,1.32,0,0,0-.83-.55.68.68,0,0,0-.61.54,3.83,3.83,0,0,0-.22,1.2,16.91,16.91,0,0,0,0,1.79l.42,4.94c.06,1.14-.3,1.82-1.09,2a5,5,0,0,1-2.82-.18,12,12,0,0,1-2.87-1.29c-.83-.52-1.25-1-1.28-1.31.06-3.51.06-7.15,0-10.89,0-2.6-.08-5.15-.07-7.65s.07-4.89.2-7.14a1.85,1.85,0,0,1,1.39-1.58A6.84,6.84,0,0,1,683.5,1016.27Zm1.73,9.14h-.06a.63.63,0,0,0-.57.52,3.42,3.42,0,0,0-.12,1.16,13.35,13.35,0,0,0,.14,1.39c.07.47.19,1,.33,1.64l2.58,0c-.14-.62-.27-1.17-.4-1.63a12.72,12.72,0,0,0-.48-1.39,5.12,5.12,0,0,0-.64-1.19A1.17,1.17,0,0,0,685.23,1025.41Z"/><path class="cls-27" d="M702.11,1045.09l-6.47-25.79c-.12-.44.11-.79.71-1.06a6.61,6.61,0,0,1,2.23-.51,9.71,9.71,0,0,1,2.55.12,2.46,2.46,0,0,1,1.59.81l4.27,8.18a12.6,12.6,0,0,1,.75,1.3,8,8,0,0,0,1.21,1.91,2.57,2.57,0,0,0,2,.86l-.66-2.78-2.09-8.68q-.18-.66.78-1.05a7.38,7.38,0,0,1,2.39-.47,8.51,8.51,0,0,1,2.66.25,2.21,2.21,0,0,1,1.58,1.18q1.7,6.66,3.17,13.35t2.54,13.45a1.67,1.67,0,0,1-.53,1.65,3,3,0,0,1-1.92.66,5.72,5.72,0,0,1-2.59-.61,7.06,7.06,0,0,1-2.5-2.14l-6.38-8.73c.42,1.78.78,3.28,1.07,4.48s.57,2.32.82,3.36l.51,2.11a1.55,1.55,0,0,1-1.33,1,6.06,6.06,0,0,1-2.43,0,6.91,6.91,0,0,1-2.48-1A3.35,3.35,0,0,1,702.11,1045.09Z"/><path class="cls-27" d="M724.62,1017.66a10.22,10.22,0,0,1,2.36.38c.18-.08.76.1,1.75.54a16.89,16.89,0,0,1,3.54,2.33,21.29,21.29,0,0,1,4,4.57,24.29,24.29,0,0,1,3.14,7.21,18.08,18.08,0,0,1,.51,7.37,13.05,13.05,0,0,1-2,5.32,10.25,10.25,0,0,1-3.29,3.17,5.86,5.86,0,0,1-3.38.9,10.34,10.34,0,0,1-3.9-1.62,12,12,0,0,1-3.19-2.72,17.67,17.67,0,0,1-1.8-4.9c-.65-2.48-1.26-5.23-1.83-8.23s-1-5.67-1.32-8a15.54,15.54,0,0,1-.25-4.13,3.35,3.35,0,0,1,2.25-1.82A10.37,10.37,0,0,1,724.62,1017.66Zm3.21,10.35c-.61,0-.87.32-.77,1l2,9.1a1.47,1.47,0,0,0,.95,1.19,1.68,1.68,0,0,0,1.47-.33,3.28,3.28,0,0,0,1.17-1.78,6.49,6.49,0,0,0,0-3.19,9.53,9.53,0,0,0-1.3-3.3,7.06,7.06,0,0,0-1.86-2A3.19,3.19,0,0,0,727.83,1028Z"/><path class="cls-27" d="M743.73,1045.88a8.41,8.41,0,0,1-1.21-4.37,9.9,9.9,0,0,1,.86-4,7.25,7.25,0,0,1,1.9-2.67,12.93,12.93,0,0,1-2.63-3.72,10.94,10.94,0,0,1-1.1-4.24,5.63,5.63,0,0,1,1.06-3.69,6,6,0,0,1,3.86-2.07,7.52,7.52,0,0,1,2.74.12,11.59,11.59,0,0,1,3.74,1.94,9.35,9.35,0,0,1,2.4,4.31,10,10,0,0,1,.07,4.82,6.08,6.08,0,0,1-2.36,3.61,9.49,9.49,0,0,0,1.27,1.58,5.86,5.86,0,0,0,1.56,1.06,2.74,2.74,0,0,0,.49-.58c.15-.22.31-.5.5-.85a.7.7,0,0,1,.75-.4,2.55,2.55,0,0,1,1,.46,9.69,9.69,0,0,1,1.07.87q.51.48,1.17,1.23l-.24.41-.15.23-.16.26a4.65,4.65,0,0,0-.25.43l.26.1a7.26,7.26,0,0,0,.78.3,3.26,3.26,0,0,0,.65.12c.23,0,.55,0,1,0a2.83,2.83,0,0,1,.14,1.82,7.72,7.72,0,0,1-.73,2.25c-.35.68-.72,1-1.12,1l-.83-.09a2.18,2.18,0,0,1-.49-.08l-.57-.16-.75-.25a7.94,7.94,0,0,1-2.6,2.77A9.9,9.9,0,0,1,752,1050a7.46,7.46,0,0,1-4-.33A10.62,10.62,0,0,1,743.73,1045.88Zm8.64-3.51a16.84,16.84,0,0,1-1.67-1.17,20.39,20.39,0,0,1-1.91-1.93c-.13.17-.24.32-.32.45a3.68,3.68,0,0,0-.23.44,4.25,4.25,0,0,0-.26,2.59,2.83,2.83,0,0,0,1.11,1.65,2.76,2.76,0,0,0,1.83.49,3.33,3.33,0,0,0,1.44-.5,6.83,6.83,0,0,0,1.26-1.2ZM747.11,1030a8.72,8.72,0,0,0,1.83,2.44,4.25,4.25,0,0,0,.57-.6c.22-.28.43-.56.62-.85s.33-.51.42-.66a2.82,2.82,0,0,0,.56-2.55,3.13,3.13,0,0,0-1.46-1.74,2.68,2.68,0,0,0-2-.33c-.65.17-1,.72-1.18,1.65A4.79,4.79,0,0,0,747.11,1030Z"/><path class="cls-27" d="M767.77,1020a10.4,10.4,0,0,1,2.38.38c.18-.08.77.1,1.76.54a16.9,16.9,0,0,1,3.56,2.35,20.64,20.64,0,0,1,4,4.59,23.67,23.67,0,0,1,3.09,7.25,18,18,0,0,1,.42,7.4,13.24,13.24,0,0,1-2.09,5.35,10.51,10.51,0,0,1-3.38,3.18,6,6,0,0,1-3.43.91,10.38,10.38,0,0,1-3.92-1.63,12.46,12.46,0,0,1-3.2-2.73,18,18,0,0,1-1.75-4.94c-.62-2.49-1.21-5.24-1.75-8.26s-1-5.7-1.23-8a15.52,15.52,0,0,1-.2-4.15,3.45,3.45,0,0,1,2.3-1.82A10.37,10.37,0,0,1,767.77,1020Zm3.12,10.4c-.63,0-.9.32-.8,1l1.92,9.14a1.43,1.43,0,0,0,1,1.19,1.73,1.73,0,0,0,1.49-.32,3.49,3.49,0,0,0,1.2-1.79,6.5,6.5,0,0,0,.07-3.21,9.3,9.3,0,0,0-1.27-3.31,7.14,7.14,0,0,0-1.85-2A3.36,3.36,0,0,0,770.89,1030.39Z"/><path class="cls-27" d="M783.27,1024.52a4.67,4.67,0,0,1,2.81-.82,5.56,5.56,0,0,1,3.09.91,4.12,4.12,0,0,1,1.79,2.84l1.2,5.84c.08.44.17.9.26,1.4.24,1.35.51,2.82.83,4.39s.67,3.1,1.07,4.59l1.12,4.7a1.62,1.62,0,0,1-.73,1.68,4.49,4.49,0,0,1-2.4.82,4.75,4.75,0,0,1-2.87-.73,5.39,5.39,0,0,1-2.15-3q-1.66-5.22-3-10.29t-2.06-10A2.41,2.41,0,0,1,783.27,1024.52Z"/><path class="cls-27" d="M802.57,1023.92a18.44,18.44,0,0,1,5.1-.21,6.51,6.51,0,0,1,4,1.77q1.58,1.51,1.68,4.83a2.61,2.61,0,0,1-1.16,1.75,2.42,2.42,0,0,1-1.73.07,11.6,11.6,0,0,1-2.05-.83c-1.85-.57-3.28-.58-4.28,0a4.15,4.15,0,0,0-2,3.06,17.48,17.48,0,0,0,0,5.6,10.55,10.55,0,0,0,3.79,5.9,2.67,2.67,0,0,0,2.43.57c.74-.25,1.25-1.14,1.54-2.69a.78.78,0,0,0,0-.22,4.72,4.72,0,0,0,0-.86,2.45,2.45,0,0,0-.28-1,2.61,2.61,0,0,0-.5-.56,4.24,4.24,0,0,0-.61-.46l-.73-.45a1.38,1.38,0,0,1-.78-1,5.13,5.13,0,0,1-.23-1.74,3.71,3.71,0,0,1,.38-1.61.93.93,0,0,1,1-.56,30.4,30.4,0,0,1,3.38,0,12.68,12.68,0,0,1,2.78.55,5,5,0,0,1,2.21,1.33,5.71,5.71,0,0,1,1.12,2.54,15.45,15.45,0,0,1,.31,3.1c0,1,0,1.88-.08,2.55a1.73,1.73,0,0,1-.1.88c0,.15,0,.3-.07.44a13.85,13.85,0,0,1-.79,3.51,4.5,4.5,0,0,1-2.41,2.49,11.32,11.32,0,0,1-5.63.52,16.63,16.63,0,0,1-6.92-2.4,15.78,15.78,0,0,1-4.48-4.26,18.75,18.75,0,0,1-2.48-4.82,33.18,33.18,0,0,1-.77-8.35,12.85,12.85,0,0,1,1.19-5,7.23,7.23,0,0,1,2.14-2.59,10.12,10.12,0,0,1,2.07-1.15,5.15,5.15,0,0,0,.66-.32C801.07,1024.18,801.81,1024,802.57,1023.92Z"/><path class="cls-27" d="M817.66,1026.4a4.75,4.75,0,0,1,2.85-.83,5.62,5.62,0,0,1,3.11.91,4.12,4.12,0,0,1,1.78,2.85l1.14,5.87c.08.44.16.91.25,1.4.23,1.36.49,2.83.79,4.41s.65,3.11,1,4.61l1.08,4.72A1.62,1.62,0,0,1,829,1052a4.52,4.52,0,0,1-2.43.83,4.81,4.81,0,0,1-2.89-.74,5.28,5.28,0,0,1-2.14-3q-1.63-5.23-2.89-10.33t-2-10A2.43,2.43,0,0,1,817.66,1026.4Z"/><path class="cls-27" d="M827,1030.94a14.25,14.25,0,0,1-.42-2.3c-.08-.83-.14-1.85-.18-3.07l22.8.29a1.83,1.83,0,0,1,1.14,1.38,9.82,9.82,0,0,1,.38,2.45c0,.88,0,1.64,0,2.27a4.35,4.35,0,0,0,0,.63l-6.29-.14,2.54,21.24c0,.24-.28.5-.86.77a8.82,8.82,0,0,1-2.08.63,5.93,5.93,0,0,1-2.21.05,1.35,1.35,0,0,1-1.2-1l-4.5-21.53-8.36-.26A2.52,2.52,0,0,1,827,1030.94Z"/><path class="cls-27" d="M862.56,1026a5.94,5.94,0,0,1,2.06.44,2.4,2.4,0,0,1,1.28,1.08q2,4,4.14,8.71t4.18,9.51q2,4.59,3.84,8.68c.12.26,0,.62-.44,1.07a7.15,7.15,0,0,1-1.72,1.31,7.79,7.79,0,0,1-2.34.88,3.81,3.81,0,0,1-2.3-.2,3.1,3.1,0,0,1-1.61-1.93l-1.86-5.71a15.05,15.05,0,0,0-.65-1.73,5.51,5.51,0,0,0-.71-1.19,1.28,1.28,0,0,0-.83-.57.78.78,0,0,0-.68.55,4.27,4.27,0,0,0-.29,1.23,14.33,14.33,0,0,0,0,1.82l.16,5q0,1.75-1.26,2.07a5.36,5.36,0,0,1-3-.19,12.44,12.44,0,0,1-2.94-1.32c-.84-.53-1.26-1-1.27-1.33.26-3.59.45-7.3.59-11.12q.14-4,.34-7.81t.61-7.28c.08-.72.6-1.26,1.54-1.61A7.68,7.68,0,0,1,862.56,1026Zm1.31,9.33h-.06a.73.73,0,0,0-.63.53A3.43,3.43,0,0,0,863,1037a11.28,11.28,0,0,0,.07,1.41c0,.48.14,1,.26,1.67l2.7,0c-.1-.64-.21-1.19-.33-1.67a13.37,13.37,0,0,0-.42-1.42,4.89,4.89,0,0,0-.61-1.21A1.13,1.13,0,0,0,863.87,1035.28Z"/><path class="cls-27" d="M878.69,1047.09q-1-4.69-1.74-9c-.08-.53-.18-1.21-.32-2-.21-1.41-.44-2.88-.68-4.4s-.4-2.61-.49-3.28a1.09,1.09,0,0,1,.75-1.3,4.87,4.87,0,0,1,2.24-.1,16.53,16.53,0,0,1,2.79.66,15.42,15.42,0,0,1,2.42,1c.67.35,1,.66,1.12.9q.32,2.07.74,5.38.4,3.11.87,6.33t.93,5.61a10.83,10.83,0,0,0,.87,3,3.46,3.46,0,0,0,2.43.68,32.34,32.34,0,0,0,3.65-.23c.91-.09,1.77-.16,2.57-.21.31,0,.7.4,1.19,1.16a12.22,12.22,0,0,1,1.24,2.69,6.63,6.63,0,0,1,.36,2.83,1.66,1.66,0,0,1-1.42,1.55,40.4,40.4,0,0,1-11,.46,8.77,8.77,0,0,1-3-.63,6.87,6.87,0,0,1-2-1.28,7.33,7.33,0,0,1-1.21-1.47,8.37,8.37,0,0,1-.76-1.72C879.9,1052.44,879.36,1050.21,878.69,1047.09Z"/></svg>