<svg width="467" height="287" viewBox="0 0 467 287" fill="none" xmlns="http://www.w3.org/2000/svg">
<path d="M378.992 154.73C378.992 222.589 405.259 241.914 338.239 241.914C271.219 241.914 129.665 236.669 168.55 133.664C183.524 94.0007 211.857 37.9515 278.878 37.9515C345.898 37.9515 378.992 86.8747 378.992 154.73Z" fill="#ECEBEA"/>
<path d="M349.146 131.027L350.002 131.78L345.498 130.177C344.703 129.694 343.937 129.146 343.106 128.729C336.155 125.209 328.811 122.786 321.3 120.78C314.959 119.09 308.597 117.557 301.948 117.965C301.238 118.009 300.526 117.987 299.816 118.023C297.938 118.122 296.555 117.234 295.419 115.851C295.072 115.418 294.764 114.977 294.377 114.453C291.023 119.544 286.638 123.578 282.504 127.857C280.302 130.151 278.172 131.152 274.945 130.271C270.872 129.163 267.553 130.754 265.299 134.233C264.161 135.995 262.973 137.897 262.53 139.893C261.595 144.119 260.926 148.4 260.526 152.709C260.16 156.646 260.298 160.627 260.16 164.588C260.16 164.914 259.736 165.23 259.509 165.553C259.266 165.273 258.876 165.022 258.818 164.711C258.091 160.82 257.573 156.892 256.725 153.03C255.44 147.181 253.87 141.404 250.963 136.094C249.374 133.197 247.467 130.559 243.859 129.909C243.815 129.909 243.796 129.769 243.74 129.634L251.36 123.573C251.271 123.404 251.179 123.247 251.089 123.09C246.643 125.021 241.984 126.595 237.794 128.982C229.314 133.81 223.964 141.4 221.258 150.623C217.36 163.866 213.488 177.104 208.659 190.04C207.508 193.121 206.045 196.09 204.649 199.071C204.121 200.198 203.256 200.739 201.865 200.225C191.994 196.585 182.392 192.387 173.653 186.446C171.458 184.961 169.321 183.431 167.096 181.879L147.364 199.549C155.236 205.584 162.99 211.495 170.682 217.477C172.529 218.911 174.401 219.717 176.824 219.86C186.368 220.42 195.898 221.238 205.434 221.962C214.215 222.619 222.998 223.242 231.778 223.925C232.682 223.995 233.053 223.722 233.256 222.887C234.15 219.23 235.243 215.614 235.953 211.923C236.593 208.606 236.828 205.212 237.259 201.685L242.042 224.579C242.885 224.659 243.68 224.82 244.465 224.789C245.635 224.733 246.362 225.163 247.006 226.16C248.945 229.185 251.014 232.13 253.042 235.092C253.415 235.637 253.725 236.388 254.253 236.629C256.996 237.836 259.775 238.915 262.811 240.142C260.933 222.073 259.731 204.369 259.036 186.68C260.361 186.296 260.347 187.098 260.381 187.822C260.606 192.722 260.785 197.625 261.052 202.525C261.311 207.281 261.592 212.036 261.978 216.782C262.561 223.973 263.271 231.152 263.865 238.338C263.986 239.787 264.301 240.842 265.997 241.049C266.92 241.163 267.805 241.59 268.716 241.831C278.204 244.422 287.93 246.055 297.747 246.707C305.166 247.219 312.582 247.432 320.377 246.862L316.234 245.655C316.503 243.586 316.762 241.59 317.033 239.512C316.575 239.333 316.146 239.157 315.713 238.997C308.221 236.236 300.705 233.53 293.24 230.696C287.651 228.576 283.248 224.902 280.944 219.384C278.88 214.45 277.443 209.246 275.822 204.143C275.463 202.97 275.299 201.747 275.337 200.522C275.374 199.073 276.389 198.648 277.574 199.493C278.24 199.943 278.827 200.5 279.309 201.142C281.102 203.689 282.819 206.286 284.566 208.867C284.922 209.395 285.293 209.912 285.93 210.844C286.466 209.562 286.977 208.722 287.173 207.814C288.891 199.848 288.504 191.769 288.164 183.709C288.065 181.362 287.561 179.033 287.481 176.689C287.418 174.758 288.935 174.019 290.599 174.999C291.088 175.325 291.559 175.677 292.009 176.054C291.957 175.826 291.934 175.593 291.942 175.359C292.15 174.49 292.104 173.266 292.668 172.868C293.233 172.469 294.471 172.699 295.261 173.022C296.133 173.377 296.833 174.152 297.623 174.758C297.914 171.999 299.319 171.325 301.592 172.938C302.653 173.693 303.516 174.714 304.485 175.624C305.696 174.729 306.469 174.676 307.901 175.598C310.109 177.015 311.431 179.113 312.238 181.546C313.653 185.809 313.983 190.236 313.92 194.67C313.818 202.069 313.518 209.473 313.365 216.879C313.292 220.381 315.613 222.522 319.306 222.467C319.598 220.499 319.892 218.522 320.188 216.536L337.577 219.35C334.825 207.008 332.159 194.999 329.494 182.989C329.974 183.238 330.361 183.633 330.599 184.117C335.881 193.442 341.136 202.776 346.365 212.118C347.432 214.008 348.397 215.952 349.258 217.943C350.062 219.836 349.619 220.548 347.639 220.922C346.995 221.074 346.331 221.134 345.67 221.098C340.121 220.521 334.57 219.947 329.034 219.271C326.468 218.959 323.926 218.426 321.23 217.967C320.018 226.978 318.831 235.852 317.595 245.025C323.168 246.063 328.52 247.272 333.935 248.013C340.6 248.928 347.282 249.621 353.983 250.094C361.678 250.645 369.395 250.961 377.107 251.127C381.391 251.219 385.701 250.782 389.791 249.334C395.383 247.362 397.786 243.236 396.575 237.465C395.71 233.373 394.838 229.226 393.384 225.322C387.86 210.537 382.074 195.872 376.472 181.109C372.862 171.598 369.31 162.068 365.918 152.477C363.156 144.661 358.518 137.817 351.78 133.101C349.5 132.707 350.663 132.63 349.146 131.027ZM329.499 182.511C329.465 182.464 329.433 182.415 329.405 182.364C329.405 182.364 329.448 182.318 329.47 182.297C329.492 182.33 329.511 182.364 329.531 182.4L329.499 182.511Z" fill="#FF8025"/>
<path d="M138.873 219.218C149.63 235.06 160.42 250.885 171.243 266.693C171.684 267.253 172.319 267.629 173.024 267.748C174.846 267.989 176.697 268.057 178.536 268.187C182.967 268.513 187.399 268.824 191.83 269.152C196.349 269.486 200.872 269.845 205.398 270.176C209.781 270.497 214.169 270.782 218.552 271.108C224.302 271.537 230.047 272.018 235.799 272.435C241.551 272.853 247.307 273.213 253.059 273.642C260.035 274.161 267.008 274.729 273.981 275.265C275.6 275.388 277.223 275.46 279.026 275.569C278.822 275.219 278.742 275.059 278.641 274.912C267.737 258.877 256.811 242.859 245.861 226.858C245.493 226.405 244.96 226.114 244.378 226.049C237.533 225.506 230.686 225.04 223.839 224.541L199.198 222.73L173.85 220.859C165.45 220.232 157.051 219.609 148.652 218.991C145.259 218.75 141.887 218.508 138.233 218.238C138.572 218.752 138.708 218.976 138.873 219.218ZM183.098 250.058C182.916 251.439 182.02 251.762 180.75 251.765C177.016 251.779 173.847 248.781 174.177 245.503C174.286 244.427 174.833 243.736 175.892 243.558C176.951 243.379 177.741 243.782 178.226 244.748C178.555 245.402 178.56 245.928 177.741 246.196C176.401 246.63 176.563 247.586 177.351 248.212C178.138 248.837 179.214 249.148 180.207 249.462C181.15 249.761 182.146 249.884 183.115 250.085C182.873 248.574 182.487 247.067 182.388 245.544C182.337 244.835 182.79 244.096 183.013 243.372C183.675 243.664 184.467 243.813 184.971 244.272C186.468 245.607 187.844 247.101 189.298 248.504C189.524 248.719 189.897 248.784 190.202 248.916C189.773 247.893 189.284 246.889 188.93 245.841C188.295 243.951 188.93 243.118 190.895 243.205C192.948 243.256 194.924 243.994 196.504 245.3C197.01 245.728 197.335 246.536 197.417 247.21C197.444 247.429 196.448 247.777 195.678 248.197L198.929 250.737C196.264 252.05 195.186 250.307 193.994 248.844L193.752 249.264C193.948 249.747 194.142 250.254 194.401 250.906C193.175 251.314 192.174 251.217 191.333 250.23C190.955 249.785 190.568 249.349 190.187 248.907C190.109 249.039 190.057 249.185 190.035 249.337C190.069 249.8 190.144 250.261 190.202 250.725C189.674 250.681 189.053 250.795 188.639 250.553C188.016 250.189 187.568 249.544 186.992 249.083C186.414 248.674 185.814 248.296 185.196 247.951C185.296 248.702 185.38 248.965 185.356 249.221C185.308 249.827 185.199 250.428 185.114 251.034C184.554 250.778 183.997 250.524 183.442 250.266C183.327 250.204 183.216 250.134 183.11 250.058H183.098ZM216.205 251.9C213.694 253.018 212.691 251.248 211.499 249.93L211.257 250.203C211.448 250.739 211.63 251.272 211.872 251.91C210.453 252.253 209.265 252.183 208.539 250.831C207.758 249.382 206.91 247.965 206.326 246.445C205.776 244.996 206.477 244.11 208.022 244.156C210.239 244.224 212.326 244.866 214.022 246.329C214.506 246.742 214.901 247.519 214.874 248.108C214.857 248.47 213.966 248.796 213.501 249.114L216.205 251.9ZM226.204 248.953C226.689 250.16 227.192 251.338 227.73 252.617C226.664 253.056 225.85 253.081 225.278 251.907C224.275 249.851 223.217 247.823 222.129 245.679C224.646 244.743 226.005 246.148 227.243 247.852L227.566 247.553C227.352 246.898 227.132 246.244 226.89 245.491C227.994 244.982 229.216 245.139 229.674 246.005C230.803 248.139 231.592 250.435 232.562 252.726C230.711 253.114 229.434 252.834 228.544 251.323C228.002 250.411 227.258 249.617 226.606 248.769L226.204 248.958V248.953ZM196.887 244.043C199.431 243.384 200.715 243.973 201.49 246.039C202.033 246.039 202.593 246.01 203.15 246.039C203.984 246.071 204.781 246.388 205.408 246.937C206.035 247.485 206.453 248.232 206.593 249.052C206.811 250.292 206.05 251.403 204.802 251.403C202.719 251.417 200.705 251.362 199.688 248.909C198.997 247.241 197.89 245.732 196.894 244.043H196.887ZM237.441 248.108C238.361 249.042 239.085 250.15 239.571 251.367C240.233 252.919 239.607 253.73 237.911 253.684C236.783 253.616 235.662 253.455 234.561 253.201C234.386 253.156 234.223 253.077 234.08 252.969C233.937 252.86 233.817 252.724 233.727 252.569C232.625 250.353 231.595 248.11 230.444 245.679C233.322 245.416 235.593 246.319 237.432 248.105L237.441 248.108ZM219.72 250.507C219.764 250.787 219.887 251.082 219.839 251.342C219.723 251.929 219.522 252.499 219.354 253.073C218.843 252.803 218.157 252.658 217.85 252.238C216.469 250.353 216.427 248.18 216.864 246.008C217.07 244.975 218.075 244.856 218.618 245.44C220.716 247.647 222.681 249.981 224.661 252.298C224.803 252.477 224.782 253.097 224.661 253.158C224.379 253.303 223.854 253.399 223.653 253.223C222.865 252.566 222.177 251.799 221.411 251.118C220.963 250.76 220.493 250.43 220.004 250.128L219.713 250.507H219.72Z" fill="#FFFEFE"/>
<path d="M271.559 68.5883C273.536 67.4489 274.014 65.5805 273.817 63.4756C273.645 61.6145 273.09 59.8861 271.184 59.1185C269.277 58.3508 267.474 59.1185 266.316 60.5234C264.862 62.3024 263.299 62.0731 261.712 61.2041C260.419 60.4968 259.326 59.4226 258.16 58.4884C257.729 58.1408 257.395 57.658 256.949 57.3635C253.254 55.0027 252.345 53.0595 253.101 48.5575C249.118 48.5575 245.169 48.8327 241.27 48.4947C234.406 47.8985 227.486 47.1671 222.212 41.7357C220.516 48.6396 220.414 55.5289 220.823 62.4617C220.92 64.1515 221.148 65.9523 220.678 67.5093C219.265 72.1802 217.543 76.7571 215.932 81.3653C215.546 82.4733 215.018 83.5378 214.72 84.6699C214.323 86.1714 214.664 86.548 216.23 86.56C218.638 86.56 221.061 86.56 223.484 86.56C223.891 89.0392 224.281 91.4241 224.676 93.838C228.068 93.7801 230.859 92.6938 233.398 90.7965C234.125 90.2558 235.056 89.9999 235.894 89.6137C236.015 90.5382 236.296 91.4748 236.231 92.3873C235.911 96.9013 234.268 98.8518 229.875 100.059C228.705 100.38 227.511 100.597 225.999 100.935C226.51 102.982 226.774 105.007 227.528 106.844C229.427 111.46 233.498 113.212 238.3 111.764C242.962 110.352 247.131 107.938 251.182 105.34C256.91 101.659 262.032 97.3141 265.257 91.1586C266.243 91.2986 266.469 91.7597 265.897 92.4838C263.941 95.0112 262.212 97.7752 259.939 99.9839C257.114 102.731 253.843 105.015 250.693 107.542C250.739 107.629 250.894 107.911 251.049 108.194C253.695 112.973 256.225 117.828 257.719 123.112C258.204 124.84 258.538 126.733 258.398 128.5C258.085 132.393 257.429 136.261 256.913 140.14C256.67 142.054 256.002 144.043 256.3 145.875C256.905 149.607 258.037 153.25 258.844 156.497C259.265 152.634 259.629 148.362 260.213 144.125C260.726 140.42 261.758 136.864 263.995 133.745C266.718 129.96 270.163 128.007 274.956 128.973C275.978 129.174 277.014 129.3 278.055 129.352C278.467 129.376 279.024 129.258 279.295 128.985C283.172 125.065 287.049 121.106 290.862 117.099C291.204 116.741 291.328 115.892 291.173 115.392C288.481 106.728 285.685 98.0938 283.034 89.4181C282.617 88.0543 281.958 87.4387 280.643 87.3663C278.486 87.248 277.035 86.1328 276.1 84.2523C275.743 83.5281 275.319 82.845 274.997 82.1208C273.144 77.9061 271.31 73.6841 269.441 69.397C270.093 69.1532 270.895 68.9673 271.559 68.5883ZM231.722 63.2921C229.655 63.3646 228.751 62.2179 229.616 60.3399C229.858 59.8137 230.876 59.4202 231.574 59.3574C233.876 59.1522 236.194 59.1378 238.506 59.0267C239.121 58.9978 239.732 58.7853 240.333 58.8433C240.934 58.9012 241.975 59.0846 242.029 59.3478C242.169 60.0961 242.099 61.1244 241.709 61.6676C241.319 62.2107 240.369 62.5366 239.623 62.6331C237.2 62.9494 234.736 63.1159 232.289 63.3404V63.2897C232.1 63.2945 231.911 63.2777 231.722 63.297V63.2921Z" fill="#FEFEFE"/>
<path d="M288.862 175.818C288.818 176.542 288.69 177.302 288.748 178.027C288.823 179.009 289.092 179.975 289.193 180.957C289.889 187.627 289.962 194.346 289.412 201.029C289.169 203.926 288.554 206.796 287.883 209.625C287.716 210.366 286.785 211.206 286.019 211.469C284.912 211.851 284.323 210.817 283.761 209.953C282.264 207.609 280.767 205.263 279.187 202.975C278.54 202.038 277.68 201.246 276.917 200.389L276.534 200.568C276.631 201.427 276.631 202.323 276.873 203.136C278.363 207.94 279.747 212.792 281.477 217.502C283.551 223.153 287.648 227.051 293.203 229.313C297.967 231.244 302.813 232.982 307.637 234.771C310.808 235.946 314.004 237.057 317.258 238.223C317.905 233.395 318.53 228.746 319.162 224.043C318.067 223.698 317.064 223.44 316.11 223.063C313.551 222.057 311.933 220.357 312.097 217.407C312.163 216.418 312.097 215.423 312.163 214.436C312.647 206.192 313.217 197.939 312.456 189.695C312.166 186.659 311.506 183.669 310.491 180.791C309.943 179.229 308.41 177.978 307.198 176.687C306.91 176.383 306.188 176.474 305.664 176.383C305.631 176.865 305.497 177.37 305.589 177.831C305.744 178.608 306.108 179.342 306.273 180.117C307.394 185.355 307.622 190.668 307.506 196.003C307.472 197.83 307.324 199.643 307.23 201.451C305.742 201.618 306.018 200.766 306.081 200.042C306.542 193.669 306.462 187.32 305.112 181.044C304.504 178.176 303.363 175.552 300.751 173.887C300.334 173.621 299.716 173.669 299.19 173.573C299.157 174.056 299.021 174.558 299.108 175.021C299.816 178.751 300.768 182.468 301.252 186.234C301.897 191.383 301.923 196.591 301.33 201.746C300.397 201.97 300.14 201.729 300.203 200.763C300.618 194.535 300.639 188.312 299.442 182.147C298.895 179.374 298.003 176.75 295.745 174.859C295.086 174.307 294.219 174 293.361 173.537C294.088 178.76 295.105 183.605 295.331 188.486C295.559 193.449 294.999 198.446 294.783 203.428L294.122 203.629C293.906 203.247 293.61 202.888 293.499 202.477C293.405 202.134 293.545 201.731 293.545 201.355C293.712 196.044 293.996 190.7 293.996 185.389C293.996 182.548 293.269 179.772 291.43 177.462C290.873 176.762 290.085 176.24 289.402 175.634L288.862 175.818ZM302.158 210.856C303.128 210.813 303.261 211.151 303.057 212.116C302.669 213.803 302.44 215.523 302.372 217.253C302.318 219.713 303.29 221.81 305.175 223.481C305.454 223.722 305.417 224.314 305.543 224.743L304.998 224.862C301.042 221.895 300 216.828 302.158 210.856Z" fill="#FEFDFE"/>
<path d="M172.128 268.985C171.915 271.957 171.712 274.759 171.503 277.675L279.032 285.6C279.243 282.638 279.441 279.843 279.65 276.91L172.128 268.985Z" fill="#FEFEFE"/>
<path d="M319.432 261.509L319.367 261.2L268.243 257.434L280.6 275.57L319.432 261.509Z" fill="#FEFEFE"/>
<path d="M322.185 261.93C308.669 266.793 295.155 271.673 281.643 276.57C281.362 276.672 281.001 277.019 280.977 277.294C280.734 279.899 280.553 282.508 280.344 285.275C286.77 282.943 293.004 280.688 299.243 278.422C306.378 275.844 313.521 273.285 320.647 270.678C321.131 270.497 321.829 270.014 321.875 269.611C322.159 267.091 322.287 264.542 322.474 261.939C322.378 261.928 322.282 261.924 322.185 261.93Z" fill="#FDFDFD"/>
<path d="M251.842 135.132C253.095 137.519 254.147 140.027 255.334 142.588C255.976 137.813 256.567 133.147 257.245 128.493C257.602 126.048 256.681 123.926 255.954 121.589L246.243 129.246C248.828 130.596 250.568 132.691 251.842 135.132Z" fill="#FCFCFC"/>
<path d="M292.427 115.129C293.304 113.633 294.263 112.474 293.517 110.857C292.933 109.597 291.806 109.372 290.353 109.247C291.058 111.243 291.702 113.073 292.427 115.129Z" fill="#F6F5F5"/>
<path d="M349.452 132.519C351.228 132.976 350.077 133.316 352.359 133.71L349.452 132.519Z" fill="#DCD2CB"/>
<path d="M345.492 130.203L346.137 130.444L345.492 130.203Z" fill="#DCD2CB"/>
<path d="M329.472 182.286L329.407 182.353C329.435 182.404 329.467 182.453 329.501 182.5L329.532 182.39C329.525 182.349 329.503 182.313 329.472 182.286Z" fill="#2B2526"/>
<path d="M214.862 248.119C214.848 247.781 214.765 247.449 214.618 247.143C214.472 246.838 214.265 246.564 214.01 246.34C212.314 244.865 210.227 244.223 208.01 244.168C206.467 244.122 205.767 245.02 206.314 246.456C206.898 247.977 207.746 249.394 208.527 250.842C209.253 252.194 210.441 252.264 211.861 251.921C211.618 251.284 211.436 250.751 211.245 250.215L211.487 249.942C212.679 251.26 213.683 253.029 216.193 251.912L213.501 249.138C213.959 248.807 214.858 248.481 214.862 248.119ZM208.544 245.573L211.323 246.632L211.129 247.147C210.094 247.221 208.946 247.538 208.544 245.573Z" fill="#EC6C17"/>
<path d="M190.179 248.91C190.56 249.352 190.947 249.789 191.325 250.233C192.166 251.22 193.167 251.317 194.393 250.909C194.134 250.257 193.94 249.75 193.744 249.267L193.986 248.847C195.178 250.31 196.256 252.053 198.921 250.74L195.67 248.2C196.44 247.78 197.436 247.433 197.409 247.213C197.327 246.54 197.002 245.731 196.496 245.304C194.916 243.997 192.94 243.259 190.887 243.208C188.922 243.121 188.287 243.954 188.922 245.844C189.276 246.892 189.765 247.896 190.194 248.92L190.179 248.91ZM193.894 245.644C192.108 246.511 191.645 246.313 190.986 244.512L193.894 245.644Z" fill="#EC6B15"/>
<path d="M226.601 248.774C227.257 249.622 228.001 250.416 228.539 251.328C229.428 252.839 230.705 253.119 232.556 252.731C231.607 250.44 230.797 248.144 229.668 246.01C229.21 245.144 227.989 244.987 226.884 245.496C227.127 246.249 227.347 246.903 227.56 247.558L227.238 247.857C226 246.143 224.641 244.738 222.123 245.684C223.211 247.828 224.27 249.856 225.273 251.912C225.845 253.085 226.659 253.061 227.725 252.622C227.192 251.333 226.688 250.143 226.203 248.953L226.601 248.774ZM226.187 248.622C226.16 248.591 226.107 248.555 226.107 248.53C226.128 248.466 226.157 248.405 226.191 248.347L226.283 248.446L226.187 248.622ZM227.703 247.881C227.672 247.941 227.635 248.002 227.601 248.06C227.57 248.028 227.514 247.99 227.514 247.966C227.536 247.899 227.565 247.835 227.601 247.775C227.635 247.806 227.667 247.838 227.703 247.876V247.881Z" fill="#EC6C17"/>
<path d="M199.678 248.91C200.696 251.362 202.709 251.418 204.793 251.403C206.041 251.403 206.801 250.293 206.583 249.052C206.444 248.233 206.025 247.486 205.398 246.937C204.771 246.389 203.974 246.072 203.14 246.04C202.583 246.016 202.023 246.04 201.481 246.04C200.705 243.978 199.426 243.384 196.877 244.048C197.873 245.74 198.98 247.239 199.678 248.91Z" fill="#EC6C17"/>
<path d="M233.717 252.553C233.806 252.708 233.926 252.844 234.069 252.953C234.212 253.061 234.376 253.14 234.55 253.185C235.652 253.439 236.773 253.6 237.901 253.668C239.597 253.714 240.222 252.903 239.561 251.35C239.075 250.134 238.351 249.026 237.431 248.092C235.585 246.32 233.312 245.417 230.434 245.678C231.592 248.109 232.631 250.358 233.717 252.553ZM234.107 247.966C234.79 248.059 235.432 248.343 235.959 248.786C236.486 249.229 236.875 249.812 237.082 250.467C237.201 250.805 236.966 251.268 236.893 251.674C236.372 251.517 235.607 251.522 235.381 251.177C234.778 250.242 234.412 249.159 233.928 248.135L233.775 247.935L234.1 247.966H234.107Z" fill="#EC6D19"/>
<path d="M219.99 250.118C220.478 250.42 220.949 250.75 221.397 251.108C222.163 251.789 222.851 252.556 223.639 253.213C223.84 253.377 224.365 253.293 224.646 253.148C224.777 253.087 224.799 252.467 224.646 252.288C222.667 249.971 220.702 247.637 218.604 245.43C218.061 244.846 217.056 244.964 216.85 245.998C216.413 248.17 216.455 250.343 217.836 252.228C218.143 252.648 218.829 252.793 219.34 253.063C219.51 252.489 219.711 251.919 219.825 251.332C219.878 251.072 219.755 250.777 219.711 250.497L219.99 250.118Z" fill="#EC6C17"/>
<path d="M190.198 248.909C189.893 248.776 189.52 248.711 189.294 248.496C187.841 247.094 186.464 245.6 184.967 244.265C184.463 243.806 183.671 243.657 183.009 243.364C182.786 244.089 182.333 244.835 182.384 245.537C182.496 247.06 182.869 248.566 183.126 250.078L183.104 250.058C183.21 250.134 183.321 250.204 183.436 250.266C183.991 250.524 184.548 250.778 185.108 251.034C185.185 250.428 185.294 249.827 185.35 249.221C185.374 248.965 185.289 248.702 185.19 247.951C185.808 248.296 186.407 248.674 186.985 249.083C187.562 249.544 188.01 250.189 188.633 250.553C189.047 250.795 189.668 250.681 190.196 250.725C190.138 250.261 190.062 249.8 190.029 249.337C190.051 249.185 190.103 249.039 190.181 248.907L190.198 248.909Z" fill="#EC6D19"/>
<path d="M183.126 250.087C182.157 249.887 181.157 249.764 180.219 249.464C179.226 249.151 178.142 248.837 177.362 248.214C176.582 247.591 176.413 246.633 177.752 246.198C178.566 245.921 178.562 245.395 178.237 244.75C177.752 243.784 176.984 243.376 175.904 243.56C174.823 243.743 174.297 244.429 174.188 245.506C173.859 248.784 177.028 251.767 180.762 251.767C182.019 251.767 182.916 251.439 183.097 250.058L183.126 250.087Z" fill="#EC6C17"/>
<path d="M232.289 63.3454C234.736 63.121 237.188 62.9544 239.624 62.6382C240.37 62.544 241.29 62.2471 241.71 61.6726C242.129 61.0981 242.17 60.1011 242.029 59.3528C241.981 59.0897 240.932 58.9062 240.333 58.8483C239.735 58.7903 239.122 59.0028 238.507 59.0317C236.195 59.1428 233.876 59.1573 231.575 59.3624C230.877 59.4252 229.859 59.8187 229.617 60.3449C228.752 62.223 229.656 63.3696 231.722 63.2972H232.289V63.3454Z" fill="#2A2627"/>
<path d="M305.545 224.749C305.419 224.319 305.455 223.728 305.177 223.487C303.292 221.816 302.32 219.718 302.373 217.259C302.441 215.529 302.671 213.809 303.059 212.122C303.262 211.156 303.129 210.818 302.16 210.862C300.001 216.829 301.038 221.896 305 224.862L305.545 224.749Z" fill="#343132"/>
<path d="M211.321 246.631L208.542 245.56C208.946 247.537 210.093 247.218 211.127 247.145L211.321 246.631Z" fill="#FEF3EB"/>
<path d="M190.983 244.51C191.642 246.31 192.105 246.508 193.89 245.642L190.983 244.51Z" fill="#FDEEE2"/>
<path d="M226.192 248.351C226.157 248.409 226.129 248.47 226.107 248.534C226.107 248.558 226.16 248.594 226.187 248.626L226.283 248.45L226.192 248.351Z" fill="#FFFEFE"/>
<path d="M227.601 247.778C227.565 247.838 227.536 247.902 227.514 247.969C227.514 247.993 227.57 248.031 227.601 248.063C227.635 248 227.671 247.94 227.703 247.88L227.601 247.778Z" fill="#FFFEFE"/>
<path d="M233.942 248.131C234.408 249.155 234.786 250.239 235.396 251.173C235.621 251.518 236.387 251.513 236.908 251.67C236.981 251.264 237.216 250.801 237.097 250.463C236.612 249.065 235.59 248.22 234.107 247.96L233.942 248.131Z" fill="#FEF8F4"/>
<path d="M234.107 247.963L233.782 247.931L233.935 248.132L234.107 247.963Z" fill="#FEF8F4"/>
<path d="M173.183 238.451L247.716 240.525L247.11 262.158L172.576 260.083L173.183 238.451Z" fill="white"/>
<path d="M179.874 247.357C180.129 247.357 180.383 247.4 180.625 247.484C180.792 247.542 180.944 247.636 181.071 247.759C181.217 247.941 181.287 248.173 181.265 248.405C181.246 248.67 181.154 248.924 180.999 249.141C180.8 249.409 180.551 249.637 180.266 249.812L179.755 250.139C179.966 250.214 180.168 250.31 180.358 250.426C180.445 250.472 180.514 250.545 180.554 250.635C180.614 250.79 180.626 250.96 180.588 251.121C180.52 251.419 180.406 251.705 180.25 251.968C180.073 252.295 179.831 252.582 179.538 252.813C179.253 253.04 178.931 253.219 178.587 253.342C178.261 253.459 177.917 253.521 177.57 253.525C177.26 253.518 176.955 253.456 176.668 253.341C176.567 253.312 176.476 253.257 176.403 253.183C176.33 253.108 176.277 253.016 176.25 252.916C176.235 252.611 176.264 252.306 176.337 252.01C176.48 251.502 176.66 250.947 176.896 250.357C177.132 249.767 177.386 249.132 177.682 248.457C177.954 247.846 178.124 247.522 178.197 247.493C178.298 247.457 178.403 247.429 178.509 247.41C178.833 247.374 179.159 247.359 179.485 247.364C179.614 247.355 179.744 247.352 179.874 247.357ZM178.605 250.894C178.473 250.889 178.341 250.914 178.218 250.966C178.163 250.988 178.114 251.021 178.072 251.063C178.03 251.105 177.998 251.155 177.977 251.21L177.661 252.179C177.645 252.228 177.649 252.282 177.673 252.329C177.696 252.376 177.736 252.412 177.786 252.43C177.915 252.478 178.057 252.484 178.19 252.446C178.374 252.404 178.546 252.321 178.694 252.205C178.87 252.066 179.009 251.887 179.1 251.683C179.17 251.551 179.194 251.399 179.166 251.253C179.135 251.144 179.063 251.052 178.965 250.995C178.86 250.936 178.742 250.904 178.622 250.902L178.605 250.894ZM179.584 248.304L179.558 248.302C179.461 248.304 179.365 248.325 179.276 248.363C179.239 248.375 179.205 248.395 179.176 248.421C179.147 248.446 179.123 248.478 179.107 248.513L178.774 249.321C178.744 249.396 178.764 249.453 178.843 249.469C178.95 249.486 179.06 249.475 179.162 249.437C179.305 249.391 179.438 249.319 179.554 249.224C179.688 249.119 179.793 248.982 179.861 248.826C179.896 248.766 179.914 248.698 179.914 248.63C179.914 248.561 179.896 248.493 179.861 248.433C179.83 248.389 179.789 248.353 179.741 248.329C179.693 248.304 179.639 248.291 179.585 248.292L179.584 248.304Z" fill="#EB660C"/>
<path d="M183.948 247.322C184.284 247.318 184.614 247.408 184.901 247.582C185.018 247.658 185.114 247.763 185.18 247.886C185.245 248.01 185.278 248.148 185.275 248.287C185.236 248.717 185.071 249.125 184.801 249.462C184.337 250.083 183.798 250.644 183.196 251.134L184.117 252.389C184.053 252.572 183.935 252.731 183.779 252.848C183.598 252.993 183.402 253.12 183.195 253.225C183 253.327 182.801 253.421 182.603 253.505L181.779 252.374L181.443 253.779C181.328 253.817 181.216 253.85 181.105 253.878C180.926 253.925 180.749 253.962 180.576 253.993C180.424 254.02 180.269 254.021 180.117 253.997C180.093 253.999 180.069 253.994 180.047 253.984C180.026 253.974 180.007 253.958 179.993 253.939C179.979 253.919 179.97 253.897 179.967 253.873C179.964 253.849 179.967 253.825 179.976 253.803C180.2 252.966 180.469 252.14 180.781 251.331C181.096 250.515 181.428 249.7 181.775 248.885C181.955 248.461 182.132 248.037 182.308 247.611C182.829 247.402 183.387 247.304 183.948 247.322ZM183.215 248.836C183.123 248.829 183.065 248.858 183.04 248.929L182.729 249.847C182.701 249.954 182.75 249.989 182.876 249.95C183.027 249.897 183.167 249.819 183.292 249.72C183.431 249.621 183.549 249.496 183.638 249.351C183.659 249.314 183.67 249.273 183.67 249.23C183.67 249.188 183.658 249.146 183.637 249.109C183.597 249.029 183.536 248.962 183.459 248.914C183.385 248.871 183.301 248.844 183.215 248.836Z" fill="#EB660C"/>
<path d="M188.633 247.714C188.765 247.713 188.896 247.738 189.018 247.789C189.061 247.804 189.097 247.832 189.123 247.869C189.148 247.906 189.162 247.95 189.161 247.995C189.136 248.512 189.09 249.073 189.022 249.68C188.954 250.286 188.879 250.904 188.796 251.534C188.722 252.131 188.655 252.695 188.596 253.23C188.592 253.283 188.516 253.353 188.378 253.444C188.218 253.548 188.049 253.636 187.872 253.709C187.68 253.791 187.48 253.852 187.275 253.892C187.122 253.931 186.96 253.919 186.814 253.857C186.754 253.817 186.71 253.758 186.69 253.689C186.669 253.621 186.673 253.547 186.701 253.481L186.974 252.364C187.003 252.252 187.026 252.139 187.041 252.025C187.051 251.944 187.048 251.862 187.033 251.782C187.029 251.754 187.016 251.729 186.996 251.709C186.976 251.689 186.95 251.677 186.922 251.675C186.842 251.686 186.769 251.725 186.717 251.785C186.64 251.859 186.571 251.939 186.511 252.027C186.425 252.146 186.348 252.256 186.275 252.387L185.715 253.378C185.666 253.478 185.595 253.566 185.509 253.636C185.422 253.706 185.321 253.756 185.213 253.784C185.016 253.832 184.808 253.823 184.615 253.756C184.444 253.706 184.286 253.621 184.148 253.508C184.032 253.405 184.002 253.311 184.036 253.258C184.51 252.552 184.985 251.824 185.46 251.072C185.798 250.552 186.114 250.041 186.442 249.543C186.771 249.044 187.094 248.565 187.414 248.114C187.544 247.954 187.723 247.841 187.924 247.794C188.154 247.727 188.394 247.7 188.633 247.714ZM187.826 249.535L187.811 249.533C187.736 249.545 187.668 249.583 187.618 249.64C187.551 249.71 187.491 249.786 187.441 249.869C187.385 249.962 187.335 250.055 187.291 250.146C187.248 250.237 187.204 250.345 187.15 250.474L187.719 250.463C187.77 250.339 187.812 250.228 187.843 250.139C187.874 250.048 187.9 249.955 187.92 249.861C187.942 249.783 187.948 249.701 187.938 249.62C187.932 249.595 187.918 249.573 187.897 249.557C187.877 249.542 187.851 249.534 187.826 249.535Z" fill="#EB660C"/>
<path d="M188.995 253.429L190.922 248.272C190.951 248.184 191.048 248.112 191.216 248.052C191.397 247.992 191.585 247.955 191.775 247.941C191.959 247.922 192.144 247.926 192.326 247.953C192.379 247.949 192.431 247.962 192.475 247.99C192.52 248.018 192.554 248.06 192.572 248.109L192.45 249.732C192.457 249.818 192.456 249.905 192.448 249.991C192.428 250.117 192.435 250.246 192.468 250.37C192.497 250.43 192.546 250.479 192.606 250.509C192.666 250.539 192.735 250.548 192.801 250.535L193.015 249.977L193.68 248.243C193.71 248.156 193.813 248.086 193.99 248.024C194.182 247.964 194.38 247.929 194.581 247.918C194.769 247.903 194.958 247.917 195.142 247.96C195.17 247.961 195.198 247.968 195.224 247.98C195.249 247.993 195.272 248.01 195.291 248.032C195.309 248.054 195.323 248.079 195.331 248.106C195.339 248.133 195.342 248.162 195.338 248.19C195.016 249.078 194.674 249.969 194.312 250.863C193.95 251.758 193.558 252.66 193.137 253.571C193.066 253.717 192.949 253.836 192.803 253.907C192.644 253.993 192.468 254.041 192.287 254.048C192.114 254.056 191.942 254.017 191.79 253.933C191.716 253.887 191.653 253.824 191.605 253.751C191.557 253.678 191.526 253.595 191.514 253.508L191.233 251.769C191.092 252.126 190.978 252.427 190.887 252.668C190.796 252.908 190.71 253.138 190.63 253.343L190.467 253.767C190.351 253.88 190.201 253.954 190.04 253.977C189.862 254.012 189.679 254.014 189.5 253.985C189.345 253.961 189.199 253.894 189.08 253.791C189.031 253.746 188.997 253.688 188.982 253.623C188.966 253.559 188.971 253.491 188.995 253.429Z" fill="#EB660C"/>
<path d="M197.575 247.82C197.737 247.821 197.899 247.844 198.056 247.888C198.106 247.87 198.213 247.899 198.376 247.987C198.572 248.1 198.739 248.256 198.867 248.442C199.044 248.713 199.147 249.024 199.168 249.346C199.194 249.835 199.116 250.324 198.939 250.781C198.747 251.322 198.463 251.825 198.099 252.27C197.768 252.68 197.384 253.045 196.958 253.356C196.602 253.62 196.215 253.839 195.806 254.011C195.531 254.135 195.233 254.201 194.931 254.205C194.684 254.169 194.453 254.059 194.27 253.889C194.094 253.753 193.968 253.562 193.912 253.347C193.931 253.007 194.011 252.674 194.149 252.362C194.327 251.865 194.548 251.312 194.811 250.717C195.075 250.122 195.324 249.579 195.556 249.11C195.686 248.817 195.847 248.54 196.036 248.282C196.247 248.098 196.501 247.969 196.774 247.906C197.036 247.843 197.305 247.815 197.575 247.82ZM196.951 249.889C196.885 249.889 196.822 249.909 196.768 249.945C196.714 249.982 196.672 250.034 196.649 250.094L195.911 251.925C195.857 252.032 195.879 252.126 195.968 252.171C196.097 252.189 196.228 252.164 196.34 252.1C196.525 252.008 196.693 251.885 196.834 251.735C197.013 251.549 197.154 251.33 197.249 251.091C197.346 250.883 197.393 250.656 197.387 250.428C197.384 250.281 197.329 250.141 197.232 250.031C197.197 249.991 197.154 249.958 197.105 249.934C197.057 249.911 197.004 249.898 196.95 249.897L196.951 249.889Z" fill="#EB660C"/>
<path d="M198.188 253.447C198.199 253.128 198.307 252.821 198.497 252.565C198.696 252.263 198.936 251.989 199.209 251.751C199.442 251.538 199.701 251.354 199.979 251.203C199.872 250.974 199.834 250.719 199.871 250.469C199.911 250.166 200.016 249.875 200.178 249.616C200.36 249.318 200.605 249.063 200.895 248.868C201.237 248.642 201.624 248.494 202.03 248.435C202.229 248.404 202.432 248.408 202.63 248.448C202.86 248.512 203.066 248.643 203.221 248.824C203.33 249.103 203.324 249.413 203.205 249.687C203.066 250.048 202.859 250.379 202.595 250.663C202.314 250.973 201.973 251.224 201.594 251.402C201.601 251.511 201.628 251.618 201.675 251.717C201.727 251.81 201.806 251.883 201.902 251.928C201.967 251.893 202.028 251.853 202.086 251.809C202.15 251.765 202.223 251.708 202.311 251.634C202.37 251.579 202.449 251.549 202.531 251.551C202.595 251.561 202.654 251.592 202.696 251.641C202.747 251.693 202.791 251.75 202.827 251.813C202.868 251.893 202.902 251.977 202.93 252.063L202.824 252.147L202.759 252.195L202.69 252.248C202.651 252.277 202.613 252.305 202.576 252.337L202.623 252.357C202.667 252.38 202.713 252.399 202.76 252.416C202.803 252.427 202.847 252.434 202.892 252.438L203.118 252.433C203.086 252.573 203.015 252.701 202.913 252.802C202.774 252.966 202.62 253.116 202.454 253.252C202.352 253.361 202.218 253.436 202.071 253.466L201.895 253.453C201.861 253.455 201.827 253.452 201.793 253.445L201.686 253.415L201.549 253.366C201.26 253.597 200.941 253.79 200.602 253.939C200.263 254.097 199.904 254.21 199.535 254.276C199.248 254.335 198.951 254.312 198.677 254.212C198.536 254.138 198.416 254.028 198.33 253.894C198.245 253.76 198.195 253.606 198.188 253.447ZM200.588 252.704C200.504 252.635 200.429 252.557 200.362 252.472C200.286 252.351 200.226 252.221 200.182 252.085L200.051 252.18L199.943 252.268C199.774 252.413 199.64 252.593 199.548 252.796C199.522 252.848 199.511 252.908 199.517 252.966C199.523 253.025 199.545 253.081 199.582 253.127C199.63 253.167 199.686 253.196 199.747 253.212C199.807 253.228 199.871 253.23 199.932 253.219C200.067 253.204 200.198 253.168 200.322 253.112C200.474 253.041 200.621 252.958 200.761 252.864L200.588 252.704ZM201.017 250.216C200.997 250.385 201.03 250.557 201.112 250.707C201.183 250.669 201.251 250.628 201.318 250.585C201.402 250.525 201.487 250.469 201.574 250.41L201.754 250.273C201.958 250.154 202.118 249.972 202.211 249.756C202.234 249.695 202.236 249.628 202.218 249.566C202.199 249.504 202.16 249.45 202.108 249.411C202.049 249.372 201.982 249.347 201.911 249.337C201.841 249.326 201.77 249.332 201.702 249.352C201.508 249.408 201.34 249.526 201.222 249.689C201.1 249.839 201.027 250.023 201.013 250.216L201.017 250.216Z" fill="#EB660C"/>
<path d="M206.968 248.112C207.13 248.114 207.292 248.137 207.449 248.179C207.501 248.161 207.611 248.191 207.779 248.281C207.978 248.396 208.15 248.554 208.281 248.743C208.466 249.014 208.575 249.33 208.596 249.657C208.624 250.156 208.543 250.656 208.358 251.121C208.161 251.669 207.869 252.179 207.494 252.627C207.154 253.043 206.76 253.412 206.323 253.726C205.958 253.993 205.561 254.215 205.142 254.388C204.86 254.515 204.554 254.582 204.245 254.585C203.992 254.549 203.755 254.438 203.567 254.266C203.39 254.125 203.261 253.934 203.197 253.717C203.221 253.372 203.305 253.034 203.445 252.717C203.628 252.213 203.852 251.658 204.121 251.046C204.391 250.435 204.635 249.894 204.879 249.428C205.012 249.131 205.178 248.849 205.372 248.588C205.59 248.403 205.85 248.274 206.129 248.212C206.403 248.142 206.685 248.109 206.968 248.112ZM206.325 250.206C206.258 250.205 206.193 250.224 206.137 250.261C206.082 250.298 206.039 250.351 206.015 250.413L205.264 252.265C205.207 252.379 205.249 252.474 205.336 252.512C205.467 252.531 205.6 252.506 205.715 252.441C205.906 252.349 206.08 252.224 206.229 252.073C206.415 251.885 206.562 251.662 206.662 251.418C206.761 251.209 206.81 250.981 206.804 250.75C206.799 250.602 206.742 250.461 206.642 250.351C206.604 250.308 206.557 250.274 206.504 250.25C206.451 250.227 206.394 250.214 206.336 250.214L206.325 250.206Z" fill="#EB660C"/>
<path d="M209.899 248.963C210.131 248.849 210.384 248.786 210.642 248.776C210.853 248.758 211.063 248.819 211.23 248.949C211.297 249.027 211.337 249.125 211.344 249.228C211.351 249.331 211.325 249.433 211.269 249.52L210.79 250.695L210.667 250.979C210.547 251.253 210.42 251.553 210.289 251.873C210.158 252.192 210.04 252.503 209.936 252.815L209.583 253.773C209.5 253.931 209.363 254.054 209.197 254.12C208.992 254.219 208.77 254.279 208.542 254.296C208.344 254.324 208.143 254.273 207.982 254.155C207.909 254.074 207.861 253.974 207.843 253.867C207.825 253.76 207.839 253.65 207.882 253.55C208.083 252.838 208.3 252.145 208.524 251.458C208.762 250.768 209.038 250.092 209.352 249.433C209.477 249.22 209.67 249.055 209.899 248.963Z" fill="#EB660C"/>
<path d="M214.376 248.762C214.771 248.694 215.172 248.672 215.571 248.696C215.706 248.69 215.84 248.719 215.96 248.779C216.081 248.839 216.184 248.929 216.26 249.04C216.371 249.242 216.292 249.569 216.024 250.02C215.89 250.177 215.721 250.301 215.53 250.383C215.401 250.432 215.259 250.44 215.125 250.403C214.997 250.367 214.874 250.313 214.761 250.243C214.444 250.134 214.1 250.14 213.787 250.26C213.454 250.395 213.161 250.613 212.936 250.893C212.644 251.245 212.4 251.634 212.21 252.049C212.034 252.52 212.07 252.947 212.313 253.243C212.373 253.306 212.45 253.349 212.535 253.369C212.62 253.388 212.709 253.382 212.79 253.352C213.074 253.237 213.318 253.043 213.493 252.794C213.505 252.781 213.514 252.766 213.521 252.75C213.563 252.694 213.601 252.634 213.634 252.572C213.671 252.51 213.692 252.441 213.697 252.369C213.694 252.329 213.68 252.29 213.657 252.257C213.636 252.221 213.609 252.19 213.577 252.164L213.467 252.076C213.45 252.066 213.436 252.052 213.424 252.037C213.413 252.021 213.404 252.003 213.4 251.985C213.395 251.966 213.395 251.946 213.398 251.927C213.401 251.908 213.408 251.89 213.419 251.873C213.456 251.746 213.514 251.626 213.591 251.518C213.672 251.394 213.771 251.282 213.886 251.187C213.925 251.149 213.972 251.118 214.024 251.098C214.076 251.078 214.131 251.068 214.186 251.069C214.452 251.053 214.712 251.048 214.962 251.057C215.155 251.067 215.346 251.101 215.53 251.157C215.602 251.175 215.669 251.208 215.727 251.254C215.785 251.3 215.832 251.358 215.865 251.424C215.899 251.6 215.874 251.782 215.795 251.942C215.704 252.163 215.594 252.375 215.465 252.576C215.336 252.782 215.22 252.962 215.115 253.099C215.081 253.167 215.034 253.229 214.978 253.28C214.958 253.314 214.934 253.345 214.905 253.371C214.714 253.63 214.5 253.871 214.268 254.094C214.018 254.33 213.718 254.507 213.391 254.614C212.951 254.748 212.488 254.791 212.03 254.74C211.568 254.715 211.123 254.551 210.756 254.27C210.499 254.05 210.332 253.745 210.286 253.411C210.237 253.085 210.257 252.752 210.344 252.433C210.582 251.834 210.885 251.263 211.25 250.731C211.509 250.352 211.818 250.008 212.167 249.708C212.417 249.496 212.694 249.317 212.989 249.174C213.19 249.078 213.398 248.997 213.61 248.93C213.675 248.911 213.74 248.888 213.802 248.862C214 248.821 214.192 248.779 214.376 248.762Z" fill="#EB660C"/>
<path d="M217.523 249.207C217.761 249.092 218.022 249.029 218.287 249.022C218.501 249.003 218.714 249.065 218.884 249.195C218.953 249.274 218.995 249.373 219.003 249.477C219.011 249.581 218.985 249.684 218.928 249.772L218.433 250.97L218.309 251.256C218.187 251.532 218.057 251.835 217.921 252.157C217.785 252.478 217.669 252.794 217.557 253.098L217.195 254.066C217.117 254.22 216.987 254.342 216.827 254.408C216.618 254.514 216.391 254.579 216.159 254.601C215.956 254.627 215.752 254.575 215.586 254.456C215.511 254.376 215.461 254.275 215.442 254.166C215.424 254.058 215.439 253.946 215.484 253.846C215.686 253.133 215.91 252.43 216.155 251.737C216.401 251.043 216.678 250.362 216.988 249.698C217.106 249.479 217.294 249.307 217.523 249.207Z" fill="#EB660C"/>
<path d="M219.083 250.096C219.137 249.934 219.204 249.777 219.284 249.627C219.372 249.456 219.489 249.25 219.637 248.999L224.873 248.964C224.899 248.975 224.922 248.992 224.941 249.012C224.96 249.033 224.973 249.058 224.982 249.084C224.99 249.111 224.992 249.139 224.988 249.167C224.984 249.194 224.974 249.221 224.959 249.244C224.905 249.42 224.829 249.589 224.732 249.745L224.454 250.209C224.423 250.25 224.395 250.293 224.372 250.338L222.931 250.335L220.755 254.694C220.673 254.776 220.569 254.832 220.456 254.858C220.272 254.918 220.084 254.963 219.892 254.993C219.721 255.026 219.545 255.033 219.371 255.012C219.245 255.002 219.186 254.923 219.223 254.807L220.963 250.394L219.068 250.371C219.049 250.326 219.041 250.279 219.044 250.231C219.047 250.184 219.06 250.137 219.083 250.096Z" fill="#EB660C"/>
<path d="M227.961 248.938C228.106 248.936 228.25 248.964 228.384 249.02C228.43 249.036 228.47 249.066 228.498 249.104C228.527 249.143 228.544 249.19 228.546 249.238C228.515 249.781 228.464 250.374 228.393 251.018C228.323 251.659 228.24 252.311 228.147 252.967C228.054 253.624 227.989 254.193 227.926 254.754C227.921 254.81 227.845 254.884 227.685 254.978C227.502 255.087 227.309 255.18 227.11 255.257C226.897 255.344 226.676 255.408 226.45 255.45C226.279 255.49 226.1 255.476 225.937 255.412C225.872 255.373 225.823 255.311 225.799 255.239C225.776 255.166 225.779 255.088 225.809 255.017L226.114 253.83C226.147 253.713 226.17 253.595 226.185 253.474C226.197 253.393 226.192 253.311 226.171 253.231C226.168 253.201 226.154 253.173 226.132 253.152C226.11 253.131 226.082 253.118 226.051 253.116C225.964 253.129 225.883 253.171 225.821 253.234C225.738 253.312 225.662 253.397 225.596 253.489C225.508 253.615 225.431 253.74 225.361 253.866L224.751 254.9C224.694 255.009 224.615 255.105 224.518 255.181C224.421 255.257 224.308 255.312 224.188 255.342C223.965 255.393 223.731 255.382 223.513 255.311C223.326 255.257 223.151 255.167 222.998 255.047C222.872 254.941 222.836 254.844 222.875 254.777C223.399 254.031 223.924 253.264 224.45 252.473C224.815 251.921 225.179 251.384 225.542 250.861C225.905 250.337 226.267 249.837 226.627 249.361C226.773 249.191 226.971 249.072 227.191 249.023C227.442 248.955 227.701 248.926 227.961 248.938ZM227.069 250.854L227.054 250.852C226.972 250.864 226.895 250.903 226.839 250.965C226.768 251.033 226.704 251.11 226.65 251.193C226.589 251.29 226.533 251.387 226.485 251.483C226.425 251.594 226.373 251.709 226.33 251.827L226.96 251.816C227.013 251.704 227.059 251.59 227.1 251.473C227.133 251.378 227.162 251.28 227.185 251.182C227.207 251.104 227.214 251.022 227.203 250.941C227.198 250.913 227.183 250.887 227.161 250.868C227.139 250.85 227.111 250.84 227.082 250.84L227.069 250.854Z" fill="#EB660C"/>
<path d="M229.02 253.234C229.268 252.589 229.518 251.971 229.771 251.378C229.821 251.268 229.885 251.127 229.953 250.965C230.086 250.675 230.221 250.373 230.359 250.059C230.496 249.745 230.601 249.523 230.667 249.385C230.7 249.317 230.747 249.258 230.806 249.211C230.865 249.164 230.934 249.131 231.008 249.115C231.183 249.07 231.365 249.06 231.544 249.085C231.739 249.107 231.93 249.149 232.116 249.21C232.269 249.256 232.416 249.322 232.553 249.405C232.667 249.474 232.704 249.537 232.702 249.588C232.574 249.871 232.41 250.241 232.184 250.696C231.958 251.151 231.779 251.559 231.576 252.004C231.372 252.449 231.205 252.833 231.073 253.177C230.977 253.371 230.915 253.58 230.89 253.795C230.954 253.852 231.03 253.894 231.113 253.917C231.195 253.94 231.282 253.943 231.366 253.927C231.656 253.922 231.951 253.903 232.255 253.868C232.483 253.846 232.693 253.828 232.888 253.816C232.961 253.821 233.004 253.897 233.021 254.053C233.037 254.24 233.023 254.427 232.979 254.609C232.925 254.823 232.827 255.023 232.692 255.198C232.563 255.372 232.37 255.49 232.155 255.526C231.279 255.671 230.39 255.715 229.504 255.657C229.29 255.658 229.077 255.616 228.879 255.535C228.754 255.478 228.649 255.386 228.576 255.271C228.521 255.179 228.489 255.075 228.482 254.968C228.479 254.848 228.493 254.729 228.525 254.613C228.614 254.341 228.775 253.879 229.02 253.234Z" fill="#EB660C"/>
<path d="M235.046 70.6739C235.046 70.6739 236.318 72.0426 236.851 70.208C237.384 68.3734 237.321 67.5068 236.139 67.0047C234.956 66.5026 234.019 69.3414 235.046 70.6739Z" fill="#2B2526"/>
<path d="M397.82 242.71C396.962 246.534 394.452 248.924 390.883 250.319C387.53 251.643 383.948 252.299 380.341 252.25C371.304 252.1 362.242 252.009 353.238 251.284C344.286 250.582 335.399 249.112 326.465 248.11C324.176 247.869 321.821 248.127 319.497 248.219C310.689 248.612 301.864 248.392 293.087 247.56C282.981 246.558 273.067 244.663 263.404 241.525C260.911 240.716 258.449 239.801 255.683 238.833C256.014 239.393 256.167 239.702 256.368 239.985C259.792 245.02 263.235 250.041 266.627 255.096C266.839 255.454 267.142 255.752 267.504 255.96C267.866 256.167 268.276 256.278 268.694 256.281C279.979 257.088 291.26 257.944 302.546 258.777C309.11 259.26 315.671 259.743 322.24 260.182C323.412 260.259 323.795 260.701 323.694 261.848C323.451 264.617 323.228 267.4 323.093 270.171C323.044 271.192 322.366 271.356 321.658 271.619C311.497 275.292 301.336 278.969 291.176 282.651C288.6 283.583 285.949 284.363 283.468 285.502C280.634 286.803 277.77 286.805 274.773 286.566C264.72 285.763 254.662 285.053 244.603 284.307L218.973 282.407C210.713 281.804 202.451 281.232 194.192 280.631C186.593 280.075 178.995 279.496 171.397 278.941C170.442 278.871 170.185 278.352 170.258 277.534C170.423 275.277 170.539 273.017 170.774 270.775C170.963 269.384 170.609 267.974 169.786 266.835C158.64 250.565 147.53 234.269 136.456 217.948C136.25 217.646 136.056 217.337 135.71 216.804L170.876 219.377L145.435 199.583L152.665 193.065L152.641 193.053L153.579 192.208L153.656 192.249L162.592 184.23L162.5 184.146L163.469 183.279L163.527 183.332L167.043 180.25C168.812 181.486 170.532 182.649 172.208 183.871C181.253 190.468 191.408 194.885 201.795 198.861C202.713 199.214 203.306 199.102 203.733 198.192C204.46 196.614 205.187 195.054 205.914 193.473C206.112 193.107 206.289 192.73 206.444 192.343C208.911 185.283 211.491 178.256 213.788 171.142C215.986 164.337 217.793 157.409 219.937 150.587C223.901 138.035 231.705 128.98 244.409 124.517C248.092 123.22 251.719 121.767 255.675 120.273L249.618 107.897C248.927 108.269 248.491 108.539 248.024 108.749C244.796 110.197 241.644 111.846 238.31 112.985C233.644 114.579 229.283 112.72 226.923 108.537C225.537 106.091 225.062 103.412 225.074 100.648C225.074 100.295 225.607 99.7474 225.995 99.6315C227.078 99.3081 228.229 99.2284 229.324 98.9411C233.685 97.7969 235.153 95.7789 235.027 91.0958C231.732 93.8018 228.088 95.354 223.654 94.9581C223.315 93.0439 222.871 91.161 222.685 89.2516C222.559 88.0036 222.179 87.5039 220.931 87.9215C219.477 87.8998 217.997 87.8756 216.528 87.8588C213.672 87.8322 212.686 86.6349 213.621 83.9023C214.529 81.247 215.782 78.7003 216.795 76.0739C217.56 74.0848 218.215 72.0499 218.975 69.8146C218.975 69.8001 219.731 68.8225 219.528 66.9179V63.3646H214.682C213.786 63.3646 213.136 63.1715 213.122 62.0417C213.095 60.1106 213.364 59.425 214.643 59.3864C216.196 59.3333 217.759 59.4975 219.37 59.5699V56.859C217.531 56.5838 215.758 56.538 214.127 56.0383C206.791 53.7861 202.66 45.5715 207.537 37.9627C210.566 33.2363 214.745 29.6105 219.099 26.1779C227.012 19.9331 235.638 14.7286 244.244 9.52178C249.688 6.22918 255.874 4.90635 262.132 4.09285C268.119 3.31315 274.101 3.28418 280.062 4.6046C286.335 5.99503 289.974 9.31419 290.599 17.3985C290.786 19.781 290.628 22.1877 290.628 24.6668C291.978 24.8672 293.623 25.0144 295.232 25.362C303.167 27.0904 306.488 32.6038 304.116 40.4298C303.046 43.93 301.546 47.2902 300.24 50.7132C297.09 57.2308 293.986 63.7701 290.773 70.266C288.181 75.4994 285.547 80.7063 284.2 86.4394C284.055 87.0573 283.846 87.767 284.011 88.3343C285.913 94.8809 287.888 101.411 289.846 107.984C290.425 108.032 290.887 108.054 291.345 108.112C293.381 108.38 294.459 109.386 294.936 111.363C295.178 112.317 295.341 113.323 295.799 114.171C296.664 115.781 297.957 117 299.961 116.843C313.37 115.795 325.564 120.437 337.732 124.975C345.272 127.788 352.158 131.836 357.944 137.528C362.499 141.967 365.808 147.516 367.543 153.624C368.372 156.521 369.438 159.333 370.398 162.184L371.333 164.523C374.289 172.033 377.262 179.538 380.196 187.057C384.395 197.828 388.587 208.61 392.771 219.404C392.868 219.616 392.974 219.824 393.09 220.024C394.447 224.562 395.879 229.081 397.137 233.648C397.958 236.601 398.513 239.632 397.82 242.71ZM290.34 109.249C291.045 111.245 291.689 113.075 292.414 115.131C293.291 113.635 294.25 112.476 293.504 110.859C292.944 109.599 291.808 109.374 290.354 109.249H290.34ZM257.727 123.097C258.212 124.826 258.546 126.718 258.406 128.485C258.093 132.379 257.437 136.246 256.921 140.125C256.678 142.04 256.01 144.029 256.308 145.861C256.913 149.588 258.045 153.23 258.852 156.482C259.271 152.62 259.637 148.359 260.223 144.12C260.737 140.417 261.769 136.862 264.005 133.74C266.721 129.955 270.174 127.993 274.966 128.968C275.989 129.169 277.025 129.296 278.065 129.347C278.477 129.371 279.035 129.253 279.306 128.98C283.183 125.05 287.059 121.101 290.873 117.094C291.214 116.737 291.338 115.887 291.183 115.387C288.491 106.724 285.695 98.089 283.044 89.4133C282.628 88.0495 281.969 87.4339 280.653 87.3615C278.497 87.2432 277.045 86.128 276.11 84.2475C275.754 83.5233 275.33 82.8474 275.008 82.116C273.147 77.9085 271.313 73.6865 269.435 69.3994C270.084 69.158 270.889 68.9697 271.56 68.5787C273.537 67.4393 274.014 65.5709 273.818 63.466C273.646 61.6048 273.091 59.8692 271.184 59.1209C269.277 58.3726 267.475 59.1209 266.317 60.5258C264.846 62.3049 263.295 62.0755 261.713 61.2065C260.419 60.4992 259.327 59.425 258.161 58.4908C257.73 58.1432 257.396 57.6604 256.95 57.3659C253.255 55.0051 252.346 53.0619 253.102 48.5599C249.119 48.5599 245.17 48.8351 241.271 48.4972C234.407 47.9057 227.487 47.1743 222.212 41.7381C220.516 48.642 220.415 55.5314 220.824 62.4642C220.923 64.1539 221.149 65.9547 220.679 67.5117C219.266 72.1827 217.544 76.7595 215.932 81.3677C215.545 82.4757 215.016 83.5402 214.721 84.6724C214.323 86.1738 214.665 86.5504 216.23 86.5625C218.653 86.5794 221.052 86.5625 223.484 86.5625C223.892 89.0416 224.282 91.4338 224.677 93.8405C228.069 93.7825 230.855 92.6963 233.399 90.7989C234.126 90.2582 235.056 90.0023 235.895 89.6161C236.016 90.5406 236.297 91.4772 236.231 92.3897C235.912 96.9038 234.269 98.859 229.876 100.061C228.708 100.382 227.514 100.599 225.999 100.937C226.511 102.975 226.775 105.01 227.528 106.847C229.428 111.462 233.498 113.222 238.301 111.766C242.962 110.354 247.132 107.94 251.183 105.343C256.923 101.659 262.045 97.3069 265.27 91.1562C266.256 91.2962 266.481 91.7476 265.91 92.4814C263.954 95.0088 262.224 97.7728 259.952 99.9815C257.127 102.729 253.846 105.012 250.706 107.54C250.752 107.626 250.907 107.909 251.062 108.191C253.703 112.964 256.233 117.813 257.727 123.097ZM246.243 129.246C248.828 130.595 250.568 132.69 251.842 135.131C253.095 137.528 254.146 140.026 255.334 142.587C255.976 137.813 256.567 133.147 257.245 128.493C257.601 126.047 256.671 123.925 255.954 121.589L246.243 129.246ZM279.652 276.913L172.129 268.988C171.915 271.962 171.712 274.765 171.503 277.678L279.032 285.603C279.243 282.646 279.442 279.856 279.65 276.913H279.652ZM322.177 261.93C308.662 266.803 295.148 271.683 281.634 276.57C281.353 276.672 280.992 277.019 280.968 277.295C280.726 279.899 280.544 282.509 280.336 285.275C286.771 282.943 293.005 280.689 299.234 278.422C306.37 275.844 313.512 273.285 320.638 270.678C321.123 270.497 321.821 270.014 321.867 269.611C322.157 267.093 322.286 264.542 322.472 261.942C322.374 261.928 322.275 261.924 322.177 261.93ZM268.243 257.43L280.6 275.571L319.429 261.505L319.364 261.196L268.243 257.43ZM245.872 226.858C245.504 226.405 244.971 226.114 244.389 226.049C237.545 225.511 230.697 225.04 223.85 224.541C215.637 223.942 207.423 223.338 199.209 222.73L173.861 220.859L148.663 218.991C145.271 218.749 141.879 218.508 138.244 218.238C138.583 218.754 138.729 218.988 138.889 219.22C149.671 235.052 160.461 250.877 171.259 266.695C171.7 267.255 172.335 267.632 173.04 267.75C174.862 267.991 176.713 268.059 178.552 268.189C182.983 268.508 187.415 268.819 191.846 269.155C196.372 269.488 200.896 269.848 205.414 270.178C209.797 270.499 214.185 270.784 218.568 271.11C224.318 271.54 230.065 272.015 235.815 272.438C241.564 272.86 247.323 273.22 253.075 273.645C260.051 274.164 267.024 274.731 273.997 275.267C275.616 275.39 277.239 275.462 279.042 275.571C278.838 275.221 278.758 275.062 278.657 274.914C267.736 258.894 256.808 242.875 245.872 226.858ZM396.592 237.479C395.727 233.388 394.857 229.24 393.401 225.337C387.889 210.552 382.09 195.887 376.489 181.124C372.879 171.613 369.322 162.082 365.935 152.492C363.172 144.676 358.31 138.578 351.572 133.861L346.12 130.433L346.135 130.448L345.49 130.206C344.695 129.724 343.93 129.176 343.099 128.758C336.152 125.239 328.803 122.815 321.292 120.809C314.952 119.119 308.589 117.586 301.941 117.994C301.231 118.038 300.518 118.016 299.809 118.052C297.931 118.144 296.547 117.256 295.411 115.88C295.064 115.457 294.757 115.006 294.369 114.482C291.016 119.573 286.63 123.607 282.497 127.887C280.294 130.17 278.165 131.172 274.937 130.301C270.874 129.193 267.545 130.783 265.292 134.262C264.153 136.024 262.966 137.926 262.522 139.922C261.587 144.149 260.918 148.429 260.519 152.738C260.15 156.675 260.291 160.656 260.153 164.617C260.153 164.948 259.729 165.264 259.501 165.583C259.259 165.303 258.869 165.052 258.81 164.74C258.084 160.849 257.565 156.919 256.717 153.059C255.433 147.21 253.858 141.429 250.955 136.123C249.366 133.226 247.459 130.588 243.851 129.938C243.808 129.938 243.788 129.798 243.733 129.663L251.353 123.602C251.263 123.443 251.171 123.286 251.081 123.119C246.635 125.05 241.976 126.624 237.787 129.011C229.307 133.839 223.957 141.429 221.251 150.652C217.374 163.895 213.497 177.133 208.651 190.07C207.501 193.15 206.037 196.119 204.642 199.1C204.113 200.227 203.248 200.768 201.858 200.254C191.987 196.606 182.385 192.416 173.645 186.475C171.465 184.991 169.313 183.46 167.089 181.908L147.357 199.578C155.229 205.613 162.982 211.525 170.675 217.506C172.521 218.94 174.384 219.746 176.817 219.889C186.361 220.449 195.89 221.277 205.427 221.991C214.207 222.648 222.99 223.271 231.771 223.954C232.675 224.024 233.045 223.751 233.249 222.916C234.143 219.259 235.236 215.643 235.945 211.952C236.585 208.635 236.82 205.241 237.251 201.714L242.063 224.596C242.897 224.676 243.692 224.837 244.486 224.806C245.657 224.751 246.383 225.18 247.028 226.177C248.966 229.19 251.035 232.135 253.063 235.109C253.434 235.654 253.744 236.412 254.275 236.646C257.005 237.853 259.797 238.932 262.833 240.159C260.931 222.078 259.729 204.374 259.024 186.678C260.349 186.294 260.334 187.105 260.368 187.82C260.594 192.72 260.773 197.623 261.04 202.523C261.299 207.278 261.58 212.034 261.965 216.78C262.549 223.971 263.259 231.15 263.853 238.336C263.974 239.784 264.286 240.839 265.985 241.047C266.908 241.16 267.792 241.578 268.703 241.829C278.198 244.422 287.931 246.058 297.754 246.71C305.173 247.222 312.589 247.434 320.384 246.865L316.241 245.658C316.51 243.589 316.769 241.592 317.04 239.514C316.582 239.335 316.153 239.159 315.72 239C308.228 236.238 300.712 233.532 293.247 230.698C287.658 228.579 283.255 224.905 280.951 219.387C278.887 214.453 277.45 209.248 275.829 204.145C275.47 202.973 275.306 201.75 275.344 200.524C275.381 199.076 276.396 198.651 277.581 199.496C278.247 199.945 278.834 200.503 279.316 201.145C281.108 203.691 282.826 206.289 284.573 208.869C284.929 209.393 285.3 209.914 285.937 210.846C286.473 209.564 286.984 208.724 287.18 207.817C288.905 199.851 288.51 191.771 288.171 183.711C288.072 181.365 287.568 179.035 287.488 176.691C287.425 174.76 288.942 174.036 290.606 175.002C291.095 175.328 291.566 175.68 292.016 176.057C291.964 175.829 291.941 175.595 291.949 175.361C292.147 174.492 292.111 173.261 292.675 172.87C293.24 172.479 294.478 172.701 295.268 173.025C296.14 173.38 296.84 174.154 297.63 174.76C297.921 172.001 299.326 171.328 301.599 172.94C302.66 173.693 303.537 174.717 304.492 175.627C305.703 174.731 306.476 174.678 307.908 175.6C310.116 177.017 311.438 179.115 312.245 181.548C313.66 185.811 313.99 190.239 313.927 194.673C313.825 202.079 313.525 209.482 313.372 216.881C313.299 220.384 315.62 222.525 319.313 222.469C319.605 220.501 319.899 218.524 320.195 216.538L337.584 219.353C334.861 207.023 332.196 195.013 329.513 183.004C329.993 183.253 330.38 183.648 330.618 184.131C335.881 193.465 341.136 202.799 346.384 212.133C347.45 214.022 348.415 215.967 349.275 217.958C350.084 219.85 349.636 220.562 347.656 220.936C347.011 221.089 346.348 221.148 345.686 221.113C340.138 220.536 334.587 219.961 329.051 219.285C326.485 218.974 323.943 218.44 321.246 217.982C320.035 226.993 318.824 235.874 317.612 245.04C323.185 246.078 328.537 247.287 333.952 248.028C340.605 248.941 347.288 249.634 353.999 250.109C361.694 250.652 369.411 250.975 377.124 251.142C381.407 251.234 385.718 250.787 389.807 249.349C395.38 247.381 397.803 243.246 396.592 237.474V237.479ZM289.424 201.029C289.182 203.926 288.566 206.796 287.895 209.625C287.718 210.366 286.798 211.206 286.032 211.469C284.925 211.85 284.336 210.817 283.774 209.953C282.276 207.609 280.779 205.263 279.199 202.974C278.552 202.038 277.692 201.246 276.929 200.389L276.546 200.568C276.653 201.427 276.633 202.323 276.885 203.136C278.368 207.94 279.752 212.792 281.489 217.501C283.563 223.152 287.66 227.051 293.216 229.313C297.979 231.244 302.825 232.982 307.649 234.771C310.821 235.946 314.016 237.057 317.27 238.223C317.917 233.395 318.542 228.746 319.175 224.043C318.08 223.698 317.077 223.44 316.122 223.063C313.559 222.057 311.945 220.357 312.11 217.407C312.165 216.418 312.11 215.423 312.175 214.436C312.66 206.192 313.229 197.939 312.468 189.695C312.178 186.659 311.518 183.668 310.503 180.79C309.956 179.224 308.412 177.973 307.21 176.687C306.922 176.378 306.2 176.474 305.677 176.383C305.643 176.865 305.51 177.375 305.602 177.831C305.757 178.608 306.12 179.342 306.285 180.117C307.407 185.355 307.635 190.668 307.518 196.003C307.479 197.825 307.336 199.643 307.242 201.451C305.754 201.618 306.031 200.778 306.094 200.041C306.559 193.669 306.479 187.318 305.124 181.044C304.509 178.176 303.368 175.552 300.763 173.887C300.346 173.621 299.729 173.669 299.203 173.573C299.169 174.055 299.033 174.562 299.12 175.021C299.828 178.76 300.768 182.468 301.265 186.234C301.91 191.383 301.936 196.59 301.342 201.746C300.409 201.97 300.153 201.731 300.216 200.763C300.63 194.535 300.652 188.312 299.455 182.147C298.917 179.373 298.016 176.749 295.757 174.859C295.098 174.307 294.231 174 293.373 173.536C294.1 178.76 295.118 183.605 295.343 188.486C295.571 193.449 295.011 198.446 294.796 203.428L294.134 203.629C293.918 203.247 293.623 202.888 293.511 202.477C293.417 202.134 293.545 201.731 293.557 201.355C293.725 196.044 294.006 190.712 294.008 185.389C294.008 182.548 293.281 179.772 291.442 177.462C290.873 176.778 290.085 176.255 289.405 175.639L288.874 175.818C288.83 176.542 288.702 177.297 288.76 178.026C288.835 179.009 289.104 179.974 289.206 180.957C289.897 187.626 289.966 194.345 289.412 201.026L289.424 201.029Z" fill="#2B2526"/>
<path d="M149.834 195.618C149.834 195.618 131.42 188.168 122.608 178.655C122.608 178.655 115.261 172.799 115.261 166.397C115.261 159.995 117.282 158.895 123.892 161.456C130.501 164.017 137.664 167.86 134.911 170.238C132.159 172.615 121.874 167.676 121.874 167.676" stroke="black" stroke-width="1.38669" stroke-miterlimit="10"/>
<path d="M135.711 169.261C135.711 169.261 139.99 170.968 141.093 168.406C142.195 165.845 133.441 160.175 133.441 160.175C133.441 160.175 126.952 156.515 124.811 156.272C122.669 156.028 119.056 156.03 119.965 160.175" stroke="black" stroke-width="1.38669" stroke-miterlimit="10"/>
<path d="M141.337 167.464C141.337 167.464 147.305 169.414 146.021 165.115C144.736 160.816 132.166 153.132 132.166 153.132C132.166 153.132 121.607 147.899 122.618 156.186" stroke="black" stroke-width="1.38669" stroke-miterlimit="10"/>
<path d="M144.253 162.563C144.253 162.563 150.221 164.516 148.937 160.216C147.653 155.917 135.073 148.231 135.073 148.231C135.073 148.231 124.514 142.998 125.524 151.287" stroke="black" stroke-width="1.38669" stroke-miterlimit="10"/>
<path d="M165.117 181.918C165.117 181.918 162.871 167.843 161.035 163.003C159.198 158.163 153.078 151.577 152.588 145.844C152.099 140.111 151.954 137.673 149.821 139.136C147.689 140.599 145.177 143.16 146.187 149.757C147.197 156.355 148.198 158.812 148.198 158.812" stroke="black" stroke-width="1.38669" stroke-miterlimit="10"/>
<path d="M141.954 134.88C138.073 134.776 135.217 123.974 135.574 110.752C135.93 97.5303 139.365 86.8963 143.246 87.0002C147.126 87.1042 149.983 97.9067 149.626 111.128C149.269 124.35 145.834 134.984 141.954 134.88Z" stroke="black" stroke-width="1.38669" stroke-miterlimit="10"/>
<path d="M141.647 86.7324L134.902 88.3787C134.829 88.3956 132.585 90.235 132.546 90.3098C131.684 91.8716 123.046 108.204 131.597 131.764C131.61 131.806 131.633 131.844 131.663 131.876C131.693 131.908 131.73 131.932 131.771 131.948L141.252 135.272C141.494 135.356 141.693 135.059 141.569 134.806C139.609 130.77 130.623 109.923 141.938 87.2128C142.059 86.969 141.879 86.6769 141.647 86.7324Z" fill="black"/>
<path d="M130.508 170.67C130.508 170.67 126.278 188.349 127.749 189.448C129.219 190.546 132.134 193.655 137.285 190.546L139.318 170.67V169.75" fill="black"/>
<path d="M132.689 132.267L131.031 146.832C131.031 146.832 138.155 148.911 140.801 151.503L141.528 134.381L132.689 132.267Z" fill="black"/>
<path d="M63.2962 125.38C69.8962 132.479 90.0306 212.076 90.0306 212.076L76.5544 219.055C76.5544 219.055 41.4973 160.155 41.0321 146.18C40.5669 132.206 56.6962 118.28 63.2962 125.38Z" fill="#ED6F25" stroke="black" stroke-width="1.10935" stroke-miterlimit="10"/>
<path d="M101.12 229.255C105.319 236.116 98.1783 237.902 98.1783 237.902C98.1783 237.902 78.0124 244.606 81.9666 232.048C87.7646 213.637 96.9208 222.397 101.12 229.255Z" fill="#ED6F25" stroke="black" stroke-width="1.10935" stroke-miterlimit="10"/>
<path d="M147.019 109.075C147.019 109.075 146.162 99.0526 143.613 96.7135C141.064 94.3744 140.705 91.3666 143.451 91.6442C146.196 91.9218 148.999 105.894 147.019 109.075Z" stroke="black" stroke-width="0.832015" stroke-miterlimit="10"/>
<path d="M387.637 114.247C387.806 116.316 388.572 117.001 390.561 116.859L401.784 116.058C403.48 115.937 404.389 115.036 404.265 113.595C404.147 112.2 403.054 111.459 401.358 111.572C397.667 111.819 393.977 112.06 390.288 112.297C388.991 112.379 388.022 112.905 387.637 114.247Z" fill="#EC6A14"/>
<path d="M355.693 124.052C356.796 125.17 357.997 125.185 359.272 124.369L365.145 114.286C365.367 113.941 365.567 113.583 365.743 113.214C366.255 112.007 365.966 110.967 364.852 110.288C363.698 109.588 362.543 109.878 361.884 110.959C359.725 114.498 357.634 118.08 355.647 121.718C355.315 122.317 355.662 123.268 355.693 124.052Z" fill="#EC6913"/>
<path d="M392.829 102.771C394.939 102.831 396.187 101.05 395.252 99.5871C393.006 96.0241 390.626 92.5433 388.225 89.0817C387.515 88.0582 386.374 87.9544 385.318 88.5989C384.186 89.2941 383.849 90.4552 384.545 91.5366C386.822 95.0779 389.202 98.5588 391.603 102.018C391.932 102.457 392.615 102.641 392.829 102.771Z" fill="#EC6911"/>
<path d="M395.502 134.705C396.044 134.087 396.919 133.474 397.222 132.651C397.646 131.507 396.938 130.594 395.809 130.124C392.495 128.74 389.175 127.364 385.849 125.996C383.632 125.083 382.316 125.325 381.73 126.72C381.117 128.183 381.822 129.247 384.061 130.172C387.194 131.471 390.331 132.758 393.471 134.034C393.999 134.225 394.542 134.379 395.502 134.705Z" fill="#EC6A14"/>
<path d="M423.242 103.742C422.929 103.984 422.115 104.338 421.737 104.949C419.673 108.312 417.701 111.728 415.736 115.151C415.009 116.442 415.302 117.731 416.383 118.39C417.546 119.097 418.844 118.745 419.651 117.393C421.648 114.052 423.614 110.692 425.551 107.312C426.525 105.615 425.541 103.764 423.242 103.742Z" fill="#EC6913"/>
<path d="M157.48 41.8275C159.561 41.7406 160.281 41.0068 160.218 39.0201L159.869 27.817C159.816 26.1273 158.948 25.181 157.499 25.2462C156.094 25.309 155.319 26.3663 155.353 28.0584C155.45 31.7437 155.542 35.4274 155.631 39.1094C155.66 40.3985 156.15 41.393 157.48 41.8275Z" fill="#EC6A14"/>
<path d="M174.366 71.3312C175.532 70.2788 175.595 69.0839 174.827 67.7828L164.953 61.5283C164.617 61.2935 164.265 61.0799 163.902 60.8886C162.712 60.3309 161.658 60.5748 160.931 61.6586C160.204 62.7425 160.427 63.9398 161.486 64.6398C164.946 66.9306 168.455 69.1587 172.023 71.283C172.61 71.6306 173.579 71.3312 174.366 71.3312Z" fill="#EC6913"/>
<path d="M131.439 46.3812C130.955 46.8206 129.985 47.3082 129.804 48.0082C129.622 48.7083 129.884 50.0528 130.434 50.4221C133.906 52.8144 137.484 55.0545 141.095 57.2512C142.122 57.8764 143.229 57.5601 143.944 56.5125C144.659 55.4648 144.533 54.2772 143.546 53.6158C140.004 51.2405 136.363 49.0003 132.748 46.7288C132.496 46.584 132.166 46.5743 131.439 46.3812Z" fill="#EC6911"/>
<path d="M186.656 32.1398C186.06 31.575 185.481 30.6794 184.666 30.3439C183.535 29.8756 182.592 30.5442 182.074 31.6474C180.552 34.8949 179.038 38.1449 177.531 41.3973C176.528 43.5698 176.717 44.8854 178.091 45.5275C179.544 46.1962 180.63 45.5275 181.648 43.355C183.074 40.2973 184.492 37.2268 185.902 34.1434C186.115 33.6099 186.292 33.0764 186.656 32.1398Z" fill="#EC6A14"/>
<path d="M156.728 3.26851C156.959 3.58956 157.281 4.41271 157.877 4.81342C161.167 7.00528 164.513 9.10782 167.867 11.2007C169.131 11.978 170.437 11.7366 171.14 10.6889C171.898 9.55922 171.595 8.25087 170.273 7.39392C167.002 5.27127 163.711 3.17919 160.402 1.11769C158.739 0.0748746 156.842 0.980101 156.728 3.26851Z" fill="#EC6913"/>
</svg>
