<svg width="1920" height="79" viewBox="0 0 1920 79" fill="none" xmlns="http://www.w3.org/2000/svg">
<path d="M26.3474 75.6016H8.85158L-21.332 39.0371L8.85158 2.51855H26.3474L-3.70268 39.0371L26.3474 75.6016Z" fill="#000306" fill-opacity="0.02"/>
<path d="M39.1328 76.6562V58.6487L74.6141 27.6284L110.095 58.6487V76.6562L74.6141 45.7275L39.1328 76.6562Z" fill="#000306" fill-opacity="0.02"/>
<path d="M109.82 17.5879H38.8574V3.56641H109.82V17.5879Z" fill="#000306" fill-opacity="0.02"/>
<path d="M209.141 75.6016H191.645L161.506 39.083L191.645 2.51855H209.141L179.135 39.083L209.141 75.6016Z" fill="#000306" fill-opacity="0.02"/>
<path d="M151.8 75.6016H138.178V2.56396H151.8V75.6016Z" fill="#000306" fill-opacity="0.02"/>
<path d="M221.924 76.6562V58.649L257.45 27.6289L292.931 58.649V76.6562L257.45 45.7736L221.924 76.6562Z" fill="#000306" fill-opacity="0.02"/>
<path d="M292.611 17.5879H221.648V3.56641H292.611V17.5879Z" fill="#000306" fill-opacity="0.02"/>
<path d="M387.483 75.6016H369.987L339.848 39.0371L369.987 2.51855H387.483L357.477 39.0371L387.483 75.6016Z" fill="#000306" fill-opacity="0.02"/>
<path d="M330.144 75.6016H316.521V2.56445H330.144V75.6016Z" fill="#000306" fill-opacity="0.02"/>
<path d="M400.312 76.6562V58.6487L435.794 27.6284L471.275 58.6487V76.6562L435.794 45.7275L400.312 76.6562Z" fill="#000306" fill-opacity="0.02"/>
<path d="M471 17.5879H400.037V3.56641H471V17.5879Z" fill="#000306" fill-opacity="0.02"/>
<path d="M571.613 75.6016H554.117L523.934 39.083L554.117 2.51855H571.613L541.563 39.083L571.613 75.6016Z" fill="#000306" fill-opacity="0.02"/>
<path d="M514.23 75.6016H500.607V2.56396H514.23V75.6016Z" fill="#000306" fill-opacity="0.02"/>
<path d="M584.398 76.6562V58.649L619.88 27.6289L655.361 58.649V76.6562L619.88 45.7736L584.398 76.6562Z" fill="#000306" fill-opacity="0.02"/>
<path d="M655.086 17.5879H584.123V3.56641H655.086V17.5879Z" fill="#000306" fill-opacity="0.02"/>
<path d="M749.953 75.6016H732.457L702.318 39.0371L732.457 2.51855H749.953L719.903 39.0371L749.953 75.6016Z" fill="#000306" fill-opacity="0.02"/>
<path d="M692.613 75.6016H678.99V2.56445H692.613V75.6016Z" fill="#000306" fill-opacity="0.02"/>
<path d="M762.738 76.6562V58.6487L798.22 27.6284L833.745 58.6487V76.6562L798.22 45.7275L762.738 76.6562Z" fill="#000306" fill-opacity="0.02"/>
<path d="M833.425 17.5879H762.463V3.56641H833.425V17.5879Z" fill="#000306" fill-opacity="0.02"/>
<path d="M928.248 78.125H910.752L880.613 41.6059L910.752 5.04102H928.248L898.198 41.6059L928.248 78.125Z" fill="#000306" fill-opacity="0.02"/>
<path d="M870.867 78.125H857.244V5.08643H870.867V78.125Z" fill="#000306" fill-opacity="0.02"/>
<path d="M941.037 76.6562V58.649L976.518 27.6289L1012 58.649V76.6562L976.518 45.7736L941.037 76.6562Z" fill="#000306" fill-opacity="0.02"/>
<path d="M1011.72 17.5879H940.762V3.56641H1011.72V17.5879Z" fill="#000306" fill-opacity="0.02"/>
<path d="M1106.59 73.084H1089.09L1058.96 36.5191L1089.09 0H1106.59L1076.58 36.5191L1106.59 73.084Z" fill="#000306" fill-opacity="0.02"/>
<path d="M1049.25 73.084H1035.63V0.0463867H1049.25V73.084Z" fill="#000306" fill-opacity="0.02"/>
<path d="M1125.88 76.6562V58.649L1161.36 27.6289L1196.84 58.649V76.6562L1161.36 45.7736L1125.88 76.6562Z" fill="#000306" fill-opacity="0.02"/>
<path d="M1195.82 17.5879H1124.86V3.56641H1195.82V17.5879Z" fill="#000306" fill-opacity="0.02"/>
<path d="M1284.32 75.6016H1266.83L1236.64 39.0371L1266.83 2.51855H1284.32L1254.27 39.0371L1284.32 75.6016Z" fill="#000306" fill-opacity="0.02"/>
<path d="M1226.94 75.6016H1213.32V2.56445H1226.94V75.6016Z" fill="#000306" fill-opacity="0.02"/>
<path d="M1297.11 76.6562V58.6487L1332.59 27.6284L1368.07 58.6487V76.6562L1332.59 45.7275L1297.11 76.6562Z" fill="#000306" fill-opacity="0.02"/>
<path d="M1367.79 17.5879H1296.83V3.56641H1367.79V17.5879Z" fill="#000306" fill-opacity="0.02"/>
<path d="M1467.12 75.6016H1449.62L1419.48 39.083L1449.62 2.51855H1467.12L1437.11 39.083L1467.12 75.6016Z" fill="#000306" fill-opacity="0.02"/>
<path d="M1409.78 75.6016H1396.15V2.56396H1409.78V75.6016Z" fill="#000306" fill-opacity="0.02"/>
<path d="M1479.9 76.6562V58.649L1515.42 27.6289L1550.91 58.649V76.6562L1515.42 45.7736L1479.9 76.6562Z" fill="#000306" fill-opacity="0.02"/>
<path d="M1550.59 17.5879H1479.62V3.56641H1550.59V17.5879Z" fill="#000306" fill-opacity="0.02"/>
<path d="M1645.46 75.6016H1627.96L1597.82 39.0371L1627.96 2.51855H1645.46L1615.45 39.0371L1645.46 75.6016Z" fill="#000306" fill-opacity="0.02"/>
<path d="M1588.12 75.6016H1574.5V2.56445H1588.12V75.6016Z" fill="#000306" fill-opacity="0.02"/>
<path d="M1658.29 76.6562V58.6487L1693.77 27.6284L1729.25 58.6487V76.6562L1693.77 45.7275L1658.29 76.6562Z" fill="#000306" fill-opacity="0.02"/>
<path d="M1728.97 17.5879H1658.01V3.56641H1728.97V17.5879Z" fill="#000306" fill-opacity="0.02"/>
<path d="M1829.59 75.6016H1812.09L1781.91 39.083L1812.09 2.51855H1829.59L1799.54 39.083L1829.59 75.6016Z" fill="#000306" fill-opacity="0.02"/>
<path d="M1772.2 75.6016H1758.58V2.56396H1772.2V75.6016Z" fill="#000306" fill-opacity="0.02"/>
<path d="M1842.37 76.6562V58.649L1877.85 27.6289L1913.34 58.649V76.6562L1877.85 45.7736L1842.37 76.6562Z" fill="#000306" fill-opacity="0.02"/>
<path d="M1913.06 17.5879H1842.1V3.56641H1913.06V17.5879Z" fill="#000306" fill-opacity="0.02"/>
</svg>
