<svg width="1867" height="143" viewBox="0 0 1867 143" fill="none" xmlns="http://www.w3.org/2000/svg">
<path d="M277.48 94.2158L277.478 94.2175C275.943 95.2623 274.891 96.8648 274.555 98.6735C274.22 100.482 274.627 102.348 275.688 103.86L294.491 131.05C295.164 132.024 295.555 133.161 295.621 134.337C295.687 135.513 295.427 136.685 294.866 137.727C294.306 138.769 293.468 139.642 292.441 140.25C291.414 140.859 290.238 141.182 289.038 141.182H253.874C252.794 141.183 251.731 140.922 250.777 140.424C249.824 139.926 249.009 139.206 248.406 138.326L248.406 138.326L228.041 108.693L227.835 108.835L228.041 108.693C227.39 107.747 226.514 106.972 225.488 106.436C224.463 105.901 223.321 105.621 222.161 105.621H219.515C217.633 105.621 215.828 106.358 214.496 107.668C213.164 108.979 212.415 110.758 212.415 112.614V134.692C212.415 136.412 211.721 138.062 210.484 139.28C209.247 140.497 207.568 141.182 205.816 141.182H171.054C169.303 141.182 167.624 140.497 166.387 139.28C165.149 138.062 164.455 136.412 164.455 134.692V6.73678C164.457 5.01873 165.151 3.37063 166.386 2.15425C167.622 0.93774 169.299 0.25247 171.048 0.25H233.4C253.38 0.25 269.694 5.39277 281.007 14.5913C292.316 23.7854 298.65 37.048 298.65 53.3423C298.65 71.2519 291.035 85.2344 277.48 94.2158ZM230.32 36.5214H214.851C214.205 36.5214 213.584 36.774 213.126 37.2249C212.667 37.676 212.409 38.2886 212.409 38.9283V67.7499C212.409 68.0666 212.472 68.38 212.595 68.6723C212.718 68.9646 212.899 69.2299 213.126 69.4533C213.353 69.6766 213.622 69.8535 213.918 69.9741C214.214 70.0947 214.531 70.1568 214.851 70.1568H230.32C237.027 70.1568 242.022 68.5827 245.343 65.6742C248.669 62.761 250.278 58.542 250.278 53.3359C250.278 48.1297 248.666 43.9122 245.339 41.0007C242.017 38.0939 237.022 36.5214 230.32 36.5214Z" stroke="#6B6B6B" stroke-width="0.5"/>
<path d="M350.768 141.223H350.768C352.313 141.225 353.821 140.766 355.095 139.908C356.368 139.049 357.347 137.832 357.903 136.416L358.135 136.507L357.903 136.416L363.664 121.749C364.257 120.237 365.301 118.939 366.658 118.024C368.014 117.108 369.621 116.619 371.265 116.62M350.768 141.223L371.264 116.87M350.768 141.223H318.967H318.967M350.768 141.223H318.967M371.265 116.62L371.264 116.87M371.265 116.62H371.264V116.87M371.265 116.62H415.038M371.264 116.87H415.038M415.038 116.62L415.038 116.87M415.038 116.62H415.038V116.87M415.038 116.62C416.681 116.619 418.286 117.107 419.642 118.02C420.999 118.933 422.044 120.229 422.638 121.739L422.639 121.739L428.397 136.416L428.397 136.416C428.952 137.832 429.93 139.05 431.203 139.91C432.476 140.77 433.984 141.23 435.528 141.23H468.163H468.163C469.432 141.232 470.681 140.924 471.798 140.331C472.915 139.739 473.864 138.883 474.558 137.84C475.253 136.797 475.673 135.6 475.779 134.357C475.885 133.115 475.674 131.866 475.166 130.724L420.771 8.54259C419.713 6.16995 417.976 4.15151 415.77 2.73474C413.564 1.31794 410.985 0.564452 408.35 0.5669L408.35 0.566901L378.767 0.566901C376.135 0.56634 373.56 1.32004 371.356 2.73554C369.153 4.15097 367.417 6.16671 366.359 8.53615L415.038 116.87M318.967 141.223C317.698 141.225 316.449 140.916 315.333 140.324M318.967 141.223L315.333 140.324M406.17 79.5169C406.307 79.8809 406.356 80.2722 406.311 80.6587C406.264 81.0617 406.117 81.4468 405.884 81.7801C405.65 82.1135 405.337 82.3847 404.972 82.5702C404.608 82.7554 404.204 82.8497 403.794 82.8448C403.794 82.8448 403.793 82.8448 403.792 82.8448L403.796 82.5948L406.17 79.5169ZM406.17 79.5169V79.5132L406.152 79.469L395.484 52.3903C395.484 52.3896 395.484 52.3889 395.483 52.3881C395.306 51.9146 394.986 51.5066 394.566 51.2186C394.146 50.9302 393.647 50.7758 393.135 50.7758C392.624 50.7758 392.125 50.9302 391.704 51.2186C391.285 51.5066 390.965 51.9147 390.787 52.3883C390.787 52.3889 390.787 52.3896 390.786 52.3903L380.135 79.4743C380.135 79.4743 380.135 79.4743 380.135 79.4744C379.984 79.8503 379.93 80.257 379.977 80.6586C380.024 81.0602 380.17 81.4441 380.402 81.7767C380.634 82.1093 380.946 82.3803 381.308 82.5664C381.671 82.7523 382.074 82.8478 382.482 82.8448M406.17 79.5169L382.482 82.8448M382.482 82.8448C382.483 82.8448 382.483 82.8448 382.483 82.8448L382.482 82.8448ZM428.164 136.507C428.738 137.971 429.748 139.23 431.063 140.117C432.377 141.005 433.934 141.48 435.528 141.48H468.163C469.472 141.482 470.762 141.164 471.915 140.552C473.068 139.941 474.048 139.056 474.767 137.978C475.485 136.9 475.918 135.663 476.028 134.379L428.164 136.507ZM428.164 136.507L422.406 121.83L428.164 136.507ZM315.333 140.324C314.217 139.731 313.268 138.875 312.574 137.832M315.333 140.324L312.574 137.832M312.574 137.832C311.879 136.789 311.46 135.592 311.353 134.351M312.574 137.832L311.353 134.351M311.353 134.351C311.247 133.109 311.456 131.86 311.964 130.718L311.353 134.351ZM311.964 130.718L366.359 8.53638L311.964 130.718Z" stroke="#6B6B6B" stroke-width="0.5"/>
<path d="M629.331 141.23H629.331H597.573C596.803 141.23 596.044 141.064 595.347 140.744C594.65 140.424 594.033 139.958 593.54 139.379L550.3 88.612C546.856 84.5684 540.133 86.9488 540.133 92.258V136.073C540.132 136.75 539.996 137.421 539.732 138.047C539.467 138.673 539.08 139.241 538.592 139.72C538.104 140.199 537.525 140.579 536.887 140.838C536.25 141.098 535.566 141.23 534.876 141.23H534.876H498.656C497.263 141.231 495.927 140.687 494.942 139.719C493.957 138.752 493.404 137.44 493.402 136.073V5.72348C493.404 4.35612 493.957 3.04453 494.942 2.07725C495.927 1.10981 497.263 0.566095 498.656 0.566898H498.656H530.418V0.316898L530.418 0.566898C531.187 0.566831 531.947 0.732609 532.644 1.05242C533.34 1.37224 533.957 1.83824 534.451 2.41738L577.69 53.1846C581.134 57.231 587.858 54.8483 587.858 49.5544V5.72363C587.858 5.04622 587.995 4.37549 588.259 3.7497C588.523 3.12391 588.91 2.55521 589.398 2.07618C589.886 1.59714 590.466 1.21715 591.103 0.958113C591.741 0.69907 592.424 0.566103 593.114 0.566898H593.115L629.331 0.566898L629.331 0.566898C630.021 0.566103 630.705 0.699089 631.342 0.958162C631.98 1.21723 632.559 1.59726 633.046 2.07632C633.534 2.55538 633.921 3.12409 634.185 3.74984C634.449 4.37558 634.585 5.04623 634.585 5.72334V136.073C634.585 136.75 634.449 137.421 634.185 138.047C633.921 138.673 633.534 139.241 633.046 139.72C632.559 140.199 631.98 140.579 631.342 140.838C630.705 141.098 630.021 141.23 629.331 141.23Z" stroke="#6B6B6B" stroke-width="0.5"/>
<path d="M711.578 43.1406V43.1403C711.578 42.3554 711.736 41.5784 712.042 40.8537C712.348 40.129 712.796 39.4711 713.36 38.9172C713.924 38.3633 714.594 37.9245 715.33 37.6254C716.066 37.3263 716.854 37.1729 717.65 37.1738M711.578 43.1406L732.153 37.4238C752.486 37.4238 766.448 49.3199 766.448 70.8981C766.448 92.4763 752.486 104.372 732.153 104.372H717.65M711.578 43.1406V98.6556V98.6559C711.578 99.4408 711.736 100.218 712.042 100.942C712.348 101.667 712.796 102.325 713.36 102.879C713.924 103.433 714.594 103.872 715.33 104.171C716.066 104.47 716.854 104.623 717.65 104.622M711.578 43.1406L717.65 104.372M717.65 37.1738L717.65 37.4238V37.1738H717.65ZM717.65 37.1738H732.153C742.367 37.1738 751.008 40.1623 757.097 45.887C763.188 51.6138 766.698 60.053 766.698 70.8981C766.698 81.7432 763.188 90.1824 757.097 95.9092C751.008 101.634 742.367 104.622 732.153 104.622H717.65M717.65 104.622L717.65 104.372M717.65 104.622H717.65V104.372M669.19 0.582523H669.19H734.207C758.186 0.582523 778.402 7.2757 792.618 19.4041C806.83 31.5288 815.067 49.1027 815.067 70.9139C815.067 92.7252 806.831 110.299 792.619 122.424C778.403 134.552 758.188 141.245 734.207 141.245H669.19H669.19C668.457 141.246 667.731 141.105 667.054 140.829C666.377 140.553 665.762 140.149 665.245 139.64C664.728 139.13 664.318 138.526 664.038 137.86C663.759 137.195 663.616 136.483 663.617 135.763V135.763V6.03401C663.623 4.58655 664.212 3.19957 665.256 2.17735C666.3 1.15488 667.715 0.580906 669.19 0.582523Z" stroke="#6B6B6B" stroke-width="0.5"/>
<mask id="path-5-inside-1_458_664" fill="white">
<path d="M873.349 138.005C870.515 139.565 867.511 140.806 864.394 141.704C861.515 142.547 858.528 142.983 855.524 143C852.149 143.015 848.791 142.531 845.562 141.565C842.552 140.678 839.721 139.285 837.194 137.448C834.84 135.737 832.875 133.562 831.422 131.062C829.972 128.533 829.229 125.671 829.269 122.768C829.222 120.552 829.654 118.351 830.537 116.313C831.337 114.521 832.424 112.867 833.756 111.413C835.064 110.012 836.537 108.768 838.143 107.707C839.739 106.637 841.288 105.662 842.788 104.784C841.901 104.069 841.069 103.29 840.299 102.453C839.484 101.566 838.769 100.593 838.169 99.5518C837.522 98.4328 837.023 97.2377 836.682 95.995C836.301 94.5732 836.117 93.1073 836.135 91.6369C836.094 89.2937 836.647 86.9773 837.744 84.8971C838.807 82.9255 840.304 81.2117 842.125 79.8802C844.078 78.4636 846.276 77.4087 848.613 76.7669C851.207 76.0451 853.891 75.6889 856.586 75.709C859.583 75.6766 862.571 76.0409 865.469 76.7922C867.933 77.4183 870.256 78.4926 872.319 79.9594C874.197 81.3352 875.709 83.138 876.725 85.2138C877.638 87.1233 878.155 89.1929 878.244 91.3012C878.417 94.7719 877.362 98.1942 875.261 100.987L875.216 101.05C874.232 102.365 873.107 103.572 871.862 104.651C871.171 105.259 870.454 105.831 869.712 106.368C869.474 106.54 869.275 106.758 869.127 107.009C868.979 107.261 868.885 107.54 868.853 107.828C868.82 108.117 868.848 108.409 868.935 108.686C869.023 108.964 869.168 109.22 869.361 109.44L873.358 114.02C873.605 114.295 873.919 114.504 874.271 114.626C874.622 114.748 875 114.778 875.368 114.714C875.735 114.651 876.079 114.495 876.368 114.263C876.656 114.03 876.879 113.728 877.015 113.386C877.198 112.946 877.366 112.506 877.517 112.059L877.568 111.913C878.005 110.633 878.84 109.52 879.956 108.733C881.072 107.946 882.411 107.525 883.784 107.53L894.231 107.562C894.189 111.353 893.366 115.096 891.811 118.565C890.507 121.465 888.841 124.194 886.851 126.689C886.535 127.075 886.365 127.557 886.372 128.054C886.378 128.55 886.56 129.028 886.886 129.406L894.289 137.802C894.564 138.123 894.741 138.514 894.799 138.93C894.857 139.346 894.793 139.769 894.616 140.151C894.439 140.533 894.156 140.857 893.799 141.087C893.442 141.316 893.026 141.442 892.6 141.448H881.238C879.754 141.448 878.286 141.142 876.929 140.549C875.573 139.957 874.357 139.091 873.362 138.008L873.349 138.005ZM854.973 128.63C856.742 128.629 858.503 128.393 860.207 127.927C860.55 127.826 860.861 127.641 861.112 127.39C861.363 127.138 861.545 126.829 861.641 126.489C861.738 126.15 861.745 125.793 861.663 125.45C861.581 125.107 861.413 124.79 861.173 124.528L853.657 116.256C853.304 115.866 852.818 115.619 852.291 115.56C851.764 115.502 851.234 115.637 850.802 115.939C850.631 116.059 850.458 116.183 850.29 116.306C849.64 116.773 849.053 117.319 848.543 117.931C848.049 118.527 847.653 119.195 847.368 119.911C847.074 120.678 846.929 121.492 846.94 122.311C846.91 123.308 847.177 124.292 847.706 125.143C848.205 125.919 848.863 126.584 849.637 127.097C850.426 127.618 851.295 128.008 852.212 128.253C853.109 128.495 854.034 128.621 854.964 128.627L854.973 128.63ZM853.676 93.2871C853.668 93.8065 853.749 94.3236 853.914 94.8168C854.072 95.2663 854.272 95.7001 854.513 96.1122C854.755 96.5242 855.027 96.918 855.327 97.2904C855.63 97.6673 855.807 97.9239 856.406 98.0062C856.946 98.0727 857.201 97.8795 857.748 97.5501C858.282 97.2262 858.779 96.8472 859.232 96.4194C859.688 95.9812 860.067 95.4718 860.355 94.9119C860.672 94.2746 860.828 93.5719 860.812 92.8627C860.858 91.8895 860.523 90.936 859.875 90.199C859.549 89.8574 859.151 89.5897 858.71 89.4147C858.268 89.2397 857.792 89.1615 857.317 89.1855C856.1 89.1855 855.189 89.5941 854.584 90.4112C853.973 91.2476 853.654 92.257 853.676 93.2871Z"/>
</mask>
<path d="M873.349 138.005L873.468 137.519L873.278 137.473L873.108 137.567L873.349 138.005ZM864.394 141.704L864.256 141.224L864.254 141.224L864.394 141.704ZM855.524 143L855.526 143.5L855.527 143.5L855.524 143ZM845.562 141.565L845.705 141.086L845.703 141.085L845.562 141.565ZM837.194 137.448L837.488 137.043H837.488L837.194 137.448ZM831.422 131.062L830.989 131.311L830.99 131.314L831.422 131.062ZM829.269 122.768L829.769 122.774L829.769 122.766L829.769 122.757L829.269 122.768ZM830.537 116.313L830.081 116.109L830.079 116.114L830.537 116.313ZM833.756 111.413L833.39 111.072L833.387 111.075L833.756 111.413ZM838.143 107.707L838.418 108.125L838.421 108.123L838.143 107.707ZM842.788 104.784L843.04 105.216L843.665 104.85L843.101 104.395L842.788 104.784ZM840.299 102.453L839.931 102.791L839.931 102.791L840.299 102.453ZM838.169 99.5518L838.602 99.302L838.602 99.3017L838.169 99.5518ZM836.682 95.995L836.199 96.1245L836.2 96.1274L836.682 95.995ZM836.135 91.6369L836.635 91.643L836.635 91.6356L836.634 91.6282L836.135 91.6369ZM837.744 84.8971L837.304 84.6597L837.302 84.6638L837.744 84.8971ZM842.125 79.8802L841.831 79.4755L841.829 79.4767L842.125 79.8802ZM848.613 76.7669L848.746 77.249L848.747 77.2486L848.613 76.7669ZM856.586 75.709L856.582 76.2091L856.591 76.209L856.586 75.709ZM865.469 76.7922L865.344 77.2762L865.346 77.2768L865.469 76.7922ZM872.319 79.9594L872.614 79.556L872.609 79.552L872.319 79.9594ZM876.725 85.2138L877.176 84.9982L877.174 84.994L876.725 85.2138ZM878.244 91.3012L877.745 91.3225L877.745 91.326L878.244 91.3012ZM875.261 100.987L874.861 100.686L874.853 100.697L875.261 100.987ZM875.216 101.05L875.616 101.35L875.623 101.34L875.216 101.05ZM871.862 104.651L871.534 104.273L871.531 104.276L871.862 104.651ZM869.712 106.368L870.004 106.773L870.005 106.773L869.712 106.368ZM869.361 109.44L869.738 109.111L869.736 109.11L869.361 109.44ZM873.358 114.02L872.982 114.348L872.985 114.353L873.358 114.02ZM877.015 113.386L876.553 113.194L876.55 113.202L877.015 113.386ZM877.517 112.059L877.045 111.893L877.043 111.899L877.517 112.059ZM877.568 111.913L878.04 112.08L878.042 112.075L877.568 111.913ZM883.784 107.53L883.782 108.03H883.782L883.784 107.53ZM894.231 107.562L894.731 107.567L894.737 107.063L894.233 107.062L894.231 107.562ZM891.811 118.565L892.267 118.77L892.267 118.769L891.811 118.565ZM886.851 126.689L887.238 127.005L887.242 127L886.851 126.689ZM886.886 129.406L886.508 129.733L886.511 129.737L886.886 129.406ZM894.289 137.802L894.669 137.477L894.664 137.472L894.289 137.802ZM892.6 141.448V141.948L892.607 141.948L892.6 141.448ZM881.238 141.448L881.238 141.948H881.238V141.448ZM873.362 138.008L873.73 137.67L873.627 137.559L873.481 137.523L873.362 138.008ZM854.973 128.63L854.818 129.105L854.894 129.13L854.974 129.13L854.973 128.63ZM860.207 127.927L860.339 128.409L860.348 128.407L860.207 127.927ZM861.173 124.528L860.802 124.865L860.804 124.867L861.173 124.528ZM853.657 116.256L853.286 116.591L853.287 116.592L853.657 116.256ZM850.802 115.939L850.515 115.529L850.514 115.53L850.802 115.939ZM850.29 116.306L850.582 116.713L850.587 116.709L850.29 116.306ZM848.543 117.931L848.158 117.611L848.157 117.612L848.543 117.931ZM847.368 119.911L846.903 119.726L846.901 119.732L847.368 119.911ZM846.94 122.311L847.439 122.326L847.44 122.315L847.44 122.305L846.94 122.311ZM847.706 125.143L847.281 125.407L847.285 125.414L847.706 125.143ZM849.637 127.097L849.361 127.514L849.361 127.514L849.637 127.097ZM852.212 128.253L852.342 127.77L852.341 127.77L852.212 128.253ZM854.964 128.627L855.12 128.152L855.045 128.127L854.967 128.127L854.964 128.627ZM853.914 94.8168L853.44 94.9762L853.443 94.9821L853.914 94.8168ZM854.513 96.1122L854.081 96.3645L854.082 96.3652L854.513 96.1122ZM855.327 97.2904L855.717 96.9774L855.717 96.9764L855.327 97.2904ZM856.406 98.0062L856.338 98.5016L856.345 98.5025L856.406 98.0062ZM857.748 97.5501L858.006 97.9785L858.007 97.9777L857.748 97.5501ZM859.232 96.4194L859.575 96.7827L859.578 96.78L859.232 96.4194ZM860.355 94.9119L860.8 95.1403L860.803 95.1344L860.355 94.9119ZM860.812 92.8627L860.313 92.8389L860.312 92.8566L860.312 92.8742L860.812 92.8627ZM859.875 90.199L860.251 89.869L860.244 89.8612L860.237 89.8538L859.875 90.199ZM857.317 89.1855V89.6855H857.329L857.342 89.6849L857.317 89.1855ZM854.584 90.4112L854.182 90.1137L854.18 90.1161L854.584 90.4112ZM873.108 137.567C870.306 139.11 867.337 140.336 864.256 141.224L864.533 142.185C867.685 141.277 870.723 140.021 873.59 138.443L873.108 137.567ZM864.254 141.224C861.419 142.054 858.479 142.483 855.521 142.5L855.527 143.5C858.577 143.483 861.61 143.04 864.535 142.184L864.254 141.224ZM855.522 142.5C852.196 142.515 848.887 142.038 845.705 141.086L845.419 142.044C848.695 143.024 852.102 143.515 855.526 143.5L855.522 142.5ZM845.703 141.085C842.748 140.214 839.968 138.847 837.488 137.043L836.899 137.852C839.473 139.723 842.356 141.142 845.421 142.045L845.703 141.085ZM837.488 137.043C835.19 135.373 833.272 133.25 831.855 130.811L830.99 131.314C832.478 133.874 834.49 136.1 836.899 137.852L837.488 137.043ZM831.856 130.814C830.45 128.362 829.73 125.588 829.769 122.774L828.769 122.761C828.728 125.754 829.494 128.705 830.989 131.311L831.856 130.814ZM829.769 122.757C829.723 120.613 830.142 118.484 830.996 116.511L830.079 116.114C829.167 118.219 828.72 120.49 828.769 122.778L829.769 122.757ZM830.994 116.517C831.772 114.774 832.829 113.165 834.125 111.751L833.387 111.075C832.019 112.568 830.903 114.268 830.081 116.109L830.994 116.517ZM834.121 111.754C835.403 110.382 836.845 109.163 838.418 108.125L837.868 107.29C836.229 108.372 834.726 109.641 833.391 111.072L834.121 111.754ZM838.421 108.123C840.01 107.057 841.55 106.088 843.04 105.216L842.535 104.353C841.025 105.237 839.469 106.217 837.865 107.292L838.421 108.123ZM843.101 104.395C842.234 103.695 841.42 102.933 840.668 102.115L839.931 102.791C840.718 103.646 841.567 104.442 842.474 105.173L843.101 104.395ZM840.668 102.115C839.876 101.254 839.184 100.311 838.602 99.302L837.736 99.8016C838.354 100.874 839.091 101.877 839.931 102.791L840.668 102.115ZM838.602 99.3017C837.977 98.2196 837.494 97.064 837.164 95.8627L836.2 96.1274C836.552 97.4113 837.068 98.646 837.736 99.8019L838.602 99.3017ZM837.165 95.8656C836.795 94.4879 836.617 93.0676 836.635 91.643L835.635 91.6309C835.616 93.147 835.806 94.6585 836.199 96.1245L837.165 95.8656ZM836.634 91.6282C836.595 89.3695 837.128 87.1363 838.186 85.1304L837.302 84.6638C836.165 86.8182 835.592 89.2178 835.635 91.6457L836.634 91.6282ZM838.184 85.1345C839.212 83.2289 840.659 81.5717 842.42 80.2838L841.829 79.4767C839.949 80.8518 838.403 82.6222 837.304 84.6597L838.184 85.1345ZM842.418 80.285C844.322 78.9038 846.466 77.875 848.746 77.249L848.481 76.2847C846.086 76.9423 843.833 78.0235 841.831 79.4755L842.418 80.285ZM848.747 77.2486C851.296 76.5393 853.934 76.1892 856.582 76.209L856.59 75.209C853.848 75.1886 851.118 75.5509 848.479 76.2852L848.747 77.2486ZM856.591 76.209C859.544 76.177 862.488 76.536 865.344 77.2762L865.595 76.3082C862.654 75.5458 859.622 75.1761 856.581 75.209L856.591 76.209ZM865.346 77.2768C867.751 77.8878 870.017 78.936 872.029 80.3669L872.609 79.552C870.496 78.0492 868.116 76.9489 865.593 76.3076L865.346 77.2768ZM872.023 80.3628C873.837 81.6911 875.296 83.4311 876.276 85.4337L877.174 84.994C876.122 82.8449 874.557 80.9793 872.614 79.5561L872.023 80.3628ZM876.274 85.4295C877.158 87.2783 877.658 89.2817 877.745 91.3225L878.744 91.2799C878.651 89.104 878.118 86.9683 877.176 84.9982L876.274 85.4295ZM877.745 91.326C877.911 94.6791 876.893 97.9864 874.861 100.686L875.66 101.287C877.832 98.402 878.922 94.8647 878.744 91.2764L877.745 91.326ZM874.853 100.697L874.808 100.76L875.623 101.34L875.668 101.277L874.853 100.697ZM874.815 100.75C873.853 102.036 872.753 103.217 871.534 104.273L872.189 105.029C873.462 103.927 874.61 102.693 875.616 101.35L874.815 100.75ZM871.531 104.276C870.852 104.873 870.148 105.435 869.419 105.962L870.005 106.773C870.76 106.227 871.489 105.645 872.192 105.026L871.531 104.276ZM869.419 105.962C869.125 106.174 868.879 106.444 868.696 106.756L869.558 107.263C869.67 107.072 869.822 106.905 870.004 106.773L869.419 105.962ZM868.696 106.756C868.513 107.067 868.397 107.413 868.356 107.771L869.349 107.885C869.374 107.666 869.445 107.454 869.558 107.263L868.696 106.756ZM868.356 107.771C868.315 108.13 868.35 108.493 868.458 108.837L869.412 108.536C869.346 108.325 869.324 108.104 869.349 107.885L868.356 107.771ZM868.458 108.837C868.567 109.181 868.747 109.499 868.986 109.77L869.736 109.11C869.589 108.942 869.478 108.747 869.412 108.536L868.458 108.837ZM868.984 109.769L872.982 114.348L873.735 113.691L869.738 109.111L868.984 109.769ZM872.985 114.353C873.289 114.693 873.675 114.949 874.107 115.098L874.434 114.153C874.162 114.059 873.92 113.898 873.731 113.687L872.985 114.353ZM874.107 115.098C874.539 115.248 875.002 115.285 875.453 115.207L875.282 114.222C874.998 114.271 874.706 114.247 874.434 114.153L874.107 115.098ZM875.453 115.207C875.904 115.129 876.327 114.938 876.682 114.652L876.054 113.873C875.832 114.052 875.566 114.173 875.282 114.222L875.453 115.207ZM876.682 114.652C877.037 114.365 877.312 113.993 877.48 113.571L876.55 113.202C876.447 113.463 876.276 113.694 876.054 113.873L876.682 114.652ZM877.476 113.579C877.664 113.129 877.835 112.678 877.991 112.22L877.043 111.899C876.896 112.334 876.733 112.763 876.553 113.194L877.476 113.579ZM877.988 112.226L878.04 112.08L877.097 111.747L877.046 111.893L877.988 112.226ZM878.042 112.075C878.444 110.895 879.214 109.868 880.244 109.142L879.668 108.324C878.467 109.172 877.566 110.371 877.095 111.752L878.042 112.075ZM880.244 109.142C881.274 108.415 882.512 108.026 883.782 108.03L883.785 107.03C882.31 107.025 880.869 107.477 879.668 108.324L880.244 109.142ZM883.782 108.03L894.23 108.062L894.233 107.062L883.785 107.03L883.782 108.03ZM893.732 107.556C893.69 111.278 892.882 114.954 891.355 118.36L892.267 118.769C893.85 115.238 894.689 111.427 894.731 107.567L893.732 107.556ZM891.355 118.36C890.069 121.222 888.424 123.915 886.46 126.377L887.242 127C889.258 124.473 890.946 121.708 892.267 118.77L891.355 118.36ZM886.464 126.372C886.074 126.848 885.864 127.445 885.872 128.06L886.872 128.047C886.867 127.67 886.996 127.301 887.238 127.005L886.464 126.372ZM885.872 128.06C885.88 128.675 886.105 129.266 886.508 129.733L887.265 129.079C887.015 128.79 886.876 128.425 886.872 128.047L885.872 128.06ZM886.511 129.737L893.914 138.133L894.664 137.472L887.262 129.075L886.511 129.737ZM893.91 138.128C894.123 138.376 894.259 138.679 894.304 138.999L895.294 138.861C895.223 138.35 895.006 137.87 894.669 137.477L893.91 138.128ZM894.304 138.999C894.348 139.319 894.299 139.646 894.163 139.941L895.07 140.361C895.287 139.893 895.365 139.372 895.294 138.861L894.304 138.999ZM894.163 139.941C894.026 140.236 893.806 140.488 893.529 140.666L894.069 141.507C894.506 141.227 894.853 140.83 895.07 140.361L894.163 139.941ZM893.529 140.666C893.251 140.845 892.926 140.943 892.592 140.948L892.607 141.948C893.126 141.94 893.633 141.788 894.069 141.507L893.529 140.666ZM892.6 140.948H881.238V141.948H892.6V140.948ZM881.238 140.948C879.822 140.948 878.423 140.656 877.129 140.091L876.729 141.007C878.149 141.627 879.685 141.948 881.238 141.948L881.238 140.948ZM877.129 140.091C875.836 139.526 874.678 138.701 873.73 137.67L872.994 138.347C874.037 139.481 875.309 140.387 876.729 141.007L877.129 140.091ZM873.481 137.523L873.468 137.519L873.23 138.491L873.243 138.494L873.481 137.523ZM854.974 129.13C856.787 129.129 858.592 128.887 860.339 128.409L860.075 127.445C858.414 127.899 856.698 128.129 854.973 128.13L854.974 129.13ZM860.348 128.407C860.771 128.282 861.156 128.054 861.466 127.743L860.758 127.037C860.567 127.228 860.329 127.37 860.066 127.447L860.348 128.407ZM861.466 127.743C861.776 127.432 862.002 127.048 862.122 126.626L861.16 126.353C861.087 126.61 860.949 126.845 860.758 127.037L861.466 127.743ZM862.122 126.626C862.242 126.204 862.251 125.76 862.15 125.333L861.177 125.566C861.239 125.825 861.233 126.096 861.16 126.353L862.122 126.626ZM862.15 125.333C862.048 124.907 861.838 124.514 861.541 124.19L860.804 124.867C860.987 125.066 861.115 125.306 861.177 125.566L862.15 125.333ZM861.543 124.192L854.027 115.92L853.287 116.592L860.802 124.865L861.543 124.192ZM854.027 115.92C853.592 115.439 852.993 115.135 852.346 115.063L852.236 116.057C852.643 116.102 853.016 116.293 853.286 116.591L854.027 115.92ZM852.346 115.063C851.699 114.992 851.048 115.157 850.515 115.529L851.089 116.349C851.421 116.116 851.829 116.012 852.236 116.057L852.346 115.063ZM850.514 115.53C850.343 115.651 850.165 115.777 849.993 115.904L850.587 116.709C850.75 116.589 850.92 116.468 851.09 116.348L850.514 115.53ZM849.999 115.9C849.314 116.391 848.696 116.966 848.158 117.611L848.927 118.251C849.41 117.672 849.966 117.155 850.582 116.713L849.999 115.9ZM848.157 117.612C847.631 118.248 847.208 118.961 846.903 119.726L847.832 120.096C848.098 119.429 848.467 118.806 848.928 118.25L848.157 117.612ZM846.901 119.732C846.584 120.558 846.428 121.435 846.44 122.318L847.44 122.305C847.429 121.549 847.563 120.797 847.835 120.09L846.901 119.732ZM846.44 122.297C846.408 123.392 846.7 124.473 847.281 125.407L848.13 124.879C847.653 124.111 847.413 123.224 847.439 122.326L846.44 122.297ZM847.285 125.414C847.823 126.248 848.529 126.963 849.361 127.514L849.913 126.68C849.196 126.205 848.588 125.589 848.126 124.872L847.285 125.414ZM849.361 127.514C850.195 128.065 851.114 128.477 852.083 128.736L852.341 127.77C851.476 127.539 850.656 127.171 849.912 126.68L849.361 127.514ZM852.081 128.736C853.02 128.989 853.988 129.121 854.961 129.127L854.967 128.127C854.08 128.121 853.197 128.001 852.342 127.77L852.081 128.736ZM854.808 129.102L854.818 129.105L855.129 128.155L855.12 128.152L854.808 129.102ZM853.176 93.2792C853.167 93.8556 853.257 94.4292 853.441 94.9762L854.388 94.6575C854.241 94.218 854.169 93.7575 854.176 93.2949L853.176 93.2792ZM853.443 94.9821C853.611 95.4619 853.825 95.9247 854.081 96.3645L854.945 95.86C854.72 95.4754 854.533 95.0708 854.386 94.6516L853.443 94.9821ZM854.082 96.3652C854.336 96.7985 854.622 97.2127 854.938 97.6044L855.717 96.9764C855.432 96.6232 855.174 96.2498 854.944 95.8593L854.082 96.3652ZM854.938 97.6034C855.071 97.7703 855.234 97.9874 855.449 98.1541C855.687 98.3385 855.968 98.4507 856.338 98.5016L856.474 97.5109C856.245 97.4794 856.137 97.4221 856.062 97.3635C855.963 97.2871 855.886 97.1874 855.717 96.9774L854.938 97.6034ZM856.345 98.5025C856.697 98.5458 856.981 98.5042 857.263 98.3898C857.509 98.2895 857.759 98.1269 858.006 97.9785L857.49 97.1218C857.189 97.3028 857.038 97.4015 856.886 97.4635C856.768 97.5114 856.656 97.5332 856.467 97.51L856.345 98.5025ZM858.007 97.9777C858.571 97.6355 859.097 97.2349 859.575 96.7827L858.888 96.0562C858.462 96.4595 857.992 96.817 857.489 97.1226L858.007 97.9777ZM859.578 96.78C860.074 96.3036 860.487 95.7496 860.8 95.1403L859.91 94.6834C859.648 95.1939 859.302 95.6587 858.885 96.0589L859.578 96.78ZM860.803 95.1344C861.156 94.4247 861.33 93.6417 861.312 92.8511L860.312 92.8742C860.327 93.5021 860.188 94.1245 859.907 94.6893L860.803 95.1344ZM861.311 92.8864C861.364 91.7827 860.984 90.7026 860.251 89.869L859.5 90.5291C860.063 91.1694 860.353 91.9963 860.313 92.8389L861.311 92.8864ZM860.237 89.8538C859.861 89.4596 859.402 89.1513 858.894 88.9498L858.525 89.8796C858.901 90.0282 859.238 90.2552 859.514 90.5443L860.237 89.8538ZM858.894 88.9498C858.385 88.7484 857.838 88.6585 857.291 88.6862L857.342 89.6849C857.746 89.6644 858.15 89.731 858.525 89.8796L858.894 88.9498ZM857.317 88.6855C855.977 88.6855 854.901 89.1434 854.182 90.1137L854.986 90.7088C855.478 90.0448 856.223 89.6855 857.317 89.6855V88.6855ZM854.18 90.1161C853.504 91.0406 853.152 92.1574 853.176 93.2979L854.176 93.2762C854.156 92.3566 854.441 91.4546 854.988 90.7063L854.18 90.1161Z" fill="#6B6B6B" mask="url(#path-5-inside-1_458_664)"/>
<path d="M1092.15 137.106C1092.15 137.679 1092.26 138.248 1092.48 138.778C1092.7 139.309 1093.03 139.791 1093.44 140.197C1093.85 140.603 1094.34 140.926 1094.88 141.146C1095.42 141.366 1096 141.479 1096.58 141.48H1129.99C1130.57 141.479 1131.15 141.366 1131.69 141.146C1132.23 140.926 1132.72 140.603 1133.13 140.197C1133.54 139.791 1133.87 139.309 1134.09 138.778C1134.31 138.248 1134.42 137.679 1134.42 137.106H1092.15ZM1092.15 137.106V4.69082V137.106ZM1134.17 4.69082V4.69027C1134.17 4.15001 1134.07 3.61473 1133.86 3.11501C1133.65 2.61528 1133.34 2.16078 1132.95 1.77762C1132.57 1.39445 1132.1 1.09016 1131.6 0.882339C1131.09 0.674523 1130.54 0.567297 1129.99 0.566895C1129.99 0.566895 1129.99 0.566894 1129.99 0.566894L1129.99 0.316895L1134.17 4.69082ZM1134.17 4.69082V137.106V137.106C1134.17 137.647 1134.07 138.182 1133.86 138.682C1133.65 139.181 1133.34 139.636 1132.95 140.019C1132.57 140.402 1132.1 140.706 1131.6 140.914C1131.09 141.122 1130.54 141.229 1129.99 141.23H1096.58C1096.03 141.229 1095.48 141.122 1094.97 140.914C1094.47 140.706 1094 140.402 1093.62 140.019C1093.23 139.636 1092.92 139.181 1092.71 138.682C1092.5 138.182 1092.4 137.647 1092.4 137.106V137.106L1092.4 4.69082L1092.4 4.69027C1092.4 4.15003 1092.5 3.61475 1092.71 3.11501C1092.92 2.61527 1093.23 2.16077 1093.62 1.77762C1094 1.39446 1094.47 1.09017 1094.97 0.88234C1095.48 0.67451 1096.03 0.567286 1096.58 0.566894L1134.17 4.69082Z" stroke="#6B6B6B" stroke-width="0.5"/>
<path d="M1644.87 90.3891H1644.87C1644.09 90.3866 1643.32 90.1951 1642.63 89.8311C1641.94 89.4672 1641.36 88.9418 1640.92 88.3011C1640.49 87.6603 1640.22 86.9238 1640.14 86.1564C1640.06 85.3899 1640.18 84.6164 1640.47 83.904C1640.48 83.9032 1640.48 83.9024 1640.48 83.9016L1652.56 53.185C1652.65 52.9532 1652.81 52.7545 1653.01 52.6147C1653.22 52.4749 1653.46 52.4004 1653.71 52.4004C1653.96 52.4004 1654.21 52.4749 1654.42 52.6147C1654.62 52.7545 1654.78 52.9531 1654.87 53.1847L1644.87 90.3891ZM1644.87 90.3891H1662.49H1662.49C1663.27 90.3885 1664.04 90.1985 1664.73 89.8355C1665.42 89.4725 1666.01 88.9475 1666.45 88.3066C1666.89 87.6657 1667.16 86.9285 1667.23 86.1602C1667.31 85.3927 1667.2 84.6181 1666.9 83.9044C1666.9 83.9036 1666.9 83.9027 1666.9 83.9018L1654.87 53.185L1644.87 90.3891ZM1682.79 122.298L1682.73 122.144H1682.56H1624.8H1624.64L1624.57 122.299L1617.84 138.661L1617.84 138.661C1617.53 139.419 1616.99 140.069 1616.3 140.527C1615.61 140.985 1614.8 141.23 1613.97 141.23H1579.04C1578.35 141.228 1577.67 141.058 1577.06 140.734C1576.45 140.409 1575.93 139.941 1575.55 139.372C1575.17 138.803 1574.94 138.151 1574.88 137.473C1574.82 136.796 1574.93 136.114 1575.2 135.489L1575.2 135.489L1632.04 5.41487L1632.04 5.41479C1632.67 3.97763 1633.71 2.75221 1635.04 1.8904C1636.37 1.02857 1637.92 0.568298 1639.52 0.566898L1667.96 0.566898L1667.96 0.566898C1669.55 0.565521 1671.11 1.02463 1672.43 1.88674C1673.76 2.74882 1674.8 3.97568 1675.43 5.41438L1675.43 5.41487L1732.27 135.489L1732.27 135.489C1732.54 136.115 1732.66 136.797 1732.6 137.475C1732.53 138.153 1732.3 138.806 1731.92 139.375C1731.54 139.944 1731.02 140.412 1730.41 140.736C1729.8 141.06 1729.12 141.229 1728.43 141.23H1693.49C1692.66 141.229 1691.85 140.986 1691.16 140.532C1690.47 140.077 1689.94 139.432 1689.63 138.679L1689.63 138.679L1682.79 122.298Z" stroke="#6B6B6B" stroke-width="0.5"/>
<path d="M1803.1 0.367188C1803.66 0.367602 1804.21 0.476034 1804.72 0.686278C1805.24 0.896523 1805.7 1.20446 1806.1 1.59246C1806.49 1.98047 1806.8 2.44093 1807.01 2.94751C1807.23 3.4541 1807.33 3.99686 1807.33 4.54475V107.017C1807.33 107.515 1807.53 107.993 1807.89 108.346C1808.25 108.699 1808.74 108.897 1809.24 108.898L1803.1 0.367188ZM1803.1 0.367188L1803.1 0.617187C1803.1 0.617187 1803.1 0.617187 1803.1 0.617188H1803.1V0.367188ZM1769.3 0.617188C1769.31 0.617187 1769.31 0.617187 1769.31 0.617187L1769.3 0.367188V0.617188H1769.3ZM1769.31 141.223H1769.3V141.473L1769.31 141.223ZM1862.77 141.223L1862.77 141.473V141.223H1862.77ZM1862.77 109.148H1862.77V108.898L1862.77 109.148Z" stroke="#6B6B6B" stroke-width="0.5"/>
<path d="M1393.21 4.43267V4.43418V137.236V137.236C1393.21 137.761 1393.11 138.281 1392.9 138.767C1392.7 139.253 1392.4 139.695 1392.02 140.067C1391.65 140.44 1391.2 140.736 1390.7 140.938C1390.21 141.14 1389.68 141.245 1389.15 141.245H1355.5C1354.96 141.245 1354.43 141.14 1353.94 140.938C1353.44 140.736 1352.99 140.44 1352.62 140.067C1352.24 139.695 1351.94 139.253 1351.74 138.767C1351.53 138.281 1351.43 137.761 1351.43 137.236V137.236L1351.43 4.43418L1351.43 4.43267C1351.43 3.9062 1351.53 3.38422 1351.73 2.89665C1351.94 2.40905 1352.23 1.96528 1352.61 1.5909C1352.99 1.21652 1353.44 0.918942 1353.93 0.71541C1354.43 0.511906 1354.96 0.406478 1355.49 0.405273H1389.15C1389.68 0.406478 1390.21 0.511906 1390.71 0.71541C1391.2 0.918942 1391.65 1.21652 1392.03 1.5909C1392.41 1.96528 1392.71 2.40905 1392.91 2.89665C1393.11 3.38422 1393.21 3.9062 1393.21 4.43267Z" stroke="#6B6B6B" stroke-width="0.5"/>
<path d="M1431.57 4.68132L1431.57 4.68095C1431.57 4.14201 1431.68 3.60812 1431.89 3.10972C1432.09 2.61131 1432.4 2.15799 1432.79 1.77577C1433.18 1.39354 1433.64 1.08992 1434.14 0.88243C1434.65 0.674953 1435.19 0.567702 1435.74 0.566895H1548.15C1549.26 0.571781 1550.32 1.00838 1551.1 1.77985C1551.88 2.5513 1552.32 3.59464 1552.32 4.68113V4.68132V28.5463V28.5467C1552.32 29.086 1552.21 29.6203 1552 30.1191C1551.79 30.6179 1551.49 31.0716 1551.1 31.4541C1550.71 31.8366 1550.25 32.1405 1549.74 32.3481C1549.24 32.5558 1548.69 32.6631 1548.14 32.6639H1512.97H1512.72V32.9139V137.115V137.116C1512.73 137.655 1512.62 138.188 1512.41 138.687C1512.2 139.185 1511.89 139.639 1511.51 140.021C1511.12 140.403 1510.66 140.707 1510.15 140.914C1509.64 141.122 1509.1 141.229 1508.55 141.23H1475.12C1474.01 141.225 1472.95 140.788 1472.17 140.016C1471.39 139.243 1470.95 138.199 1470.96 137.113V137.112V32.9107V32.6607H1470.71H1435.74C1435.19 32.6599 1434.65 32.5526 1434.14 32.3449L1434.05 32.5762L1434.14 32.3449C1433.64 32.1372 1433.17 31.8333 1432.79 31.4508L1432.61 31.6287L1432.79 31.4508C1432.4 31.0683 1432.09 30.6146 1431.88 30.1158C1431.68 29.6171 1431.57 29.0829 1431.57 28.5437V28.5431L1431.57 4.68132ZM1552.57 28.5463V4.68132L1548.14 32.9139C1548.72 32.913 1549.3 32.7994 1549.84 32.5795C1550.37 32.3595 1550.86 32.0376 1551.27 31.632C1551.68 31.2264 1552.01 30.7452 1552.23 30.2158C1552.45 29.6863 1552.57 29.119 1552.57 28.5463ZM1431.32 4.68132V28.5431L1435.74 0.316895C1435.16 0.317726 1434.59 0.431274 1434.05 0.651057C1433.51 0.87084 1433.02 1.19255 1432.61 1.59783C1432.2 2.0031 1431.88 2.484 1431.65 3.01307C1431.43 3.54213 1431.32 4.10901 1431.32 4.68132Z" stroke="#6B6B6B" stroke-width="0.5"/>
<path d="M1308.39 65.2064H1308.39L1249.42 65.1146C1246.23 65.1086 1243.62 67.8723 1243.6 71.3173L1243.6 71.3178C1243.56 77.3435 1243.56 80.2948 1243.56 84.4707V84.4855V84.4859C1243.56 87.9345 1246.17 90.7251 1249.35 90.7251H1249.35L1275.97 90.8106L1275.98 90.8107L1275.99 90.8114C1276.1 90.8201 1276.21 90.8537 1276.3 90.9098C1276.4 90.966 1276.48 91.0433 1276.54 91.1361C1276.61 91.2289 1276.65 91.3347 1276.66 91.4457C1276.68 91.5548 1276.67 91.6657 1276.63 91.7702C1274.88 97.5912 1271.52 102.178 1266.55 105.521L1266.55 105.521C1261.4 108.986 1254.06 110.703 1244.57 110.703M1308.39 65.2064L1244.57 110.453M1308.39 65.2064C1311.55 65.2064 1314.17 67.9708 1314.13 71.38C1314.03 80.3848 1312.66 88.6813 1310.03 96.2712C1306.79 105.631 1302.04 113.64 1295.8 120.304C1289.51 126.989 1281.83 132.262 1273.28 135.763L1273.28 135.763M1308.39 65.2064L1273.28 135.763M1244.57 110.703C1244.57 110.703 1244.57 110.703 1244.57 110.703V110.453M1244.57 110.703C1244.57 110.703 1244.57 110.703 1244.57 110.703L1244.57 110.453M1244.57 110.703C1239.47 110.74 1234.43 109.705 1229.77 107.667M1244.57 110.453C1239.51 110.49 1234.5 109.462 1229.87 107.438M1229.77 107.667L1229.87 107.438M1229.77 107.667C1225.25 105.692 1221.17 102.85 1217.77 99.3069L1217.77 99.3062C1214.29 95.6468 1211.54 91.3733 1209.67 86.7103M1229.77 107.667C1229.77 107.667 1229.77 107.667 1229.77 107.667L1229.87 107.438M1229.87 107.438L1209.67 86.7103M1209.67 86.7103C1209.67 86.7104 1209.67 86.7104 1209.67 86.7105L1209.9 86.617M1209.67 86.7103L1217.95 99.1339C1214.49 95.4973 1211.76 91.2506 1209.9 86.617M1209.67 86.7103C1209.67 86.7102 1209.67 86.7101 1209.67 86.7101L1209.9 86.617M1209.67 86.7103C1207.64 81.68 1206.63 76.3097 1206.68 70.8983M1209.9 86.617C1207.89 81.6163 1206.88 76.2775 1206.93 70.8981M1243.31 84.4855C1243.31 88.0549 1246.01 90.9751 1249.35 90.9751L1275.97 91.0606C1276.04 91.0664 1276.11 91.0888 1276.18 91.126C1276.24 91.1632 1276.3 91.2143 1276.34 91.2754C1276.38 91.3364 1276.4 91.4059 1276.41 91.4784C1276.42 91.551 1276.42 91.6247 1276.39 91.6941L1243.31 84.4855ZM1243.31 84.4855V84.4707M1243.31 84.4855V84.4707M1206.93 70.8981L1206.68 70.9007C1206.68 70.8999 1206.68 70.8991 1206.68 70.8983M1206.93 70.8981C1206.88 65.5198 1207.89 60.1822 1209.9 55.1824M1206.93 70.8981L1206.68 70.8955C1206.68 70.8965 1206.68 70.8974 1206.68 70.8983M1206.68 70.8983C1206.63 65.4879 1207.64 60.1186 1209.67 55.0891M1209.9 55.1824L1209.67 55.0893C1209.67 55.0893 1209.67 55.0892 1209.67 55.0891M1209.9 55.1824C1211.76 50.5526 1214.49 46.31 1217.95 42.6782L1229.88 34.3675C1234.5 32.3467 1239.51 31.3199 1244.58 31.3554M1209.9 55.1824L1209.67 55.089C1209.67 55.089 1209.67 55.0891 1209.67 55.0891M1209.67 55.0891C1211.54 50.4298 1214.29 46.1604 1217.77 42.5058L1217.77 42.5052C1221.17 38.96 1225.25 36.1159 1229.78 34.1384C1234.44 32.1037 1239.48 31.0698 1244.58 31.1054M1244.58 31.1054C1244.58 31.1054 1244.58 31.1054 1244.58 31.1054V31.3554M1244.58 31.1054C1244.58 31.1054 1244.58 31.1054 1244.58 31.1054L1244.58 31.3554M1244.58 31.1054C1250.72 31.1056 1256.33 32.3994 1261.4 34.9903C1264.63 36.6242 1267.59 38.7184 1270.2 41.2051L1270.2 41.2081C1270.71 41.7095 1271.32 42.1065 1271.98 42.3757C1272.65 42.6448 1273.36 42.7808 1274.08 42.7754C1274.8 42.7701 1275.51 42.6235 1276.18 42.3445C1276.84 42.0654 1277.44 41.6595 1277.94 41.1506L1277.94 41.1474L1293.07 26.2901L1293.24 26.4684L1293.07 26.29C1295.79 23.6211 1295.51 18.9588 1292.53 16.6482M1244.58 31.3554L1292.53 16.6482M1292.53 16.6482C1292.53 16.6483 1292.53 16.6483 1292.53 16.6484L1292.68 16.4509L1292.53 16.6482ZM1273.28 135.763C1264.52 139.409 1254.95 141.232 1244.59 141.23H1244.59C1237.82 141.252 1231.07 140.408 1224.52 138.72L1224.46 138.962L1273.28 135.763ZM1243.31 84.4707C1243.31 80.2946 1243.31 77.3426 1243.35 71.3162L1243.31 84.4707ZM1206.55 10.1047C1206.55 10.1047 1206.55 10.1046 1206.55 10.1046L1206.43 9.88489L1206.55 10.1048C1206.55 10.1048 1206.55 10.1048 1206.55 10.1047ZM1206.43 131.842L1206.55 131.623C1206.55 131.623 1206.55 131.622 1206.55 131.622L1206.43 131.842ZM1179.57 35.226C1179.57 35.2259 1179.57 35.2259 1179.57 35.2258L1179.36 35.0928L1179.57 35.2264C1179.57 35.2262 1179.57 35.2261 1179.57 35.226ZM1171.76 89.5689L1172 89.4985C1172 89.4984 1172 89.4983 1172 89.4982L1171.76 89.5689ZM1179.36 106.425L1179.57 106.292C1179.57 106.292 1179.57 106.292 1179.57 106.292L1179.36 106.425Z" stroke="#6B6B6B" stroke-width="0.5"/>
<path d="M890.702 19.2178H915.847C917.522 19.2178 918.873 20.5532 918.873 22.192V46.9343C918.873 48.5731 917.522 49.9085 915.847 49.9085H890.702C889.027 49.9085 887.676 48.5731 887.676 46.9343V22.192C887.676 20.5532 889.027 19.2178 890.702 19.2178Z" stroke="#6B6B6B" stroke-width="0.5"/>
<path d="M934.996 44.1191H954.295C955.862 44.1191 957.126 45.368 957.126 46.9002V65.8908C957.126 67.4229 955.862 68.6718 954.295 68.6718H934.996C933.429 68.6718 932.166 67.4229 932.166 65.8908V46.9002C932.166 45.368 933.429 44.1191 934.996 44.1191Z" stroke="#6B6B6B" stroke-width="0.5"/>
<path d="M902.177 69.6182H923.604C925.279 69.6182 926.63 70.9535 926.63 72.5924V93.6765C926.63 95.3154 925.279 96.6508 923.604 96.6508H902.177C900.502 96.6508 899.15 95.3154 899.15 93.6765V72.5924C899.15 70.9535 900.502 69.6182 902.177 69.6182Z" stroke="#6B6B6B" stroke-width="0.5"/>
<path d="M11.1473 120.653L11.1473 120.652L11.1473 23.9538V23.7038H11.3973H11.3982H11.3991H11.4H11.4009H11.4018H11.4028H11.4037H11.4046H11.4055H11.4064H11.4073H11.4082H11.4091H11.41H11.4109H11.4118H11.4128H11.4137H11.4146H11.4155H11.4164H11.4173H11.4182H11.4191H11.42H11.421H11.4219H11.4228H11.4237H11.4246H11.4255H11.4264H11.4273H11.4283H11.4292H11.4301H11.431H11.4319H11.4328H11.4337H11.4347H11.4356H11.4365H11.4374H11.4383H11.4392H11.4402H11.4411H11.442H11.4429H11.4438H11.4448H11.4457H11.4466H11.4475H11.4484H11.4493H11.4503H11.4512H11.4521H11.453H11.4539H11.4549H11.4558H11.4567H11.4576H11.4586H11.4595H11.4604H11.4613H11.4622H11.4632H11.4641H11.465H11.4659H11.4669H11.4678H11.4687H11.4696H11.4705H11.4715H11.4724H11.4733H11.4742H11.4752H11.4761H11.477H11.4779H11.4789H11.4798H11.4807H11.4816H11.4826H11.4835H11.4844H11.4853H11.4863H11.4872H11.4881H11.4891H11.49H11.4909H11.4918H11.4928H11.4937H11.4946H11.4955H11.4965H11.4974H11.4983H11.4993H11.5002H11.5011H11.502H11.503H11.5039H11.5048H11.5058H11.5067H11.5076H11.5085H11.5095H11.5104H11.5113H11.5123H11.5132H11.5141H11.5151H11.516H11.5169H11.5178H11.5188H11.5197H11.5206H11.5216H11.5225H11.5234H11.5244H11.5253H11.5262H11.5272H11.5281H11.529H11.5299H11.5309H11.5318H11.5327H11.5337H11.5346H11.5355H11.5365H11.5374H11.5383H11.5393H11.5402H11.5411H11.5421H11.543H11.5439H11.5449H11.5458H11.5467H11.5476H11.5486H11.5495H11.5504H11.5514H11.5523H11.5532H11.5542H11.5551H11.556H11.557H11.5579H11.5588H11.5598H11.5607H11.5616H11.5626H11.5635H11.5644H11.5654H11.5663H11.5672H11.5682H11.5691H11.57H11.571H11.5719H11.5728H11.5738H11.5747H11.5756H11.5766H11.5775H11.5784H11.5794H11.5803H11.5812H11.5822H11.5831H11.584H11.585H11.5859H11.5868H11.5877H11.5887H11.5896H11.5905H11.5915H11.5924H11.5933H11.5943H11.5952H11.5961H11.5971H11.598H11.5989H11.5999H11.6008H11.6017H11.6027H11.6036H11.6045H11.6055H11.6064H11.6073H11.6082H11.6092H11.6101H11.611H11.612H11.6129H11.6138H11.6148H11.6157H11.6166H11.6176H11.6185H11.6194H11.6204H11.6213H11.6222H11.6231H11.6241H11.625H11.6259H11.6269H11.6278H11.6287H11.6296H11.6306H11.6315H11.6324H11.6334H11.6343H11.6352H11.6362H11.6371H11.638H11.6389H11.6399H11.6408H11.6417H11.6426H11.6436H11.6445H11.6454H11.6464H11.6473H11.6482H11.6491H11.6501H11.651H11.6519H11.6528H11.6538H11.6547H11.6556H11.6566H11.6575H11.6584H11.6593H11.6603H11.6612H11.6621H11.663H11.664H11.6649H11.6658H11.6667H11.6676H11.6686H11.6695H11.6704H11.6713H11.6723H11.6732H11.6741H11.675H11.676H11.6769H11.6778H11.6787H11.6796H11.6806H11.6815H11.6824H11.6833H11.6842H11.6852H11.6861H11.687H11.6879H11.6888H11.6898H11.6907H11.6916H11.6925H11.6934H11.6944H11.6953H11.6962H11.6971H11.698H11.699H11.6999H11.7008H11.7017H11.7026H11.7035H11.7045H11.7054H11.7063H11.7072H11.7081H11.709H11.7099H11.7109H11.7118H11.7127H11.7136H11.7145H11.7154H11.7163H11.7172H11.7182H11.7191H11.72H11.7209H11.7218H11.7227H11.7236H11.7245H11.7255H11.7264H11.7273H11.7282H11.7291H11.73H11.7309H11.7318H11.7327H11.7336H11.7345H11.7354H11.7364H11.7373H11.7382H11.7391H11.74H11.7409H11.7418H11.7427H11.7436H11.7445H11.7454H11.7463H11.7472H11.7481H11.749H11.7499H11.7508H11.7517H11.7526H11.7535H11.7544H11.7553H11.7562H11.7571H11.758H11.7589H11.7598H11.7607H11.7616H11.7625H11.7634H11.7643H11.7652H11.7661H11.767H11.7679H11.7688H11.7697H11.7706H11.7715H11.7724H11.7733H11.7742H11.7751H11.776H11.7768H11.7777H11.7786H11.7795H11.7804H11.7813H11.7822H11.7831H11.784H11.7849H11.7858H11.7866H11.7875H11.7884H11.7893H11.7902H11.7911H11.792H11.7928H11.7937H11.7946H11.7955H11.7964H11.7973H11.7982H11.799H11.7999H11.8008H11.8017H11.8026H11.8034H11.8043H11.8052H11.8061H11.807H11.8078H11.8087H11.8096H11.8105H11.8114H11.8122H11.8131H11.814H11.8149H11.8157H11.8166H11.8175H11.8184H11.8192H11.8201H11.821H11.8219H11.8227H11.8236H11.8245H11.8253H11.8262H11.8271H11.8279H11.8288H11.8297H11.8306H11.8314H11.8323H11.8332H11.834H11.8349H11.8357H11.8366H11.8375H11.8383H11.8392H11.8401H11.8409H11.8418H11.8427H11.8435H11.8444H11.8452H11.8461H11.847H11.8478H11.8487H11.8495H11.8504H11.8512H11.8521H11.853H11.8538H11.8547H11.8555H11.8564H11.8572H11.8581H11.8589H11.8598H11.8606H11.8615H11.8623H11.8632H11.864H43.4521C46.6577 23.7038 49.7327 24.9568 52.0006 27.1885C54.2687 29.4202 55.5436 32.448 55.5436 35.606V36.2107V36.2109H55.2936C55.296 38.9728 54.3032 41.6461 52.4917 43.7558C50.6801 45.8654 48.1672 47.2747 45.3994 47.7333L11.1473 120.653ZM11.1473 120.653C11.1534 123.227 12.1972 125.693 14.0482 127.509C15.899 129.325 18.4057 130.344 21.0179 130.344H84.1329H84.3538L84.381 130.124C84.3993 129.977 84.399 129.831 84.399 129.701C84.399 123.144 78.7173 117.849 71.7154 117.761M11.1473 120.653L84.1329 130.094C84.149 129.964 84.149 129.834 84.149 129.701C84.149 123.297 78.5935 118.096 71.7088 118.011M71.7088 118.011L71.7184 117.761L71.7183 117.761L71.7175 117.761L71.7154 117.761M71.7088 118.011L71.7119 117.761M71.7088 118.011C71.7088 118.011 66.4881 117.808 59.1174 117.593M71.7154 117.761L71.7147 117.761L71.7119 117.761M71.7154 117.761L71.7119 117.761M71.7119 117.761L71.7032 117.76L71.658 117.758L71.4796 117.752C71.3223 117.746 71.0895 117.737 70.7871 117.726C70.1824 117.703 69.2993 117.671 68.1858 117.632C65.9651 117.555 62.828 117.451 59.1553 117.344M59.1174 117.593L59.1845 117.352C59.1747 117.349 59.165 117.346 59.1553 117.344M59.1174 117.593L59.1247 117.343C59.1349 117.343 59.1451 117.343 59.1553 117.344M59.1174 117.593C56.3173 116.812 53.9058 115.048 52.3406 112.633C50.7754 110.219 50.1654 107.324 50.6265 104.496L86.3237 82.8358M59.1553 117.344C56.4257 116.575 54.0766 114.851 52.5504 112.497C51.0188 110.135 50.4222 107.302 50.8732 104.536L50.8735 104.535C51.7563 98.9206 56.9868 94.9277 62.7963 94.9277H75.4296H75.5648H75.5789L75.5929 94.9261C78.5462 94.592 81.2723 93.2005 83.2515 91.0156C85.2308 88.8305 86.3247 86.0047 86.3237 83.0762V82.8358M86.3237 82.8358C86.3255 81.2704 86.0137 79.7201 85.4065 78.2736C84.7992 76.827 83.9083 75.5127 82.7849 74.4055C81.6616 73.2983 80.3278 72.4199 78.8598 71.8204C77.3921 71.2211 75.819 70.9121 74.2302 70.9112C74.2298 70.9112 74.2295 70.9112 74.2292 70.9112L28.1669 70.5375C25.1835 70.4015 22.3688 69.1393 20.3079 67.0144C18.2461 64.8885 17.0974 62.063 17.0998 59.1259V59.1257C17.0998 52.8153 21.6002 48.2683 28.0025 48.2684L28.0066 48.2683L45.2256 47.9833L86.3237 82.8358ZM132.023 73.5286L132.024 73.5292C138.7 80.9776 142.38 90.5688 142.373 100.499C142.373 123.379 123.252 141.648 99.8909 141.106H99.8851H99.6773C99.4042 141.105 99.0255 141.109 98.7164 141.113C98.5615 141.115 98.4236 141.117 98.3245 141.119L98.2074 141.121L98.1757 141.122L98.1695 141.122H98.1674H11.452C9.98023 141.122 8.52293 140.837 7.16336 140.284C5.8038 139.73 4.56873 138.918 3.52863 137.894C2.48853 136.871 1.66379 135.656 1.10131 134.319C0.538829 132.982 0.249587 131.55 0.25 130.103V12.2826V11.9659V11.5796C0.25 11.5796 0.25 11.5795 0.25 11.5795C0.250854 8.65982 1.4301 5.85916 3.52974 3.79367C5.62954 1.72802 8.47796 0.566894 11.4488 0.566895H11.8447H16.9946L58.1289 0.608068L103.19 0.658744H103.191H103.263C125.091 2.03854 142.361 20.2987 142.041 42.0128L142.041 42.0133C141.919 51.5967 138.366 60.8313 132.006 68.0921C131.343 68.8473 130.978 69.8137 130.982 70.8134C130.985 71.8131 131.355 72.7774 132.023 73.5286Z" stroke="#6B6B6B" stroke-width="0.5"/>
<path d="M986.095 0.566917H934.942H934.942C933.887 0.564492 932.842 0.766708 931.868 1.1619C930.893 1.55709 930.007 2.13744 929.26 2.86957C928.514 3.60168 927.922 4.47119 927.518 5.42824C927.114 6.38525 926.905 7.41114 926.904 8.44726V30.4302C926.911 31.7021 927.429 32.9206 928.347 33.8191C929.265 34.7178 930.508 35.223 931.804 35.223H977.458H977.458V35.473C977.791 35.4726 978.121 35.5367 978.429 35.6618C978.736 35.7868 979.016 35.9703 979.252 36.2018C979.488 36.4332 979.675 36.7081 979.803 37.0107C979.931 37.3134 979.997 37.6378 979.997 37.9656L986.095 0.566917ZM986.095 0.566917V0.619092L986.336 0.626962C1024.75 1.87694 1055.51 32.8538 1055.5 70.8888C1055.5 109.012 1024.62 140.033 986.099 141.166L985.856 141.174V141.22M986.095 0.566917L985.856 141.22M985.856 141.22H934.929C933.876 141.221 932.832 141.018 931.859 140.622C930.885 140.226 930.001 139.645 929.256 138.913C928.511 138.181 927.92 137.312 927.517 136.356C927.113 135.4 926.905 134.375 926.904 133.34L926.904 111.366C926.91 110.094 927.428 108.875 928.346 107.975C929.264 107.076 930.507 106.57 931.804 106.57H954.856C955.594 106.57 956.303 106.282 956.826 105.768C957.35 105.253 957.645 104.555 957.646 103.825V103.825V77.3277C957.646 76.6979 957.772 76.0741 958.017 75.4921C958.262 74.91 958.622 74.3808 959.075 73.935C959.528 73.4892 960.067 73.1354 960.659 72.8941C961.252 72.6528 961.888 72.5288 962.529 72.5292H962.53H977.458H977.458L985.856 141.22Z" stroke="#6B6B6B" stroke-width="0.5"/>
</svg>
