<svg width="100" height="100" viewBox="0 0 100 100" fill="none" xmlns="http://www.w3.org/2000/svg">
<path d="M50 100C77.6142 100 100 77.6142 100 50C100 22.3858 77.6142 0 50 0C22.3858 0 0 22.3858 0 50C0 77.6142 22.3858 100 50 100Z" fill="#FF8025"/>
<path fill-rule="evenodd" clip-rule="evenodd" d="M85 56.5645V65.5645H79.9776C79.9924 65.3783 80 65.19 80 65C80 61.134 76.866 58 73 58C69.134 58 66 61.134 66 65C66 65.5339 66.0598 66.0539 66.173 66.5536L66 66.5664L34.649 66.8438C33.9151 68.6927 32.1102 70 30 70C27.9211 70 26.1385 68.7312 25.3843 66.9258L17 67L16 38.0645L34 25.0645C40.8486 20.8546 43.6537 23.5301 48.5 29.0645L38.5 36L40 38.0645H60C66.766 40.8557 73.5 51.0645 73.5 51.0645C74.224 51.1894 74.9075 51.2892 75.5577 51.3842C79.3492 51.9378 82.0115 52.3265 85 56.5645ZM55 64.5H34.9753C34.7245 61.9733 32.5927 60 30 60C27.4073 60 25.2755 61.9733 25.0247 64.5H19L18 39.5L33 29C33 29 32.5 31.5361 33.5 33.0567L55 64.5ZM73 70C75.7614 70 78 67.7614 78 65C78 62.2386 75.7614 60 73 60C70.2386 60 68 62.2386 68 65C68 67.7614 70.2386 70 73 70Z" fill="white"/>
</svg>
