<svg width="100" height="100" viewBox="0 0 100 100" fill="none" xmlns="http://www.w3.org/2000/svg">
<path d="M50 100C77.6142 100 100 77.6142 100 50C100 22.3858 77.6142 0 50 0C22.3858 0 0 22.3858 0 50C0 77.6142 22.3858 100 50 100Z" fill="#FF8025"/>
<path fill-rule="evenodd" clip-rule="evenodd" d="M63.8803 26.7009L72.8034 35.6239L73.7949 34.6325C76.2735 32.1538 76.2735 28.188 73.7949 25.7094C71.3162 23.2308 67.3504 23.2308 64.8718 25.7094L63.8803 26.7009ZM41.5727 29.6752L38.5983 32.6496L36.1197 30.1709L39.094 27.1966L36.6154 24.7179L25.2137 36.1197L34.6325 45.5385L32.1538 48.0171L21.7436 37.6068C20.7521 36.6154 20.7521 35.6239 21.7436 34.6325L34.6325 21.7436C35.6239 20.7521 36.6154 20.7521 37.6068 21.7436L48.0171 32.1538L45.5385 34.6325L40.0855 40.0855L37.6068 37.6068L43.5149 31.675L41.5727 29.6752ZM70.3248 58.4274L67.3504 61.4017L69.8291 63.8803L72.8034 60.906L75.2821 63.3846L63.8803 74.7863L54.4615 65.3675L51.9829 67.8462L62.3932 78.2564C63.3846 79.2479 64.3761 79.2479 65.3675 78.2564L78.2564 65.3675C79.2479 64.3761 79.2479 63.3846 78.2564 62.3932L67.8462 51.9829L65.3675 54.4615L59.9145 59.9145L62.3932 62.3932L68.371 56.5311L70.3248 58.4274ZM34.6325 64.8718C34.6325 65.3675 34.6325 65.3675 34.6325 65.8633H35.1282C37.6068 65.8633 39.5897 67.3504 39.5897 69.8291L70.8205 38.5983L61.8974 29.6752L30.6667 60.906C32.6496 61.4017 34.6325 63.3846 34.6325 65.3675V64.8718ZM27.6923 68.3419L26.5 73L26.7009 73.2991H27.1966L31.1624 71.812C31.1624 71.812 31.6581 71.812 31.6581 71.3162V70.8205L28.6838 67.8462H28.188C28.188 67.8462 27.6923 67.8462 27.6923 68.3419Z" fill="#FEFEFE"/>
</svg>
