<svg width="100" height="100" viewBox="0 0 100 100" fill="none" xmlns="http://www.w3.org/2000/svg">
<path d="M49.7669 99.5337C77.2523 99.5337 99.5337 77.2523 99.5337 49.7669C99.5337 22.2814 77.2523 0 49.7669 0C22.2814 0 0 22.2814 0 49.7669C0 77.2523 22.2814 99.5337 49.7669 99.5337Z" fill="#FF8025"/>
<path fill-rule="evenodd" clip-rule="evenodd" d="M30.8545 25C35.2727 25 38.7091 28.4364 38.7091 32.8545C38.7091 37.2727 35.2727 40.7091 30.8545 40.7091C26.4364 40.7091 23 37.2727 23 32.8545C23 28.4364 26.4364 25 30.8545 25ZM64.7273 30.4H43.6182C42.6364 30.4 42.1455 29.9091 42.1455 28.9273C42.1455 27.9455 42.6364 27.4545 43.6182 27.4545H66.2C66.6909 27.9455 67.1818 28.4364 67.1818 28.9273V38.7455H69.6364C70.1273 38.7455 70.1273 38.7455 70.6182 39.2364C70.6182 39.7273 70.6182 39.7273 70.6182 40.2182L68.6545 43.6545L66.6909 47.0909C66.6909 47.5818 66.2 47.5818 65.7091 47.5818C65.2182 47.5818 65.2182 47.5818 64.7273 47.0909L62.7636 43.6545L60.8 40.2182C60.8 39.7273 60.8 39.7273 60.8 39.2364C60.8 38.7455 61.2909 38.7455 61.7818 38.7455H63.7455V30.4H64.7273ZM32.8182 69.6727H47.0545C48.5273 69.6727 49.5091 70.6545 49.5091 72.1273C49.5091 73.6 48.5273 74.5818 47.0545 74.5818H30.8545C29.8727 74.0909 29.3818 73.6 29.3818 72.6182V57.8909H25.9455C25.4545 57.8909 24.9636 57.4 24.4727 56.9091C23.9818 56.4182 23.9818 55.9273 24.4727 55.4364L27.4182 50.5273L30.3636 45.6182C30.8545 45.1273 31.3455 44.6364 31.8364 44.6364C32.3273 44.6364 32.8182 45.1273 33.3091 45.6182L36.2545 50.5273L39.2 55.4364C39.6909 55.9273 39.6909 56.4182 39.2 56.9091C38.7091 57.4 38.2182 57.8909 37.7273 57.8909H34.7818V70.6545L32.8182 69.6727ZM64.7273 51.0182C71.6 51.0182 77 56.4182 77 63.2909C77 70.1636 71.6 75.5636 64.7273 75.5636C57.8545 75.5636 52.4545 70.1636 52.4545 63.2909C52.4545 56.4182 57.8545 51.0182 64.7273 51.0182ZM64.7273 55.9273C69.1455 55.9273 72.5818 59.3636 72.5818 63.7818C72.5818 68.2 69.1455 71.6364 64.7273 71.6364C60.3091 71.6364 56.8727 68.2 56.8727 63.7818C56.8727 59.3636 60.3091 55.9273 64.7273 55.9273Z" fill="#FEFEFE"/>
</svg>
