<svg width="100" height="100" viewBox="0 0 100 100" fill="none" xmlns="http://www.w3.org/2000/svg">
<path d="M49.9994 99.9988C77.6133 99.9988 99.9988 77.6133 99.9988 49.9994C99.9988 22.3855 77.6133 0 49.9994 0C22.3855 0 0 22.3855 0 49.9994C0 77.6133 22.3855 99.9988 49.9994 99.9988Z" fill="#FF8025"/>
<path fill-rule="evenodd" clip-rule="evenodd" d="M33.3336 74.5408H25.0004C24.0745 74.5408 23.1485 74.5408 22.6856 74.0778C21.7597 73.6148 21.2967 73.1519 20.8337 72.6889C20.3708 72.226 19.9078 71.3 19.4449 70.3741C18.9819 69.4482 18.9819 68.5223 19.4449 67.5964L23.6115 33.8005C23.6115 32.4116 24.5374 31.0227 25.4633 30.0968C26.3892 29.1709 27.7781 28.708 29.6299 28.708L30.0929 28.245C31.0188 27.782 31.9447 27.782 32.8706 27.782H58.3333C60.1851 27.782 61.574 28.245 62.9629 29.6339C64.3518 30.5598 65.2777 32.4116 65.2777 34.2635L66.6665 44.9115L70.8332 39.356C71.2961 39.8189 71.7591 39.8189 72.222 39.8189C73.6109 39.8189 74.5368 38.893 74.5368 37.5042C74.5368 36.5782 74.0739 36.1153 73.6109 35.6523L70.8332 39.356C70.3702 38.893 69.9072 38.4301 69.9072 37.5042C69.9072 36.1153 70.8332 35.1894 72.222 35.1894C72.685 35.1894 73.1479 35.1894 73.6109 35.6523L76.3886 31.9487C76.8516 31.0227 78.2405 31.0227 78.7034 31.4857L83.333 34.7264C84.2589 35.1894 84.2589 36.5782 83.796 37.0412L68.5184 58.8002L69.9072 68.5223C69.9072 69.4482 69.9072 70.3741 69.4443 71.3C68.9813 72.226 68.5184 73.1519 68.0554 74.0778C67.5925 75.0037 66.6665 75.4667 65.7406 75.9296C64.8147 76.3926 63.8888 76.3926 62.9629 76.3926H37.5002C36.1113 76.3926 35.1854 75.9296 33.7966 75.4667L33.3336 74.5408ZM57.8703 59.7261L61.574 62.5039C56.9444 66.6705 55.5556 65.7446 57.8703 59.7261ZM82.87 27.782L83.333 28.245C84.2589 29.1709 84.7219 30.5598 83.796 31.4857L83.333 32.4116L79.1664 29.1709L79.6293 28.245C80.5553 27.3191 81.9441 26.8561 82.87 27.782ZM65.2777 57.8743L59.7222 53.7077V53.2447L64.3518 46.7633L62.4999 32.8746C62.4999 31.9487 62.037 31.0227 61.1111 30.0968C60.1851 29.6339 59.2592 29.1709 58.3333 29.1709H32.8706C32.4077 29.1709 31.4818 29.1709 31.0188 29.6339C30.5559 30.0968 30.0929 30.0968 29.6299 30.5598C29.167 31.0227 28.704 31.4857 28.704 31.9487C28.704 32.4116 28.704 32.8746 28.704 33.8005L30.0929 44.4485L31.9447 61.115L32.8706 67.5964C32.8706 68.5223 33.3336 69.4482 34.2595 70.3741C35.1854 70.8371 36.1113 71.3 37.0373 71.3H62.4999C62.9629 71.3 63.8888 71.3 64.3518 70.8371C64.8147 70.3741 65.2777 70.3741 65.7406 69.9112C66.2036 69.4482 66.6665 68.9853 66.6665 68.5223C66.6665 68.0593 66.6665 67.5964 66.6665 66.6705L65.2777 56.9484V57.8743ZM31.9447 61.5779C33.3336 62.0409 34.2595 62.5039 35.6484 62.5039C41.2039 62.5039 45.3705 58.3372 45.3705 52.7817C45.3705 47.2263 41.2039 43.0596 35.6484 43.0596C33.3336 43.0596 31.4818 43.9856 29.6299 44.9115C27.3152 46.7633 25.9263 49.541 25.9263 52.7817C25.9263 56.9484 28.2411 60.1891 31.9447 61.5779Z" fill="#FEFEFE"/>
</svg>
