<svg width="100" height="100" viewBox="0 0 100 100" fill="none" xmlns="http://www.w3.org/2000/svg">
<path d="M50 100C77.6142 100 100 77.6142 100 50C100 22.3858 77.6142 0 50 0C22.3858 0 0 22.3858 0 50C0 77.6142 22.3858 100 50 100Z" fill="#FF8025"/>
<path fill-rule="evenodd" clip-rule="evenodd" d="M29.3267 52.3529H44.5347C46.4356 52.3529 47.8614 53.7647 47.8614 55.6471V70.7059C47.8614 72.5882 46.4356 74 44.5347 74H29.3267C27.4257 74 26 72.5882 26 70.7059V55.6471C26 53.7647 27.4257 52.3529 29.3267 52.3529ZM29.3267 26H44.5347C46.4356 26 47.8614 27.4118 47.8614 29.2941V44.3529C47.8614 46.2353 46.4356 47.6471 44.5347 47.6471H29.3267C27.4257 47.6471 26 46.2353 26 44.3529V29.2941C26 27.4118 27.4257 26 29.3267 26ZM32.1782 29.7647H41.6832C43.1089 29.7647 44.0594 30.7059 44.0594 32.1176V41.5294C44.0594 42.9412 43.1089 43.8824 41.6832 43.8824H32.1782C30.7525 43.8824 29.802 42.9412 29.802 41.5294V32.1176C29.802 30.7059 30.7525 29.7647 32.1782 29.7647ZM55.4653 52.3529H70.6733C72.5743 52.3529 74 53.7647 74 55.6471V70.7059C74 72.5882 72.5743 74 70.6733 74H55.4653C53.5644 74 52.1386 72.5882 52.1386 70.7059V55.6471C52.1386 53.7647 53.5644 52.3529 55.4653 52.3529ZM55.9406 56.1176H70.198V70.2353H55.9406V56.1176ZM55.4653 26H70.6733C72.5743 26 74 27.4118 74 29.2941V44.3529C74 46.2353 72.5743 47.6471 70.6733 47.6471H55.4653C53.5644 47.6471 52.1386 46.2353 52.1386 44.3529V29.2941C52.1386 27.4118 53.5644 26 55.4653 26Z" fill="#FEFEFE"/>
</svg>
