<svg width="31" height="27" viewBox="0 0 31 27" fill="none" xmlns="http://www.w3.org/2000/svg">
<path d="M4.50596 0.82271C5.1239 0.597782 5.75308 0.404464 6.39111 0.243494C9.45374 -0.381359 12.7674 1.34791 14.0816 4.22443C14.6312 5.39458 14.8596 6.68819 14.7429 7.96978C14.7374 8.03135 14.7408 8.09139 14.738 8.17336L15.566 8.2093C15.7885 7.80263 16.0387 7.41214 16.3148 7.04058C16.62 6.66893 17.0142 6.38159 17.4611 6.20501C17.9079 6.02843 18.3931 5.96828 18.8718 6.03011C18.9143 6.04184 18.9585 6.04473 19.0019 6.03861C19.0453 6.03248 19.0868 6.01746 19.124 5.99449C19.1612 5.97151 19.1932 5.94105 19.2181 5.905C19.243 5.86895 19.2602 5.82807 19.2687 5.78488C19.6973 4.6876 20.5105 4.0267 21.6669 3.86369C22.8233 3.70068 23.8001 4.11202 24.5481 5.02776C24.6759 5.18973 24.793 5.35994 24.8986 5.53728C26.166 7.58828 27.4334 9.63929 28.7017 11.6917C29.9063 13.6411 30.4649 15.737 30.1875 18.0145C29.9447 20.326 28.8294 22.4458 27.071 23.9378C25.0038 25.7186 22.5861 26.4484 19.871 26.1043C17.516 25.8353 15.3505 24.6446 13.8439 22.7904C13.4726 22.3364 13.1325 21.8577 12.8259 21.3576C11.4186 19.0995 10.0209 16.8375 8.63263 14.5717C8.58843 14.4827 8.51755 14.4098 8.43015 14.3633C8.34274 14.3168 8.24328 14.2991 8.14598 14.3128C5.25188 14.3581 2.99665 13.1562 1.56169 10.581C-0.0325819 7.71904 0.508615 4.30173 2.82626 2.02915C3.02893 1.8317 3.24756 1.65047 3.46367 1.45876L4.50596 0.82271ZM10.9821 14.5259L14.6551 20.4699C15.4946 21.8286 16.6039 22.8901 18.0756 23.5192C21.7856 25.1018 25.8029 23.6382 27.534 20.0192C28.5862 17.8165 28.5023 15.5758 27.3457 13.3901C27.0136 12.7629 26.6286 12.1624 26.2561 11.5562C25.2108 9.86471 24.1644 8.17127 23.1167 6.47589C22.7346 5.85754 22.1078 5.67928 21.5737 6.01329C21.0397 6.3473 20.9332 6.97271 21.3183 7.59921C21.67 8.1682 22.0225 8.73865 22.375 9.3091C22.7275 9.87955 22.5819 10.493 22.0813 10.7883C21.5808 11.0836 21.0048 10.914 20.6606 10.3665C20.3018 9.78588 19.9349 9.1922 19.5717 8.60434C19.2084 8.01647 18.5846 7.86239 18.0642 8.17997C17.5437 8.49755 17.4104 9.14358 17.772 9.73846C18.1337 10.3333 18.4896 10.8997 18.8484 11.4803C18.9416 11.6283 19.0066 11.7922 19.0401 11.9635C19.0725 12.1916 19.0267 12.423 18.9103 12.6196C18.7938 12.8161 18.6137 12.966 18.3997 13.0445C18.1857 13.1229 17.9506 13.1252 17.7333 13.051C17.516 12.9768 17.3296 12.8305 17.2048 12.6363C16.8055 12.0125 16.4254 11.3749 16.0388 10.7493C15.9633 10.63 15.8653 10.5266 15.7505 10.445C15.6357 10.3633 15.5062 10.305 15.3696 10.2734C15.233 10.2418 15.0918 10.2375 14.9541 10.2608C14.8165 10.284 14.6851 10.3344 14.5674 10.409C14.4497 10.4835 14.348 10.5809 14.2681 10.6954C14.1883 10.81 14.1318 10.9395 14.102 11.0766C14.0722 11.2136 14.0696 11.3556 14.0943 11.4943C14.119 11.6331 14.1706 11.7659 14.2462 11.8851C14.6277 12.5219 15.0265 13.148 15.405 13.7765C15.5071 13.9514 15.554 14.1528 15.5396 14.3538C15.5251 14.5549 15.45 14.746 15.3242 14.9016C15.199 15.0575 15.0303 15.172 14.8393 15.2307C14.6483 15.2895 14.4437 15.2898 14.2512 15.2317C13.9607 15.1303 13.7193 14.9199 13.5778 14.6449C11.9794 12.0583 10.3814 9.47216 8.78359 6.88651C8.719 6.782 8.65353 6.67604 8.58895 6.57153C8.45372 6.39391 8.26729 6.26249 8.0556 6.19556C7.84391 6.12863 7.61751 6.12954 7.40793 6.19815C7.20574 6.25718 7.02836 6.37989 6.90169 6.54838C6.77501 6.71687 6.70567 6.92231 6.70378 7.13471C6.72145 7.41846 6.80711 7.69448 6.95344 7.9392C8.26753 10.1459 9.62766 12.3341 10.9821 14.5259ZM12.4313 8.99303C13.1152 7.31883 12.7303 4.92106 11.0136 3.42449C10.1841 2.69381 9.1435 2.25231 8.04956 2.16694C6.95563 2.08156 5.86802 2.35695 4.95159 2.95137C4.03516 3.54579 3.33989 4.42681 2.97117 5.4609C2.60245 6.49499 2.58039 7.62574 2.90833 8.68176C3.57107 10.7955 5.51966 12.1227 7.17938 12.2103L7.01255 11.9403C6.40531 10.9576 5.79897 9.97641 5.19263 8.99517C4.85487 8.46155 4.66629 7.84744 4.64697 7.21827C4.58328 5.45242 6.23783 3.91051 7.9842 4.13513C8.48396 4.18592 8.96571 4.35642 9.38904 4.6323C9.81237 4.90818 10.1649 5.28141 10.4171 5.72065C11.0717 6.80243 11.7415 7.87681 12.4313 8.99303Z" fill="white"/>
</svg>
