<svg width="1874" height="239" viewBox="0 0 1874 239" fill="none" xmlns="http://www.w3.org/2000/svg">
<mask id="path-1-outside-1_382_469" maskUnits="userSpaceOnUse" x="0.183594" y="-0.0668945" width="1874" height="239" fill="black">
<rect fill="white" x="0.183594" y="-0.0668945" width="1874" height="239"/>
<path d="M57.082 191.172H1.18359V0.933105H57.082V81.6167H58.1367L116.936 0.933105H175.603L112.98 85.4399L178.503 191.172H113.508L71.9795 121.299L57.082 141.338V191.172ZM248.64 157.159C254.88 157.159 260.285 155.577 264.855 152.413C269.426 149.161 271.711 144.942 271.711 139.756V130.264L248.771 131.846C243.674 132.198 239.719 133.516 236.906 135.801C234.094 138.086 232.688 141.031 232.688 144.634C232.688 148.501 234.138 151.578 237.038 153.863C239.938 156.06 243.806 157.159 248.64 157.159ZM228.469 193.282C214.934 193.282 203.376 189.107 193.796 180.757C184.216 172.32 179.426 161.685 179.426 148.853C179.426 134.966 184.567 124.244 194.851 116.685C205.222 109.039 220.207 104.6 239.807 103.37L271.711 101.392V94.2729C271.711 89.5269 270.085 85.8354 266.833 83.1987C263.581 80.562 259.362 79.2437 254.177 79.2437C248.815 79.2437 244.421 80.5181 240.993 83.0669C237.565 85.6157 235.632 88.8237 235.192 92.6909H186.94C187.644 77.0464 194.235 64.6978 206.716 55.645C219.196 46.5044 235.983 41.9341 257.077 41.9341C277.204 41.9341 293.464 46.5483 305.856 55.7769C318.249 64.9175 324.445 76.8706 324.445 91.6362V191.172H271.711V171.661H270.656C266.965 178.516 261.208 183.833 253.386 187.613C245.651 191.392 237.346 193.282 228.469 193.282ZM342.375 191.172V163.75L407.37 86.7583V85.7036H344.484V45.6255H470.651V77.6616L413.698 150.04V151.094H473.552V191.172H342.375ZM555.29 157.159C561.53 157.159 566.936 155.577 571.506 152.413C576.076 149.161 578.361 144.942 578.361 139.756V130.264L555.422 131.846C550.324 132.198 546.369 133.516 543.557 135.801C540.744 138.086 539.338 141.031 539.338 144.634C539.338 148.501 540.788 151.578 543.688 153.863C546.589 156.06 550.456 157.159 555.29 157.159ZM535.119 193.282C521.584 193.282 510.026 189.107 500.446 180.757C490.866 172.32 486.076 161.685 486.076 148.853C486.076 134.966 491.218 124.244 501.501 116.685C511.872 109.039 526.857 104.6 546.457 103.37L578.361 101.392V94.2729C578.361 89.5269 576.735 85.8354 573.483 83.1987C570.231 80.562 566.013 79.2437 560.827 79.2437C555.466 79.2437 551.071 80.5181 547.644 83.0669C544.216 85.6157 542.282 88.8237 541.843 92.6909H493.591C494.294 77.0464 500.886 64.6978 513.366 55.645C525.847 46.5044 542.634 41.9341 563.728 41.9341C583.854 41.9341 600.114 46.5483 612.507 55.7769C624.899 64.9175 631.096 76.8706 631.096 91.6362V191.172H578.361V171.661H577.307C573.615 178.516 567.858 183.833 560.036 187.613C552.302 191.392 543.996 193.282 535.119 193.282ZM651.53 191.172V45.6255H704.265V74.2339H705.319C709.011 63.9507 714.636 56.1284 722.194 50.7671C729.753 45.4058 739.025 42.7251 750.012 42.7251C766.271 42.7251 778.752 47.5591 787.453 57.2271C796.242 66.8071 800.637 80.3862 800.637 97.9644V191.172H746.584V109.961C746.584 102.491 744.826 96.6899 741.311 92.5591C737.883 88.4282 732.829 86.3628 726.149 86.3628C719.821 86.3628 714.812 88.5601 711.12 92.9546C707.429 97.2612 705.583 102.886 705.583 109.83V191.172H651.53ZM957.521 146.744V191.172H823.312V0.933105H957.521V45.3618H879.211V76.0796H952.644V116.158H879.211V146.744H957.521ZM1048.36 145.425H1047.3L1027.26 191.172H971.76L1013.68 118.926L971.628 45.6255H1032.8L1050.6 89.7905H1051.65L1069.32 45.6255H1127.46L1085.4 117.872L1127.46 191.172H1069.19L1048.36 145.425ZM1237.28 43.5161C1255.56 43.5161 1269.62 49.9761 1279.46 62.896C1289.31 75.8159 1294.23 94.3169 1294.23 118.399C1294.23 142.393 1289.35 160.894 1279.6 173.902C1269.84 186.822 1255.95 193.282 1237.94 193.282C1227.3 193.282 1218.16 190.909 1210.51 186.163C1202.87 181.329 1197.33 174.605 1193.9 165.992H1192.85V237.71H1138.8V45.6255H1192.98V71.8608H1193.9C1197.42 62.896 1202.91 55.9526 1210.38 51.0308C1217.94 46.021 1226.91 43.5161 1237.28 43.5161ZM1198.91 142.789C1203.04 148.677 1208.67 151.622 1215.79 151.622C1222.91 151.622 1228.53 148.633 1232.66 142.657C1236.79 136.68 1238.86 128.594 1238.86 118.399C1238.86 108.292 1236.75 100.25 1232.53 94.2729C1228.4 88.2085 1222.82 85.1763 1215.79 85.1763C1208.76 85.1763 1203.13 88.2085 1198.91 94.2729C1194.78 100.25 1192.67 108.335 1192.58 118.531C1192.67 128.726 1194.78 136.812 1198.91 142.789ZM1310.97 191.172V45.6255H1363.71V74.2339H1364.76C1370.21 53.7554 1381.55 43.5161 1398.78 43.5161C1403.43 43.5161 1407.65 44.2192 1411.43 45.6255V90.9771C1406.69 88.9556 1401.46 87.9448 1395.74 87.9448C1375.27 87.9448 1365.03 98.1841 1365.03 118.663V191.172H1310.97ZM1493.57 79.1118C1487.41 79.1118 1482.23 81.1333 1478.01 85.1763C1473.79 89.2192 1471.42 94.3608 1470.89 100.601H1516.24C1515.8 94.0972 1513.47 88.9116 1509.25 85.0444C1505.12 81.0894 1499.89 79.1118 1493.57 79.1118ZM1517.82 143.975H1565.94C1563.66 159.708 1556.1 172.144 1543.27 181.285C1530.44 190.337 1514.04 194.864 1494.09 194.864C1470.28 194.864 1451.64 188.184 1438.2 174.825C1424.75 161.377 1418.02 142.833 1418.02 119.19C1418.02 95.3716 1424.7 76.563 1438.06 62.7642C1451.42 48.8774 1469.53 41.9341 1492.38 41.9341C1514.97 41.9341 1532.99 48.6138 1546.43 61.9731C1559.88 75.2446 1566.6 92.9985 1566.6 115.235V129.869H1470.1V133.296C1470.1 140.416 1472.43 146.304 1477.09 150.962C1481.75 155.533 1487.68 157.818 1494.88 157.818C1500.42 157.818 1505.21 156.587 1509.25 154.126C1513.39 151.666 1516.24 148.282 1517.82 143.975ZM1580.58 90.8452C1580.58 75.6401 1586.64 63.687 1598.77 54.9858C1610.9 46.2847 1627.56 41.9341 1648.74 41.9341C1670.01 41.9341 1686.62 46.4165 1698.57 55.3813C1710.61 64.3462 1716.63 76.7827 1716.63 92.6909H1667.59C1667.59 87.9448 1665.83 84.2095 1662.32 81.4849C1658.89 78.6724 1654.23 77.2661 1648.34 77.2661C1643.51 77.2661 1639.6 78.189 1636.61 80.0347C1633.71 81.7925 1632.26 84.2095 1632.26 87.2856C1632.26 91.856 1636.96 95.02 1646.36 96.7778L1679.19 103.238C1693.61 106.05 1704.15 110.708 1710.83 117.212C1717.6 123.628 1720.98 132.374 1720.98 143.448C1720.98 159.18 1714.48 171.705 1701.47 181.021C1688.55 190.25 1671.37 194.864 1649.92 194.864C1627.51 194.864 1610.02 190.337 1597.45 181.285C1584.97 172.144 1578.25 159.708 1577.28 143.975H1629.49C1630.02 148.809 1632.13 152.632 1635.82 155.445C1639.6 158.169 1644.52 159.532 1650.58 159.532C1655.86 159.532 1659.99 158.697 1662.98 157.027C1665.96 155.269 1667.46 152.896 1667.46 149.908C1667.46 147.623 1666.4 145.777 1664.29 144.371C1662.18 142.876 1658.67 141.69 1653.75 140.811L1625.67 135.274C1610.99 132.374 1599.78 127.144 1592.05 119.585C1584.4 111.939 1580.58 102.359 1580.58 90.8452ZM1732.98 90.8452C1732.98 75.6401 1739.04 63.687 1751.17 54.9858C1763.3 46.2847 1779.96 41.9341 1801.14 41.9341C1822.41 41.9341 1839.02 46.4165 1850.97 55.3813C1863.01 64.3462 1869.04 76.7827 1869.04 92.6909H1819.99C1819.99 87.9448 1818.23 84.2095 1814.72 81.4849C1811.29 78.6724 1806.63 77.2661 1800.74 77.2661C1795.91 77.2661 1792 78.189 1789.01 80.0347C1786.11 81.7925 1784.66 84.2095 1784.66 87.2856C1784.66 91.856 1789.36 95.02 1798.77 96.7778L1831.59 103.238C1846.01 106.05 1856.55 110.708 1863.23 117.212C1870 123.628 1873.39 132.374 1873.39 143.448C1873.39 159.18 1866.88 171.705 1853.87 181.021C1840.95 190.25 1823.77 194.864 1802.33 194.864C1779.91 194.864 1762.42 190.337 1749.86 181.285C1737.38 172.144 1730.65 159.708 1729.68 143.975H1781.89C1782.42 148.809 1784.53 152.632 1788.22 155.445C1792 158.169 1796.92 159.532 1802.99 159.532C1808.26 159.532 1812.39 158.697 1815.38 157.027C1818.37 155.269 1819.86 152.896 1819.86 149.908C1819.86 147.623 1818.81 145.777 1816.7 144.371C1814.59 142.876 1811.07 141.69 1806.15 140.811L1778.07 135.274C1763.39 132.374 1752.18 127.144 1744.45 119.585C1736.8 111.939 1732.98 102.359 1732.98 90.8452Z"/>
</mask>
<path d="M57.082 191.172V191.672H57.582V191.172H57.082ZM1.18359 191.172H0.683594V191.672H1.18359V191.172ZM1.18359 0.933105V0.433105H0.683594V0.933105H1.18359ZM57.082 0.933105H57.582V0.433105H57.082V0.933105ZM57.082 81.6167H56.582V82.1167H57.082V81.6167ZM58.1367 81.6167V82.1167H58.391L58.5408 81.9112L58.1367 81.6167ZM116.936 0.933105V0.433105H116.681L116.531 0.638627L116.936 0.933105ZM175.603 0.933105L176.004 1.23079L176.595 0.433105H175.603V0.933105ZM112.98 85.4399L112.579 85.1423L112.377 85.4149L112.555 85.7033L112.98 85.4399ZM178.503 191.172V191.672H179.401L178.928 190.909L178.503 191.172ZM113.508 191.172L113.078 191.428L113.223 191.672H113.508V191.172ZM71.9795 121.299L72.4093 121.044L72.0259 120.399L71.5782 121.001L71.9795 121.299ZM57.082 141.338L56.6808 141.04L56.582 141.173V141.338H57.082ZM264.855 152.413L265.14 152.824L265.145 152.82L264.855 152.413ZM271.711 130.264H272.211V129.728L271.677 129.765L271.711 130.264ZM237.038 153.863L236.729 154.256L236.736 154.261L237.038 153.863ZM193.796 180.757L193.465 181.133L193.467 181.134L193.796 180.757ZM194.851 116.685L195.147 117.088L195.147 117.088L194.851 116.685ZM239.807 103.37L239.776 102.871L239.775 102.871L239.807 103.37ZM271.711 101.392L271.742 101.891L272.211 101.862V101.392H271.711ZM235.192 92.6909V93.1909H235.639L235.689 92.7474L235.192 92.6909ZM186.94 92.6909L186.441 92.6685L186.417 93.1909H186.94V92.6909ZM206.716 55.645L207.009 56.0498L207.011 56.0484L206.716 55.645ZM305.856 55.7769L305.558 56.1779L305.56 56.1792L305.856 55.7769ZM324.445 191.172V191.672H324.945V191.172H324.445ZM271.711 191.172H271.211V191.672H271.711V191.172ZM271.711 171.661H272.211V171.161H271.711V171.661ZM270.656 171.661V171.161H270.358L270.216 171.424L270.656 171.661ZM253.386 187.613L253.168 187.163L253.166 187.164L253.386 187.613ZM342.375 191.172H341.875V191.672H342.375V191.172ZM342.375 163.75L341.993 163.428L341.875 163.568V163.75H342.375ZM407.37 86.7583L407.752 87.0808L407.87 86.9411V86.7583H407.37ZM407.37 85.7036H407.87V85.2036H407.37V85.7036ZM344.484 85.7036H343.984V86.2036H344.484V85.7036ZM344.484 45.6255V45.1255H343.984V45.6255H344.484ZM470.651 45.6255H471.151V45.1255H470.651V45.6255ZM470.651 77.6616L471.044 77.9708L471.151 77.8348V77.6616H470.651ZM413.698 150.04L413.305 149.73L413.198 149.866V150.04H413.698ZM413.698 151.094H413.198V151.594H413.698V151.094ZM473.552 151.094H474.052V150.594H473.552V151.094ZM473.552 191.172V191.672H474.052V191.172H473.552ZM571.506 152.413L571.79 152.824L571.796 152.82L571.506 152.413ZM578.361 130.264H578.861V129.728L578.327 129.765L578.361 130.264ZM543.688 153.863L543.379 154.256L543.387 154.261L543.688 153.863ZM500.446 180.757L500.116 181.133L500.118 181.134L500.446 180.757ZM501.501 116.685L501.797 117.088L501.798 117.088L501.501 116.685ZM546.457 103.37L546.426 102.871L546.426 102.871L546.457 103.37ZM578.361 101.392L578.392 101.891L578.861 101.862V101.392H578.361ZM541.843 92.6909V93.1909H542.289L542.34 92.7474L541.843 92.6909ZM493.591 92.6909L493.091 92.6685L493.068 93.1909H493.591V92.6909ZM513.366 55.645L513.66 56.0498L513.662 56.0484L513.366 55.645ZM612.507 55.7769L612.208 56.1779L612.21 56.1792L612.507 55.7769ZM631.096 191.172V191.672H631.596V191.172H631.096ZM578.361 191.172H577.861V191.672H578.361V191.172ZM578.361 171.661H578.861V171.161H578.361V171.661ZM577.307 171.661V171.161H577.008L576.866 171.424L577.307 171.661ZM560.036 187.613L559.819 187.163L559.817 187.164L560.036 187.613ZM651.53 191.172H651.03V191.672H651.53V191.172ZM651.53 45.6255V45.1255H651.03V45.6255H651.53ZM704.265 45.6255H704.765V45.1255H704.265V45.6255ZM704.265 74.2339H703.765V74.7339H704.265V74.2339ZM705.319 74.2339V74.7339H705.671L705.79 74.4028L705.319 74.2339ZM787.453 57.2271L787.081 57.5616L787.085 57.5651L787.453 57.2271ZM800.637 191.172V191.672H801.137V191.172H800.637ZM746.584 191.172H746.084V191.672H746.584V191.172ZM741.311 92.5591L740.926 92.8784L740.93 92.8831L741.311 92.5591ZM711.12 92.9546L711.5 93.28L711.503 93.2762L711.12 92.9546ZM705.583 191.172V191.672H706.083V191.172H705.583ZM957.521 146.744H958.021V146.244H957.521V146.744ZM957.521 191.172V191.672H958.021V191.172H957.521ZM823.312 191.172H822.812V191.672H823.312V191.172ZM823.312 0.933105V0.433105H822.812V0.933105H823.312ZM957.521 0.933105H958.021V0.433105H957.521V0.933105ZM957.521 45.3618V45.8618H958.021V45.3618H957.521ZM879.211 45.3618V44.8618H878.711V45.3618H879.211ZM879.211 76.0796H878.711V76.5796H879.211V76.0796ZM952.644 76.0796H953.144V75.5796H952.644V76.0796ZM952.644 116.158V116.658H953.144V116.158H952.644ZM879.211 116.158V115.658H878.711V116.158H879.211ZM879.211 146.744H878.711V147.244H879.211V146.744ZM1048.36 145.425L1048.81 145.218L1048.68 144.925H1048.36V145.425ZM1047.3 145.425V144.925H1046.97L1046.84 145.225L1047.3 145.425ZM1027.26 191.172V191.672H1027.59L1027.72 191.373L1027.26 191.172ZM971.76 191.172L971.327 190.921L970.892 191.672H971.76V191.172ZM1013.68 118.926L1014.12 119.177L1014.26 118.928L1014.12 118.677L1013.68 118.926ZM971.628 45.6255V45.1255H970.765L971.194 45.8743L971.628 45.6255ZM1032.8 45.6255L1033.26 45.4386L1033.14 45.1255H1032.8V45.6255ZM1050.6 89.7905L1050.13 89.9774L1050.26 90.2905H1050.6V89.7905ZM1051.65 89.7905V90.2905H1051.99L1052.12 89.9762L1051.65 89.7905ZM1069.32 45.6255V45.1255H1068.98L1068.85 45.4398L1069.32 45.6255ZM1127.46 45.6255L1127.89 45.877L1128.33 45.1255H1127.46V45.6255ZM1085.4 117.872L1084.97 117.62L1084.82 117.87L1084.97 118.12L1085.4 117.872ZM1127.46 191.172V191.672H1128.32L1127.89 190.924L1127.46 191.172ZM1069.19 191.172L1068.73 191.38L1068.86 191.672H1069.19V191.172ZM1279.6 173.902L1280 174.203L1280 174.202L1279.6 173.902ZM1210.51 186.163L1210.25 186.585L1210.25 186.587L1210.51 186.163ZM1193.9 165.992L1194.37 165.807L1194.24 165.492H1193.9V165.992ZM1192.85 165.992V165.492H1192.35V165.992H1192.85ZM1192.85 237.71V238.21H1193.35V237.71H1192.85ZM1138.8 237.71H1138.3V238.21H1138.8V237.71ZM1138.8 45.6255V45.1255H1138.3V45.6255H1138.8ZM1192.98 45.6255H1193.48V45.1255H1192.98V45.6255ZM1192.98 71.8608H1192.48V72.3608H1192.98V71.8608ZM1193.9 71.8608V72.3608H1194.24L1194.37 72.0434L1193.9 71.8608ZM1210.38 51.0308L1210.66 51.4483L1210.66 51.4475L1210.38 51.0308ZM1198.91 142.789L1198.5 143.073L1198.5 143.076L1198.91 142.789ZM1232.53 94.2729L1232.12 94.5545L1232.12 94.5613L1232.53 94.2729ZM1198.91 94.2729L1198.5 93.9874L1198.5 93.9887L1198.91 94.2729ZM1192.58 118.531L1192.08 118.526V118.535L1192.58 118.531ZM1310.97 191.172H1310.47V191.672H1310.97V191.172ZM1310.97 45.6255V45.1255H1310.47V45.6255H1310.97ZM1363.71 45.6255H1364.21V45.1255H1363.71V45.6255ZM1363.71 74.2339H1363.21V74.7339H1363.71V74.2339ZM1364.76 74.2339V74.7339H1365.15L1365.25 74.3625L1364.76 74.2339ZM1411.43 45.6255H1411.93V45.278L1411.61 45.1569L1411.43 45.6255ZM1411.43 90.9771L1411.24 91.4371L1411.93 91.7335V90.9771H1411.43ZM1365.03 191.172V191.672H1365.53V191.172H1365.03ZM1470.89 100.601L1470.39 100.559L1470.35 101.101H1470.89V100.601ZM1516.24 100.601V101.101H1516.78L1516.74 100.567L1516.24 100.601ZM1509.25 85.0444L1508.91 85.4057L1508.92 85.413L1509.25 85.0444ZM1517.82 143.975V143.475H1517.48L1517.35 143.803L1517.82 143.975ZM1565.94 143.975L1566.44 144.047L1566.52 143.475H1565.94V143.975ZM1543.27 181.285L1543.56 181.693L1543.56 181.692L1543.27 181.285ZM1438.2 174.825L1437.84 175.178L1437.84 175.179L1438.2 174.825ZM1438.06 62.7642L1438.42 63.1119L1438.42 63.1108L1438.06 62.7642ZM1546.43 61.9731L1546.08 62.3279L1546.08 62.329L1546.43 61.9731ZM1566.6 129.869V130.369H1567.1V129.869H1566.6ZM1470.1 129.869V129.369H1469.6V129.869H1470.1ZM1477.09 150.962L1476.73 151.316L1476.74 151.319L1477.09 150.962ZM1509.25 154.126L1509 153.697L1508.99 153.699L1509.25 154.126ZM1698.57 55.3813L1698.27 55.7813L1698.27 55.7824L1698.57 55.3813ZM1716.63 92.6909V93.1909H1717.13V92.6909H1716.63ZM1667.59 92.6909H1667.09V93.1909H1667.59V92.6909ZM1662.32 81.4849L1662 81.8716L1662.01 81.8801L1662.32 81.4849ZM1636.61 80.0347L1636.87 80.4623L1636.87 80.4601L1636.61 80.0347ZM1646.36 96.7778L1646.46 96.2872L1646.46 96.2863L1646.36 96.7778ZM1679.19 103.238L1679.09 103.728L1679.1 103.729L1679.19 103.238ZM1710.83 117.212L1710.48 117.571L1710.49 117.575L1710.83 117.212ZM1701.47 181.021L1701.76 181.428L1701.76 181.427L1701.47 181.021ZM1597.45 181.285L1597.16 181.688L1597.16 181.69L1597.45 181.285ZM1577.28 143.975V143.475H1576.75L1576.78 144.006L1577.28 143.975ZM1629.49 143.975L1629.99 143.921L1629.94 143.475H1629.49V143.975ZM1635.82 155.445L1635.51 155.843L1635.53 155.85L1635.82 155.445ZM1662.98 157.027L1663.22 157.463L1663.23 157.458L1662.98 157.027ZM1664.29 144.371L1664 144.779L1664.01 144.783L1664.02 144.787L1664.29 144.371ZM1653.75 140.811L1653.65 141.302L1653.66 141.303L1653.75 140.811ZM1625.67 135.274L1625.57 135.764L1625.57 135.764L1625.67 135.274ZM1592.05 119.585L1591.69 119.939L1591.7 119.943L1592.05 119.585ZM1850.97 55.3813L1850.67 55.7813L1850.68 55.7824L1850.97 55.3813ZM1869.04 92.6909V93.1909H1869.54V92.6909H1869.04ZM1819.99 92.6909H1819.49V93.1909H1819.99V92.6909ZM1814.72 81.4849L1814.4 81.8716L1814.41 81.8801L1814.72 81.4849ZM1789.01 80.0347L1789.27 80.4623L1789.27 80.4601L1789.01 80.0347ZM1798.77 96.7778L1798.86 96.2872L1798.86 96.2863L1798.77 96.7778ZM1831.59 103.238L1831.5 103.728L1831.5 103.729L1831.59 103.238ZM1863.23 117.212L1862.89 117.571L1862.89 117.575L1863.23 117.212ZM1853.87 181.021L1854.16 181.428L1854.17 181.427L1853.87 181.021ZM1749.86 181.285L1749.56 181.688L1749.56 181.69L1749.86 181.285ZM1729.68 143.975V143.475H1729.15L1729.19 144.006L1729.68 143.975ZM1781.89 143.975L1782.39 143.921L1782.34 143.475H1781.89V143.975ZM1788.22 155.445L1787.92 155.843L1787.93 155.85L1788.22 155.445ZM1815.38 157.027L1815.62 157.463L1815.63 157.458L1815.38 157.027ZM1816.7 144.371L1816.41 144.779L1816.41 144.783L1816.42 144.787L1816.7 144.371ZM1806.15 140.811L1806.05 141.302L1806.06 141.303L1806.15 140.811ZM1778.07 135.274L1777.97 135.764L1777.97 135.764L1778.07 135.274ZM1744.45 119.585L1744.1 119.939L1744.1 119.943L1744.45 119.585ZM57.082 190.672H1.18359V191.672H57.082V190.672ZM1.68359 191.172V0.933105H0.683594V191.172H1.68359ZM1.18359 1.43311H57.082V0.433105H1.18359V1.43311ZM56.582 0.933105V81.6167H57.582V0.933105H56.582ZM57.082 82.1167H58.1367V81.1167H57.082V82.1167ZM58.5408 81.9112L117.34 1.22758L116.531 0.638627L57.7326 81.3222L58.5408 81.9112ZM116.936 1.43311H175.603V0.433105H116.936V1.43311ZM175.201 0.635417L112.579 85.1423L113.382 85.7376L176.004 1.23079L175.201 0.635417ZM112.555 85.7033L178.078 191.436L178.928 190.909L113.405 85.1766L112.555 85.7033ZM178.503 190.672H113.508V191.672H178.503V190.672ZM113.938 190.917L72.4093 121.044L71.5497 121.555L113.078 191.428L113.938 190.917ZM71.5782 121.001L56.6808 141.04L57.4833 141.637L72.3808 121.598L71.5782 121.001ZM56.582 141.338V191.172H57.582V141.338H56.582ZM248.64 157.659C254.969 157.659 260.476 156.053 265.14 152.824L264.571 152.001C260.094 155.101 254.791 156.659 248.64 156.659V157.659ZM265.145 152.82C269.835 149.483 272.211 145.119 272.211 139.756H271.211C271.211 144.765 269.017 148.838 264.566 152.005L265.145 152.82ZM272.211 139.756V130.264H271.211V139.756H272.211ZM271.677 129.765L248.737 131.347L248.806 132.345L271.745 130.763L271.677 129.765ZM248.737 131.347C243.577 131.703 239.51 133.041 236.591 135.413L237.222 136.189C239.927 133.991 243.77 132.692 248.806 132.345L248.737 131.347ZM236.591 135.413C233.662 137.793 232.188 140.879 232.188 144.634H233.188C233.188 141.182 234.525 138.38 237.222 136.189L236.591 135.413ZM232.188 144.634C232.188 148.646 233.701 151.87 236.729 154.256L237.348 153.47C234.574 151.285 233.188 148.357 233.188 144.634H232.188ZM236.736 154.261C239.748 156.543 243.732 157.659 248.64 157.659V156.659C243.879 156.659 240.129 155.577 237.34 153.464L236.736 154.261ZM228.469 192.782C215.046 192.782 203.607 188.645 194.124 180.38L193.467 181.134C203.145 189.569 214.821 193.782 228.469 193.782V192.782ZM194.126 180.382C184.655 172.04 179.926 161.542 179.926 148.853H178.926C178.926 161.828 183.777 172.6 193.465 181.133L194.126 180.382ZM179.926 148.853C179.926 135.109 185.004 124.543 195.147 117.088L194.554 116.282C184.13 123.944 178.926 134.824 178.926 148.853H179.926ZM195.147 117.088C205.41 109.521 220.288 105.096 239.838 103.869L239.775 102.871C220.127 104.104 205.033 108.557 194.554 116.283L195.147 117.088ZM239.838 103.869L271.742 101.891L271.68 100.893L239.776 102.871L239.838 103.869ZM272.211 101.392V94.2729H271.211V101.392H272.211ZM272.211 94.2729C272.211 89.3988 270.534 85.5555 267.148 82.8104L266.518 83.5871C269.636 86.1154 271.211 89.6549 271.211 94.2729H272.211ZM267.148 82.8104C263.787 80.0855 259.449 78.7437 254.177 78.7437V79.7437C259.276 79.7437 263.375 81.0385 266.518 83.5871L267.148 82.8104ZM254.177 78.7437C248.736 78.7437 244.229 80.0379 240.695 82.6657L241.292 83.4681C244.613 80.9982 248.895 79.7437 254.177 79.7437V78.7437ZM240.695 82.6657C237.168 85.2881 235.152 88.6156 234.696 92.6345L235.689 92.7474C236.111 89.0318 237.963 85.9434 241.292 83.4681L240.695 82.6657ZM235.192 92.1909H186.94V93.1909H235.192V92.1909ZM187.44 92.7134C188.136 77.2182 194.654 65.0114 207.009 56.0498L206.422 55.2403C193.816 64.3841 187.151 76.8746 186.441 92.6685L187.44 92.7134ZM207.011 56.0484C219.38 46.9898 236.052 42.4341 257.077 42.4341V41.4341C235.915 41.4341 219.013 46.019 206.42 55.2416L207.011 56.0484ZM257.077 42.4341C277.129 42.4341 293.274 47.0307 305.558 56.1779L306.155 55.3758C293.653 46.066 277.279 41.4341 257.077 41.4341V42.4341ZM305.56 56.1792C317.831 65.2304 323.945 77.0372 323.945 91.6362H324.945C324.945 76.704 318.667 64.6046 306.153 55.3745L305.56 56.1792ZM323.945 91.6362V191.172H324.945V91.6362H323.945ZM324.445 190.672H271.711V191.672H324.445V190.672ZM272.211 191.172V171.661H271.211V191.172H272.211ZM271.711 171.161H270.656V172.161H271.711V171.161ZM270.216 171.424C266.58 178.176 260.907 183.424 253.168 187.163L253.603 188.063C261.509 184.243 267.349 178.857 271.096 171.898L270.216 171.424ZM253.166 187.164C245.502 190.908 237.272 192.782 228.469 192.782V193.782C237.419 193.782 245.8 191.876 253.605 188.062L253.166 187.164ZM342.875 191.172V163.75H341.875V191.172H342.875ZM342.757 164.073L407.752 87.0808L406.988 86.4358L341.993 163.428L342.757 164.073ZM407.87 86.7583V85.7036H406.87V86.7583H407.87ZM407.37 85.2036H344.484V86.2036H407.37V85.2036ZM344.984 85.7036V45.6255H343.984V85.7036H344.984ZM344.484 46.1255H470.651V45.1255H344.484V46.1255ZM470.151 45.6255V77.6616H471.151V45.6255H470.151ZM470.258 77.3524L413.305 149.73L414.091 150.349L471.044 77.9708L470.258 77.3524ZM413.198 150.04V151.094H414.198V150.04H413.198ZM413.698 151.594H473.552V150.594H413.698V151.594ZM473.052 151.094V191.172H474.052V151.094H473.052ZM473.552 190.672H342.375V191.672H473.552V190.672ZM555.29 157.659C561.619 157.659 567.126 156.053 571.79 152.824L571.221 152.001C566.745 155.101 561.442 156.659 555.29 156.659V157.659ZM571.796 152.82C576.485 149.483 578.861 145.119 578.861 139.756H577.861C577.861 144.765 575.667 148.838 571.216 152.005L571.796 152.82ZM578.861 139.756V130.264H577.861V139.756H578.861ZM578.327 129.765L555.387 131.347L555.456 132.345L578.396 130.763L578.327 129.765ZM555.387 131.347C550.228 131.703 546.161 133.041 543.241 135.413L543.872 136.189C546.578 133.991 550.421 132.692 555.456 132.345L555.387 131.347ZM543.241 135.413C540.313 137.793 538.838 140.879 538.838 144.634H539.838C539.838 141.182 541.176 138.38 543.872 136.189L543.241 135.413ZM538.838 144.634C538.838 148.646 540.352 151.87 543.379 154.256L543.998 153.47C541.224 151.285 539.838 148.357 539.838 144.634H538.838ZM543.387 154.261C546.398 156.543 550.383 157.659 555.29 157.659V156.659C550.529 156.659 546.779 155.577 543.99 153.464L543.387 154.261ZM535.119 192.782C521.696 192.782 510.258 188.645 500.775 180.38L500.118 181.134C509.795 189.569 521.472 193.782 535.119 193.782V192.782ZM500.777 180.382C491.305 172.04 486.576 161.542 486.576 148.853H485.576C485.576 161.828 490.427 172.6 500.116 181.133L500.777 180.382ZM486.576 148.853C486.576 135.109 491.655 124.543 501.797 117.088L501.205 116.282C490.781 123.944 485.576 134.824 485.576 148.853H486.576ZM501.798 117.088C512.061 109.521 526.938 105.096 546.488 103.869L546.426 102.871C526.777 104.104 511.683 108.557 501.204 116.283L501.798 117.088ZM546.488 103.869L578.392 101.891L578.33 100.893L546.426 102.871L546.488 103.869ZM578.861 101.392V94.2729H577.861V101.392H578.861ZM578.861 94.2729C578.861 89.3988 577.184 85.5555 573.798 82.8104L573.169 83.5871C576.287 86.1154 577.861 89.6549 577.861 94.2729H578.861ZM573.798 82.8104C570.438 80.0855 566.099 78.7437 560.827 78.7437V79.7437C565.926 79.7437 570.025 81.0385 573.169 83.5871L573.798 82.8104ZM560.827 78.7437C555.386 78.7437 550.879 80.0379 547.345 82.6657L547.942 83.4681C551.263 80.9982 555.546 79.7437 560.827 79.7437V78.7437ZM547.345 82.6657C543.818 85.2881 541.803 88.6156 541.346 92.6345L542.34 92.7474C542.762 89.0318 544.613 85.9434 547.942 83.4681L547.345 82.6657ZM541.843 92.1909H493.591V93.1909H541.843V92.1909ZM494.09 92.7134C494.787 77.2182 501.305 65.0114 513.66 56.0498L513.073 55.2403C500.467 64.3841 493.801 76.8746 493.091 92.6685L494.09 92.7134ZM513.662 56.0484C526.03 46.9898 542.702 42.4341 563.728 42.4341V41.4341C542.565 41.4341 525.663 46.019 513.071 55.2416L513.662 56.0484ZM563.728 42.4341C583.779 42.4341 599.925 47.0307 612.208 56.1779L612.805 55.3758C600.304 46.066 583.93 41.4341 563.728 41.4341V42.4341ZM612.21 56.1792C624.481 65.2304 630.596 77.0372 630.596 91.6362H631.596C631.596 76.704 625.318 64.6046 612.804 55.3745L612.21 56.1792ZM630.596 91.6362V191.172H631.596V91.6362H630.596ZM631.096 190.672H578.361V191.672H631.096V190.672ZM578.861 191.172V171.661H577.861V191.172H578.861ZM578.361 171.161H577.307V172.161H578.361V171.161ZM576.866 171.424C573.231 178.176 567.558 183.424 559.819 187.163L560.254 188.063C568.159 184.243 574 178.857 577.747 171.898L576.866 171.424ZM559.817 187.164C552.153 190.908 543.922 192.782 535.119 192.782V193.782C544.07 193.782 552.451 191.876 560.256 188.062L559.817 187.164ZM652.03 191.172V45.6255H651.03V191.172H652.03ZM651.53 46.1255H704.265V45.1255H651.53V46.1255ZM703.765 45.6255V74.2339H704.765V45.6255H703.765ZM704.265 74.7339H705.319V73.7339H704.265V74.7339ZM705.79 74.4028C709.453 64.1982 715.023 56.467 722.484 51.1749L721.905 50.3593C714.249 55.7898 708.568 63.7031 704.849 74.065L705.79 74.4028ZM722.484 51.1749C729.943 45.884 739.109 43.2251 750.012 43.2251V42.2251C738.941 42.2251 729.563 44.9275 721.905 50.3593L722.484 51.1749ZM750.012 43.2251C766.168 43.2251 778.498 48.0243 787.081 57.5615L787.825 56.8926C779.006 47.0939 766.375 42.2251 750.012 42.2251V43.2251ZM787.085 57.5651C795.763 67.0245 800.137 80.4667 800.137 97.9644H801.137C801.137 80.3058 796.721 66.5897 787.822 56.889L787.085 57.5651ZM800.137 97.9644V191.172H801.137V97.9644H800.137ZM800.637 190.672H746.584V191.672H800.637V190.672ZM747.084 191.172V109.961H746.084V191.172H747.084ZM747.084 109.961C747.084 102.417 745.309 96.4854 741.691 92.235L740.93 92.8831C744.344 96.8945 746.084 102.565 746.084 109.961H747.084ZM741.695 92.2398C738.15 87.9671 732.938 85.8628 726.149 85.8628V86.8628C732.72 86.8628 737.616 88.8894 740.926 92.8784L741.695 92.2398ZM726.149 85.8628C719.691 85.8628 714.534 88.1129 710.737 92.633L711.503 93.2762C715.089 89.0072 719.952 86.8628 726.149 86.8628V85.8628ZM710.74 92.6292C706.955 97.0455 705.083 102.795 705.083 109.83H706.083C706.083 102.978 707.902 97.4769 711.5 93.28L710.74 92.6292ZM705.083 109.83V191.172H706.083V109.83H705.083ZM705.583 190.672H651.53V191.672H705.583V190.672ZM957.021 146.744V191.172H958.021V146.744H957.021ZM957.521 190.672H823.312V191.672H957.521V190.672ZM823.812 191.172V0.933105H822.812V191.172H823.812ZM823.312 1.43311H957.521V0.433105H823.312V1.43311ZM957.021 0.933105V45.3618H958.021V0.933105H957.021ZM957.521 44.8618H879.211V45.8618H957.521V44.8618ZM878.711 45.3618V76.0796H879.711V45.3618H878.711ZM879.211 76.5796H952.644V75.5796H879.211V76.5796ZM952.144 76.0796V116.158H953.144V76.0796H952.144ZM952.644 115.658H879.211V116.658H952.644V115.658ZM878.711 116.158V146.744H879.711V116.158H878.711ZM879.211 147.244H957.521V146.244H879.211V147.244ZM1048.36 144.925H1047.3V145.925H1048.36V144.925ZM1046.84 145.225L1026.8 190.972L1027.72 191.373L1047.76 145.626L1046.84 145.225ZM1027.26 190.672H971.76V191.672H1027.26V190.672ZM972.192 191.423L1014.12 119.177L1013.25 118.675L971.327 190.921L972.192 191.423ZM1014.12 118.677L972.062 45.3767L971.194 45.8743L1013.25 119.175L1014.12 118.677ZM971.628 46.1255H1032.8V45.1255H971.628V46.1255ZM1032.34 45.8124L1050.13 89.9774L1051.06 89.6036L1033.26 45.4386L1032.34 45.8124ZM1050.6 90.2905H1051.65V89.2905H1050.6V90.2905ZM1052.12 89.9762L1069.78 45.8112L1068.85 45.4398L1051.19 89.6048L1052.12 89.9762ZM1069.32 46.1255H1127.46V45.1255H1069.32V46.1255ZM1127.03 45.3739L1084.97 117.62L1085.83 118.123L1127.89 45.877L1127.03 45.3739ZM1084.97 118.12L1127.02 191.421L1127.89 190.924L1085.84 117.623L1084.97 118.12ZM1127.46 190.672H1069.19V191.672H1127.46V190.672ZM1069.64 190.965L1048.81 145.218L1047.9 145.632L1068.73 191.38L1069.64 190.965ZM1237.28 44.0161C1255.42 44.0161 1269.33 50.42 1279.07 63.199L1279.86 62.593C1269.91 49.5321 1255.69 43.0161 1237.28 43.0161V44.0161ZM1279.07 63.199C1288.82 75.9988 1293.73 94.3758 1293.73 118.399H1294.73C1294.73 94.258 1289.8 75.6331 1279.86 62.593L1279.07 63.199ZM1293.73 118.399C1293.73 142.334 1288.86 160.713 1279.2 173.602L1280 174.202C1289.84 161.075 1294.73 142.452 1294.73 118.399H1293.73ZM1279.2 173.601C1269.55 186.38 1255.82 192.782 1237.94 192.782V193.782C1256.09 193.782 1270.13 187.264 1280 174.203L1279.2 173.601ZM1237.94 192.782C1227.38 192.782 1218.33 190.426 1210.78 185.738L1210.25 186.587C1217.99 191.391 1227.23 193.782 1237.94 193.782V192.782ZM1210.78 185.74C1203.23 180.964 1197.76 174.325 1194.37 165.807L1193.44 166.177C1196.9 174.885 1202.51 181.693 1210.25 186.585L1210.78 185.74ZM1193.9 165.492H1192.85V166.492H1193.9V165.492ZM1192.35 165.992V237.71H1193.35V165.992H1192.35ZM1192.85 237.21H1138.8V238.21H1192.85V237.21ZM1139.3 237.71V45.6255H1138.3V237.71H1139.3ZM1138.8 46.1255H1192.98V45.1255H1138.8V46.1255ZM1192.48 45.6255V71.8608H1193.48V45.6255H1192.48ZM1192.98 72.3608H1193.9V71.3608H1192.98V72.3608ZM1194.37 72.0434C1197.85 63.1669 1203.28 56.309 1210.66 51.4483L1210.11 50.6132C1202.54 55.5963 1196.99 62.6251 1193.44 71.6783L1194.37 72.0434ZM1210.66 51.4475C1218.12 46.4996 1226.99 44.0161 1237.28 44.0161V43.0161C1226.82 43.0161 1217.76 45.5424 1210.11 50.614L1210.66 51.4475ZM1198.5 143.076C1202.73 149.096 1208.5 152.122 1215.79 152.122V151.122C1208.83 151.122 1203.36 148.258 1199.32 142.501L1198.5 143.076ZM1215.79 152.122C1223.08 152.122 1228.85 149.049 1233.07 142.941L1232.25 142.372C1228.21 148.217 1222.74 151.122 1215.79 151.122V152.122ZM1233.07 142.941C1237.28 136.853 1239.36 128.656 1239.36 118.399H1238.36C1238.36 128.532 1236.31 136.507 1232.25 142.372L1233.07 142.941ZM1239.36 118.399C1239.36 108.227 1237.24 100.072 1232.94 93.9846L1232.12 94.5613C1236.26 100.427 1238.36 108.356 1238.36 118.399H1239.36ZM1232.94 93.9915C1228.73 87.7974 1222.99 84.6763 1215.79 84.6763V85.6763C1222.65 85.6763 1228.08 88.6196 1232.12 94.5544L1232.94 93.9915ZM1215.79 84.6763C1208.58 84.6763 1202.81 87.7967 1198.5 93.9874L1199.32 94.5585C1203.45 88.6203 1208.93 85.6763 1215.79 85.6763V84.6763ZM1198.5 93.9887C1194.3 100.075 1192.17 108.27 1192.08 118.526L1193.08 118.535C1193.17 108.401 1195.27 100.424 1199.32 94.5572L1198.5 93.9887ZM1192.08 118.535C1192.17 128.792 1194.3 136.987 1198.5 143.073L1199.32 142.504C1195.27 136.637 1193.17 128.661 1193.08 118.526L1192.08 118.535ZM1311.47 191.172V45.6255H1310.47V191.172H1311.47ZM1310.97 46.1255H1363.71V45.1255H1310.97V46.1255ZM1363.21 45.6255V74.2339H1364.21V45.6255H1363.21ZM1363.71 74.7339H1364.76V73.7339H1363.71V74.7339ZM1365.25 74.3625C1367.95 64.1818 1372.11 56.6009 1377.69 51.5666C1383.25 46.5407 1390.27 44.0161 1398.78 44.0161V43.0161C1390.06 43.0161 1382.79 45.6112 1377.02 50.8245C1371.25 56.0295 1367.02 63.8075 1364.28 74.1053L1365.25 74.3625ZM1398.78 44.0161C1403.38 44.0161 1407.54 44.7116 1411.26 46.0941L1411.61 45.1569C1407.76 43.7269 1403.48 43.0161 1398.78 43.0161V44.0161ZM1410.93 45.6255V90.9771H1411.93V45.6255H1410.93ZM1411.63 90.517C1406.81 88.4665 1401.52 87.4448 1395.74 87.4448V88.4448C1401.4 88.4448 1406.56 89.4447 1411.24 91.4371L1411.63 90.517ZM1395.74 87.4448C1385.43 87.4448 1377.6 90.0242 1372.35 95.2707C1367.11 100.517 1364.53 108.346 1364.53 118.663H1365.53C1365.53 108.5 1368.07 100.971 1373.06 95.9778C1378.05 90.985 1385.58 88.4448 1395.74 88.4448V87.4448ZM1364.53 118.663V191.172H1365.53V118.663H1364.53ZM1365.03 190.672H1310.97V191.672H1365.03V190.672ZM1493.57 78.6118C1487.29 78.6118 1481.98 80.678 1477.66 84.8153L1478.36 85.5373C1482.48 81.5886 1487.54 79.6118 1493.57 79.6118V78.6118ZM1477.66 84.8153C1473.35 88.9488 1470.93 94.2069 1470.39 100.559L1471.39 100.643C1471.91 94.5148 1474.23 89.4897 1478.36 85.5373L1477.66 84.8153ZM1470.89 101.101H1516.24V100.101H1470.89V101.101ZM1516.74 100.567C1516.29 93.9545 1513.92 88.6421 1509.59 84.6759L1508.92 85.413C1513.03 89.1812 1515.31 94.2398 1515.74 100.635L1516.74 100.567ZM1509.6 84.6833C1505.37 80.6293 1500.01 78.6118 1493.57 78.6118V79.6118C1499.78 79.6118 1504.88 81.5494 1508.91 85.4056L1509.6 84.6833ZM1517.82 144.475H1565.94V143.475H1517.82V144.475ZM1565.45 143.903C1563.18 159.502 1555.7 171.817 1542.98 180.877L1543.56 181.692C1556.5 172.471 1564.13 159.913 1566.44 144.047L1565.45 143.903ZM1542.98 180.876C1530.25 189.855 1513.97 194.364 1494.09 194.364V195.364C1514.12 195.364 1530.62 190.82 1543.56 181.693L1542.98 180.876ZM1494.09 194.364C1470.37 194.364 1451.88 187.714 1438.55 174.47L1437.84 175.179C1451.41 188.654 1470.18 195.364 1494.09 195.364V194.364ZM1438.55 174.471C1425.22 161.139 1418.52 142.734 1418.52 119.19H1417.52C1417.52 142.931 1424.28 161.616 1437.84 175.178L1438.55 174.471ZM1418.52 119.19C1418.52 95.4685 1425.17 76.7963 1438.42 63.1119L1437.7 62.4164C1424.23 76.3297 1417.52 95.2746 1417.52 119.19H1418.52ZM1438.42 63.1108C1451.67 49.3402 1469.64 42.4341 1492.38 42.4341V41.4341C1469.42 41.4341 1451.17 48.4147 1437.7 62.4175L1438.42 63.1108ZM1492.38 42.4341C1514.86 42.4341 1532.74 49.0791 1546.08 62.3279L1546.79 61.6184C1533.23 48.1485 1515.07 41.4341 1492.38 41.4341V42.4341ZM1546.08 62.329C1559.42 75.49 1566.1 93.1068 1566.1 115.235H1567.1C1567.1 92.8903 1560.34 74.9992 1546.78 61.6173L1546.08 62.329ZM1566.1 115.235V129.869H1567.1V115.235H1566.1ZM1566.6 129.369H1470.1V130.369H1566.6V129.369ZM1469.6 129.869V133.296H1470.6V129.869H1469.6ZM1469.6 133.296C1469.6 140.536 1471.97 146.556 1476.73 151.316L1477.44 150.609C1472.88 146.052 1470.6 140.295 1470.6 133.296H1469.6ZM1476.74 151.319C1481.5 155.991 1487.56 158.318 1494.88 158.318V157.318C1487.79 157.318 1481.99 155.074 1477.44 150.605L1476.74 151.319ZM1494.88 158.318C1500.5 158.318 1505.38 157.07 1509.51 154.554L1508.99 153.699C1505.04 156.105 1500.35 157.318 1494.88 157.318V158.318ZM1509.51 154.556C1513.74 152.039 1516.67 148.567 1518.29 144.148L1517.35 143.803C1515.81 147.996 1513.04 151.292 1509 153.697L1509.51 154.556ZM1581.08 90.8452C1581.08 75.7977 1587.07 63.9973 1599.06 55.3921L1598.48 54.5796C1586.22 63.3767 1580.08 75.4826 1580.08 90.8452H1581.08ZM1599.06 55.3921C1611.08 46.7726 1627.62 42.4341 1648.74 42.4341V41.4341C1627.49 41.4341 1610.72 45.7967 1598.48 54.5796L1599.06 55.3921ZM1648.74 42.4341C1669.94 42.4341 1686.43 46.9038 1698.27 55.7813L1698.87 54.9813C1686.8 45.9292 1670.07 41.4341 1648.74 41.4341V42.4341ZM1698.27 55.7824C1710.18 64.6465 1716.13 76.9297 1716.13 92.6909H1717.13C1717.13 76.6357 1711.05 64.0459 1698.87 54.9803L1698.27 55.7824ZM1716.63 92.1909H1667.59V93.1909H1716.63V92.1909ZM1668.09 92.6909C1668.09 87.8022 1666.27 83.9161 1662.62 81.0897L1662.01 81.8801C1665.39 84.5029 1667.09 88.0874 1667.09 92.6909H1668.09ZM1662.63 81.0983C1659.09 78.1914 1654.31 76.7661 1648.34 76.7661V77.7661C1654.15 77.7661 1658.69 79.1533 1662 81.8714L1662.63 81.0983ZM1648.34 76.7661C1643.45 76.7661 1639.44 77.6997 1636.35 79.6093L1636.87 80.4601C1639.76 78.6782 1643.57 77.7661 1648.34 77.7661V76.7661ZM1636.35 79.6071C1633.32 81.4444 1631.76 84.0141 1631.76 87.2856H1632.76C1632.76 84.4048 1634.1 82.1406 1636.87 80.4623L1636.35 79.6071ZM1631.76 87.2856C1631.76 89.7779 1633.05 91.8516 1635.51 93.5013C1637.94 95.1388 1641.54 96.3853 1646.27 97.2693L1646.46 96.2863C1641.78 95.4125 1638.33 94.1981 1636.06 92.6716C1633.81 91.1572 1632.76 89.3637 1632.76 87.2856H1631.76ZM1646.27 97.2684L1679.09 103.728L1679.29 102.747L1646.46 96.2872L1646.27 97.2684ZM1679.1 103.729C1693.46 106.532 1703.9 111.163 1710.48 117.571L1711.18 116.854C1704.4 110.254 1693.75 105.568 1679.29 102.747L1679.1 103.729ZM1710.49 117.575C1717.14 123.879 1720.48 132.483 1720.48 143.448H1721.48C1721.48 132.264 1718.06 123.378 1711.18 116.85L1710.49 117.575ZM1720.48 143.448C1720.48 159.016 1714.06 171.39 1701.18 180.615L1701.76 181.427C1714.9 172.019 1721.48 159.345 1721.48 143.448H1720.48ZM1701.18 180.614C1688.37 189.764 1671.3 194.364 1649.92 194.364V195.364C1671.44 195.364 1688.73 190.735 1701.76 181.428L1701.18 180.614ZM1649.92 194.364C1627.57 194.364 1610.2 189.848 1597.75 180.879L1597.16 181.69C1609.84 190.826 1627.45 195.364 1649.92 195.364V194.364ZM1597.75 180.881C1585.39 171.83 1578.74 159.532 1577.78 143.944L1576.78 144.006C1577.76 159.883 1584.55 172.458 1597.16 181.688L1597.75 180.881ZM1577.28 144.475H1629.49V143.475H1577.28V144.475ZM1628.99 144.029C1629.53 148.992 1631.71 152.943 1635.51 155.843L1636.12 155.047C1632.54 152.322 1630.5 148.626 1629.99 143.921L1628.99 144.029ZM1635.53 155.85C1639.41 158.653 1644.45 160.032 1650.58 160.032V159.032C1644.59 159.032 1639.78 157.686 1636.11 155.039L1635.53 155.85ZM1650.58 160.032C1655.9 160.032 1660.13 159.192 1663.22 157.463L1662.73 156.59C1659.85 158.202 1655.81 159.032 1650.58 159.032V160.032ZM1663.23 157.458C1666.34 155.627 1667.96 153.105 1667.96 149.908H1666.96C1666.96 152.687 1665.59 154.911 1662.72 156.596L1663.23 157.458ZM1667.96 149.908C1667.96 147.435 1666.8 145.442 1664.57 143.955L1664.02 144.787C1666 146.112 1666.96 147.81 1666.96 149.908H1667.96ZM1664.58 143.963C1662.38 142.402 1658.77 141.201 1653.83 140.319L1653.66 141.303C1658.56 142.179 1661.99 143.351 1664 144.779L1664.58 143.963ZM1653.84 140.32L1625.76 134.783L1625.57 135.764L1653.65 141.302L1653.84 140.32ZM1625.76 134.783C1611.15 131.895 1600.04 126.697 1592.4 119.228L1591.7 119.943C1599.52 127.591 1610.83 132.852 1625.57 135.764L1625.76 134.783ZM1592.4 119.232C1584.86 111.686 1581.08 102.236 1581.08 90.8452H1580.08C1580.08 102.482 1583.95 112.192 1591.69 119.939L1592.4 119.232ZM1733.48 90.8452C1733.48 75.7977 1739.47 63.9973 1751.47 55.3921L1750.88 54.5796C1738.62 63.3767 1732.48 75.4826 1732.48 90.8452H1733.48ZM1751.47 55.3921C1763.48 46.7726 1780.02 42.4341 1801.14 42.4341V41.4341C1779.9 41.4341 1763.13 45.7967 1750.88 54.5796L1751.47 55.3921ZM1801.14 42.4341C1822.35 42.4341 1838.84 46.9038 1850.67 55.7813L1851.27 54.9813C1839.2 45.9292 1822.47 41.4341 1801.14 41.4341V42.4341ZM1850.68 55.7824C1862.58 64.6465 1868.54 76.9297 1868.54 92.6909H1869.54C1869.54 76.6357 1863.45 64.0459 1851.27 54.9803L1850.68 55.7824ZM1869.04 92.1909H1819.99V93.1909H1869.04V92.1909ZM1820.49 92.6909C1820.49 87.8022 1818.67 83.9161 1815.03 81.0897L1814.41 81.8801C1817.8 84.5029 1819.49 88.0874 1819.49 92.6909H1820.49ZM1815.04 81.0983C1811.49 78.1914 1806.71 76.7661 1800.74 76.7661V77.7661C1806.56 77.7661 1811.09 79.1533 1814.4 81.8714L1815.04 81.0983ZM1800.74 76.7661C1795.85 76.7661 1791.84 77.6997 1788.75 79.6093L1789.27 80.4601C1792.16 78.6782 1795.97 77.7661 1800.74 77.7661V76.7661ZM1788.75 79.6071C1785.72 81.4444 1784.16 84.0141 1784.16 87.2856H1785.16C1785.16 84.4048 1786.5 82.1406 1789.27 80.4623L1788.75 79.6071ZM1784.16 87.2856C1784.16 89.7779 1785.46 91.8516 1787.91 93.5013C1790.34 95.1388 1793.95 96.3853 1798.67 97.2693L1798.86 96.2863C1794.18 95.4125 1790.73 94.1981 1788.47 92.6716C1786.22 91.1572 1785.16 89.3637 1785.16 87.2856H1784.16ZM1798.67 97.2684L1831.5 103.728L1831.69 102.747L1798.86 96.2872L1798.67 97.2684ZM1831.5 103.729C1845.87 106.532 1856.3 111.163 1862.89 117.571L1863.58 116.854C1856.8 110.254 1846.15 105.568 1831.69 102.747L1831.5 103.729ZM1862.89 117.575C1869.54 123.879 1872.89 132.483 1872.89 143.448H1873.89C1873.89 132.264 1870.46 123.378 1863.58 116.85L1862.89 117.575ZM1872.89 143.448C1872.89 159.016 1866.46 171.39 1853.58 180.615L1854.17 181.427C1867.3 172.019 1873.89 159.345 1873.89 143.448H1872.89ZM1853.58 180.614C1840.77 189.764 1823.7 194.364 1802.33 194.364V195.364C1823.84 195.364 1841.13 190.735 1854.16 181.428L1853.58 180.614ZM1802.33 194.364C1779.97 194.364 1762.6 189.848 1750.15 180.879L1749.56 181.69C1762.25 190.826 1779.85 195.364 1802.33 195.364V194.364ZM1750.15 180.881C1737.79 171.83 1731.14 159.532 1730.18 143.944L1729.19 144.006C1730.16 159.883 1736.96 172.458 1749.56 181.688L1750.15 180.881ZM1729.68 144.475H1781.89V143.475H1729.68V144.475ZM1781.39 144.029C1781.94 148.992 1784.11 152.943 1787.92 155.843L1788.52 155.047C1784.95 152.322 1782.9 148.626 1782.39 143.921L1781.39 144.029ZM1787.93 155.85C1791.81 158.653 1796.85 160.032 1802.99 160.032V159.032C1796.99 159.032 1792.18 157.686 1788.51 155.039L1787.93 155.85ZM1802.99 160.032C1808.3 160.032 1812.53 159.192 1815.62 157.463L1815.13 156.59C1812.25 158.202 1808.22 159.032 1802.99 159.032V160.032ZM1815.63 157.458C1818.74 155.627 1820.36 153.105 1820.36 149.908H1819.36C1819.36 152.687 1817.99 154.911 1815.12 156.596L1815.63 157.458ZM1820.36 149.908C1820.36 147.435 1819.2 145.442 1816.97 143.955L1816.42 144.787C1818.41 146.112 1819.36 147.81 1819.36 149.908H1820.36ZM1816.99 143.963C1814.78 142.402 1811.18 141.201 1806.24 140.319L1806.06 141.303C1810.97 142.179 1814.39 143.351 1816.41 144.779L1816.99 143.963ZM1806.25 140.32L1778.17 134.783L1777.97 135.764L1806.05 141.302L1806.25 140.32ZM1778.17 134.783C1763.55 131.895 1752.44 126.697 1744.8 119.228L1744.1 119.943C1751.93 127.591 1763.23 132.852 1777.97 135.764L1778.17 134.783ZM1744.8 119.232C1737.26 111.686 1733.48 102.236 1733.48 90.8452H1732.48C1732.48 102.482 1736.35 112.192 1744.1 119.939L1744.8 119.232Z" fill="#FF0000" mask="url(#path-1-outside-1_382_469)"/>
</svg>
