<svg id="Слой_1" data-name="Слой 1" xmlns="http://www.w3.org/2000/svg" viewBox="0 0 1980 1230"><defs><style>.cls-1{fill:#ecebea;}.cls-2{fill:#eb660c;}.cls-3{fill:#20201e;}.cls-4{fill:#1c1c1c;}.cls-5{fill:#ebebea;}.cls-6{fill:#1e1e1f;}.cls-7{fill:#ec6911;}.cls-8{fill:#ec6912;}.cls-9{fill:#2e2f2d;}.cls-10{fill:#2d2d2b;}.cls-11{fill:#2f2f2e;}.cls-12{fill:#343433;}.cls-13{fill:#fff;}.cls-14{fill:#fefefe;}.cls-15{fill:#fefdfe;}.cls-16{fill:#fdfdfd;}.cls-17{fill:#332519;}.cls-18{fill:#302a24;}</style></defs><path class="cls-1" d="M1189,574.28c-1.58,4.38-2.84,8.93-4.8,13.14a462.41,462.41,0,0,1-50.13,82.76c-8.83,11.72-18.58,22.74-27.92,34.07a36,36,0,0,1-4.2.78q-21.24,1.4-42.5,2.71c-7.64.47-12.29,4.79-12,11.23.33,6.2,5.13,10.06,12.46,9.8s14.37-.68,21.55-1c-15.76,13.33-31,27.38-47.41,39.84-29.33,22.26-59.66,43.21-89,65.43-13,9.83-24.64,21.44-36.9,32.24-4.56-1-9.11-2.85-13.67-2.85-31.48,0-63,0-94.44.85q-71.82,2-143.59,5.33c-22,1-43.87,3.11-65.7,5.65-14.31,1.67-14.26,2.42-14.79,17.21q-1.39,38.5-2.72,77c-2.3-.8-4.68-1.41-6.88-2.41-20-9.1-39.71-18.92-60-27.23a176.1,176.1,0,0,0-55.52-12.31c-13.3-.85-26.7-1.79-40-1.1-17.32.9-34.62,2.93-51.83,5.26-23.26,3.15-46.37,7.51-69.66,10.47-16,2-32.22,3.81-48.31,3.52-22.66-.42-44.86-4.39-64.51-17.09-20.25-13.09-33.92-30.81-38-55-4.34-25.76.14-50.68,8.9-74.87a307.28,307.28,0,0,1,37.8-73.13A539.51,539.51,0,0,1,219,682.43c28.18-32.38,62-57.76,99.56-78.32a379.67,379.67,0,0,1,123.91-42.29c26.33-4.16,52.8-2.85,79.23-3.73,29.68-1,59.54-2.5,87.23-14.89,10.79-4.83,20.76-11.53,31.07-17.45,2.65-1.53,5.14-3.33,7.7-5l37.43,20.35c-9.9,2.83-19.93,5.47-29.82,8.58-27.12,8.56-53.3,19.18-75.81,37.11-7,5.56-13.69,11.6-17.64,20.55a336.06,336.06,0,0,0,102.44,5.08C708.65,608,750,594.83,786.54,567.77c-14.9,21.55-24,45.22-29.85,70.22-5.89,25.32-9.24,50.83-2.64,77.78-9.84-1.76-18.89-3.34-27.92-5-12.37-2.26-23.34.19-32,9.75-33.32,36.59-22.72,95.14,21.35,117.6,26,13.24,53.1,12.62,80.56,6,15.48-3.73,30.41-8.79,42.24-20.22,24.28-23.46,28.73-69.7,10.26-99.41-15.79-25.41-57.61-37.67-80.94-15.2-2.12,2-5,3.24-8.28,5.26-1-5.64-2.33-10.39-2.61-15.19-2.34-40.13,6-78,25.71-113,17.87-31.75,43.37-57.29,70.59-81,15.17-13.21,31.16-25.47,47.16-38.48l-3-3.91-37.7,28.74c-.78-1.84-.74-2.52-.41-3,25.33-34.64,52.36-67.72,86.22-94.58,26.72-21.21,55.7-32.5,90.48-22.59,24,6.82,44.93,17.24,57.1,40.17a17.1,17.1,0,0,1,1.07,12.05c-5.5,16.83-15.92,30.52-29.61,41.58-16.61,13.4-36.92,16.29-57.12,18.65-28.37,3.32-56.87,5.43-85.21,8.93-20.4,2.52-40.35,7.41-58.21,18.33-15,9.18-22.46,22.25-20.66,40.26,1.26,12.6,5.29,16.49,18,16.69,21.18.34,42.35.73,63.52,1.39,60.82,1.88,121.64,4.29,182.47,5.7C1134.32,575.93,1161.68,574.67,1189,574.28ZM947.64,719.56l-2-1.76c-18.3,5.27-36.58,10.64-54.93,15.77-4.37,1.22-3.85,3.19-1.82,6.26,18.44-5.33,36.75-10.55,55-16C945.39,723.32,946.38,721,947.64,719.56Zm-75.6-22c9.11-11.88,17.61-23.17,26.36-34.26,2.8-3.54,1.05-4.78-2.27-6.2L867.92,694ZM662.55,646.46l-1.17,1.67,11.76,43.32,5.18-1.47c-3.68-13.72-7.15-27.13-11-40.43C666.9,648.18,664.19,647.47,662.55,646.46Zm-59.12,83.12,38.5,11.93,1.57-2c-1.31-1.47-2.35-3.73-4-4.28-10.22-3.47-20.59-6.5-30.86-9.82C605.06,724.2,603.15,724.86,603.43,729.58Zm331.39,87L897.4,806.39c-2.35,3.68-1.41,5.38,2.32,6.35,10.11,2.62,20.21,5.31,30.23,8.24C933.64,822.06,934.91,820.85,934.82,816.55Zm-331,1.75-1.09,2.25c1.56,1,3.2,2.82,4.66,2.68,8.94-.83,17.83-2.22,26.75-3.2,4.2-.46,4.4-2.54,3-6.07Z"/><path class="cls-2" d="M1729.21,40.23q18.07,42.47,36.15,84.94,36.59,86.51,73.05,173.06c.79,1.89,1.49,3.82,2.23,5.73-18.36,11.31-36.84,22.43-55.05,34-35.76,22.68-70.38,47.38-107.27,68-61.65,34.51-124.69,66.52-187.19,99.51-10.67,5.62-21.52,10.88-32.78,16.56L1348.27,327.18c2.36-1.63,4.19-2.91,6-4.16q54.74-36.88,109.47-73.78c70.77-47.87,139.74-98.13,203.93-154.67Q1698.51,67.45,1729.21,40.23Z"/><path class="cls-3" d="M988.72,1113.28c31.72,2.73,63.58,4.37,95.12,8.46,39.26,5.1,78.47,11.12,117.31,18.74,46.52,9.12,92,22.35,134.55,43.92,5.79,2.92,11.33,6.33,17,9.51-.12.51-.25,1-.37,1.52-8.49,0-17,.09-25.46,0-23-.29-46.08-.76-69.12-1q-90.45-.83-180.91-1.5-63-.54-125.95-1.22l-125.33-1.24-125.94-1.24L574.88,1188l-120.36-1.24c-1,0-1.95-.09-5-.24,4.19-4.66,7-8.55,10.54-11.6,16.19-13.92,35.66-21.71,55.54-28.38,33-11.06,67-17.75,101.35-22.4,17.3-2.33,34.67-4.13,52-6.18,2,.64,4.32.89,6.06,2,3.39,2.14,6,2.75,8.89-1,.72-.93,3.4-.59,5.14-.45,2.66.2,5.54,1.63,7.86.94,3.38-1,6.35-3.41,9.49-5.22,10.65-.46,21.29-1.14,31.95-1.35q76-1.47,152.05-2.68c16-.23,32,.21,48,.34l9.64,0,30.92,1.29C982.55,1118.13,983,1118.2,988.72,1113.28Z"/><path class="cls-4" d="M1729.21,40.23q-30.75,27.18-61.5,54.34c-64.19,56.54-133.16,106.8-203.93,154.67q-54.67,37-109.47,73.78c-1.85,1.25-3.68,2.53-6,4.16L1458.35,522c11.26-5.68,22.11-10.94,32.78-16.56,62.5-33,125.54-65,187.19-99.51,36.89-20.65,71.51-45.35,107.27-68,18.21-11.55,36.69-22.67,55.05-34,.78,1.39,1.55,2.79,2.45,4.4-17.1,10.72-34,21.19-50.8,31.89-36.52,23.3-72.12,48.21-109.66,69.72-49.8,28.53-101,54.59-151.79,81.41-24.47,12.93-49.29,25.19-74.53,38L1445.62,511c-17.15,7.72-33.79,16-51,22.76-34,13.38-69.45,22.18-105.45,27.93-31,4.95-62.28,7.85-93.44,11.67-2.23.28-4.46.6-6.69.91-27.35.39-54.71,1.65-82,1-60.83-1.41-121.65-3.82-182.47-5.7-21.17-.66-42.34-1.05-63.52-1.39-12.69-.2-16.72-4.09-18-16.69-1.8-18,5.64-31.08,20.66-40.26,17.86-10.92,37.81-15.81,58.21-18.33,28.34-3.5,56.84-5.61,85.21-8.93,20.2-2.36,40.51-5.25,57.12-18.65,13.69-11.06,24.11-24.75,29.61-41.58a17.1,17.1,0,0,0-1.07-12.05c-12.17-22.93-33.13-33.35-57.1-40.17-34.78-9.91-63.76,1.38-90.48,22.59C911.32,421,884.29,454.07,859,488.71c-.33.45-.37,1.13.41,3l37.7-28.74,3,3.91c-16,13-32,25.27-47.16,38.48-27.22,23.74-52.72,49.28-70.59,81-19.68,35-28,72.88-25.71,113,.28,4.8,1.61,9.55,2.61,15.19,3.23-2,6.16-3.22,8.28-5.26,23.33-22.47,65.15-10.21,80.94,15.2,18.47,29.71,14,76-10.26,99.41C826.4,835.34,811.47,840.4,796,844.13c-27.46,6.62-54.59,7.24-80.56-6-44.07-22.46-54.67-81-21.35-117.6,8.71-9.56,19.68-12,32-9.75,9,1.65,18.08,3.23,27.92,5-6.6-26.95-3.25-52.46,2.64-77.78,5.81-25,14.95-48.67,29.85-70.22C750,594.83,708.65,608,664.32,612.41a336.06,336.06,0,0,1-102.44-5.08c4-9,10.65-15,17.64-20.55,22.51-17.93,48.69-28.55,75.81-37.11,9.89-3.11,19.92-5.75,29.82-8.58l-37.43-20.35c-21-14.84-39.34-32.29-53.65-53.77-1.7-2.56-3.32-5.18-4.87-7.83-1-1.77-1.86-3.64-3.66-7.21,10.71.69,20.54.49,30.07,2.11,25.19,4.29,50.25,9.36,75.37,14.12a19,19,0,0,0,2.73,1.14c34.79,8.56,66,23.84,91,50,7.47,7.81,13.8,16.71,20.81,25.3l17.15-18.84c-2.28.22-3.67.31-5,.51-15.06,2.14-25.94-6.53-26.39-21.76a65.85,65.85,0,0,1,2-18.88c14.86-54.89,40.21-104.7,74.33-150,7.81-10.37,17.24-19.53,26.46-29.84-17.93-13.44-36-27-54.14-40.51-1.56-1.15-3.63-1.63-5.45-2.42-4.6-2.83-8.92-6.33-13.84-8.37C793.42,243.2,766,232.69,739,221c-11.39-4.92-22.05-11.66-32.64-18.22a32.46,32.46,0,0,1-15.56-22.62c-1.89-10.67,2.53-17.44,13-19.83,12.06-2.75,23.68.09,35.29,2.56,45.81,9.75,91.27,20.89,135.27,37.1,14.14,5.21,27.52,12.47,41.24,18.79l3,1.12-1.3-2.14q-40.41-36.23-80.82-72.45c-11.81-10.55-24.08-20.59-35.56-31.48-7.77-7.37-14.09-16-16.22-27C782.3,74.68,790,64.08,802.4,64.32a63.91,63.91,0,0,1,22,4.59c35.49,14.15,67.78,34.23,97.5,57.85,27,21.46,52.16,45.25,78.16,68,1.52,1.33,3.22,2.47,4.84,3.71l1.31-1.06c-.88-1.9-1.72-3.82-2.66-5.69-15.06-30-30.45-59.81-44.94-90.06-3.43-7.16-5-15.69-5.41-23.7-.74-13.67,15.15-23.76,27.26-17.39A62.55,62.55,0,0,1,997.14,73.9c20.7,22.78,35.76,49.54,52.12,75.36,20.11,31.75,39.06,64.43,64.44,92.33,18.94,20.82,39.44,40.29,60,59.51q29.51,27.54,60.76,53.17c11.43,9.39,24.79,16.79,40.22,16.35,9.65-.28,19.45-2.43,28.78-5.12,16.83-4.86,33.36-10.75,50.68-16.43-4.61-8.23-8.8-15.69-13.35-23.78,3.71-2.47,7.43-4.87,11.08-7.39,73.65-51,148-101,220.7-153.34,54.27-39.07,103.94-84,154.16-130ZM729.11,716.47l-4.88-.65-1.64-.46c-11.67-1.23-21.37,2.91-27.36,12.73-5.36,8.77-9,18.58-13.44,27.93-.19.49-.39,1-.58,1.45q-.37,3-.76,6c-.13.53-.26,1.07-.4,1.61q0,7.45,0,14.93l.48,1.75c3.22,8.77,5.2,18.27,9.9,26.15C702.2,827.61,721,837.51,743,841.81l1.33.51,7.27.62.42.42.56-.16h2.85l1.26.36h9.45l1.26-.36h2.85l.57.16.41-.42,8.42-.65,1.41-.48,6-.76,1.44-.57,7.78-1.85c27.39-6.57,48.27-20.48,55.84-49.42.21-.49.41-1,.61-1.46.24-1.58.47-3.17.71-4.75.16-.51.33-1,.49-1.53V755.1l-.54-1.54c-6.48-34.29-27.85-51.75-61.92-50.59l-1.54.54-29.2,15.59c1.61,3.54,2.75,6.06,3.9,8.61,10.12-5.24,10.12-5.24,11.93-3.75-4.76,8.7-11.64,11.88-22.65,10.44l-1.47-.58-11.24-3.69c1.42-2.11,2.29-3.42,3.09-4.6l11.1,3.85,3.54-.6c-1.63-6.62-5.59-9.89-12.63-8.85a6.88,6.88,0,0,1-2.35-.54l-1.3-.43-6.13-.85-1.24-.4-4.94-.84ZM954.73,251.52c-2.14-1.55-3.79-2.76-5.45-4C925.19,230.29,899.94,215,872,205c-42.68-15.39-86.6-26.44-130.94-35.77a169.75,169.75,0,0,0-32.88-3.59c-10.73-.12-14.07,6.15-11.1,16.63,2.79,9.84,10.09,15.74,18.31,19.8,22.9,11.33,45.74,23.1,69.55,32.25,30,11.55,59.33,23.75,84,45.11,9.72,8.42,20.14,16,30,23.84,29.57-20.85,60.44-34.47,97.33-25.39a7.38,7.38,0,0,1-5.43,3.05c-9.81.14-19.87-1.44-29.38.22-35.84,6.29-64,25.78-86.35,53.82-31.4,39.36-53.81,83.68-70.41,131a204,204,0,0,0-8,30.88c-1.54,8.35.09,16.75,7.72,22,7.47,5.15,15.35,2.73,21.89-1.86a79.7,79.7,0,0,0,16-15.1c8.62-10.71,16.23-22.24,24.63-33.14,22-28.57,45.66-55.64,74-78.3,29.18-23.34,60.85-34.92,98.48-23.69,25.37,7.58,46.94,19.72,59.33,44.22,1.59,3.15,2.38,7.79,1.33,11-9.51,29.08-27.2,51.12-57.26,60.37-13.42,4.13-27.64,6.11-41.65,7.83-27.72,3.4-55.62,5.37-83.3,9-18.92,2.5-37.4,7.44-53.58,18.41-8.9,6-15.75,13.94-15.75,25,0,16.85-.36,21.6,17.84,19.86a103.11,103.11,0,0,1,14.17-.36c31.81,1.44,63.61,3.28,95.42,4.45,37.61,1.37,75.24,2.53,112.86,3.19,68,1.19,135.7-.82,202.68-14,43.52-8.53,86.51-18.86,126.8-38.09,8.2-3.92,16.13-8.4,24.23-12.64L1357,353.76c-13.7,4.71-26.68,9.76-40,13.61-12.94,3.74-26.12,7.92-39.41,8.89-19.15,1.4-35.2-8.49-49.88-19.68-41.39-31.55-76.88-69.53-113.61-106.07-23.12-23-39.47-51.4-57.25-78.54-18-27.47-35.51-55.25-54.07-82.33-5.82-8.49-14-15.48-21.75-22.48-4.9-4.45-10.7-4.08-16.36,0-5.32,3.87-7.53,8.79-5.91,14.93,2.09,7.89,3.8,16.13,7.45,23.31,18.93,37.26,38.43,74.22,57.74,111.29,1.07,2.06,2.25,4.07,3.38,6.1l-1.66,1.39c-18.81-16.56-38.26-32.46-56.3-49.82C933.42,139.83,893.79,110.45,849.85,87c-12.56-6.69-26.12-11.61-39.46-16.69-6.81-2.6-13.73-1-18.38,4.91s-2.75,12.64.78,17.93c5.42,8.13,11.28,16.3,18.38,22.92,14.44,13.44,30.09,25.57,44.79,38.75,33.54,30.06,66.8,60.43,100.17,90.68.69.63,1.29,1.37,2,2.13ZM799.37,548.66c-11.52-7-23.09-9.23-35-10.13-28.87-2.2-56.95,2.73-84.71,9.91-30.46,7.89-60.21,17.75-86.63,35.43-8,5.35-15.12,12-22.64,18.11l1.38,2.27C654.22,614.86,732.62,608.69,799.37,548.66Zm-5-9.31c-18.21-24.43-40.22-41.58-66.65-52.65-36.23-15.18-74.58-22.1-113.28-27.26-6.1-.82-12.28-1-19.71-1.57,25.35,38.79,58.36,65.17,100.57,79.86,2,.68,4.41.34,6.55,0C732.18,532.41,762.46,528.63,794.38,539.35Zm64.27-47.2-1-.91-2.75,3.19.85.76Z"/><path class="cls-5" d="M834.4,262.84c1.82.79,3.89,1.27,5.45,2.42C858,278.75,876.06,292.33,894,305.77c-9.22,10.31-18.65,19.47-26.46,29.84-34.12,45.33-59.47,95.14-74.33,150a65.85,65.85,0,0,0-2,18.88c.45,15.23,11.33,23.9,26.39,21.76,1.38-.2,2.77-.29,5-.51L805.5,544.61c-7-8.59-13.34-17.49-20.81-25.3-25-26.17-56.19-41.45-91-50a19,19,0,0,1-2.73-1.14c3.71-7.05,7.68-14,11.09-21.17,12.87-27.09,25.34-54.36,38.37-81.36,14.16-29.34,33.17-55.29,57.75-76.71,9.66-8.41,21-15,31.49-22.38C831.31,265.39,832.83,264.08,834.4,262.84Z"/><path class="cls-6" d="M988.72,1113.28c-5.73,4.92-6.17,4.85-9.77-1.46,14.18-8.2,20.7-20.41,18.47-37.69h63.35c-.54-9.32-.66-17.74-1.61-26.06-2.23-19.57-4.82-39.1-7.35-58.63-1.09-8.39-5.91-13.68-14-15.94-17.76-4.92-35.48-10-53.28-14.68-7.92-2.11-17.48-1.57-23.58-6s-8.55-13.65-13-20.5c-12.32-18.91-24.87-37.67-37.32-56.49-4-6-9.6-8.1-16.77-8-34.35.39-68.73-.17-103.06.83-48.68,1.42-97.35,3.68-146,6.07-18.24.9-36.42,3.19-54.63,4.85-5.17.48-8.24,2.25-8.4,8.51-.69,26.08-2.27,52.14-2.83,78.22-.57,26.55-.35,53.12-.44,79.67,0,11.06,0,22.12,0,33.32h72.52c2.22,23.13,13.91,34.89,34.36,34.91,19,0,30.77-12.67,33-36L932,1075.65c-2.08,15.66,4,26.7,16,34.88l-9.64,0c-6.26-6.72-11.08-14.18-12.14-23.59.11-.12.32-.29.29-.37a4.75,4.75,0,0,0-.41-.77c.08-3.52-1.33-4.7-5.11-4.64-22.31.4-44.62.46-66.93.64l-1.2.05-76.69,1L775,1083l-23.53,0-1.2,0H723.36c-.81,13.88-7.66,23.22-17,31.14-3.14,1.81-6.11,4.22-9.49,5.22-2.32.69-5.2-.74-7.86-.94-1.74-.14-4.42-.48-5.14.45-2.84,3.73-5.5,3.12-8.89,1-1.74-1.1-4-1.35-6.06-2-3.8-2.88-7.82-5.54-11.37-8.71-7.18-6.41-10.61-14.87-11.85-24.18H572.37c0-1.95,0-4.09,0-6.24q.57-51.18,1.15-102.38c0-2.67-.14-5.34-.22-8q1.35-38.51,2.72-77c.53-14.79.48-15.54,14.79-17.21,21.83-2.54,43.75-4.62,65.7-5.65q71.76-3.35,143.59-5.33c31.46-.88,63-.82,94.44-.85,4.56,0,9.11,1.85,13.67,2.85,12,16.58,24.27,33,35.86,49.82,6.25,9.1,11.49,18.91,16.84,28.59,2.08,3.77,4.75,5.4,8.89,6.39,21.06,5.07,41.93,11,63.06,15.73,16.28,3.66,24.48,13.43,26.15,29.57,2.85,27.73,5.79,55.45,8.82,84.4h-64.24C1004.15,1094.05,997.12,1104,988.72,1113.28Z"/><path class="cls-7" d="M589.83,521.8c0,7.19-3.09,11.08-8.4,12.1s-10.3-1.85-12.16-7.85c-4.87-15.65-9.53-31.36-14.26-47-.54-1.77-1-3.54-1.55-5.31-2.15-7.5.17-13,6.39-15,6.06-2,11.49,1.37,13.74,8.74,4.61,15.08,9.12,30.2,13.65,45.3C588.29,516.24,589.26,519.78,589.83,521.8Z"/><path class="cls-8" d="M511.73,220.08c-2.87,12.37-6,25.75-9.08,39.13-1.31,5.58-2.54,11.19-4.07,16.71-1.83,6.65-6.79,9.75-12.83,8.35-5.77-1.33-9-6.2-7.58-12.69q6.16-27.93,12.91-55.73a10.56,10.56,0,0,1,11.55-8.09C508.27,208.57,512,213.16,511.73,220.08Z"/><path class="cls-8" d="M386.78,423.6c1.07.28,2.88.67,4.63,1.22q25.26,7.9,50.49,15.87c7.26,2.3,10.76,7.75,8.91,13.68-1.92,6.2-7.51,8.7-14.94,6.42q-26.17-8-52.28-16.3c-6.39-2-9-6.66-7.8-12.76C376.72,427.05,381.13,423.55,386.78,423.6Z"/><path class="cls-7" d="M1273,670.82c-2.89,12.4-6,25.78-9.13,39.14-1.35,5.79-2.62,11.6-4.24,17.31-1.79,6.32-6.75,9.27-12.55,7.89s-9.14-6.18-7.72-12.63q6.16-27.93,12.91-55.72a10.55,10.55,0,0,1,11.47-8.21C1269.37,659.38,1273.27,664.08,1273,670.82Z"/><path class="cls-8" d="M615.66,256.67c17.6,5.68,37.54,11.87,57.26,18.69,4.77,1.65,6.17,8,4.26,12.76-2,5.07-7.23,7.62-13.28,5.83-13-3.83-25.84-8-38.75-12-5.47-1.71-11-3.21-16.37-5.28s-7.33-6.42-6.38-11.92C603.28,259.67,607.81,256.43,615.66,256.67Z"/><path class="cls-7" d="M565.62,364.79c-.34,5.62-2.79,9.34-8.09,10.61a10.11,10.11,0,0,1-12.32-6.68c-2.66-7.75-4.91-15.64-7.28-23.49-3.08-10.2-6.17-20.4-9.13-30.63-2-6.92.73-12.68,6.62-14.4s11.41,1.48,13.52,8.33c5.33,17.23,10.53,34.49,15.74,51.76C565.15,361.85,565.35,363.49,565.62,364.79Z"/><path class="cls-7" d="M1411.47,559.36c3.74.15,7.15,2.63,8.55,7.17q8.51,27.63,16.65,55.37a10.22,10.22,0,0,1-6.73,12.76,10.41,10.41,0,0,1-13.37-6.75q-8.58-27.61-16.65-55.38C1397.88,565.48,1403.16,559.15,1411.47,559.36Z"/><path class="cls-8" d="M1311,654.21c-2.85-2.51-6.54-4.59-8.47-7.74-2.62-4.29-1-8.72,2.74-12.15q18.27-17,36.57-33.9c1.66-1.54,3.28-3.12,5-4.53,5-4,11-3.84,14.94.37s3.81,11-1,15.41c-12.42,11.65-25,23.14-37.51,34.7a30.41,30.41,0,0,1-4.1,3.71C1317,651.46,1314.58,652.45,1311,654.21Z"/><path class="cls-7" d="M520.09,388.76c7.3.29,12.08,5.61,10.65,12.22-4.11,19-8.59,38-13.22,56.9a10.25,10.25,0,0,1-12.38,7.5c-5.49-1.28-9.31-6.29-8-12q6.4-28.8,13.56-57.44A9.15,9.15,0,0,1,520.09,388.76Z"/><path class="cls-8" d="M439.65,394.76c-2.87-2.45-6.65-4.45-8.54-7.6-2.72-4.51-.94-9.08,2.94-12.66q15.39-14.19,30.74-28.4c3.46-3.2,6.8-6.55,10.38-9.62,4.78-4.08,11-3.88,15,.23,4.25,4.38,4.18,10.83-.67,15.38q-20.64,19.37-41.63,38.37C446,392.16,443.26,392.91,439.65,394.76Z"/><path class="cls-7" d="M1379.15,680.12c-.58,4.64-3.14,8.44-8.88,9.38-19,3.1-38.06,6.28-57.12,9.18-5.6.86-10.7-3.36-11.57-8.76-.95-5.87,2.37-10.91,8.74-12q28.52-4.87,57.13-9.17C1373.86,667.79,1379.23,673,1379.15,680.12Z"/><path class="cls-7" d="M616.75,195.06c-2.35,3.68-3.62,6.84-5.86,9-13.29,12.59-26.76,25-40.28,37.35-5.23,4.78-11.83,4.66-15.9.08-3.88-4.36-3.4-11,1.39-15.46,13.54-12.63,27.18-25.16,40.77-37.74,3.72-3.45,8.26-4.64,12.42-2C612.25,188.18,614.1,191.82,616.75,195.06Z"/><path class="cls-8" d="M1163.53,772.15c-2.35,3.71-3.58,6.86-5.81,9q-20.12,19-40.63,37.64c-5,4.57-11.31,4.36-15.38,0s-4-10.67,1-15.33c13.61-12.78,27.36-25.42,41.08-38.08,3.66-3.38,8.14-4.77,12.35-1.91C1159,765.36,1160.86,768.88,1163.53,772.15Z"/><path class="cls-8" d="M1199.13,717.24c-.07,6.3-3.47,10.44-8.57,11.27s-10-1.94-11.81-7.59c-4.16-13.07-8-26.24-12-39.37-1.55-5.1-3.34-10.13-4.62-15.29-1.51-6.12,1.65-11.57,7.17-13.12a10.29,10.29,0,0,1,13.06,7.19c5.56,17.79,10.88,35.65,16.25,53.49A18.63,18.63,0,0,1,1199.13,717.24Z"/><path class="cls-7" d="M398.51,537c-6.23.07-10.88-4-11.43-9.57s2.92-10.28,9-11.3Q424,511.49,452,507.26c6.69-1,11.77,2.64,12.69,8.64.88,5.74-2.52,10.78-8.95,11.92-14.34,2.55-28.76,4.66-43.14,7C407.74,535.55,402.89,536.34,398.51,537Z"/><path class="cls-8" d="M1081.54,727.74c-7.18.35-14.36.78-21.55,1s-12.13-3.6-12.46-9.8c-.34-6.44,4.31-10.76,12-11.23q21.26-1.32,42.5-2.71a36,36,0,0,0,4.2-.78c2.66,0,5.31-.12,8-.15,6.59-.08,11.45,4.06,11.77,10s-3.89,10.51-10.64,11C1104,726,1092.78,726.88,1081.54,727.74Z"/><path class="cls-9" d="M947.64,719.56c-1.26,1.45-2.25,3.76-3.81,4.23-18.22,5.49-36.53,10.71-55,16-2-3.07-2.55-5,1.82-6.26,18.35-5.13,36.63-10.5,54.93-15.77Z"/><path class="cls-10" d="M872,697.59,867.92,694l28.21-36.85c3.32,1.42,5.07,2.66,2.27,6.2C889.65,674.42,881.15,685.71,872,697.59Z"/><path class="cls-11" d="M662.55,646.46c1.64,1,4.35,1.72,4.75,3.09,3.87,13.3,7.34,26.71,11,40.43l-5.18,1.47-11.76-43.32Z"/><path class="cls-9" d="M603.43,729.58c-.28-4.72,1.63-5.38,5.24-4.21,10.27,3.32,20.64,6.35,30.86,9.82,1.62.55,2.66,2.81,4,4.28l-1.57,2Z"/><path class="cls-9" d="M934.82,816.55c.09,4.3-1.18,5.51-4.87,4.43-10-2.93-20.12-5.62-30.23-8.24-3.73-1-4.67-2.67-2.32-6.35Z"/><path class="cls-12" d="M603.87,818.3,637.22,814c1.37,3.53,1.17,5.61-3,6.07-8.92,1-17.81,2.37-26.75,3.2-1.46.14-3.1-1.73-4.66-2.68Z"/><path class="cls-13" d="M948,1110.53c-12-8.18-18.13-19.22-16-34.88l-213.66,2.59c-2.25,23.29-14.06,36-33,36-20.45,0-32.14-11.78-34.36-34.91H578.42c0-11.2,0-22.26,0-33.32.09-26.55-.13-53.12.44-79.67.56-26.08,2.14-52.14,2.83-78.22.16-6.26,3.23-8,8.4-8.51,18.21-1.66,36.39-4,54.63-4.85,48.65-2.39,97.32-4.65,146-6.07,34.33-1,68.71-.44,103.06-.83,7.17-.08,12.78,2,16.77,8,12.45,18.82,25,37.58,37.32,56.49,4.47,6.85,6.93,16.1,13,20.5s15.66,3.88,23.58,6c17.8,4.73,35.52,9.76,53.28,14.68,8.14,2.26,13,7.55,14,15.94,2.53,19.53,5.12,39.06,7.35,58.63.95,8.32,1.07,16.74,1.61,26.06H997.42c2.23,17.28-4.29,29.49-18.47,37.69Z"/><path class="cls-14" d="M954.73,251.52l3.41-3.86c-.72-.76-1.32-1.5-2-2.13C922.76,215.28,889.5,184.91,856,154.85c-14.7-13.18-30.35-25.31-44.79-38.75-7.1-6.62-13-14.79-18.38-22.92-3.53-5.29-5.38-12.1-.78-17.93s11.57-7.51,18.38-4.91c13.34,5.08,26.9,10,39.46,16.69,43.94,23.42,83.57,52.8,119.51,87.36,18,17.36,37.49,33.26,56.3,49.82l1.66-1.39c-1.13-2-2.31-4-3.38-6.1-19.31-37.07-38.81-74-57.74-111.29-3.65-7.18-5.36-15.42-7.45-23.31-1.62-6.14.59-11.06,5.91-14.93,5.66-4.11,11.46-4.48,16.36,0,7.72,7,15.93,14,21.75,22.48,18.56,27.08,36.07,54.86,54.07,82.33,17.78,27.14,34.13,55.54,57.25,78.54,36.73,36.54,72.22,74.52,113.61,106.07,14.68,11.19,30.73,21.08,49.88,19.68,13.29-1,26.47-5.15,39.41-8.89,13.33-3.85,26.31-8.9,40-13.61l85.51,151.31c-8.1,4.24-16,8.72-24.23,12.64-40.29,19.23-83.28,29.56-126.8,38.09-67,13.14-134.73,15.15-202.68,14-37.62-.66-75.25-1.82-112.86-3.19-31.81-1.17-63.61-3-95.42-4.45a103.11,103.11,0,0,0-14.17.36c-18.2,1.74-17.84-3-17.84-19.86,0-11.11,6.85-19,15.75-25,16.18-11,34.66-15.91,53.58-18.41,27.68-3.65,55.58-5.62,83.3-9,14-1.72,28.23-3.7,41.65-7.83,30.06-9.25,47.75-31.29,57.26-60.37,1-3.22.26-7.86-1.33-11-12.39-24.5-34-36.64-59.33-44.22-37.63-11.23-69.3.35-98.48,23.69-28.33,22.66-52,49.73-74,78.3-8.4,10.9-16,22.43-24.63,33.14a79.7,79.7,0,0,1-16,15.1c-6.54,4.59-14.42,7-21.89,1.86-7.63-5.26-9.26-13.66-7.72-22a204,204,0,0,1,8-30.88c16.6-47.31,39-91.63,70.41-131,22.39-28,50.51-47.53,86.35-53.82,9.51-1.66,19.57-.08,29.38-.22a7.38,7.38,0,0,0,5.43-3.05c-36.89-9.08-67.76,4.54-97.33,25.39-9.9-7.81-20.32-15.42-30-23.84-24.67-21.36-54-33.56-84-45.11-23.81-9.15-46.65-20.92-69.55-32.25-8.22-4.06-15.52-10-18.31-19.8-3-10.48.37-16.75,11.1-16.63A169.75,169.75,0,0,1,741,169.18C785.35,178.51,829.27,189.56,872,205c28,10.09,53.24,25.34,77.33,42.62C950.94,248.76,952.59,250,954.73,251.52Z"/><path class="cls-2" d="M730.35,716.87l4.94.84,1.24.4,6.13.85,1.3.43a6.88,6.88,0,0,0,2.35.54c7-1,11,2.23,12.63,8.85l-3.54.6-11.1-3.85c-.8,1.18-1.67,2.49-3.09,4.6l11.24,3.69,1.47.58c11,1.44,17.89-1.74,22.65-10.44-1.81-1.49-1.81-1.49-11.93,3.75-1.15-2.55-2.29-5.07-3.9-8.61l29.2-15.59,1.54-.54c34.07-1.16,55.44,16.3,61.92,50.59l.54,1.54v26.37c-.16.51-.33,1-.49,1.53-.24,1.58-.47,3.17-.71,4.75-.2.49-.4,1-.61,1.46-7.57,28.94-28.45,42.85-55.84,49.42l-7.78,1.85-1.44.57-6,.76-1.41.48-8.42.65a.83.83,0,0,0-1,.26h-2.84l-1.27.36h-9.45l-1.26-.36h-2.85a.81.81,0,0,0-1-.26l-7.27-.62-1.33-.51c-22-4.3-40.8-14.2-52.55-33.89-4.7-7.88-6.68-17.38-9.9-26.15l-.48-1.75q0-7.47,0-14.94c.14-.53.27-1.07.4-1.6q.39-3,.76-6l.58-1.45c4.41-9.35,8.08-19.16,13.44-27.93,6-9.82,15.69-14,27.37-12.73l1.63.46,4.88.65Z"/><path class="cls-15" d="M799.37,548.66c-66.75,60-145.15,66.2-227.58,55.59L570.41,602c7.52-6.08,14.64-12.76,22.64-18.11,26.42-17.68,56.17-27.54,86.63-35.43,27.76-7.18,55.84-12.11,84.71-9.91C776.28,539.43,787.85,541.67,799.37,548.66Z"/><path class="cls-16" d="M794.38,539.35c-31.92-10.72-62.2-6.94-92.52-1.66-2.14.38-4.6.72-6.55,0C653.1,523,620.09,496.66,594.74,457.87c7.43.57,13.61.75,19.71,1.57,38.7,5.16,77,12.08,113.28,27.26C754.16,497.77,776.17,514.92,794.38,539.35Z"/><path class="cls-1" d="M858.65,492.15l-2.91,3-.85-.76,2.75-3.19Z"/><path class="cls-17" d="M755.4,729.38l3.54-.6Z"/><path class="cls-13" d="M917.26,217.8l1.3,2.14-3-1.12Z"/><path class="cls-17" d="M753.92,734.4l-1.47-.58Z"/><path class="cls-18" d="M853.94,755.1l-.54-1.54Z"/><path class="cls-18" d="M681.79,756l-.58,1.45C681.4,757,681.6,756.51,681.79,756Z"/><path class="cls-18" d="M744,719.39l-1.3-.43Z"/><path class="cls-18" d="M680.45,763.48c-.13.53-.26,1.07-.4,1.6C680.19,764.55,680.32,764,680.45,763.48Z"/><path class="cls-18" d="M680.07,780l.48,1.75Z"/><path class="cls-18" d="M787.07,841.05l1.44-.57Z"/><path class="cls-18" d="M743,841.81l1.33.51Z"/><path class="cls-18" d="M736.53,718.11l-1.24-.4Z"/><path class="cls-18" d="M751.6,842.94a.81.81,0,0,1,1,.26l-.56.16Z"/><path class="cls-18" d="M755.43,843.2l1.26.36Z"/><path class="cls-18" d="M766.14,843.56l1.27-.36Z"/><path class="cls-18" d="M730.35,716.87l-1.24-.4Z"/><path class="cls-18" d="M770.25,843.2a.83.83,0,0,1,1-.26l-.41.42Z"/><path class="cls-18" d="M724.23,715.82l-1.63-.46Z"/><path class="cls-18" d="M791.48,703l-1.54.54Z"/><path class="cls-18" d="M852.13,789.21c.21-.49.41-1,.61-1.46C852.54,788.24,852.34,788.72,852.13,789.21Z"/><path class="cls-18" d="M853.45,783c.16-.51.33-1,.49-1.53C853.78,782,853.61,782.49,853.45,783Z"/><path class="cls-18" d="M779.65,842.29l1.41-.48Z"/><path class="cls-6" d="M854.09,1081.84l-1.2.05Z"/><path class="cls-6" d="M751.51,1083.08l-1.2,0Z"/><path class="cls-6" d="M776.2,1082.91l-.56.26-.6-.14Z"/><path class="cls-6" d="M926.25,1087a1,1,0,0,1-.12-1.14,4.75,4.75,0,0,1,.41.77C926.57,1086.69,926.36,1086.86,926.25,1087Z"/></svg>