<svg width="323" height="200" viewBox="0 0 323 200" fill="none" xmlns="http://www.w3.org/2000/svg">
<path d="M193.367 93.379C193.11 94.0912 192.905 94.831 192.586 95.5156C190.347 100.274 187.614 104.784 184.433 108.972C182.997 110.878 181.412 112.67 179.893 114.512C179.668 114.568 179.44 114.61 179.21 114.639C176.907 114.791 174.603 114.938 172.298 115.08C171.055 115.156 170.299 115.859 170.346 116.906C170.4 117.914 171.181 118.542 172.373 118.499C173.565 118.457 174.71 118.389 175.877 118.337C173.314 120.504 170.836 122.789 168.167 124.815C163.397 128.434 158.465 131.841 153.693 135.454C151.579 137.052 149.686 138.94 147.692 140.696C146.95 140.533 146.21 140.233 145.469 140.233C140.349 140.233 135.223 140.233 130.11 140.371C122.323 140.588 114.539 140.877 106.758 141.238C103.18 141.4 99.6234 141.743 96.0731 142.156C93.7459 142.428 93.754 142.55 93.6678 144.955C93.5171 149.128 93.3697 153.301 93.2255 157.475C92.8514 157.345 92.4644 157.246 92.1066 157.083C88.854 155.603 85.6485 154.007 82.3488 152.655C79.4674 151.504 76.4179 150.827 73.3196 150.654C71.1566 150.516 68.9773 150.363 66.8144 150.475C63.9976 150.621 61.1841 150.951 58.3852 151.33C54.6025 151.842 50.8441 152.551 47.0564 153.033C44.4543 153.358 41.8165 153.652 39.1998 153.605C35.5146 153.537 31.9042 152.891 28.7085 150.826C25.4152 148.698 23.1921 145.816 22.5285 141.883C21.8227 137.694 22.5513 133.642 23.9759 129.709C25.4824 125.488 27.5501 121.488 30.1234 117.818C31.8384 115.443 33.6714 113.156 35.6154 110.964C40.1983 105.699 45.6985 101.572 51.8068 98.2294C58.0751 94.7878 64.8936 92.4611 71.9583 91.353C76.2404 90.6765 80.5452 90.8895 84.8435 90.7465C89.6704 90.5839 94.5265 90.3399 99.0298 88.3253C100.785 87.5399 102.406 86.4505 104.083 85.4879C104.514 85.2391 104.919 84.9465 105.335 84.6749L111.422 87.9838C109.812 88.444 108.181 88.8733 106.573 89.379C102.162 90.7708 97.9044 92.4977 94.2436 95.4131C93.1051 96.3172 92.0171 97.2993 91.3748 98.7546C96.8531 99.8806 102.472 100.159 108.035 99.5806C115.247 98.8619 121.972 96.7204 127.914 92.3204C125.491 95.8245 124.011 99.6733 123.06 103.738C122.102 107.855 121.557 112.003 122.631 116.385C121.03 116.099 119.559 115.842 118.09 115.572C116.078 115.205 114.294 115.603 112.886 117.158C107.467 123.107 109.191 132.628 116.358 136.28C120.586 138.433 124.994 138.332 129.459 137.255C131.977 136.649 134.405 135.826 136.329 133.968C140.278 130.153 141.001 122.634 137.998 117.803C135.43 113.672 128.628 111.678 124.834 115.332C124.49 115.657 124.021 115.859 123.488 116.187C123.325 115.27 123.109 114.498 123.063 113.717C122.683 107.192 124.039 101.034 127.244 95.3432C130.151 90.1806 134.298 86.0278 138.725 82.1725C141.192 80.0245 143.792 78.031 146.394 75.9156L145.906 75.2798L139.775 79.953C139.648 79.6538 139.655 79.5432 139.708 79.4651C143.828 73.8326 148.224 68.4538 153.73 64.0863C158.076 60.6375 162.789 58.8017 168.445 60.4131C172.348 61.5221 175.752 63.2164 177.731 66.9448C178.026 67.5549 178.088 68.2517 177.905 68.9042C177.011 71.6408 175.316 73.8668 173.09 75.6652C170.389 77.844 167.086 78.3139 163.8 78.6977C159.187 79.2375 154.552 79.5806 149.943 80.1497C146.625 80.5595 143.381 81.3546 140.476 83.1302C138.037 84.6229 136.823 86.7481 137.116 89.6765C137.321 91.7253 137.976 92.3578 140.043 92.3904C143.488 92.4456 146.931 92.5091 150.374 92.6164C160.265 92.9221 170.156 93.3139 180.049 93.5432C184.474 93.6473 188.924 93.4424 193.367 93.379ZM154.114 117.002L153.789 116.716C150.813 117.572 147.84 118.446 144.856 119.28C144.145 119.478 144.23 119.798 144.56 120.298C147.559 119.431 150.536 118.582 153.504 117.696C153.748 117.613 153.909 117.236 154.114 117.002ZM141.819 113.424C143.301 111.493 144.683 109.657 146.106 107.854C146.562 107.278 146.277 107.077 145.737 106.846L141.149 112.846L141.819 113.424ZM107.75 105.116L107.56 105.387L109.472 112.431L110.315 112.192C109.716 109.961 109.152 107.781 108.526 105.618C108.457 105.395 108.017 105.28 107.75 105.116ZM98.1353 118.631L104.397 120.571L104.652 120.246C104.439 120.007 104.27 119.639 104.001 119.55C102.339 118.985 100.653 118.493 98.9826 117.953C98.4004 117.756 98.0898 117.864 98.1353 118.631ZM152.029 132.777L145.944 131.12C145.562 131.719 145.714 131.995 146.321 132.153C147.965 132.579 149.608 133.016 151.237 133.493C151.837 133.668 152.044 133.472 152.029 132.772V132.777ZM98.1987 133.062L98.0215 133.428C98.2752 133.59 98.5419 133.886 98.7793 133.864C100.233 133.729 101.679 133.503 103.13 133.343C103.813 133.268 103.845 132.93 103.618 132.356L98.1987 133.062Z" fill="#EBEAE9"/>
<path d="M281.222 6.5415C283.181 11.1453 285.141 15.7491 287.101 20.3529C291.068 29.7307 295.028 39.1106 298.981 48.4927C299.11 48.8 299.223 49.1139 299.344 49.4244C296.358 51.2634 293.352 53.0716 290.391 54.9529C284.575 58.6407 278.945 62.6569 272.946 66.0098C262.919 71.6212 252.667 76.826 242.503 82.1903C240.768 83.1041 239.003 83.9594 237.172 84.883L219.27 53.2C219.653 52.935 219.951 52.7269 220.245 52.5236C226.18 48.5258 232.115 44.5269 238.048 40.5269C249.558 32.7431 260.774 24.5708 271.214 15.3773C274.557 12.4374 277.893 9.49218 281.222 6.5415Z" fill="#EE7024"/>
<path d="M160.796 181.021C165.954 181.465 171.136 181.731 176.265 182.396C182.65 183.226 189.027 184.204 195.343 185.444C202.909 186.926 210.305 189.078 217.225 192.585C218.167 193.06 219.068 193.614 219.99 194.131C219.97 194.214 219.949 194.294 219.93 194.378C218.549 194.378 217.165 194.393 215.789 194.378C212.049 194.331 208.295 194.255 204.548 194.216C194.741 194.126 184.934 194.045 175.127 193.972C168.296 193.913 161.468 193.847 154.643 193.774L134.261 193.572L113.779 193.37L93.4928 193.17L73.9186 192.969C73.756 192.969 73.6015 192.954 73.1055 192.93C73.7869 192.172 74.2439 191.539 74.8196 191.044C77.4526 188.78 80.619 187.513 83.8521 186.429C89.2189 184.631 94.7483 183.543 100.335 182.787C103.148 182.408 105.973 182.115 108.791 181.782C109.117 181.886 109.494 181.926 109.777 182.107C110.328 182.455 110.753 182.554 111.223 181.944C111.34 181.793 111.776 181.848 112.059 181.871C112.491 181.904 112.96 182.136 113.337 182.024C113.887 181.861 114.37 181.47 114.88 181.175C116.612 181.1 118.343 180.99 120.076 180.956C128.316 180.796 136.559 180.651 144.804 180.52C147.406 180.483 150.008 180.554 152.61 180.575H154.178L159.207 180.785C159.792 181.809 159.865 181.821 160.796 181.021Z" fill="#242523"/>
<path d="M281.222 6.54158C277.888 9.48792 274.554 12.4332 271.22 15.3774C260.781 24.5708 249.564 32.7432 238.055 40.5269C232.128 44.5378 226.193 48.5367 220.252 52.5237C219.951 52.7269 219.653 52.9351 219.276 53.2001L237.172 84.8782C239.003 83.9546 240.768 83.0993 242.503 82.1855C252.667 76.8196 262.92 71.6164 272.946 66.005C278.945 62.6473 284.575 58.631 290.391 54.9481C293.353 53.07 296.358 51.2619 299.344 49.4196C299.471 49.6456 299.596 49.8733 299.742 50.1351C296.961 51.8782 294.213 53.5806 291.481 55.3204C285.541 59.1091 279.752 63.1595 273.647 66.657C265.548 71.2961 257.221 75.5334 248.961 79.8944C244.981 81.9969 240.945 83.9904 236.84 86.0733L235.102 83.0895C232.313 84.3448 229.606 85.6912 226.808 86.7904C221.278 88.966 215.513 90.3969 209.658 91.3318C204.617 92.1367 199.53 92.6082 194.462 93.2294C194.099 93.2749 193.737 93.327 193.374 93.3773C188.926 93.4408 184.477 93.6456 180.038 93.54C170.146 93.3107 160.254 92.9188 150.363 92.6131C146.92 92.5058 143.477 92.4424 140.033 92.3871C137.969 92.3546 137.314 91.7221 137.106 89.6733C136.813 86.7465 138.023 84.6196 140.466 83.1269C143.37 81.3513 146.615 80.5562 149.932 80.1465C154.541 79.5773 159.176 79.2343 163.79 78.6944C167.075 78.3107 170.378 77.8408 173.079 75.6619C175.306 73.8635 177 71.6375 177.895 68.9009C178.078 68.2484 178.016 67.5517 177.721 66.9416C175.742 63.2131 172.333 61.5188 168.435 60.4099C162.778 58.7985 158.065 60.6343 153.72 64.083C148.208 68.4554 143.812 73.8326 139.7 79.4652C139.646 79.5383 139.639 79.6489 139.766 79.953L145.897 75.2798L146.385 75.9156C143.783 78.0294 141.181 80.0245 138.716 82.1725C134.289 86.0326 130.142 90.1855 127.236 95.3432C124.035 101.034 122.682 107.194 123.054 113.717C123.1 114.498 123.316 115.27 123.479 116.187C124.004 115.862 124.481 115.664 124.825 115.332C128.62 111.678 135.421 113.672 137.989 117.803C140.992 122.634 140.266 130.161 136.32 133.968C134.398 135.828 131.97 136.651 129.454 137.257C124.988 138.333 120.576 138.434 116.352 136.281C109.185 132.629 107.461 123.111 112.88 117.159C114.297 115.605 116.081 115.208 118.084 115.574C119.548 115.842 121.025 116.099 122.625 116.387C121.552 112.005 122.096 107.857 123.054 103.74C123.999 99.6749 125.486 95.8261 127.909 92.3221C121.973 96.7204 115.248 98.8619 108.039 99.579C102.476 100.158 96.8572 99.879 91.3789 98.753C92.0294 97.2896 93.1109 96.3139 94.2477 95.4115C97.9085 92.4961 102.166 90.7692 106.577 89.3773C108.185 88.8717 109.816 88.4424 111.426 87.9822L105.339 84.6733C101.924 82.2603 98.9412 79.4229 96.614 75.9302C96.3375 75.5139 96.074 75.0879 95.822 74.657C95.6593 74.3692 95.5195 74.0652 95.2267 73.4847C96.9685 73.5969 98.5672 73.5643 100.117 73.8278C104.214 74.5253 108.289 75.3497 112.374 76.1237C112.517 76.1969 112.666 76.2589 112.818 76.3091C118.476 77.7009 123.552 80.1855 127.618 84.4391C128.833 85.7091 129.862 87.1562 131.002 88.553L133.791 85.4895C133.42 85.5253 133.194 85.54 132.978 85.5725C130.529 85.9204 128.759 84.5107 128.686 82.0343C128.646 81.0006 128.755 79.9666 129.012 78.9643C131.428 70.0391 135.551 61.94 141.1 54.5741C142.37 52.8879 143.904 51.3985 145.403 49.7221C142.487 47.5367 139.548 45.3318 136.598 43.1351C136.345 42.9481 136.008 42.87 135.712 42.7416C134.964 42.2814 134.261 41.7123 133.461 41.3806C129.034 39.5448 124.575 37.8359 120.184 35.9351C118.332 35.1351 116.598 34.0391 114.876 32.9725C114.211 32.5815 113.64 32.0496 113.202 31.4141C112.765 30.7787 112.473 30.0551 112.345 29.2944C112.038 27.5595 112.757 26.4587 114.459 26.07C116.421 25.6229 118.31 26.0847 120.199 26.4863C127.649 28.0717 135.042 29.883 142.198 32.5188C144.497 33.366 146.673 34.5465 148.904 35.5741L149.392 35.7562L149.181 35.4082C144.8 31.4809 140.418 27.554 136.037 23.6278C134.116 21.9123 132.121 20.2798 130.254 18.5091C128.99 17.3107 127.963 15.9074 127.616 14.1188C127.226 12.1432 128.478 10.4196 130.495 10.4587C131.722 10.4942 132.933 10.7469 134.073 11.205C139.844 13.5058 145.096 16.7708 149.929 20.6115C154.32 24.1009 158.412 27.9692 162.64 31.6684C162.887 31.8847 163.164 32.07 163.427 32.2717L163.64 32.0993C163.497 31.7904 163.361 31.4782 163.208 31.1741C160.759 26.2961 158.256 21.4489 155.899 16.5302C155.341 15.366 155.086 13.979 155.019 12.6765C154.899 10.4538 157.483 8.81312 159.453 9.8489C160.474 10.4106 161.392 11.1438 162.165 12.0164C165.532 15.7204 167.981 20.0717 170.642 24.27C173.912 29.4326 176.994 34.7465 181.121 39.283C184.202 42.6684 187.536 45.8343 190.879 48.9595C194.079 51.9448 197.373 54.8267 200.761 57.605C202.62 59.1318 204.792 60.3351 207.302 60.2635C208.871 60.218 210.465 59.8684 211.982 59.431C214.719 58.6408 217.408 57.683 220.224 56.7595C219.475 55.4213 218.793 54.2082 218.053 52.8928C218.657 52.4912 219.261 52.1009 219.855 51.6912C231.833 43.3985 243.924 35.2684 255.748 26.7578C264.574 20.405 272.651 13.0993 280.819 5.61963L281.222 6.54158ZM118.576 116.499L117.782 116.394L117.515 116.319C115.617 116.119 114.04 116.792 113.066 118.389C112.194 119.815 111.602 121.41 110.88 122.93C110.849 123.01 110.816 123.093 110.786 123.166C110.745 123.491 110.704 123.816 110.662 124.142C110.641 124.228 110.62 124.316 110.597 124.403C110.597 125.211 110.597 126.02 110.597 126.831L110.675 127.116C111.199 128.542 111.521 130.086 112.285 131.368C114.199 134.571 117.257 136.181 120.834 136.88L121.051 136.963L122.233 137.064L122.301 137.132L122.392 137.106H122.856L123.061 137.164H124.598L124.803 137.106H125.266L125.359 137.132L125.426 137.064L126.795 136.958L127.024 136.88L128 136.756L128.234 136.664L129.499 136.363C133.954 135.294 137.35 133.033 138.581 128.327C138.615 128.247 138.647 128.164 138.68 128.09C138.719 127.833 138.756 127.574 138.795 127.317C138.821 127.234 138.849 127.155 138.875 127.068V122.781L138.787 122.53C137.733 116.955 134.258 114.116 128.717 114.304L128.467 114.392L123.718 116.927C123.98 117.503 124.165 117.912 124.352 118.327C125.998 117.475 125.998 117.475 126.292 117.717C125.518 119.132 124.399 119.649 122.609 119.415L122.37 119.32L120.542 118.72C120.773 118.377 120.914 118.164 121.044 117.972L122.849 118.598L123.425 118.501C123.16 117.425 122.516 116.893 121.371 117.062C121.24 117.055 121.11 117.026 120.989 116.974L120.778 116.904L119.781 116.766L119.579 116.701L118.776 116.564L118.576 116.499ZM155.268 40.8977C154.92 40.6456 154.652 40.4489 154.382 40.2473C150.464 37.4456 146.358 34.9595 141.814 33.3335C134.873 30.831 127.73 29.0343 120.519 27.5172C118.76 27.149 116.969 26.9535 115.172 26.9334C113.427 26.9139 112.883 27.9335 113.367 29.6375C113.82 31.2375 115.007 32.1969 116.344 32.857C120.068 34.6993 123.783 36.6131 127.655 38.1009C132.534 39.979 137.304 41.9627 141.316 45.4359C142.897 46.805 144.591 48.0375 146.195 49.3123C151.004 45.9221 156.024 43.7074 162.024 45.1839C161.922 45.3259 161.79 45.4439 161.637 45.5295C161.485 45.6152 161.315 45.6665 161.141 45.6798C159.545 45.7026 157.909 45.4456 156.363 45.7156C150.534 46.7383 145.954 49.9074 142.32 54.4668C137.213 60.8668 133.568 68.0733 130.869 75.7676C130.305 77.4048 129.87 79.0836 129.568 80.7887C129.317 82.1465 129.582 83.5123 130.823 84.366C132.038 85.2034 133.32 84.8099 134.383 84.0635C135.36 83.3693 136.236 82.543 136.985 81.6082C138.387 79.8668 139.625 77.992 140.991 76.2196C144.569 71.5741 148.417 67.1725 153.025 63.4879C157.771 59.6928 162.922 57.8099 169.041 59.6359C173.167 60.8684 176.675 62.8424 178.69 66.8261C178.949 67.3383 179.077 68.0928 178.906 68.6147C177.36 73.3432 174.483 76.9269 169.594 78.431C167.412 79.1026 165.099 79.4245 162.821 79.7042C158.313 80.257 153.775 80.5773 149.274 81.1676C146.197 81.5741 143.191 82.3774 140.56 84.1611C139.112 85.1367 137.998 86.4278 137.998 88.2261C137.998 90.966 137.94 91.7383 140.9 91.4554C141.666 91.3831 142.436 91.3635 143.204 91.3969C148.378 91.631 153.549 91.9302 158.722 92.1204C164.839 92.3432 170.959 92.5318 177.077 92.6391C188.136 92.8326 199.146 92.5058 210.039 90.3627C217.116 88.9757 224.108 87.2961 230.66 84.1692C231.994 83.5318 233.283 82.8034 234.601 82.1139L220.689 57.5221C218.461 58.2879 216.35 59.1091 214.184 59.7351C212.08 60.3432 209.936 61.0229 207.775 61.1806C204.661 61.4082 202.05 59.8001 199.663 57.9806C192.932 52.8505 187.16 46.6749 181.187 40.7334C177.427 36.9936 174.768 32.3757 171.876 27.9627C168.949 23.4961 166.101 18.979 163.083 14.5757C162.136 13.1952 160.806 12.0587 159.545 10.9204C158.748 10.1969 157.805 10.257 156.885 10.9204C156.02 11.5497 155.66 12.3497 155.924 13.3481C156.263 14.631 156.542 15.9708 157.135 17.1383C160.214 23.1969 163.385 29.2066 166.525 35.2343C166.699 35.5692 166.891 35.896 167.075 36.2261L166.805 36.4521C163.746 33.7595 160.583 31.1741 157.649 28.3513C151.803 22.7367 145.357 17.9595 138.212 14.1465C136.169 13.0587 133.964 12.2587 131.794 11.4326C130.687 11.0099 129.561 11.27 128.805 12.231C128.049 13.192 128.358 14.2863 128.932 15.1465C129.813 16.4684 130.766 17.7969 131.921 18.8733C134.269 21.0587 136.815 23.031 139.205 25.1741C144.66 30.0619 150.069 35.0001 155.496 39.9188C155.608 40.0213 155.706 40.1416 155.821 40.2652L155.268 40.8977ZM130.002 89.2131C128.128 88.0749 126.247 87.7123 124.31 87.566C119.615 87.2083 115.048 88.0099 110.533 89.1774C105.58 90.4603 100.742 92.0635 96.4448 94.9383C95.1438 95.8082 93.9859 96.8895 92.7629 97.883L92.9873 98.2521C106.396 99.9773 119.146 98.9741 130.002 89.2131ZM129.189 87.6993C126.227 83.7269 122.648 80.9383 118.349 79.1383C112.457 76.67 106.221 75.5448 99.9267 74.7058C98.9347 74.5725 97.9296 74.5432 96.7213 74.4505C100.844 80.7578 106.212 85.0473 113.077 87.4359C113.402 87.5465 113.794 87.4912 114.142 87.4359C119.075 86.5708 123.999 85.9562 129.19 87.6993H129.189ZM139.641 80.0245L139.478 79.8765L139.031 80.3952L139.169 80.5188L139.641 80.0245Z" fill="#212121"/>
<path d="M135.699 42.7383C135.995 42.8667 136.331 42.9448 136.585 43.1318C139.537 45.3253 142.474 47.5334 145.392 49.7188C143.892 51.3952 142.358 52.8846 141.088 54.5708C135.539 61.9415 131.417 70.0407 129 78.961C128.744 79.9633 128.634 80.9973 128.675 82.031C128.748 84.5074 130.517 85.9171 132.967 85.5692C133.191 85.5366 133.417 85.522 133.78 85.4862L130.999 88.5545C129.86 87.1578 128.829 85.7106 127.614 84.4407C123.549 80.1854 118.476 77.7009 112.815 76.3106C112.662 76.2605 112.514 76.1985 112.371 76.1253C112.974 74.9789 113.62 73.8488 114.175 72.683C116.268 68.2781 118.296 63.844 120.415 59.4537C122.718 54.683 125.809 50.4635 129.807 46.9806C131.378 45.6131 133.222 44.5415 134.928 43.3415C135.196 43.1529 135.443 42.9399 135.699 42.7383Z" fill="#EBEAE9"/>
<path d="M160.795 181.021C159.863 181.821 159.792 181.81 159.206 180.784C161.512 179.451 162.573 177.465 162.21 174.655H172.513C172.425 173.14 172.405 171.771 172.251 170.418C171.888 167.236 171.467 164.06 171.055 160.885C170.878 159.521 170.094 158.66 168.779 158.293C165.89 157.493 163.008 156.667 160.114 155.906C158.826 155.563 157.271 155.651 156.279 154.93C155.287 154.21 154.888 152.711 154.165 151.597C152.161 148.522 150.12 145.472 148.095 142.412C147.445 141.436 146.534 141.095 145.368 141.111C139.782 141.174 134.19 141.083 128.607 141.246C120.69 141.477 112.775 141.844 104.863 142.233C101.897 142.379 98.9403 142.751 95.9788 143.021C95.138 143.099 94.6387 143.387 94.6127 144.405C94.5005 148.646 94.2435 152.883 94.1525 157.124C94.0598 161.441 94.0955 165.761 94.0809 170.078C94.0809 171.877 94.0809 173.675 94.0809 175.496H105.875C106.236 179.257 108.137 181.169 111.463 181.173C114.553 181.173 116.467 179.112 116.83 175.319L151.571 174.903C151.232 177.449 152.221 179.244 154.173 180.574H152.605C151.587 179.481 150.803 178.268 150.631 176.738C150.649 176.719 150.683 176.691 150.678 176.678C150.66 176.635 150.637 176.593 150.611 176.553C150.624 175.981 150.395 175.789 149.78 175.799C146.152 175.864 142.524 175.873 138.895 175.903L138.7 175.911L126.228 176.073L126.038 176.098H122.211H122.016H117.64C117.508 178.355 116.394 179.873 114.875 181.161C114.364 181.455 113.881 181.847 113.331 182.01C112.954 182.122 112.486 181.89 112.053 181.857C111.77 181.834 111.334 181.779 111.217 181.93C110.755 182.537 110.323 182.438 109.771 182.093C109.488 181.914 109.121 181.873 108.786 181.768C108.168 181.299 107.514 180.867 106.937 180.351C105.769 179.309 105.211 177.934 105.01 176.42H93.084C93.084 176.103 93.084 175.755 93.084 175.405C93.1458 169.857 93.2081 164.308 93.271 158.758C93.271 158.324 93.2482 157.89 93.2352 157.457C93.3816 153.283 93.5291 149.109 93.6776 144.937C93.7638 142.532 93.7556 142.41 96.0829 142.138C99.6331 141.725 103.198 141.387 106.768 141.22C114.548 140.857 122.332 140.568 130.12 140.353C135.236 140.21 140.365 140.22 145.479 140.215C146.22 140.215 146.96 140.516 147.702 140.678C149.653 143.374 151.649 146.044 153.534 148.779C154.55 150.259 155.402 151.854 156.272 153.428C156.611 154.041 157.045 154.306 157.718 154.467C161.143 155.291 164.537 156.255 167.974 157.025C170.621 157.62 171.955 159.208 172.226 161.833C172.69 166.342 173.168 170.849 173.661 175.556H163.213C163.304 177.895 162.161 179.512 160.795 181.021Z" fill="#222323"/>
<path d="M95.9241 84.8455C95.9241 86.0146 95.4216 86.6471 94.5581 86.813C93.6945 86.9788 92.883 86.5122 92.5805 85.5365C91.7885 82.9918 91.0306 80.4374 90.2614 77.8943C90.1735 77.6065 90.0987 77.3187 90.0093 77.0309C89.6596 75.8114 90.0369 74.917 91.0485 74.5918C92.034 74.2666 92.9171 74.8146 93.283 76.013C94.0328 78.465 94.7662 80.9236 95.5029 83.3788C95.6737 83.9414 95.8314 84.517 95.9241 84.8455Z" fill="#EE7024"/>
<path d="M83.223 35.7856C82.7562 37.797 82.2472 39.9726 81.7463 42.1482C81.5333 43.0556 81.3332 43.9678 81.0844 44.8653C80.7868 45.9466 79.9801 46.4507 78.9979 46.223C78.0595 46.0068 77.5342 45.2149 77.7651 44.1596C78.433 41.132 79.1328 38.1114 79.8647 35.0978C79.9606 34.6857 80.2054 34.3235 80.5521 34.0807C80.8987 33.8379 81.3229 33.7317 81.7431 33.7824C82.6603 33.9141 83.2669 34.6604 83.223 35.7856Z" fill="#EE7024"/>
<path d="M62.9018 68.878C63.0758 68.9235 63.3702 68.987 63.6548 69.0764C66.3934 69.9328 69.1305 70.7929 71.8659 71.6569C73.0466 72.0309 73.6158 72.917 73.315 73.8813C73.0027 74.8894 72.0936 75.2959 70.8853 74.9252C68.0479 74.058 65.2138 73.1745 62.383 72.2748C61.3438 71.9496 60.9193 71.1918 61.1145 70.2C61.2657 69.439 61.9829 68.8699 62.9018 68.878Z" fill="#EE7024"/>
<path d="M207.029 109.076C206.559 111.092 206.053 113.268 205.544 115.44C205.324 116.382 205.118 117.327 204.854 118.255C204.563 119.283 203.757 119.762 202.813 119.538C201.87 119.314 201.327 118.533 201.558 117.484C202.226 114.457 202.926 111.437 203.657 108.424C203.749 108.011 203.99 107.646 204.334 107.399C204.679 107.153 205.102 107.042 205.523 107.089C206.438 107.216 207.073 107.98 207.029 109.076Z" fill="#EE7024"/>
<path d="M100.126 41.7349C102.988 42.6585 106.231 43.665 109.438 44.774C110.214 45.0423 110.441 46.0748 110.131 46.8488C109.805 47.6731 108.955 48.0878 107.971 47.7967C105.857 47.174 103.769 46.4959 101.669 45.8455C100.779 45.5675 99.88 45.3236 99.0067 44.987C98.1334 44.6504 97.8146 43.9431 97.9691 43.0488C98.1122 42.2227 98.8489 41.6959 100.126 41.7349Z" fill="#EE7024"/>
<path d="M91.9863 59.3157C91.931 60.2295 91.5326 60.8344 90.6707 61.0409C90.261 61.1538 89.8236 61.1037 89.4501 60.9012C89.0765 60.6987 88.7959 60.3595 88.667 59.9547C88.2344 58.6945 87.8685 57.4116 87.4831 56.1352C86.9822 54.4767 86.4797 52.8181 85.9983 51.1547C85.673 50.0295 86.117 49.0929 87.0749 48.8132C88.0328 48.5336 88.9305 49.0539 89.2737 50.1677C90.1405 52.9693 90.9862 55.7758 91.8335 58.584C91.9099 58.8376 91.9424 59.1043 91.9863 59.3157Z" fill="#EE7024"/>
<path d="M229.547 90.953C230.156 90.9774 230.71 91.3806 230.938 92.1188C231.861 95.114 232.763 98.115 233.646 101.122C233.775 101.542 233.732 101.997 233.527 102.386C233.322 102.774 232.971 103.066 232.551 103.197C232.336 103.272 232.109 103.303 231.882 103.287C231.655 103.272 231.434 103.212 231.231 103.11C231.028 103.007 230.848 102.865 230.701 102.691C230.554 102.518 230.444 102.316 230.377 102.099C229.447 99.1064 228.544 96.1047 227.669 93.0944C227.337 91.9481 228.196 90.9188 229.547 90.953Z" fill="#EE7024"/>
<path d="M213.208 106.375C212.744 105.967 212.144 105.629 211.83 105.117C211.404 104.419 211.668 103.699 212.276 103.141C214.257 101.298 216.239 99.461 218.223 97.629C218.493 97.3786 218.757 97.1217 219.036 96.8924C219.849 96.242 220.825 96.268 221.466 96.9526C222.107 97.6372 222.086 98.7412 221.303 99.4583C219.283 101.353 217.238 103.221 215.203 105.101C215 105.321 214.776 105.523 214.536 105.704C214.183 105.928 213.79 106.089 213.208 106.375Z" fill="#EE7024"/>
<path d="M84.582 63.2132C85.7692 63.2604 86.5466 64.1254 86.314 65.2002C85.6456 68.2897 84.917 71.3791 84.1641 74.4523C84.0583 74.8806 83.7869 75.2495 83.4095 75.4781C83.0321 75.7067 82.5794 75.7763 82.1507 75.6718C81.2579 75.4636 80.6366 74.649 80.8497 73.7206C81.5436 70.5986 82.2786 67.4853 83.0549 64.3807C83.1303 64.037 83.325 63.7311 83.6046 63.5173C83.8842 63.3036 84.2305 63.1959 84.582 63.2132Z" fill="#EE7024"/>
<path d="M71.5002 64.1889C71.0334 63.7905 70.4187 63.4653 70.1113 62.9531C69.669 62.2198 69.9584 61.4767 70.5894 60.8946C72.258 59.3564 73.9244 57.8171 75.5887 56.2767C76.1514 55.7564 76.6946 55.2117 77.2768 54.7125C78.0542 54.0491 79.0657 54.0816 79.7163 54.7499C80.4074 55.4621 80.396 56.5109 79.6073 57.2507C77.3695 59.3504 75.1127 61.4301 72.837 63.4897C72.5329 63.7661 72.0873 63.8881 71.5002 64.1889Z" fill="#EE7024"/>
<path d="M224.292 110.589C224.197 111.343 223.781 111.961 222.848 112.114C219.758 112.618 216.658 113.135 213.558 113.606C212.647 113.746 211.818 113.06 211.676 112.182C211.522 111.228 212.062 110.408 213.098 110.231C216.19 109.703 219.287 109.206 222.389 108.74C223.431 108.584 224.305 109.431 224.292 110.589Z" fill="#EE7024"/>
<path d="M100.302 31.7168C99.9193 32.3152 99.7128 32.829 99.3485 33.1802C97.1871 35.2274 94.9965 37.2453 92.7977 39.2534C91.9472 40.0306 90.8738 40.0111 90.2119 39.2664C89.5809 38.5575 89.659 37.4778 90.438 36.7526C92.64 34.6989 94.8583 32.6615 97.0684 30.616C97.6734 30.055 98.4117 29.8615 99.0883 30.2908C99.5697 30.5981 99.8705 31.19 100.302 31.7168Z" fill="#EE7024"/>
<path d="M189.225 125.553C188.843 126.156 188.643 126.668 188.28 127.016C186.099 129.076 183.896 131.116 181.672 133.137C180.859 133.88 179.833 133.846 179.171 133.137C178.509 132.428 178.521 131.402 179.334 130.644C181.547 128.566 183.783 126.511 186.015 124.452C186.61 123.903 187.338 123.677 188.023 124.142C188.488 124.449 188.791 125.021 189.225 125.553Z" fill="#EE7024"/>
<path d="M195.014 116.624C195.003 117.649 194.45 118.322 193.62 118.457C192.791 118.592 191.994 118.142 191.7 117.223C191.023 115.098 190.399 112.956 189.748 110.821C189.496 109.992 189.205 109.174 188.997 108.335C188.751 107.34 189.265 106.454 190.163 106.202C190.379 106.133 190.607 106.109 190.832 106.132C191.058 106.154 191.277 106.222 191.476 106.331C191.674 106.44 191.849 106.589 191.988 106.768C192.127 106.946 192.229 107.152 192.287 107.371C193.191 110.264 194.056 113.168 194.93 116.068C194.975 116.251 195.003 116.437 195.014 116.624Z" fill="#EE7024"/>
<path d="M64.8105 87.3171C63.7973 87.3285 63.0411 86.6667 62.9516 85.761C62.8622 84.8553 63.4265 84.0895 64.4153 83.9236C67.4424 83.4207 70.4738 82.9399 73.5096 82.4814C74.5976 82.3188 75.4237 82.9106 75.5734 83.8862C75.7165 84.8196 75.1635 85.6391 74.1178 85.8244C71.7857 86.2391 69.4406 86.5822 67.102 86.9627C66.3116 87.0814 65.5228 87.2098 64.8105 87.3171Z" fill="#EE7024"/>
<path d="M175.891 118.331C174.724 118.388 173.556 118.458 172.387 118.494C171.217 118.53 170.414 117.909 170.36 116.9C170.305 115.853 171.061 115.151 172.312 115.074C174.617 114.931 176.921 114.785 179.224 114.634C179.454 114.605 179.682 114.563 179.907 114.507C180.339 114.507 180.77 114.487 181.208 114.483C182.279 114.47 183.07 115.143 183.122 116.109C183.174 117.074 182.489 117.818 181.391 117.897C179.544 118.048 177.719 118.192 175.891 118.331Z" fill="#EE7024"/>
<path d="M154.115 117.002C153.91 117.237 153.749 117.613 153.496 117.689C150.533 118.582 147.555 119.431 144.551 120.291C144.226 119.792 144.136 119.478 144.847 119.273C147.831 118.439 150.804 117.566 153.78 116.709L154.115 117.002Z" fill="#323230"/>
<path d="M141.814 113.429L141.15 112.845L145.738 106.854C146.278 107.084 146.563 107.286 146.107 107.862C144.684 109.662 143.302 111.497 141.814 113.429Z" fill="#30302F"/>
<path d="M107.751 105.115C108.018 105.278 108.459 105.395 108.524 105.618C109.153 107.78 109.717 109.961 110.313 112.192L109.47 112.431L107.558 105.387L107.751 105.115Z" fill="#323231"/>
<path d="M98.1352 118.631C98.0897 117.863 98.4003 117.756 98.9874 117.946C100.658 118.486 102.344 118.979 104.006 119.543C104.27 119.632 104.439 120 104.657 120.239L104.401 120.564L98.1352 118.631Z" fill="#323230"/>
<path d="M152.03 132.772C152.044 133.471 151.838 133.668 151.238 133.492C149.611 133.016 147.965 132.579 146.321 132.153C145.715 131.99 145.562 131.718 145.944 131.12L152.03 132.772Z" fill="#323230"/>
<path d="M98.2085 133.057L103.632 132.357C103.855 132.931 103.822 133.27 103.144 133.344C101.694 133.507 100.248 133.73 98.794 133.865C98.5565 133.888 98.2898 133.583 98.0361 133.429L98.2085 133.057Z" fill="#373735"/>
<path d="M154.173 180.574C152.222 179.244 151.225 177.449 151.571 174.903L116.824 175.324C116.458 179.111 114.537 181.177 111.457 181.177C108.131 181.177 106.23 179.262 105.869 175.501H94.0684C94.0684 173.68 94.0684 171.881 94.0684 170.083C94.083 165.766 94.0472 161.446 94.1399 157.129C94.231 152.888 94.4879 148.651 94.6002 144.41C94.6262 143.392 95.1255 143.109 95.9663 143.026C98.9278 142.756 101.884 142.376 104.851 142.238C112.763 141.849 120.678 141.481 128.595 141.251C134.178 141.088 139.769 141.179 145.355 141.116C146.521 141.103 147.434 141.441 148.083 142.416C150.107 145.477 152.148 148.527 154.152 151.602C154.879 152.716 155.279 154.22 156.266 154.935C157.253 155.651 158.813 155.566 160.101 155.911C162.996 156.68 165.878 157.498 168.766 158.298C170.09 158.665 170.88 159.525 171.043 160.89C171.454 164.065 171.875 167.241 172.238 170.423C172.393 171.776 172.412 173.145 172.5 174.66H162.21C162.573 177.47 161.513 179.455 159.207 180.789L154.173 180.574Z" fill="white"/>
<path d="M155.268 40.8973L155.823 40.2696C155.706 40.146 155.608 40.0257 155.498 39.9233C150.069 35.0046 144.66 30.0664 139.212 25.1786C136.821 23.0355 134.276 21.0631 131.928 18.8777C130.773 17.8013 129.813 16.4729 128.938 15.1509C128.364 14.2908 128.063 13.1834 128.812 12.2355C129.56 11.2875 130.693 11.0143 131.801 11.4371C133.97 12.2631 136.175 13.0631 138.218 14.1509C145.364 17.959 151.809 22.7363 157.654 28.3558C160.581 31.1786 163.751 33.7639 166.81 36.4566L167.08 36.2306C166.896 35.9054 166.704 35.5802 166.53 35.2387C163.39 29.2111 160.219 23.2062 157.14 17.1428C156.546 15.9753 156.268 14.6355 155.928 13.3525C155.665 12.3542 156.024 11.5542 156.89 10.9249C157.81 10.2566 158.753 10.1964 159.55 10.9249C160.806 12.0631 162.141 13.2013 163.087 14.5802C166.106 18.9834 168.954 23.5005 171.881 27.9672C174.772 32.3802 177.431 36.9981 181.191 40.7379C187.165 46.6794 192.937 52.855 199.668 57.9851C202.055 59.8046 204.665 61.4127 207.78 61.1851C209.941 61.0225 212.085 60.3477 214.189 59.7395C216.357 59.1135 218.468 58.2924 220.694 57.5265L234.601 82.1298C233.284 82.8192 231.999 83.5477 230.66 84.1851C224.108 87.3119 217.116 88.9916 210.039 90.3786C199.143 92.5151 188.128 92.842 177.077 92.655C170.959 92.5477 164.839 92.359 158.722 92.1363C153.549 91.946 148.378 91.6485 143.204 91.4127C142.436 91.3793 141.666 91.3989 140.9 91.4712C137.94 91.7542 137.999 90.9834 137.999 88.242C137.999 86.4355 139.113 85.1525 140.56 84.1769C143.191 82.3883 146.197 81.5899 149.274 81.1834C153.775 80.5899 158.313 80.2696 162.821 79.72C165.098 79.4403 167.412 79.1184 169.594 78.4469C174.483 76.9428 177.36 73.359 178.907 68.6306C179.069 68.107 178.949 67.3525 178.69 66.842C176.675 62.8582 173.161 60.8842 169.041 59.6517C162.922 57.8257 157.771 59.7086 153.026 63.5038C148.418 67.1883 144.569 71.5899 140.991 76.2355C139.625 78.0078 138.389 79.8826 136.985 81.6241C136.236 82.5588 135.36 83.3851 134.383 84.0794C133.32 84.8257 132.038 85.2176 130.823 84.3818C129.582 83.5265 129.317 82.1607 129.568 80.8046C129.87 79.0995 130.305 77.4206 130.869 75.7834C133.568 68.0908 137.211 60.8843 142.32 54.4826C145.961 49.9298 150.534 46.7542 156.363 45.7314C157.909 45.4615 159.545 45.7184 161.141 45.6956C161.315 45.6823 161.485 45.631 161.637 45.5454C161.79 45.4597 161.922 45.3417 162.024 45.1997C156.024 43.7233 151.004 45.9379 146.195 49.3282C144.585 48.0582 142.89 46.8208 141.316 45.4517C137.304 41.9786 132.534 39.9948 127.655 38.1168C123.783 36.629 120.069 34.7151 116.344 32.8729C115.008 32.2127 113.82 31.2469 113.367 29.6534C112.879 27.9493 113.427 26.9298 115.172 26.9493C116.965 26.962 118.753 27.1493 120.509 27.5086C127.722 29.0257 134.865 30.8225 141.814 33.333C146.367 34.9737 150.472 37.4534 154.39 40.2631C154.652 40.4485 154.92 40.6501 155.268 40.8973Z" fill="#FEFEFE"/>
<path d="M118.777 116.564L119.58 116.701L119.782 116.766L120.779 116.904L120.99 116.974C121.111 117.026 121.241 117.055 121.372 117.062C122.511 116.899 123.161 117.425 123.426 118.501L122.851 118.599L121.045 117.973C120.915 118.164 120.774 118.377 120.543 118.721L122.371 119.321L122.61 119.415C124.399 119.649 125.519 119.132 126.293 117.717C125.999 117.475 125.999 117.475 124.353 118.327C124.166 117.912 123.981 117.503 123.719 116.927L128.468 114.392L128.718 114.304C134.259 114.116 137.734 116.955 138.788 122.53L138.876 122.781V127.068C138.85 127.151 138.822 127.231 138.796 127.317C138.757 127.574 138.72 127.833 138.681 128.09C138.648 128.169 138.616 128.252 138.582 128.327C137.351 133.033 133.955 135.295 129.501 136.363L128.235 136.664L128.001 136.756L127.025 136.88L126.796 136.958L125.427 137.064C125.399 137.051 125.367 137.049 125.338 137.056C125.308 137.064 125.282 137.082 125.264 137.106H124.802L124.596 137.164H123.059L122.854 137.106H122.39C122.372 137.081 122.346 137.063 122.317 137.055C122.287 137.048 122.255 137.051 122.228 137.064L121.045 136.963L120.829 136.88C117.251 136.181 114.194 134.571 112.283 131.369C111.518 130.088 111.196 128.543 110.673 127.117L110.595 126.833C110.595 126.023 110.595 125.213 110.595 124.403C110.617 124.317 110.639 124.229 110.66 124.143C110.702 123.818 110.743 123.493 110.783 123.168L110.878 122.932C111.595 121.412 112.192 119.816 113.063 118.39C114.039 116.794 115.615 116.114 117.515 116.32L117.78 116.395L118.573 116.501L118.777 116.564Z" fill="#EE7024"/>
<path d="M130.002 89.2128C119.147 98.9689 106.397 99.977 92.991 98.2518L92.7666 97.8859C93.9896 96.8973 95.1475 95.8112 96.4486 94.9412C100.745 92.0664 105.583 90.4632 110.537 89.1803C115.052 88.0128 119.618 87.2111 124.314 87.5689C126.247 87.712 128.129 88.0762 130.002 89.2128Z" fill="#FDFDFE"/>
<path d="M129.19 87.699C123.999 85.9559 119.075 86.5705 114.144 87.4291C113.796 87.4908 113.396 87.5461 113.078 87.4291C106.214 85.0404 100.845 80.7575 96.7227 74.4502C97.931 74.5429 98.9361 74.5721 99.9281 74.7055C106.222 75.5445 112.451 76.6697 118.351 79.138C122.649 80.938 126.229 83.7266 129.19 87.699Z" fill="#FDFDFD"/>
<path d="M139.643 80.0246L139.169 80.5124L139.031 80.3888L139.478 79.8701L139.643 80.0246Z" fill="#EBEAE9"/>
<path d="M122.851 118.599L123.426 118.501L122.851 118.599Z" fill="#33291F"/>
<path d="M149.174 35.4146L149.385 35.7625L148.897 35.5804L149.174 35.4146Z" fill="white"/>
<path d="M122.61 119.415L122.371 119.32L122.61 119.415Z" fill="#33291F"/>
<path d="M138.877 122.781L138.789 122.53L138.877 122.781Z" fill="#322D28"/>
<path d="M110.879 122.927L110.785 123.163C110.816 123.089 110.849 123.01 110.879 122.927Z" fill="#322D28"/>
<path d="M120.997 116.974L120.785 116.904L120.997 116.974Z" fill="#322D28"/>
<path d="M110.662 124.143C110.641 124.229 110.619 124.317 110.597 124.403C110.619 124.317 110.641 124.228 110.662 124.143Z" fill="#322D28"/>
<path d="M110.601 126.83L110.679 127.114L110.601 126.83Z" fill="#322D28"/>
<path d="M128.001 136.756L128.235 136.663L128.001 136.756Z" fill="#322D28"/>
<path d="M120.834 136.88L121.05 136.963L120.834 136.88Z" fill="#322D28"/>
<path d="M119.782 116.766L119.58 116.701L119.782 116.766Z" fill="#322D28"/>
<path d="M122.232 137.063C122.26 137.05 122.292 137.047 122.321 137.055C122.351 137.063 122.377 137.081 122.395 137.105L122.304 137.131L122.232 137.063Z" fill="#322D28"/>
<path d="M122.855 137.105L123.06 137.164L122.855 137.105Z" fill="#322D28"/>
<path d="M124.598 137.164L124.804 137.105L124.598 137.164Z" fill="#322D28"/>
<path d="M118.776 116.564L118.574 116.499L118.776 116.564Z" fill="#322D28"/>
<path d="M125.266 137.106C125.284 137.081 125.31 137.064 125.34 137.056C125.369 137.048 125.4 137.051 125.428 137.063L125.362 137.132L125.266 137.106Z" fill="#322D28"/>
<path d="M117.781 116.393L117.516 116.318L117.781 116.393Z" fill="#322D28"/>
<path d="M128.719 114.309L128.469 114.397L128.719 114.309Z" fill="#322D28"/>
<path d="M138.582 128.327C138.616 128.247 138.649 128.164 138.681 128.089C138.649 128.169 138.616 128.247 138.582 128.327Z" fill="#322D28"/>
<path d="M138.798 127.317C138.824 127.234 138.852 127.155 138.878 127.068C138.852 127.155 138.824 127.234 138.798 127.317Z" fill="#322D28"/>
<path d="M126.794 136.958L127.023 136.88L126.794 136.958Z" fill="#322D28"/>
<path d="M138.901 175.909L138.706 175.917L138.901 175.909Z" fill="#222223"/>
<path d="M126.233 176.083L126.142 176.125L126.044 176.103L126.233 176.083Z" fill="#222223"/>
<path d="M150.637 176.748C150.615 176.723 150.601 176.691 150.598 176.658C150.594 176.625 150.601 176.592 150.617 176.562C150.643 176.602 150.665 176.644 150.684 176.688C150.689 176.697 150.654 176.725 150.637 176.748Z" fill="#222223"/>
</svg>
