<svg width="323" height="200" viewBox="0 0 323 200" fill="none" xmlns="http://www.w3.org/2000/svg">
<path d="M270.051 101.81L237.046 91.9529C237.046 91.9529 234.457 91.2131 231.87 85.6667C229.282 80.1204 218.928 69.7692 208.759 58.6749C198.589 47.5806 197.111 42.4147 186.018 41.1139C174.925 39.8131 157.361 34.6472 157.361 34.6472L149.216 32.0993C149.216 32.0993 142.94 30.3968 145.528 38.5367C148.115 46.6765 169.194 56.4602 176.779 59.2326L183.434 122.083L186.392 137.426L231.689 144.82L246.215 140.888L254.43 141.307C254.43 141.307 275.321 134.405 270.051 101.81Z" fill="white"/>
<path d="M118.964 47.4635C120.572 47.0847 122.155 46.6001 123.787 46.3335C123.966 47.5741 124.926 48.0733 125.877 48.6408C127.232 49.4538 128.582 50.2782 129.909 51.1367C130.064 51.2429 130.227 51.3375 130.397 51.4196C131.021 51.7074 131.587 51.5481 131.929 50.992C132.225 50.5042 132.082 49.9302 131.499 49.54C130.633 48.9579 129.74 48.4131 128.844 47.8749C128.086 47.4196 127.341 46.9432 126.588 46.4782C126.351 46.3318 126.035 46.2294 126.033 45.8603C128.044 45.4359 130.073 45.1416 132.109 44.8684C136.091 44.3464 140.107 44.1404 144.121 44.2522C145.908 44.2688 147.692 44.4183 149.457 44.6993C149.667 44.7367 149.886 44.7676 150.073 44.6115C150.407 44.4083 150.561 44.7205 150.739 44.8701C154.051 47.5497 157.467 50.0847 161.127 52.2782C161.371 52.4229 161.684 52.514 161.729 52.8684C161.702 52.9269 161.662 52.9783 161.612 53.0184C161.562 53.0585 161.503 53.0862 161.44 53.0993C160.552 53.1091 159.68 52.8847 158.8 52.8652C155.255 52.7855 151.781 53.2229 148.423 54.4099C147.991 54.5636 147.591 54.7938 147.242 55.0896C145.731 56.3546 146.013 58.3969 147.821 59.1985C148.592 59.54 149.418 59.6327 150.26 59.657C151.304 59.6863 152.353 59.5253 153.389 59.7627C153.858 60.3237 153.842 60.9969 153.788 61.6635C153.752 62.1107 153.417 62.2733 153.004 62.3286C150.077 62.714 147.172 63.2491 144.3 63.9318C137.239 65.6294 130.563 68.231 124.602 72.4457C120.961 75.0213 117.884 78.1985 115.129 81.6977C112.01 85.6587 109.378 89.927 107.08 94.3985C104.011 100.369 101.179 106.45 98.5847 112.641C97.6336 114.866 97.0276 117.224 96.7876 119.633C96.675 120.818 96.9275 122.009 97.5113 123.047C98.1147 124.13 99.567 124.768 100.837 124.577C102.433 124.338 103.764 123.59 104.942 122.507C106.534 121.044 107.825 119.33 109.079 117.584C109.266 117.324 109.404 117.026 109.73 116.894C109.791 116.885 109.854 116.899 109.905 116.935C109.956 116.972 109.991 117.026 110.001 117.088C110.009 117.545 109.746 117.901 109.546 118.275C107.7 121.703 105.882 125.143 104.717 128.881C104.639 129.133 104.571 129.408 104.269 129.506C100.389 129.651 96.5087 129.26 92.7365 128.343C87.4819 127.042 82.6242 124.916 78.4348 121.363C73.873 117.493 71.1165 112.612 69.9781 106.803C69.5747 104.763 69.3357 102.673 69.456 100.589C69.7338 95.5423 70.7807 90.5679 72.5606 85.8375C74.4033 80.9713 76.9448 76.3992 80.105 72.2652C82.508 69.1109 85.2177 66.2023 88.1943 63.5822C89.2188 62.6782 90.2515 61.7936 91.3281 60.9546C91.5168 60.8066 91.6941 60.6294 91.6973 60.3595C92.8048 61.0408 93.8863 61.7644 95.0019 62.4343C96.0379 63.057 97.0381 63.7351 98.0919 64.3237C98.8335 64.7318 99.445 64.6294 99.7898 64.0684C100.135 63.5074 99.9524 62.9074 99.2173 62.4424C97.6951 61.4814 96.1583 60.5432 94.623 59.605C94.3417 59.4327 93.9611 59.3351 93.9367 58.9026C95.6443 57.8083 97.3243 56.67 99.0645 55.6278C103.847 52.7819 108.949 50.5124 114.265 48.8668C114.937 48.657 115.695 48.5953 116.235 48.0538C116.713 48.1887 116.824 48.6408 117.029 49.0018C117.307 49.4896 117.516 50.018 117.827 50.4847C118.243 51.1026 118.777 51.2701 119.328 50.9725C119.879 50.6749 120.021 50.0928 119.718 49.4327C119.496 48.9448 119.218 48.4879 119.001 47.9969C118.938 47.8278 118.852 47.6522 118.964 47.4635Z" fill="#ECEBEA"/>
<path d="M216.54 157.714C214.224 157.572 211.921 157.28 209.644 156.837C204.516 155.832 199.41 154.714 194.277 153.738C191.79 153.258 189.28 152.906 186.757 152.686C185.186 152.554 183.597 152.408 182.041 152.45C179.032 152.533 176.023 152.741 173.013 153.001C169.634 153.294 166.23 153.398 162.849 152.852C162.781 152.842 162.724 152.761 162.66 152.714C162.846 152.432 163.14 152.388 163.436 152.366C169.006 151.901 174.464 150.537 179.598 148.327C183.739 146.538 187.469 144.076 190.865 141.104C191.516 140.528 192.08 139.803 192.935 139.478C193.497 139.415 194.063 139.4 194.627 139.432C200.909 139.595 207.063 138.72 213.087 136.993C216.827 135.92 220.519 136.018 224.195 137.167C228.573 138.569 233.07 139.564 237.631 140.14C240.482 140.483 243.338 140.79 246.21 140.886C246.818 140.909 247.449 140.896 247.979 141.291C247.195 143.371 245.927 145.167 244.536 146.857C242.282 149.598 239.701 152 236.631 153.829C233.614 155.626 230.394 156.868 226.912 157.406C225.198 157.666 223.481 157.894 221.742 157.894C221.612 157.912 221.485 157.949 221.366 158.005C221.051 158.187 220.879 157.899 220.677 157.771C219.974 157.333 219.332 156.806 218.631 156.372C217.442 155.636 216.679 156.047 216.632 157.427C216.637 157.531 216.604 157.633 216.54 157.714Z" fill="#ECEBEA"/>
<path d="M161.68 52.7968C157.73 50.5529 154.129 47.8163 150.585 44.9919C150.423 44.8586 150.245 44.735 150.076 44.6066C148.592 43.244 147.107 41.883 145.973 40.1952C145.08 38.8651 144.384 37.4553 144.44 35.7952C144.518 33.4277 145.828 31.161 149.216 32.0944C151.714 32.7838 154.157 33.6488 156.673 34.2895C166.087 36.6895 175.513 39.0375 185.073 40.8066C187.15 41.1903 189.28 41.335 191.284 42.0553C194.676 43.2765 197.442 45.4375 199.74 48.1464C204.884 54.2179 210.502 59.8358 216.073 65.5041C221.1 70.6179 225.95 75.8895 229.985 81.8521C231.323 83.8258 232.558 85.867 233.686 87.9675C234.859 90.1578 236.644 91.4537 239.025 92.1318C249.281 95.0586 259.517 98.0326 269.762 100.99C269.925 101.036 270.067 101.099 270.224 101.13C270.483 101.179 270.675 101.221 270.577 101.585C270.48 101.95 270.307 101.886 270.045 101.808C268.71 101.415 267.37 101.042 266.033 100.655C256.78 97.9778 247.525 95.3009 238.269 92.6245C236.155 92.0163 234.512 90.8179 233.429 88.9041C231.352 85.2375 229.136 81.6684 226.547 78.335C223.362 74.2391 219.867 70.4179 216.239 66.7171C210.337 60.7009 204.395 54.722 198.895 48.3188C196.293 45.283 193.099 42.9529 189.031 42.1984C186.343 41.7106 183.646 41.2553 180.965 40.735C173.809 39.3269 166.743 37.5675 159.673 35.7984C156.064 34.896 152.508 33.8131 148.931 32.7984C146.492 32.1057 144.796 33.774 145.134 36.3253C145.409 38.3968 146.565 39.9952 147.899 41.4862C150.119 43.9627 152.81 45.8879 155.453 47.8667C160.724 51.8114 166.435 54.935 172.708 56.9724C175.692 57.948 177.977 59.6342 179.155 62.6635C179.643 63.9318 180.319 65.1301 180.89 66.3692C182.589 70.0651 184.198 73.8163 186.582 77.1448C190.368 82.431 194.995 86.722 201.155 89.1415C201.926 89.4456 202.713 89.7171 203.469 90.0554C204.017 90.2869 204.495 90.6547 204.86 91.1236C204.987 91.2862 205.174 91.4488 204.86 91.6277C204.663 91.7399 204.535 91.8391 204.328 91.5968C203.787 90.9226 203.014 90.4749 202.16 90.3415C201.835 90.4391 201.594 90.1887 201.3 90.1643C197.234 88.6545 193.561 86.2486 190.552 83.1253C189.974 82.4895 189.355 81.892 188.699 81.3366C188.472 81.1893 188.286 80.9846 188.163 80.7431C187.886 80.1708 187.382 79.7675 187.024 79.2684C184.925 76.5903 183.284 73.6391 181.832 70.5757C181.626 70.1393 181.395 69.7158 181.139 69.3074C181.096 68.8602 180.846 68.4944 180.677 68.0911C179.864 66.3708 179.051 64.6488 178.237 62.935C177.932 62.2976 177.519 62.0277 176.8 62.0326C173.022 62.057 169.242 61.9805 165.466 62.0749C163.975 62.1123 162.469 62.1041 160.982 62.3204C160.743 62.3379 160.503 62.3221 160.268 62.2732C160.106 62.2505 160.35 62.4049 160.254 62.4732C159.603 62.7529 158.995 62.7659 158.465 62.2179C158.374 61.3269 158.24 60.4293 158.561 59.5562C158.672 59.4568 158.812 59.3947 158.961 59.3784C159.11 59.362 159.26 59.3924 159.39 59.4651C159.737 59.7805 159.639 60.2066 159.657 60.6033C159.675 61.0001 159.797 61.1805 160.239 61.1545C165.674 60.8293 171.114 60.7204 176.557 60.7789C176.666 60.7776 176.771 60.7418 176.858 60.6765C176.673 60.2635 176.344 59.9724 175.998 59.7009C174.977 58.8879 173.796 58.3643 172.583 57.948C170.631 57.2814 168.711 56.5139 166.798 55.7366C165.24 54.9399 163.661 54.1838 162.14 53.3155C161.952 53.1774 161.795 53.0006 161.68 52.7968Z" fill="#262425"/>
<path d="M201.305 90.0392C201.661 89.9383 201.903 90.1692 202.165 90.3367C205.167 98.1188 205.988 106.197 205.183 114.433C204.336 123.096 200.765 130.62 195.079 137.169C194.572 137.755 194.024 138.307 193.495 138.868C193.381 139.223 193.207 139.519 192.822 139.641C190.002 142.242 187.005 144.61 183.658 146.517C178.575 149.416 173.096 151.138 167.352 152.078C165.796 152.332 164.225 152.504 162.662 152.714C160.096 152.807 157.534 152.912 154.965 152.732C150.463 152.407 146.08 151.574 141.854 149.968C141.551 149.933 141.231 149.999 140.949 149.828C138.281 148.805 135.813 147.403 133.441 145.825C133.167 145.672 132.955 145.429 132.839 145.138C131.055 143.827 129.379 142.374 127.827 140.795C127.661 140.761 127.505 140.692 127.368 140.593C127.231 140.493 127.118 140.365 127.035 140.218C124.344 137.543 122.011 134.53 120.094 131.255C119.955 130.995 119.754 130.768 119.715 130.459C119.622 129.808 119.105 129.361 118.942 128.748C118.573 128.568 118.454 128.19 118.253 127.877C115.775 122.615 114.345 116.921 114.045 111.112C114.013 110.403 113.831 109.704 113.897 108.989C113.842 104.367 114.38 99.7579 115.498 95.2733C117.145 88.7579 119.923 82.7855 124.21 77.5627C127.505 73.5481 131.504 70.3806 135.999 67.8066C137.634 66.8784 139.324 66.0498 141.06 65.3253C141.367 65.231 141.672 65.1302 141.977 65.0229C142.249 64.9275 142.514 64.814 142.771 64.683C145.215 63.7283 147.76 63.0535 150.356 62.6717C151.779 62.4619 153.199 62.1839 154.651 62.231C155.158 62.2489 155.671 62.2717 156.167 62.1058C156.996 62.0879 157.843 61.8391 158.634 62.3009C159.187 62.3091 159.722 62.5351 160.283 62.4326C161.202 62.0652 162.132 62.2977 163.047 62.4164C169.047 63.1894 174.866 65.0013 180.244 67.7709C180.488 67.8862 180.704 68.0525 180.878 68.2587C181.057 68.5595 181.475 68.7855 181.191 69.2343C180.714 69.4603 180.364 69.1204 180.005 68.9335C175.034 66.3535 169.676 64.5994 164.142 63.74C161.678 63.3245 159.182 63.1367 156.684 63.179C148.996 63.3643 141.875 65.5107 135.316 69.5367C132.58 71.1957 130.037 73.1541 127.734 75.3757C125.064 77.9774 122.878 80.9692 121.055 84.218C117.814 89.9985 115.984 96.2359 115.346 102.8C114.603 110.47 115.387 117.977 118.298 125.177C120.118 129.675 122.699 133.712 125.891 137.36C129.022 140.937 132.504 144.106 136.646 146.503C141.13 149.096 145.983 150.568 151.07 151.381C154.509 151.924 157.977 152.013 161.434 151.829C165.649 151.593 169.822 150.865 173.867 149.659C180.238 147.801 186.096 144.501 190.986 140.015C196.24 135.28 200.199 129.282 202.487 122.59C203.595 119.332 204.242 115.934 204.409 112.496C204.497 110.885 204.572 109.278 204.53 107.67C204.396 101.966 203.45 96.405 201.449 91.0424C201.336 90.7188 201.116 90.4066 201.305 90.0392Z" fill="#232321"/>
<path d="M156.051 62.3221C155.877 62.4961 155.652 62.4603 155.442 62.4538C152.027 62.3465 148.719 63.0603 145.454 63.9758C144.51 64.2392 143.642 64.7497 142.65 64.8766C142.442 64.9698 142.228 65.0486 142.009 65.1123C141.684 65.2392 141.341 65.3026 141.016 65.4262C137.815 66.5302 134.61 67.6197 131.575 69.1384C128.101 70.8766 124.829 72.9107 121.906 75.4945C116.392 80.3725 112.345 86.3481 108.789 92.7123C105.98 97.7367 103.716 103.021 101.269 108.22C99.9172 111.093 98.6666 114.002 97.912 117.098C97.5994 118.295 97.4792 119.535 97.5558 120.771C97.7412 123.355 99.3676 124.39 101.87 123.599C103.711 123.016 105.009 121.647 106.19 120.212C108.823 117.005 111.03 113.506 113.141 109.943C113.386 109.529 113.495 108.956 114.095 108.829L114.276 111.143C113.568 112.802 112.549 114.29 111.688 115.859C109.527 119.818 107.297 123.743 105.751 128.003C105.211 129.496 104.775 131.016 104.804 132.633C104.804 132.874 104.822 133.116 104.858 133.355C105.195 135.267 106.635 136.067 108.436 135.33C109.412 134.932 110.272 134.325 111.139 133.738C113.612 132.062 115.814 130.042 118.124 128.161C118.234 128.043 118.369 127.951 118.519 127.893C118.66 128.176 118.802 128.46 118.945 128.743C116.873 130.407 114.817 132.09 112.733 133.72C111.404 134.758 110 135.672 108.418 136.322C106.162 137.249 104.269 135.509 103.95 133.639C103.711 132.226 104.055 130.875 104.276 129.509C105.622 125.13 107.787 121.122 109.93 117.106C109.973 117.047 110.005 116.977 109.958 116.917C109.911 116.857 109.846 116.917 109.795 116.948C108.429 118.805 107.143 120.729 105.466 122.335C104.287 123.473 102.986 124.387 101.34 124.693C98.8244 125.159 97.011 123.825 96.6972 121.278C96.38 118.699 97.0647 116.27 97.912 113.891C99.6765 108.945 102.11 104.29 104.302 99.5335C106.813 94.0534 109.803 88.8054 113.237 83.8506C119.905 74.2814 128.945 68.1384 140.054 64.8619C144.32 63.6017 148.681 62.6903 153.094 62.1367C153.499 62.0847 153.665 61.9741 153.614 61.5465C153.546 60.9904 153.525 60.4294 153.484 59.8701C153.972 59.5075 154.498 59.3823 155.072 59.6619C154.855 60.179 154.366 60.5546 154.48 61.2457C154.566 61.7693 154.642 62.101 155.255 62.0749C155.534 62.0652 155.844 62.0473 156.051 62.3221Z" fill="#262425"/>
<path d="M192.822 139.64L193.496 138.868C193.637 139.112 193.878 139.013 194.075 139.016C199.201 139.098 204.319 138.582 209.326 137.479C211.44 137.018 213.501 136.304 215.646 135.957C218.936 135.427 222.118 135.98 225.241 136.985C231.509 139.009 237.968 139.881 244.505 140.33C248.118 140.579 251.733 140.753 255.355 140.818C255.461 140.818 255.568 140.826 255.68 140.834C255.968 140.853 256.115 140.982 256.085 141.296C256.056 141.609 255.845 141.577 255.625 141.567C253.509 141.475 251.395 141.386 249.283 141.301C248.855 141.283 248.426 141.301 247.998 141.301C245.459 141.091 242.921 140.889 240.385 140.67C234.989 140.214 229.661 139.153 224.503 137.505C220.565 136.244 216.662 136.205 212.647 137.359C206.209 139.202 199.511 139.973 192.822 139.64Z" fill="#272425"/>
<path d="M208.655 162.908C208.655 164.033 208.666 165.158 208.655 166.283C208.643 167.122 208.144 167.664 207.412 167.685C206.68 167.706 206.08 167.104 206.085 166.269C206.101 163.963 206.139 161.658 206.199 159.353C206.198 159.184 206.231 159.017 206.296 158.861C206.36 158.706 206.455 158.564 206.574 158.445C206.694 158.326 206.836 158.232 206.992 158.168C207.148 158.103 207.315 158.071 207.484 158.072C207.824 158.078 208.149 158.218 208.388 158.461C208.627 158.705 208.76 159.032 208.76 159.373C208.788 160.551 208.76 161.732 208.76 162.912L208.655 162.908Z" fill="#EE7024"/>
<path d="M175.479 161.509C175.479 160.384 175.467 159.257 175.479 158.132C175.492 157.197 176.01 156.611 176.78 156.618C177.549 156.624 178.068 157.211 178.063 158.154C178.05 160.379 178.02 162.601 177.973 164.821C177.957 165.618 177.388 166.213 176.705 166.224C175.963 166.237 175.404 165.645 175.404 164.8C175.394 163.701 175.404 162.601 175.404 161.502L175.479 161.509Z" fill="#EE7024"/>
<path d="M126.038 45.8536L131.405 49.2243C132.267 49.7642 132.518 50.4552 132.104 51.1544C131.691 51.8536 130.921 51.9674 130.075 51.452C128.286 50.3609 126.533 49.2325 124.734 48.169C123.992 47.7316 123.638 47.1821 123.789 46.3268C124.51 45.4097 124.867 45.3333 126.038 45.8536Z" fill="#EE7024"/>
<path d="M203.377 169.093C203.346 169.414 203.234 169.723 203.052 169.99C201.953 171.833 200.855 173.676 199.759 175.519C199.248 176.369 198.503 176.621 197.823 176.193C197.173 175.788 197.049 175.024 197.521 174.223C198.65 172.307 199.788 170.396 200.936 168.489C201.299 167.881 201.844 167.667 202.519 167.875C203.107 168.049 203.345 168.506 203.377 169.093Z" fill="#EE7024"/>
<path d="M216.539 157.714C216.337 157.053 216.358 156.432 216.978 156.003C217.628 155.548 218.228 155.821 218.807 156.236C219.65 156.837 220.513 157.411 221.367 157.997C222.242 158.619 223.119 159.237 223.989 159.863C224.802 160.447 224.976 161.175 224.477 161.849C224.015 162.475 223.276 162.536 222.486 161.969C220.508 160.546 218.428 159.263 216.539 157.714Z" fill="#EE7024"/>
<path d="M107.986 18.8148C107.772 20.9741 107.557 23.2148 107.323 25.4522C107.238 26.2652 106.672 26.727 105.914 26.6684C105.194 26.6148 104.708 26.1009 104.776 25.2993C104.924 23.4034 105.132 21.514 105.316 19.6213C105.348 19.2749 105.384 18.9286 105.417 18.5822C105.503 17.6327 106.002 17.1188 106.812 17.1611C107.622 17.2034 108.035 17.7676 107.986 18.8148Z" fill="#EE7024"/>
<path d="M191.291 180.338C191.273 181.197 190.628 181.801 189.844 181.681C187.511 181.346 185.18 180.991 182.851 180.616C182.104 180.494 181.712 179.88 181.825 179.143C181.848 178.976 181.905 178.815 181.992 178.671C182.079 178.527 182.194 178.401 182.331 178.303C182.468 178.204 182.623 178.134 182.788 178.097C182.952 178.06 183.122 178.057 183.288 178.088C185.565 178.413 187.842 178.78 190.119 179.123C190.869 179.237 191.239 179.683 191.291 180.338Z" fill="#EE7024"/>
<path d="M103.716 35.0587C103.725 35.3399 103.637 35.6156 103.466 35.8395C103.296 36.0633 103.053 36.2216 102.78 36.2879C102.129 36.4717 101.612 36.2001 101.287 35.6262C100.773 34.7188 100.29 33.7936 99.7954 32.8733C99.2132 31.7904 98.6196 30.7107 98.052 29.6213C97.6389 28.8262 97.8292 28.1058 98.5058 27.7497C99.1823 27.3936 99.906 27.6392 100.324 28.4001C101.388 30.3514 102.438 32.3123 103.484 34.2684C103.623 34.5096 103.703 34.7805 103.716 35.0587Z" fill="#EE7024"/>
<path d="M117.204 37.9138C117.204 38.961 116.206 39.6097 115.334 39.0975C113.278 37.891 111.255 36.626 109.239 35.3577C108.963 35.1816 108.767 34.9035 108.695 34.5839C108.623 34.2644 108.681 33.9294 108.855 33.652C109.195 33.0764 109.927 32.8 110.528 33.1642C112.6 34.3984 114.645 35.6764 116.689 36.9544C116.852 37.054 116.986 37.1953 117.077 37.364C117.168 37.5327 117.212 37.7225 117.204 37.9138Z" fill="#EE7024"/>
<path d="M193.448 165.488C192.744 165.478 192.31 165.21 192.147 164.614C191.984 164.019 192.096 163.434 192.679 163.151C194.866 162.081 197.07 161.037 199.286 160.032C199.921 159.745 200.62 160.125 200.885 160.745C200.956 160.89 200.996 161.049 201.004 161.211C201.011 161.373 200.986 161.534 200.93 161.686C200.874 161.838 200.787 161.977 200.676 162.095C200.564 162.212 200.43 162.306 200.282 162.371C198.167 163.403 196.029 164.397 193.894 165.393C193.75 165.446 193.6 165.478 193.448 165.488Z" fill="#EE7024"/>
<path d="M74.2034 74.1676C74.1794 74.4895 74.0568 74.7961 73.8522 75.0457C72.4178 76.779 70.998 78.527 69.5506 80.2489C68.9781 80.9302 68.2203 81.0196 67.6397 80.5432C67.0591 80.0668 67.007 79.2814 67.5502 78.6131C68.9716 76.8684 70.4109 75.1367 71.8404 73.3985C72.015 73.156 72.2673 72.9804 72.5554 72.9008C72.8435 72.8213 73.1501 72.8425 73.4244 72.9611C73.9562 73.1709 74.179 73.6131 74.2034 74.1676Z" fill="#EE7024"/>
<path d="M108.827 42.4539C108.611 44.558 108.399 46.6621 108.177 48.7645C108.076 49.7076 107.526 50.2474 106.767 50.1678C105.979 50.0848 105.519 49.397 105.615 48.4507C105.832 46.3737 106.041 44.2962 106.243 42.2182C106.353 41.119 106.83 40.5808 107.658 40.6312C108.518 40.6832 108.902 41.2865 108.827 42.4539Z" fill="#EE7024"/>
<path d="M118.964 47.4634C119.279 48.078 119.6 48.6894 119.91 49.3073C120.299 50.078 120.12 50.8178 119.463 51.1853C118.806 51.5528 118.079 51.3219 117.645 50.5642C117.17 49.7333 116.711 48.8943 116.245 48.0601L114.539 44.7934C114.062 43.8796 114.189 43.1674 114.895 42.769C115.601 42.3707 116.324 42.6634 116.846 43.6016C117.548 44.8861 118.254 46.1734 118.964 47.4634Z" fill="#EE7024"/>
<path d="M93.946 58.914C95.7772 60.062 97.609 61.2089 99.4413 62.3547C99.9682 62.6799 100.254 63.1254 100.147 63.758C100.048 64.3612 99.6592 64.6815 99.0851 64.8165C98.7143 64.9043 98.4005 64.7531 98.1094 64.5693C96.1968 63.3954 94.2908 62.2116 92.375 61.0409C92.1136 60.8576 91.8877 60.6284 91.7083 60.3645C91.6042 58.6994 92.4027 58.1888 93.946 58.914Z" fill="#EE7024"/>
<path d="M192.149 172.216C192.13 173.192 191.081 173.854 190.255 173.307C188.243 171.977 186.277 170.577 184.322 169.166C183.725 168.735 183.671 168.013 184.068 167.446C184.162 167.304 184.284 167.183 184.426 167.09C184.567 166.997 184.726 166.933 184.894 166.903C185.061 166.872 185.232 166.876 185.398 166.913C185.563 166.951 185.719 167.021 185.857 167.12C187.783 168.436 189.689 169.781 191.596 171.12C191.776 171.24 191.921 171.403 192.018 171.595C192.115 171.788 192.16 172.001 192.149 172.216Z" fill="#EE7024"/>
<path d="M203.168 182.284C203.168 181.187 203.168 180.088 203.168 178.99C203.178 178.026 203.718 177.418 204.521 177.441C205.292 177.46 205.749 178.029 205.744 179.008C205.735 181.151 205.717 183.294 205.692 185.436C205.681 186.428 205.172 187.029 204.374 187.029C203.575 187.029 203.118 186.442 203.115 185.418C203.111 184.393 203.115 183.328 203.115 182.284H203.168Z" fill="#EE7024"/>
<path d="M119.533 20.2C120.237 20.1821 120.671 20.4829 120.853 21.0406C121.035 21.5983 120.952 22.2455 120.365 22.5187C118.137 23.5626 115.891 24.5675 113.626 25.5333C112.988 25.8032 112.401 25.517 112.089 24.8683C112.012 24.7172 111.967 24.5519 111.957 24.3828C111.946 24.2136 111.97 24.0441 112.028 23.8846C112.085 23.7251 112.174 23.5791 112.29 23.4555C112.406 23.3319 112.547 23.2333 112.702 23.1658C114.841 22.1805 116.994 21.2292 119.147 20.2731C119.271 20.2304 119.401 20.2058 119.533 20.2Z" fill="#EE7024"/>
<path d="M78.225 57.5267C78.1908 57.678 78.155 57.891 78.0932 58.0942C77.4709 60.1712 76.8453 62.246 76.2165 64.3186C75.9384 65.2243 75.322 65.6015 74.5365 65.3706C73.8112 65.156 73.4924 64.4812 73.7445 63.6292C74.382 61.4747 75.0228 59.3202 75.6863 57.1723C75.9189 56.4178 76.5401 56.0471 77.2102 56.1837C77.5083 56.2562 77.7722 56.4295 77.9571 56.6743C78.142 56.919 78.2367 57.2202 78.225 57.5267Z" fill="#EE7024"/>
<path d="M119.713 130.458L120.248 131.109C120.094 131.663 119.73 132.104 119.455 132.593C118.316 134.613 117.341 136.707 116.83 138.974C116.433 140.74 116.279 142.533 117.194 144.231C117.858 145.462 118.933 145.941 120.294 145.608C121.806 145.237 123.01 144.337 124.116 143.309C124.979 142.542 125.777 141.705 126.502 140.806C126.695 140.556 126.889 140.286 127.199 140.156L127.825 140.806C126.672 141.951 125.679 143.252 124.42 144.293C123.612 144.999 122.717 145.6 121.758 146.081C118.814 147.475 116.306 146.151 115.74 142.941C115.461 141.372 115.628 139.852 116.049 138.333C116.834 135.527 118.072 132.867 119.713 130.458Z" fill="#282526"/>
<path d="M141.057 149.657L141.854 149.971C140.867 151.332 139.966 152.758 138.821 154.003C138.073 154.816 137.275 155.568 136.248 156.02C135.011 156.564 133.882 156.251 133.037 155.194C131.657 153.465 131.755 151.454 131.935 149.446C132.067 147.982 132.471 146.563 132.84 145.142L133.49 145.639C133.531 145.709 133.557 145.787 133.565 145.867C133.573 145.948 133.564 146.029 133.537 146.106C133.111 147.524 132.929 148.984 132.767 150.449C132.604 151.94 132.809 153.348 133.765 154.551C134.503 155.48 135.12 155.582 136.152 155.003C137.291 154.361 138.137 153.377 138.966 152.402C139.499 151.764 139.988 151.09 140.43 150.386C140.58 150.098 140.795 149.848 141.057 149.657Z" fill="#282526"/>
<path d="M155.099 59.7218C154.545 59.5999 154.028 59.9007 153.473 59.8714C151.863 59.9007 150.25 60.0015 148.653 59.7088C146.9 59.3836 145.842 58.2112 146.033 56.7186C146.195 55.4373 147.072 54.6974 148.199 54.2454C149.577 53.7213 151.006 53.3446 152.463 53.1218C155.469 52.6031 158.48 52.4454 161.51 52.969C161.722 53.0373 161.959 52.969 162.161 53.086C163.478 53.7739 164.789 54.4747 166.119 55.1381C166.327 55.2472 166.522 55.378 166.701 55.5283C167.677 56.395 167.77 57.3462 166.97 58.3283C166.647 58.7398 166.232 59.0699 165.758 59.2921C165.285 59.5144 164.765 59.6225 164.242 59.608C163.95 59.608 163.655 59.6259 163.363 59.6161C162.387 59.6568 161.39 59.5121 160.413 59.7169C160.068 59.7738 159.728 59.808 159.437 59.5543H158.635C157.482 59.9999 156.306 60.1722 155.099 59.7218Z" fill="#232321"/>
<path d="M72.6357 101.053C72.852 98.9737 73.0553 96.894 73.2862 94.8176C73.387 93.9233 73.9367 93.481 74.7304 93.5672C75.4801 93.6485 75.9338 94.281 75.8476 95.1412C75.6384 97.2485 75.4259 99.3553 75.2101 101.462C75.1894 101.675 75.153 101.886 75.1012 102.094C74.9207 102.79 74.3547 103.182 73.657 103.07C72.9593 102.957 72.6015 102.481 72.5771 101.779C72.5841 101.538 72.608 101.297 72.6487 101.06L72.6357 101.053Z" fill="#EE7024"/>
<path d="M113.723 55.1221C113.674 55.67 113.438 56.0847 112.91 56.3172C110.825 57.2408 108.75 58.1822 106.661 59.0944C105.848 59.4473 105.128 59.1725 104.84 58.4684C104.552 57.7643 104.829 57.1074 105.591 56.7595C107.663 55.8131 109.738 54.8684 111.828 53.9611C112.789 53.5513 113.729 54.1611 113.723 55.1221Z" fill="#EE7024"/>
<path d="M92.0484 86.9072C92.0663 87.6438 91.7996 88.0714 91.2141 88.2552C90.6287 88.4389 90.0416 88.3202 89.7326 87.7674C88.5616 85.6611 87.4178 83.5392 86.3011 81.4015C86.1631 81.1047 86.1439 80.7664 86.2475 80.456C86.351 80.1455 86.5695 79.8865 86.858 79.7319C87.1466 79.5774 87.4833 79.5391 87.7992 79.6249C88.115 79.7107 88.3861 79.9141 88.5568 80.1934C89.7163 82.2779 90.8336 84.3853 91.9541 86.4893C92.0087 86.6224 92.0406 86.7636 92.0484 86.9072Z" fill="#EE7024"/>
<path d="M82.9416 92.2047C82.6433 92.1901 82.3542 92.0964 82.1041 91.9332C80.2127 90.7624 78.318 89.5982 76.4315 88.4193C75.6672 87.9413 75.4558 87.1689 75.8786 86.512C76.2722 85.8957 77.043 85.764 77.796 86.2242C79.6955 87.3819 81.5837 88.5575 83.4751 89.725C84.0687 90.0925 84.3272 90.6015 84.1256 91.2925C83.9662 91.8876 83.5173 92.1315 82.9416 92.2047Z" fill="#EE7024"/>
<path d="M86.9665 99.4066C86.7323 101.729 86.5225 103.971 86.2721 106.208C86.1598 107.208 85.5679 107.704 84.7596 107.579C84.0033 107.46 83.6212 106.8 83.7139 105.872C83.9172 103.953 84.0993 102.031 84.2928 100.112C84.3254 99.7871 84.3546 99.4619 84.4148 99.1545C84.5644 98.3854 85.1109 97.9789 85.8443 98.0651C86.1688 98.0997 86.4672 98.2589 86.6765 98.5091C86.8859 98.7594 86.9898 99.0812 86.9665 99.4066Z" fill="#EE7024"/>
<path d="M88.6021 73.6992C88.8184 71.6195 89.0266 69.5398 89.2527 67.4618C89.347 66.5935 89.9341 66.0894 90.6854 66.1805C91.4368 66.2715 91.9052 66.9041 91.8239 67.7561C91.607 69.8894 91.3902 72.0227 91.1733 74.1561C91.1537 74.3429 91.1211 74.5282 91.0758 74.7106C90.8985 75.4276 90.3878 75.7756 89.6495 75.6862C89.3398 75.6512 89.0546 75.501 88.8506 75.2654C88.6466 75.0298 88.5387 74.7261 88.5485 74.4146C88.5597 74.1738 88.5847 73.9339 88.6233 73.6959L88.6021 73.6992Z" fill="#EE7024"/>
<path d="M114.511 66.7825C114.093 66.7272 113.68 66.5727 113.452 66.1125C113.317 65.8784 113.26 65.6075 113.29 65.3389C113.319 65.0703 113.433 64.8179 113.615 64.6182C114.807 63.1711 116 61.7212 117.193 60.2686C117.482 59.9158 117.757 59.5483 118.072 59.2199C118.607 58.6654 119.32 58.6329 119.874 59.1044C120.125 59.3143 120.285 59.6137 120.319 59.9391C120.353 60.2644 120.259 60.5903 120.057 60.8475C118.578 62.6865 117.063 64.4963 115.552 66.3077C115.428 66.4629 115.269 66.5867 115.088 66.6692C114.907 66.7517 114.709 66.7905 114.511 66.7825Z" fill="#EE7024"/>
<path d="M97.8325 71.9429C98.4602 71.9315 98.8522 72.1266 99.1026 72.5591C99.3531 72.9916 99.3921 73.5185 99.0636 73.9233C97.5462 75.7965 96.0159 77.6632 94.453 79.4941C94.3409 79.6196 94.2046 79.7212 94.0523 79.7929C93.9 79.8645 93.7348 79.9047 93.5666 79.9111C93.3984 79.9175 93.2306 79.8899 93.0733 79.83C92.916 79.77 92.7724 79.679 92.6511 79.5624C92.1485 79.0941 92.0981 78.364 92.5941 77.7494C94.0253 75.9786 95.4808 74.2258 96.9282 72.4681C96.9945 72.3837 97.0691 72.3064 97.151 72.2372C97.3409 72.0688 97.5797 71.9656 97.8325 71.9429Z" fill="#EE7024"/>
<path d="M109.791 116.95C109.82 116.838 109.875 116.734 109.949 116.645C110.024 116.557 110.118 116.486 110.224 116.439C110.258 116.748 110.103 116.927 109.928 117.107L109.791 116.95Z" fill="#C0BEBD"/>
<path d="M162.168 53.0863C161.937 53.1253 161.708 53.1546 161.518 52.9692C161.571 52.9107 161.627 52.8538 161.68 52.7969C161.874 52.8264 162.049 52.9302 162.168 53.0863Z" fill="#888786"/>
<path d="M207.826 147.457C207.826 147.603 207.71 147.841 207.572 148.073C206.434 149.985 205.295 151.901 204.157 153.805C203.687 154.585 202.913 154.803 202.254 154.384C201.621 153.982 201.488 153.246 201.943 152.476C203.086 150.536 204.239 148.602 205.403 146.673C205.741 146.111 206.243 145.849 206.904 146.057C207.505 146.249 207.816 146.678 207.826 147.457Z" fill="#EE7024"/>
<path d="M213.135 152.725C212.514 152.688 212.054 152.429 211.875 151.857C211.678 151.236 211.805 150.621 212.416 150.322C214.585 149.266 216.767 148.241 218.962 147.247C219.613 146.949 220.291 147.276 220.588 147.897C220.664 148.041 220.71 148.199 220.724 148.361C220.738 148.523 220.719 148.686 220.669 148.841C220.619 148.995 220.538 149.138 220.431 149.261C220.325 149.384 220.194 149.484 220.049 149.556C217.879 150.61 215.688 151.616 213.503 152.636C213.384 152.678 213.26 152.708 213.135 152.725Z" fill="#EE7024"/>
<path d="M188.312 80.7464C188.451 80.8894 188.589 81.0309 188.729 81.1724C193.021 85.5301 195.645 90.8211 197.348 96.6195C198.546 100.7 199.041 104.955 198.812 109.202C198.324 118.385 195.138 126.532 189.069 133.48C182.563 140.922 174.373 145.374 164.599 146.735C155.136 148.055 146.264 146.189 138.117 141.138C130.798 136.603 125.553 130.301 122.267 122.372C120.752 118.662 119.825 114.738 119.518 110.741C118.978 104.298 119.909 98.0943 122.403 92.1464C124.657 86.762 128.064 81.9377 132.386 78.0141C136.708 74.0906 141.839 71.1633 147.416 69.439C150.142 68.5985 152.954 68.0656 155.799 67.8504C161.931 67.3447 167.863 68.161 173.583 70.4033C178.045 72.1504 182.158 74.685 185.723 77.8862C186.174 78.3078 186.603 78.7523 187.008 79.2179C187.41 79.7594 187.989 80.1447 188.312 80.7464Z" fill="white"/>
<path d="M187.008 79.3854C184.135 76.613 180.977 74.2325 177.413 72.3935C170.583 68.8537 163.336 67.3236 155.691 68.0862C141.69 69.4829 131.152 76.3984 124.328 88.6504C115.908 103.772 118.779 122.992 131.018 135.228C137.66 141.867 145.655 145.748 154.987 146.711C175.075 148.787 192.956 135.699 197.448 116.868C200.567 103.795 197.643 91.9902 189.054 81.626C188.936 81.4829 188.832 81.3268 188.729 81.1772C188.994 81.1594 189.084 81.3951 189.217 81.5415C192.539 85.1496 196.352 88.0618 200.972 89.8341C201.087 89.8941 201.196 89.9655 201.297 90.0472C202.634 93.4656 203.588 97.0218 204.142 100.65C204.711 104.58 204.875 108.557 204.629 112.52C204.34 117.398 203.268 122.083 201.156 126.478C195.225 138.823 185.543 146.709 172.351 150.289C167.004 151.744 161.459 152.34 155.925 152.054C146.818 151.593 138.439 149.026 131.368 143.054C123.378 136.302 117.787 127.998 115.833 117.597C113.342 104.324 115.375 91.7951 123.131 80.5821C129.486 71.3951 138.53 65.9821 149.394 63.7724C159.748 61.6667 169.594 63.7073 179.022 68.187C179.744 68.5285 180.463 68.8781 181.181 69.2244C181.357 69.4163 181.583 69.5496 181.705 69.8081C183.211 73.1236 184.976 76.2894 187.176 79.2016C187.225 79.3675 187.165 79.426 187.008 79.3854Z" fill="#EE7024"/>
<path d="M163.49 59.3999C164.45 59.4747 165.392 59.413 166.203 58.8373C167.444 57.9593 167.585 56.9398 166.709 55.5284C166.816 55.5068 166.927 55.5068 167.034 55.5284C169.344 56.6048 171.799 57.304 174.138 58.2926C175.455 58.852 176.631 59.6422 177.439 60.9577C176.951 61.1902 176.481 61.0146 176.026 61.013C170.684 60.9967 165.34 61.013 160.009 61.4422C159.553 61.478 159.369 61.3934 159.415 60.9105C159.456 60.4585 159.441 60 159.452 59.5447L160.417 59.5024C161.433 59.3804 162.468 59.5951 163.49 59.3999Z" fill="#ECEBEA"/>
<path d="M180.879 68.2551C178.457 67.1397 176.054 65.9787 173.522 65.1267C169.222 63.6633 164.839 62.6243 160.282 62.4356L159.527 62.2828C159.527 62.2389 159.527 62.195 159.527 62.1511C160.591 62.0893 161.655 62.0194 162.72 61.9641C163.814 61.9056 164.91 61.8373 166.007 61.8145C169.757 61.7348 173.505 61.6779 177.256 61.7722C177.744 61.7852 178.02 61.9007 178.231 62.3641C179.059 64.1852 179.929 65.9869 180.775 67.7982C180.827 67.9462 180.862 68.0994 180.879 68.2551Z" fill="white"/>
<path d="M155.099 59.7222L158.643 59.5498C158.754 60.4648 158.751 61.3901 158.633 62.3043L156.05 62.3222H155.971C155.432 62.2246 154.629 62.6474 154.409 62.2213C154.125 61.6636 154.262 60.8799 154.26 60.1937C154.257 59.5709 154.855 59.9466 155.099 59.7222Z" fill="white"/>
<path d="M187.009 79.3851L187.186 79.2095C187.584 79.7054 188.162 80.0745 188.313 80.746L187.009 79.3851Z" fill="#C9702E"/>
<path d="M114.095 108.829C112.436 111.452 110.896 114.151 109.097 116.685C107.731 118.608 106.399 120.564 104.628 122.156C103.806 122.932 102.826 123.52 101.755 123.88C99.3281 124.638 97.5262 123.402 97.3375 120.862C97.1749 118.506 97.7978 116.293 98.5735 114.116C100.291 109.296 102.656 104.758 104.791 100.132C107.556 94.1156 110.808 88.366 114.734 83.0083C121.226 74.1676 129.916 68.5969 140.332 65.5221C140.561 65.4538 140.797 65.4066 141.03 65.3513C141.204 65.2635 141.22 65.3611 141.2 65.4977C135.92 67.7318 131.139 70.74 127.052 74.7822C121.285 80.4896 117.728 87.4343 115.731 95.2359C114.678 99.4485 114.143 103.774 114.136 108.116C114.136 108.348 114.11 108.589 114.095 108.829Z" fill="white"/>
<path d="M118.514 127.897C118.388 128.427 117.883 128.606 117.529 128.907C115.176 130.904 112.85 132.938 110.227 134.585C109.685 134.925 109.101 135.2 108.534 135.501C106.46 136.595 104.761 135.07 104.605 133.138C104.449 131.206 105.005 129.423 105.657 127.66C107.257 123.327 109.505 119.307 111.786 115.302C112.588 113.897 113.279 112.426 114.275 111.135C114.631 116.995 115.945 122.601 118.514 127.897Z" fill="white"/>
<path d="M127.199 140.148C125.736 142.262 123.976 144.088 121.685 145.296C118.886 146.769 116.702 145.514 116.363 142.358C116.139 140.265 116.689 138.328 117.412 136.416C118.066 134.72 118.878 133.089 119.835 131.544C119.94 131.382 119.987 131.131 120.249 131.101C122.168 134.402 124.504 137.442 127.199 140.148Z" fill="white"/>
<path d="M141.058 149.657C139.905 151.694 138.561 153.586 136.639 154.969C135.2 156.007 134.172 155.733 133.253 154.225C132.594 153.145 132.456 151.966 132.534 150.748C132.619 149.009 132.941 147.291 133.492 145.639C135.889 147.213 138.381 148.618 141.058 149.657Z" fill="white"/>
<path d="M141.2 65.4895L141.029 65.3431C141.319 65.1236 141.662 65.0927 142.005 65.0586C142.005 65.0944 142.005 65.1301 142.005 65.1659L141.2 65.4895Z" fill="#D0CFCF"/>
<path d="M142.002 65.1656C141.998 65.13 141.998 65.094 142.002 65.0583C142.086 64.975 142.19 64.9145 142.304 64.8826C142.417 64.8507 142.538 64.8485 142.653 64.8762C142.496 65.112 142.261 65.1624 142.002 65.1656Z" fill="#929291"/>
<path d="M160.354 58.8913C158.206 58.8019 156.065 58.9986 153.927 59.1466C152.296 59.2884 150.655 59.2601 149.03 59.062C148.791 59.0323 148.555 58.9778 148.327 58.8994C147.514 58.5986 146.804 58.1401 146.716 57.1905C146.633 56.2929 147.147 55.6474 147.882 55.2279C149.324 54.4035 150.949 54.1254 152.554 53.8393C155.608 53.2946 158.682 53.1368 161.746 53.7612C163.047 54.0263 164.314 54.4425 165.418 55.2246C165.689 55.3978 165.926 55.6181 166.119 55.875C166.474 56.4133 166.752 57.0002 166.404 57.6637C166.038 58.3612 165.417 58.6523 164.667 58.7173C164.267 58.7531 163.865 58.7628 163.464 58.784C162.428 58.9222 161.383 58.7157 160.354 58.8913Z" fill="#EE7024"/>
<path d="M163.491 59.4003C162.468 59.5759 161.439 59.5385 160.409 59.5141C161.429 59.2507 162.468 59.4474 163.491 59.4003Z" fill="#262425"/>
<path d="M160.354 58.891C161.386 58.7121 162.425 58.7886 163.463 58.7804C162.432 59.052 161.388 58.8617 160.354 58.891Z" fill="#262425"/>
<path d="M157.047 69.8066C157.41 71.1075 157.41 72.4473 157.465 73.7692C157.768 80.9237 158.023 88.0782 158.176 95.2327C158.221 97.405 158.338 99.5741 158.376 101.737C158.376 102.262 158.538 102.455 159.051 102.587C162.019 103.345 163.585 106.425 162.331 109.013C161.526 110.677 160.035 111.359 158.316 111.584C156.527 111.816 154.879 111.519 153.726 109.932C153.564 109.703 153.346 109.686 153.098 109.662C148.855 109.231 144.611 108.807 140.387 108.21C138.924 108.005 137.47 107.8 136.045 107.408C135.796 107.34 135.395 107.309 135.395 107.036C135.395 106.678 135.825 106.698 136.079 106.636C138.016 106.176 139.995 105.986 141.971 105.823C145.712 105.516 149.462 105.264 153.207 105.01C153.34 105.015 153.471 104.985 153.588 104.923C153.705 104.861 153.804 104.769 153.874 104.657C154.386 103.798 155.163 103.127 156.088 102.745C156.608 102.54 156.501 102.107 156.504 101.729C156.53 98.7757 156.52 95.8229 156.562 92.8701C156.657 86.0842 156.765 79.2982 156.888 72.5123C156.901 71.6148 156.99 70.7107 157.047 69.8066Z" fill="#262425"/>
<path d="M147.58 138.714C147.917 139.45 147.679 140.109 147.621 140.768C147.604 140.953 147.526 141.143 147.556 141.319C147.617 141.685 147.671 142.106 148.094 142.234C148.463 142.346 148.684 142.024 148.883 141.785C149.332 141.251 149.64 140.612 149.777 139.927C149.868 139.472 149.714 139.224 149.226 139.4C148.927 139.507 148.718 139.543 148.627 139.164C148.52 138.717 148.914 138.768 149.115 138.717C150.124 138.467 150.655 139.005 150.468 140.039C150.311 140.829 149.967 141.57 149.465 142.2C149.071 142.72 148.587 143.089 147.891 142.906C147.195 142.722 146.969 142.128 146.884 141.499C146.775 140.698 147.136 139.92 147.047 139.106C147.006 138.81 147.36 138.818 147.58 138.714Z" fill="#2A2728"/>
<path d="M184.637 91.9723C184.341 92.2545 184.149 92.6288 184.092 93.0341C184.047 93.3707 183.852 93.3902 183.575 93.3284C183.211 93.2471 183.387 93.0195 183.422 92.8325C183.666 91.5626 184.92 90.3431 186.158 90.213C186.745 90.1496 187.134 90.4065 187.205 91.0422C187.277 91.678 186.787 92.6048 186.229 92.7414C185.561 92.9122 184.959 92.7756 184.637 91.9723Z" fill="#2A2728"/>
<path d="M137.899 78.3055C138.865 79.0421 139.896 79.421 140.898 79.8551C141.162 79.9689 141.514 80.0177 141.362 80.4356C141.184 80.9234 140.874 80.5901 140.654 80.5023C139.607 80.0941 138.561 79.6714 137.642 79.0063C136.992 78.5413 137.023 78.0665 137.668 77.608C138.452 77.0486 139.8 77.2193 140.459 77.9819C140.574 78.1136 140.877 78.2746 140.61 78.4958C140.425 78.6502 140.225 78.7819 139.94 78.4958C139.39 77.9267 138.724 77.7445 137.899 78.3055Z" fill="#2A2829"/>
<path d="M130.537 126.319C129.424 126.294 128.738 125.863 128.644 125.275C128.588 124.935 128.663 124.541 128.992 124.471C129.211 124.424 129.47 124.714 129.388 125.078C129.323 125.364 129.574 125.419 129.764 125.507C130.504 125.849 131.616 125.362 131.878 124.582C132.077 124 131.716 123.579 131.065 123.717C130.714 123.79 130.328 123.841 130.276 123.496C130.224 123.151 130.662 123.039 130.977 122.997C131.543 122.92 132.051 123.068 132.408 123.535C132.766 124.001 132.724 124.497 132.475 124.975C132.021 125.854 131.265 126.289 130.537 126.319Z" fill="#2B2829"/>
<path d="M188.95 124.727C188.95 125.922 188.493 126.314 187.579 126.174C187.035 126.089 186.581 125.8 186.106 125.556C185.877 125.439 185.781 125.311 185.924 125.054C186.067 124.797 186.191 124.782 186.431 124.933C186.73 125.113 187.043 125.267 187.368 125.394C187.636 125.504 187.952 125.639 188.181 125.353C188.384 125.096 188.295 124.789 188.16 124.515C187.862 123.914 187.347 123.524 186.796 123.189C186.55 123.042 186.213 122.95 186.495 122.548C186.753 122.179 186.983 122.499 187.163 122.605C188.092 123.14 188.877 123.803 188.95 124.727Z" fill="#2A2829"/>
<path d="M194.692 104.398C193.748 104.285 192.973 104.654 192.174 104.912C191.919 104.995 191.652 105.267 191.454 104.823C191.231 104.325 191.694 104.367 191.909 104.28C192.698 103.954 193.511 103.685 194.374 103.665C194.749 103.665 195.14 103.712 195.331 104.115C195.521 104.519 195.352 104.849 195.118 105.154C194.782 105.612 194.28 105.918 193.719 106.006C193.513 106.039 193.22 106.228 193.147 105.834C193.09 105.533 193.173 105.364 193.547 105.322C193.808 105.301 194.058 105.202 194.262 105.037C194.467 104.873 194.616 104.65 194.692 104.398Z" fill="#2A2829"/>
<path d="M174.653 77.6111C174.89 78.0907 174.528 78.2793 174.238 78.2696C173.949 78.2598 173.955 77.8761 173.955 77.6192C173.952 77.1581 174.117 76.7117 174.42 76.3639C174.859 75.8533 175.438 75.5363 176.047 75.8761C176.655 76.2159 176.411 76.8663 176.224 77.3867C176.066 77.7816 175.874 78.1623 175.651 78.5249C175.547 78.7119 175.489 79.0045 175.126 78.7997C174.763 78.5948 174.952 78.3818 175.072 78.1493C175.279 77.7444 175.469 77.3363 175.656 76.9184C175.721 76.7737 175.791 76.5753 175.629 76.4842C175.498 76.4111 175.321 76.4842 175.186 76.6013C175.027 76.719 174.897 76.8709 174.805 77.0456C174.713 77.2204 174.661 77.4136 174.653 77.6111Z" fill="#2B2829"/>
<path d="M125.113 109.024C124.625 109.003 124.223 108.862 123.991 108.458C123.727 107.993 123.818 107.523 124.086 107.091C124.166 106.962 124.233 106.678 124.485 106.87C124.639 106.987 124.802 107.101 124.739 107.392C124.534 108.322 124.586 108.367 125.552 108.247C126 108.173 126.453 108.125 126.906 108.102C127.505 108.102 127.859 108.41 127.845 109.047C127.845 109.198 127.881 109.429 127.713 109.458C127.546 109.488 127.225 109.377 127.225 109.296C127.124 108.519 126.586 108.852 126.191 108.875C125.796 108.897 125.451 108.975 125.113 109.024Z" fill="#2D2B2C"/>
<path d="M178.93 133.333C178.93 133.415 178.93 133.496 178.93 133.576C178.949 134.02 178.848 134.613 179.471 134.644C179.993 134.668 180.122 134.182 180.089 133.712C180.058 133.366 180.348 133.288 180.543 133.257C180.868 133.208 180.79 133.54 180.808 133.712C180.896 134.538 180.276 135.338 179.539 135.385C178.803 135.433 178.292 134.87 178.225 133.966C178.202 133.619 178.212 133.27 178.255 132.925C178.281 132.701 178.164 132.363 178.622 132.371C179.081 132.379 178.92 132.696 178.938 132.933C178.949 133.065 178.938 133.2 178.938 133.333H178.93Z" fill="#2C2A2A"/>
<path d="M128.889 92.506C128.861 92.7148 128.814 92.9205 128.748 93.1207C128.693 93.2572 128.686 93.5629 128.397 93.4182C128.206 93.3207 127.909 93.2556 128.081 92.9011C128.191 92.625 128.212 92.3217 128.143 92.0329C128.104 91.7629 128.01 91.519 127.705 91.4215C127.591 91.3781 127.465 91.3793 127.351 91.4247C127.237 91.4702 127.145 91.5567 127.092 91.667C126.92 91.9922 126.691 92.0296 126.442 91.8296C126.117 91.5743 126.424 91.3564 126.57 91.1792C126.941 90.7288 127.422 90.4995 127.995 90.7402C128.73 91.0572 128.849 91.719 128.889 92.506Z" fill="#2D2A2B"/>
<path d="M163.605 140.125C163.584 140.407 163.632 140.689 163.745 140.947C163.859 141.206 164.034 141.432 164.256 141.607C164.542 141.833 164.519 142.013 164.329 142.257C164.053 142.607 163.9 142.238 163.768 142.121C163.441 141.843 163.192 141.484 163.048 141.08C162.904 140.675 162.869 140.24 162.947 139.818C162.976 139.615 162.851 139.208 163.322 139.288C163.685 139.35 163.698 139.599 163.63 139.89C163.615 139.967 163.607 140.046 163.605 140.125Z" fill="#2E2B2C"/>
<path d="M184.98 91.5172C185.249 91.366 185.468 91.2229 185.707 91.1107C185.946 90.9985 186.28 90.753 186.482 91.0652C186.683 91.3774 186.39 91.6619 186.202 91.9091C185.976 92.2066 185.714 92.1611 185.446 91.9416C185.306 91.8213 185.174 91.6944 184.98 91.5172Z" fill="#F8F8F9"/>
</svg>
