<svg width="277" height="172" viewBox="0 0 277 172" fill="none" xmlns="http://www.w3.org/2000/svg">
<path d="M217.804 88.4947C218.34 88.7884 218.895 89.0541 219.41 89.3813C222.228 91.1712 225.111 92.8325 228.385 93.6463C229.504 93.926 230.652 94.0379 231.794 94.1819C232.584 94.2812 233.386 94.3022 234.183 94.3581C234.919 94.8307 235.613 94.8223 236.25 94.1749C239.174 94.3511 242.149 94.2168 244.942 95.309C248.649 96.7577 250.957 99.5167 251.836 103.345C252.535 106.395 251.82 109.34 250.647 112.196C248.925 116.391 246.296 120.02 243.713 123.686C241.423 126.936 239.185 130.224 236.858 133.45C234.157 137.201 231.542 141.034 228.613 144.599C225.014 148.972 220.871 152.823 215.913 155.674C210.91 158.55 205.592 160.683 199.956 161.921C197.018 162.567 194.02 162.975 191.032 163.362C189.121 163.625 187.194 163.74 185.266 163.708C179.725 163.59 174.221 162.758 168.893 161.232C162.803 159.468 156.931 157.128 151.153 154.54C150.942 154.445 150.784 154.228 150.594 154.07C150.72 154 150.85 153.937 150.983 153.881C155.836 152.157 160.412 149.733 164.564 146.685C172.235 141.092 178.274 134.038 183.088 125.893C183.27 125.585 183.46 125.282 183.743 124.816C186.138 134.245 188.473 143.44 190.878 152.879C195.939 140.179 200.89 127.757 205.896 115.201L189.097 113.017C189.29 112.436 189.479 111.968 189.6 111.478C190.513 107.823 191.417 104.166 192.314 100.507C193.387 100.073 194.467 99.6523 195.532 99.1993C196.318 98.8664 196.627 98.1924 196.371 97.4779C196.131 96.8052 195.374 96.4878 194.589 96.7787C193.947 97.0122 193.33 97.2989 192.694 97.5618C192.686 97.4136 192.686 97.2652 192.694 97.1171C193.151 92.8786 193.207 88.6359 192.667 84.4045C192.387 82.1671 191.944 79.9604 191.574 77.7412C196.611 77.7678 201.537 78.4656 206.064 80.7505C208.674 82.0678 211.092 83.7724 213.565 85.3512C214.509 85.9525 215.367 86.688 216.264 87.3634C214.133 87.2245 212.002 87.0847 209.872 86.9439C208.892 86.8782 208.266 87.3075 208.193 88.1157C208.122 88.9548 208.645 89.4722 209.626 89.5421L216.106 90.0063C217.263 90.0903 217.706 89.6931 217.804 88.4947ZM213.264 100.346C213.824 100.157 214.132 100.066 214.432 99.9446C216.246 99.2062 218.057 98.4604 219.866 97.7072C221.159 97.1716 221.566 96.5549 221.212 95.7075C220.878 94.9048 220.118 94.765 218.834 95.288C216.914 96.0795 214.997 96.8766 213.082 97.6792C212.43 97.9519 212.022 98.4805 212.267 99.1433C212.446 99.6327 212.951 99.9837 213.264 100.346ZM197.247 82.4104C195.92 82.423 195.352 83.4955 195.914 84.4842C197.033 86.4419 198.169 88.3884 199.321 90.3238C199.786 91.1069 200.536 91.311 201.208 90.9013C201.832 90.5195 202.008 89.7728 201.581 89.0247C200.447 87.0418 199.308 85.0631 198.116 83.1152C197.898 82.7558 197.428 82.5516 197.247 82.4104Z" fill="#EBEAEA"/>
<path d="M72 19.5C83.2533 13.1231 100 2.5 100 2.5L113.5 48.5L26.5 47.5C26.5 47.5 57 28 72 19.5Z" fill="#EB670A"/>
<path d="M192.314 100.511C191.41 104.169 190.506 107.827 189.6 111.483C189.478 111.968 189.289 112.437 189.096 113.021L205.895 115.198C200.89 127.754 195.939 140.176 190.877 152.876C188.479 143.437 186.145 134.243 183.742 124.814C183.463 125.279 183.27 125.583 183.088 125.89C178.277 134.036 172.234 141.085 164.564 146.683C160.412 149.73 155.836 152.155 150.982 153.879C150.849 153.935 150.719 153.998 150.593 154.068C147.618 154.744 144.664 155.553 141.661 156.069C136.671 156.937 131.592 157.177 126.542 156.783C123.254 156.523 119.983 156.073 116.704 155.715C116.461 155.702 116.217 155.702 115.974 155.715C115.554 160.648 115.135 165.566 114.715 170.57L99.5862 164.137C99.9737 163.965 100.216 163.848 100.463 163.749C104.996 161.917 109.523 160.071 114.071 158.277C114.743 158.012 115.091 157.717 115.032 156.966C114.997 156.505 115.119 156.031 115.154 155.719L102.313 151.973L99.7471 150.963C94.7387 148.846 89.8772 146.431 85.5236 143.153C82.8515 141.141 80.3739 138.87 77.8081 136.721L75.9741 134.783C73.3705 131.717 70.9979 128.49 69.119 124.921C66.3115 119.577 64.5096 113.763 63.8028 107.769C63.3831 104.308 63.1789 100.843 63.4517 97.3593C63.4769 97.0363 63.4517 96.7105 63.4517 96.2798L40.0676 102.221L39.9794 102.1L63.6154 79.1483L65.7908 82.5309C69.2281 70.1022 74.943 58.9977 82.9592 48.8553L24.9319 47.9645L24.8857 47.7883L100.291 1.44482L109.432 32.6873C113.219 31.7188 117.094 31.1378 120.998 30.9533C133.487 30.3674 145.349 32.9292 156.591 38.3186C159.529 39.7267 162.296 41.4859 165.157 43.0576C165.535 43.2718 165.959 43.3921 166.394 43.4086C170.954 43.4338 175.515 43.424 180.167 43.5778L172.612 48.5952C179.229 54.3146 184.635 60.9107 188.456 68.9821L194.891 62.1007C198.517 66.4357 201.927 70.5049 205.337 74.577L205.245 74.7392L190.658 67.8872C190.588 67.9259 190.521 67.9693 190.458 68.0172C188.808 69.5652 188.846 69.5554 189.59 71.6642C190.3 73.6736 190.919 75.7195 191.578 77.7415C191.948 79.9607 192.385 82.173 192.671 84.4048C193.211 88.6363 193.155 92.8789 192.697 97.1174C192.69 97.2655 192.69 97.4139 192.697 97.5621C192.566 98.5447 192.438 99.5277 192.314 100.511ZM202.044 72.3032L202.258 72.3326L202.178 72.1494L195.018 63.4935L191.483 67.3852C194.944 68.9947 198.493 70.6504 202.044 72.3032ZM163.811 54.4418L160.593 56.5757C159.148 57.5126 157.695 58.4356 156.272 59.4046C156.101 59.5207 155.977 59.915 156.034 60.1262C156.609 62.2713 157.226 64.4066 157.83 66.5433C158.082 67.4196 158.334 68.2964 158.584 69.1737L159.303 71.9942L158.582 72.2277C158.109 70.5385 157.664 68.9416 157.215 67.3446C156.189 63.7191 155.166 60.0936 154.147 56.4681L153.333 53.5874L150.55 43.4268H164.021C149.551 33.7431 127.769 28.6921 109.656 33.483C111.242 38.9422 112.827 44.4006 114.413 49.8579C115.474 53.503 116.541 57.1472 117.612 60.7904C117.752 61.2785 117.836 61.6966 117.06 61.6295C117.022 61.5302 116.976 61.4267 116.943 61.3176C115.835 57.563 114.716 53.8097 113.649 50.0425C113.489 49.4832 113.264 49.3 112.686 49.2972C110.602 49.286 108.519 49.2021 106.434 49.1713C99.2854 49.0679 92.138 48.9826 84.9892 48.8665C84.333 48.8553 83.8937 49.0357 83.4726 49.5657C75.5059 59.5081 69.8633 70.6275 66.5449 82.9239C66.4691 83.3163 66.5371 83.7228 66.7365 84.0692C67.436 85.2732 68.2041 86.4464 68.9595 87.6154C72.159 92.5825 75.3627 97.5439 78.6056 102.578L77.9774 102.998C76.1433 100.201 74.34 97.4684 72.5773 94.7164C72.2541 94.213 71.9436 94.0591 71.356 94.22C69.3806 94.7625 67.4052 95.3191 65.4019 95.7386C64.4925 95.9302 64.2183 96.3161 64.1974 97.1971C64.1134 100.952 64.1596 104.691 64.6856 108.422C66.4134 120.666 72.0471 130.771 81.3378 138.859C89.3736 145.863 98.7342 150.363 108.954 153.174C111.003 153.733 113.084 154.186 115.249 154.712C115.693 149.538 116.122 144.514 116.552 139.509C117.37 139.327 117.334 139.766 117.292 140.254C117.165 141.763 117.054 143.275 116.938 144.785L116.531 149.228L116.508 149.308C116.508 149.407 116.494 149.506 116.486 149.605C116.335 151.314 116.185 153.023 116.03 154.779C116.602 154.88 117.09 154.996 117.586 155.049C120.539 155.367 123.492 155.67 126.445 155.979L130.205 156.074C130.499 156.107 130.796 156.121 131.093 156.118C134.59 155.857 138.105 155.712 141.585 155.288C145.84 154.782 149.991 153.628 153.896 151.867L156.806 150.484L162.962 146.795L165.126 145.248C165.297 145.131 165.474 145.021 165.638 144.893C172.537 139.495 178.028 132.893 182.504 125.391C183.296 124.063 183.551 122.874 182.886 121.506C182.616 120.443 182.345 119.379 182.075 118.315C181.655 116.618 181.272 114.914 180.816 113.229C180.747 112.981 180.374 112.67 180.108 112.638C174.041 111.826 167.971 111.038 161.897 110.275C161.212 110.188 161.227 109.894 161.451 109.416L181.553 112.013L182.455 112.101L188.24 112.918C188.33 112.73 188.391 112.628 188.429 112.519C190.411 106.919 191.654 101.085 192.127 95.1639C192.41 91.5768 192.344 87.9707 191.929 84.3964C191.546 81.0934 190.939 77.8324 189.804 74.6903C189.288 73.2164 188.773 71.7425 188.277 70.3231L186.574 71.8278L183.58 74.6889L183.124 74.1365L187.744 69.3597L187.559 68.9765C183.905 61.3973 178.763 54.976 172.381 49.5237C172.174 49.3475 171.692 49.2091 171.515 49.3238C168.933 51.0004 166.375 52.7274 163.811 54.4418ZM27.7453 46.9927L27.7928 47.1912L113.145 48.5099C108.66 33.1725 104.224 17.9904 99.7597 2.72993L27.7453 46.9927ZM204.754 115.885L181.588 113.003L190.961 149.976L191.17 149.959C195.688 138.627 200.216 127.269 204.754 115.885ZM63.3076 80.5858L42.7788 100.529L42.8614 100.678L71.6176 93.3558C68.8294 89.0767 66.1084 84.8914 63.3076 80.5858ZM155.771 58.7544L177.562 44.3288H151.661C153.033 49.1392 154.383 53.8825 155.771 58.7544ZM101.682 164.127L113.952 169.343C114.255 165.813 114.547 162.388 114.852 158.83L101.682 164.127Z" fill="#33302D"/>
<path d="M217.805 88.4944C217.707 89.6928 217.265 90.09 216.116 90.0075L209.636 89.5432C208.657 89.4733 208.132 88.9517 208.204 88.1169C208.272 87.3086 208.903 86.8793 209.882 86.9451C212.014 87.0877 214.144 87.2275 216.274 87.3646C217.023 87.4121 217.588 87.717 217.805 88.4944Z" fill="#EB670A"/>
<path d="M236.25 94.175C235.613 94.8224 234.919 94.8308 234.183 94.3581L230.792 88.5171C230.665 88.3174 230.549 88.11 230.447 87.8963C230.152 87.1971 230.318 86.5944 230.962 86.2014C231.627 85.7959 232.295 85.9637 232.675 86.5902C233.922 88.6402 235.129 90.7154 236.276 92.8227C236.464 93.1695 236.268 93.7205 236.25 94.175Z" fill="#EB670A"/>
<path d="M225.901 83.7432C225.901 84.8437 225.912 85.9456 225.901 87.0475C225.888 87.9858 225.403 88.5452 224.619 88.5662C223.804 88.5871 223.283 88.0068 223.275 87.021C223.255 84.8185 223.243 82.6147 223.248 80.4122C223.248 79.4837 223.762 78.9482 224.572 78.9551C225.382 78.9621 225.839 79.4781 225.849 80.4402C225.862 81.5407 225.849 82.6427 225.849 83.7432H225.901Z" fill="#EB670A"/>
<path d="M214.807 81.847C213.589 81.8819 212.868 80.8499 213.408 80.0025C214.705 77.9385 216.079 75.922 217.465 73.9168C217.875 73.3239 218.534 73.2637 219.144 73.6371C219.798 74.0398 219.992 74.7125 219.591 75.3389C218.276 77.3903 216.902 79.4068 215.515 81.4107C215.325 81.6652 214.931 81.7714 214.807 81.847Z" fill="#EB670A"/>
<path d="M62.0826 129.254C62.2896 129.44 62.8184 129.705 63.0031 130.121C63.9418 132.23 64.8022 134.375 65.6612 136.518C65.9592 137.261 65.6752 137.958 65.0358 138.242C64.3363 138.555 63.6131 138.293 63.2815 137.517C62.3736 135.393 61.4796 133.261 60.6234 131.114C60.2569 130.172 60.8556 129.28 62.0826 129.254Z" fill="#EB670A"/>
<path d="M42.3089 125.196C42.0571 125.642 41.9312 126.024 41.6794 126.284C40.1275 127.891 38.5587 129.481 36.9732 131.053C36.2835 131.738 35.4735 131.763 34.9293 131.178C34.3851 130.594 34.4522 129.879 35.1139 129.209C36.6528 127.638 38.2183 126.081 39.7628 124.511C40.2328 124.033 40.805 123.833 41.3758 124.154C41.7466 124.356 41.9788 124.809 42.3089 125.196Z" fill="#EB670A"/>
<path d="M71.0137 143.487C70.7535 144.013 70.6304 144.347 70.4388 144.635C69.2571 146.42 68.0656 148.2 66.8643 149.973C66.3341 150.759 65.5451 150.971 64.8904 150.532C64.2636 150.113 64.1629 149.341 64.6763 148.565C65.9088 146.705 67.1567 144.855 68.399 143.002C68.767 142.451 69.3 142.104 69.9113 142.409C70.3492 142.624 70.6486 143.116 71.0137 143.487Z" fill="#EB670A"/>
<path d="M230.245 53.358C230.009 53.8754 229.911 54.1887 229.737 54.4516C228.541 56.2639 227.334 58.0692 226.118 59.8675C225.585 60.6548 224.785 60.8645 224.14 60.4268C223.495 59.9891 223.411 59.2368 223.926 58.4593C225.156 56.5948 226.395 54.7396 227.643 52.8938C228.005 52.3554 228.544 51.9932 229.16 52.3009C229.596 52.5176 229.897 52.9986 230.245 53.358Z" fill="#EB670A"/>
<path d="M52.9853 127.261C52.7335 127.017 52.2424 126.731 52.0564 126.31C51.7989 125.728 51.985 125.067 52.616 124.791C54.8543 123.828 57.1058 122.898 59.3703 122.001C60.0362 121.74 60.621 122.039 60.919 122.701C61.2169 123.362 61.0505 124.043 60.4181 124.321C58.1336 125.323 55.8084 126.233 53.4973 127.174C53.3285 127.213 53.1576 127.242 52.9853 127.261Z" fill="#EB670A"/>
<path d="M57.1128 142.355C56.9421 142.215 56.4847 142.001 56.265 141.641C55.0717 139.684 53.9259 137.702 52.7899 135.712C52.3702 134.973 52.5745 134.231 53.2334 133.864C53.87 133.507 54.5918 133.672 55.0073 134.368C56.1993 136.358 57.3744 138.359 58.5048 140.381C59.0378 141.318 58.4223 142.355 57.1128 142.355Z" fill="#EB670A"/>
<path d="M222.81 68.839C223.075 68.5733 223.379 68.028 223.789 67.9343C224.199 67.8406 224.971 68.028 225.175 68.3538C226.479 70.4122 227.693 72.5279 228.881 74.6591C229.22 75.266 229.01 75.8966 228.387 76.284C227.765 76.6713 227.079 76.572 226.718 75.9875C225.426 73.89 224.214 71.7365 222.983 69.5983C222.898 69.4501 222.901 69.2557 222.81 68.839Z" fill="#EB670A"/>
<path d="M218.411 62.7759C218.411 63.8764 218.419 64.9769 218.411 66.0775C218.411 66.9333 217.905 67.4982 217.17 67.5178C216.436 67.5374 215.901 66.9976 215.885 66.1334C215.843 63.8746 215.821 61.6157 215.817 59.3569C215.817 58.4102 216.315 57.8886 217.125 57.8956C217.935 57.9026 218.4 58.4549 218.411 59.3862C218.422 60.5161 218.411 61.646 218.411 62.7759Z" fill="#EB670A"/>
<path d="M232.705 60.5846C234.694 60.7133 236.683 60.8279 238.67 60.9734C239.658 61.0461 240.161 61.5998 240.087 62.4403C240.019 63.215 239.449 63.6471 238.478 63.5841C236.252 63.4406 234.028 63.2807 231.805 63.1045C230.957 63.0388 230.44 62.4682 230.494 61.7229C230.547 61.0013 231.078 60.5567 231.903 60.5469C232.17 60.5469 232.439 60.5469 232.706 60.5469C232.706 60.5595 232.706 60.5721 232.705 60.5846Z" fill="#EB670A"/>
<path d="M48.1087 128.606C48.1087 129.734 48.1227 130.864 48.1087 131.992C48.0947 132.887 47.6233 133.374 46.8286 133.37C46.0592 133.37 45.5598 132.85 45.5542 131.971C45.5392 129.684 45.5392 127.396 45.5542 125.108C45.5542 124.282 46.034 123.787 46.7783 123.769C47.5533 123.75 48.0612 124.252 48.0793 125.128C48.1031 126.286 48.0793 127.443 48.0793 128.603L48.1087 128.606Z" fill="#EB670A"/>
<path d="M75.9764 134.778L77.8105 136.716C76.7724 138.266 75.7344 139.815 74.6963 141.365C74.0682 142.299 73.3281 142.539 72.6286 142.05C71.9291 141.56 71.9025 140.823 72.4999 139.936C73.6573 138.216 74.8162 136.496 75.9764 134.778Z" fill="#EB670A"/>
<path d="M99.7478 150.963L102.316 151.961C101.074 153.237 99.8443 154.525 98.5852 155.783C97.9599 156.408 97.1289 156.419 96.6099 155.877C96.0657 155.306 96.1048 154.585 96.7707 153.908C97.7514 152.912 98.7559 151.943 99.7478 150.963Z" fill="#EB670A"/>
<path d="M213.265 100.346C212.952 99.9882 212.447 99.633 212.272 99.1561C212.027 98.4933 212.436 97.9647 213.088 97.692C215.002 96.8903 216.919 96.0932 218.839 95.3008C220.119 94.7722 220.879 94.9121 221.217 95.7203C221.571 96.5677 221.164 97.1844 219.871 97.72C218.063 98.4714 216.252 99.2172 214.438 99.9574C214.133 100.068 213.819 100.157 213.265 100.346Z" fill="#EB670A"/>
<path d="M197.247 82.4102C197.428 82.55 197.898 82.7556 198.116 83.1093C199.308 85.0573 200.447 87.036 201.581 89.0189C202.001 89.767 201.832 90.5137 201.208 90.8955C200.536 91.3052 199.787 91.101 199.321 90.3179C198.169 88.3817 197.033 86.4351 195.914 84.4783C195.352 83.4953 195.92 82.4227 197.247 82.4102Z" fill="#EB670A"/>
<path d="M192.315 100.511C192.441 99.5284 192.568 98.5449 192.695 97.5604C193.325 97.2975 193.954 97.0109 194.59 96.7773C195.375 96.4977 196.129 96.8095 196.372 97.4765C196.629 98.1911 196.319 98.8651 195.533 99.1979C194.468 99.6566 193.388 100.078 192.315 100.511Z" fill="#EB670A"/>
<path d="M126.44 155.986C123.487 155.677 120.534 155.373 117.58 155.056C117.085 155.003 116.601 154.887 116.025 154.786C116.18 153.027 116.33 151.318 116.481 149.612L116.503 149.314L116.526 149.234C117.259 149.318 117.951 149.31 118.425 148.592C119.964 146.267 121.534 143.955 123.06 141.62C123.48 140.971 123.248 139.942 122.666 139.523C122.053 139.072 121.277 139.162 120.651 139.776C120.464 139.965 120.297 140.173 120.152 140.397C119.312 141.627 118.508 142.87 117.663 144.09C117.474 144.369 117.179 144.562 116.933 144.796C117.049 143.286 117.159 141.774 117.287 140.265C117.329 139.777 117.365 139.338 116.547 139.52C116.117 144.525 115.688 149.543 115.244 154.723C113.085 154.199 111.005 153.744 108.949 153.185C98.736 150.374 89.3628 145.874 81.3326 138.87C72.0489 130.77 66.4151 120.666 64.6874 108.423C64.1614 104.692 64.1152 100.953 64.1991 97.198C64.2201 96.317 64.4943 95.9311 65.4037 95.7395C67.407 95.32 69.3824 94.7606 71.3578 94.2209C71.9453 94.0601 72.2559 94.2209 72.5791 94.7173C74.3432 97.4693 76.1451 100.195 77.9792 102.998L78.6073 102.579C75.3645 97.5448 72.1608 92.5848 68.9613 87.6164C68.2058 86.4431 67.4406 85.2741 66.7383 84.0701C66.5389 83.7237 66.4709 83.3172 66.5466 82.9248C69.8828 70.6378 75.5254 59.516 83.4744 49.5596C83.8941 49.0338 84.3348 48.8534 84.9909 48.8604C92.1398 48.9765 99.2872 49.0618 106.436 49.1653C108.521 49.196 110.604 49.2799 112.688 49.2911C113.266 49.2911 113.491 49.4757 113.651 50.0365C114.718 53.8093 115.837 57.5625 116.942 61.3185C116.975 61.4276 117.021 61.5311 117.059 61.6304C117.835 61.6961 117.758 61.278 117.611 60.7914C116.54 57.1481 115.474 53.504 114.412 49.8589C112.826 44.4024 111.241 38.9441 109.655 33.4839C127.768 28.6931 149.552 33.744 164.023 43.4277H150.552L153.334 53.5883C152.66 53.9449 152.47 54.5784 152.625 55.2258C152.801 55.96 153.343 56.42 154.149 56.469C155.175 60.0954 156.197 63.721 157.217 67.3455C157.666 68.9425 158.111 70.5394 158.583 72.2287L159.305 71.9951L158.586 69.1746C158.909 69.1382 159.26 69.1746 159.551 69.0543C162.196 67.993 164.838 66.9274 167.46 65.8129C168.284 65.4619 168.513 64.6774 168.171 63.8776C167.828 63.0777 166.98 62.6666 166.192 62.9952C163.395 64.1586 160.618 65.3584 157.832 66.5443C157.228 64.4076 156.611 62.2722 156.036 60.1271C155.978 59.916 156.103 59.5216 156.274 59.4056C157.696 58.4365 159.15 57.5136 160.595 56.5767C161.26 57.1164 162.815 57.1891 163.477 56.7165C164.177 56.2103 164.276 55.5628 163.81 54.4469C166.374 52.7325 168.932 51.0055 171.52 49.3261C171.696 49.2114 172.179 49.3499 172.386 49.5261C178.768 54.9797 183.909 61.3996 187.563 68.9788L187.745 69.3592L183.105 74.1486L183.561 74.701L186.555 71.8399C186.581 71.9672 186.663 72.1126 186.628 72.2189C186.155 73.648 186.767 74.4968 188.294 74.5318C188.792 74.543 189.288 74.6437 189.785 74.7024C190.92 77.8445 191.527 81.1055 191.91 84.4085C192.324 87.9828 192.39 91.5889 192.107 95.176C191.635 101.097 190.392 106.931 188.41 112.531C188.372 112.64 188.311 112.742 188.221 112.93L182.436 112.113C182.441 112.025 182.463 111.938 182.499 111.857C184.318 109.312 186.173 106.785 187.964 104.218C188.487 103.47 188.213 102.417 187.544 102.018C186.677 101.504 185.934 101.673 185.332 102.565C183.81 104.827 182.297 107.094 180.792 109.368C180.283 110.136 180.373 110.804 181.02 111.45C181.202 111.633 181.367 111.833 181.539 112.025L161.444 109.423C161.22 109.901 161.205 110.195 161.891 110.281C167.963 111.048 174.033 111.835 180.101 112.644C180.367 112.679 180.741 112.987 180.809 113.236C181.269 114.921 181.66 116.624 182.068 118.322C180.027 118.203 177.986 118.062 175.943 117.978C175.047 117.941 174.484 118.509 174.405 119.376C174.342 120.087 175.015 120.923 175.792 120.987C178.152 121.183 180.515 121.338 182.877 121.51C183.541 122.885 183.287 124.066 182.495 125.395C178.018 132.897 172.527 139.499 165.629 144.897C165.465 145.025 165.287 145.134 165.117 145.252C163.997 142.48 162.926 139.693 161.759 136.947C161.376 136.049 160.31 135.883 159.48 136.42C158.796 136.861 158.659 137.607 159.088 138.65C160.094 141.086 161.09 143.525 162.134 145.944C162.274 146.284 162.677 146.516 162.958 146.798L156.802 150.487C156.078 149.297 155.354 148.107 154.63 146.919C154.07 146.008 153.578 145.056 152.951 144.202C152.424 143.487 151.637 143.404 150.981 143.817C150.297 144.248 150.068 145.064 150.436 145.853C150.598 146.201 150.799 146.533 150.995 146.867C151.962 148.535 152.93 150.202 153.898 151.87C149.993 153.632 145.841 154.786 141.587 155.292C138.109 155.712 134.592 155.861 131.095 156.121C130.798 156.125 130.501 156.11 130.206 156.078C130.318 155.776 130.453 155.483 130.611 155.203C131.132 154.41 131.681 153.635 132.224 152.856C132.716 152.157 132.643 151.165 132.053 150.662C131.463 150.159 130.357 150.132 129.935 150.732C128.718 152.452 127.597 154.231 126.44 155.986ZM179.407 84.9035C179.497 84.2379 179.149 83.7457 178.576 83.6268C178.088 83.5261 177.51 83.6618 177.021 83.8324C176.686 83.9484 176.436 84.305 176.148 84.5553C175.187 84.0449 174.707 83.2842 174.873 82.276C174.981 81.6285 174.651 81.6341 174.063 81.5446C174.095 82.1879 173.996 82.7836 174.181 83.2688C174.445 83.968 174.918 84.5777 175.3 85.2265C175.126 85.4922 174.992 85.7957 174.774 86.018C173.544 87.2766 172.289 88.5043 171.054 89.7545C170.296 90.5222 170.25 91.3528 170.9 92.0338C171.467 92.6267 172.52 92.5736 173.196 91.894C174.99 90.1078 176.78 88.3165 178.564 86.52C178.762 86.3187 178.89 86.0446 179.049 85.8055C179.889 85.9257 180.77 85.9173 181.546 86.1998C182.526 86.5578 182.769 87.4737 182.419 88.4568C182.34 88.6791 182.487 88.9826 182.528 89.2483L182.796 89.2245L183.266 88.6064C183.351 88.9015 183.502 89.1951 183.509 89.493C183.539 90.6508 183.497 91.8115 183.53 92.9693C183.557 93.8951 184.33 94.7005 185.122 94.7075C185.858 94.7145 186.711 93.923 186.723 93.0742C186.758 90.3404 186.788 87.6038 186.709 84.8713C186.668 83.5051 185.557 82.8032 184.47 83.2912C183.804 83.5876 183.541 84.1302 183.512 84.856C183.484 85.5384 183.346 86.2152 183.255 86.8934C182.712 85.6852 181.703 85.186 180.457 85.0517C180.1 85.021 179.754 84.9552 179.407 84.9035ZM95.8541 80.5797C96.0128 80.306 96.1934 80.0455 96.3941 79.8008C97.0502 79.1142 97.8127 78.5101 98.3737 77.7564C98.6814 77.3369 98.8955 76.607 98.7388 76.1623C98.5821 75.7176 97.926 75.1834 97.4615 75.1555C96.9383 75.1233 96.2682 75.4953 95.8611 75.8952C93.9794 77.7438 92.1635 79.661 90.3309 81.56C89.6188 82.2955 89.5992 82.9877 90.2469 83.6688C90.8947 84.3498 91.7383 84.3595 92.4615 83.7177C92.8379 83.3849 93.21 83.0493 93.5807 82.7137C93.9724 82.743 94.2802 82.7668 94.4887 82.2564C94.6286 81.918 95.121 81.6593 95.5113 81.5055C96.5298 81.1041 97.4098 81.6201 98.3093 82.0341C99.1753 82.4382 100.059 82.8018 100.937 83.1821L101.198 82.8269C100.998 82.6186 100.834 82.3459 100.594 82.2158C100.026 81.8968 99.4308 81.6282 98.8157 81.4132C97.8393 81.0943 96.8418 80.8538 95.8541 80.5797ZM158.466 143.053L158.491 143.017L158.446 143.038C158.336 142.858 158.259 142.642 158.112 142.5C154.618 139.144 151.117 135.792 147.61 132.444C147.112 131.971 146.982 131.613 147.303 130.938C148.523 128.372 149.642 125.764 150.836 123.18C151.124 122.558 150.917 122.408 150.339 122.377C150.226 122.627 150.131 122.843 150.031 123.055C148.326 126.758 146.619 130.461 144.912 134.163C144.901 133.926 144.887 133.689 144.876 133.451C144.831 132.443 144.119 131.711 143.213 131.742C142.306 131.773 141.837 132.366 141.836 133.456C141.836 136.16 141.836 138.863 141.836 141.567C141.836 142.645 142.366 143.168 143.407 143.177C144.347 143.177 144.861 142.634 144.872 141.58C144.883 140.45 144.872 139.32 144.872 138.19C145.012 138.228 145.152 138.256 145.292 138.305L158.466 143.053ZM90.5071 105.455C88.5863 106.222 86.6683 106.994 84.7447 107.754C83.6255 108.195 83.2058 108.997 83.6255 109.954C83.9837 110.793 84.8398 111.022 85.8989 110.615C87.3286 110.066 88.771 109.546 90.2078 109.013L89.0242 122.437L89.7713 122.478C89.9699 120.464 90.1616 118.518 90.3519 116.588L118.052 110.887C118.052 110.829 118.052 110.772 118.052 110.716L91.0849 100.462C90.8821 102.221 90.6946 103.837 90.5071 105.455ZM135.755 69.3102C135.932 69.5717 136.046 69.8207 136.23 69.9968C136.766 70.5087 137.309 71.0205 137.89 71.4805C141.387 74.2451 141.342 78.7101 137.769 81.3726C137.46 81.6033 137.147 81.8313 136.819 82.0368C134.908 83.2394 132.952 84.3763 131.093 85.653C129.956 86.4347 128.799 87.2933 127.943 88.3533C126.544 90.0817 127.21 92.2142 129.248 93.1218C129.769 93.3339 130.303 93.5127 130.847 93.6573C131.783 93.937 132.752 94.1356 133.658 94.4964C135.559 95.2501 136.09 96.7338 135.093 98.5069C134.722 99.1485 134.258 99.731 133.715 100.235C133.001 100.904 132.176 101.455 131.418 102.074C130.522 102.805 129.684 103.589 129.349 104.846C129.654 104.856 129.963 104.818 130.136 104.644C130.784 104 131.348 103.267 132.015 102.645C133.014 101.713 134.198 100.955 135.082 99.9332C137.39 97.2651 136.556 94.5383 133.213 93.4769C132.958 93.3972 132.694 93.3469 132.438 93.27C131.472 92.9805 130.471 92.7736 129.552 92.375C127.912 91.6633 127.477 90.1055 128.632 88.7393C129.426 87.8079 130.451 87.0332 131.47 86.3424C133.684 84.849 136.015 83.5233 138.2 81.9879C139.149 81.3255 139.947 80.4707 140.543 79.4792C142.105 76.7943 141.188 73.1865 138.567 70.9981C137.817 70.373 137.094 69.7172 136.289 69.0138L135.755 69.3102ZM152.926 71.1058H153.001C152.923 69.5969 152.892 68.0853 152.748 66.5834C152.654 65.6046 151.947 65.0047 151.156 65.0536C150.366 65.1025 149.711 65.8926 149.71 66.8855C149.704 69.4725 149.704 72.0595 149.71 74.6464C149.71 75.9413 150.223 76.5035 151.346 76.4937C152.411 76.4853 152.913 75.9176 152.923 74.6758C152.933 73.4844 152.926 72.2958 152.926 71.1058ZM148.169 57.7121C149.491 57.7261 150.128 57.1346 150.045 56.1739C149.983 55.6791 149.817 55.2028 149.56 54.7756C148.316 52.5871 147.042 50.4182 145.769 48.2465C145.273 47.4075 144.382 47.1446 143.553 47.5837C142.82 47.9711 142.561 48.8828 143.035 49.7218C144.375 52.0991 145.729 54.4581 147.138 56.7892C147.408 57.2353 147.951 57.5234 148.167 57.7121H148.169ZM171.927 68.7901C172.347 68.5104 172.887 68.3272 173.151 67.951C174.738 65.6647 176.271 63.3364 177.799 61.0137C178.187 60.4208 178.031 59.4363 177.559 59.0476C176.835 58.4491 176.054 58.4435 175.416 59.1455C174.922 59.688 174.53 60.3271 174.119 60.9396C172.931 62.7099 171.712 64.4621 170.591 66.273C169.838 67.4896 170.471 68.6264 171.924 68.7901H171.927ZM163.665 74.6143C163.71 74.8202 163.769 75.0229 163.841 75.2212C164.202 76.1315 164.568 77.0391 164.949 77.941C165.638 79.5827 166.304 81.2356 167.047 82.8521C167.445 83.7149 168.182 83.9554 168.961 83.6352C169.74 83.315 170.08 82.5305 169.826 81.6481C169.784 81.5083 169.746 81.3684 169.686 81.2286C168.66 78.76 167.634 76.2937 166.608 73.8298C166.297 73.0886 165.574 72.7349 164.77 72.9432C164.017 73.1348 163.646 73.6592 163.662 74.6143H163.665ZM89.297 73.834C89.2319 73.5189 89.1469 73.2083 89.0424 72.9041C88.0659 70.5138 87.0806 68.1277 86.0863 65.7458C85.6513 64.7012 84.8986 64.3278 83.9879 64.6788C83.1065 65.02 82.7875 65.8703 83.1904 66.8869C83.5835 67.8797 84.0046 68.8614 84.4159 69.8472C85.0553 71.3854 85.675 72.9236 86.3465 74.4423C86.6837 75.1988 87.3398 75.5903 88.1652 75.368C88.8941 75.175 89.3642 74.6926 89.297 73.834ZM135.501 118.505C135.363 118.509 135.225 118.533 135.093 118.576C132.457 119.65 129.812 120.705 127.197 121.833C126.835 121.988 126.549 122.279 126.402 122.643C126.254 123.008 126.257 123.416 126.409 123.778C126.783 124.574 127.622 124.977 128.403 124.663C130.989 123.626 133.569 122.571 136.144 121.499C136.886 121.189 137.348 120.273 137.152 119.592C136.937 118.839 136.409 118.474 135.501 118.505ZM128.669 132.364C128.127 132.715 127.636 132.915 127.317 133.269C126.807 133.835 127.038 134.486 127.372 135.073C128.696 137.352 130.024 139.63 131.356 141.907C131.839 142.733 132.797 143.104 133.543 142.746C134.324 142.365 134.613 141.347 134.091 140.425C132.741 138.053 131.359 135.702 129.945 133.371C129.704 132.977 129.181 132.756 128.669 132.364ZM131.983 44.3647C132.017 43.0166 130.757 42.221 129.677 42.6167C129.344 42.7384 129.03 42.9131 128.698 43.0488C126.453 43.9787 124.199 44.8877 121.965 45.8455C121.623 45.9965 121.351 46.2707 121.203 46.6133C121.054 46.956 121.041 47.3419 121.165 47.6942C121.465 48.4829 122.361 49.017 123.099 48.7192C125.764 47.641 128.416 46.5391 131.048 45.3701C131.498 45.1673 131.777 44.594 131.983 44.3647ZM158.835 103.154C158.596 104.299 159.924 105.002 160.773 104.66C160.964 104.583 161.167 104.53 161.359 104.451C163.768 103.458 166.177 102.461 168.585 101.463C168.78 101.39 168.959 101.279 169.111 101.136C169.263 100.993 169.385 100.821 169.469 100.63C169.554 100.439 169.599 100.234 169.603 100.025C169.607 99.8167 169.569 99.6095 169.491 99.4158C169.422 99.2256 169.314 99.0515 169.175 98.9041C169.037 98.7567 168.869 98.639 168.683 98.5583C168.497 98.4776 168.297 98.4355 168.095 98.4346C167.892 98.4337 167.691 98.474 167.505 98.553C164.894 99.606 162.303 100.704 159.711 101.8C159.125 102.049 158.719 102.463 158.835 103.154ZM163.614 92.5037C164.607 92.5946 165.314 92.0268 165.433 91.1179C165.528 90.367 164.928 89.6454 163.993 89.5419C162.554 89.3811 161.106 89.2958 159.656 89.1825C158.418 89.0861 157.173 89.0427 155.941 88.8861C155.01 88.77 154.154 89.2049 154.01 90.0048C153.81 91.1375 154.347 91.9485 155.455 92.024C158.173 92.2142 160.895 92.3485 163.614 92.5037ZM75.6359 80.6007H75.1001C73.8871 80.6007 73.3261 81.0678 73.308 82.0788C73.2898 83.1458 73.8508 83.5918 75.1071 83.652C76.3634 83.7121 77.6364 83.8869 78.9039 83.9666C80.3827 84.0617 81.8628 84.14 83.3443 84.1638C84.1991 84.1764 84.7181 83.6044 84.7573 82.7654C84.7895 82.0662 84.1683 81.202 83.515 81.1517C80.8905 80.9489 78.2632 80.7811 75.6359 80.6007ZM161.006 112.601C159.805 112.594 159.15 113.686 159.711 114.864C160.107 115.692 160.611 116.469 161.076 117.263C162.037 118.901 163.014 120.531 163.968 122.173C164.406 122.925 165.136 122.917 165.777 122.739C166.418 122.562 166.857 122.03 166.691 121.303C166.558 120.701 166.34 120.121 166.044 119.58C164.889 117.539 163.666 115.535 162.512 113.497C162.162 112.884 161.706 112.569 161.006 112.601ZM132.863 52.7731L133.049 52.9437C133.07 53.18 133.035 53.4387 133.12 53.6429C134.151 56.1599 135.166 58.691 136.276 61.1773C136.47 61.608 137.05 62.0681 137.51 62.1408C138.921 62.3645 139.595 61.2109 138.995 59.7342C138.07 57.459 137.144 55.1839 136.197 52.9157C136.034 52.5688 135.834 52.2405 135.601 51.9369C135.164 51.3188 134.465 51.2824 133.922 51.5481C133.48 51.7718 133.211 52.3522 132.863 52.7731ZM127.705 35.0599C127.727 34.2278 127.338 33.6615 126.506 33.5874C123.65 33.3198 120.793 33.0826 117.934 32.8756C117.106 32.8141 116.32 33.5301 116.256 34.2852C116.184 35.1158 116.63 35.7647 117.561 35.8947C118.904 36.0835 120.265 36.1506 121.618 36.2597C123.062 36.3771 124.508 36.4611 125.955 36.6037C126.92 36.7002 127.687 36.0597 127.705 35.0599ZM137.358 41.2491C137.358 39.8796 137.358 38.5101 137.358 37.1407C137.358 36.152 136.874 35.6025 135.976 35.5465C135.02 35.4892 134.368 35.9381 134.349 36.9099C134.29 39.7962 134.3 42.6852 134.339 45.5729C134.35 46.3881 135.206 47.0286 136.018 46.9866C136.85 46.9433 137.362 46.3657 137.366 45.4484C137.369 44.0491 137.368 42.6503 137.362 41.2519L137.358 41.2491ZM121.618 126.46C121.618 125.034 121.629 123.608 121.618 122.183C121.607 121.243 121.081 120.678 120.243 120.645C119.438 120.617 118.607 121.267 118.597 122.083C118.559 124.934 118.559 127.786 118.597 130.639C118.61 131.517 119.483 132.149 120.388 132.086C121.159 132.032 121.619 131.469 121.622 130.548C121.623 129.193 121.619 127.827 121.618 126.46ZM93.5471 66.7344L93.701 67.1148C94.374 67.1148 95.0455 67.1274 95.717 67.1148C96.4864 67.0952 97.2629 66.9638 98.0225 67.0323C99.2592 67.1456 99.7237 67.7874 99.6453 69.0096C99.5913 69.5724 99.5806 70.1386 99.6132 70.703C99.7825 72.5629 100.556 74.0829 102.303 74.9289C103.982 75.74 105.521 75.4211 106.942 74.2549C107.241 74.0104 107.562 73.7932 107.899 73.6061C108.578 73.2271 109.224 73.1698 109.847 73.778C110.019 73.9459 110.363 73.9375 110.728 74.0368C110.257 72.7237 109.198 72.2189 108.02 72.7055C107.32 72.9978 106.698 73.483 106.061 73.9151C104.75 74.8073 103.263 74.8017 102.017 73.8172C100.618 72.7195 100.272 71.1995 100.384 69.5158C100.412 69.1033 100.499 68.6768 100.443 68.2782C100.24 66.8379 98.7556 65.9779 96.9383 66.1611C96.0248 66.2534 95.1014 66.2464 94.1879 66.3387C93.964 66.3583 93.7598 66.596 93.5471 66.7344ZM97.0908 134.975C97.2111 134.714 97.4377 134.451 97.4349 134.189C97.4168 132.545 98.1974 131.332 99.8286 131.022C100.783 130.84 101.815 131.022 102.808 131.099C103.63 131.16 104.452 131.429 105.261 131.378C106.607 131.299 107.386 130.084 106.906 128.713C106.688 129.043 106.486 129.249 106.401 129.495C106.177 130.205 105.692 130.621 104.985 130.637C104.403 130.651 103.82 130.458 103.232 130.4C102.15 130.292 101.044 130.04 99.9839 130.16C97.5832 130.43 96.1577 132.685 97.0908 134.969V134.975ZM177.128 129.158C177.548 127.62 177.043 126.481 175.857 125.784C174.567 125.027 173.322 125.084 172.393 126.19C171.261 127.546 169.883 127.869 168.252 127.643C168.112 127.634 167.972 127.634 167.832 127.643L167.657 127.913C167.873 128.095 168.067 128.406 168.304 128.439C170.087 128.701 171.661 128.323 172.85 126.837C173.41 126.129 174.158 125.902 174.995 126.246C175.86 126.603 176.479 127.186 176.574 128.204C176.604 128.468 176.864 128.71 177.128 129.152V129.158ZM130.771 40.4492C127.764 39.2802 124.929 39.3781 122.124 40.8086C122.499 41.4784 122.502 41.484 123.043 41.2463C124.683 40.5261 126.381 40.2143 128.16 40.5471C128.935 40.6869 129.698 40.9107 130.485 41.1064L130.771 40.4492Z" fill="white"/>
<path d="M204.755 115.885C200.206 127.294 195.679 138.652 191.175 149.959L190.966 149.976L181.589 113.003L204.755 115.885Z" fill="#EB670A"/>
<path d="M63.309 80.5854C66.107 84.891 68.8295 89.0694 71.619 93.3554L42.8628 100.683L42.7803 100.535L63.309 80.5854Z" fill="#EB670A"/>
<path d="M155.772 58.7539C154.385 53.882 153.035 49.1387 151.662 44.3213H177.563L155.772 58.7539Z" fill="#EB670A"/>
<path d="M101.683 164.127L114.857 158.834C114.552 162.391 114.26 165.816 113.957 169.347L101.683 164.127Z" fill="#EB670A"/>
<path d="M181.539 112.019C181.367 111.828 181.202 111.628 181.02 111.445C180.375 110.799 180.283 110.13 180.792 109.362C182.297 107.089 183.811 104.821 185.332 102.559C185.933 101.667 186.676 101.498 187.543 102.013C188.218 102.411 188.492 103.464 187.963 104.212C186.172 106.78 184.326 109.306 182.499 111.851C182.462 111.932 182.441 112.019 182.436 112.107L181.539 112.019Z" fill="#EBEBEA"/>
<path d="M157.834 66.5427C160.619 65.3569 163.399 64.1571 166.194 62.9936C166.982 62.665 167.835 63.0873 168.173 63.876C168.51 64.6647 168.286 65.4603 167.462 65.8113C164.84 66.93 162.197 67.9914 159.553 69.0528C159.262 69.1688 158.911 69.1367 158.588 69.173C158.336 68.2967 158.085 67.4199 157.834 66.5427Z" fill="#EBEAEA"/>
<path d="M162.952 146.801C162.672 146.522 162.275 146.287 162.128 145.947C161.084 143.528 160.088 141.089 159.082 138.653C158.653 137.61 158.79 136.865 159.474 136.423C160.303 135.886 161.37 136.052 161.753 136.95C162.925 139.696 164.002 142.483 165.11 145.255L162.952 146.801Z" fill="#EBEAEA"/>
<path d="M202.045 72.3043L191.489 67.3848L195.019 63.4932L202.173 72.1491L202.045 72.3043Z" fill="#EB670A"/>
<path d="M116.932 144.789C117.178 144.555 117.473 144.357 117.662 144.083C118.501 142.863 119.318 141.62 120.151 140.389C120.296 140.166 120.463 139.958 120.65 139.769C121.275 139.155 122.049 139.069 122.665 139.515C123.247 139.943 123.483 140.968 123.059 141.613C121.533 143.948 119.966 146.26 118.424 148.585C117.95 149.303 117.257 149.311 116.524 149.227L116.932 144.789Z" fill="#EBEAE9"/>
<path d="M153.888 151.873C152.92 150.206 151.952 148.538 150.985 146.87C150.792 146.536 150.591 146.204 150.426 145.856C150.058 145.067 150.286 144.251 150.971 143.82C151.627 143.401 152.414 143.49 152.941 144.205C153.571 145.059 154.06 146.011 154.62 146.922C155.344 148.112 156.068 149.302 156.792 150.49L153.888 151.873Z" fill="#EBEAEA"/>
<path d="M182.876 121.519C180.514 121.347 178.151 121.191 175.791 120.996C175.013 120.931 174.341 120.095 174.404 119.385C174.48 118.515 175.043 117.947 175.942 117.986C177.985 118.07 180.026 118.211 182.067 118.33C182.335 119.389 182.604 120.452 182.876 121.519Z" fill="#EBEAE9"/>
<path d="M126.439 155.986C127.596 154.231 128.717 152.452 129.927 150.735C130.347 150.135 131.476 150.176 132.045 150.665C132.615 151.155 132.708 152.154 132.216 152.859C131.673 153.638 131.125 154.413 130.603 155.206C130.446 155.487 130.31 155.779 130.199 156.081L126.439 155.986Z" fill="#EBEAE9"/>
<path d="M189.79 74.6994C189.293 74.6407 188.796 74.54 188.298 74.5288C186.778 74.4939 186.159 73.645 186.632 72.2159C186.667 72.1096 186.586 71.9642 186.559 71.8369L188.262 70.3379C188.759 71.7516 189.273 73.2255 189.79 74.6994Z" fill="#E9E9E8"/>
<path d="M163.812 54.4414C164.277 55.5601 164.182 56.2048 163.479 56.711C162.817 57.1878 161.261 57.1151 160.597 56.5711L163.812 54.4414Z" fill="#E9E9E8"/>
<path d="M154.151 56.4676C153.345 56.4186 152.803 55.9586 152.627 55.2244C152.472 54.577 152.662 53.9435 153.336 53.5869L154.151 56.4676Z" fill="#E9E9E8"/>
<path d="M202.179 72.1562L202.259 72.3394L202.045 72.3101L202.179 72.1562Z" fill="#CD651E"/>
<path d="M116.502 149.312C116.502 149.411 116.488 149.51 116.479 149.609C116.488 149.51 116.495 149.411 116.502 149.312Z" fill="#EBEAE9"/>
<path d="M90.5057 105.456C90.6932 103.838 90.8806 102.221 91.0835 100.462L118.036 110.719C118.036 110.775 118.036 110.832 118.036 110.89L90.3364 116.591C90.1462 118.521 89.9545 120.467 89.7559 122.481L89.0088 122.44L90.1923 109.016L90.5057 105.456ZM115.485 110.611L91.7914 101.589C91.3409 106.363 90.903 110.986 90.4525 115.752L115.485 110.611Z" fill="#322E29"/>
<path d="M135.753 69.3104L136.287 69.0195C137.092 69.7187 137.815 70.3788 138.565 71.0038C141.187 73.1951 142.103 76.8001 140.542 79.485C139.946 80.4764 139.147 81.3312 138.198 81.9936C136.013 83.5319 133.682 84.8547 131.468 86.3482C130.444 87.039 129.424 87.8137 128.631 88.745C127.475 90.1042 127.91 91.662 129.55 92.3808C130.469 92.7793 131.471 92.9863 132.436 93.2757C132.692 93.3526 132.956 93.403 133.211 93.4827C136.555 94.5441 137.388 97.2709 135.08 99.939C134.196 100.961 133.012 101.719 132.013 102.65C131.346 103.273 130.782 104.005 130.135 104.65C129.961 104.823 129.652 104.861 129.347 104.851C129.683 103.593 130.521 102.811 131.416 102.08C132.176 101.46 133 100.909 133.713 100.241C134.256 99.7368 134.721 99.1542 135.091 98.5126C136.089 96.7423 135.557 95.2558 133.656 94.5021C132.751 94.1427 131.781 93.9427 130.845 93.6631C130.301 93.5185 129.767 93.3396 129.246 93.1275C127.208 92.2199 126.543 90.0874 127.941 88.359C128.797 87.2991 129.954 86.4405 131.091 85.6588C132.951 84.3821 134.907 83.2452 136.818 82.0426C137.145 81.837 137.458 81.6091 137.767 81.3784C141.341 78.7215 141.388 74.2467 137.888 71.4863C137.307 71.0262 136.769 70.5144 136.229 70.0026C136.044 69.8208 135.931 69.5719 135.753 69.3104Z" fill="#323331"/>
<path d="M144.912 134.156C146.618 130.454 148.325 126.752 150.031 123.049C150.13 122.836 150.225 122.621 150.338 122.371C150.916 122.401 151.123 122.551 150.835 123.173C149.642 125.752 148.522 128.365 147.303 130.931C146.981 131.607 147.111 131.965 147.609 132.437C151.126 135.772 154.627 139.124 158.111 142.493C158.251 142.633 158.335 142.851 158.445 143.032L158.469 143.048L145.298 138.299C145.158 138.251 145.018 138.223 144.878 138.185L143.471 137.581C143.956 136.414 144.437 135.286 144.912 134.156ZM155.233 141.044C155.26 141.001 155.288 140.958 155.316 140.914L146.623 132.566L144.554 137.181L155.233 141.044Z" fill="#302E2A"/>
<path d="M183.253 86.8993C183.344 86.2211 183.482 85.5443 183.51 84.8619C183.54 84.1347 183.803 83.5935 184.469 83.2971C185.56 82.809 186.671 83.511 186.707 84.8772C186.787 87.6097 186.756 90.3463 186.721 93.0801C186.71 93.9289 185.856 94.7204 185.121 94.7134C184.329 94.7134 183.555 93.901 183.529 92.9752C183.495 91.8174 183.537 90.6567 183.508 89.4989C183.508 89.201 183.349 88.9074 183.264 88.6123C183.298 88.5032 183.33 88.3942 183.363 88.2837C183.397 88.1732 183.443 88.0809 183.482 87.9788C183.447 87.7817 183.411 87.5845 183.375 87.3887C183.394 87.3705 183.433 87.3454 183.431 87.337C183.411 87.2957 183.388 87.2564 183.361 87.2195C183.328 87.1188 183.291 87.0056 183.253 86.8993Z" fill="#ECEBEA"/>
<path d="M152.925 71.1055C152.925 72.2955 152.932 73.4827 152.925 74.6742C152.916 75.9145 152.413 76.4823 151.349 76.492C150.23 76.5018 149.716 75.9327 149.712 74.6448C149.705 72.0578 149.705 69.4708 149.712 66.8838C149.712 65.8938 150.348 65.1037 151.158 65.0519C151.968 65.0002 152.657 65.5973 152.75 66.5818C152.89 68.0836 152.925 69.5953 153.004 71.1041L152.925 71.1055Z" fill="#ECEBEA"/>
<path d="M148.165 57.7125C147.95 57.5237 147.407 57.2356 147.134 56.7853C145.725 54.4542 144.371 52.0896 143.031 49.718C142.556 48.8789 142.815 47.9672 143.548 47.5798C144.378 47.1408 145.269 47.3981 145.764 48.2427C147.037 50.4143 148.312 52.5776 149.556 54.7717C149.813 55.1989 149.978 55.6752 150.041 56.1701C150.125 57.1349 149.487 57.7264 148.165 57.7125Z" fill="#EBEBEA"/>
<path d="M171.924 68.7903C170.47 68.6267 169.825 67.4898 170.588 66.2732C171.707 64.4623 172.928 62.7102 174.116 60.9398C174.527 60.3273 174.919 59.6883 175.413 59.1457C176.051 58.4465 176.831 58.4465 177.556 59.0478C178.027 59.4366 178.184 60.421 177.795 61.0139C176.267 63.3408 174.734 65.6649 173.148 67.9513C172.883 68.3274 172.339 68.5204 171.924 68.7903Z" fill="#EBEBEA"/>
<path d="M163.661 74.6146C163.645 73.6595 164.016 73.1351 164.78 72.9365C165.584 72.7282 166.307 73.0764 166.618 73.8231C167.649 76.2852 168.675 78.7514 169.696 81.2219C169.752 81.3617 169.79 81.5016 169.836 81.6414C170.092 82.5238 169.75 83.3083 168.971 83.6285C168.192 83.9487 167.455 83.7082 167.057 82.8454C166.313 81.2289 165.647 79.576 164.959 77.9343C164.578 77.0324 164.212 76.1248 163.851 75.2145C163.775 75.0188 163.711 74.8184 163.661 74.6146Z" fill="#EBEBEA"/>
<path d="M89.2966 73.8345C89.3637 74.6945 88.8937 75.1769 88.1774 75.3727C87.3464 75.595 86.6902 75.2035 86.3587 74.4469C85.6816 72.9311 85.0674 71.3859 84.4281 69.8519C84.0168 68.866 83.5957 67.8844 83.2026 66.8915C82.7997 65.8749 83.1186 65.0247 84 64.6835C84.9093 64.3325 85.662 64.7059 86.0985 65.7505C87.0899 68.1333 88.0752 70.5189 89.0545 72.9073C89.1547 73.211 89.2355 73.5206 89.2966 73.8345Z" fill="#EBEBEA"/>
<path d="M135.5 118.505C136.408 118.474 136.936 118.839 137.151 119.592C137.347 120.273 136.885 121.189 136.143 121.499C133.571 122.574 130.991 123.629 128.402 124.664C127.621 124.977 126.782 124.574 126.408 123.778C126.256 123.416 126.253 123.008 126.401 122.643C126.548 122.279 126.834 121.988 127.196 121.833C129.811 120.705 132.456 119.65 135.092 118.577C135.224 118.533 135.362 118.509 135.5 118.505Z" fill="#EBEBEA"/>
<path d="M128.668 132.365C129.18 132.756 129.703 132.977 129.944 133.372C131.365 135.696 132.748 138.044 134.091 140.418C134.612 141.335 134.323 142.359 133.542 142.739C132.796 143.104 131.838 142.739 131.356 141.9C130.029 139.621 128.701 137.343 127.371 135.066C127.03 134.479 126.812 133.829 127.317 133.262C127.636 132.916 128.127 132.716 128.668 132.365Z" fill="#EBEBEA"/>
<path d="M131.982 44.365C131.776 44.5943 131.496 45.1676 131.05 45.3676C128.427 46.5366 125.769 47.6386 123.101 48.7167C122.362 49.0146 121.467 48.4804 121.166 47.6917C121.042 47.3394 121.056 46.9535 121.204 46.6108C121.352 46.2682 121.625 45.994 121.966 45.843C124.205 44.8879 126.454 43.979 128.699 43.0463C129.028 42.9064 129.343 42.7358 129.679 42.6142C130.756 42.2212 132.015 43.0169 131.982 44.365Z" fill="#EBEBEA"/>
<path d="M158.834 103.154C158.718 102.463 159.124 102.049 159.71 101.8C162.302 100.704 164.893 99.606 167.504 98.553C167.69 98.474 167.891 98.4337 168.093 98.4346C168.296 98.4355 168.496 98.4776 168.682 98.5583C168.868 98.639 169.035 98.7566 169.174 98.904C169.313 99.0515 169.421 99.2256 169.49 99.4158C169.568 99.6095 169.606 99.8167 169.602 100.025C169.598 100.234 169.553 100.439 169.468 100.63C169.384 100.821 169.262 100.993 169.11 101.136C168.958 101.279 168.779 101.39 168.584 101.463C166.175 102.461 163.767 103.458 161.358 104.451C161.166 104.53 160.963 104.583 160.772 104.66C159.922 105.002 158.595 104.299 158.834 103.154Z" fill="#EBEBEA"/>
<path d="M163.613 92.5038C160.893 92.3486 158.172 92.2143 155.454 92.0283C154.346 91.9528 153.809 91.1418 154.009 90.0091C154.149 89.205 155.009 88.7701 155.94 88.8904C157.172 89.0456 158.417 89.0904 159.655 89.1868C161.1 89.3001 162.548 89.3854 163.992 89.5462C164.927 89.6497 165.531 90.3713 165.432 91.1222C165.313 92.0269 164.606 92.5947 163.613 92.5038Z" fill="#EBEBEA"/>
<path d="M75.6351 80.6006C78.2624 80.781 80.8897 80.9488 83.5142 81.1515C84.1675 81.2019 84.7886 82.0703 84.7565 82.7653C84.7173 83.6043 84.1969 84.1762 83.3435 84.1636C81.862 84.1399 80.3818 84.0616 78.9031 83.9665C77.6356 83.8868 76.3737 83.7106 75.1062 83.6518C73.8388 83.5931 73.2876 83.1456 73.3071 82.0787C73.3253 81.0676 73.8863 80.6048 75.0992 80.6006H75.6351Z" fill="#EBEBEA"/>
<path d="M161.005 112.602C161.704 112.568 162.16 112.881 162.51 113.498C163.67 115.535 164.888 117.539 166.042 119.581C166.339 120.121 166.556 120.702 166.689 121.304C166.855 122.031 166.396 122.562 165.775 122.74C165.154 122.917 164.404 122.926 163.966 122.173C163.012 120.532 162.036 118.901 161.075 117.264C160.609 116.469 160.105 115.692 159.709 114.864C159.148 113.688 159.803 112.595 161.005 112.602Z" fill="#EBEBEA"/>
<path d="M132.862 52.7734C133.211 52.3539 133.479 51.7722 133.927 51.5513C134.467 51.2856 135.166 51.3219 135.606 51.94C135.839 52.2437 136.039 52.5719 136.202 52.9189C137.146 55.187 138.072 57.4622 139 59.7374C139.6 61.214 138.926 62.3677 137.515 62.144C137.055 62.0712 136.475 61.6112 136.281 61.1805C135.171 58.6942 134.156 56.1673 133.125 53.646C133.04 53.4377 133.075 53.179 133.054 52.9468L132.862 52.7734Z" fill="#EBEBEA"/>
<path d="M127.704 35.0602C127.685 36.0601 126.919 36.7005 125.948 36.5985C124.507 36.4586 123.06 36.3719 121.611 36.2545C120.257 36.1454 118.895 36.0783 117.554 35.8895C116.624 35.7594 116.177 35.1106 116.249 34.28C116.314 33.5248 117.101 32.8089 117.927 32.8704C120.787 33.082 123.644 33.3193 126.499 33.5822C127.337 33.6647 127.727 34.2282 127.704 35.0602Z" fill="#EBEBEA"/>
<path d="M137.363 41.2522C137.363 42.6505 137.363 44.0489 137.363 45.4473C137.363 46.366 136.847 46.9436 136.014 46.9855C135.209 47.0275 134.352 46.387 134.336 45.5717C134.296 42.6841 134.287 39.7951 134.345 36.9088C134.365 35.9369 135.017 35.4881 135.972 35.5454C136.871 35.5999 137.353 36.1509 137.355 37.1395C137.363 38.5099 137.362 39.8804 137.363 41.2522Z" fill="#ECEBEA"/>
<path d="M121.617 126.46C121.617 127.827 121.617 129.193 121.617 130.56C121.617 131.475 121.154 132.037 120.383 132.099C119.478 132.162 118.605 131.529 118.592 130.651C118.551 127.8 118.551 124.948 118.592 122.096C118.602 121.279 119.432 120.629 120.238 120.657C121.077 120.685 121.602 121.25 121.613 122.195C121.628 123.608 121.617 125.034 121.617 126.46Z" fill="#ECEBEA"/>
<path d="M93.5838 82.714C93.2089 83.0496 92.8368 83.3852 92.4647 83.718C91.7414 84.3599 90.888 84.3417 90.2501 83.6691C89.6121 82.9964 89.6219 82.2959 90.334 81.5603C92.1667 79.6613 93.9826 77.7441 95.8642 75.8955C96.2713 75.4956 96.9414 75.1236 97.4646 75.1558C97.9291 75.1837 98.5838 75.7151 98.7419 76.1626C98.9 76.6101 98.6846 77.3414 98.3768 77.7567C97.8172 78.5104 97.0533 79.1145 96.3972 79.8011C96.1966 80.0459 96.016 80.3063 95.8572 80.58C94.1672 81.0121 93.6762 81.475 93.5838 82.714Z" fill="#EBEAEA"/>
<path d="M144.912 134.156C144.438 135.286 143.962 136.414 143.47 137.586L144.877 138.19C144.877 139.32 144.884 140.45 144.877 141.58C144.866 142.634 144.352 143.184 143.412 143.177C142.371 143.169 141.845 142.646 141.841 141.567C141.833 138.864 141.833 136.16 141.841 133.457C141.841 132.366 142.325 131.779 143.218 131.743C144.11 131.706 144.836 132.442 144.881 133.451C144.887 133.685 144.901 133.92 144.912 134.156Z" fill="#EBEAE9"/>
<path d="M179.05 85.8109C178.891 86.05 178.771 86.3241 178.565 86.5254C176.783 88.3256 174.993 90.1169 173.197 91.8994C172.521 92.5734 171.468 92.6265 170.901 92.0392C170.251 91.3582 170.297 90.5276 171.055 89.7599C172.29 88.5097 173.545 87.2791 174.775 86.0234C174.993 85.8011 175.128 85.4976 175.301 85.2319L179.05 85.8109Z" fill="#EBEAEA"/>
<path d="M90.5068 105.456L90.2004 109.013C88.7636 109.546 87.3213 110.066 85.8915 110.616C84.8325 111.023 83.9763 110.79 83.6181 109.954C83.2096 108.998 83.6293 108.195 84.7373 107.754C86.6679 106.995 88.586 106.222 90.5068 105.456Z" fill="#EBEAE9"/>
<path d="M93.5459 66.7348C93.7585 66.595 93.9656 66.3586 94.188 66.3349C95.1016 66.2426 96.0249 66.2496 96.9384 66.1573C98.7571 65.9741 100.24 66.8341 100.443 68.2744C100.499 68.6757 100.412 69.0994 100.384 69.512C100.272 71.19 100.621 72.7156 102.017 73.8134C103.267 74.7922 104.75 74.8034 106.061 73.9112C106.696 73.4791 107.32 72.9939 108.02 72.7017C109.198 72.2094 110.258 72.7198 110.728 74.0329C110.363 73.9336 110.019 73.942 109.847 73.7742C109.224 73.1659 108.578 73.2232 107.9 73.6022C107.562 73.7893 107.241 74.0065 106.943 74.251C105.528 75.4173 103.98 75.7361 102.304 74.9251C100.556 74.086 99.7854 72.559 99.6133 70.6992C99.5807 70.1347 99.5915 69.5686 99.6455 69.0057C99.7238 67.7836 99.2594 67.1417 98.0227 67.0284C97.263 66.9599 96.4838 67.0914 95.7171 67.111C95.0456 67.1277 94.3741 67.111 93.7012 67.111L93.5459 66.7348Z" fill="#373736"/>
<path d="M97.0904 134.97C96.1573 132.685 97.5828 130.43 99.9835 130.158C101.044 130.038 102.149 130.289 103.232 130.397C103.82 130.456 104.403 130.649 104.985 130.635C105.691 130.618 106.177 130.203 106.401 129.492C106.479 129.246 106.687 129.04 106.906 128.71C107.386 130.081 106.606 131.296 105.26 131.376C104.452 131.423 103.629 131.155 102.808 131.096C101.815 131.022 100.782 130.837 99.8282 131.019C98.197 131.33 97.4164 132.542 97.4345 134.187C97.4373 134.445 97.2107 134.708 97.0904 134.97Z" fill="#343533"/>
<path d="M179.05 85.8109L175.301 85.2263C174.916 84.5775 174.444 83.9678 174.182 83.2686C173.997 82.7834 174.097 82.1877 174.064 81.5444C174.652 81.6339 174.982 81.6283 174.874 82.2758C174.708 83.284 175.188 84.0447 176.149 84.5551L179.409 84.9033C179.756 84.9551 180.101 85.0194 180.451 85.0571C181.71 85.197 182.712 85.6906 183.249 86.8988C183.287 87.0051 183.324 87.1127 183.361 87.219C183.351 87.2466 183.347 87.276 183.349 87.3051C183.352 87.3343 183.36 87.3627 183.375 87.3882C183.411 87.584 183.448 87.7812 183.483 87.9783C183.443 88.0804 183.403 88.1825 183.364 88.2832C183.324 88.3839 183.298 88.5027 183.264 88.6118L182.794 89.2299L182.527 89.2537C182.485 88.988 182.338 88.6845 182.418 88.4622C182.768 87.4833 182.526 86.5632 181.545 86.2052C180.771 85.9227 179.887 85.9311 179.05 85.8109Z" fill="#343533"/>
<path d="M177.127 129.152C176.863 128.71 176.603 128.468 176.577 128.204C176.482 127.179 175.862 126.596 174.998 126.246C174.159 125.902 173.417 126.129 172.853 126.836C171.668 128.323 170.09 128.7 168.307 128.439C168.07 128.405 167.876 128.095 167.66 127.913L167.835 127.643C167.975 127.634 168.115 127.634 168.255 127.643C169.886 127.873 171.264 127.545 172.396 126.19C173.325 125.072 174.57 125.027 175.86 125.783C177.042 126.476 177.551 127.617 177.127 129.152Z" fill="#373736"/>
<path d="M130.771 40.4494L130.491 41.0996C129.704 40.9094 128.941 40.6913 128.166 40.5402C126.388 40.2088 124.69 40.5207 123.05 41.2394C122.509 41.4772 122.506 41.4716 122.131 40.8017C124.93 39.3782 127.763 39.2803 130.771 40.4494Z" fill="#343533"/>
<path d="M93.584 82.7135C93.6763 81.4746 94.1674 81.0117 95.8532 80.5796C96.8408 80.8593 97.8383 81.0942 98.812 81.4186C99.426 81.632 100.02 81.8987 100.587 82.2157C100.828 82.3457 100.992 82.6184 101.192 82.8268L100.93 83.182C100.053 82.8016 99.1688 82.438 98.3028 82.0339C97.4102 81.6144 96.5303 81.104 95.5048 81.5053C95.1145 81.6591 94.6248 81.9178 94.4821 82.2562C94.2779 82.7666 93.9757 82.7429 93.584 82.7135Z" fill="#343533"/>
<path d="M179.407 84.9034L176.147 84.5552C176.436 84.3049 176.686 83.9484 177.02 83.8323C177.51 83.6617 178.088 83.526 178.576 83.6267C179.148 83.7456 179.491 84.2378 179.407 84.9034Z" fill="#EBEAE9"/>
<path d="M158.445 143.031L158.49 143.01C158.49 143.01 158.465 143.047 158.468 143.048L158.445 143.031Z" fill="#302E2A"/>
<path d="M115.485 110.611L90.4531 115.752C90.9036 110.986 91.3415 106.363 91.792 101.589L115.485 110.611Z" fill="#EB670A"/>
<path d="M155.233 141.044L144.553 137.181L146.622 132.566L155.315 140.909C155.287 140.956 155.259 141.001 155.233 141.044Z" fill="#EB670A"/>
<path d="M183.366 88.2839C183.405 88.1832 183.446 88.0811 183.485 87.979C183.446 88.0811 183.407 88.1818 183.366 88.2839Z" fill="white"/>
<path d="M183.379 87.3884C183.364 87.3629 183.356 87.3345 183.353 87.3053C183.351 87.2762 183.355 87.2468 183.365 87.2192C183.392 87.2561 183.415 87.2954 183.435 87.3367C183.437 87.3451 183.398 87.3702 183.379 87.3884Z" fill="white"/>
<path d="M52.8286 36.5901C53.0785 36.5132 53.3381 36.4732 53.5995 36.4712C53.797 36.4715 53.9935 36.5002 54.1829 36.5565C54.4156 36.6443 54.6172 36.799 54.762 37.0012C54.9039 37.186 54.9829 37.4115 54.9873 37.6444C54.9774 37.9081 54.8909 38.1632 54.7383 38.3786L54.4781 38.7785C54.7243 38.7779 54.9702 38.7952 55.2139 38.8302C55.3235 38.8408 55.4293 38.8762 55.5231 38.9337C55.6629 39.0238 55.7775 39.1479 55.8561 39.2945C55.9794 39.5278 56.0564 39.7828 56.0827 40.0454C56.1284 40.3391 56.0866 40.6396 55.9624 40.9096C55.8361 41.178 55.6505 41.4142 55.4196 41.6004C55.1763 41.7979 54.8982 41.9482 54.5998 42.0437C54.2905 42.1314 53.9698 42.1724 53.6485 42.1654C53.413 42.1764 53.1813 42.103 52.9951 41.9584C52.7971 41.7399 52.6308 41.4947 52.5013 41.2299C52.2999 40.7562 52.1238 40.2721 51.9739 39.7797C51.8106 39.2521 51.653 38.6844 51.501 38.0765C51.3611 37.5172 51.3205 37.2207 51.3695 37.1774C51.4425 37.1177 51.5218 37.0661 51.6059 37.0236C51.8872 36.9003 52.176 36.7947 52.4705 36.7075C52.602 36.6614 52.7153 36.6222 52.8286 36.5901ZM53.1616 37.4067H53.1378C53.056 37.4337 52.9807 37.4775 52.9168 37.5354C52.8921 37.554 52.8732 37.5793 52.8623 37.6083C52.8514 37.6372 52.849 37.6687 52.8552 37.699L53.0595 38.4233C53.0634 38.4397 53.0706 38.4552 53.0805 38.4688C53.0905 38.4824 53.103 38.4939 53.1175 38.5027C53.1319 38.5114 53.148 38.5171 53.1647 38.5196C53.1814 38.5221 53.1984 38.5212 53.2148 38.517C53.3164 38.5036 53.4128 38.4641 53.4946 38.4023C53.5949 38.3308 53.675 38.2344 53.7268 38.1227C53.7853 37.9965 53.7963 37.8535 53.7576 37.7199C53.743 37.6539 53.7131 37.5922 53.6703 37.5397C53.6276 37.4873 53.5731 37.4455 53.5113 37.4179C53.3993 37.3752 53.2762 37.3713 53.1616 37.4067ZM53.8947 39.714C53.7784 39.7426 53.6717 39.8015 53.5855 39.8846C53.5499 39.9165 53.5242 39.958 53.5115 40.0042C53.4989 40.0503 53.4998 40.0991 53.5141 40.1447L53.8247 40.9907C53.8522 41.0375 53.8918 41.0761 53.9393 41.1024C53.9868 41.1287 54.0404 41.1418 54.0947 41.1404C54.2293 41.1418 54.3614 41.1044 54.4753 41.0327C54.6198 40.9478 54.7324 40.8178 54.7959 40.6627C54.8593 40.5075 54.87 40.3359 54.8264 40.1741C54.7966 40.0364 54.7206 39.913 54.611 39.8245C54.51 39.7476 54.3901 39.6993 54.264 39.6847C54.1401 39.6709 54.0148 39.6808 53.8947 39.714Z" fill="white"/>
<path d="M56.5417 35.3914C56.8744 35.2937 57.2244 35.2698 57.5672 35.3215C57.8729 35.3655 58.1517 35.5203 58.3506 35.7564C58.5521 35.9941 58.6542 36.3409 58.657 36.7968C58.657 37.2541 58.5171 37.8358 58.2373 38.5462L59.8685 39.2453C59.8963 39.3173 59.9089 39.3941 59.9055 39.4711C59.9021 39.5481 59.8829 39.6236 59.849 39.6928C59.7731 39.8595 59.6737 40.0145 59.5538 40.1529C59.4394 40.2896 59.318 40.4203 59.19 40.5444L57.7295 39.911L58.3045 41.0954C58.2268 41.1583 58.1455 41.2167 58.061 41.2702C57.9278 41.3584 57.7901 41.4396 57.6483 41.5135C57.5175 41.5859 57.3758 41.6364 57.2287 41.6631C57.1808 41.6783 57.1292 41.6761 57.0829 41.6569C57.0365 41.6377 56.9985 41.6028 56.9754 41.5583C56.6611 40.8591 56.3888 40.1419 56.1598 39.4104C55.9406 38.6804 55.7341 37.9542 55.5401 37.2317C55.4393 36.8532 55.3358 36.4747 55.2295 36.0962C55.6086 35.766 56.057 35.5252 56.5417 35.3914ZM56.8215 36.7674C56.7306 36.787 56.697 36.829 56.7194 36.8891L57.016 37.6848C57.0594 37.7757 57.1237 37.7882 57.2105 37.7239C57.3097 37.6434 57.3896 37.5416 57.4441 37.4261C57.5102 37.3103 57.5394 37.1771 57.528 37.0443C57.5185 37.003 57.4997 36.9645 57.473 36.9315C57.4463 36.8986 57.4125 36.8721 57.3741 36.8541C57.2872 36.8069 57.1924 36.7756 57.0943 36.7618C57.0048 36.747 56.9132 36.7489 56.8243 36.7674H56.8215Z" fill="white"/>
<path d="M61.0305 34.3608C61.1573 34.3221 61.2898 34.3056 61.4222 34.3118C61.4708 34.3113 61.5189 34.3214 61.5631 34.3414C61.6074 34.3615 61.6466 34.391 61.6782 34.4279C61.9748 34.8297 62.283 35.273 62.6029 35.7578C62.9228 36.2425 63.2395 36.7357 63.5529 37.2372C63.8578 37.7136 64.1493 38.1648 64.4272 38.5909C64.4566 38.6314 64.4356 38.7069 64.3657 38.816C64.2835 38.9449 64.1858 39.0633 64.0747 39.1684C63.949 39.2902 63.8079 39.3951 63.655 39.4802C63.5234 39.5588 63.3717 39.5972 63.2185 39.5907C63.1449 39.5815 63.0751 39.553 63.0161 39.508C62.9571 39.4631 62.9111 39.4033 62.8827 39.3348L62.4323 38.3993C62.3885 38.3024 62.3375 38.2089 62.2798 38.1196C62.2375 38.0544 62.1861 37.9956 62.1273 37.9448C62.1056 37.9232 62.079 37.9073 62.0497 37.8982C62.0205 37.8892 61.9895 37.8875 61.9594 37.8931C61.9304 37.9057 61.9048 37.9249 61.8847 37.9492C61.8645 37.9734 61.8503 38.0021 61.8433 38.0329C61.8201 38.1124 61.8088 38.1948 61.8097 38.2776C61.8109 38.3913 61.8188 38.5047 61.8335 38.6174L61.9524 39.539C61.97 39.6275 61.9602 39.7193 61.9245 39.8022C61.8888 39.885 61.8288 39.9552 61.7524 40.0032C61.5825 40.1023 61.3894 40.1549 61.1928 40.1556C60.9989 40.1652 60.8047 40.1463 60.6164 40.0997C60.4499 40.055 60.3632 39.999 60.3548 39.9333C60.3417 39.2518 60.3151 38.5526 60.275 37.8357C60.247 37.3421 60.2233 36.8569 60.2065 36.38C60.1897 35.9032 60.1855 35.4445 60.1967 35.0096C60.2066 34.9286 60.2355 34.8511 60.2809 34.7834C60.3264 34.7156 60.3871 34.6595 60.4583 34.6195C60.6319 34.4995 60.8257 34.4118 61.0305 34.3608ZM61.4376 35.9829H61.425C61.3971 35.9958 61.3727 36.0152 61.3539 36.0396C61.3352 36.0639 61.3226 36.0925 61.3173 36.1227C61.3001 36.1974 61.2954 36.2744 61.3033 36.3507C61.3102 36.4363 61.3228 36.5213 61.3411 36.6052C61.3592 36.6905 61.3844 36.787 61.418 36.896L61.9244 36.7324C61.8937 36.622 61.8629 36.5269 61.8335 36.4527C61.8036 36.3725 61.7691 36.294 61.73 36.2178C61.6936 36.1496 61.6463 36.0877 61.5901 36.0346C61.571 36.0139 61.5471 35.9983 61.5204 35.9893C61.4938 35.9803 61.4653 35.9781 61.4376 35.9829Z" fill="white"/>
<path d="M64.9129 38.6216L63.4314 34.1398C63.4048 34.0643 63.4482 33.9832 63.5615 33.8923C63.6944 33.792 63.8403 33.7101 63.9952 33.649C64.1544 33.5823 64.3212 33.5353 64.4918 33.5091C64.5451 33.4933 64.6012 33.4894 64.6561 33.4979C64.7111 33.5063 64.7634 33.5269 64.8094 33.5581L65.7104 34.8236C65.7678 34.885 65.8202 34.951 65.867 35.0208C65.9346 35.1284 66.0208 35.2231 66.1217 35.3005C66.1798 35.3376 66.2462 35.3599 66.3151 35.3652C66.3839 35.3706 66.453 35.3589 66.5162 35.3312L66.3637 34.8474L65.881 33.3455C65.8531 33.27 65.9006 33.1875 66.0209 33.0966C66.1627 32.9951 66.3175 32.9133 66.4812 32.8533C66.6468 32.7852 66.8218 32.7427 67.0002 32.7274C67.1611 32.7163 67.2674 32.7554 67.3178 32.8463C67.578 33.6089 67.8247 34.3799 68.0579 35.1592C68.291 35.9386 68.499 36.7347 68.6818 37.5476C68.6962 37.6091 68.6958 37.673 68.6807 37.7342C68.6657 37.7955 68.6363 37.8523 68.5951 37.9C68.4966 38.016 68.3685 38.103 68.2243 38.1517C68.0608 38.2121 67.885 38.2313 67.7123 38.2077C67.5215 38.1811 67.3436 38.0961 67.2031 37.9644L65.8754 36.7212C65.9748 37.033 66.0573 37.2931 66.1259 37.5043L66.3147 38.0916L66.4336 38.4622C66.415 38.5252 66.383 38.5834 66.3398 38.6329C66.2966 38.6824 66.2432 38.7219 66.1832 38.7488C66.0339 38.8276 65.872 38.8797 65.7048 38.9027C65.5402 38.9303 65.3716 38.9212 65.2109 38.8761C65.1446 38.8605 65.0829 38.8292 65.0311 38.7849C64.9792 38.7407 64.9387 38.6847 64.9129 38.6216Z" fill="white"/>
<path d="M69.0467 31.9444C69.1965 31.8998 69.3509 31.8721 69.5069 31.8619C69.6183 31.8289 69.7364 31.8251 69.8497 31.8508C70.0955 31.8824 70.3348 31.9522 70.559 32.0577C70.8686 32.2028 71.1478 32.4054 71.3816 32.6548C71.6867 32.9874 71.9192 33.3798 72.0643 33.8071C72.2127 34.2115 72.2755 34.6424 72.2485 35.0723C72.2215 35.5022 72.1054 35.9219 71.9076 36.3046C71.7538 36.6109 71.5484 36.8886 71.3005 37.1254C71.1201 37.3089 70.8971 37.4448 70.6513 37.5212C70.392 37.5643 70.1262 37.5466 69.8749 37.4694C69.6381 37.4177 69.4162 37.313 69.2257 37.1632C69.111 37.0485 68.9781 36.7763 68.827 36.3465C68.6759 35.9168 68.5309 35.4371 68.3919 34.9076C68.252 34.3762 68.1415 33.9012 68.0604 33.4827C67.9792 33.0641 67.9503 32.8105 67.9736 32.7219C68.0536 32.5164 68.2018 32.3447 68.3933 32.2353C68.596 32.1075 68.8161 32.0096 69.0467 31.9444ZM69.7699 33.6812C69.7441 33.686 69.7196 33.6964 69.6981 33.7115C69.6766 33.7266 69.6586 33.7462 69.6453 33.7688C69.6321 33.7915 69.6238 33.8168 69.6212 33.8429C69.6186 33.8691 69.6216 33.8955 69.63 33.9204L70.1127 35.5089C70.1505 35.6222 70.2162 35.6767 70.3086 35.6711C70.4188 35.6566 70.5191 35.6 70.5884 35.5131C70.6938 35.3942 70.7657 35.2494 70.7968 35.0936C70.8402 34.8924 70.8311 34.6833 70.7702 34.4867C70.721 34.288 70.6251 34.1039 70.4904 33.9497C70.3868 33.8348 70.2566 33.747 70.1113 33.6938C70.0016 33.6542 69.8823 33.6498 69.7699 33.6812Z" fill="white"/>
<path d="M73.039 36.0195C72.8656 35.8073 72.7673 35.5438 72.7592 35.27C72.7472 34.9943 72.7885 34.7189 72.8809 34.4589C72.9556 34.2313 73.0703 34.0187 73.2194 33.8311C72.9976 33.7004 72.8097 33.5193 72.671 33.3025C72.5275 33.0851 72.4391 32.836 72.4136 32.5767C72.3868 32.3121 72.4446 32.0458 72.5787 31.816C72.7546 31.5391 73.0074 31.3195 73.3062 31.1839C73.472 31.1031 73.6503 31.0506 73.8336 31.0287C74.0864 31.0173 74.3388 31.0583 74.575 31.149C74.8158 31.301 74.9962 31.5318 75.0857 31.802C75.1851 32.0905 75.2087 32.3996 75.1542 32.6998C75.0988 33.0122 74.9529 33.3015 74.7345 33.5318C74.8113 33.6156 74.8999 33.6877 74.9975 33.7458C75.0944 33.7992 75.2009 33.8329 75.3109 33.845C75.345 33.8015 75.3745 33.7547 75.399 33.7052C75.4242 33.6549 75.4536 33.5905 75.4844 33.5136C75.4954 33.4829 75.514 33.4553 75.5385 33.4336C75.5629 33.4119 75.5924 33.3966 75.6243 33.3892C75.6929 33.3781 75.7633 33.3848 75.8285 33.4088C75.9033 33.4327 75.9755 33.4641 76.044 33.5024C76.1139 33.5416 76.1937 33.5933 76.286 33.6577C76.2692 33.6968 76.2552 33.7276 76.244 33.75L76.2174 33.8045L76.1895 33.8632C76.1732 33.8945 76.1587 33.9267 76.1461 33.9597H76.1979C76.2608 33.9597 76.3126 33.9667 76.3518 33.9597C76.3947 33.958 76.4373 33.9519 76.4791 33.9415C76.5238 33.9303 76.5854 33.9122 76.6623 33.887C76.7185 33.9888 76.7359 34.1075 76.7113 34.2212C76.6952 34.3829 76.6566 34.5415 76.5966 34.6925C76.5378 34.8435 76.4693 34.933 76.3923 34.9609L76.2314 35.0001C76.2002 35.008 76.1684 35.0131 76.1363 35.0155L76.023 35.0225C75.9866 35.0225 75.9362 35.0225 75.8831 35.0225C75.7721 35.2832 75.6126 35.5205 75.413 35.7217C75.2051 35.9388 74.9632 36.1206 74.6968 36.26C74.4593 36.3919 74.192 36.4608 73.9203 36.46C73.5062 36.3831 73.2138 36.2363 73.039 36.0195ZM73.5188 32.8033C73.6181 32.944 73.7482 33.0603 73.8993 33.1431C73.9377 33.0955 73.9723 33.045 74.0029 32.992C74.042 32.9263 74.0784 32.8522 74.112 32.7935C74.1456 32.7347 74.1707 32.676 74.1861 32.641C74.298 32.4257 74.326 32.2551 74.2645 32.1292C74.2378 32.0687 74.1965 32.0157 74.1442 31.9752C74.092 31.9347 74.0304 31.9078 73.9651 31.8971C73.8297 31.8677 73.6881 31.8923 73.5706 31.9656C73.5066 32.0078 73.454 32.0651 73.4174 32.1324C73.3808 32.1997 73.3614 32.275 73.3607 32.3516C73.3604 32.5157 73.4162 32.6751 73.5188 32.8033ZM74.673 34.7875C74.5583 34.7598 74.446 34.7229 74.3372 34.6771C74.1995 34.6092 74.0683 34.5287 73.9455 34.4366C73.9231 34.4771 73.9035 34.5135 73.8881 34.5442C73.8727 34.5757 73.86 34.6084 73.8504 34.6421C73.79 34.8038 73.7817 34.9803 73.8266 35.1469C73.844 35.2027 73.8744 35.2536 73.9152 35.2954C73.9561 35.3372 74.0062 35.3687 74.0616 35.3874C74.1814 35.4216 74.3095 35.4117 74.4226 35.3595C74.5235 35.3131 74.6154 35.2492 74.694 35.1707C74.7811 35.0761 74.858 34.9725 74.9234 34.8617C74.8241 34.8337 74.7401 34.8085 74.673 34.7875Z" fill="white"/>
<path d="M77.372 29.5992C77.5223 29.5546 77.6772 29.5269 77.8337 29.5167C77.945 29.4837 78.063 29.4794 78.1764 29.5041C78.4218 29.5366 78.6606 29.6069 78.8843 29.7125C79.1941 29.8567 79.4734 30.0589 79.7069 30.3082C80.0118 30.6418 80.2446 31.0345 80.391 31.4619C80.5388 31.8664 80.6012 32.297 80.5745 32.7268C80.5478 33.1566 80.4325 33.5762 80.2358 33.9594C80.0815 34.2658 79.8756 34.5435 79.6272 34.7802C79.447 34.9639 79.224 35.0999 78.9781 35.1759C78.7187 35.2177 78.4532 35.2 78.2016 35.1242C77.9649 35.0717 77.743 34.9666 77.5525 34.8166C77.4378 34.7019 77.3053 34.4301 77.1552 34.0013C77.005 33.5725 76.8595 33.0928 76.7187 32.5624C76.5788 32.031 76.4683 31.556 76.3871 31.1374C76.306 30.7179 76.278 30.4648 76.3004 30.3767C76.3813 30.1714 76.5292 29.9994 76.7201 29.8887C76.9227 29.7619 77.1421 29.6645 77.372 29.5992ZM78.0953 31.336C78.0695 31.3408 78.045 31.3511 78.0235 31.3663C78.002 31.3814 77.984 31.4009 77.9707 31.4236C77.9574 31.4463 77.9492 31.4716 77.9465 31.4977C77.9439 31.5238 77.9469 31.5503 77.9554 31.5751L78.4367 33.1623C78.4749 33.2769 78.5406 33.3315 78.6339 33.3259C78.7441 33.3114 78.8444 33.2548 78.9137 33.1679C79.0172 33.0504 79.089 32.9084 79.1222 32.7554C79.1649 32.5541 79.1558 32.3452 79.0956 32.1485C79.0452 31.9502 78.9495 31.7664 78.8158 31.6115C78.7125 31.4956 78.5816 31.4076 78.4353 31.3556C78.3267 31.3139 78.2079 31.3071 78.0953 31.336Z" fill="white"/>
<path d="M80.3882 29.4485C80.532 29.2942 80.7132 29.1796 80.9142 29.1157C81.1062 29.0453 81.3151 29.0351 81.513 29.0863C81.6073 29.1144 81.6924 29.1674 81.7591 29.2398C81.8258 29.3122 81.8718 29.4012 81.8921 29.4975L82.1985 30.5071C82.2195 30.584 82.2433 30.6651 82.267 30.7518C82.3314 30.9877 82.4041 31.2422 82.4853 31.5153C82.5664 31.788 82.6546 32.0509 82.7525 32.304L83.0323 33.1123C83.0467 33.1775 83.0436 33.2454 83.0232 33.309C83.0028 33.3727 82.9659 33.4297 82.9162 33.4744C82.793 33.6115 82.6398 33.7182 82.4685 33.7863C82.2921 33.8626 82.0958 33.8797 81.9089 33.8352C81.8063 33.8047 81.712 33.7509 81.6334 33.6782C81.5548 33.6055 81.494 33.5157 81.4556 33.4157C81.1954 32.8349 80.9623 32.2565 80.7562 31.6803C80.5507 31.1145 80.376 30.538 80.2329 29.9533C80.2164 29.8629 80.2219 29.7699 80.249 29.682C80.276 29.5941 80.3237 29.5141 80.3882 29.4485Z" fill="white"/>
<path d="M84.048 28.1075C84.3533 27.9477 84.677 27.8256 85.0119 27.7439C85.2718 27.6679 85.551 27.6939 85.7925 27.8167C86.0051 27.9369 86.1343 28.1984 86.18 28.6012C86.1626 28.7519 86.0939 28.8921 85.9855 28.9983C85.8934 29.074 85.7788 29.1173 85.6596 29.1214C85.5253 29.1281 85.3907 29.1206 85.2581 29.099C84.9646 29.0899 84.6773 29.1845 84.4467 29.3661C84.2548 29.5481 84.1372 29.7947 84.1165 30.0583C84.0835 30.408 84.1076 30.7608 84.1879 31.1028C84.2507 31.3015 84.3595 31.4826 84.5054 31.6314C84.6401 31.7775 84.8074 31.8896 84.9937 31.9587C85.0703 31.9897 85.1535 32.0014 85.2357 31.9926C85.318 31.9838 85.3968 31.9549 85.4651 31.9083C85.6022 31.8151 85.6871 31.6151 85.7197 31.3084C85.7197 31.2944 85.7197 31.279 85.7197 31.2651C85.7202 31.2117 85.7165 31.1584 85.7086 31.1056C85.7004 31.0452 85.6768 30.9879 85.64 30.9392C85.6098 30.9094 85.5748 30.8848 85.5365 30.8665C85.4974 30.8475 85.4566 30.8321 85.4148 30.8204C85.3756 30.8092 85.3266 30.798 85.2749 30.7854C85.2231 30.7728 85.1532 30.7407 85.1126 30.6526C85.07 30.555 85.0467 30.45 85.044 30.3435C85.0374 30.2332 85.0541 30.1226 85.093 30.0191C85.1063 29.9761 85.1311 29.9376 85.1646 29.9075C85.1981 29.8775 85.2391 29.8571 85.2833 29.8485C85.5309 29.7562 85.7449 29.6877 85.9254 29.6401C86.1 29.5946 86.2794 29.5693 86.4598 29.5646C86.6132 29.5542 86.7661 29.5913 86.8977 29.6709C87.0207 29.7744 87.1083 29.9137 87.1481 30.0694C87.2032 30.2516 87.2389 30.4391 87.2544 30.6288C87.2698 30.8218 87.2768 30.9812 87.2768 31.1084C87.2886 31.1655 87.2862 31.2245 87.2698 31.2804C87.2698 31.3084 87.2698 31.3378 87.2698 31.3671C87.2646 31.6032 87.2317 31.8379 87.1719 32.0663C87.0994 32.312 86.9528 32.5293 86.7522 32.6886C86.533 32.8751 86.1781 33.0289 85.6876 33.1501C85.2421 33.2579 84.7774 33.2579 84.3319 33.1501C83.9888 33.0602 83.6737 32.8857 83.4156 32.6425C83.1917 32.4305 83.0087 32.1793 82.8756 31.9013C82.72 31.4127 82.6324 30.905 82.6154 30.3925C82.6056 30.0508 82.6596 29.7103 82.7749 29.3884C82.859 29.1624 82.9842 28.9538 83.1442 28.7732C83.2597 28.6467 83.3867 28.531 83.5233 28.4278C83.5737 28.3886 83.6143 28.355 83.6437 28.3271C83.7682 28.2474 83.9067 28.176 84.048 28.1075Z" fill="white"/>
<path d="M86.9398 27.6026C87.0836 27.4483 87.2648 27.3336 87.4659 27.2697C87.658 27.1997 87.8668 27.19 88.0646 27.2418C88.1592 27.2695 88.2445 27.3223 88.3112 27.3948C88.378 27.4672 88.4238 27.5564 88.4437 27.6529L88.7501 28.6611C88.7711 28.738 88.7949 28.8191 88.8187 28.9058C88.883 29.1417 88.9558 29.3962 89.0369 29.6694C89.1181 29.949 89.2062 30.2063 89.3041 30.458L89.5839 31.2677C89.5978 31.3329 89.5944 31.4007 89.574 31.4642C89.5536 31.5277 89.517 31.5848 89.4678 31.6299C89.3442 31.7661 89.1911 31.8723 89.0201 31.9403C88.8438 32.0166 88.6475 32.0338 88.4605 31.9893C88.3579 31.9587 88.2636 31.905 88.1851 31.8322C88.1065 31.7595 88.0456 31.6697 88.0073 31.5697C87.7471 30.989 87.5139 30.4105 87.3078 29.8344C87.1004 29.2687 86.9239 28.6922 86.779 28.1074C86.7632 28.0165 86.7696 27.9232 86.7976 27.8353C86.8256 27.7474 86.8744 27.6676 86.9398 27.6026Z" fill="white"/>
<path d="M88.7628 27.8485C88.7124 27.7206 88.6744 27.5881 88.6495 27.4528C88.6201 27.313 88.5935 27.1228 88.5684 26.9004L92.8535 25.5146C92.9071 25.5158 92.959 25.5341 93.0015 25.5668C93.044 25.5995 93.075 25.6449 93.0899 25.6964C93.1459 25.8305 93.1831 25.9717 93.2004 26.1159C93.2214 26.2754 93.2354 26.4138 93.2424 26.5355C93.2442 26.5744 93.2484 26.6131 93.255 26.6515L92.0714 27.0221L92.8996 30.7851C92.8996 30.8285 92.8563 30.8942 92.7513 30.9809C92.6321 31.0775 92.5037 31.1623 92.368 31.234C92.2371 31.3065 92.0954 31.3574 91.9483 31.385C91.821 31.4046 91.7399 31.3696 91.7063 31.2774L90.5144 27.5786L88.9349 28.0625C88.8931 28.0405 88.8562 28.0102 88.8266 27.9734C88.797 27.9366 88.7753 27.8941 88.7628 27.8485Z" fill="white"/>
<path d="M94.5715 24.9123C94.6984 24.8743 94.8308 24.8577 94.9632 24.8634C95.0118 24.8634 95.0599 24.8738 95.1041 24.8941C95.1483 24.9144 95.1876 24.944 95.2192 24.9808C95.5158 25.3808 95.8241 25.8241 96.144 26.3107C96.4639 26.7973 96.7791 27.2905 97.0897 27.7902C97.3947 28.2666 97.6861 28.7178 97.9641 29.1438C97.992 29.1844 97.9725 29.2585 97.9025 29.3689C97.8176 29.4974 97.7176 29.6153 97.6045 29.7199C97.4792 29.8422 97.338 29.947 97.1848 30.0318C97.054 30.1111 96.9025 30.1495 96.7497 30.1422C96.6761 30.133 96.6063 30.1045 96.5473 30.0596C96.4883 30.0146 96.4423 29.9548 96.414 29.8863L95.9705 28.9466C95.9261 28.85 95.8752 28.7566 95.818 28.667C95.7752 28.6013 95.7234 28.542 95.6641 28.4908C95.6424 28.4696 95.616 28.4541 95.587 28.4453C95.558 28.4365 95.5274 28.4349 95.4976 28.4404C95.4683 28.4527 95.4424 28.4718 95.422 28.4961C95.4015 28.5205 95.3872 28.5493 95.3801 28.5803C95.3581 28.6604 95.3473 28.7432 95.3479 28.8264C95.3493 28.9395 95.3568 29.0525 95.3703 29.1648L95.4906 30.0863C95.5082 30.1748 95.4985 30.2666 95.4628 30.3495C95.427 30.4324 95.367 30.5025 95.2906 30.5506C95.1207 30.6496 94.9277 30.7022 94.731 30.703C94.5371 30.7133 94.3429 30.6944 94.1546 30.6471C93.9881 30.6023 93.9 30.5464 93.893 30.4806C93.879 29.7992 93.8524 29.1 93.8133 28.3831C93.7843 27.8899 93.7615 27.4042 93.7447 26.926C93.7279 26.4477 93.7242 25.9909 93.7335 25.5556C93.7437 25.4747 93.7726 25.3972 93.818 25.3295C93.8635 25.2618 93.9241 25.2056 93.9951 25.1654C94.1706 25.0474 94.3658 24.9616 94.5715 24.9123ZM94.9772 26.5344H94.966C94.9376 26.5468 94.9128 26.5661 94.8937 26.5905C94.8747 26.6149 94.862 26.6437 94.8569 26.6743C94.8405 26.7496 94.8358 26.8269 94.8429 26.9036C94.8511 26.9891 94.8641 27.0741 94.8821 27.1581C94.8989 27.242 94.9255 27.3385 94.959 27.449L95.4655 27.2854C95.4333 27.1749 95.4039 27.0798 95.3745 27.0057C95.3448 26.9256 95.3097 26.8476 95.2696 26.7722C95.2345 26.7031 95.1871 26.641 95.1297 26.589C95.1107 26.5678 95.0866 26.5516 95.0597 26.5421C95.0328 26.5326 95.004 26.53 94.9758 26.5344H94.9772Z" fill="white"/>
<path d="M97.9511 27.7634C97.7646 27.232 97.6023 26.7216 97.4643 26.2322C97.4405 26.1399 97.4097 26.0225 97.3692 25.8812C97.3029 25.637 97.2344 25.3839 97.1635 25.1219L97.0124 24.5556C97.0003 24.5025 97.0051 24.447 97.0262 24.3968C97.0472 24.3467 97.0835 24.3044 97.1299 24.2759C97.2575 24.1953 97.4004 24.1419 97.5496 24.1193C97.7245 24.0866 97.9019 24.0688 98.0798 24.0661C98.2362 24.0602 98.3927 24.07 98.5471 24.0955C98.6772 24.1179 98.7514 24.15 98.7709 24.1892C98.8353 24.4255 98.9108 24.7359 99.0088 25.1205C99.0955 25.4799 99.1878 25.8477 99.2886 26.2196C99.3893 26.5916 99.4788 26.9188 99.5684 27.1887C99.6109 27.3678 99.6853 27.5379 99.788 27.6907C99.8887 27.7453 100.043 27.7355 100.252 27.6641C100.482 27.5823 100.707 27.4889 100.927 27.3845C101.096 27.309 101.253 27.2446 101.401 27.1831C101.458 27.1663 101.541 27.2125 101.644 27.3229C101.758 27.4481 101.852 27.5895 101.924 27.7425C102.004 27.8957 102.046 28.066 102.046 28.2389C102.046 28.3169 102.024 28.3933 101.982 28.4595C101.941 28.5257 101.882 28.5791 101.812 28.6136C101.346 28.8859 100.665 29.1474 99.7698 29.3981C99.589 29.4549 99.3995 29.4791 99.2102 29.4695C99.0716 29.461 98.9363 29.4239 98.8129 29.3604C98.7175 29.3113 98.6314 29.246 98.5583 29.1674C98.4883 29.0858 98.4299 28.995 98.3848 28.8975C98.2757 28.6668 98.1344 28.2948 97.9511 27.7634Z" fill="white"/>
</svg>
