<svg width="303" height="188" viewBox="0 0 303 188" fill="none" xmlns="http://www.w3.org/2000/svg">
<path d="M177.384 32.8267C177.983 32.8985 178.582 33.0284 179.182 33.033C182.014 33.0529 184.844 33.0208 187.678 33.0483C188.753 33.0461 189.826 33.1171 190.892 33.2607C194.476 33.7865 198.084 34.2145 201.624 34.9634C208.47 36.4109 214.953 38.9176 221.107 42.2389C225.131 44.4093 228.953 46.8961 232.432 49.872C234.13 51.3256 235.838 52.7761 237.43 54.3412C241.166 58.0336 244.436 62.1682 247.168 66.6529C247.319 66.8701 247.482 67.0783 247.657 67.2765L242.509 67.8986C241.496 68.0224 240.939 68.6414 241.024 69.5463C241.107 70.4282 241.806 70.9219 242.829 70.8073C244.93 70.5698 247.032 70.3299 249.133 70.0874C250.128 72.4152 251.189 74.7186 252.104 77.0785C253.463 80.5817 254.339 84.2133 254.912 87.9305C255.439 91.3129 255.668 94.7351 255.594 98.1574C255.473 103.154 254.684 108.112 253.247 112.899C252.173 116.536 250.744 120.059 248.98 123.417C246.969 127.221 244.633 130.816 241.835 134.093C240.268 135.927 238.622 137.696 236.981 139.467C236.742 139.725 236.346 139.84 236.023 140.022C235.949 139.895 235.882 139.763 235.821 139.629C233.174 132.802 230.526 125.977 227.879 119.155C226.026 114.394 224.148 109.642 222.281 104.887C222.632 104.93 222.988 105.04 223.328 105.002C225.974 104.71 228.62 104.407 231.258 104.065C231.452 104.042 231.64 103.981 231.811 103.884C231.981 103.788 232.131 103.659 232.251 103.505C232.371 103.35 232.46 103.174 232.511 102.985C232.562 102.796 232.575 102.599 232.549 102.405C232.421 101.6 231.731 101.071 230.848 101.17C228.35 101.448 225.859 101.768 223.36 102.038C222.475 102.134 221.918 102.55 221.69 103.406C221.078 101.601 220.411 99.8143 219.888 97.9863C218.792 94.1186 216.702 90.6049 213.825 87.7945C210.17 84.1843 205.821 81.6211 201.059 79.8465C193.374 76.973 185.672 74.0384 177.203 74.6972C175.937 74.7965 175.12 74.0247 174.574 73.0052C174.285 72.4687 174.175 71.8313 174.029 71.2276C173.723 69.9758 173.047 69.3384 171.761 69.1688C171.472 69.1321 171.18 69.1183 170.814 69.0877C169.574 64.9258 168.33 60.7913 167.129 56.6461C167.025 56.2869 167.157 55.8376 167.248 55.4463C168.099 51.8193 169.763 48.5224 171.4 45.2056C173.434 41.0941 175.394 36.9535 177.384 32.8267ZM229.434 84.1919C229.216 83.6585 229.138 83.3314 228.975 83.0639C227.611 80.9241 226.236 78.7929 224.852 76.6704C224.312 75.8435 223.43 75.6387 222.697 76.1309C222.01 76.5894 221.876 77.4362 222.391 78.2707C222.843 79.009 223.326 79.7258 223.795 80.4533C224.713 81.8824 225.631 83.3161 226.563 84.733C226.964 85.3444 227.593 85.6883 228.246 85.3658C228.73 85.135 229.063 84.5725 229.434 84.1919ZM220.475 70.3701C220.859 70.3227 221.305 70.2647 221.749 70.2173C223.891 69.9666 226.023 69.7282 228.158 69.4622C229.134 69.3384 229.677 68.7087 229.608 67.8619C229.539 67.0152 228.901 66.4374 228.011 66.5352C225.368 66.8246 222.73 67.1451 220.094 67.4966C219.245 67.6097 218.717 68.3006 218.792 69.0327C218.875 69.8397 219.533 70.3854 220.475 70.3701ZM221.282 50.8166C221.199 50.005 220.859 49.4838 220.119 49.3156C219.338 49.1399 218.784 49.4792 218.435 50.1609C217.265 52.4128 216.1 54.6657 214.939 56.9197C214.48 57.8246 214.705 58.6728 215.482 59.0702C216.259 59.4676 217.044 59.1818 217.539 58.2479C218.711 56.0317 219.871 53.8098 221.02 51.5823C221.128 51.3346 221.216 51.0785 221.282 50.8166ZM233.858 94.1024C234.068 93.9175 234.574 93.6317 234.84 93.1991C235.434 92.2377 235.912 91.203 236.427 90.1972C237.099 88.9011 237.792 87.6142 238.435 86.3043C238.815 85.54 238.56 84.759 237.881 84.3677C237.202 83.9764 236.299 84.1293 235.921 84.8354C234.64 87.2259 233.374 89.6256 232.173 92.0559C231.674 93.0616 232.439 94.133 233.858 94.1024ZM232.022 72.0178C231.256 72.1003 230.71 72.4274 230.562 73.1748C230.409 73.9803 230.724 74.5627 231.497 74.8928C233.856 75.8985 236.208 76.918 238.574 77.91C238.874 78.0395 239.202 78.087 239.526 78.0476C239.828 78.0136 240.108 77.8772 240.321 77.6613C240.534 77.4454 240.666 77.163 240.695 76.8615C240.81 76.1156 240.499 75.5607 239.821 75.2658C237.414 74.2203 234.998 73.1962 232.583 72.1691C232.398 72.1046 232.208 72.054 232.015 72.0178H232.022ZM211.961 63.6113C211.876 63.3531 211.768 63.1033 211.636 62.8654C210.272 60.7256 208.899 58.5949 207.517 56.4734C206.989 55.6648 206.167 55.46 205.436 55.8987C204.704 56.3374 204.528 57.1795 205.022 58.0095C205.449 58.7263 205.919 59.4187 206.372 60.1203C207.325 61.5983 208.276 63.0809 209.238 64.5528C209.644 65.1764 210.233 65.4072 210.945 65.1887C211.615 64.9793 211.947 64.4825 211.955 63.6067L211.961 63.6113ZM205.358 72.0468C205.523 72.2593 205.752 72.8432 206.162 73.0312C208.629 74.1592 211.127 75.2199 213.635 76.2516C213.99 76.3868 214.384 76.3767 214.732 76.2237C215.08 76.0706 215.353 75.7869 215.493 75.4339C215.77 74.688 215.473 73.9436 214.715 73.5493C214.373 73.3705 214.005 73.2436 213.644 73.0908C211.616 72.2226 209.593 71.3407 207.558 70.4924C206.426 70.0109 205.367 70.6391 205.351 72.0423L205.358 72.0468ZM245.018 92.6244H244.89C244.89 92.8323 244.875 93.0432 244.89 93.2511C244.962 94.1391 245.566 94.7627 246.351 94.7704C247.136 94.778 247.819 94.0933 247.84 93.1762C247.898 90.642 247.947 88.1078 247.969 85.5721C247.978 84.571 247.341 83.8832 246.501 83.8817C245.635 83.8817 245.026 84.5435 245.02 85.563C245.009 87.9137 245.018 90.2691 245.018 92.6244Z" fill="#ECEBEA"/>
<path d="M177.383 32.8262C175.394 36.9531 173.433 41.0936 171.404 45.2067C169.767 48.5204 168.103 51.8173 167.253 55.4474C167.161 55.8386 167.029 56.288 167.133 56.6472C168.335 60.7924 169.582 64.9268 170.818 69.0888C171.184 69.1194 171.476 69.1331 171.765 69.1698C173.051 69.3395 173.732 69.9769 174.033 71.2287C174.186 71.8324 174.289 72.4698 174.578 73.0063C175.124 74.0257 175.942 74.7976 177.207 74.6983C185.676 74.0349 193.378 76.9741 201.063 79.8476C205.825 81.6283 210.175 84.1915 213.829 87.7956C216.706 90.606 218.796 94.1197 219.892 97.9873C220.415 99.8215 221.089 101.602 221.695 103.407L222.285 104.888C224.152 109.643 226.03 114.395 227.883 119.156C230.536 125.976 233.183 132.801 235.825 139.63C235.886 139.765 235.953 139.896 236.027 140.023C236.884 142.896 237.789 145.758 238.583 148.65C239.097 150.52 239.448 152.446 239.01 154.395C238.468 156.816 236.883 158.329 234.629 159.213C232.511 160.051 230.249 160.467 227.97 160.435C222.262 160.341 216.539 160.283 210.852 159.824C205.198 159.379 199.585 158.441 193.943 157.814C192.496 157.661 191.009 157.825 189.541 157.883C183.978 158.132 178.405 157.993 172.861 157.466C166.478 156.831 160.216 155.631 154.113 153.645C152.539 153.132 150.984 152.553 149.236 151.94C149.446 152.295 149.542 152.491 149.669 152.669C151.832 155.858 154.006 159.037 156.149 162.237C156.283 162.464 156.474 162.653 156.703 162.784C156.931 162.916 157.19 162.986 157.454 162.988C164.582 163.498 171.707 164.041 178.835 164.568C182.981 164.874 187.125 165.18 191.274 165.458C192.014 165.507 192.256 165.787 192.192 166.513C192.039 168.266 191.898 170.028 191.812 171.783C191.782 172.429 191.353 172.533 190.906 172.7C184.488 175.024 178.071 177.352 171.654 179.685C170.027 180.275 168.353 180.768 166.786 181.49C164.995 182.314 163.187 182.315 161.294 182.164C154.944 181.655 148.592 181.206 142.238 180.733C136.842 180.333 131.447 179.932 126.051 179.53C120.834 179.148 115.616 178.786 110.399 178.405C105.6 178.054 100.801 177.687 96.0017 177.336C95.3987 177.291 95.2365 176.963 95.2824 176.444C95.3865 175.015 95.4599 173.585 95.6084 172.165C95.7278 171.284 95.5043 170.391 94.984 169.67C87.9446 159.369 80.9277 149.05 73.9332 138.716C73.8031 138.525 73.6807 138.329 73.4618 137.992L95.6726 139.621L79.6045 127.088L84.1709 122.961C83.1731 122.516 82.3009 121.914 81.3643 121.785C80.7139 121.697 79.86 122.116 79.2938 122.559C78.0038 123.569 76.8453 124.755 75.6119 125.833C70.6568 130.138 64.8646 132.644 58.4159 133.658C56.555 133.952 54.7095 133.741 53.0736 132.656C52.1722 132.058 52.0024 131.598 52.2227 130.536C51.58 130.311 50.9174 130.131 50.3022 129.848C49.8681 129.649 49.4735 129.374 49.1377 129.035C48.247 128.127 48.4995 127.424 49.9426 126.695C49.3305 126.371 48.6372 126.151 48.1583 125.703C47.7497 125.321 47.3334 124.633 47.4008 124.156C47.4574 123.763 48.2179 123.462 48.677 123.138C48.7887 123.06 48.9464 123.048 49.1851 122.976C48.7122 122.692 48.2929 122.501 47.9471 122.221C47.2095 121.622 47.2447 120.708 48.045 120.2C48.4762 119.935 48.9475 119.74 49.4407 119.624C54.7988 118.325 59.7831 115.805 64.003 112.26C64.9641 111.461 65.9128 110.648 66.9244 109.792C65.1094 109.446 63.3664 109.145 61.6387 108.771C60.9427 108.614 60.2692 108.371 59.634 108.046C59.3402 107.893 59.0005 107.479 59.0081 107.192C59.0158 106.904 59.3784 106.458 59.6723 106.368C60.9225 105.987 62.1881 105.582 63.4766 105.426C66.173 105.099 68.8847 104.815 71.5979 104.711C75.6639 104.558 79.1989 105.992 82.1999 108.728C85.1365 111.406 88.064 114.09 91.0251 116.798L93.2456 114.846C94.3627 115.629 95.4492 116.365 96.5082 117.139C102.221 121.316 108.634 124.113 115.195 126.631C115.775 126.854 116.15 126.783 116.419 126.207C116.878 125.208 117.337 124.22 117.796 123.219C117.921 122.987 118.033 122.748 118.131 122.504C119.689 118.033 121.319 113.584 122.77 109.079C124.158 104.771 125.299 100.384 126.654 96.0645C129.157 88.1089 134.086 82.3833 142.117 79.5526C144.443 78.7318 146.734 77.8117 149.233 76.8656L145.408 69.0292C144.971 69.2646 144.696 69.4358 144.401 69.5688C142.362 70.4858 140.371 71.5298 138.266 72.2512C135.318 73.26 132.564 72.0831 131.073 69.4343C130.198 67.8859 129.898 66.1894 129.906 64.4393C129.906 64.2161 130.242 63.8692 130.487 63.7958C131.171 63.591 131.898 63.5405 132.59 63.3586C135.344 62.6342 136.272 61.3564 136.192 58.3912C134.111 60.1046 131.809 61.0874 129.009 60.8443C128.795 59.6323 128.514 58.4401 128.397 57.2311C128.317 56.4409 128.077 56.1245 127.289 56.3889C126.363 56.3751 125.436 56.3599 124.508 56.3492C122.704 56.3323 122.081 55.5742 122.672 53.844C123.246 52.1627 124.037 50.5502 124.676 48.8872C125.195 47.5346 125.633 46.1498 126.165 44.6076C125.472 44.5495 124.918 44.4211 124.383 44.4807C123.847 44.5403 123.35 44.7864 122.8 44.9637C122.826 43.7501 123.512 43.5407 126.407 43.8097V40.8369H123.342C122.776 40.8369 122.366 40.7146 122.357 39.9993C122.34 38.7765 122.51 38.3424 123.318 38.318C124.299 38.2843 125.286 38.3883 126.303 38.4341V36.7177C125.142 36.5434 124.022 36.5144 122.992 36.198C118.358 34.7719 115.749 29.5706 118.829 24.7529C120.742 21.7602 123.382 19.4645 126.132 17.291C131.13 13.3369 136.578 10.0415 142.013 6.74467C145.452 4.65985 149.359 3.82226 153.312 3.30717C157.093 2.81348 160.871 2.79514 164.636 3.6312C168.598 4.51159 170.896 6.61322 171.291 11.732C171.409 13.2406 171.309 14.7645 171.309 16.3342C172.162 16.4611 173.201 16.5543 174.217 16.7744C179.229 17.8688 181.327 21.3598 179.829 26.315C179.152 28.5313 178.205 30.6589 177.383 32.8262ZM206.366 83.3096L205.959 83.1567C205.457 82.851 204.973 82.5041 204.448 82.2397C200.061 80.0112 195.419 78.4766 190.675 77.2065C186.671 76.1365 182.652 75.166 178.453 75.4243C178.005 75.4518 177.555 75.438 177.106 75.461C175.92 75.519 175.046 74.9566 174.329 74.0854C174.11 73.8179 173.916 73.5321 173.671 73.2004C171.553 76.4239 168.783 78.9779 166.172 81.6879C164.781 83.1338 163.436 83.7681 161.398 83.2163C158.831 82.5148 156.729 83.522 155.306 85.7245C154.586 86.8403 153.836 88.0447 153.556 89.3088C152.966 91.9847 152.543 94.6948 152.291 97.4233C152.058 99.9162 152.147 102.437 152.06 104.945C152.06 105.154 151.792 105.354 151.648 105.556C151.495 105.379 151.249 105.22 151.212 105.023C150.761 102.559 150.425 100.071 149.89 97.6266C149.079 93.9232 148.084 90.2625 146.251 86.903C145.247 85.0688 144.042 83.3982 141.764 82.9871C141.736 82.9871 141.724 82.8984 141.689 82.8128L146.502 78.9749C146.445 78.874 146.387 78.7747 146.33 78.6692C143.522 79.892 140.579 80.8885 137.934 82.4001C132.577 85.4571 129.199 90.2625 127.489 96.1028C125.041 104.488 122.592 112.87 119.532 121.061C118.805 123.011 117.88 124.891 116.999 126.779C116.665 127.493 116.119 127.835 115.241 127.509C109.006 125.2 102.942 122.547 97.4218 118.785C96.0445 117.845 94.6856 116.876 93.2808 115.893L80.818 127.081C85.7899 130.903 90.6869 134.646 95.5456 138.433C96.7117 139.341 97.8885 139.852 99.4249 139.942C105.453 140.297 111.471 140.821 117.495 141.273C123.041 141.689 128.588 142.083 134.134 142.516C134.705 142.56 134.939 142.387 135.067 141.859C135.632 139.543 136.322 137.253 136.77 134.916C137.174 132.816 137.323 130.667 137.595 128.434L140.634 142.922C141.161 142.973 141.663 143.075 142.165 143.055C142.904 143.02 143.363 143.292 143.77 143.924C145.002 145.831 146.301 147.696 147.582 149.579C147.816 149.924 148.012 150.404 148.347 150.552C150.072 151.317 151.835 152 153.752 152.776C152.551 141.328 151.792 130.119 151.347 118.913C152.184 118.67 152.175 119.184 152.196 119.636C152.338 122.739 152.451 125.843 152.62 128.946C152.784 131.957 152.961 134.968 153.204 137.973C153.573 142.527 154.022 147.072 154.397 151.622C154.473 152.539 154.67 153.207 155.743 153.339C156.326 153.411 156.885 153.675 157.46 153.834C163.457 155.476 169.604 156.512 175.809 156.925C180.494 157.249 185.179 157.383 190.102 157.022L187.485 156.258C187.655 154.948 187.818 153.684 187.99 152.368C187.7 152.255 187.43 152.144 187.156 152.043C182.424 150.294 177.677 148.581 172.962 146.786C169.432 145.444 166.651 143.118 165.196 139.624C163.892 136.5 162.985 133.204 161.961 129.973C161.734 129.231 161.63 128.456 161.655 127.681C161.678 126.764 162.319 126.495 163.067 127.03C163.488 127.314 163.858 127.667 164.163 128.073C165.295 129.686 166.38 131.331 167.484 132.964C167.709 133.296 167.943 133.626 168.345 134.216C168.683 133.405 169.006 132.873 169.13 132.298C170.22 127.254 169.97 122.138 169.756 117.035C169.693 115.549 169.375 114.074 169.325 112.59C169.285 111.367 170.243 110.909 171.294 111.52C171.603 111.727 171.9 111.95 172.185 112.188C172.151 112.044 172.136 111.896 172.142 111.748C172.267 111.198 172.244 110.418 172.601 110.171C172.958 109.923 173.74 110.064 174.238 110.268C174.789 110.493 175.232 110.984 175.73 111.367C175.914 109.62 176.802 109.194 178.237 110.215C178.907 110.692 179.461 111.34 180.064 111.916C180.829 111.349 181.318 111.315 182.222 111.899C183.616 112.797 184.452 114.125 184.961 115.665C185.855 118.365 186.063 121.168 186.023 123.976C185.959 128.665 185.769 133.353 185.673 138.037C185.627 140.255 187.093 141.611 189.425 141.576C189.61 140.33 189.795 139.078 189.982 137.82L200.965 139.603C199.245 131.795 197.562 124.191 195.868 116.587C196.171 116.744 196.415 116.994 196.566 117.301C199.889 123.211 203.209 129.121 206.523 135.031C207.196 136.228 207.805 137.459 208.349 138.719C208.86 139.917 208.577 140.368 207.327 140.605C206.919 140.702 206.5 140.74 206.083 140.717C202.578 140.352 199.072 139.988 195.575 139.56C193.955 139.363 192.35 139.025 190.646 138.734C189.881 144.44 189.116 150.063 188.351 155.867C191.871 156.524 195.251 157.29 198.671 157.759C202.873 158.337 207.094 158.776 211.333 159.077C216.193 159.421 221.067 159.625 225.938 159.731C228.644 159.789 231.366 159.506 233.949 158.595C237.469 157.353 238.999 154.734 238.234 151.08C237.688 148.489 237.138 145.863 236.219 143.392C232.737 134.03 229.075 124.737 225.537 115.396C223.257 109.374 221.011 103.34 218.871 97.2674C217.127 92.3183 214.055 88.4574 209.8 85.4708L206.356 83.3004L206.366 83.3096ZM75.0549 138.899C75.2691 139.227 75.3609 139.375 75.4619 139.522C82.2708 149.546 89.0857 159.566 95.9068 169.582C96.1852 169.937 96.5864 170.175 97.0316 170.25C98.1823 170.41 99.3515 170.445 100.513 170.528C103.312 170.73 106.111 170.927 108.91 171.139C111.768 171.35 114.625 171.578 117.479 171.787C120.248 171.991 123.019 172.171 125.787 172.377C129.419 172.649 133.049 172.95 136.68 173.218C140.312 173.485 143.949 173.713 147.582 173.982C151.988 174.311 156.392 174.67 160.796 175.009C161.818 175.087 162.844 175.133 163.982 175.202C163.854 174.98 163.803 174.879 163.739 174.786C156.849 164.642 149.949 154.499 143.04 144.358C142.808 144.07 142.471 143.886 142.104 143.846C137.78 143.505 133.456 143.207 129.131 142.89C123.943 142.511 118.756 142.129 113.568 141.744L97.558 140.559C92.2529 140.165 86.9479 139.771 81.6428 139.376C79.5004 139.217 77.3626 139.066 75.0549 138.899ZM157.927 44.658C158.337 44.5052 158.845 44.3859 159.269 44.1383C160.518 43.4169 160.819 42.2339 160.695 40.9011C160.587 39.7226 160.236 38.6237 159.032 38.1422C157.827 37.6607 156.689 38.1422 155.957 39.0318C155.029 40.1582 154.049 40.013 153.05 39.4628C152.233 39.0149 151.542 38.3348 150.806 37.7433C150.534 37.5232 150.323 37.2175 150.034 37.031C147.7 35.5362 147.126 34.3058 147.603 31.4552C145.088 31.4552 142.593 31.6294 140.131 31.4155C135.796 31.041 131.425 30.5779 128.094 27.1358C127.022 31.5072 126.958 35.8694 127.217 40.2591C127.28 41.329 127.422 42.4692 127.125 43.4551C126.233 46.4127 125.145 49.3106 124.127 52.2284C123.882 52.93 123.549 53.604 123.362 54.3209C123.111 55.2716 123.327 55.51 124.315 55.5177C125.838 55.5284 127.361 55.5177 128.897 55.5177C129.154 57.0874 129.401 58.6021 129.65 60.126C131.792 60.0893 133.552 59.4015 135.159 58.2001C135.618 57.8577 136.206 57.6957 136.735 57.4512C136.812 58.0366 136.989 58.6296 136.948 59.2074C136.746 62.0656 135.708 63.3036 132.934 64.0648C132.196 64.2681 131.442 64.4056 130.486 64.6196C130.808 65.9096 130.975 67.1981 131.451 68.3613C132.651 71.2837 135.222 72.3979 138.255 71.4763C141.199 70.5821 143.833 69.0537 146.391 67.4091C150.017 65.0766 153.252 62.3208 155.289 58.4263C155.912 58.515 156.054 58.8008 155.693 59.2654C154.458 60.8657 153.365 62.6158 151.93 64.0144C150.145 65.7537 148.073 67.1997 146.09 68.7999C146.119 68.855 146.217 69.0338 146.315 69.2126C147.986 72.242 149.584 75.3127 150.528 78.6585C150.834 79.7529 151.045 80.9512 150.956 82.07C150.759 84.5354 150.344 86.984 150.018 89.4402C149.865 90.6523 149.443 91.9117 149.631 93.0718C150.014 95.4318 150.728 97.7382 151.238 99.797C151.503 97.3515 151.734 94.6538 152.104 91.9698C152.429 89.6251 153.08 87.3737 154.493 85.3974C156.208 83.0008 158.389 81.7582 161.416 82.3757C162.062 82.503 162.716 82.5832 163.373 82.6157C163.633 82.6309 163.985 82.5561 164.157 82.3833C166.605 79.895 169.054 77.3945 171.462 74.8572C171.678 74.631 171.756 74.093 171.658 73.7766C169.958 68.291 168.192 62.8237 166.518 57.3304C166.255 56.4668 165.839 56.0771 165.008 56.0312C163.646 55.9563 162.729 55.2502 162.138 54.0595C161.913 53.601 161.646 53.173 161.442 52.7099C160.267 50.0458 159.108 47.3725 157.927 44.658ZM90.4405 117.367L81.7438 109.394C79.2387 107.102 76.3143 105.555 72.9033 105.59C69.4203 105.627 65.9404 106.084 62.4666 106.421C61.579 106.508 60.7144 106.842 59.8391 107.062C59.8482 107.157 59.8559 107.253 59.8651 107.348C62.6916 108.557 65.7629 108.691 68.874 109.171C68.0583 109.874 67.3437 110.461 66.6627 111.085C62.8813 114.547 58.6515 117.304 53.8357 119.103C52.3054 119.675 50.7001 120.052 49.1438 120.563C48.8041 120.674 48.5317 120.977 48.2256 121.191C48.5118 121.466 48.7505 121.842 49.0902 121.996C50.3298 122.553 51.6474 122.576 52.9634 122.333C55.6644 121.837 58.1205 120.67 60.5522 119.462C62.413 118.545 64.2418 117.547 66.124 116.558C66.2464 116.793 66.3474 116.988 66.4806 117.247C64.4912 118.29 62.5722 119.322 60.6302 120.304C57.0646 122.096 53.3521 123.425 49.3427 123.82C48.9035 123.863 48.4827 124.084 48.0542 124.223C48.0267 124.338 48.0006 124.451 47.9746 124.566C48.5179 124.932 49.0229 125.388 49.6136 125.651C51.4591 126.473 53.3582 126.226 55.239 125.752C59.3111 124.728 63.1338 123.08 66.854 121.067C66.9703 121.234 67.0912 121.396 67.1983 121.568C67.2197 121.602 67.1876 121.669 67.1723 121.769C64.1958 123.435 61.0771 124.868 57.7762 125.819C55.3798 126.51 52.9022 126.915 50.4675 127.477C50.1171 127.558 49.8033 127.801 49.4713 127.97C49.6916 128.275 49.8508 128.734 50.1415 128.838C51.1913 129.221 52.2748 129.701 53.3644 129.755C55.9414 129.872 58.3654 129.006 60.7236 128.073C63.27 127.074 65.7552 125.918 68.3093 124.813C68.7148 125.143 68.5633 125.425 68.0675 125.654C66.3398 126.464 64.6473 127.355 62.8844 128.076C59.9615 129.272 57.0049 130.388 53.8158 130.686C53.4868 130.716 53.1715 130.907 52.5518 131.132C53.1731 131.626 53.5541 132.035 54.0209 132.28C55.6353 133.128 57.3707 133.116 59.0984 132.781C65.5731 131.528 71.3408 128.844 76.172 124.28C77.2111 123.299 78.3144 122.375 79.4285 121.481C80.3283 120.761 81.3689 120.743 82.3911 121.206C83.2007 121.571 83.9735 122.016 84.7968 122.444L90.4405 117.367ZM170.535 111.925L170.2 112.038C170.172 112.505 170.091 112.975 170.128 113.437C170.175 114.059 170.345 114.67 170.41 115.293C170.849 119.516 170.895 123.77 170.547 128.002C170.394 129.836 170.006 131.653 169.582 133.444C169.47 133.914 168.888 134.446 168.405 134.612C167.706 134.854 167.334 134.199 166.979 133.652C166.033 132.168 165.087 130.683 164.089 129.234C163.681 128.641 163.138 128.139 162.656 127.597L162.414 127.71C162.481 128.254 162.469 128.821 162.628 129.336C163.565 132.378 164.438 135.45 165.536 138.432C166.846 142.01 169.433 144.478 172.942 145.911C175.951 147.133 179.011 148.234 182.058 149.366C184.061 150.111 186.08 150.814 188.135 151.552C188.544 148.495 188.939 145.551 189.338 142.574C188.646 142.355 188.013 142.192 187.41 141.953C185.791 141.316 184.771 140.24 184.876 138.372C184.911 137.746 184.876 137.116 184.917 136.491C185.223 131.271 185.583 126.045 185.102 120.826C184.918 118.903 184.501 117.01 183.861 115.187C183.515 114.195 182.54 113.403 181.781 112.589C181.599 112.393 181.143 112.454 180.813 112.396C180.791 112.702 180.707 113.024 180.765 113.313C180.863 113.805 181.093 114.27 181.197 114.761C181.905 118.077 182.049 121.441 181.976 124.819C181.951 125.973 181.861 127.124 181.801 128.269C180.862 128.375 181.036 127.843 181.076 127.376C181.37 123.341 181.319 119.32 180.464 115.348C180.075 113.532 179.354 111.87 177.709 110.816C177.446 110.648 177.056 110.678 176.724 110.617C176.702 110.923 176.617 111.244 176.672 111.534C177.118 113.902 177.712 116.249 178.026 118.634C178.432 121.894 178.449 125.191 178.075 128.456C177.486 128.598 177.324 128.446 177.363 127.833C177.625 123.89 177.639 119.95 176.883 116.046C176.543 114.29 175.974 112.628 174.548 111.432C174.131 111.082 173.583 110.887 173.042 110.594C173.501 113.902 174.144 116.969 174.286 120.06C174.43 123.202 174.076 126.366 173.94 129.521L173.522 129.648C173.386 129.406 173.199 129.179 173.129 128.919C173.069 128.702 173.15 128.446 173.158 128.208C173.264 124.845 173.441 121.469 173.443 118.099C173.443 116.3 172.984 114.542 171.822 113.079C171.462 112.647 170.965 112.309 170.534 111.925H170.535ZM164.376 176.052L96.4638 171.034C96.3291 172.917 96.2006 174.691 96.069 176.536L163.984 181.551C164.117 179.679 164.242 177.912 164.374 176.052H164.376ZM164.976 175.202L189.5 166.296L189.459 166.1L157.169 163.715L164.976 175.202ZM191.422 166.565C191.36 166.559 191.297 166.559 191.234 166.565C182.698 169.651 174.162 172.741 165.627 175.835C165.45 175.899 165.222 176.119 165.207 176.286C165.054 177.935 164.939 179.587 164.807 181.339C168.872 179.862 172.809 178.435 176.744 176.999C181.25 175.367 185.762 173.747 190.262 172.096C190.568 171.981 191.009 171.676 191.038 171.42C191.222 169.826 191.303 168.218 191.421 166.565H191.422ZM143.274 82.5515C144.907 83.4059 146.006 84.7326 146.811 86.2778C147.602 87.7956 148.266 89.3775 149.016 90.9992C149.421 87.9759 149.795 85.0214 150.223 82.0746C150.448 80.5263 149.861 79.1827 149.408 77.7032L143.274 82.5515ZM171.126 69.8897C171.571 71.1538 171.978 72.3123 172.436 73.6146C172.99 72.6669 173.596 71.9333 173.124 70.9092C172.771 70.1114 172.053 69.9692 171.133 69.8897H171.126Z" fill="#2B2626"/>
<path d="M127.278 56.3894C128.066 56.125 128.307 56.4414 128.386 57.2316C128.51 58.4406 128.79 59.6328 128.998 60.8449C131.799 61.0879 134.1 60.1051 136.182 58.3917C136.261 61.3569 135.332 62.6347 132.579 63.3592C131.888 63.5411 131.161 63.5915 130.477 63.7963C130.232 63.8697 129.897 64.2167 129.895 64.4398C129.887 66.1899 130.187 67.8865 131.063 69.4348C132.558 72.0836 135.312 73.2559 138.255 72.2517C140.361 71.5303 142.352 70.4803 144.39 69.5693C144.685 69.4363 144.961 69.2636 145.397 69.0298L149.223 76.8662C146.724 77.8123 144.433 78.7324 142.107 79.5532C134.087 82.3839 129.157 88.1095 126.649 96.0743C125.295 100.394 124.153 104.786 122.765 109.089C121.315 113.593 119.685 118.043 118.127 122.513C118.028 122.758 117.917 122.997 117.792 123.229C115.165 118.203 113.299 112.816 112.254 107.244C111.888 105.14 111.632 103.018 111.489 100.887C111.336 98.9585 111.276 97.0158 111.305 95.0792C111.374 90.3624 112.145 85.7419 113.411 81.1993C114.586 77.0329 116.219 73.009 118.28 69.201C120.135 65.7306 122.34 62.4585 124.86 59.4357C125.685 58.4406 126.472 57.4059 127.278 56.3894Z" fill="#ECEBEA"/>
<path d="M84.3763 59.0547C84.8676 59.3802 85.3175 59.5423 85.5608 59.8617C87.1533 61.9465 88.7178 64.0517 90.2543 66.1773C90.7868 66.9094 90.6445 67.747 89.991 68.2407C89.8352 68.3577 89.6577 68.4427 89.4687 68.4906C89.2798 68.5386 89.0832 68.5487 88.8904 68.5203C88.6975 68.4918 88.5122 68.4255 88.3452 68.325C88.1782 68.2245 88.0328 68.092 87.9175 67.935C86.3229 65.8166 84.7298 63.6935 83.2164 61.5155C82.9685 61.1594 82.9623 60.4456 83.149 60.0344C83.3357 59.6233 83.9065 59.4047 84.3763 59.0547Z" fill="#EE7024"/>
<path d="M249.133 70.0877C247.031 70.3271 244.929 70.5671 242.828 70.8076C241.806 70.9222 241.107 70.4285 241.024 69.5466C240.939 68.6418 241.496 68.0182 242.509 67.8989L247.657 67.2769C248.449 67.1852 249.242 67.0812 250.038 67.0063C250.982 66.9177 251.671 67.4114 251.799 68.2398C251.928 69.0682 251.374 69.7316 250.451 69.892C250.012 69.9685 249.571 70.0235 249.133 70.0877Z" fill="#EE7024"/>
<path d="M89.3002 42.4467C89.0753 43.0122 88.9712 43.3546 88.8105 43.6695C87.6883 45.8389 86.5579 48.0037 85.4194 50.1639C84.9343 51.081 84.1324 51.3943 83.3596 51.0045C82.5868 50.6148 82.3281 49.7818 82.7964 48.8647C83.9671 46.5873 85.1623 44.3221 86.3513 42.0524C86.7217 41.3462 87.3644 41.0161 88.0637 41.3157C88.5611 41.5266 88.91 42.0768 89.3002 42.4467Z" fill="#EE7024"/>
<path d="M84.5095 91.8905C84.329 92.1106 84.0719 92.6547 83.6388 92.9115C81.4168 94.1878 79.1535 95.3968 76.8932 96.6104C76.05 97.0689 75.2099 96.8412 74.7967 96.1106C74.3835 95.38 74.6268 94.5332 75.4624 94.0701C77.7058 92.8259 79.9523 91.5879 82.2156 90.3819C83.3205 89.7935 84.482 90.4201 84.5095 91.8905Z" fill="#EE7024"/>
<path d="M80.2726 67.4478C80.1505 67.8382 80.008 68.2218 79.8457 68.5972C78.7092 70.7921 77.5635 72.9829 76.4086 75.1696C75.9235 76.0867 75.1492 76.4015 74.3519 76.0179C73.5546 75.6343 73.2975 74.8058 73.7719 73.8781C74.9456 71.6022 76.1423 69.337 77.3344 67.0703C77.7033 66.3672 78.346 66.0279 79.0453 66.3183C79.5442 66.5293 79.8962 67.0871 80.2726 67.4478Z" fill="#EE7024"/>
<path d="M55.6619 78.7153C56.1608 79.0653 56.6551 79.2671 56.9351 79.6324C58.4761 81.6439 59.9743 83.6874 61.4679 85.734C62.08 86.567 61.9744 87.4153 61.2582 87.9411C60.5665 88.4409 59.6943 88.2468 59.0883 87.4413C57.5932 85.4344 56.1149 83.4123 54.6198 81.4054C54.2066 80.8506 54.0444 80.2361 54.4423 79.6706C54.707 79.29 55.1875 79.0684 55.6619 78.7153Z" fill="#EE7024"/>
<path d="M101.237 86.8055C100.931 87.1387 100.64 87.7517 100.208 87.8755C99.7279 88.0084 98.8832 87.8755 98.6108 87.5377C96.9076 85.3978 95.2992 83.1709 93.7031 80.9439C93.244 80.3096 93.4751 79.4797 94.0811 79.0349C94.6871 78.5901 95.5533 78.6207 96.0185 79.2336C97.6773 81.4147 99.2933 83.6294 100.908 85.8441C101.056 86.0413 101.082 86.3348 101.237 86.8055Z" fill="#EE7024"/>
<path d="M88.4894 80.5741C88.5429 81.7449 88.0303 82.3838 87.1687 82.4373C86.3072 82.4908 85.7057 81.9528 85.5925 80.9746C85.3048 78.4893 85.0212 76.004 84.7417 73.5187C84.6284 72.5222 85.1212 71.7901 85.9843 71.6647C86.8473 71.5394 87.5283 72.1034 87.6523 73.1275C87.9599 75.6708 88.2277 78.2187 88.4894 80.5741Z" fill="#EE7024"/>
<path d="M73.8815 51.0657C73.8662 50.948 73.8448 50.8303 73.834 50.7111C73.7591 49.7833 74.2243 49.1245 75.0277 49.0191C75.9306 48.9014 76.6131 49.3782 76.7294 50.3228C77.0528 52.9528 77.3497 55.5863 77.62 58.2234C77.7011 59.0045 77.0814 59.68 76.3086 59.7717C75.5357 59.8635 74.8257 59.3346 74.7048 58.4343C74.4645 56.6338 74.284 54.8257 74.082 53.0206C74.0085 52.3694 73.9371 51.7183 73.8677 51.0672L73.8815 51.0657Z" fill="#EE7024"/>
<path d="M95.9133 53.0725H92.1609C91.2749 53.0725 90.649 52.5085 90.6138 51.6817C90.5801 50.8303 91.1127 50.1975 92.0125 50.1532C94.6334 50.0258 97.2553 49.9239 99.8783 49.8475C100.804 49.8215 101.393 50.4008 101.427 51.2231C101.462 52.102 100.902 52.7317 99.9364 52.7638C98.5959 52.8066 97.2553 52.7745 95.9133 52.7745V53.0725Z" fill="#EE7024"/>
<path d="M74.0748 85.3842H70.4112C69.493 85.3842 68.8809 84.866 68.835 84.033C68.7799 83.1251 69.3033 82.5046 70.2658 82.4541C72.8561 82.3298 75.4474 82.2279 78.0398 82.1484C78.9824 82.1194 79.6374 82.74 79.6512 83.5821C79.665 84.4243 79.0635 85.0464 78.0964 85.0724C76.7558 85.1091 75.4153 85.0815 74.0748 85.0815V85.3842Z" fill="#EE7024"/>
<path d="M229.434 84.1921C229.064 84.5727 228.73 85.1306 228.239 85.3706C227.581 85.6931 226.952 85.3522 226.556 84.7378C225.624 83.3163 224.71 81.8826 223.787 80.4581C223.319 79.7306 222.835 79.0137 222.384 78.2755C221.873 77.4409 222.008 76.5942 222.69 76.1356C223.423 75.6435 224.305 75.8483 224.845 76.6752C226.23 78.7997 227.604 80.9309 228.967 83.0687C229.139 83.3316 229.217 83.6587 229.434 84.1921Z" fill="#EE7024"/>
<path d="M220.475 70.3701C219.533 70.3854 218.875 69.8397 218.792 69.0281C218.718 68.296 219.251 67.6051 220.094 67.492C222.729 67.1435 225.368 66.823 228.01 66.5306C228.901 66.4328 229.541 67.0243 229.608 67.8573C229.675 68.6903 229.134 69.3338 228.157 69.4576C226.015 69.7235 223.885 69.962 221.748 70.2126C221.305 70.2646 220.859 70.3227 220.475 70.3701Z" fill="#EE7024"/>
<path d="M221.282 50.8164C221.213 51.078 221.124 51.3336 221.014 51.5806C219.861 53.8081 218.701 56.03 217.533 58.2462C217.038 59.1801 216.264 59.469 215.476 59.0685C214.688 58.6681 214.47 57.8229 214.933 56.918C216.09 54.661 217.255 52.4081 218.429 50.1592C218.784 49.4775 219.338 49.1382 220.113 49.3139C220.859 49.4836 221.199 50.0048 221.282 50.8164Z" fill="#EE7024"/>
<path d="M222.285 104.887L221.694 103.406C221.922 102.55 222.479 102.135 223.364 102.038C225.863 101.768 228.354 101.448 230.852 101.17C231.735 101.071 232.425 101.6 232.553 102.405C232.579 102.599 232.566 102.796 232.515 102.985C232.463 103.174 232.375 103.35 232.255 103.505C232.135 103.659 231.985 103.788 231.815 103.885C231.644 103.981 231.456 104.042 231.262 104.065C228.624 104.407 225.978 104.71 223.332 105.002C222.992 105.04 222.635 104.93 222.285 104.887Z" fill="#EE7024"/>
<path d="M233.857 94.1023C232.439 94.1329 231.674 93.0615 232.174 92.0557C233.375 89.6255 234.641 87.2258 235.922 84.8353C236.3 84.1292 237.189 83.9702 237.882 84.3676C238.575 84.765 238.816 85.5323 238.436 86.3042C237.793 87.614 237.1 88.9025 236.428 90.1971C235.906 91.2028 235.435 92.2376 234.841 93.199C234.574 93.6316 234.067 93.9174 233.857 94.1023Z" fill="#D06921"/>
<path d="M232.016 72.0176C232.206 72.0546 232.394 72.1057 232.577 72.1704C234.992 73.1975 237.408 74.2216 239.816 75.2671C240.494 75.5621 240.804 76.1169 240.689 76.8628C240.66 77.1644 240.528 77.4467 240.315 77.6626C240.102 77.8785 239.822 78.0149 239.52 78.0489C239.196 78.0883 238.868 78.0408 238.568 77.9113C236.203 76.9193 233.85 75.8998 231.491 74.8941C230.726 74.564 230.397 73.9771 230.556 73.1761C230.704 72.4272 231.244 72.1001 232.016 72.0176Z" fill="#EE7024"/>
<path d="M211.955 63.6067C211.955 64.4825 211.615 64.9823 210.939 65.1856C210.227 65.4042 209.638 65.1734 209.232 64.5498C208.27 63.0763 207.319 61.5937 206.366 60.1172C205.907 59.4157 205.448 58.7233 205.016 58.0064C204.522 57.1765 204.71 56.3251 205.43 55.8956C206.149 55.4661 206.983 55.6618 207.511 56.4703C208.896 58.5918 210.269 60.7225 211.63 62.8623C211.762 63.0998 211.87 63.349 211.955 63.6067Z" fill="#EE7024"/>
<path d="M205.352 72.0421C205.361 70.6389 206.423 70.0107 207.558 70.483C209.594 71.3313 211.617 72.2132 213.644 73.0814C213.999 73.2343 214.367 73.3657 214.715 73.5399C215.481 73.9343 215.77 74.6786 215.493 75.4245C215.353 75.7775 215.08 76.0612 214.732 76.2143C214.384 76.3674 213.99 76.3774 213.635 76.2423C211.127 75.2105 208.629 74.1498 206.163 73.0218C205.746 72.8384 205.52 72.2545 205.352 72.0421Z" fill="#EE7024"/>
<path d="M245.018 92.6244C245.018 90.269 245.009 87.9137 245.018 85.5568C245.018 84.5434 245.631 83.8755 246.5 83.8755C247.34 83.8755 247.976 84.5648 247.967 85.566C247.946 88.1017 247.897 90.6359 247.839 93.17C247.817 94.0871 247.149 94.7719 246.35 94.7642C245.551 94.7566 244.96 94.133 244.888 93.2449C244.872 93.0371 244.888 92.8261 244.888 92.6183L245.018 92.6244Z" fill="#EE7024"/>
<path d="M209.788 85.4652C214.044 88.4518 217.115 92.3126 218.86 97.2618C221.002 103.334 223.245 109.369 225.526 115.391C229.064 124.731 232.718 134.024 236.207 143.386C237.125 145.857 237.676 148.483 238.222 151.074C238.988 154.729 237.47 157.341 233.938 158.59C231.354 159.507 228.632 159.783 225.926 159.725C221.056 159.62 216.182 159.419 211.321 159.071C207.09 158.772 202.869 158.333 198.66 157.753C195.239 157.284 191.859 156.518 188.339 155.861C189.12 150.053 189.87 144.435 190.635 138.729C192.338 139.019 193.943 139.357 195.564 139.554C199.061 139.982 202.566 140.346 206.071 140.711C206.489 140.734 206.908 140.696 207.315 140.6C208.565 140.363 208.845 139.912 208.337 138.714C207.794 137.453 207.184 136.222 206.512 135.025C203.208 129.109 199.889 123.199 196.554 117.295C196.404 116.989 196.159 116.739 195.856 116.581C197.539 124.186 199.223 131.79 200.961 139.605L189.978 137.822C189.791 139.081 189.606 140.333 189.421 141.578C187.089 141.613 185.623 140.257 185.669 138.039C185.765 133.35 185.955 128.662 186.019 123.978C186.059 121.168 185.851 118.367 184.957 115.667C184.448 114.127 183.612 112.799 182.218 111.901C181.314 111.317 180.819 111.351 180.06 111.918C179.448 111.342 178.903 110.695 178.233 110.217C176.795 109.196 175.91 109.622 175.726 111.369C175.228 110.986 174.785 110.495 174.234 110.27C173.736 110.066 172.954 109.92 172.597 110.173C172.24 110.425 172.27 111.2 172.138 111.75C172.132 111.898 172.147 112.046 172.181 112.19C171.896 111.952 171.599 111.729 171.29 111.522C170.236 110.902 169.281 111.369 169.321 112.592C169.371 114.076 169.689 115.551 169.752 117.037C169.966 122.14 170.211 127.252 169.126 132.3C169.002 132.875 168.679 133.407 168.341 134.218C167.934 133.628 167.705 133.301 167.48 132.967C166.376 131.333 165.291 129.688 164.159 128.075C163.854 127.669 163.484 127.316 163.063 127.032C162.315 126.497 161.674 126.767 161.651 127.683C161.626 128.458 161.73 129.233 161.957 129.975C162.981 133.211 163.888 136.502 165.192 139.626C166.647 143.115 169.428 145.446 172.958 146.788C177.673 148.583 182.42 150.296 187.152 152.045C187.426 152.146 187.696 152.257 187.986 152.37C187.814 153.686 187.651 154.95 187.481 156.26L190.098 157.024C185.175 157.379 180.49 157.251 175.805 156.927C169.604 156.514 163.461 155.479 157.468 153.839C156.893 153.686 156.334 153.416 155.751 153.344C154.68 153.212 154.481 152.549 154.405 151.627C154.03 147.077 153.581 142.532 153.213 137.978C152.969 134.973 152.792 131.962 152.628 128.951C152.46 125.848 152.347 122.744 152.204 119.641C152.183 119.183 152.192 118.675 151.355 118.918C151.794 130.119 152.553 141.329 153.739 152.769C151.822 151.993 150.066 151.313 148.334 150.545C148 150.392 147.805 149.917 147.569 149.572C146.288 147.696 144.989 145.832 143.757 143.916C143.35 143.285 142.891 143.013 142.152 143.048C141.656 143.071 141.154 142.966 140.621 142.915L137.601 128.419C137.328 130.652 137.18 132.801 136.776 134.902C136.327 137.239 135.637 139.528 135.072 141.844C134.944 142.373 134.71 142.545 134.139 142.501C128.593 142.068 123.046 141.674 117.5 141.258C111.477 140.8 105.458 140.282 99.4302 139.927C97.8999 139.837 96.717 139.326 95.5509 138.419C90.6922 134.631 85.7952 130.892 80.8232 127.067L93.286 115.878C94.6908 116.861 96.0406 117.83 97.427 118.77C102.947 122.532 109.011 125.19 115.246 127.495C116.124 127.82 116.671 127.478 117.004 126.764C117.886 124.876 118.81 122.996 119.537 121.046C122.587 112.855 125.032 104.473 127.494 96.0879C129.204 90.2477 132.577 85.4483 137.939 82.3853C140.585 80.8737 143.527 79.8817 146.335 78.6544C146.392 78.7537 146.45 78.8531 146.507 78.96L141.694 82.798C141.729 82.8836 141.742 82.9677 141.769 82.9722C144.048 83.3834 145.252 85.0479 146.256 86.8881C148.092 90.2507 149.084 93.9083 149.895 97.6118C150.431 100.057 150.766 102.544 151.217 105.008C151.254 105.205 151.503 105.364 151.653 105.541C151.797 105.337 152.057 105.136 152.065 104.93C152.152 102.422 152.065 99.9014 152.296 97.4085C152.548 94.68 152.971 91.9698 153.562 89.2939C153.842 88.0299 154.591 86.8255 155.311 85.7097C156.734 83.5057 158.83 82.5 161.403 83.2015C163.441 83.7594 164.786 83.1251 166.177 81.6731C168.788 78.9631 171.558 76.4091 173.676 73.1855C173.921 73.5172 174.115 73.7969 174.334 74.0705C175.052 74.9463 175.925 75.5088 177.111 75.4461C177.56 75.4232 178.01 75.437 178.458 75.4094C182.657 75.1511 186.676 76.1171 190.681 77.1916C195.425 78.4618 200.063 79.9963 204.453 82.2248C204.978 82.4893 205.462 82.8362 205.964 83.1419L206.371 83.2948H206.362C207.32 84.3097 208.346 85.216 209.788 85.4652ZM195.879 116.209C195.867 116.186 195.855 116.164 195.841 116.143C195.827 116.157 195.796 116.178 195.799 116.186C195.817 116.218 195.837 116.249 195.859 116.279L195.879 116.209Z" fill="#EE7024"/>
<path d="M157.927 44.6585C159.107 47.373 160.266 50.0463 161.436 52.715C161.64 53.1735 161.908 53.6106 162.132 54.0646C162.723 55.2553 163.64 55.9614 165.002 56.0363C165.833 56.0822 166.249 56.4719 166.512 57.3355C168.186 62.8288 169.952 68.296 171.652 73.7817C171.75 74.0996 171.672 74.6361 171.457 74.8623C169.051 77.3995 166.607 79.9062 164.151 82.3884C163.981 82.5611 163.628 82.636 163.367 82.6207C162.71 82.5883 162.056 82.5081 161.41 82.3808C158.383 81.7694 156.207 83.0059 154.487 85.4025C153.075 87.3773 152.423 89.6287 152.098 91.9749C151.729 94.6573 151.5 97.3627 151.234 99.8082C150.724 97.7524 150.009 95.446 149.627 93.083C149.439 91.9229 149.856 90.6635 150.014 89.4514C150.335 86.9952 150.755 84.5466 150.952 82.0812C151.041 80.9593 150.833 79.764 150.524 78.6697C149.579 75.3239 147.982 72.2502 146.311 69.2238C146.213 69.045 146.115 68.8662 146.086 68.8111C148.075 67.2108 150.141 65.7649 151.925 64.0255C153.361 62.627 154.453 60.8769 155.688 59.2766C156.046 58.8181 155.907 58.5262 155.284 58.4375C153.248 62.332 150.012 65.0878 146.387 67.4202C143.829 69.0649 141.195 70.5933 138.251 71.4875C135.217 72.4045 132.647 71.2949 131.447 68.3725C130.971 67.2093 130.804 65.9269 130.481 64.6308C131.436 64.4168 132.191 64.2793 132.93 64.076C135.704 63.3118 136.742 62.0768 136.944 59.2186C136.985 58.6408 136.807 58.0478 136.731 57.4624C136.201 57.7069 135.611 57.8689 135.155 58.2113C133.551 59.4127 131.788 60.1005 129.646 60.1372C129.396 58.6087 129.15 57.0986 128.893 55.5289C127.362 55.5289 125.832 55.5365 124.311 55.5289C123.322 55.5212 123.107 55.2828 123.358 54.3321C123.546 53.6168 123.879 52.9412 124.123 52.2396C125.14 49.3218 126.229 46.4239 127.121 43.4663C127.418 42.4804 127.274 41.3356 127.212 40.2703C126.954 35.8806 127.018 31.5184 128.089 27.147C131.421 30.586 135.791 31.0491 140.127 31.4266C142.589 31.6406 145.083 31.4664 147.599 31.4664C147.12 34.317 147.696 35.5474 150.029 37.0422C150.319 37.2287 150.53 37.5344 150.802 37.7545C151.538 38.346 152.228 39.0261 153.046 39.474C154.048 40.0242 155.035 40.1694 155.953 39.0429C156.685 38.1564 157.822 37.6673 159.027 38.1534C160.233 38.6394 160.582 39.7338 160.691 40.9122C160.815 42.2451 160.513 43.4281 159.265 44.1495C158.845 44.3864 158.339 44.5041 157.927 44.6585ZM134.462 40.7945V40.8266C136.007 40.6845 137.556 40.579 139.094 40.3788C139.565 40.3177 140.165 40.1113 140.411 39.7674C140.658 39.4235 140.702 38.7724 140.613 38.2986C140.58 38.1259 139.922 38.0112 139.542 37.9791C139.163 37.947 138.777 38.077 138.388 38.0953C136.928 38.1656 135.464 38.1748 134.01 38.3047C133.569 38.3444 132.927 38.5936 132.774 38.9268C132.227 40.1159 132.798 40.8419 134.103 40.7961C134.223 40.79 134.342 40.7945 134.462 40.7945ZM139.544 44.0807C139.04 43.0811 137.707 42.5767 136.377 42.8121C135.439 42.9757 134.406 43.0551 133.929 44.148C134.867 44.041 135.753 43.6635 136.653 43.6283C137.553 43.5932 138.476 43.8973 139.544 44.0807Z" fill="#FEFEFE"/>
<path d="M90.4408 117.367L84.7909 122.445C83.9676 122.017 83.1948 121.572 82.3853 121.207C81.363 120.748 80.3224 120.762 79.4226 121.482C78.3055 122.376 77.2052 123.299 76.1661 124.28C71.3334 128.844 65.5672 131.528 59.0925 132.782C57.3648 133.116 55.6294 133.129 54.015 132.28C53.5482 132.036 53.1672 131.626 52.5459 131.132C53.1657 130.908 53.4809 130.717 53.8099 130.686C56.9991 130.388 59.9556 129.272 62.8785 128.077C64.6414 127.356 66.3339 126.465 68.0616 125.654C68.5574 125.422 68.7089 125.144 68.3034 124.814C65.7493 125.919 63.2641 127.074 60.7177 128.074C58.3595 128.999 55.9355 129.865 53.3585 129.755C52.2689 129.705 51.1854 129.225 50.1357 128.838C49.8449 128.733 49.6857 128.27 49.4654 127.97C49.7975 127.802 50.1112 127.559 50.4616 127.478C52.8963 126.915 55.3739 126.51 57.7703 125.82C61.0712 124.869 64.19 123.435 67.1664 121.769C67.1817 121.67 67.2138 121.603 67.1924 121.569C67.0853 121.396 66.9644 121.234 66.8481 121.068C63.1279 123.081 59.3052 124.736 55.2331 125.752C53.3524 126.226 51.4533 126.474 49.6077 125.651C49.017 125.389 48.512 124.933 47.9688 124.566C47.9948 124.452 48.0208 124.338 48.0483 124.224C48.4768 124.085 48.8976 123.863 49.3368 123.82C53.3462 123.431 57.0588 122.101 60.6244 120.305C62.5663 119.33 64.4792 118.298 66.4747 117.248C66.3416 116.988 66.2406 116.789 66.1181 116.559C64.2359 117.54 62.4072 118.532 60.5463 119.463C58.1147 120.67 55.6585 121.838 52.9575 122.333C51.6415 122.576 50.3239 122.553 49.0843 121.997C48.7446 121.844 48.5059 121.467 48.2197 121.191C48.5258 120.977 48.8028 120.675 49.1379 120.563C50.6942 120.053 52.298 119.675 53.8298 119.104C58.6457 117.305 62.8754 114.547 66.6568 111.085C67.3378 110.462 68.0524 109.875 68.8681 109.172C65.757 108.692 62.6857 108.56 59.8592 107.348C59.85 107.253 59.8424 107.157 59.8332 107.062C60.7085 106.842 61.5731 106.509 62.4607 106.422C65.9345 106.084 69.4144 105.627 72.8974 105.59C76.3084 105.555 79.2328 107.101 81.7379 109.395L90.4408 117.367ZM69.9975 112.595C72.0129 114.306 75.1301 114.79 77.0675 113.763C77.4424 113.564 77.7699 113.276 78.18 112.985L77.5862 112.47C75.4943 113.968 73.1774 113.846 70.4749 112.077L69.9975 112.595Z" fill="#FDFDFD"/>
<path d="M170.534 111.926C170.965 112.31 171.463 112.64 171.815 113.083C172.975 114.546 173.435 116.303 173.435 118.102C173.435 121.465 173.256 124.843 173.15 128.212C173.15 128.45 173.062 128.705 173.121 128.922C173.192 129.182 173.379 129.41 173.515 129.651L173.932 129.525C174.069 126.37 174.422 123.206 174.278 120.063C174.136 116.973 173.49 113.905 173.034 110.598C173.576 110.891 174.124 111.085 174.54 111.435C175.966 112.632 176.529 114.293 176.875 116.05C177.631 119.953 177.617 123.894 177.356 127.837C177.316 128.449 177.478 128.601 178.067 128.459C178.441 125.195 178.425 121.898 178.018 118.637C177.712 116.253 177.111 113.899 176.664 111.538C176.609 111.244 176.695 110.926 176.716 110.621C177.048 110.682 177.438 110.651 177.702 110.819C179.351 111.874 180.072 113.535 180.456 115.351C181.309 119.325 181.359 123.345 181.068 127.38C181.035 127.839 180.854 128.378 181.794 128.273C181.853 127.128 181.947 125.98 181.968 124.823C182.042 121.445 181.898 118.081 181.189 114.764C181.085 114.274 180.856 113.809 180.758 113.317C180.699 113.025 180.784 112.705 180.805 112.4C181.136 112.458 181.592 112.4 181.774 112.592C182.539 113.41 183.508 114.202 183.853 115.191C184.494 117.013 184.91 118.907 185.095 120.829C185.575 126.049 185.217 131.275 184.909 136.494C184.873 137.119 184.909 137.749 184.868 138.376C184.764 140.244 185.786 141.32 187.402 141.957C188.005 142.195 188.639 142.359 189.33 142.578C188.931 145.555 188.536 148.505 188.128 151.556C186.072 150.817 184.054 150.114 182.051 149.37C179.004 148.237 175.943 147.14 172.935 145.914C169.426 144.482 166.838 142.014 165.528 138.435C164.435 135.449 163.562 132.381 162.62 129.34C162.467 128.825 162.467 128.257 162.406 127.713L162.648 127.6C163.13 128.143 163.673 128.644 164.082 129.237C165.08 130.686 166.025 132.172 166.971 133.656C167.319 134.203 167.698 134.857 168.397 134.616C168.881 134.449 169.469 133.917 169.574 133.448C169.998 131.657 170.388 129.835 170.54 128.005C170.887 123.774 170.841 119.519 170.402 115.296C170.338 114.674 170.168 114.063 170.121 113.441C170.084 112.982 170.165 112.508 170.192 112.042L170.534 111.926ZM180.384 143.096L180.729 143.021C180.657 142.749 180.672 142.377 180.496 142.221C179.305 141.164 178.692 139.836 178.725 138.278C178.768 137.183 178.913 136.094 179.158 135.025C179.287 134.414 179.195 134.2 178.591 134.228C177.227 138.009 177.882 141.217 180.384 143.096Z" fill="#FEFDFE"/>
<path d="M164.374 176.052C164.243 177.909 164.117 179.679 163.984 181.555L96.0693 176.537C96.2009 174.69 96.3295 172.916 96.4641 171.034L164.374 176.052Z" fill="#FEFEFE"/>
<path d="M164.974 175.202L157.17 163.719L189.459 166.103L189.501 166.299L164.974 175.202Z" fill="#FEFEFE"/>
<path d="M191.421 166.565C191.304 168.219 191.222 169.827 191.043 171.422C191.014 171.678 190.577 171.983 190.268 172.098C185.767 173.749 181.256 175.369 176.749 177.001C172.808 178.429 168.871 179.864 164.812 181.341C164.944 179.589 165.059 177.937 165.212 176.287C165.227 176.121 165.455 175.901 165.633 175.837C174.166 172.737 182.701 169.647 191.239 166.567C191.3 166.56 191.361 166.56 191.421 166.565Z" fill="#FDFDFD"/>
<path d="M143.274 82.5519L149.408 77.7036C149.867 79.1832 150.448 80.5267 150.224 82.075C149.795 85.0219 149.422 87.9764 149.016 90.9996C148.266 89.378 147.602 87.7899 146.811 86.2782C146.006 84.733 144.907 83.4063 143.274 82.5519Z" fill="#FCFCFC"/>
<path d="M171.134 69.8901C172.052 69.9696 172.764 70.1118 173.132 70.9096C173.604 71.9291 172.998 72.6673 172.444 73.615C171.986 72.3127 171.579 71.1542 171.134 69.8901Z" fill="#F5F5F5"/>
<path d="M209.787 85.4654C208.346 85.2163 207.319 84.3099 206.356 83.3042L209.787 85.4654Z" fill="#D8D1CA"/>
<path d="M206.366 83.3101L205.959 83.1572L206.366 83.3101Z" fill="#D8D1CA"/>
<path d="M195.879 116.208L195.859 116.279C195.837 116.249 195.817 116.218 195.8 116.185C195.8 116.185 195.827 116.156 195.841 116.143C195.859 116.162 195.879 116.185 195.879 116.208Z" fill="#2D292A"/>
<path d="M134.462 40.7944C134.342 40.7944 134.223 40.7944 134.104 40.7944C132.798 40.8403 132.227 40.1143 132.774 38.9251C132.927 38.5919 133.57 38.3428 134.01 38.3031C135.464 38.1731 136.929 38.164 138.388 38.0937C138.776 38.0753 139.164 37.9408 139.542 37.9775C139.92 38.0142 140.583 38.1303 140.613 38.2969C140.702 38.7708 140.676 39.402 140.411 39.7658C140.147 40.1296 139.565 40.3176 139.094 40.3772C137.556 40.5774 136.007 40.6829 134.462 40.825V40.7944Z" fill="#2D2A2B"/>
<path d="M139.544 44.0809C138.473 43.8975 137.555 43.5933 136.657 43.6223C135.758 43.6514 134.871 44.035 133.933 44.142C134.407 43.0492 135.44 42.9697 136.381 42.8061C137.716 42.5769 139.041 43.0813 139.544 44.0809Z" fill="#3B393A"/>
<path d="M69.998 112.595L70.4801 112.077C73.1826 113.852 75.4995 113.968 77.5914 112.47L78.1806 112.985C77.7705 113.275 77.443 113.564 77.068 113.763C75.1383 114.787 72.0135 114.306 69.998 112.595Z" fill="#393738"/>
<path d="M180.385 143.095C177.883 141.217 177.228 138.009 178.591 134.23C179.203 134.203 179.287 134.421 179.159 135.028C178.913 136.097 178.768 137.185 178.726 138.281C178.692 139.838 179.306 141.166 180.496 142.224C180.672 142.377 180.649 142.751 180.729 143.023L180.385 143.095Z" fill="#363435"/>
<path d="M121.096 157.205C120.442 157.251 119.718 157.452 119.463 156.201L121.218 156.879L121.096 157.205Z" fill="#FBF2EB"/>
<path d="M110.209 156.251C109.082 156.8 108.789 156.674 108.373 155.534L110.209 156.251Z" fill="#F9EDE2"/>
<path d="M130.669 158.03L130.607 158.142C130.59 158.122 130.554 158.099 130.557 158.083C130.57 158.043 130.588 158.004 130.61 157.967L130.669 158.03Z" fill="#FFFEFE"/>
<path d="M131.565 157.669C131.545 157.707 131.522 157.746 131.501 157.785C131.481 157.765 131.442 157.741 131.445 157.726C131.459 157.683 131.478 157.643 131.501 157.605L131.565 157.669Z" fill="#FFFEFE"/>
<path d="M135.61 157.72C136.546 157.885 137.191 158.42 137.498 159.305C137.573 159.519 137.425 159.812 137.379 160.069C137.05 159.97 136.566 159.973 136.424 159.754C136.038 159.163 135.8 158.476 135.506 157.828L135.61 157.72Z" fill="#FCF8F3"/>
<path d="M135.501 157.828L135.404 157.701L135.609 157.721L135.501 157.828Z" fill="#FCF8F3"/>
<path fill-rule="evenodd" clip-rule="evenodd" d="M76.9694 139.038C76.3422 138.993 75.7052 138.947 75.0547 138.9C75.1636 139.066 75.2412 139.186 75.304 139.283C75.3646 139.377 75.4113 139.449 75.4587 139.52C82.2532 149.552 89.0682 159.572 95.9035 169.581C96.182 169.935 96.5831 170.174 97.0283 170.249C97.8632 170.365 98.7078 170.415 99.5521 170.466C99.8715 170.485 100.191 170.504 100.51 170.527C101.801 170.622 103.093 170.715 104.385 170.808C105.892 170.917 107.399 171.026 108.907 171.138C110.257 171.238 111.608 171.341 112.96 171.445C114.465 171.56 115.97 171.676 117.476 171.786C118.775 171.881 120.074 171.972 121.373 172.062C122.844 172.164 124.314 172.267 125.784 172.376C127.405 172.498 129.026 172.625 130.647 172.753C132.656 172.912 134.666 173.07 136.677 173.217C138.323 173.337 139.97 173.449 141.616 173.561C143.604 173.697 145.592 173.832 147.579 173.981C150.253 174.18 152.927 174.391 155.601 174.602C157.332 174.738 159.062 174.875 160.793 175.008C161.467 175.06 162.143 175.097 162.852 175.136C163.217 175.157 163.592 175.177 163.979 175.201C163.934 175.122 163.898 175.059 163.868 175.006C163.813 174.909 163.777 174.845 163.736 174.785C156.848 164.632 149.947 154.49 143.032 144.358C142.8 144.071 142.463 143.887 142.096 143.846C139.086 143.607 136.076 143.391 133.066 143.175C131.752 143.081 130.437 142.987 129.123 142.891L113.56 141.744L97.5501 140.56C92.2451 140.162 86.94 139.768 81.635 139.377C80.102 139.263 78.5674 139.152 76.9694 139.038Z" fill="white"/>
<path fill-rule="evenodd" clip-rule="evenodd" d="M98.2346 154.924C98.4369 154.931 98.637 154.968 98.8284 155.034C98.9857 155.089 99.1354 155.164 99.2737 155.257C99.4534 155.393 99.6016 155.565 99.7083 155.763C99.8075 155.936 99.8602 156.132 99.8613 156.332C99.852 156.521 99.7787 156.703 99.6532 156.845L99.4451 157.093C99.6375 157.158 99.8251 157.237 100.007 157.328C100.095 157.368 100.175 157.423 100.242 157.492C100.347 157.599 100.43 157.725 100.489 157.863C100.574 158.07 100.625 158.29 100.642 158.513C100.673 158.734 100.634 158.96 100.53 159.158C100.432 159.331 100.282 159.469 100.102 159.554C99.903 159.645 99.6864 159.689 99.468 159.684C99.2199 159.669 98.9754 159.618 98.7427 159.531C98.5502 159.468 98.3794 159.353 98.2499 159.198C98.1052 158.978 97.9841 158.743 97.8888 158.498C97.7526 158.105 97.6286 157.678 97.5138 157.221C97.3991 156.764 97.2889 156.275 97.1848 155.754C97.0899 155.279 97.0614 155.031 97.0991 155.008C97.1573 154.98 97.2191 154.96 97.2828 154.948C97.5048 154.925 97.7284 154.918 97.9515 154.927C98.0556 154.919 98.1474 154.919 98.2346 154.924ZM98.9875 157.668C98.9039 157.659 98.8197 157.677 98.7473 157.72C98.7177 157.739 98.6957 157.768 98.6851 157.802C98.6745 157.835 98.6759 157.872 98.6891 157.904L98.9079 158.65C98.9271 158.694 98.9549 158.733 98.9896 158.765C99.0243 158.797 99.0653 158.822 99.1099 158.838C99.2029 158.876 99.3056 158.882 99.4022 158.855C99.4523 158.843 99.4994 158.82 99.5407 158.789C99.5819 158.758 99.6166 158.719 99.6425 158.675C99.7044 158.551 99.7207 158.41 99.6884 158.276C99.6668 158.154 99.6141 158.04 99.5354 157.944C99.4627 157.86 99.3737 157.792 99.2737 157.744C99.1839 157.701 99.0869 157.675 98.9875 157.668ZM98.4703 155.658H98.4519C98.3917 155.656 98.3323 155.671 98.2805 155.702C98.2598 155.712 98.2433 155.728 98.2337 155.749C98.2242 155.77 98.2224 155.793 98.2285 155.815L98.3708 156.44C98.3772 156.469 98.3917 156.495 98.4126 156.516C98.4335 156.536 98.4599 156.55 98.4886 156.556C98.5594 156.571 98.6331 156.565 98.6998 156.537C98.7771 156.509 98.8422 156.455 98.8835 156.384C98.9305 156.289 98.9419 156.18 98.9156 156.078C98.8925 155.958 98.8274 155.849 98.732 155.772C98.6585 155.708 98.5672 155.668 98.4703 155.658ZM101.112 154.958C101.387 154.973 101.656 155.047 101.901 155.175C102.145 155.301 102.35 155.493 102.492 155.728C102.649 156.004 102.721 156.319 102.7 156.636C102.668 157.08 102.544 157.513 102.337 157.908L103.562 158.887C103.581 158.944 103.588 159.004 103.583 159.063C103.578 159.123 103.561 159.18 103.532 159.233C103.473 159.342 103.392 159.438 103.295 159.515C103.204 159.591 103.108 159.661 103.008 159.725L101.907 158.843L102.317 159.922C102.255 159.95 102.191 159.974 102.126 159.994C102.021 160.028 101.913 160.055 101.805 160.075C101.699 160.094 101.591 160.094 101.485 160.075C101.442 160.07 101.401 160.053 101.368 160.026C101.334 159.999 101.309 159.963 101.295 159.922C101.069 159.285 100.878 158.653 100.723 158.025C100.568 157.398 100.424 156.77 100.293 156.142C100.224 155.815 100.154 155.487 100.08 155.159C100.398 154.996 100.756 154.926 101.112 154.958ZM101.294 156.125C101.225 156.118 101.197 156.141 101.214 156.196L101.422 156.903C101.452 156.986 101.503 157.013 101.575 156.986C101.653 156.948 101.718 156.888 101.762 156.813C101.817 156.73 101.843 156.631 101.835 156.532C101.821 156.457 101.781 156.39 101.722 156.341C101.658 156.28 101.585 156.228 101.506 156.188C101.44 156.154 101.368 156.133 101.294 156.125ZM104.902 155.397C104.804 155.358 104.701 155.336 104.596 155.332C104.441 155.317 104.284 155.336 104.137 155.389C104.081 155.403 104.031 155.433 103.993 155.477C103.955 155.52 103.931 155.573 103.924 155.63C103.904 155.974 103.895 156.34 103.894 156.722C103.893 156.922 103.896 157.125 103.899 157.33L103.899 157.33C103.902 157.515 103.904 157.702 103.904 157.891C103.914 158.463 103.914 159.019 103.904 159.556C103.909 159.603 103.973 159.676 104.1 159.756C104.237 159.84 104.385 159.907 104.539 159.953C104.678 160.003 104.828 160.013 104.971 159.98C105.092 159.953 105.147 159.849 105.138 159.675L105.074 158.92C105.069 158.829 105.069 158.737 105.074 158.646C105.075 158.584 105.086 158.522 105.107 158.463C105.112 158.441 105.123 158.421 105.14 158.406C105.157 158.391 105.178 158.382 105.201 158.38C105.252 158.391 105.298 158.421 105.328 158.464C105.371 158.52 105.408 158.58 105.439 158.643C105.48 158.728 105.516 158.814 105.548 158.903L105.865 159.757C105.884 159.82 105.917 159.877 105.959 159.927C106.002 159.977 106.054 160.017 106.113 160.046C106.219 160.092 106.338 160.102 106.451 160.077C106.569 160.051 106.681 160.006 106.784 159.944C106.875 159.892 106.956 159.825 107.025 159.747C107.081 159.679 107.099 159.626 107.08 159.586C106.88 159.177 106.671 158.744 106.452 158.287C106.227 157.808 105.999 157.333 105.768 156.862C105.538 156.392 105.314 155.957 105.097 155.559C105.052 155.484 104.983 155.427 104.902 155.397ZM104.852 156.729H104.861C104.885 156.733 104.908 156.742 104.928 156.755C104.949 156.768 104.967 156.786 104.98 156.806C105.021 156.862 105.054 156.923 105.078 156.988C105.107 157.057 105.131 157.128 105.152 157.2C105.171 157.27 105.191 157.355 105.213 157.449H104.818L104.812 157.42C104.793 157.335 104.777 157.263 104.767 157.199C104.757 157.128 104.749 157.057 104.746 156.986C104.742 156.926 104.748 156.866 104.764 156.809C104.768 156.788 104.779 156.769 104.794 156.754C104.81 156.74 104.83 156.731 104.852 156.729ZM107.444 159.737L106.454 155.796C106.436 155.728 106.471 155.675 106.563 155.634C106.671 155.588 106.786 155.562 106.904 155.556C107.034 155.545 107.165 155.551 107.294 155.574C107.388 155.583 107.475 155.628 107.537 155.698L108.191 156.948C108.233 157.012 108.271 157.078 108.306 157.147C108.353 157.252 108.416 157.351 108.491 157.439C108.529 157.482 108.576 157.516 108.629 157.538C108.682 157.561 108.739 157.572 108.797 157.57L108.696 157.145L108.376 155.819C108.358 155.751 108.397 155.698 108.495 155.658C108.612 155.614 108.736 155.59 108.861 155.586C108.998 155.577 109.135 155.59 109.268 155.624C109.32 155.634 109.368 155.655 109.41 155.686C109.452 155.717 109.486 155.758 109.51 155.805C109.683 156.483 109.845 157.164 109.995 157.845C110.145 158.527 110.275 159.212 110.384 159.901C110.395 159.946 110.393 159.994 110.379 160.038C110.364 160.083 110.338 160.123 110.303 160.153C110.219 160.22 110.116 160.256 110.009 160.254C109.871 160.255 109.735 160.223 109.612 160.161C109.461 160.083 109.33 159.971 109.23 159.834L108.254 158.499C108.318 158.772 108.373 159.001 108.417 159.184C108.439 159.273 108.46 159.358 108.48 159.441C108.502 159.53 108.523 159.615 108.543 159.698L108.621 160.02C108.605 160.062 108.577 160.099 108.541 160.126C108.505 160.153 108.462 160.17 108.417 160.173C108.295 160.198 108.168 160.198 108.045 160.173C107.91 160.147 107.781 160.095 107.666 160.02C107.56 159.956 107.481 159.855 107.444 159.737ZM111.25 155.603C111.133 155.569 111.011 155.55 110.889 155.545C110.713 155.534 110.537 155.554 110.367 155.601C110.293 155.619 110.223 155.653 110.163 155.701C110.104 155.749 110.056 155.81 110.023 155.879C110.007 156.091 110.02 156.303 110.061 156.511C110.11 156.867 110.176 157.275 110.263 157.733C110.35 158.192 110.444 158.612 110.543 158.991C110.597 159.253 110.69 159.506 110.819 159.74C110.956 159.906 111.121 160.047 111.307 160.156C111.487 160.279 111.69 160.363 111.904 160.404C112.086 160.411 112.267 160.363 112.421 160.266C112.623 160.144 112.795 159.979 112.924 159.782C113.085 159.536 113.189 159.259 113.23 158.968C113.282 158.592 113.256 158.208 113.152 157.842C113.053 157.451 112.891 157.079 112.672 156.74C112.502 156.479 112.296 156.244 112.06 156.041C111.895 155.9 111.713 155.781 111.518 155.685C111.367 155.618 111.278 155.591 111.25 155.603ZM111.262 157.279C111.247 157.176 111.287 157.127 111.38 157.127V157.125C111.474 157.136 111.562 157.173 111.634 157.232C111.748 157.315 111.845 157.418 111.919 157.538C112.016 157.692 112.084 157.863 112.118 158.042C112.159 158.202 112.159 158.37 112.118 158.53C112.09 158.638 112.027 158.734 111.939 158.802C111.908 158.827 111.871 158.845 111.832 158.854C111.793 158.862 111.753 158.862 111.714 158.852C111.675 158.838 111.641 158.814 111.616 158.782C111.59 158.75 111.574 158.711 111.569 158.67L111.262 157.279ZM113.813 159.858C113.691 159.657 113.627 159.426 113.628 159.19C113.629 158.979 113.674 158.771 113.76 158.579C113.824 158.422 113.924 158.283 114.05 158.171C113.884 158.006 113.747 157.814 113.648 157.602C113.549 157.4 113.491 157.179 113.48 156.954C113.466 156.753 113.523 156.553 113.642 156.39C113.792 156.214 114.003 156.101 114.232 156.074C114.372 156.054 114.514 156.06 114.652 156.092C114.859 156.155 115.053 156.256 115.224 156.389C115.403 156.571 115.53 156.799 115.591 157.047C115.655 157.288 115.659 157.541 115.602 157.784C115.553 158.006 115.425 158.202 115.241 158.336C115.297 158.423 115.362 158.504 115.435 158.577C115.506 158.644 115.586 158.699 115.674 158.739C115.703 158.713 115.728 158.684 115.749 158.651C115.772 158.617 115.796 158.574 115.825 158.521C115.835 158.499 115.852 158.482 115.873 158.471C115.893 158.46 115.917 158.456 115.94 158.46C115.996 158.472 116.048 158.496 116.093 158.53C116.151 158.57 116.206 158.615 116.257 158.663C116.309 158.712 116.369 158.774 116.436 158.851L116.399 158.914L116.376 158.949L116.352 158.988C116.338 159.01 116.325 159.032 116.314 159.054L116.353 159.069C116.392 159.087 116.432 159.102 116.473 159.115C116.505 159.125 116.539 159.131 116.572 159.134H116.725C116.763 159.221 116.771 159.319 116.747 159.412C116.727 159.532 116.69 159.648 116.635 159.756C116.581 159.86 116.525 159.909 116.464 159.909L116.337 159.895C116.311 159.894 116.286 159.89 116.262 159.883L116.174 159.858L116.06 159.82C115.963 159.991 115.827 160.136 115.662 160.243C115.487 160.365 115.288 160.448 115.079 160.488C114.874 160.527 114.662 160.51 114.467 160.437C114.2 160.308 113.974 160.107 113.813 159.858ZM115.135 159.322C115.047 159.267 114.961 159.208 114.88 159.143C114.776 159.051 114.678 158.953 114.587 158.848C114.568 158.874 114.551 158.897 114.539 158.917C114.525 158.938 114.514 158.961 114.503 158.984C114.449 159.108 114.435 159.247 114.464 159.38C114.488 159.482 114.548 159.571 114.633 159.632C114.715 159.689 114.814 159.716 114.913 159.707C114.992 159.699 115.067 159.673 115.134 159.63C115.206 159.578 115.27 159.516 115.327 159.447L115.135 159.322ZM114.33 157.431C114.401 157.571 114.496 157.697 114.61 157.804C114.642 157.776 114.672 157.746 114.698 157.712C114.731 157.669 114.763 157.627 114.793 157.582C114.822 157.538 114.843 157.504 114.857 157.481C114.901 157.428 114.933 157.365 114.948 157.297C114.962 157.229 114.961 157.159 114.943 157.092C114.904 156.978 114.824 156.883 114.719 156.826C114.628 156.77 114.518 156.751 114.413 156.775C114.314 156.801 114.26 156.885 114.232 157.027C114.225 157.169 114.259 157.309 114.33 157.431ZM117.857 155.961C117.738 155.927 117.616 155.908 117.493 155.903C117.315 155.894 117.137 155.916 116.966 155.967C116.891 155.984 116.82 156.019 116.759 156.067C116.698 156.115 116.649 156.176 116.614 156.245C116.596 156.457 116.606 156.67 116.645 156.879C116.68 157.231 116.75 157.64 116.833 158.102C116.916 158.564 117.006 158.984 117.101 159.365C117.153 159.628 117.243 159.882 117.369 160.12C117.507 160.285 117.673 160.427 117.858 160.537C118.039 160.66 118.243 160.745 118.458 160.786C118.643 160.794 118.826 160.745 118.983 160.647C119.19 160.525 119.366 160.359 119.5 160.161C119.666 159.915 119.775 159.636 119.82 159.343C119.878 158.966 119.856 158.581 119.756 158.212C119.661 157.819 119.502 157.444 119.283 157.104C119.115 156.841 118.909 156.605 118.671 156.402C118.505 156.26 118.322 156.139 118.126 156.043C117.975 155.976 117.884 155.948 117.857 155.961ZM117.848 157.645C117.832 157.541 117.874 157.492 117.97 157.492V157.491C118.068 157.5 118.162 157.538 118.239 157.599C118.353 157.682 118.449 157.786 118.523 157.905C118.619 158.06 118.685 158.231 118.717 158.411C118.754 158.573 118.751 158.741 118.706 158.901C118.675 159.01 118.611 159.105 118.523 159.175C118.491 159.2 118.454 159.217 118.414 159.226C118.375 159.234 118.334 159.234 118.295 159.224C118.254 159.212 118.218 159.188 118.191 159.156C118.164 159.123 118.147 159.084 118.142 159.042L117.848 157.645ZM119.864 156.594C119.99 156.507 120.141 156.463 120.294 156.468C120.462 156.467 120.626 156.515 120.767 156.607C120.84 156.656 120.903 156.72 120.95 156.795C120.997 156.87 121.028 156.954 121.041 157.041L121.224 157.934C121.23 157.964 121.236 157.995 121.242 158.027L121.242 158.028L121.242 158.028C121.249 158.067 121.257 158.106 121.264 158.148C121.301 158.354 121.342 158.579 121.391 158.819C121.44 159.059 121.494 159.293 121.555 159.521L121.726 160.239C121.736 160.288 121.73 160.339 121.71 160.385C121.69 160.43 121.657 160.469 121.614 160.496C121.507 160.572 121.379 160.615 121.247 160.621C121.093 160.632 120.939 160.592 120.808 160.509C120.648 160.4 120.531 160.238 120.479 160.051C120.31 159.519 120.157 158.995 120.02 158.478C119.883 157.962 119.778 157.452 119.705 156.95C119.695 156.881 119.705 156.812 119.733 156.749C119.761 156.686 119.807 156.632 119.864 156.594ZM123.598 156.469C123.338 156.444 123.075 156.455 122.818 156.502C122.749 156.509 122.681 156.521 122.611 156.534C122.564 156.543 122.515 156.552 122.466 156.56C122.433 156.578 122.399 156.595 122.365 156.609C122.252 156.655 122.146 156.714 122.048 156.784C121.909 156.889 121.797 157.024 121.72 157.18C121.609 157.42 121.547 157.68 121.538 157.944C121.523 158.373 121.563 158.802 121.656 159.221C121.746 159.483 121.874 159.732 122.036 159.957C122.219 160.218 122.452 160.439 122.721 160.609C123.042 160.808 123.404 160.933 123.78 160.975C124.069 161.022 124.366 160.995 124.642 160.896C124.725 160.86 124.801 160.808 124.864 160.742C124.928 160.677 124.977 160.6 125.011 160.515C125.074 160.343 125.115 160.162 125.131 159.979C125.142 159.957 125.142 159.935 125.142 159.912C125.159 159.869 125.164 159.822 125.157 159.777C125.17 159.675 125.17 159.54 125.17 159.387C125.17 159.228 125.154 159.069 125.122 158.913C125.098 158.772 125.039 158.639 124.951 158.525C124.858 158.429 124.741 158.359 124.613 158.322C124.474 158.278 124.332 158.25 124.187 158.238C124.015 158.228 123.842 158.228 123.67 158.238C123.639 158.233 123.606 158.239 123.579 158.254C123.551 158.27 123.529 158.294 123.517 158.324C123.479 158.4 123.459 158.484 123.459 158.57C123.455 158.66 123.467 158.75 123.494 158.836C123.5 158.869 123.514 158.9 123.535 158.926C123.556 158.953 123.583 158.974 123.613 158.988L123.725 159.057C123.758 159.078 123.789 159.101 123.818 159.127C123.848 159.152 123.874 159.181 123.895 159.213C123.92 159.26 123.935 159.313 123.938 159.366C123.942 159.41 123.942 159.454 123.938 159.497C123.939 159.509 123.939 159.52 123.938 159.531C123.893 159.768 123.815 159.904 123.702 159.942C123.638 159.959 123.57 159.96 123.505 159.945C123.441 159.929 123.38 159.899 123.33 159.855C123.04 159.629 122.835 159.311 122.75 158.953C122.704 158.67 122.704 158.381 122.75 158.097C122.762 158.001 122.796 157.909 122.849 157.828C122.902 157.747 122.973 157.679 123.056 157.63C123.209 157.541 123.428 157.542 123.711 157.63C123.812 157.682 123.917 157.724 124.025 157.756C124.112 157.786 124.206 157.782 124.29 157.746C124.336 157.716 124.376 157.677 124.407 157.631C124.437 157.585 124.458 157.533 124.467 157.478C124.457 157.14 124.371 156.894 124.21 156.74C124.043 156.582 123.827 156.486 123.598 156.469ZM125.127 156.88C125.255 156.792 125.408 156.748 125.563 156.753C125.732 156.752 125.897 156.8 126.039 156.892C126.112 156.942 126.174 157.006 126.221 157.081C126.268 157.156 126.299 157.24 126.311 157.328L126.486 158.225C126.491 158.256 126.497 158.287 126.502 158.319L126.502 158.32L126.503 158.321C126.509 158.359 126.516 158.399 126.524 158.439C126.559 158.647 126.599 158.872 126.645 159.113C126.691 159.355 126.744 159.589 126.798 159.818L126.963 160.539C126.973 160.587 126.969 160.636 126.951 160.681C126.933 160.726 126.902 160.765 126.862 160.793C126.753 160.87 126.624 160.914 126.49 160.92C126.334 160.93 126.18 160.89 126.048 160.807C125.887 160.698 125.771 160.535 125.72 160.348C125.554 159.815 125.407 159.289 125.278 158.769C125.15 158.25 125.048 157.74 124.972 157.241C124.962 157.172 124.97 157.102 124.998 157.039C125.025 156.975 125.07 156.92 125.127 156.88ZM126.492 157.223C126.504 157.341 126.526 157.459 126.557 157.574C126.571 157.657 126.612 157.732 126.673 157.79L127.952 157.829L128.641 161.12C128.652 161.162 128.675 161.198 128.708 161.226C128.741 161.253 128.782 161.27 128.825 161.273C128.937 161.292 129.052 161.289 129.163 161.265C129.272 161.247 129.379 161.214 129.481 161.169C129.57 161.128 129.613 161.088 129.613 161.051L129.224 157.805L130.187 157.826C130.184 157.794 130.184 157.762 130.187 157.73V157.383C130.183 157.256 130.164 157.131 130.128 157.009C130.12 156.962 130.099 156.917 130.069 156.88C130.038 156.844 129.999 156.815 129.954 156.798L126.465 156.753C126.471 156.94 126.48 157.096 126.492 157.223ZM131.998 156.819C132.106 156.823 132.213 156.846 132.313 156.887C132.396 156.916 132.466 156.975 132.509 157.052C132.713 157.459 132.924 157.903 133.143 158.383C133.361 158.863 133.574 159.347 133.782 159.836C133.986 160.304 134.182 160.746 134.37 161.163C134.388 161.203 134.37 161.258 134.303 161.327C134.225 161.406 134.137 161.474 134.039 161.527C133.928 161.591 133.807 161.636 133.681 161.661C133.564 161.688 133.441 161.677 133.329 161.631C133.27 161.602 133.217 161.56 133.175 161.509C133.132 161.459 133.101 161.399 133.083 161.336L132.798 160.463C132.771 160.373 132.737 160.285 132.699 160.199C132.67 160.134 132.634 160.073 132.59 160.017C132.576 159.994 132.557 159.975 132.536 159.96C132.514 159.945 132.489 159.935 132.463 159.93C132.439 159.932 132.417 159.941 132.398 159.956C132.38 159.971 132.366 159.991 132.359 160.014C132.335 160.074 132.32 160.137 132.315 160.202C132.309 160.294 132.309 160.387 132.315 160.48L132.339 161.244C132.339 161.422 132.275 161.528 132.146 161.561C131.994 161.595 131.834 161.585 131.687 161.531C131.529 161.484 131.378 161.416 131.237 161.33C131.109 161.249 131.044 161.177 131.043 161.126C131.083 160.578 131.112 160.011 131.133 159.427C131.148 159.019 131.165 158.621 131.185 158.233C131.206 157.845 131.237 157.474 131.279 157.12C131.291 157.01 131.37 156.928 131.514 156.874C131.67 156.822 131.835 156.804 131.998 156.819ZM132.198 158.245H132.189C132.167 158.248 132.146 158.256 132.128 158.271C132.111 158.285 132.099 158.305 132.093 158.326C132.074 158.382 132.064 158.441 132.065 158.501C132.064 158.573 132.068 158.645 132.076 158.716C132.076 158.769 132.087 158.826 132.1 158.892C132.105 158.917 132.111 158.943 132.116 158.971H132.529C132.514 158.874 132.497 158.789 132.478 158.716C132.461 158.643 132.44 158.57 132.414 158.499C132.392 158.433 132.36 158.371 132.321 158.314C132.307 158.293 132.289 158.276 132.268 158.263C132.247 158.249 132.223 158.241 132.198 158.238V158.245ZM134.2 158.668C134.276 159.107 134.365 159.565 134.467 160.043C134.569 160.52 134.652 160.861 134.704 161.056C134.733 161.148 134.772 161.236 134.82 161.319C134.872 161.402 134.934 161.478 135.005 161.544C135.095 161.627 135.199 161.693 135.311 161.74C135.458 161.798 135.613 161.831 135.771 161.836C136.332 161.889 136.899 161.866 137.454 161.766C137.512 161.757 137.565 161.729 137.605 161.686C137.644 161.643 137.668 161.587 137.671 161.529C137.684 161.382 137.666 161.235 137.616 161.096C137.57 160.952 137.506 160.814 137.426 160.685C137.351 160.569 137.292 160.508 137.244 160.508C137.122 160.515 136.99 160.526 136.851 160.54C136.666 160.562 136.479 160.574 136.292 160.575C136.16 160.588 136.027 160.551 135.92 160.471C135.854 160.325 135.809 160.171 135.787 160.013C135.74 159.769 135.693 159.483 135.645 159.155C135.597 158.827 135.553 158.504 135.512 158.188C135.469 157.85 135.431 157.576 135.399 157.365C135.38 157.329 135.33 157.281 135.227 157.228C135.108 157.166 134.984 157.115 134.857 157.075C134.718 157.029 134.575 156.995 134.43 156.974C134.316 156.952 134.199 156.958 134.087 156.989C134.046 157.001 134.011 157.029 133.99 157.066C133.969 157.103 133.962 157.146 133.972 157.188C133.986 157.29 134.011 157.457 134.047 157.689C134.084 157.922 134.119 158.146 134.151 158.362C134.171 158.471 134.185 158.566 134.197 158.643L134.2 158.668Z" fill="#EE7024"/>
</svg>
