<svg width="323" height="200" viewBox="0 0 323 200" fill="none" xmlns="http://www.w3.org/2000/svg">
<path d="M40.4499 106.21C38.2186 105.832 36.2849 104.764 34.5236 103.436C31.863 101.429 30.1586 98.7365 29.6528 95.426C29.23 92.6617 29.6106 89.9365 30.6107 87.3154C32.1443 83.304 34.4537 79.7496 37.2786 76.5609C39.7505 73.7723 42.2908 71.0243 44.9986 68.4666C50.0093 63.7398 55.8412 60.291 62.2878 57.8504C65.9799 56.4526 69.8187 55.4783 73.7305 54.9463C77.0612 54.4878 80.4211 54.2569 83.7973 54.6731C87.4142 55.1203 91.0425 55.4747 94.6659 55.8715C95.2107 55.9317 95.7539 55.9967 96.2922 56.0601C96.0011 58.865 95.6026 61.665 95.4384 64.478C95.0448 71.226 95.6742 77.9024 97.0647 84.5138C99.992 98.4683 105.613 111.262 113.731 122.956C115.507 125.512 117.538 127.891 119.452 130.351C114.507 130.813 109.864 129.756 105.416 127.642C100.669 125.387 96.5735 122.163 92.4232 119.013C87.2857 115.111 82.1434 111.208 75.8886 109.208C74.3599 108.72 72.7466 108.504 71.1723 108.163C72.0473 104.639 72.1758 101.099 71.3138 97.5593C70.4698 94.0975 68.7654 91.278 65.3648 89.7252C62.8831 88.5869 60.307 87.9008 57.5748 87.8325C56.5437 87.8065 55.5094 87.8325 54.4426 87.8325C54.8003 86.7122 56.5567 87.4341 56.4527 85.6178C55.1321 86.3122 54.0132 86.9187 52.8748 87.4926C52.3983 87.7382 51.925 88.0552 51.4111 88.1544C45.7792 89.2439 42.4128 92.7073 40.8564 98.104C40.0856 100.774 40.149 103.485 40.4499 106.21Z" fill="#EBEAEA"/>
<path d="M188.409 164.938C188.927 164.998 189.446 165.076 189.967 165.115C190.344 165.143 190.725 165.115 191.193 165.115C190.897 167.829 190.643 170.468 190.313 173.099C189.781 177.312 189.245 181.527 188.62 185.727C188.173 188.736 187.576 191.725 187.049 194.722C186.922 195.44 186.579 195.821 185.772 195.86C182.629 196.008 179.49 196.289 176.34 196.384C171.18 196.546 166.015 196.689 160.853 196.642C157.977 196.616 155.105 196.21 152.233 195.928C150.976 195.806 150.212 195.115 149.956 193.814C148.955 188.701 147.842 183.608 146.889 178.486C146.229 174.951 145.751 171.382 145.198 167.827C145.146 167.486 145.143 167.138 145.104 166.642C146.157 166.642 147.127 166.66 148.094 166.626C148.28 166.626 148.459 166.414 148.641 166.301L149.408 166.109C149.695 166.249 149.984 166.512 150.269 166.507C152.871 166.466 155.455 166.403 158.046 166.289C158.908 166.252 159.761 166.045 160.62 165.917L161.334 165.907C161.635 165.975 161.937 166.114 162.237 166.104C165.886 165.988 169.535 165.855 173.185 165.705C173.406 165.696 173.617 165.462 173.835 165.331H174.592C174.819 165.442 175.05 165.657 175.275 165.645C178.259 165.559 181.243 165.465 184.219 165.32C185.324 165.266 186.42 165.073 187.521 164.943L188.409 164.938ZM177.155 180.995C177.19 178.849 176.381 176.775 174.902 175.22C173.423 173.665 171.391 172.754 169.246 172.683C165.094 172.52 160.867 175.748 160.766 180.754C160.674 185.292 164.344 189.027 168.898 189.102C173.375 189.175 177.121 185.494 177.155 180.995Z" fill="#231F20"/>
<path d="M188.409 164.939H187.531C189.664 158.239 191.509 151.467 192.702 144.499C192.583 144.478 192.461 144.466 192.34 144.464C188.987 144.656 185.635 144.849 182.283 145.044C180.799 145.13 179.313 145.194 177.83 145.303C177.591 145.321 177.179 145.506 177.163 145.656C176.989 146.942 176.895 148.236 176.763 149.527C176.628 150.846 176.501 152.165 176.329 153.478C176.166 154.654 175.94 155.82 175.774 156.994C175.595 158.265 175.473 159.545 175.286 160.815C175.073 162.322 174.823 163.823 174.589 165.327H173.832C173.972 164.217 174.101 163.104 174.254 161.995C174.55 159.841 174.865 157.69 175.164 155.535C175.415 153.724 175.672 151.913 175.891 150.096C176.075 148.573 176.217 147.043 176.379 145.399L158.363 146.425C158.465 146.901 158.566 147.293 158.631 147.691C158.879 149.189 159.119 150.688 159.349 152.187C159.568 153.582 159.794 154.976 159.999 156.373C160.202 157.821 160.363 159.275 160.567 160.724C160.811 162.452 161.082 164.176 161.341 165.903L160.627 165.913L157.605 146.584H141.804C143.918 153.348 146.333 159.859 149.413 166.106L148.646 166.298C147.397 163.483 146.044 160.706 144.922 157.843C143.468 154.163 142.185 150.417 140.814 146.657C138.854 146.513 136.758 146.392 134.671 146.184C134.17 146.134 133.565 145.914 133.232 145.561C130.02 142.171 126.839 138.751 123.687 135.303C122.223 133.698 120.857 132.004 119.447 130.35C117.533 127.89 115.502 125.511 113.726 122.955C105.607 111.26 99.9869 98.467 97.0596 84.5125C95.6724 77.9011 95.043 71.2247 95.4333 64.4767C95.5959 61.6637 95.996 58.8637 96.2871 56.0588C97.2271 52.5288 97.9638 48.9288 99.1445 45.4897C103.415 33.0344 111.545 23.771 122.902 17.2361C129.665 13.3336 136.888 10.6849 144.504 9.03607C145.002 8.91126 145.477 8.70702 145.91 8.43119C148.626 6.80517 151.329 5.14664 154.084 3.47021C154.284 3.86046 154.396 4.07835 154.52 4.31574L147.994 8.10274L148.086 8.30274C149.975 8.07184 151.861 7.81493 153.752 7.61493C159.148 7.05624 164.583 6.98821 169.991 7.41168C175.761 7.85396 181.468 8.69623 187.027 10.3109C204.968 15.5222 216.994 27.1076 223.579 44.4572C226.05 50.9834 227.502 57.8507 227.884 64.8182C229.387 91.1011 221.573 114.412 205.205 134.9C202.729 138 199.874 140.805 197.093 143.649C196.63 144.122 195.654 144.148 194.898 144.267C194.228 144.373 193.524 144.345 193.359 145.192C193.15 146.273 193.054 147.378 192.802 148.444C192.039 151.68 191.261 154.914 190.414 158.129C189.804 160.418 189.079 162.672 188.409 164.939ZM147.394 145.773C139.056 131.191 133.57 115.766 131.228 99.2068C131.984 99.2491 132.173 99.48 132.279 100.291C132.463 101.698 132.528 103.135 132.868 104.504C134.169 109.745 135.375 115.021 136.976 120.174C138.334 124.452 139.942 128.647 141.793 132.737C143.697 137.008 145.964 141.119 148.096 145.288C148.215 145.521 148.555 145.791 148.791 145.789C151.632 145.771 154.473 145.706 157.28 145.654C157.35 145.4 157.408 145.304 157.395 145.221C157.282 144.524 157.129 143.831 157.047 143.13C157.025 142.934 157.199 142.714 157.282 142.506C157.464 142.651 157.734 142.76 157.808 142.947C157.947 143.299 158.023 143.672 158.035 144.051C158.096 145.656 158.287 145.807 159.884 145.464C160.107 145.43 160.334 145.416 160.56 145.423C162.627 145.356 164.697 145.337 166.76 145.215C169.524 145.052 172.271 144.727 175.031 144.644C176.08 144.61 176.682 144.54 176.612 143.303C176.589 142.895 176.652 142.106 177.576 142.652C177.496 142.942 177.318 143.259 177.358 143.545C177.402 143.859 177.623 144.386 177.81 144.404C178.716 144.484 179.627 144.494 180.534 144.436C182.657 144.321 184.777 144.051 186.895 144.073C187.911 144.083 188.393 143.763 188.807 142.935C190.975 138.618 193.291 134.371 195.335 129.997C198.853 122.465 201.486 114.605 203.467 106.534C204.238 103.389 204.872 100.212 205.601 97.0556C205.666 96.771 205.962 96.5401 206.15 96.2832L206.492 96.4979C203.486 113.221 197.892 129.018 189.159 143.924C190.403 143.81 191.367 143.761 192.314 143.599C192.551 143.56 192.849 143.213 192.92 142.948C193.137 142.16 193.257 141.345 193.418 140.529C194.068 140.556 194.286 140.826 194.125 141.41C193.975 141.923 193.856 142.444 193.768 142.971C193.773 143.171 193.841 143.364 193.963 143.522C194.914 143.34 196.163 143.43 196.754 142.852C199.104 140.564 201.33 138.152 203.421 135.625C220.59 114.797 228.728 90.9857 226.918 63.9434C226.448 56.9051 224.865 49.9857 222.23 43.4426C216.576 29.3548 206.985 19.0653 192.836 13.2475C184.66 9.8881 176.044 8.57591 167.285 8.12062C161.209 7.80455 155.117 8.12335 149.108 9.07184C147.228 9.36778 145.439 9.73038 143.796 10.9613C134.315 18.0686 127.014 26.8117 122.949 38.0588C121.091 43.1987 120.151 48.5141 119.971 53.9678C119.945 54.7418 119.938 54.7418 119.054 54.5466C119.662 35.8865 128.381 21.6149 143.147 10.319C142.607 10.4133 142.354 10.4426 142.108 10.5027C136.579 11.867 131.241 13.7922 126.19 16.4458C118.376 20.5499 111.483 25.7775 106.416 33.1255C99.3039 43.4377 96.4123 55.0426 96.17 67.4019C96.0773 72.28 96.5652 77.1223 97.4288 81.9304C99.9007 95.7011 105.12 108.402 112.814 120.015C116.157 125.056 120.169 129.683 124.066 134.34C127.024 137.875 130.275 141.169 133.407 144.553C133.895 145.077 134.403 145.436 135.248 145.387C136.387 145.322 137.545 145.529 138.695 145.634C139.316 145.691 139.934 145.782 140.718 145.878C140.513 145.215 140.326 144.766 140.256 144.301C140.228 144.113 140.454 143.886 140.565 143.678C140.745 143.802 140.997 143.89 141.09 144.06C141.206 144.275 141.181 144.563 141.236 144.815C141.37 145.421 141.597 145.821 142.375 145.791C144.008 145.726 145.636 145.773 147.394 145.773Z" fill="#231F20"/>
<path d="M296.044 90.7853L291.49 87.4455L291.79 86.8032C291.956 86.8483 292.117 86.9132 292.268 86.9967C293.913 88.2569 295.546 89.5349 297.199 90.7886C297.599 91.0926 298.025 91.439 298.5 91.5707C305.729 93.7024 310.108 98.3788 311.367 105.867C312.017 109.709 311.346 113.418 310.229 117.086C308.44 122.927 305.896 128.38 302.188 133.272C301.616 134.028 301.035 134.478 300.089 134.289C299.253 134.127 298.976 134.532 298.815 135.288C298.469 136.898 298.035 138.489 297.613 140.166H300.378C299.851 142.364 299.423 144.442 298.84 146.476C298.475 147.743 297.893 148.951 297.376 150.169C297.111 150.792 296.602 151.088 295.898 151.068C292.91 150.99 289.919 150.953 286.933 150.832C286.701 150.807 286.476 150.734 286.272 150.62C286.068 150.506 285.888 150.352 285.745 150.167C284.564 148.494 282.817 142.452 282.817 140.2H284.993C284.44 138.236 283.936 136.384 283.367 134.55C283.321 134.403 282.879 134.257 282.651 134.304C281.072 134.647 280.227 133.763 279.431 132.589C275.401 126.641 272.737 120.148 271.906 113.008C271.36 108.304 271.867 103.68 274.156 99.3951C276.595 94.8162 280.464 92.1658 285.499 91.2081C288.799 90.5805 292.134 90.4374 295.473 90.9658C295.628 90.978 295.784 90.978 295.94 90.9658L296.044 90.7853ZM284.053 92.4975C279.599 93.6926 276.444 96.4487 274.526 100.593C272.287 105.434 272.103 110.512 273.167 115.645C274.468 121.873 276.852 127.647 280.685 132.771C280.893 133.05 281.258 133.367 281.568 133.387C282.707 133.46 283.845 133.416 285.063 133.416C284.881 132.972 284.738 132.621 284.592 132.278C281.326 124.429 279.251 116.301 279.017 107.772C278.854 102.111 280.096 96.878 284.247 92.6764L284.572 92.5431L284.422 92.3577L284.053 92.4975ZM293.513 133.351C294.288 133.351 295.014 133.257 295.706 133.372C296.888 133.569 297.402 133.015 297.698 131.977C298.596 128.834 299.584 125.719 300.433 122.563C301.861 117.26 302.943 111.898 302.73 106.359C302.538 101.4 301.131 96.8569 297.943 92.9739C297.571 92.5219 296.932 92.0715 296.381 92.0211C293.962 91.8032 291.531 91.7414 289.105 91.6065C286.828 91.478 285.252 92.6829 283.9 94.3203C280.657 98.2455 279.695 102.891 279.851 107.8C280.114 116.085 282.1 124.006 285.27 131.645C286.006 133.423 286.021 133.416 287.981 133.416H292.627C293.575 126.832 294.008 120.374 293.461 113.819L294.288 113.732C294.893 120.307 294.395 126.764 293.513 133.351ZM298.864 92.626C299.373 93.3853 299.768 93.9382 300.126 94.5154C303.541 100.005 304.029 106.019 303.348 112.259C302.777 117.439 301.396 122.441 299.999 127.436C299.445 129.416 298.786 131.367 298.148 133.416C298.779 133.416 299.365 133.374 299.937 133.428C300.663 133.496 301.087 133.224 301.539 132.632C305.213 127.828 307.652 122.429 309.43 116.688C310.804 112.252 311.273 107.81 309.861 103.293C308.163 97.8439 304.444 94.4715 298.864 92.626ZM291.074 134.309C291.175 136.317 291.271 138.239 291.363 140.102H296.699L298.15 134.309H291.074ZM285.87 140.101H290.458C290.362 138.137 290.269 136.241 290.175 134.32H284.255L285.87 140.101Z" fill="#231F20"/>
<path d="M40.4505 106.21C40.1496 103.485 40.0862 100.774 40.857 98.0995C42.4134 92.7011 45.7798 89.2393 51.4117 88.1499C51.924 88.0507 52.3973 87.7336 52.8754 87.4881C54.0138 86.906 55.1327 86.3076 56.4533 85.6133C56.5606 87.4295 54.8009 86.7076 54.4431 87.8279C55.51 87.8279 56.5443 87.8068 57.5754 87.8279C60.3076 87.8962 62.8837 88.5873 65.3654 89.7206C68.766 91.2734 70.4703 94.093 71.3144 97.5547C72.1763 101.095 72.0479 104.634 71.1729 108.158C70.1304 112.28 68.0325 115.81 65.0304 118.784C64.5994 119.212 63.7732 119.241 62.9373 119.517C62.6966 120.805 62.4071 122.342 62.1079 123.943H63.6285C63.3894 124.981 63.2122 125.947 62.9422 126.885C62.4543 128.591 61.9144 130.283 61.3793 131.976C61.1565 132.677 60.6816 132.979 59.9156 132.951C57.5835 132.859 55.2498 132.789 52.9144 132.779C52.0102 132.779 51.6231 132.264 51.4133 131.538C50.8734 129.677 50.3709 127.799 49.857 125.935C49.6862 125.316 49.522 124.693 49.3317 123.984H51.0507C50.6343 122.478 50.2652 121.057 49.8244 119.657C49.7659 119.467 49.3252 119.246 49.104 119.283C47.9054 119.483 47.1947 118.851 46.4792 118.021C43.5395 114.633 41.4702 110.578 40.4505 106.21ZM59.8799 118.392H63.3585C63.5524 118.413 63.7481 118.408 63.9407 118.377C64.1562 118.33 64.3556 118.227 64.5197 118.08C70.0068 112.304 72.1471 105.521 70.4492 97.6848C69.8133 94.758 68.3805 92.249 65.5443 90.784C62.4673 89.1954 59.1919 88.7612 55.7702 88.571C52.7794 88.4084 51.2458 89.8442 50.1058 92.2669C46.2921 100.363 47.4289 110.569 53.1405 117.901C53.3711 118.147 53.6883 118.294 54.0252 118.311C55.2596 118.356 56.4988 118.286 57.7332 118.347C58.3837 118.379 58.7089 118.158 58.9887 117.579C60.6573 114.117 61.4731 110.306 61.3679 106.464C61.3435 105.608 61.3679 105.608 62.2722 105.789C62.1664 107.452 62.2461 109.171 61.9095 110.805C61.3842 113.353 60.5759 115.844 59.8799 118.392ZM50.8084 88.9612C49.452 89.6116 47.9705 90.0734 46.7654 90.9303C41.9971 94.3255 40.6521 99.2555 41.2034 104.751C41.7173 109.859 44.1958 114.145 47.585 117.922C47.733 118.085 47.9249 118.329 48.1006 118.332C49.465 118.366 50.8295 118.351 52.22 118.351C46.0254 108.813 45.0887 99.1986 50.8084 88.9612ZM56.0125 123.81V119.306H50.6457C51.1027 120.856 51.5483 122.36 51.9923 123.859C53.2446 123.891 54.4963 123.924 55.7474 123.956C55.7832 123.963 55.8109 123.932 56.0125 123.81ZM61.1972 123.943L62.0412 119.334H57.0517C56.9818 120.901 56.9135 122.404 56.8452 123.943H61.1972ZM54.2447 87.6669C54.2236 87.6848 54.1813 87.7076 54.1846 87.7222C54.198 87.7636 54.216 87.8034 54.2382 87.8409C54.2594 87.823 54.3017 87.8003 54.2984 87.7856C54.2856 87.744 54.2676 87.7041 54.2447 87.6669Z" fill="#231F20"/>
<path d="M236.215 160.175C235.314 159.512 234.325 158.779 233.328 158.062C230.285 155.858 226.823 155.654 223.268 156.024C221.121 156.25 218.995 156.665 216.834 157C217.348 155.558 218.421 154.473 219.636 153.506C223.237 150.642 227.28 150.402 231.526 151.584C232.649 151.891 233.755 152.258 234.839 152.683C235.392 152.902 235.714 152.803 236.213 152.486C237.979 151.362 239.74 150.174 241.648 149.346C244.507 148.104 247.483 148.291 250.367 149.439C254.008 150.888 256.73 153.445 258.867 156.793C256.784 156.255 254.639 155.875 252.626 155.146C248.828 153.777 245.33 154.496 241.994 156.393C240.03 157.504 238.204 158.862 236.215 160.175Z" fill="#231F20"/>
<path d="M45.7188 36.7156C46.0196 36.3904 46.2766 35.9953 46.6295 35.74C52.1052 31.6913 57.5631 31.6636 62.5933 35.9644C62.8144 36.1547 63.0258 36.3547 63.2974 36.6002C67.4982 34.3238 71.8485 33.1856 76.4054 35.5807C79.715 37.3173 81.8698 40.1335 83.353 43.5482C83.1611 43.378 82.9697 43.2067 82.7789 43.0343C82.5642 42.836 82.3642 42.6213 82.1284 42.4409C79.3198 40.2213 76.0997 39.5547 72.6096 39.9595C69.0529 40.3709 65.7792 41.6327 62.699 43.4051C58.9975 37.101 52.2906 34.514 45.8375 36.8717L45.7188 36.7156Z" fill="#231F20"/>
<path d="M262.84 171.024C260.433 170.68 258.536 168.956 256.085 169.159C253.707 169.356 251.72 170.46 249.594 171.844C249.269 171.439 248.903 171.02 248.562 170.589C247.413 169.142 245.829 168.675 244.079 168.638C242.364 168.602 240.646 168.629 238.818 168.629C239.129 168.255 239.42 167.772 239.83 167.433C241.729 165.855 243.896 165.304 246.283 166.041C247.259 166.343 248.202 166.807 249.183 167.127C249.508 167.236 250.006 167.278 250.272 167.109C255.852 163.568 260.442 166.61 262.84 171.024Z" fill="#231F20"/>
<path d="M243.027 46.667C243.628 46.9922 244.107 47.1353 244.447 47.4377C246.533 49.2914 248.594 51.1776 250.651 53.0621C251.464 53.802 251.518 54.7629 250.849 55.4686C250.22 56.132 249.256 56.1532 248.498 55.4686C246.396 53.5824 244.303 51.6854 242.218 49.7776C241.646 49.254 241.314 48.5776 241.731 47.8686C242.022 47.4068 242.56 47.0914 243.027 46.667Z" fill="#EE7024"/>
<path d="M85.5317 141.896C85.343 142.121 85.0731 142.717 84.6193 142.938C81.9652 144.228 79.2818 145.465 76.587 146.667C76.395 146.758 76.1864 146.81 75.9739 146.818C75.7615 146.826 75.5495 146.791 75.3509 146.715C75.1523 146.639 74.9713 146.524 74.8186 146.376C74.666 146.228 74.5451 146.05 74.4631 145.854C74.2997 145.46 74.2974 145.018 74.4568 144.623C74.6162 144.227 74.9245 143.91 75.3153 143.74C77.9287 142.512 80.5471 141.301 83.1866 140.122C84.3689 139.584 85.5626 140.368 85.5317 141.896Z" fill="#EE7024"/>
<path d="M93.4402 121.093C93.9378 121.506 94.4664 121.785 94.7575 122.223C95.182 122.862 94.9527 123.538 94.4518 124.09C92.858 125.839 91.2588 127.585 89.6542 129.327C89.3289 129.686 89.0036 130.057 88.6654 130.398C87.9238 131.13 87.0049 131.177 86.3219 130.537C85.6388 129.896 85.603 128.981 86.3056 128.194C87.6896 126.647 89.1028 125.127 90.5031 123.595C91.0072 123.044 91.4789 122.457 92.0221 121.955C92.3831 121.626 92.8612 121.433 93.4402 121.093Z" fill="#EE7024"/>
<path d="M276.822 86.7971C275.611 86.7971 274.789 85.7759 275.158 84.7028C276.134 81.8865 277.165 79.093 278.221 76.3076C278.536 75.4751 279.444 75.1483 280.242 75.4426C281.093 75.7564 281.501 76.6328 281.151 77.6182C280.201 80.3076 279.225 82.9862 278.224 85.654C278.062 86.0022 277.815 86.3046 277.507 86.5337C277.284 86.706 276.97 86.7434 276.822 86.7971Z" fill="#EE7024"/>
<path d="M251.052 112.792C251.65 113.137 252.08 113.299 252.4 113.584C254.485 115.441 256.555 117.313 258.611 119.202C259.424 119.953 259.499 120.896 258.847 121.613C258.221 122.299 257.22 122.299 256.407 121.572C254.331 119.708 252.262 117.834 250.201 115.95C249.624 115.426 249.281 114.75 249.699 114.046C249.998 113.553 250.569 113.226 251.052 112.792Z" fill="#EE7024"/>
<path d="M102.894 139.959C104.428 139.969 105.249 141.241 104.618 142.322C103.113 144.899 101.528 147.433 99.9455 149.964C99.4673 150.725 98.5468 150.865 97.7922 150.418C97.6146 150.316 97.4589 150.18 97.3339 150.018C97.209 149.856 97.1173 149.67 97.0641 149.473C97.011 149.275 96.9973 149.069 97.024 148.866C97.0507 148.663 97.1173 148.467 97.2198 148.29C98.7452 145.725 100.309 143.183 101.91 140.665C102.154 140.275 102.705 140.088 102.894 139.959Z" fill="#EE7024"/>
<path d="M248.249 31.3822C248.488 31.6326 249.167 32.0196 249.316 32.5546C250.108 35.3952 250.78 38.27 251.465 41.1399C251.564 41.5403 251.501 41.9637 251.29 42.318C251.079 42.6723 250.736 42.9286 250.336 43.031C249.443 43.2749 248.609 42.8684 248.366 41.9318C247.626 39.0749 246.903 36.2115 246.252 33.3367C246.002 32.2537 246.808 31.3497 248.249 31.3822Z" fill="#EE7024"/>
<path d="M257.812 39.0099C257.387 38.6522 256.826 38.3595 256.53 37.8847C256.13 37.2554 256.315 36.5627 256.87 36.031C258.509 34.457 260.153 32.8852 261.801 31.3156C262.271 30.8668 262.731 30.4066 263.224 29.9855C263.951 29.366 264.889 29.4213 265.501 30.0847C265.787 30.383 265.944 30.7821 265.938 31.1954C265.932 31.6088 265.763 32.0031 265.468 32.2928C263.348 34.3524 261.204 36.3866 259.036 38.3952C258.766 38.6489 258.356 38.7448 257.812 39.0099Z" fill="#EE7024"/>
<path d="M110.067 152.52C109.869 152.74 109.563 153.333 109.08 153.571C106.522 154.819 103.92 155.995 101.318 157.166C100.352 157.6 99.4606 157.286 99.0768 156.463C98.6653 155.582 99.0199 154.675 100.001 154.224C102.526 153.044 105.055 151.868 107.594 150.72C108.892 150.132 110.114 150.854 110.067 152.52Z" fill="#EE7024"/>
<path d="M257.769 111.044C256.336 111.088 255.468 110.068 255.834 109.005C256.809 106.155 257.857 103.329 258.924 100.512C259.223 99.7269 260.126 99.4212 260.885 99.6895C261.698 99.9741 262.186 100.813 261.897 101.641C260.911 104.459 259.912 107.273 258.824 110.052C258.646 110.533 258.003 110.839 257.769 111.044Z" fill="#EE7024"/>
<path d="M271.659 73.7349C271.323 74.3171 271.171 74.8 270.846 75.1138C268.851 77.065 266.823 78.9837 264.793 80.9008C263.995 81.6553 263.025 81.6943 262.354 81.0406C261.643 80.3398 261.687 79.3805 262.533 78.5642C264.565 76.6049 266.588 74.6325 268.698 72.7593C269.088 72.4114 269.929 72.291 270.448 72.4471C270.921 72.587 271.232 73.2504 271.659 73.7349Z" fill="#EE7024"/>
<path d="M76.1675 183.893C74.4973 183.881 73.824 182.529 74.5721 181.278C75.769 179.275 77.0115 177.293 78.2248 175.303C78.4964 174.86 78.7484 174.405 79.0379 173.981C79.573 173.215 80.5227 173.005 81.2594 173.452C81.4412 173.562 81.5993 173.707 81.7245 173.878C81.8498 174.049 81.9396 174.244 81.9888 174.45C82.038 174.657 82.0456 174.871 82.0111 175.08C81.9766 175.29 81.9008 175.49 81.788 175.67C80.2853 178.171 78.7663 180.664 77.1937 183.12C76.9384 183.53 76.3724 183.74 76.1675 183.893Z" fill="#EE7024"/>
<path d="M237.16 111.396C237.123 111.531 237.067 111.819 236.968 112.091C236.05 114.618 235.128 117.142 234.203 119.665C233.769 120.837 232.927 121.309 231.984 120.936C231.079 120.582 230.775 119.714 231.185 118.572C232.114 115.98 233.053 113.391 234 110.805C234.34 109.881 235.031 109.486 235.883 109.647C236.671 109.798 237.173 110.422 237.16 111.396Z" fill="#EE7024"/>
<path d="M262.264 68.4001C262.286 69.6277 261.786 70.2586 260.963 70.3936C260.14 70.5285 259.366 70.1074 259.153 69.27C258.415 66.3811 257.707 63.4841 257.029 60.5789C256.943 60.1914 257.013 59.7855 257.224 59.4492C257.435 59.1129 257.77 58.8732 258.156 58.7822C258.982 58.5562 259.802 58.7822 260.023 59.5806C260.859 62.6017 261.58 65.6667 262.264 68.4001Z" fill="#EE7024"/>
<path d="M81.5621 165.434C81.3344 165.262 80.7684 165.012 80.4789 164.577C78.9128 162.231 77.4052 159.847 75.9009 157.462C75.3236 156.543 75.5301 155.573 76.3384 155.073C77.1206 154.586 78.0216 154.807 78.5989 155.693C80.1537 158.085 81.7036 160.482 83.2079 162.904C83.9332 164.065 83.1949 165.428 81.5621 165.434Z" fill="#EE7024"/>
<path d="M66.047 172.78C64.5492 172.753 63.736 171.548 64.341 170.504C65.8535 167.902 67.4489 165.337 69.0573 162.784C69.5029 162.076 70.4461 161.928 71.1389 162.319C71.8675 162.727 72.2334 163.675 71.7895 164.423C70.2347 167.044 68.6382 169.639 67 172.21C66.7772 172.554 66.2161 172.683 66.047 172.78Z" fill="#EE7024"/>
<path d="M257.126 91.0211C256.378 90.8585 255.397 90.6406 254.415 90.4292C252.512 90.0194 250.606 89.6162 248.706 89.2032C247.628 88.9658 247.047 88.1837 247.228 87.2666C247.413 86.317 248.303 85.8194 249.406 86.0585C252.131 86.6471 254.857 87.2455 257.586 87.8292C258.371 87.9918 258.874 88.4227 258.965 89.2438C259.069 90.2438 258.379 91.0129 257.126 91.0211Z" fill="#EE7024"/>
<path d="M91.0602 159.319C90.9935 157.958 90.9105 156.598 90.8666 155.238C90.8325 154.184 91.4293 153.481 92.3433 153.426C93.3077 153.368 94.0005 153.914 94.0623 154.992C94.2325 157.906 94.3615 160.821 94.4494 163.737C94.4803 164.712 93.7988 165.348 92.8832 165.363C92.6715 165.373 92.4599 165.341 92.2614 165.266C92.0629 165.192 91.8818 165.077 91.7293 164.93C91.5768 164.783 91.4562 164.606 91.375 164.41C91.2937 164.214 91.2536 164.004 91.2569 163.792C91.2114 162.303 91.2439 160.811 91.2439 159.322L91.0602 159.319Z" fill="#EE7024"/>
<path d="M45.8442 36.8665L45.5986 36.8991L45.719 36.7153L45.8442 36.8665Z" fill="#2B2829"/>
<path d="M177.154 180.995C177.12 185.494 173.375 189.175 168.904 189.102C164.35 189.027 160.673 185.292 160.772 180.754C160.873 175.748 165.1 172.527 169.252 172.683C171.396 172.756 173.426 173.668 174.904 175.223C176.382 176.777 177.19 178.85 177.154 180.995ZM165.824 179.705L164.523 180.561L168.214 184.244L173.724 178.754C173.44 178.484 173.09 178.149 172.625 177.704L168.159 182.177L165.824 179.705Z" fill="#FDFDFD"/>
<path d="M293.514 133.351C294.396 126.764 294.893 120.307 294.287 113.732L293.461 113.82C294.007 120.374 293.574 126.828 292.626 133.416H287.98C286.028 133.416 286.006 133.416 285.269 131.646C282.099 124.003 280.114 116.085 279.85 107.8C279.687 102.891 280.663 98.2456 283.9 94.3204C285.253 92.683 286.827 91.4781 289.104 91.6066C291.53 91.7415 293.961 91.8033 296.38 92.0212C296.931 92.0716 297.57 92.522 297.943 92.974C301.13 96.857 302.537 101.4 302.729 106.359C302.942 111.898 301.86 117.254 300.433 122.563C299.584 125.719 298.595 128.834 297.697 131.977C297.401 133.015 296.884 133.569 295.705 133.372C295.012 133.257 294.288 133.351 293.514 133.351Z" fill="#FEFEFE"/>
<path d="M298.864 92.626C304.444 94.4634 308.163 97.8439 309.864 103.293C311.276 107.81 310.807 112.252 309.433 116.688C307.655 122.429 305.216 127.828 301.542 132.632C301.09 133.224 300.666 133.496 299.94 133.428C299.365 133.374 298.779 133.416 298.151 133.416C298.789 131.367 299.452 129.416 300.002 127.436C301.401 122.441 302.78 117.439 303.351 112.258C304.04 106.019 303.541 100.005 300.129 94.5154C299.768 93.9382 299.373 93.3853 298.864 92.626Z" fill="#FDFDFD"/>
<path d="M284.247 92.6686C280.097 96.867 278.861 102.1 279.017 107.765C279.251 116.293 281.326 124.421 284.592 132.27C284.738 132.621 284.881 132.973 285.063 133.408C283.837 133.408 282.699 133.452 281.568 133.379C281.258 133.36 280.893 133.043 280.685 132.763C276.852 127.639 274.46 121.869 273.167 115.638C272.103 110.504 272.287 105.426 274.526 100.586C276.444 96.441 279.599 93.6849 284.053 92.4897L284.247 92.6686Z" fill="#FEFDFE"/>
<path d="M284.053 92.4976L284.419 92.3496L284.568 92.535L284.243 92.6683L284.053 92.4976Z" fill="#FEFDFE"/>
<path d="M59.8793 118.392C60.5753 115.844 61.3836 113.351 61.9089 110.805C62.2455 109.171 62.1658 107.452 62.2716 105.789C61.369 105.608 61.3429 105.608 61.3673 106.463C61.4725 110.305 60.6567 114.117 58.9881 117.579C58.71 118.158 58.3847 118.374 57.7342 118.346C56.4998 118.286 55.2606 118.356 54.0262 118.311C53.6893 118.294 53.3721 118.147 53.1415 117.901C47.4283 110.569 46.2915 100.363 50.1052 92.2667C51.2436 89.844 52.7788 88.4033 55.7696 88.5708C59.1848 88.761 62.4667 89.1952 65.5437 90.7838C68.3799 92.2472 69.8127 94.7497 70.4486 97.6846C72.1465 105.52 70.0063 112.304 64.5191 118.08C64.355 118.227 64.1556 118.33 63.9401 118.377C63.7475 118.408 63.5518 118.412 63.3579 118.392H59.8793Z" fill="#FEFEFE"/>
<path d="M50.8077 88.9609C45.088 99.2048 46.028 108.813 52.2194 118.358C50.8289 118.358 49.4644 118.372 48.1 118.338C47.9243 118.338 47.7324 118.093 47.5844 117.928C44.1952 114.146 41.7167 109.86 41.2028 104.758C40.6515 99.2601 41.9964 94.33 46.7648 90.9365C47.9764 90.0813 49.4514 89.6081 50.8077 88.9609Z" fill="#FDFDFD"/>
<path d="M54.2456 87.667C54.2673 87.7045 54.2847 87.7443 54.2976 87.7857C54.2976 87.8003 54.2586 87.8231 54.2374 87.841C54.2152 87.8035 54.1972 87.7637 54.1838 87.7223C54.1805 87.7076 54.2228 87.6849 54.2456 87.667Z" fill="#EBEAEA"/>
<path d="M165.824 179.706L168.161 182.177L172.627 177.704C173.092 178.15 173.44 178.485 173.726 178.755L168.216 184.244L164.524 180.561L165.824 179.706Z" fill="#302E2F"/>
<path d="M174.72 74.9835C175.437 76.2355 176.214 77.4225 176.808 78.6908C177.296 79.7396 176.923 80.2127 175.78 80.2501C175.034 80.2762 174.284 80.2192 173.539 80.2664C172.619 80.3249 172.238 79.8534 172.154 79.0192C172.139 78.8566 172.144 78.694 172.142 78.5314C172.119 77.0388 172.121 77.0388 170.49 77.2062C170.49 77.8355 170.47 78.4696 170.49 79.1022C170.519 79.8615 170.165 80.2892 169.425 80.3298C168.685 80.3705 167.907 80.4534 167.21 80.2713C166.766 80.1558 166.196 79.6485 166.097 79.2225C165.504 76.6534 165.149 74.0485 165.795 71.4176C166.395 68.9786 167.876 67.8404 170.379 67.7217C172.399 67.6202 174.408 68.0657 176.195 69.0111C176.742 69.2945 177.252 69.6464 177.711 70.0583C178.589 70.8631 178.961 71.9022 178.616 73.0583C178.291 74.1477 177.348 74.5656 176.323 74.7721C175.761 74.8957 175.178 74.9282 174.72 74.9835ZM169.678 69.7883C169.678 70.7363 169.636 71.2827 169.699 71.816C169.725 72.0274 169.978 72.3721 170.143 72.3835C171.007 72.4501 171.874 72.4501 172.737 72.3835C173.027 72.3575 173.466 72.0485 173.515 71.8062C173.564 71.564 173.284 71.0713 173.027 70.9656C172.014 70.5444 170.957 70.2274 169.673 69.7883H169.678Z" fill="#FFFEFD"/>
<path d="M147.343 74.8409C148.013 75.9791 148.795 77.1254 149.384 78.3644C149.96 79.5709 149.581 80.0506 148.263 80.062C147.583 80.062 146.9 80.062 146.216 80.062C145.151 80.0539 144.822 79.7449 144.752 78.6962C144.746 78.5986 144.742 78.501 144.742 78.4035C144.726 76.8295 144.726 76.8295 142.997 77.0246C143.04 77.584 143.089 78.1514 143.126 78.7205C143.184 79.6279 142.763 80.1384 141.846 80.184C141.358 80.2116 140.87 80.21 140.382 80.197C139.369 80.1709 138.78 79.7092 138.593 78.6539C138.132 76.1157 137.78 73.5823 138.468 71.0344C139.085 68.7579 140.573 67.6311 142.918 67.5352C145.217 67.4425 147.392 67.8913 149.325 69.1466C150.033 69.5997 150.624 70.2123 151.052 70.9352C151.849 72.3547 151.215 73.8506 149.669 74.3758C148.88 74.6344 148.024 74.7092 147.343 74.8409ZM142.267 69.9303C142.267 70.5628 142.223 71.0815 142.287 71.5872C142.314 71.8116 142.549 72.1807 142.708 72.1905C143.601 72.2543 144.498 72.2559 145.391 72.1953C145.652 72.1758 146.073 71.8701 146.094 71.662C146.09 71.4944 146.051 71.3295 145.978 71.1786C145.905 71.0277 145.8 70.8942 145.671 70.7872C144.708 70.0344 143.567 69.875 142.262 69.9303H142.267Z" fill="#FFFEFD"/>
<path d="M195.969 72.2536C195.858 72.7326 195.773 73.2173 195.715 73.7056C195.59 75.582 195.466 77.4601 195.404 79.3398C195.38 80.0959 195.079 80.3577 194.347 80.3723C192.059 80.4162 192.071 80.4373 192.056 78.1349C192.033 75.5707 191.963 73.0081 191.944 70.4455C191.931 68.878 192.31 68.3918 193.868 68.4146C197.188 68.465 196.784 68.1511 197.906 71.0162C198.265 71.9365 198.615 72.8617 198.969 73.7804L199.252 73.7398C199.355 72.3056 199.467 70.8715 199.56 69.4373C199.66 67.8373 199.865 67.6601 201.467 67.852C204.095 68.1772 204.06 68.1642 203.778 70.7642C203.508 73.2796 203.305 75.8048 203.105 78.3251C202.98 79.8942 202.92 79.9772 201.392 79.9625C200.742 79.9625 200.091 79.9398 199.441 79.9625C198.738 79.9918 198.379 79.6763 198.203 79.0016C197.706 77.091 197.171 75.1885 196.64 73.2861C196.54 72.9284 196.39 72.5837 196.263 72.2324L195.969 72.2536Z" fill="#FFFEFD"/>
<path d="M158.077 71.4894C158.9 71.3707 159.629 71.2455 160.362 71.1642C163.249 70.852 164.958 72.9529 164.075 75.7171C163.319 78.0813 161.271 79.6878 158.807 79.7659C157.834 79.7785 156.862 79.7302 155.895 79.6212C155.127 79.548 154.366 79.3821 153.564 79.252C153.28 76.2553 153 73.3171 152.722 70.3805C152.704 70.1854 152.707 69.9903 152.689 69.7951C152.536 68.1529 152.527 68.1236 154.192 67.8439C154.834 67.739 155.488 67.7243 156.134 67.8C158.092 68.0407 158.78 69.3041 158.077 71.4894ZM157.454 76.9106C157.882 76.5496 158.549 76.2602 158.68 75.8098C158.863 75.187 157.892 74.5268 157.04 74.5691C156.63 74.5886 156.108 74.5854 156.226 75.2195C156.345 75.8537 156.15 76.7561 157.454 76.9106ZM154.423 69.5626L154.727 71.3951C155.503 71.2537 156.243 71.1057 156.114 70.2569C155.986 69.4081 155.265 69.4179 154.423 69.5642V69.5626Z" fill="#FFFEFD"/>
<path d="M205.327 74.2179C205.327 72.5301 205.338 70.8439 205.327 69.1561C205.327 68.6797 205.403 68.3594 205.958 68.2618C209.513 67.639 214.826 69.2764 215.421 74.026C215.584 75.3951 215.39 76.8699 215.071 78.2293C214.727 79.6927 213.492 80.5512 212.051 80.5886C209.993 80.6423 207.927 80.4 205.871 80.2634C205.278 80.226 205.058 79.8732 205.076 79.2748C205.105 77.5886 205.086 75.9025 205.086 74.2163L205.327 74.2179ZM208.752 77.8228C211.37 78.0472 212.295 77.2797 212.36 74.9155C212.414 73.0114 210.799 71.5008 208.752 71.5626V77.8228Z" fill="#FEFDFC"/>
<path d="M184.131 76.5739C183.843 77.5902 183.643 78.4764 183.331 79.3186C183.144 79.8211 182.872 80.4065 182.458 80.6813C181.941 81.0227 181.179 81.3187 180.635 81.1853C180.222 81.0845 179.714 80.2764 179.716 79.7853C179.716 78.4845 179.771 77.1056 180.187 75.8829C180.791 74.1203 181.679 72.4439 182.555 70.7886C182.954 70.0836 183.485 69.462 184.118 68.9577C185.058 68.1869 186.333 68.33 186.927 69.343C188.667 72.3073 190.253 75.3593 190.627 78.852C190.789 80.3707 190.342 81.1967 189.417 81.3853C188.459 81.5821 187.475 80.9268 186.997 79.6894C186.753 79.0555 186.578 78.3976 186.473 77.7268C186.349 76.9447 186.068 76.4845 185.172 76.6211C184.837 76.6796 184.476 76.5967 184.131 76.5739ZM186.327 74.1691L185.478 71.9333H185.113L183.975 74.1739L186.327 74.1691Z" fill="#FFFEFD"/>
<path d="M130.181 76.2749C130.018 76.8521 129.872 77.444 129.693 78.0293C129.572 78.4655 129.423 78.8934 129.247 79.3106C128.709 80.5139 127.901 81.0635 127.057 80.8391C126.167 80.6017 125.721 79.6749 125.938 78.3578C126.445 75.2554 127.48 72.3415 129.207 69.6992C130.382 67.9106 131.914 67.8765 133.001 69.748C134.396 72.1497 135.652 74.6391 136.855 77.1448C137.532 78.5545 137.158 79.5838 136.079 80.0342C134.97 80.4928 133.385 79.735 132.877 78.4993C132.838 78.3759 132.805 78.2505 132.78 78.1236C132.227 76.244 132.227 76.244 130.181 76.2749ZM132.311 73.774C132.092 72.8814 131.903 72.0895 130.978 71.5204C130.662 72.3334 130.404 73.0114 130.109 73.774H132.311Z" fill="#FEFDFC"/>
<path d="M121.973 78.6994C122.654 78.6994 123.336 78.6832 124.015 78.6994C124.798 78.7238 125.015 79.1661 124.841 79.8799C124.742 80.3099 124.531 80.7065 124.232 81.0306C123.932 81.3548 123.553 81.5954 123.132 81.7287C121.295 82.3872 119.401 82.5921 117.491 82.0913C114.986 81.4409 113.425 79.3824 113.5 76.7856C113.574 74.2978 114.514 72.1222 116.499 70.6068C117.373 69.9368 118.564 69.5417 119.668 69.3417C120.994 69.1011 121.508 69.5661 121.747 70.6588C121.995 71.7872 121.459 72.849 120.407 73.2604C119.987 73.423 119.53 73.506 119.119 73.6864C117.873 74.2328 117.217 75.3401 117.388 76.5417C117.551 77.7157 118.527 78.558 119.93 78.6767C120.607 78.7336 121.291 78.6864 121.973 78.6864V78.6994Z" fill="#FEFDFC"/>
<path d="M198.855 54.4279L198.132 54.4685C196.219 34.9564 186.097 21.21 168.824 12.3287L169.135 11.6035C188.112 20.5271 198.07 38.0133 198.855 54.4279Z" fill="#32291F"/>
<path d="M169.673 69.7886C170.956 70.2276 172.013 70.5447 173.027 70.9691C173.279 71.0747 173.558 71.5609 173.514 71.8097C173.471 72.0585 173.027 72.3609 172.737 72.3869C171.874 72.4536 171.006 72.4536 170.143 72.3869C169.98 72.3756 169.725 72.0308 169.699 71.8195C169.631 71.2829 169.673 70.7317 169.673 69.7886Z" fill="#D06A22"/>
<path d="M142.262 69.9299C143.563 69.8746 144.702 70.034 145.677 70.7836C145.807 70.8905 145.911 71.024 145.984 71.175C146.057 71.3259 146.097 71.4908 146.1 71.6584C146.079 71.8665 145.658 72.1722 145.398 72.1917C144.502 72.2543 143.602 72.2543 142.706 72.1917C142.544 72.1819 142.313 71.8128 142.285 71.5884C142.218 71.0811 142.262 70.5689 142.262 69.9299Z" fill="#D26F28"/>
<path d="M157.453 76.9106C156.152 76.748 156.352 75.8505 156.232 75.2261C156.111 74.6017 156.628 74.5887 157.045 74.5757C157.897 74.5334 158.868 75.1935 158.686 75.8163C158.547 76.2602 157.881 76.5513 157.453 76.9106Z" fill="#D26F28"/>
<path d="M154.423 69.5643C155.265 69.4179 155.991 69.4212 156.114 70.2521C156.238 71.083 155.503 71.2553 154.727 71.3903L154.423 69.5643Z" fill="#D26F28"/>
<path d="M208.752 77.8227V71.5626C210.799 71.4975 212.414 73.0114 212.361 74.9154C212.296 77.2796 211.37 78.0487 208.752 77.8227Z" fill="#D06921"/>
<path d="M186.327 74.1694H183.976L185.114 71.9287H185.478L186.327 74.1694Z" fill="#D26F28"/>
<path d="M132.31 73.7742H130.104C130.398 73.0116 130.656 72.3416 130.972 71.5205C131.902 72.0896 132.091 72.8815 132.31 73.7742Z" fill="#D16C25"/>
<path fill-rule="evenodd" clip-rule="evenodd" d="M145.87 145.764C146.369 145.768 146.875 145.773 147.393 145.773C139.049 131.19 133.562 115.773 131.23 99.2067C131.986 99.249 132.174 99.4782 132.28 100.291C132.336 100.716 132.38 101.143 132.425 101.571C132.528 102.559 132.632 103.549 132.869 104.504C133.125 105.538 133.378 106.572 133.631 107.607C134.661 111.821 135.691 116.04 136.98 120.19C138.338 124.469 139.947 128.663 141.797 132.753C143.198 135.881 144.784 138.922 146.37 141.964C146.95 143.076 147.53 144.188 148.101 145.304C148.219 145.537 148.559 145.805 148.795 145.805C151.047 145.791 153.299 145.747 155.534 145.704C156.118 145.692 156.702 145.681 157.285 145.67C157.312 145.572 157.337 145.498 157.357 145.438C157.389 145.344 157.408 145.288 157.4 145.238C157.36 144.991 157.315 144.745 157.27 144.499C157.187 144.049 157.105 143.6 157.052 143.147C157.036 143.012 157.113 142.866 157.19 142.721C157.225 142.655 157.26 142.588 157.286 142.522C157.343 142.567 157.408 142.609 157.474 142.651C157.618 142.742 157.762 142.834 157.813 142.963C157.952 143.315 158.028 143.689 158.039 144.067C158.099 145.672 158.291 145.823 159.888 145.48C160.112 145.446 160.338 145.432 160.565 145.439C161.216 145.418 161.868 145.402 162.52 145.386C163.936 145.35 165.352 145.315 166.764 145.231C167.882 145.165 168.998 145.074 170.114 144.982C171.753 144.848 173.391 144.714 175.036 144.66C176.085 144.62 176.686 144.556 176.616 143.319C176.594 142.914 176.657 142.125 177.581 142.668C177.557 142.755 177.524 142.844 177.491 142.934C177.414 143.145 177.334 143.361 177.363 143.561C177.407 143.875 177.628 144.402 177.815 144.42C178.721 144.5 179.631 144.511 180.539 144.452C181.273 144.412 182.007 144.354 182.741 144.295C184.129 144.185 185.517 144.075 186.899 144.09C187.916 144.098 188.397 143.777 188.812 142.951C189.584 141.412 190.375 139.883 191.166 138.354C192.595 135.591 194.024 132.829 195.34 130.013C198.859 122.485 201.492 114.621 203.471 106.55C203.929 104.687 204.339 102.807 204.749 100.927C205.029 99.6404 205.309 98.3536 205.605 97.0717C205.647 96.878 205.799 96.7092 205.952 96.5401C206.023 96.4608 206.095 96.3814 206.155 96.2994L206.496 96.514C203.491 113.238 197.896 129.038 189.163 143.94C189.549 143.903 189.909 143.873 190.249 143.845C191.004 143.782 191.666 143.727 192.318 143.615C192.556 143.569 192.853 143.223 192.925 142.964C193.076 142.411 193.179 141.848 193.283 141.283C193.328 141.037 193.373 140.791 193.423 140.545C194.078 140.573 194.293 140.842 194.13 141.426C193.98 141.939 193.861 142.46 193.772 142.987C193.778 143.187 193.846 143.38 193.967 143.538C194.245 143.485 194.547 143.455 194.851 143.425C195.591 143.352 196.34 143.277 196.758 142.868C199.109 140.581 201.335 138.168 203.426 135.641C220.59 114.808 228.728 90.9904 226.918 63.9482C226.448 56.9099 224.865 49.9905 222.229 43.4474C216.579 29.3596 206.984 19.0701 192.835 13.2522C184.66 9.8929 176.044 8.5807 167.285 8.12542C161.209 7.80935 155.117 8.12815 149.107 9.07664C147.227 9.37257 145.439 9.73518 143.796 10.9661C134.315 18.0734 127.016 26.8165 122.95 38.0636C121.093 43.2035 120.153 48.5189 119.972 53.9726C119.946 54.7466 119.94 54.7466 119.055 54.5514C119.663 35.8864 128.382 21.6148 143.149 10.3238C142.951 10.3584 142.791 10.3843 142.656 10.4061C142.424 10.4438 142.265 10.4695 142.109 10.5075C136.574 11.8701 131.243 13.797 126.201 16.449C118.387 20.5531 111.494 25.7807 106.427 33.1287C99.3069 43.4409 96.4153 55.0474 96.1811 67.4051C96.0884 72.2799 96.5763 77.1254 97.4399 81.9335C99.9119 95.7043 105.131 108.405 112.825 120.018C115.784 124.485 119.262 128.618 122.728 132.738C123.178 133.273 123.628 133.808 124.077 134.343C126.183 136.859 128.437 139.251 130.691 141.643C131.603 142.611 132.516 143.58 133.419 144.556C133.903 145.08 134.414 145.439 135.26 145.39C136.091 145.343 136.931 145.44 137.771 145.537C138.083 145.573 138.394 145.609 138.706 145.638C139.126 145.676 139.544 145.73 140.013 145.791C140.238 145.82 140.475 145.85 140.729 145.882C140.666 145.679 140.606 145.497 140.549 145.328C140.421 144.943 140.316 144.628 140.267 144.304C140.248 144.174 140.349 144.027 140.45 143.88C140.496 143.813 140.541 143.746 140.576 143.682C140.631 143.719 140.692 143.754 140.753 143.789C140.894 143.869 141.037 143.95 141.101 144.064C141.175 144.201 141.192 144.368 141.208 144.536C141.218 144.631 141.228 144.727 141.248 144.818C141.379 145.426 141.607 145.826 142.386 145.794C143.53 145.746 144.677 145.755 145.87 145.764ZM169.137 11.6018C188.114 20.5254 198.072 38.0035 198.858 54.4262L198.132 54.4718C196.22 34.9596 186.096 21.21 168.826 12.327L169.137 11.6018Z" fill="#EE7024"/>
<path d="M112.442 66.3771C113.002 66.364 113.56 66.4319 114.1 66.5787C114.506 66.6943 114.893 66.8679 115.249 67.0941C115.678 67.4093 116.004 67.8444 116.186 68.3445C116.371 68.8104 116.403 69.3228 116.277 69.808C116.153 70.2719 115.839 70.7277 115.337 71.1754L114.568 71.8502C115.076 71.9907 115.573 72.169 116.054 72.3836C116.275 72.4677 116.473 72.6025 116.632 72.7771C116.869 73.0423 117.033 73.3644 117.108 73.712C117.226 74.2648 117.236 74.835 117.139 75.3917C117.061 76.0233 116.799 76.618 116.386 77.1023C115.972 77.582 115.453 77.9603 114.869 78.2079C114.251 78.4735 113.589 78.6218 112.917 78.6453C112.23 78.6477 111.546 78.5457 110.889 78.3429C110.277 78.1478 109.868 77.88 109.663 77.5397C109.458 77.1993 109.26 76.6031 109.069 75.751C108.929 74.6581 108.847 73.5584 108.824 72.4567C108.795 71.2762 108.801 70.0155 108.842 68.6746C108.883 67.4497 108.966 66.8069 109.091 66.7462C109.276 66.6659 109.47 66.6059 109.668 66.5673C110.319 66.4749 110.975 66.4249 111.633 66.4177C111.921 66.3906 112.191 66.3771 112.442 66.3771ZM112.826 73.4177C112.57 73.4094 112.317 73.4683 112.091 73.5884C112.001 73.6338 111.926 73.7036 111.873 73.7899C111.821 73.8761 111.794 73.9754 111.795 74.0762L111.943 75.9998C111.973 76.1118 112.032 76.2137 112.114 76.2952C112.197 76.3767 112.299 76.4347 112.412 76.4632C112.688 76.5448 112.982 76.5448 113.259 76.4632C113.606 76.3723 113.914 76.1698 114.134 75.8868C114.355 75.6038 114.477 75.2562 114.48 74.8974C114.498 74.5969 114.413 74.2994 114.239 74.0535C114.077 73.8359 113.857 73.6672 113.605 73.5657C113.358 73.4655 113.093 73.4153 112.826 73.4177ZM112.642 68.2486H112.59C112.407 68.2548 112.226 68.3009 112.062 68.3836C111.999 68.4073 111.945 68.4484 111.905 68.502C111.866 68.5556 111.842 68.6194 111.837 68.686V70.2958C111.837 70.4584 111.927 70.5478 112.106 70.5787C112.319 70.6072 112.536 70.5804 112.735 70.5006C112.984 70.4111 113.205 70.2587 113.378 70.0584C113.571 69.8317 113.677 69.5432 113.675 69.2453C113.663 68.8898 113.555 68.6345 113.35 68.4795C113.146 68.3268 112.897 68.2456 112.642 68.2486Z" fill="white"/>
<path d="M120.788 66.0618C121.529 66.0544 122.263 66.2081 122.939 66.5122C123.543 66.7811 124.027 67.2618 124.3 67.8634C124.577 68.4694 124.585 69.2434 124.326 70.1854C124.067 71.1274 123.445 72.2482 122.461 73.548L125.414 75.9349C125.43 76.099 125.411 76.2646 125.36 76.4211C125.308 76.5776 125.224 76.7216 125.113 76.8439C124.861 77.1442 124.566 77.4065 124.239 77.6228C123.892 77.8558 123.566 78.0536 123.263 78.2162L120.622 76.065L121.119 78.8374C120.922 78.9211 120.721 78.9944 120.516 79.0569C120.19 79.1623 119.859 79.2497 119.524 79.3187C119.215 79.3917 118.895 79.4137 118.579 79.3837C118.307 79.3528 118.155 79.2309 118.119 79.0211C117.876 77.3988 117.732 75.7633 117.686 74.1236C117.643 72.4975 117.633 70.8824 117.655 69.278C117.666 68.439 117.672 67.5994 117.673 66.7593C118.646 66.2963 119.71 66.0579 120.788 66.0618ZM120.57 69.0618C120.371 69.0504 120.277 69.1138 120.288 69.2536L120.438 71.065C120.472 71.2748 120.601 71.3382 120.814 71.2569C121.063 71.1487 121.286 70.9859 121.464 70.7805C121.666 70.5794 121.803 70.3222 121.858 70.0423C121.863 69.9506 121.847 69.8589 121.811 69.7743C121.775 69.6898 121.721 69.6145 121.651 69.5545C121.497 69.4041 121.316 69.2839 121.118 69.2C120.945 69.1207 120.759 69.0739 120.57 69.0618Z" fill="white"/>
<path d="M130.627 66.543C130.911 66.5372 131.194 66.5801 131.463 66.6698C131.563 66.6975 131.656 66.7465 131.735 66.8136C131.814 66.8808 131.878 66.9643 131.922 67.0584C132.301 68.0568 132.681 69.149 133.06 70.3349C133.44 71.5208 133.806 72.7202 134.158 73.9332C134.508 75.0942 134.846 76.1934 135.173 77.2308C135.207 77.33 135.122 77.4731 134.914 77.6601C134.666 77.8747 134.393 78.0592 134.101 78.2097C133.77 78.3883 133.418 78.5223 133.052 78.608C132.736 78.6945 132.401 78.6854 132.089 78.582C131.81 78.4801 131.629 78.2395 131.548 77.8601L131.162 75.6747C131.126 75.451 131.075 75.2299 131.009 75.0129C130.96 74.8533 130.887 74.7016 130.795 74.5625C130.762 74.5061 130.717 74.4585 130.662 74.4236C130.607 74.3888 130.544 74.3678 130.479 74.3625C130.411 74.3712 130.345 74.3965 130.288 74.4361C130.232 74.4758 130.186 74.5287 130.154 74.5902C130.062 74.7426 129.992 74.9066 129.944 75.078C129.882 75.3124 129.832 75.5502 129.796 75.7902L129.507 77.7593C129.425 78.2129 129.198 78.4942 128.825 78.5983C128.419 78.7037 127.992 78.7009 127.588 78.5902C127.183 78.4977 126.794 78.346 126.433 78.1398C126.108 77.9495 125.968 77.7853 125.991 77.6519C126.358 76.2427 126.708 74.7907 127.041 73.2958C127.267 72.2639 127.501 71.2509 127.745 70.2568C127.989 69.2628 128.247 68.3197 128.52 67.4276C128.605 67.1479 128.86 66.9311 129.284 66.7771C129.714 66.6178 130.169 66.5385 130.627 66.543ZM130.523 70.1202H130.497C130.433 70.1298 130.372 70.1546 130.319 70.1925C130.267 70.2304 130.224 70.2803 130.195 70.3381C130.115 70.483 130.06 70.6402 130.032 70.8032C129.997 70.9836 129.973 71.1661 129.96 71.3495C129.949 71.5332 129.946 71.7463 129.96 71.9918L131.099 71.9479C131.099 71.704 131.099 71.491 131.078 71.3089C131.063 71.1269 131.037 70.9461 131 70.7674C130.968 70.6072 130.911 70.4534 130.829 70.3121C130.799 70.2564 130.755 70.2095 130.701 70.1759C130.648 70.1422 130.586 70.1231 130.523 70.1202Z" fill="white"/>
<path d="M136.14 77.5724L135.694 67.4797C135.681 67.3171 135.819 67.1659 136.104 67.0456C136.435 66.9159 136.783 66.8322 137.137 66.7968C137.504 66.7513 137.876 66.7513 138.244 66.7968C138.579 66.8407 138.787 66.935 138.869 67.0814L139.989 70.2131C140.072 70.3734 140.142 70.5397 140.199 70.7106C140.272 70.9741 140.393 71.2217 140.557 71.4407C140.715 71.6488 140.981 71.7469 141.354 71.735L141.318 70.6505L141.196 67.2732C141.185 67.1106 141.329 66.9627 141.633 66.8456C141.984 66.7183 142.35 66.639 142.721 66.6098C143.101 66.5677 143.485 66.5825 143.86 66.6537C144.198 66.7236 144.395 66.8651 144.447 67.0814C144.539 68.8017 144.599 70.5361 144.626 72.2846C144.653 74.0331 144.62 75.7919 144.528 77.561C144.523 77.6958 144.485 77.8273 144.419 77.9445C144.352 78.0616 144.258 78.161 144.144 78.2342C143.875 78.4185 143.56 78.5243 143.234 78.5399C142.863 78.5682 142.49 78.5051 142.149 78.3561C141.771 78.1911 141.454 77.9134 141.24 77.561L139.228 74.2228C139.251 74.922 139.272 75.5074 139.288 75.9805C139.305 76.4537 139.322 76.8927 139.337 77.3009C139.352 77.709 139.362 77.9854 139.368 78.1318C139.293 78.2509 139.193 78.3524 139.075 78.4293C138.957 78.5062 138.824 78.5567 138.685 78.5773C138.332 78.6543 137.968 78.668 137.61 78.6179C137.255 78.578 136.913 78.4615 136.608 78.2765C136.48 78.205 136.37 78.1038 136.288 77.9813C136.207 77.8588 136.156 77.7186 136.14 77.5724Z" fill="white"/>
<path d="M148.543 66.2193C148.878 66.214 149.213 66.2461 149.54 66.3153C149.623 66.2817 149.861 66.3402 150.254 66.4909C150.741 66.6997 151.193 66.9827 151.593 67.3299C152.146 67.8077 152.603 68.3866 152.939 69.0356C153.339 69.764 153.586 70.6882 153.679 71.8079C153.75 72.7273 153.628 73.6513 153.323 74.5214C153.018 75.3916 152.536 76.189 151.907 76.8632C151.412 77.4051 150.828 77.8578 150.179 78.2014C149.584 78.506 149.062 78.6518 148.613 78.6388C148.054 78.5763 147.517 78.3861 147.044 78.0827C146.493 77.7575 146.107 77.4209 145.884 77.073C145.715 76.7705 145.6 76.1337 145.54 75.1624C145.479 74.1911 145.458 73.118 145.478 71.9429C145.497 70.7689 145.546 69.7272 145.623 68.8177C145.7 67.9082 145.787 67.3662 145.884 67.1917C146.169 66.8152 146.573 66.5468 147.031 66.4307C147.523 66.2893 148.032 66.2181 148.543 66.2193ZM149.031 70.2161C148.975 70.2108 148.919 70.2178 148.866 70.2364C148.812 70.255 148.764 70.2848 148.723 70.3238C148.683 70.3629 148.651 70.4102 148.63 70.4626C148.61 70.515 148.601 70.5712 148.604 70.6274L148.674 74.1787C148.685 74.4356 148.787 74.5852 148.983 74.6291C149.22 74.6645 149.462 74.6062 149.657 74.4665C149.939 74.2846 150.169 74.0331 150.326 73.7364C150.531 73.3475 150.633 72.9126 150.623 72.473C150.634 72.0328 150.54 71.5965 150.349 71.1998C150.202 70.9023 149.984 70.6454 149.714 70.4518C149.514 70.304 149.273 70.2216 149.025 70.2161H149.031Z" fill="white"/>
<path d="M154.399 76.9284C154.164 76.3919 154.114 75.7925 154.256 75.2243C154.391 74.6491 154.636 74.1053 154.977 73.6227C155.264 73.197 155.624 72.8254 156.04 72.5251C155.66 72.1265 155.378 71.6442 155.217 71.117C155.049 70.5858 155.012 70.0218 155.108 69.4731C155.209 68.9153 155.483 68.4034 155.891 68.0097C156.317 67.5847 156.935 67.2877 157.746 67.1186C158.135 67.0484 158.532 67.0441 158.922 67.1056C159.316 67.1652 159.803 67.3907 160.386 67.782C160.794 68.2337 161.033 68.8141 161.059 69.4227C161.097 70.0727 160.966 70.7214 160.678 71.3056C160.387 71.9163 159.924 72.4283 159.345 72.7788C159.453 72.9965 159.593 73.1971 159.759 73.3739C159.93 73.5389 160.13 73.6697 160.35 73.7593C160.445 73.6874 160.533 73.6068 160.613 73.5186C160.695 73.4276 160.791 73.3121 160.901 73.1723C160.941 73.1147 160.995 73.0684 161.058 73.0379C161.121 73.0074 161.191 72.9938 161.261 72.9983C161.409 73.0169 161.55 73.0729 161.67 73.1609C161.811 73.2564 161.941 73.3653 162.061 73.4861C162.204 73.6318 162.34 73.7849 162.467 73.9446L162.327 74.1072L162.24 74.2048L162.142 74.3089C162.109 74.3446 162.061 74.4016 161.997 74.4845C162.038 74.4959 162.072 74.5072 162.101 74.5186C162.23 74.5658 162.336 74.5983 162.417 74.6194C162.506 74.6413 162.597 74.6533 162.688 74.6552C162.788 74.6552 162.924 74.6552 163.1 74.6552C163.163 74.807 163.13 75.046 163.002 75.3723C162.876 75.6962 162.705 76.001 162.495 76.278C162.286 76.5544 162.093 76.6986 161.918 76.7105L161.565 76.6975C161.495 76.6959 161.426 76.6883 161.358 76.6747L161.122 76.6227C161.046 76.5999 160.945 76.5739 160.817 76.5446C160.437 77.0119 159.972 77.4036 159.447 77.6991C158.893 78.026 158.288 78.2605 157.658 78.3934C157.093 78.5264 156.503 78.5129 155.944 78.3544C155.151 77.9555 154.636 77.4801 154.399 76.9284ZM158.481 75.3414C158.261 75.2181 158.051 75.0761 157.855 74.917C157.611 74.6971 157.387 74.456 157.185 74.1967C157.115 74.2666 157.057 74.3284 157.006 74.3837C156.957 74.4398 156.912 74.4996 156.871 74.5625C156.621 74.9658 156.507 75.3083 156.53 75.5902C156.533 75.7154 156.566 75.838 156.626 75.9477C156.686 76.0575 156.772 76.1512 156.876 76.2211C157.101 76.3614 157.37 76.4157 157.632 76.3739C157.868 76.3383 158.094 76.2595 158.301 76.1414C158.535 75.9975 158.753 75.8291 158.951 75.639L158.481 75.3414ZM157.263 70.5837C157.386 70.9305 157.586 71.2447 157.849 71.5024C157.956 71.4281 158.057 71.3449 158.151 71.2536C158.27 71.1398 158.384 71.0243 158.491 70.9072C158.598 70.7902 158.68 70.7007 158.732 70.6357C159.087 70.2563 159.241 69.9197 159.192 69.6259C159.17 69.4859 159.114 69.3534 159.029 69.24C158.944 69.1266 158.832 69.0358 158.704 68.9755C158.442 68.8366 158.135 68.8056 157.85 68.8894C157.552 68.9707 157.335 69.195 157.2 69.5625C157.102 69.9 157.125 70.2608 157.263 70.5837Z" fill="white"/>
<path d="M167.054 66.2193C167.388 66.214 167.723 66.2462 168.05 66.3152C168.132 66.2816 168.369 66.3402 168.763 66.4909C169.25 66.6993 169.701 66.9823 170.101 67.3299C170.655 67.8072 171.113 68.3862 171.449 69.0356C171.848 69.764 172.094 70.6881 172.188 71.8079C172.258 72.7272 172.136 73.6509 171.832 74.521C171.527 75.391 171.045 76.1885 170.417 76.8632C169.922 77.4051 169.338 77.8578 168.69 78.2014C168.094 78.506 167.572 78.6518 167.123 78.6388C166.564 78.5763 166.027 78.3861 165.552 78.0827C165.001 77.7575 164.615 77.4209 164.395 77.073C164.225 76.7705 164.11 76.1337 164.048 75.1624C163.986 74.1911 163.966 73.118 163.988 71.9429C164.007 70.7689 164.055 69.7272 164.131 68.8177C164.207 67.9082 164.295 67.3662 164.395 67.1917C164.677 66.8168 165.078 66.5486 165.533 66.4307C166.027 66.2888 166.539 66.2176 167.054 66.2193ZM167.541 70.2161C167.485 70.2109 167.429 70.2178 167.375 70.2364C167.322 70.255 167.274 70.2848 167.233 70.3238C167.192 70.3628 167.16 70.4101 167.139 70.4625C167.119 70.5149 167.109 70.5711 167.112 70.6274L167.182 74.1787C167.193 74.4356 167.297 74.5852 167.493 74.6291C167.73 74.6642 167.971 74.6059 168.166 74.4665C168.448 74.2843 168.679 74.033 168.836 73.7364C169.041 73.3475 169.144 72.9126 169.134 72.473C169.144 72.0326 169.049 71.5961 168.857 71.1998C168.711 70.9016 168.493 70.6445 168.223 70.4518C168.024 70.3038 167.783 70.2214 167.535 70.2161H167.541Z" fill="white"/>
<path d="M173.353 67.6584C173.738 67.4236 174.178 67.2925 174.629 67.2779C175.066 67.2455 175.502 67.3458 175.88 67.5658C176.237 67.7826 176.418 68.1387 176.423 68.634L176.467 70.8893V71.4324C176.467 71.9576 176.467 72.5235 176.467 73.1332C176.467 73.743 176.506 74.3365 176.56 74.9218L176.664 76.7495C176.664 76.9999 176.519 77.2259 176.213 77.4275C175.88 77.637 175.504 77.7672 175.112 77.808C174.704 77.864 174.289 77.7852 173.93 77.5836C173.572 77.3842 173.343 77.0048 173.244 76.4454C173.045 75.0991 172.898 73.7712 172.803 72.4617C172.706 71.1768 172.681 69.8875 172.728 68.5999C172.748 68.4041 172.815 68.2161 172.924 68.052C173.033 67.888 173.18 67.7529 173.353 67.6584Z" fill="white"/>
<path d="M181.67 67.0149C182.392 66.8637 183.129 66.8009 183.866 66.8279C184.542 66.8604 185.064 67.0615 185.432 67.4311C185.799 67.8008 185.913 68.4143 185.773 69.2718C185.586 69.6393 185.377 69.875 185.142 69.9758C184.908 70.0779 184.648 70.1013 184.399 70.0425C184.119 69.9775 183.847 69.8832 183.586 69.7612C182.84 69.5813 182.231 69.6078 181.758 69.8409C181.258 70.1035 180.873 70.5428 180.678 71.0734C180.405 71.7749 180.25 72.5165 180.218 73.2685C180.232 73.7143 180.35 74.1505 180.564 74.5417C180.755 74.9212 181.034 75.2496 181.378 75.4994C181.517 75.6079 181.681 75.6802 181.855 75.71C182.03 75.7398 182.208 75.7261 182.376 75.6701C182.714 75.5617 183.006 75.1986 183.251 74.5807C183.262 74.5522 183.271 74.5228 183.277 74.4929C183.311 74.3832 183.335 74.2705 183.347 74.1563C183.365 74.0278 183.35 73.8968 183.303 73.7758C183.259 73.6965 183.201 73.6256 183.132 73.5661C183.062 73.5064 182.988 73.452 182.91 73.4035C182.833 73.3563 182.747 73.3043 182.63 73.2409C182.49 73.2002 182.404 73.0783 182.371 72.8734C182.34 72.647 182.353 72.4167 182.41 72.1954C182.461 71.9649 182.559 71.7477 182.7 71.558C182.751 71.4773 182.824 71.4122 182.91 71.3698C182.996 71.3274 183.092 71.3092 183.188 71.3173C183.667 71.2739 184.149 71.2549 184.63 71.2604C185.014 71.2683 185.396 71.3196 185.769 71.4132C186.09 71.4799 186.384 71.6446 186.608 71.8848C186.802 72.1695 186.901 72.5079 186.892 72.8523C186.901 73.257 186.866 73.6615 186.788 74.0588C186.709 74.4636 186.626 74.7986 186.556 75.0604C186.547 75.1846 186.508 75.3047 186.442 75.41C186.426 75.4685 186.404 75.5271 186.382 75.5856C186.233 76.0732 186.027 76.5415 185.769 76.9807C185.476 77.4451 185.046 77.8071 184.539 78.0165C183.976 78.2734 183.156 78.3818 182.077 78.3417C180.922 78.255 179.992 77.9926 179.286 77.5547C178.632 77.1693 178.085 76.6266 177.694 75.9758C177.357 75.4089 177.126 74.7851 177.013 74.1352C177.001 72.8073 177.114 71.7233 177.354 70.8832C177.53 70.1728 177.839 69.502 178.263 68.9059C178.568 68.4889 178.948 68.1318 179.382 67.8523C179.691 67.6597 180.018 67.4963 180.358 67.3645C180.486 67.3108 180.589 67.2653 180.664 67.2246C181.001 67.1498 181.336 67.0799 181.67 67.0149Z" fill="white"/>
<path d="M187.918 67.6584C188.303 67.4236 188.743 67.2925 189.194 67.2779C189.631 67.2455 190.067 67.3458 190.445 67.5658C190.802 67.7826 190.983 68.1387 190.988 68.634L191.03 70.8893V71.4324C191.03 71.9576 191.03 72.5235 191.03 73.1332C191.03 73.743 191.069 74.3365 191.123 74.9218L191.227 76.7495C191.227 76.9999 191.082 77.2259 190.777 77.4275C190.443 77.6373 190.066 77.7675 189.674 77.808C189.267 77.8639 188.852 77.7851 188.493 77.5836C188.136 77.3842 187.907 77.0048 187.807 76.4454C187.609 75.0991 187.461 73.7712 187.365 72.4617C187.269 71.1768 187.245 69.8875 187.292 68.5999C187.312 68.4039 187.379 68.2158 187.488 68.0518C187.597 67.8877 187.745 67.7527 187.918 67.6584Z" fill="white"/>
<path d="M191.529 69.2243C191.501 68.9302 191.501 68.634 191.529 68.3398C191.555 68.0146 191.607 67.6276 191.682 67.1561L201.312 66.7886C201.529 66.8455 201.656 67.0162 201.693 67.2991C201.731 67.6106 201.726 67.9258 201.677 68.2357C201.627 68.5772 201.576 68.8699 201.524 69.1138C201.503 69.1943 201.488 69.2764 201.48 69.3593L198.829 69.4374L198.341 77.6683C198.33 77.7609 198.19 77.8683 197.922 77.9935C197.62 78.1244 197.306 78.2241 196.985 78.291C196.676 78.3673 196.357 78.3909 196.04 78.3609C195.767 78.33 195.62 78.2081 195.603 77.9983L195.289 69.6894L191.755 69.7674C191.633 69.6748 191.558 69.4943 191.529 69.2243Z" fill="white"/>
<path d="M205.193 66.543C205.476 66.5372 205.758 66.5801 206.027 66.6698C206.128 66.6972 206.221 66.7461 206.3 66.8132C206.38 66.8804 206.444 66.9641 206.487 67.0585C206.866 68.0568 207.245 69.149 207.626 70.3349C208.006 71.5208 208.372 72.7202 208.724 73.9332C209.075 75.0942 209.413 76.1934 209.738 77.2308C209.774 77.33 209.688 77.4731 209.481 77.6601C208.94 78.1152 208.3 78.4396 207.613 78.608C207.297 78.6944 206.962 78.6854 206.652 78.582C206.372 78.4796 206.19 78.2389 206.108 77.8601L205.726 75.6747C205.687 75.4508 205.632 75.2297 205.564 75.0129C205.514 74.8537 205.442 74.7021 205.351 74.5625C205.318 74.5063 205.272 74.4588 205.217 74.424C205.162 74.3892 205.1 74.3681 205.035 74.3625C204.966 74.3711 204.901 74.3963 204.844 74.436C204.788 74.4756 204.741 74.5286 204.71 74.5902C204.617 74.7419 204.546 74.9061 204.5 75.078C204.437 75.3124 204.387 75.5502 204.35 75.7902L204.063 77.7593C203.981 78.2129 203.754 78.4942 203.38 78.5983C202.973 78.7037 202.547 78.7009 202.142 78.5902C201.737 78.4975 201.348 78.3458 200.987 78.1398C200.67 77.9495 200.522 77.7853 200.547 77.6519C200.914 76.2427 201.264 74.7907 201.595 73.2958C201.823 72.2639 202.058 71.2509 202.3 70.2568C202.541 69.2628 202.799 68.3197 203.074 67.4276C203.162 67.1479 203.417 66.9311 203.84 66.7771C204.273 66.6166 204.731 66.5373 205.193 66.543ZM205.087 70.1202H205.061C204.997 70.1295 204.936 70.1542 204.884 70.1922C204.831 70.2301 204.789 70.2802 204.76 70.3381C204.681 70.4833 204.626 70.6404 204.598 70.8032C204.562 70.9835 204.539 71.166 204.528 71.3495C204.516 71.5332 204.513 71.7463 204.52 71.9918L205.658 71.9479C205.658 71.704 205.658 71.491 205.635 71.3089C205.62 71.1269 205.594 70.9461 205.557 70.7674C205.53 70.6074 205.475 70.4533 205.395 70.3121C205.365 70.256 205.32 70.2087 205.267 70.175C205.213 70.1414 205.151 70.1225 205.087 70.1202Z" fill="white"/>
<path d="M210.503 74.3788C210.433 73.1788 210.395 72.0335 210.389 70.943C210.389 70.7381 210.389 70.478 210.389 70.1642C210.389 69.6211 210.4 69.0601 210.407 68.4796C210.413 67.8991 210.418 67.4812 210.424 67.2259C210.427 67.1074 210.469 66.9931 210.542 66.8999C210.615 66.8067 210.717 66.7397 210.831 66.7089C211.135 66.6159 211.455 66.5877 211.771 66.6259C212.151 66.6593 212.526 66.7251 212.895 66.8227C213.22 66.9032 213.536 67.0148 213.84 67.156C214.093 67.278 214.228 67.3853 214.246 67.4812C214.246 68.0048 214.229 68.6899 214.194 69.5365C214.165 70.3289 214.143 71.1376 214.129 71.9625C214.115 72.7875 214.115 73.5062 214.129 74.1186C214.15 74.7316 214.204 75.1186 214.292 75.2829C214.466 75.4455 214.789 75.5219 215.268 75.4959C215.746 75.4698 216.255 75.4129 216.816 75.3251C217.206 75.2677 217.57 75.2211 217.909 75.1853C218.037 75.1853 218.176 75.3268 218.328 75.6097C218.492 75.9306 218.608 76.2742 218.67 76.6292C218.746 76.991 218.734 77.3659 218.634 77.7219C218.588 77.8828 218.499 78.0278 218.375 78.1407C218.252 78.2536 218.099 78.3298 217.935 78.3609C216.82 78.6514 215.266 78.794 213.272 78.7885C212.864 78.8009 212.457 78.7403 212.07 78.6097C211.788 78.513 211.53 78.3579 211.312 78.1544C211.145 77.9973 211.007 77.8124 210.903 77.6081C210.806 77.4015 210.738 77.1827 210.701 76.9577C210.637 76.4395 210.571 75.5799 210.503 74.3788Z" fill="white"/>
</svg>
