<svg width="230" height="142" viewBox="0 0 230 142" fill="none" xmlns="http://www.w3.org/2000/svg">
<path d="M28.2396 58.8909C26.1046 58.7535 24.2832 58.645 22.4629 58.5122C21.7323 58.4603 21.3292 58.0089 21.3792 57.3751C21.4279 56.7643 21.8856 56.3868 22.5686 56.4307C24.3668 56.5438 26.1646 56.6654 27.962 56.7955C28.7055 56.8498 29.112 57.2677 29.0853 57.9015C29.0609 58.5041 28.5939 58.9001 28.2396 58.8909Z" fill="#EE7024"/>
<path d="M56.2733 111.714L60.2403 78.4107C60.2403 78.4107 44.3737 77.165 41.2374 88.1625C38.101 99.16 37.375 110.78 37.375 110.78C37.375 110.78 37.5829 128.832 39.7761 137.448C41.9692 146.064 57.2084 136.409 57.2084 136.409L56.6869 125.824C56.6869 125.824 56.6869 125.149 59.8709 123.023C63.0549 120.896 66.6559 118.509 66.6559 118.509L68.4308 116.071L69.7365 113.01L69.5274 111.921L68.4819 111.299L65.6685 112.492L60.3704 114.308L58.4653 114.281L56.7949 113.684L56.2733 111.714Z" fill="#FBFBFB"/>
<path d="M152.418 136.613L153.079 131.426C153.079 131.426 153.705 129.002 151.756 127.483C149.806 125.965 145.492 124.579 144.727 123.61C143.961 122.642 141.939 121.532 140.622 119.183C139.816 117.747 139.141 116.242 138.603 114.687L138.394 113.062L139.124 112.474L140.518 112.717L147.755 116.9C147.755 116.9 150.853 118.872 152.169 115.76C153.485 112.647 152.586 110.641 152.586 110.641L151.925 104.312L150.531 94.4564C150.531 94.4564 149.975 87.8505 150.74 85.9133C151.506 83.9761 151.506 83.3884 151.506 83.3884C151.506 83.3884 152.758 82.04 153.768 84.1492C154.777 86.2585 155.403 90.8244 155.403 90.8244C155.403 90.8244 155.508 90.3395 156.969 91.4813C157.945 92.2247 158.982 92.8844 160.07 93.4531L158.507 87.5088L158.402 84.9493C158.402 84.9493 159.516 83.1506 161.29 85.9525C163.064 88.7544 165.675 94.3201 165.675 94.3201L167.867 95.4273C167.867 95.4273 169.694 97.7616 170.321 101.86C170.947 105.958 171.991 111.096 171.991 111.096L171.886 121.003C171.886 121.003 171.26 131.535 170.53 135.58L170.007 140.198C170.007 140.198 159.307 144.342 152.418 136.613Z" fill="#FBFBFB"/>
<path d="M149.733 93.4902C149.144 93.9716 148.585 94.4981 147.959 94.9264C144.775 97.0988 141.395 98.9735 137.863 100.527C137.243 100.801 136.61 101.047 135.984 101.306C135.403 99.3838 134.809 97.4639 134.259 95.5336C134.204 95.3397 134.346 95.0072 134.507 94.8502C135.923 93.4648 137.365 92.1095 138.805 90.7437C140.083 89.5246 141.361 88.3055 142.661 87.0667C142.49 86.8878 142.371 86.7516 142.241 86.628C139.686 84.1956 137.137 81.7585 134.575 79.3422C134.269 79.0547 134.169 78.8273 134.295 78.4186C135.053 75.9064 135.784 73.3874 136.52 70.8695C136.828 69.8143 137.126 68.7556 137.433 67.6785C137.201 67.615 137.052 67.5688 136.899 67.5308C133.428 66.6811 129.958 65.8268 126.484 64.9909C126.136 64.9066 125.947 64.79 125.857 64.4137C125.286 62.0135 124.685 59.6215 124.091 57.2282C123.782 55.9872 123.47 54.7461 123.149 53.4704L112.383 56.569C111.619 56.7895 111.165 56.4155 111.222 55.6235C111.495 52.1001 111.766 48.5759 112.035 45.0509C112.677 44.3882 113.297 43.7036 113.955 43.0617C115.32 41.7364 116.599 40.291 118.113 39.1561C120.163 37.6174 122.319 36.224 124.565 34.9862C127.39 33.4525 130.452 32.3967 133.626 31.8622C135.274 31.5759 136.953 31.4327 138.621 31.3057C144.509 30.8601 150.095 32.0677 155.464 34.4228C159.335 36.1181 162.798 38.6137 165.622 41.7433C166.39 42.5895 166.997 43.5789 167.677 44.5025C167.239 44.7796 166.632 44.9539 166.39 45.3487C165.147 47.3437 163.993 49.3894 162.819 51.4328C162.704 51.6178 162.65 51.8344 162.666 52.0516C163.082 54.4567 163.514 56.858 163.964 59.2555C164.022 59.4859 164.152 59.6921 164.335 59.8443C165.986 61.2296 167.668 62.585 169.304 63.99C169.803 64.4194 170.279 64.7681 170.969 64.6827C170.236 67.6264 169.144 70.4701 167.717 73.1507C166.03 76.3299 164.021 79.3291 161.719 82.1013C161.132 82.809 160.574 83.541 160.002 84.2625C158.715 83.8954 158.072 84.3295 157.952 85.6583C157.924 85.97 157.931 86.284 157.922 86.598C157.37 87.084 156.827 87.5805 156.262 88.0538C155.995 88.2778 155.688 88.4567 155.399 88.6564C155.283 88.1739 155.222 87.6705 155.051 87.2122C154.558 85.9342 154.121 84.6158 153.463 83.4278C152.902 82.4258 151.836 82.517 151.225 83.5086C150.928 83.9882 150.704 84.5093 150.562 85.0545C150.337 85.9411 150.214 86.8532 150.046 87.7548C148.484 87.6901 147.799 88.4729 148.009 90.0118C148.192 91.3752 148.972 92.4235 149.733 93.4902Z" fill="#EBEAEA"/>
<path d="M37.5619 104.851C34.7949 104.505 32.1697 103.718 29.8151 102.21C26.5777 100.132 24.4124 97.2837 23.899 93.4232C23.5354 90.6859 24.093 88.0376 25.1767 85.5035C26.5515 82.3404 28.4039 79.4042 30.67 76.7965C33.7087 73.2636 37.2586 70.1989 41.2036 67.7027C44.5485 65.5828 48.1184 63.836 51.8486 62.4938C54.978 61.3578 58.1852 60.5081 61.4772 60.0879C63.8887 59.7672 66.3211 59.6295 68.7536 59.6757C71.5252 59.7438 74.226 60.4446 76.8849 61.2331C78.2568 61.6395 79.6461 61.987 81.0226 62.3876C81.2874 62.4638 81.5256 62.6358 81.7753 62.7639C81.6522 63.3146 81.5674 63.8803 81.3862 64.4114C81.3367 64.5342 81.2617 64.6452 81.166 64.7371C81.0703 64.829 80.9561 64.8998 80.8309 64.9447C78.6239 65.5139 76.4168 66.0449 74.2097 66.5875L69.8293 67.6646C69.8978 67.9209 69.9454 68.1137 70.0023 68.3054C70.9862 71.6707 71.962 75.0394 72.9645 78.4001C73.0806 78.7764 73.0481 79.0143 72.7542 79.2867C71.5554 80.395 70.3694 81.5275 69.1834 82.6601C67.6524 84.1224 66.1229 85.5847 64.595 87.0471C64.6833 87.1463 64.7391 87.2179 64.8053 87.2779C67.4119 89.7554 70.0128 92.2422 72.6357 94.7C72.997 95.0395 73.1004 95.3292 72.947 95.8118C72.5184 97.1244 72.1455 98.4544 71.7587 99.7786C71.1128 101.987 70.474 104.197 69.8258 106.428C70.0476 106.495 70.2172 106.555 70.3915 106.597C73.8206 107.429 77.245 108.266 80.6799 109.081C81.1283 109.189 81.3478 109.391 81.4547 109.849C81.9914 112.141 82.5606 114.425 83.1251 116.71C83.4469 118.017 83.7814 119.32 84.116 120.648C87.7542 119.594 91.318 118.558 94.8772 117.541C95.1095 117.475 95.4824 117.443 95.609 117.571C96.9007 118.88 98.1553 120.227 99.4191 121.563C98.5769 122.127 97.7696 122.753 96.8868 123.243C94.4474 124.6 91.8314 125.56 89.0598 125.926C83.8871 126.61 79.1861 125.464 75.0577 122.16C72.9296 120.455 71.1791 118.423 69.468 116.339C69.3148 116.173 69.1494 116.019 68.9732 115.878C69.2938 114.806 69.7665 113.755 69.9024 112.661C70.0627 111.327 69.1973 110.779 67.8894 111.223C67.2028 111.454 66.5349 111.742 65.8577 112.004C64.4207 110.037 62.647 108.336 60.6176 106.979C59.5606 106.279 58.3409 105.825 57.1955 105.254C57.1899 105.074 57.1941 104.893 57.2083 104.713C57.6811 101.259 58.2433 97.8148 58.6022 94.3491C58.895 91.5379 58.9902 88.7037 59.0831 85.8776C59.1203 84.7473 58.8706 83.6194 58.1875 82.6543C57.4906 81.6626 56.5764 81.5726 55.7121 82.4234C55.475 82.671 55.2524 82.932 55.0454 83.205C54.5017 83.1207 54.0301 82.9256 53.6236 83.0168C53.188 83.1138 52.7465 83.4151 52.4248 83.7418C51.844 84.3306 51.3479 85.0036 50.8159 85.6432C50.3118 84.0431 49.3314 83.7349 48.085 84.887C47.4152 85.5012 46.8472 86.2165 46.4018 87.0066C45.3563 88.9058 44.427 90.866 43.4373 92.8171C42.8101 92.6809 42.2304 93.0295 41.6949 93.4659C40.0164 94.8328 39.2904 96.7296 38.8292 98.7395C38.3611 100.767 37.9847 102.812 37.5619 104.851Z" fill="#EBEAEA"/>
<path d="M99.4188 121.566C98.1549 120.23 96.9004 118.883 95.6087 117.574C95.4821 117.445 95.1069 117.478 94.8769 117.543C91.313 118.561 87.7538 119.596 84.1157 120.65C83.7811 119.323 83.4466 118.019 83.1248 116.712C82.5603 114.428 81.9911 112.143 81.4544 109.851C81.3475 109.389 81.128 109.191 80.6796 109.084C77.247 108.268 73.8261 107.431 70.3912 106.599C70.2169 106.558 70.0427 106.498 69.8255 106.431C70.4737 104.199 71.1125 101.989 71.7584 99.7808C72.1452 98.4566 72.5181 97.1255 72.9467 95.814C73.1036 95.3315 72.9967 95.0417 72.6354 94.7023C70.0125 92.2409 67.4082 89.7577 64.805 87.2802C64.7388 87.2178 64.6888 87.1463 64.5947 87.0493C66.1257 85.587 67.6552 84.1246 69.1831 82.6623C70.3691 81.5309 71.5516 80.3984 72.7539 79.2855C73.0478 79.013 73.0768 78.7752 72.9642 78.3988C71.9617 75.0382 70.9894 71.6694 70.002 68.3041C69.9463 68.1125 69.8975 67.9197 69.829 67.6634L74.2094 66.5863C76.4165 66.0437 78.6328 65.5126 80.8306 64.9435C80.9558 64.8985 81.07 64.8278 81.1657 64.7358C81.2614 64.6439 81.3364 64.5329 81.3859 64.4101C81.5671 63.879 81.6519 63.3134 81.775 62.7627L84.1006 53.4519C85.6664 53.8963 87.1881 54.3258 88.7087 54.7622C90.7357 55.3394 92.7743 55.9051 94.7828 56.5343C95.3148 56.7005 95.6064 56.5678 95.9537 56.2041C98.4024 53.6412 100.86 51.0875 103.328 48.5431C103.407 48.4622 103.491 48.3872 103.475 48.4034L107.052 51.7421L110.637 55.5449C110.722 54.5451 110.804 53.7232 110.862 52.9C111.018 50.6927 111.163 48.4842 111.313 46.2757C111.442 41.4269 111.696 36.5862 111.669 31.7432C111.634 25.6141 110.639 19.5831 109.361 13.5937C108.508 9.60157 107.871 5.57593 108.05 1.47178C108.05 1.33556 108.012 1.17624 108.069 1.06887C108.147 0.92341 108.302 0.817198 108.418 0.694824C108.512 0.837979 108.686 0.981133 108.688 1.1266C108.709 2.32494 108.579 3.53829 108.722 4.71931C109.087 7.72094 109.398 10.7526 110.036 13.7069C111.746 21.5265 112.515 29.5202 112.328 37.5202C112.266 40.0323 112.137 42.5421 112.04 45.0519C111.768 48.5761 111.497 52.1004 111.227 55.6246C111.165 56.4165 111.619 56.7906 112.388 56.5701L123.146 53.4588C123.467 54.7345 123.779 55.9755 124.088 57.2166C124.682 59.6098 125.283 62.0019 125.854 64.402C125.944 64.7818 126.13 64.8984 126.481 64.9793C129.955 65.8151 133.425 66.6694 136.896 67.5191C137.049 67.5572 137.2 67.6034 137.43 67.6669C137.122 68.744 136.825 69.8026 136.517 70.8578C135.781 73.3757 135.05 75.8948 134.292 78.4069C134.166 78.8214 134.266 79.0488 134.572 79.3305C137.14 81.7468 139.69 84.1793 142.238 86.6164C142.368 86.7399 142.487 86.8761 142.658 87.0551C141.36 88.2938 140.081 89.5129 138.802 90.732C137.368 92.0978 135.926 93.4555 134.504 94.8385C134.343 94.9955 134.201 95.328 134.256 95.5219C134.806 97.4534 135.4 99.3733 135.981 101.294C136.456 102.987 136.932 104.679 137.428 106.444C135.906 106.82 134.415 107.193 132.922 107.556C130.809 108.079 128.69 108.592 126.566 109.097C126.163 109.193 125.944 109.344 125.832 109.814C124.973 113.414 124.062 117.002 123.153 120.657C121.319 120.132 119.515 119.618 117.713 119.099C115.911 118.579 114.134 118.07 112.356 117.524C111.919 117.39 111.659 117.504 111.366 117.817C108.903 120.402 106.431 122.977 103.949 125.542C103.856 125.639 103.753 125.726 103.805 125.629L99.4188 121.566ZM70.5921 105.98C70.7664 106.031 70.8918 106.073 71.0196 106.104C74.3593 106.92 77.6954 107.745 81.0409 108.537C81.595 108.669 81.8726 108.914 81.998 109.477C82.3825 111.2 82.8205 112.911 83.2433 114.625C83.6661 116.339 84.1052 118.081 84.5443 119.843C84.7313 119.804 84.8626 119.785 84.9892 119.749C88.2905 118.797 91.5953 117.854 94.8896 116.879C95.4344 116.717 95.7841 116.782 96.1849 117.217C97.5881 118.737 99.018 120.238 100.483 121.695C101.545 122.747 102.69 123.716 103.792 124.723C103.706 124.839 103.771 124.813 103.815 124.766C106.282 122.212 108.744 119.655 111.201 117.094C111.488 116.795 111.711 116.686 112.137 116.821C113.635 117.292 115.149 117.71 116.658 118.144C118.645 118.721 120.631 119.286 122.67 119.87C122.741 119.639 122.806 119.45 122.853 119.258C123.675 115.94 124.493 112.621 125.307 109.302C125.402 108.908 125.553 108.698 125.99 108.609C127.436 108.295 128.868 107.916 130.305 107.57L136.64 106.017C136.572 105.754 136.524 105.537 136.459 105.325C135.509 102.065 134.548 98.8087 133.62 95.5439C133.549 95.2945 133.595 94.8835 133.76 94.7196C134.921 93.5651 136.128 92.4557 137.314 91.3266C138.794 89.917 140.267 88.5016 141.804 87.032C141.588 86.8426 141.393 86.6856 141.211 86.5136C138.756 84.1747 136.306 81.8288 133.84 79.5014C133.552 79.2289 133.469 78.9945 133.588 78.6147C133.976 77.3598 134.33 76.0957 134.699 74.835C135.351 72.6045 136.004 70.3741 136.662 68.1229C136.396 68.0536 136.178 67.9924 135.957 67.9382C132.641 67.13 129.326 66.3057 126.006 65.5138C125.629 65.4226 125.415 65.2921 125.319 64.8927C124.781 62.6241 124.219 60.3614 123.661 58.0975C123.347 56.8275 123.025 55.5576 122.698 54.2542C122.398 54.335 122.181 54.3893 121.965 54.4516C118.707 55.3914 115.449 56.3327 112.191 57.2755C111.854 57.3736 111.593 57.4348 111.285 57.1081C109.412 55.1212 107.511 53.1609 105.608 51.2018C104.95 50.5253 104.262 49.8788 103.572 49.2046C101.068 51.8044 98.5836 54.3697 96.1221 56.9568C95.7794 57.317 95.4948 57.4129 95.0023 57.2628C92.6291 56.5435 90.2397 55.8693 87.8584 55.1847C86.7711 54.8719 85.6804 54.5694 84.5675 54.2612C84.4851 54.5301 84.4154 54.7229 84.3677 54.9134C83.5685 58.1667 82.7659 61.4189 81.9818 64.6756C81.8656 65.1559 81.7018 65.4272 81.1408 65.5484C79.094 65.9929 77.067 66.5228 75.033 67.0227C73.5589 67.3852 72.0848 67.7523 70.584 68.124C71.6167 71.6706 72.6203 75.1478 73.6542 78.6182C73.7703 79.0026 73.7262 79.2358 73.4369 79.5071C71.6945 81.1395 69.944 82.7708 68.2341 84.439C67.3303 85.3199 66.5009 86.2746 65.6169 87.219C68.0691 89.551 70.5968 91.9766 73.157 94.3686C73.6495 94.8304 73.7994 95.2126 73.5636 95.8833C73.0838 97.249 72.7295 98.654 72.3241 100.049C71.7526 102.003 71.1764 103.977 70.5921 105.98Z" fill="#322E2A"/>
<path d="M157.923 86.6002C157.932 86.2862 157.923 85.9722 157.953 85.6605C158.07 84.3317 158.717 83.8976 160.004 84.2647C160.725 85.0082 161.563 85.6732 162.147 86.5113C163.657 88.6759 164.702 91.0865 165.632 93.5536C165.709 93.7591 165.855 94.0327 166.032 94.095C167.667 94.6723 168.725 95.8879 169.276 97.3945C170.026 99.4437 170.587 101.571 171.081 103.7C172.319 109.04 172.486 114.475 172.296 119.922C172.111 125.174 171.628 130.412 170.848 135.61C170.603 137.245 170.369 138.879 170.125 140.514C170.089 140.681 170.043 140.845 169.988 141.006L169.432 140.907C169.633 139.603 169.876 138.334 170.013 137.055C170.551 132.125 171.175 127.198 171.537 122.255C171.913 117.186 171.937 112.089 171.062 107.06C170.552 104.126 169.777 101.234 169.025 98.3481C168.702 97.1059 167.925 96.0669 166.897 95.2541C166.682 95.0999 166.459 94.957 166.229 94.8258C166.916 98.4543 167.599 102.055 168.293 105.707L167.644 105.813C167.281 103.698 166.93 101.624 166.57 99.5534C165.757 94.902 164.095 90.5773 161.482 86.6325C161.044 85.9995 160.51 85.4382 159.898 84.9689C159.216 84.4286 158.674 84.6341 158.633 85.4838C158.58 86.5177 158.661 87.554 158.873 88.5674C159.213 90.134 159.716 91.666 160.151 93.2095C160.185 93.3866 160.266 93.5517 160.383 93.6887C161.688 94.8685 162.15 96.4594 162.546 98.0757C163.206 100.753 163.807 103.444 164.429 106.118C163.801 106.369 163.82 106.365 163.688 105.801C163.019 102.938 162.323 100.082 161.669 97.2156C161.298 95.5855 160.368 94.3352 159.086 93.3273C158.11 92.5619 157.081 91.8623 156.076 91.1338L155.813 91.2873L159.509 107.069C159.174 107.3 159.008 107.13 158.916 106.742C157.814 102.047 156.709 97.3564 155.601 92.6693C155.02 90.2275 154.451 87.7824 153.808 85.358C153.652 84.7669 153.28 84.2035 152.904 83.7059C152.508 83.1795 152.061 83.191 151.786 83.7833C151.382 84.6549 150.941 85.59 150.878 86.5217C150.72 88.8676 150.529 91.255 150.778 93.5744C151.305 98.4578 152.146 103.307 152.777 108.18C153.019 110.037 153.087 111.922 153.126 113.797C153.14 114.401 152.893 115.046 152.644 115.614C151.82 117.455 150.06 118.275 148.195 117.498C146.719 116.882 145.361 115.978 143.977 115.161C142.804 114.468 141.694 113.66 140.492 113.012C140.045 112.769 139.309 112.6 138.919 112.803C138.327 113.113 138.571 113.855 138.726 114.42C139.67 117.883 141.671 120.654 144.431 122.927C145.955 124.179 147.666 125.109 149.446 125.943C150.27 126.325 151.066 126.765 151.826 127.261C152.774 127.888 153.327 128.805 153.265 129.962C153.133 132.426 152.953 134.887 152.778 137.351C152.741 137.868 152.644 138.379 152.567 138.944L152.015 138.9C152 138.831 151.991 138.761 151.988 138.691C152.229 136.008 152.482 133.326 152.709 130.642C152.836 129.123 152.17 128.018 150.815 127.323C150.002 126.909 149.189 126.507 148.376 126.111C143.51 123.76 139.934 120.24 138.255 115.028C138.081 114.443 138.008 113.834 138.036 113.225C138.063 112.382 138.617 111.906 139.453 112.07C140.165 112.206 140.848 112.461 141.474 112.825C142.858 113.655 144.159 114.62 145.539 115.46C146.485 116.037 147.465 116.595 148.499 116.974C150.002 117.526 151.305 116.91 152.031 115.493C152.682 114.223 152.717 112.855 152.546 111.507C152.121 108.159 151.602 104.833 151.131 101.494C150.797 99.1193 150.491 96.7399 150.142 94.3675C150.097 94.065 149.866 93.7902 149.722 93.5016C148.958 92.4349 148.178 91.3866 147.991 90.0255C147.781 88.4866 148.466 87.7039 150.029 87.7685C150.196 86.8669 150.319 85.9548 150.545 85.0682C150.687 84.523 150.911 84.002 151.208 83.5224C151.818 82.5307 152.884 82.4395 153.445 83.4416C154.108 84.6295 154.541 85.9479 155.033 87.2259C155.21 87.6877 155.272 88.1876 155.382 88.6702C155.436 89.0045 155.508 89.3355 155.599 89.6619C155.692 89.9424 155.785 90.2991 156 90.4504C157.018 91.1673 158.078 91.8253 159.122 92.5042L159.259 92.5827L159.237 92.4014C158.806 90.4634 158.368 88.5297 157.923 86.6002ZM150.01 92.7905V88.4104C148.939 88.295 148.535 88.6321 148.583 89.6249C148.641 90.7955 149.176 91.7734 150.01 92.7905ZM150.023 92.7743L150.065 92.8043L150.071 92.7547L150.023 92.7743Z" fill="#373435"/>
<path d="M65.8542 112.009C66.5314 111.747 67.1994 111.46 67.8859 111.228C69.1939 110.785 70.0593 111.332 69.899 112.666C69.7665 113.76 69.2938 114.811 68.9697 115.883C66.8521 119.084 63.7192 121.111 60.5305 123.072C59.9497 123.427 59.3387 123.731 58.7602 124.09C57.7938 124.688 57.2827 125.576 57.3187 126.701C57.4197 129.892 57.5603 133.083 57.6857 136.273C57.6985 136.612 57.7194 136.951 57.738 137.324C57.3895 137.452 57.098 137.501 57.0817 137.014C56.9655 133.435 56.8203 129.866 56.7565 126.29C56.7344 125.124 57.393 124.235 58.3769 123.61C60.1797 122.464 62.0197 121.372 63.7807 120.168C65.3234 119.113 66.8114 117.939 67.8383 116.358C68.4562 115.409 68.828 114.298 69.2798 113.247C69.3739 113.03 69.3611 112.754 69.3472 112.509C69.3077 111.792 68.9372 111.508 68.2576 111.745C67.3364 112.065 66.4432 112.467 65.5313 112.814C64.0897 113.366 62.6726 114.025 61.1845 114.4C60.1492 114.64 59.0755 114.666 58.0296 114.478C56.8447 114.275 56.0874 113.343 56.0955 112.148C56.1041 110.112 56.2205 108.078 56.444 106.055C57.0922 100.339 57.8739 94.6381 58.4826 88.9177C58.6406 87.4308 58.4094 85.8919 58.2503 84.3876C58.1945 83.86 57.8728 83.3243 57.5603 82.8672C57.1921 82.3269 56.6693 82.2899 56.2314 82.776C55.7935 83.262 55.3474 83.7988 55.1418 84.3922C54.3577 86.6538 53.5039 88.912 52.9824 91.2394C51.945 95.878 51.1087 100.559 50.1945 105.226C50.0946 105.736 50.1143 105.74 49.4975 105.614C50.7625 98.7192 51.7964 91.7751 54.144 85.123C54.2346 84.8679 54.3891 84.6266 54.4355 84.3657C54.4727 84.1532 54.4681 83.8392 54.3403 83.7203C54.2125 83.6014 53.8315 83.5217 53.6793 83.6141C53.2205 83.8946 52.75 84.2052 52.4085 84.6116C51.0146 86.2867 50.1445 88.2597 49.2513 90.2188C47.7574 93.4987 47.0883 96.9736 46.7631 100.532C46.6086 102.223 46.4378 103.912 46.2694 105.653H45.6944C46.166 99.996 46.4738 94.3287 49.0805 89.1244C49.3837 88.5171 49.7775 87.9295 49.9389 87.2853C50.0916 86.6425 50.1251 85.9774 50.0377 85.3227C49.9738 84.7836 49.4882 84.6173 49.0596 84.9556C48.4788 85.4174 47.8655 85.8953 47.4624 86.4968C45.1942 89.8728 43.6154 93.6588 42.8159 97.6398C42.2943 100.213 41.9644 102.823 41.5451 105.416C41.5126 105.615 41.4591 105.81 41.4057 106.05L40.8388 105.946C41.4975 101.729 41.8924 97.5047 43.4234 93.2643C42.9298 93.4871 42.5487 93.5887 42.2549 93.8058C41.1989 94.5827 40.4102 95.6114 40.0687 96.8547C39.4492 99.1206 38.9005 101.406 38.4227 103.711C37.534 108.002 37.476 112.359 37.6247 116.715C37.804 121.765 38.283 126.799 39.0592 131.792C39.4496 134.32 39.8944 136.839 40.3126 139.362C40.3182 139.452 40.3147 139.542 40.3022 139.631C39.9235 139.784 39.7214 139.762 39.6389 139.293C38.5934 133.382 37.6444 127.455 37.3215 121.458C37.1159 117.635 37.0659 113.801 37.0729 109.973C37.0729 108.262 37.3935 106.552 37.5677 104.841C37.9859 102.803 38.3669 100.757 38.8327 98.7227C39.2974 96.7127 40.0199 94.8159 41.6984 93.449C42.2351 93.0126 42.8148 92.664 43.4409 92.8002C44.4271 90.8492 45.3598 88.8889 46.4053 86.9898C46.8507 86.1997 47.4188 85.4843 48.0885 84.8702C49.3349 83.7157 50.3153 84.0262 50.8194 85.6263C51.3515 84.9868 51.8463 84.3137 52.4283 83.7249C52.75 83.3982 53.1915 83.0969 53.6271 82.9999C54.0336 82.9087 54.5052 83.1038 55.0489 83.1881C55.2559 82.9151 55.4785 82.6542 55.7157 82.4065C56.5799 81.5615 57.4906 81.6515 58.1911 82.6374C58.8741 83.6026 59.1203 84.7305 59.0867 85.8607C58.9937 88.6868 58.8985 91.5176 58.6057 94.3322C58.2445 97.7956 57.6765 101.242 57.2118 104.696C57.1977 104.876 57.1934 105.057 57.199 105.237C57.0143 107.44 56.7762 109.639 56.667 111.846C56.6367 112.317 56.7771 112.784 57.063 113.162C57.3489 113.54 57.7614 113.804 58.2259 113.906C58.8567 114.041 59.585 114.172 60.1716 113.991C62.0848 113.423 63.9608 112.688 65.8542 112.009Z" fill="#363435"/>
<path d="M170.97 64.6851C170.28 64.7705 169.808 64.4219 169.304 63.9924C167.669 62.5874 165.987 61.2344 164.336 59.8467C164.153 59.6946 164.022 59.4884 163.964 59.2579C163.515 56.8605 163.083 54.4592 162.667 52.054C162.651 51.8368 162.705 51.6202 162.82 51.4352C163.993 49.3964 165.143 47.3461 166.391 45.3512C166.637 44.9563 167.24 44.782 167.678 44.5049C169.728 43.7718 171.782 43.0491 173.821 42.286C174.003 42.2179 174.194 41.8877 174.198 41.6765C174.257 39.0951 174.431 36.5033 174.271 33.9346C174.131 31.688 173.585 29.4679 173.261 27.2306C173.145 26.4513 173.163 25.6524 173.121 24.8627L173.327 24.73C173.47 24.8789 173.714 25.0128 173.739 25.1791C174.03 27.122 174.247 29.0766 174.563 31.0149C174.996 33.6302 175.132 36.2857 174.966 38.9311C174.901 39.9482 174.872 40.9676 174.791 41.9836C174.76 42.3738 174.893 42.5366 175.255 42.6636C177.201 43.347 179.142 44.0489 181.071 44.7728C181.373 44.8906 181.63 45.0998 181.806 45.3708C182.991 47.3526 184.153 49.3483 185.29 51.3579C185.443 51.6499 185.499 51.9824 185.451 52.308C185.071 54.6043 184.661 56.8959 184.235 59.1841C184.173 59.4404 184.031 59.6707 183.829 59.8421C182.008 61.3868 180.174 62.9172 178.328 64.4334C178.111 64.5815 177.854 64.6582 177.591 64.6528C175.388 64.677 173.178 64.677 170.97 64.6851ZM174.045 64.0467C175.09 64.0467 176.146 64.079 177.193 64.0282C177.588 64.0128 177.97 63.8797 178.288 63.6461C179.971 62.2907 181.624 60.8961 183.27 59.4958C183.47 59.3248 183.61 59.0946 183.669 58.8389C184.068 56.68 184.446 54.5169 184.803 52.3496C184.843 52.0498 184.788 51.7448 184.645 51.478C183.582 49.6077 182.498 47.7494 181.392 45.903C181.209 45.6082 180.938 45.3777 180.616 45.2438C178.613 44.4888 176.604 43.7615 174.591 43.0618C174.258 42.9562 173.901 42.9562 173.569 43.0618C171.531 43.7684 169.503 44.5072 167.485 45.2646C167.201 45.377 166.959 45.5757 166.795 45.8326C165.682 47.6997 164.589 49.5792 163.517 51.471C163.366 51.719 163.298 52.0086 163.323 52.2976C163.68 54.4184 164.054 56.5357 164.471 58.6472C164.557 59.0273 164.76 59.3713 165.052 59.632C166.671 61.0277 168.319 62.3912 169.978 63.7396C170.224 63.9224 170.52 64.0263 170.827 64.0375C171.901 64.0732 172.973 64.0467 174.045 64.0467Z" fill="#363434"/>
<path d="M60.1482 27.413C61.3865 26.8819 62.5412 26.3589 63.7214 25.896C63.9098 25.8353 64.0779 25.7245 64.2074 25.5755C64.3368 25.4265 64.4226 25.245 64.4555 25.0509C64.7424 23.8237 65.0607 22.6046 65.3848 21.3139C66.6881 21.7041 67.9404 22.1012 69.2019 22.4349C69.5111 22.5035 69.8351 22.4514 70.1068 22.2894C71.1813 21.5667 72.2186 20.7886 73.3361 19.9805C73.9994 20.986 74.701 21.9546 75.2946 22.9821C75.6628 23.624 76.1391 23.8041 76.8349 23.8191C77.9686 23.8433 79.1012 23.9611 80.2976 24.0431C80.1397 25.3072 80.0014 26.5171 79.833 27.7212C79.7621 28.2234 79.8458 28.5871 80.2442 28.975C81.1387 29.8454 81.9483 30.8013 82.8242 31.7572C82.0273 32.503 81.098 33.3931 80.1431 34.2567C79.8516 34.5199 79.7041 34.7531 79.761 35.1802C79.9294 36.4502 80.0305 37.7385 80.1652 39.0985C78.8491 39.1759 77.562 39.2775 76.2726 39.3121C75.8277 39.3236 75.5757 39.4679 75.3433 39.8316C74.6464 40.9122 73.9018 41.9651 73.1525 43.0641C72.0746 42.256 71.0314 41.4929 70.008 40.7021C69.8759 40.5833 69.7129 40.5037 69.5376 40.4723C69.3623 40.4408 69.1816 40.4589 69.016 40.5243C67.7859 40.9087 66.536 41.2285 65.2257 41.5933C64.919 40.3049 64.5938 39.0673 64.3405 37.8159C64.2511 37.3737 64.0431 37.1659 63.654 36.9997C62.4692 36.4975 61.2994 35.9607 60.082 35.4204C60.6628 34.2786 61.1937 33.1795 61.7908 32.1186C62.0789 31.606 62.0498 31.2042 61.7757 30.6974C61.2042 29.6492 60.7093 28.5593 60.1482 27.413ZM60.9289 35.1225C62.044 35.6212 63.0883 36.1142 64.1547 36.5517C64.5786 36.7249 64.7866 36.957 64.8784 37.4095C65.1107 38.5559 65.4057 39.6896 65.6787 40.8383C66.8891 40.4989 68.0368 40.2068 69.1635 39.8443C69.5759 39.7115 69.8431 39.8027 70.1521 40.0394C71.0883 40.7598 72.0409 41.4606 73.0073 42.1844C73.6079 41.3024 74.2259 40.4862 74.7393 39.6088C75.111 38.9738 75.5617 38.6956 76.3052 38.6956C77.3646 38.6956 78.4228 38.5871 79.5019 38.5236C79.3718 37.3102 79.2626 36.1823 79.1233 35.0602C79.0652 34.5984 79.1732 34.267 79.553 33.9426C80.415 33.2084 81.22 32.4095 81.9924 31.6845C81.1596 30.814 80.3917 29.9459 79.5472 29.1597C79.1732 28.8133 79.114 28.5039 79.1837 28.0398C79.3521 26.9246 79.459 25.8013 79.5984 24.6134C78.3891 24.5256 77.2345 24.4148 76.0775 24.3709C75.6128 24.3536 75.3433 24.1989 75.1029 23.811C74.4884 22.8193 73.8251 21.8553 73.1746 20.8625C72.1292 21.6152 71.158 22.3356 70.1544 23.0086C69.9187 23.1473 69.6384 23.1907 69.3715 23.1299C68.1959 22.8158 67.0331 22.451 65.8181 22.0908C65.5312 23.2372 65.2303 24.3282 64.9957 25.4319C64.8888 25.9295 64.6472 26.1973 64.1825 26.3809C63.1139 26.7999 62.0649 27.2686 60.9881 27.727C61.5538 28.8814 62.0986 29.9528 62.5934 31.0438C62.6957 31.2968 62.6957 31.5793 62.5934 31.8323C62.0812 32.9117 61.5178 33.9715 60.9289 35.1225Z" fill="#363334"/>
<path d="M111.315 46.2793C111.166 48.4878 111.02 50.6963 110.865 52.9036C110.807 53.7268 110.725 54.5488 110.639 55.5485L107.055 51.7457C108.258 50.1422 109.457 48.534 110.668 46.9373C110.87 46.7042 111.086 46.4844 111.315 46.2793Z" fill="#E9E9E8"/>
<path d="M195.254 81.1501C195.254 80.2877 195.245 79.4265 195.254 78.5641C195.265 77.8783 195.656 77.435 196.244 77.4027C196.832 77.3704 197.322 77.7721 197.336 78.4556C197.373 80.3373 197.372 82.2191 197.352 84.1009C197.355 84.2328 197.332 84.364 197.282 84.4865C197.233 84.609 197.158 84.72 197.064 84.8129C196.97 84.9058 196.857 84.9786 196.734 85.0266C196.61 85.0747 196.478 85.0972 196.345 85.0925C195.742 85.0729 195.327 84.7543 195.299 84.1401C195.26 83.145 195.289 82.1464 195.289 81.1501H195.254Z" fill="#EE7024"/>
<path d="M33.4745 62.0102C33.4745 61.1028 33.456 60.1954 33.4804 59.2891C33.4989 58.5803 33.9636 58.1289 34.5804 58.1554C35.1612 58.1808 35.5713 58.6299 35.5806 59.3156C35.605 61.0843 35.627 62.8541 35.6189 64.6262C35.6189 65.6213 34.7605 66.2078 34.0449 65.6895C33.7661 65.4874 33.5663 65.0268 33.5373 64.6666C33.4653 63.7869 33.514 62.898 33.514 62.0113L33.4745 62.0102Z" fill="#EE7024"/>
<path d="M188.448 79.752C187.403 79.752 186.93 78.8619 187.424 78.0781C188.028 77.1187 188.685 76.1905 189.32 75.2484C189.712 74.6643 190.09 74.0697 190.501 73.4983C190.892 72.9522 191.485 72.8437 191.992 73.1877C192.457 73.504 192.59 74.0997 192.239 74.632C191.215 76.1866 190.173 77.7298 189.112 79.2614C188.936 79.5131 188.591 79.6504 188.448 79.752Z" fill="#EE7024"/>
<path d="M57.2564 53.7545C56.2563 53.7476 55.7359 52.8967 56.1854 52.1936C57.2111 50.5866 58.2868 49.0108 59.3717 47.4418C59.4518 47.3301 59.5535 47.2355 59.671 47.1637C59.7886 47.0918 59.9194 47.0441 60.0558 47.0234C60.1922 47.0027 60.3314 47.0095 60.4651 47.0433C60.5988 47.0771 60.7243 47.1373 60.8342 47.2202C60.9434 47.2938 61.0367 47.3884 61.1085 47.4984C61.1804 47.6084 61.2294 47.7315 61.2526 47.8606C61.2759 47.9897 61.273 48.1221 61.244 48.25C61.215 48.3779 61.1606 48.4988 61.084 48.6056C60.0478 50.1791 58.9931 51.7446 57.9174 53.2881C57.7443 53.5409 57.3889 53.6644 57.2564 53.7545Z" fill="#EE7024"/>
<path d="M187.42 94.3853C186.855 94.3553 186.512 94.1013 186.417 93.5865C186.312 93.0231 186.533 92.6167 187.074 92.395C188.584 91.7739 190.094 91.1532 191.605 90.5329C191.87 90.4044 192.147 90.3015 192.433 90.2258C192.996 90.1104 193.416 90.3413 193.625 90.8815C193.834 91.4218 193.65 91.8952 193.18 92.1007C191.373 92.888 189.538 93.6119 187.711 94.353C187.616 94.3789 187.518 94.3899 187.42 94.3853Z" fill="#EE7024"/>
<path d="M174.368 80.1943C174.502 80.2994 174.877 80.4679 175.054 80.7566C176.013 82.3174 176.932 83.9037 177.842 85.49C178.175 86.0672 178.02 86.6641 177.514 86.9677C176.985 87.284 176.381 87.1062 176.018 86.4932C175.105 84.9566 174.194 83.4177 173.305 81.8683C172.835 81.044 173.261 80.2036 174.368 80.1943Z" fill="#EE7024"/>
<path d="M196.51 62.9106C196.207 62.6797 195.793 62.5296 195.697 62.2594C195.573 61.9293 195.581 61.4213 195.759 61.1304C196.584 59.8004 197.488 58.5178 198.366 57.2202C198.533 56.9501 198.715 56.6889 198.909 56.4374C199.075 56.2315 199.314 56.0965 199.577 56.0605C199.84 56.0244 200.107 56.0899 200.323 56.2435C200.787 56.5898 200.92 57.1105 200.623 57.5723C199.564 59.2128 198.463 60.8256 197.346 62.4268C197.193 62.637 196.857 62.7155 196.51 62.9106Z" fill="#EE7024"/>
<path d="M44.9694 60.1062C44.6697 59.8199 44.2643 59.5844 44.0959 59.2369C43.8636 58.7624 44.0773 58.251 44.571 58.0398C46.363 57.2701 48.1685 56.532 49.9876 55.8255C50.5115 55.6212 50.9994 55.8347 51.2329 56.3658C51.4582 56.8784 51.3699 57.4302 50.8437 57.6588C49.0142 58.4519 47.1556 59.1781 45.3063 59.9273C45.241 59.9464 45.1741 59.9595 45.1065 59.9666C45.06 60.0127 45.0147 60.0589 44.9694 60.1062Z" fill="#EE7024"/>
<path d="M49.2935 38.6547C49.2935 39.2227 49.0612 39.6002 48.5512 39.7191C47.9704 39.8542 47.5186 39.6718 47.2735 39.0888C46.6903 37.6872 46.1049 36.2869 45.5171 34.8876C45.3951 34.5956 45.2557 34.3104 45.1523 34.0091C44.9328 33.3753 45.1663 32.7934 45.7053 32.5845C46.2663 32.3674 46.8193 32.6053 47.0864 33.2298C47.7973 34.8969 48.4897 36.572 49.1843 38.246C49.2319 38.379 49.2685 38.5157 49.2935 38.6547Z" fill="#EE7024"/>
<path d="M200.031 74.5212C199.732 74.8144 199.481 75.2139 199.122 75.3755C198.641 75.5891 198.187 75.3443 197.912 74.8791C197.266 73.7892 196.624 72.6967 195.985 71.6015C195.687 71.0947 195.376 70.5937 195.102 70.0742C194.809 69.5154 194.967 68.9474 195.459 68.653C195.575 68.5798 195.705 68.531 195.84 68.5095C195.976 68.4881 196.115 68.4944 196.248 68.5281C196.381 68.5618 196.506 68.6223 196.615 68.7057C196.724 68.7891 196.815 68.8937 196.882 69.0132C197.861 70.6422 198.812 72.2873 199.767 73.9301C199.832 74.0731 199.882 74.2225 199.916 74.3757L200.031 74.5212Z" fill="#EE7024"/>
<path d="M191.374 64.5349C191.374 65.3973 191.383 66.2597 191.374 67.121C191.364 67.8344 190.932 68.2893 190.312 68.2754C189.692 68.2616 189.327 67.839 189.318 67.1394C189.295 65.3708 189.283 63.6021 189.263 61.8289C189.256 61.2851 189.421 60.8383 189.974 60.6351C190.684 60.3754 191.349 60.8937 191.368 61.7446C191.391 62.6728 191.374 63.6033 191.374 64.5349Z" fill="#EE7024"/>
<path d="M202.196 83.0571C202.341 83.1726 202.711 83.3504 202.893 83.6424C203.842 85.1825 204.752 86.748 205.655 88.3146C206.019 88.9415 205.877 89.543 205.343 89.8477C204.791 90.1629 204.231 89.9921 203.854 89.3583C202.939 87.8228 202.029 86.285 201.135 84.7404C200.671 83.9357 201.119 83.0606 202.196 83.0571Z" fill="#EE7024"/>
<path d="M53.747 42.7973C53.531 43.1794 53.4276 43.49 53.2197 43.707C51.9488 45.01 50.6629 46.2996 49.3619 47.5757C48.888 48.0375 48.263 48.0317 47.8332 47.5999C47.7363 47.5026 47.6599 47.387 47.6084 47.26C47.5569 47.133 47.5314 46.9971 47.5333 46.8602C47.5353 46.7232 47.5646 46.5881 47.6197 46.4626C47.6748 46.337 47.7545 46.2237 47.8541 46.1291C49.1575 44.7934 50.4608 43.4507 51.8246 42.1808C52.0731 41.9499 52.6377 41.8911 52.9978 41.9869C53.2894 42.0654 53.4845 42.496 53.747 42.7973Z" fill="#EE7024"/>
<path d="M67.6752 55.8178C65.9456 55.6908 64.2159 55.5742 62.4886 55.4299C61.8032 55.3722 61.4025 54.9104 61.4559 54.3262C61.5094 53.742 61.9636 53.3437 62.657 53.3864C64.4564 53.5019 66.2581 53.6358 68.0504 53.7674C68.7904 53.8205 69.2121 54.2292 69.183 54.8503C69.154 55.4714 68.7091 55.8247 67.9494 55.8178H67.6752Z" fill="#EE7024"/>
<path d="M44.3511 43.5019C44.0781 43.794 43.8574 44.1946 43.5217 44.3527C43.0199 44.594 42.5378 44.3862 42.2439 43.8909C41.5144 42.6614 40.7942 41.4273 40.0705 40.1966C39.8382 39.8053 39.5908 39.4231 39.3956 39.0145C39.2769 38.7786 39.2538 38.5065 39.3309 38.2542C39.4081 38.0019 39.5798 37.7886 39.8105 37.6583C40.0412 37.5281 40.3134 37.4907 40.571 37.554C40.8286 37.6173 41.0519 37.7764 41.195 37.9985C42.18 39.6298 43.1349 41.2784 44.0932 42.9258C44.1564 43.0709 44.2024 43.2227 44.2303 43.3783L44.3511 43.5019Z" fill="#EE7024"/>
<path d="M189.019 86.1972C187.448 86.0968 185.882 86.0021 184.306 85.8924C183.528 85.837 183.101 85.396 183.157 84.738C183.213 84.0799 183.697 83.7509 184.491 83.8063C186.175 83.9225 187.859 84.038 189.544 84.1526C190.439 84.2092 190.902 84.5937 190.867 85.2783C190.832 85.9629 190.338 86.2861 189.43 86.2157C189.293 86.2064 189.156 86.203 189.019 86.1972Z" fill="#EE7024"/>
<path d="M41.9721 50.244C40.4934 50.1447 39.0135 50.0512 37.5359 49.945C36.7995 49.8919 36.401 49.4774 36.4324 48.8332C36.4637 48.189 36.897 47.8427 37.6579 47.8889C39.3875 47.9951 41.1183 48.0955 42.8468 48.2225C43.1535 48.2456 43.5531 48.2999 43.7285 48.4973C43.9538 48.7524 44.1606 49.213 44.077 49.4994C43.984 49.8145 43.5937 50.1493 43.2638 50.2625C42.877 50.3929 42.4101 50.2925 41.9779 50.2925L41.9721 50.244Z" fill="#EE7024"/>
<path d="M206.958 65.0883C205.41 64.9867 203.862 64.8898 202.311 64.7835C201.449 64.7235 201.058 64.3437 201.101 63.6348C201.143 62.956 201.621 62.6455 202.483 62.7113C204.166 62.8325 205.852 62.9237 207.534 63.0657C207.874 63.0946 208.314 63.2008 208.503 63.4351C208.691 63.6695 208.815 64.2017 208.689 64.4741C208.547 64.7755 208.115 64.9914 207.759 65.1299C207.527 65.2199 207.223 65.1068 206.946 65.0837L206.958 65.0883Z" fill="#EE7024"/>
<path d="M70.5926 105.981C71.1734 103.975 71.7542 102.001 72.3292 100.028C72.7347 98.637 73.0889 97.2285 73.5687 95.8628C73.801 95.1921 73.6547 94.8088 73.1621 94.3481C70.6066 91.9561 68.0742 89.5305 65.6221 87.1985C66.5061 86.2542 67.3355 85.2994 68.2392 84.4185C69.9491 82.7503 71.6973 81.1191 73.4421 79.4866C73.7313 79.2153 73.7731 78.9821 73.6593 78.5977C72.6255 75.1274 71.6218 71.6501 70.5891 68.1036C72.09 67.7318 73.564 67.3647 75.0381 67.0022C77.0721 66.5023 79.1038 65.9724 81.1459 65.5279C81.707 65.4125 81.8708 65.1354 81.9869 64.6551C82.771 61.3984 83.5737 58.1462 84.3729 54.8929C84.4205 54.699 84.4891 54.5097 84.5727 54.2407C85.6855 54.5547 86.7798 54.8572 87.8636 55.1642C90.2472 55.85 92.6343 56.5242 95.0075 57.2423C95.5 57.3924 95.7846 57.2965 96.1273 56.9364C98.5888 54.3492 101.073 51.784 103.577 49.1841C104.267 49.8583 104.956 50.5048 105.613 51.1813C107.516 53.1439 109.417 55.1007 111.29 57.0876C111.598 57.4143 111.859 57.3531 112.196 57.255C115.453 56.3106 118.711 55.3694 121.97 54.4312C122.186 54.3688 122.403 54.3157 122.703 54.2337C123.03 55.5418 123.352 56.8082 123.666 58.077C124.224 60.3409 124.787 62.6037 125.325 64.8722C125.42 65.2716 125.635 65.4021 126.011 65.4933C129.331 66.2899 132.646 67.1096 135.963 67.9177C136.183 67.9719 136.402 68.0331 136.668 68.1024C136.009 70.3536 135.356 72.5841 134.705 74.8145C134.335 76.0752 133.981 77.3393 133.593 78.5942C133.477 78.9741 133.557 79.2084 133.845 79.4809C136.311 81.8083 138.761 84.1542 141.217 86.4931C141.398 86.6651 141.593 86.8222 141.809 87.0115C140.272 88.4811 138.799 89.8977 137.319 91.3061C136.133 92.4352 134.925 93.5435 133.765 94.6991C133.6 94.863 133.555 95.2763 133.625 95.5234C134.555 98.7882 135.514 102.045 136.464 105.304C136.527 105.519 136.581 105.736 136.646 105.997L130.31 107.55C128.873 107.896 127.441 108.276 125.995 108.589C125.558 108.683 125.407 108.893 125.312 109.281C124.503 112.602 123.686 115.921 122.858 119.237C122.811 119.429 122.742 119.616 122.675 119.849C120.636 119.265 118.65 118.695 116.664 118.123C115.153 117.689 113.643 117.271 112.143 116.8C111.716 116.665 111.493 116.775 111.206 117.074C108.755 119.641 106.293 122.199 103.821 124.745C103.777 124.793 103.711 124.82 103.797 124.703C102.692 123.696 101.55 122.726 100.488 121.674C99.0186 120.218 97.584 118.717 96.19 117.196C95.7893 116.761 95.4396 116.696 94.8948 116.858C91.6005 117.834 88.2957 118.777 84.9944 119.728C84.8677 119.765 84.7365 119.783 84.5495 119.823C84.1104 118.061 83.6759 116.334 83.2484 114.604C82.821 112.875 82.3877 111.179 82.0032 109.457C81.8777 108.893 81.6001 108.649 81.046 108.517C77.7006 107.725 74.3644 106.901 71.0248 106.083C70.8923 106.075 70.7669 106.034 70.5926 105.981ZM96.01 109.467C96.3794 109.202 96.8312 109.041 96.995 108.731C97.886 107.048 98.7746 105.359 99.5355 103.619C101.35 99.4717 102.984 95.244 104.894 91.1364C107.504 85.5084 110.334 79.9796 112.992 74.3723C114.019 72.2077 114.85 69.9507 115.725 67.7168C115.841 67.4166 115.809 66.8637 115.609 66.6709C114.763 65.8523 113.829 65.1239 112.924 64.3688C112.591 64.0906 112.238 64.0883 111.961 64.4231C111.602 64.856 111.205 65.2866 110.968 65.7854C109.11 69.6921 107.239 73.5931 105.471 77.539C102.767 83.5746 100.151 89.6483 97.4806 95.6966C95.8044 99.4925 94.2861 103.341 93.2093 107.357C93.0932 107.782 92.9863 108.203 93.4602 108.422C94.2478 108.788 95.0749 109.091 96.01 109.469V109.467ZM120.278 100.184C120.363 98.4096 119.687 97.1616 117.941 96.5278C117.338 96.3135 116.785 95.9801 116.315 95.5476C114.978 94.2708 113.514 94.3689 111.94 94.9473C111.545 95.0916 111.078 95.2452 110.689 95.1678C109.401 94.9138 108.579 95.5061 107.944 96.4966C106.865 98.1798 106.384 100.059 106.232 102.022C106.056 104.307 106.731 106.27 108.774 107.511C109.821 108.145 110.938 108.658 112.102 109.041C114.038 109.681 115.75 109.145 117.14 107.673C119.127 105.57 120.047 103.014 120.278 100.186V100.184ZM87.1875 72.3001C87.2444 73.9163 87.3501 75.2924 88.4746 76.2807C89.4206 77.1322 90.4251 77.9172 91.4808 78.63C92.1074 79.0512 92.8181 79.3328 93.5643 79.4556C94.3106 79.5783 95.0747 79.5393 95.8044 79.3412C97.9266 78.8043 99.5215 77.5725 100.641 75.7184C101.934 73.5873 101.687 71.7725 99.7945 70.1516C98.188 68.7743 96.5838 67.3878 94.889 66.1236C93.3081 64.9449 91.137 64.8145 89.5967 66.4042C87.9344 68.1139 87.3536 70.2393 87.1875 72.3001Z" fill="#EE7024"/>
<path d="M150.01 92.7909C149.175 91.7738 148.64 90.796 148.582 89.6254C148.534 88.6325 148.938 88.2954 150.01 88.4108V92.7909Z" fill="#FBFBFB"/>
<path d="M150.022 92.7746L150.07 92.7549L150.064 92.8048L150.022 92.7746Z" fill="#FBFBFB"/>
<path d="M174.045 64.0464C172.972 64.0464 171.9 64.0672 170.829 64.0326C170.522 64.0214 170.226 63.9175 169.98 63.7347C168.321 62.3863 166.673 61.0229 165.054 59.6271C164.762 59.3664 164.559 59.0224 164.473 58.6423C164.056 56.5331 163.682 54.4158 163.325 52.2928C163.299 52.0074 163.363 51.721 163.51 51.4742C164.585 49.584 165.677 47.7045 166.788 45.8358C166.952 45.579 167.193 45.3802 167.478 45.2678C169.497 44.5105 171.524 43.767 173.561 43.0651C173.894 42.9594 174.251 42.9594 174.584 43.0651C176.605 43.7624 178.615 44.4885 180.613 45.2435C180.935 45.3775 181.206 45.608 181.389 45.9027C182.498 47.7499 183.583 49.6082 184.642 51.4777C184.785 51.7445 184.841 52.0495 184.8 52.3493C184.447 54.5167 184.069 56.6797 183.666 58.8386C183.608 59.0943 183.468 59.3245 183.268 59.4955C181.622 60.8959 179.969 62.2905 178.286 63.6458C177.967 63.8794 177.586 64.0125 177.19 64.028C176.146 64.0788 175.095 64.0464 174.045 64.0464Z" fill="#FEFEFE"/>
<path d="M60.9297 35.1224C61.5186 33.9679 62.082 32.9116 62.5954 31.8287C62.6977 31.5757 62.6977 31.2932 62.5954 31.0402C62.1006 29.9492 61.55 28.8813 60.9901 27.7234C62.0669 27.2616 63.1158 26.7998 64.1845 26.3773C64.6492 26.1937 64.8954 25.9259 64.9977 25.4283C65.23 24.3246 65.5332 23.2348 65.8201 22.0872C67.0351 22.4498 68.1979 22.8146 69.3735 23.1263C69.6404 23.1871 69.9207 23.1437 70.1564 23.0051C71.1554 22.332 72.123 21.6116 73.1766 20.8589C73.8306 21.8517 74.4904 22.8215 75.1049 23.8074C75.3453 24.1953 75.6172 24.35 76.0795 24.3673C77.2411 24.4112 78.3911 24.522 79.6003 24.6098C79.4609 25.7977 79.3541 26.9187 79.1856 28.0362C79.1159 28.498 79.1752 28.8086 79.5492 29.1561C80.3937 29.9423 81.1616 30.8104 81.9944 31.6809C81.2173 32.4059 80.4123 33.2048 79.555 33.9391C79.1752 34.2635 79.0672 34.5913 79.1252 35.0566C79.2646 36.1799 79.3738 37.3078 79.5039 38.52C78.4248 38.5835 77.3666 38.692 76.3072 38.692C75.5637 38.692 75.113 38.9702 74.7413 39.6052C74.2279 40.4826 73.6099 41.2988 73.0093 42.1808C72.0429 41.457 71.0903 40.7562 70.1541 40.0358C69.8451 39.7991 69.5733 39.7079 69.1655 39.8407C68.0423 40.2032 66.8946 40.4953 65.6807 40.8347C65.4077 39.686 65.1138 38.5523 64.8803 37.4059C64.7886 36.9534 64.5806 36.7213 64.1567 36.5482C63.0891 36.1141 62.0448 35.6211 60.9297 35.1224Z" fill="#FEFEFE"/>
<path d="M96.0102 109.469C95.081 109.091 94.2481 108.788 93.4547 108.419C92.9807 108.199 93.0899 107.778 93.2038 107.353C94.2806 103.341 95.7988 99.4924 97.475 95.693C100.147 89.6447 102.762 83.571 105.466 77.5355C107.234 73.5895 109.106 69.6851 110.963 65.7818C111.195 65.2831 111.597 64.8525 111.956 64.4195C112.232 64.0847 112.585 64.0871 112.919 64.3653C113.824 65.1203 114.758 65.8488 115.603 66.6673C115.804 66.8601 115.836 67.4131 115.719 67.7132C114.846 69.9471 114.013 72.2041 112.986 74.3688C110.328 79.976 107.499 85.5048 104.889 91.1328C102.985 95.2393 101.35 99.4681 99.5358 103.617C98.7749 105.358 97.8863 107.047 96.9953 108.729C96.8315 109.043 96.3796 109.204 96.0102 109.469Z" fill="#FFFEFE"/>
<path d="M120.278 100.186C120.046 103.014 119.127 105.57 117.141 107.675C115.748 109.147 114.04 109.683 112.104 109.043C110.94 108.66 109.823 108.147 108.776 107.514C106.732 106.273 106.057 104.309 106.234 102.024C106.386 100.062 106.867 98.1821 107.946 96.4989C108.58 95.5084 109.403 94.9161 110.691 95.1701C111.08 95.2475 111.547 95.0939 111.942 94.9496C113.516 94.3724 114.98 94.2731 116.317 95.5499C116.787 95.9824 117.34 96.3158 117.943 96.5301C119.687 97.1639 120.363 98.4119 120.278 100.186ZM111.245 103.129L111.337 103.143C111.31 103.48 111.264 103.818 111.264 104.155C111.264 104.516 111.311 104.876 111.332 105.237C111.364 105.779 111.681 106.019 112.192 105.814C112.48 105.685 112.743 105.504 112.968 105.282C114.884 103.534 115.64 101.288 115.706 98.7801C115.715 98.4488 115.549 97.942 115.307 97.8173C115.023 97.6707 114.485 97.7296 114.203 97.9177C113.402 98.45 112.67 99.0838 111.93 99.7003C111.809 99.803 111.754 100.018 111.724 100.19C111.555 101.17 111.398 102.15 111.245 103.129Z" fill="#FFFEFE"/>
<path d="M87.1875 72.2997C87.3536 70.239 87.9344 68.1136 89.5967 66.4038C91.137 64.8141 93.3139 64.9445 94.889 66.1233C96.5838 67.3932 98.188 68.7786 99.7945 70.1512C101.684 71.7675 101.934 73.5869 100.641 75.7181C99.5169 77.5722 97.9266 78.804 95.8044 79.3408C95.0747 79.5389 94.3106 79.578 93.5643 79.4552C92.8181 79.3325 92.1074 79.0509 91.4808 78.6297C90.4251 77.9168 89.4206 77.1318 88.4746 76.2803C87.3536 75.2921 87.2444 73.9102 87.1875 72.2997ZM91.7956 74.7841C91.7736 75.6477 92.0872 75.8636 92.9387 75.5992C94.659 75.0658 95.6104 73.7924 96.2365 72.2166C96.4688 71.6393 96.2458 71.2237 95.7068 70.9224C95.2099 70.6492 94.7315 70.3441 94.2745 70.0092C93.6693 69.5578 93.5322 69.5567 93.1129 70.2101C92.2324 71.6059 91.8653 73.1528 91.7956 74.7841Z" fill="#FFFEFE"/>
<path d="M111.246 103.129C111.404 102.15 111.556 101.166 111.725 100.193C111.755 100.021 111.809 99.8063 111.931 99.7035C112.671 99.087 113.403 98.4532 114.204 97.921C114.486 97.7329 115.024 97.674 115.308 97.8206C115.55 97.9453 115.716 98.4521 115.707 98.7834C115.635 101.291 114.885 103.538 112.969 105.285C112.744 105.508 112.481 105.688 112.193 105.818C111.679 106.018 111.365 105.778 111.333 105.24C111.312 104.879 111.265 104.519 111.265 104.159C111.265 103.822 111.311 103.483 111.338 103.146L111.246 103.129Z" fill="#EE7024"/>
<path d="M91.796 74.7841C91.8657 73.1528 92.2328 71.6058 93.1191 70.21C93.5326 69.5566 93.6697 69.5578 94.2807 70.0092C94.7377 70.3441 95.2161 70.6491 95.713 70.9224C96.252 71.2237 96.4738 71.6347 96.2427 72.2165C95.6142 73.7924 94.6652 75.0658 92.9448 75.5991C92.0876 75.8635 91.7739 75.6476 91.796 74.7841Z" fill="#EE7024"/>
</svg>
