<svg width="268" height="166" viewBox="0 0 268 166" fill="none" xmlns="http://www.w3.org/2000/svg">
<path d="M158.845 42.1668C159.445 42.372 160.042 42.5919 160.647 42.7795C162.638 43.395 164.632 44.0023 166.627 44.6015C166.788 44.6487 166.979 44.6015 167.156 44.5934L168.2 45.0819C169.579 45.6582 170.959 46.2304 172.335 46.8135C176.116 48.4154 179.802 50.2252 183.21 52.5088C186.249 54.5439 189.301 56.6169 192.068 58.9868C194.883 61.3931 197.37 64.1814 199.995 66.8063C200.058 66.8684 200.06 66.9899 200.092 67.083C199.87 67.0614 199.646 67.0452 199.424 67.0182C197.712 66.8009 196.004 66.5283 194.281 66.3731C189.491 65.9269 184.67 65.9219 179.879 66.3583C177.238 66.6053 174.613 66.944 172.084 67.8226C171.107 68.1627 170.451 68.7187 170.2 69.7363C170.051 70.3396 169.839 70.928 169.693 71.5313C167.589 80.3036 166.36 89.2109 165.199 98.1371C164.442 103.95 163.788 109.779 163.197 115.612C162.681 120.7 162.31 125.801 161.9 130.9C161.861 131.399 161.746 131.672 161.248 131.903C152.532 135.951 145.368 141.779 140.341 150.056C140.261 150.167 140.159 150.26 140.04 150.328C139.922 150.396 139.79 150.438 139.654 150.451C137.082 150.52 134.495 150.54 131.917 150.605C131.471 150.616 131.254 150.447 131.041 150.088C127.914 144.802 123.741 140.479 118.775 136.893C114.105 133.535 108.901 130.986 103.38 129.355C102.887 129.206 102.598 129.06 102.546 128.45C102.411 126.812 102.177 125.179 101.96 123.547C101.189 117.762 100.415 111.977 99.6403 106.192C99.6163 105.973 99.6484 105.752 99.7337 105.549C101.885 100.506 102.655 95.1572 103.193 89.7589C103.488 86.8073 103.716 83.8396 103.751 80.8758C103.791 78.2834 103.644 75.6914 103.312 73.1197C102.97 70.5555 101.646 68.523 98.9676 67.7335C98.0765 67.4855 97.1687 67.302 96.2511 67.1842C91.6951 66.5337 87.1391 65.8913 82.5804 65.2853C81.0766 65.0856 79.5552 65.006 78.042 64.8724C78.6592 64.2894 79.2927 63.7239 79.8882 63.1179C84.4086 58.5681 89.5047 54.6255 95.0478 51.3899C101.427 47.6435 108.196 44.7634 115.385 42.9469C118.54 42.1506 121.734 41.4799 124.935 40.8942C126.896 40.553 128.877 40.3443 130.866 40.2693C134.583 40.0992 138.311 39.9103 142.026 39.9994C144.976 40.0669 147.92 40.5001 150.858 40.8321C152.585 41.0278 154.299 41.3449 156.018 41.6067C155.627 42.3544 155.233 43.0994 154.844 43.8484C154.406 44.6973 154.574 45.4828 155.264 45.858C156.006 46.2628 156.735 45.9781 157.225 45.0927C157.767 44.121 158.307 43.1457 158.845 42.1668ZM158.621 56.9719C158.315 56.4887 158.154 56.1203 157.891 55.8476C157.337 55.2714 156.731 54.7477 156.148 54.1998C155.035 53.1566 153.929 52.1066 152.81 51.0701C152.18 50.4884 151.398 50.4763 150.859 51.0107C150.321 51.5451 150.338 52.3805 150.957 53.0081C151.115 53.1674 151.286 53.3158 151.45 53.4697C152.984 54.9092 154.515 56.3461 156.045 57.7803C156.504 58.2121 157.053 58.4551 157.605 58.1015C158.001 57.8464 158.261 57.3848 158.621 56.9719ZM172.448 63.5849C172.91 63.3716 173.239 63.288 173.48 63.0963C175.321 61.6343 177.151 60.1591 178.971 58.671C179.668 58.1015 179.755 57.2971 179.242 56.6992C178.729 56.1014 177.946 56.0744 177.237 56.6412C176.143 57.5157 175.057 58.3957 173.968 59.2797C173.209 59.8937 172.436 60.4943 171.698 61.1273C171.244 61.5213 171.045 62.0868 171.376 62.6118C171.628 63.0059 172.087 63.2704 172.448 63.5876V63.5849ZM135.732 79.1052C135.739 78.2684 135.326 77.738 134.675 77.6206C133.988 77.4965 133.379 77.8636 133.138 78.6193C132.42 80.8686 131.718 83.1238 131.032 85.3848C130.782 86.1946 131.144 86.8802 131.88 87.1096C132.617 87.3391 133.331 86.9463 133.594 86.1042C134.273 83.9448 134.945 81.7855 135.609 79.6261C135.677 79.4075 135.715 79.1875 135.732 79.1092V79.1052ZM131.004 54.3334C131.275 54.8098 131.378 55.1904 131.626 55.4279C133.34 57.0735 135.068 58.6998 136.81 60.3067C137.412 60.8654 138.249 60.8344 138.76 60.2905C139.289 59.7264 139.252 58.9544 138.649 58.3579C138.277 57.9881 137.886 57.6386 137.503 57.2782C136.172 56.0303 134.842 54.7824 133.513 53.5344C133.043 53.0945 132.469 52.9393 131.936 53.2645C131.563 53.4953 131.325 53.9515 131.004 54.3334ZM129.677 64.6996C129.096 64.7442 128.679 65.1288 128.477 65.8009C128.082 67.11 127.665 68.4124 127.259 69.7147C126.971 70.6405 126.645 71.5556 126.394 72.4922C126.172 73.3289 126.549 73.9767 127.296 74.2048C127.457 74.2565 127.628 74.2757 127.797 74.2611C127.966 74.2466 128.13 74.1987 128.28 74.1202C128.431 74.0417 128.564 73.9342 128.672 73.8039C128.78 73.6736 128.861 73.5232 128.911 73.3613C129.662 71.0198 130.399 68.6701 131.091 66.311C131.343 65.4783 130.677 64.705 129.677 64.6996ZM144.135 80.3198C144.955 80.3077 145.554 79.5573 145.284 78.6274C144.612 76.3061 143.911 73.9925 143.182 71.6865C142.953 70.9563 142.27 70.6351 141.571 70.8281C140.841 71.0292 140.425 71.6797 140.65 72.4544C141.327 74.8 142.047 77.1348 142.767 79.4723C142.951 80.0607 143.397 80.3455 144.135 80.3198ZM149.112 59.4308C149.149 58.5482 148.717 57.9881 148.029 57.8464C147.401 57.7114 146.754 58.088 146.529 58.7911C145.813 61.0166 145.119 63.2448 144.429 65.481C144.15 66.3853 144.488 67.1181 145.259 67.3516C146.029 67.5851 146.701 67.1586 146.99 66.2436C147.558 64.4419 148.113 62.6348 148.674 60.8303C148.839 60.3067 149.001 59.7871 149.112 59.4308ZM143.217 53.4332C143.77 53.3603 144.257 53.1188 144.456 52.4885C145.176 50.1875 145.908 47.8891 146.611 45.5826C146.664 45.4159 146.684 45.2402 146.67 45.0657C146.655 44.8912 146.606 44.7212 146.526 44.5656C146.445 44.41 146.334 44.2718 146.2 44.1589C146.066 44.0461 145.911 43.9607 145.743 43.9078C145.575 43.8534 145.398 43.8332 145.223 43.8483C145.047 43.8634 144.876 43.9135 144.72 43.9957C144.564 44.0779 144.427 44.1905 144.315 44.3268C144.204 44.4631 144.121 44.6203 144.071 44.7891C143.328 47.0834 142.6 49.3777 141.914 51.695C141.853 51.8971 141.84 52.1107 141.877 52.3185C141.914 52.5264 141.999 52.7227 142.126 52.8918C142.253 53.0609 142.418 53.1979 142.607 53.2919C142.797 53.386 143.006 53.4344 143.217 53.4332ZM165.751 54.0783C168.043 53.556 170.576 52.9987 173.093 52.3846C173.731 52.2267 174.018 51.4925 173.855 50.865C173.683 50.2063 173.07 49.734 172.385 49.8784C169.948 50.3903 167.512 50.9302 165.076 51.4979C164.399 51.6572 164.024 52.3589 164.151 53.0041C164.278 53.6492 164.827 54.0797 165.751 54.0783Z" fill="#EBEAEA"/>
<path d="M78.045 64.8779C79.5582 65.0129 81.0796 65.0912 82.5834 65.2909C87.1448 65.8969 91.7008 66.5393 96.2541 67.1898C97.1717 67.3075 98.0795 67.4911 98.9706 67.7391C101.649 68.5286 102.973 70.5557 103.315 73.1253C103.647 75.6969 103.794 78.2889 103.754 80.8814C103.719 83.8505 103.491 86.8196 103.196 89.7644C102.655 95.1534 101.888 100.505 99.7367 105.555C99.6514 105.757 99.6193 105.979 99.6433 106.197C100.41 111.982 101.184 117.768 101.963 123.553C102.18 125.185 102.411 126.818 102.549 128.456C102.601 129.066 102.89 129.212 103.383 129.36C108.904 130.992 114.108 133.54 118.778 136.899C123.744 140.485 127.917 144.808 131.044 150.094C131.257 150.453 131.474 150.622 131.92 150.611C134.498 150.546 137.078 150.526 139.657 150.457C139.793 150.444 139.925 150.402 140.043 150.333C140.162 150.265 140.264 150.173 140.344 150.062C145.371 141.785 152.535 135.957 161.251 131.908C161.749 131.677 161.864 131.405 161.903 130.905C162.309 125.807 162.684 120.705 163.2 115.617C163.791 109.784 164.445 103.955 165.202 98.1427C166.366 89.2084 167.595 80.3011 169.698 71.5287C169.844 70.9255 170.057 70.337 170.206 69.7338C170.456 68.7162 171.113 68.1601 172.09 67.82C174.618 66.9415 177.244 66.6054 179.885 66.3557C184.676 65.9194 189.497 65.9243 194.287 66.3706C196.004 66.5258 197.712 66.7984 199.43 67.0157C199.652 67.0427 199.875 67.0589 200.097 67.0805C202.551 67.7404 205.042 68.2951 207.45 69.0887C210.03 69.9443 212.4 71.248 214.194 73.379C215.164 74.5012 215.756 75.8984 215.888 77.3738C215.898 77.5342 215.945 77.6902 216.024 77.8302C216.103 77.9702 216.213 78.0906 216.345 78.1824C216.477 78.2742 216.629 78.3351 216.788 78.3605C216.947 78.386 217.11 78.3753 217.264 78.3293C218.505 77.9663 219.525 78.3739 220.429 79.1971C221.604 80.266 222.132 81.2917 222.651 83.5158C223.676 83.2918 224.73 83.3809 225.472 82.2661C226.253 81.0852 227.516 80.486 228.949 80.2714C229.194 80.235 229.483 79.9691 229.604 79.7316C229.959 79.0487 230.197 78.305 230.552 77.6275C231.077 76.645 231.689 76.3765 232.731 76.7975C233.454 77.0917 233.949 76.9932 234.408 76.4183C234.53 76.2899 234.666 76.1762 234.814 76.0796C235.828 75.3076 236.235 75.2576 237.314 75.9446C237.774 76.2402 238.137 76.2901 238.596 75.9837C239.86 75.1389 241.154 75.2064 242.363 76.0553C243.419 76.7962 244.412 77.6302 245.404 78.4589C245.684 78.6924 246.009 79.023 246.062 79.3496C246.22 80.3321 246.94 80.517 247.707 80.8342C250.236 81.8963 251.618 83.9922 252.253 86.5268C253.161 90.0623 252.799 93.8032 251.231 97.1008C249.906 99.9552 247.834 101.308 244.612 101.588C244.446 103.281 244.279 104.985 244.114 106.661C244.17 106.734 244.197 106.804 244.228 106.806C245.205 106.868 245.318 107.547 245.338 108.315C245.41 110.958 245.508 113.601 245.567 116.245C245.679 121.385 245.771 126.525 245.87 131.665C245.923 134.364 245.978 137.054 246.019 139.749C246.063 142.77 246.092 145.791 246.13 148.812C246.134 148.913 246.145 149.014 246.162 149.114C248.542 149.114 250.9 149.13 253.245 149.114C256.977 149.08 260.71 149.024 264.442 148.971C264.887 148.971 265.29 148.955 265.021 149.712C263.138 149.712 261.215 149.697 259.29 149.712C253.253 149.767 247.217 149.83 241.18 149.902C236.972 149.948 232.764 149.998 228.555 150.051L215.855 150.201L203.155 150.352L190.535 150.502L177.836 150.651L165.286 150.801L152.511 150.951L139.887 151.101L127.115 151.251C122.958 151.301 118.8 151.351 114.642 151.4L101.786 151.56L89.3863 151.708L76.4613 151.859C72.2789 151.908 68.097 151.958 63.9154 152.009L51.1408 152.159L38.5908 152.309L25.8148 152.458C21.6066 152.508 17.3985 152.568 13.1903 152.604C10.9421 152.624 8.69255 152.604 6.43621 152.604C6.34281 152.013 6.34281 152.008 6.97762 152.002C10.6863 151.973 14.395 151.935 18.1037 151.921C21.7839 151.906 25.4642 151.921 29.2203 151.921C29.1594 150.739 29.1255 149.747 29.0538 148.759C28.7235 144.21 28.377 139.662 28.0468 135.112C27.7273 130.71 27.4115 126.307 27.0993 121.905C26.815 117.926 26.5312 113.948 26.2479 109.969C26.2127 109.471 26.2276 108.97 26.1938 108.472C26.1369 107.644 26.0652 106.822 27.3104 106.831C27.1358 105.04 26.9693 103.335 26.7988 101.576C24.0051 101.545 21.9328 100.226 20.6375 97.8674C19.9353 96.5547 19.4175 95.1519 19.0985 93.6985C18.5192 91.1451 18.4556 88.539 19.3056 86.0166C20.2396 83.2499 21.9085 81.15 24.8768 80.4401C25.9434 77.7193 28.0846 76.2145 30.7213 75.4223C31.3453 75.2347 32.2211 75.7867 32.9506 76.0769C33.3377 76.2307 33.6003 76.2496 33.9712 76.0161C35.2164 75.232 35.6685 75.255 36.7676 76.2361C37.3916 76.7921 37.8897 77.1808 38.8304 76.7557C39.7345 76.3508 40.3328 76.6788 40.8146 77.5763C41.1896 78.2753 41.4413 79.0392 41.8095 79.7356C41.8786 79.8638 41.9729 79.9768 42.0869 80.0677C42.2009 80.1586 42.3321 80.2256 42.4727 80.2646C43.8168 80.4752 44.9795 81.0326 45.8078 82.0933C46.3493 82.7911 47.026 82.9409 47.6053 82.9922L50.6765 78.8854C50.7072 78.8457 50.7402 78.8079 50.7753 78.772C52.3441 77.1093 53.0208 76.9946 55.066 78.0837C56.0866 77.1984 57.1938 76.5991 58.569 77.6518C58.217 76.4655 57.8462 75.4237 57.6039 74.3534C56.9583 71.4936 57.9504 69.1062 60.4044 67.5029C62.3927 66.2019 64.6504 65.6782 66.9528 65.2977C70.6303 64.6998 74.3404 64.8523 78.045 64.8779ZM73.5661 95.8889L73.5891 95.8781L73.1235 95.8875C73.079 95.8776 73.0327 95.8776 72.9882 95.8875L72.8203 96.0414H72.8285C71.7064 96.2857 70.5802 96.5124 69.4663 96.7877C69.3602 96.8254 69.2637 96.8857 69.1835 96.9645C69.1033 97.0433 69.0413 97.1387 69.002 97.2439C68.5621 98.7487 68.1263 100.258 67.7554 101.781C67.4238 103.131 67.2357 104.513 67.547 105.937L70.6777 105.775L73.5513 123.454L83.1072 121.882C83.3522 122.881 83.5566 123.724 83.7637 124.568C84.6029 127.975 85.4515 131.381 86.2785 134.792C86.4721 135.591 86.4789 136.356 86.1188 137.176C85.4867 138.617 85.4718 140.166 85.683 141.787C86.1716 141.755 86.6196 141.758 87.0568 141.693C91.024 141.096 94.5405 139.423 97.8039 137.172C99.397 136.073 100.88 134.835 101.906 133.166C102.178 132.734 102.31 132.23 102.283 131.721C101.955 128.671 101.568 125.626 101.177 122.582C100.663 118.598 100.137 114.616 99.6 110.636C99.3984 109.115 99.1804 107.597 98.9747 106.112C97.7877 106.112 96.6818 106.054 95.5909 106.131C94.7178 106.192 94.2373 105.81 94.0681 105.042C93.7311 103.513 93.4469 101.972 93.1734 100.429C93.1423 100.256 93.2831 100.013 93.4103 99.858C94.7639 98.2142 94.9899 96.4031 94.2021 94.4597C93.7311 93.3017 92.8486 92.6418 91.5736 92.5459C89.7625 92.411 88.7081 93.183 88.451 94.9644C88.3427 95.7202 88.3995 96.503 88.4171 97.2722C88.428 97.7041 88.5146 98.1346 88.5728 98.6056C87.4791 98.6056 86.6426 98.2601 85.9618 97.584C85.7827 97.3867 85.6701 97.1385 85.6397 96.8741C85.2647 93.8051 84.9629 90.7267 84.5365 87.6645C84.2293 85.4403 83.6919 83.2675 82.5062 81.3025C82.0325 80.5184 81.4126 80.0717 80.5003 80.1472C79.4093 80.239 78.3157 80.3429 77.2383 80.5319C75.4476 80.8463 73.6771 81.2903 71.8823 81.5684C70.7792 81.7398 69.6449 81.7033 68.5147 81.76C68.8369 82.6264 69.201 83.4456 69.4419 84.2999C69.6828 85.1542 69.783 86.0544 69.9942 86.9276C70.0361 87.0949 70.2919 87.2879 70.4801 87.3325C71.3084 87.5187 72.1598 87.6024 72.9773 87.8291C73.3993 87.9371 73.7792 88.1683 74.0683 88.4931C75.5179 90.311 75.5477 93.2167 74.2037 95.1493C74.0853 95.3377 73.9782 95.5328 73.8829 95.7337H73.8923L73.5661 95.8889ZM216.678 137.819L216.535 137.892C216.535 139.888 216.516 141.884 216.521 143.879C216.521 145.624 216.554 147.369 216.57 149.114L216.655 149.535H225.985C226.135 148.345 226.279 147.314 226.378 146.279C226.391 146.134 226.202 145.944 226.066 145.817C224.906 144.72 223.781 143.578 222.561 142.552C220.636 140.933 218.643 139.393 216.678 137.819ZM215.287 105.956C214.339 106.09 214.881 106.95 214.449 107.428L215.269 107.613L216.531 107.927V118.941C216.531 124.711 216.531 130.48 216.551 136.25C216.581 136.595 216.742 136.915 217.002 137.146C219.786 139.54 222.594 141.906 225.394 144.277C225.74 144.571 226.089 144.86 226.513 145.222C226.903 141.388 227.268 137.694 227.658 134.004C228.134 129.494 228.605 124.981 229.127 120.476C229.645 116.046 230.235 111.624 230.785 107.197C230.835 106.792 231.007 106.582 231.434 106.536C232.173 106.458 232.907 106.333 233.658 106.225C233.707 105.7 233.697 105.217 233.806 104.761C233.949 104.159 233.646 104.015 233.156 103.851C231.909 103.436 230.72 102.789 229.445 102.537C227.854 102.221 226.494 101.444 225.027 100.886C223.442 100.283 221.685 100.129 219.959 99.7703C219.527 102.704 218.461 105.134 215.287 105.956ZM76.9107 151.209C74.6097 136.257 72.7256 121.329 70.0821 106.499C69.7735 106.499 69.5732 106.491 69.3756 106.499C64.9685 106.714 60.6209 107.356 56.3032 108.254C55.6101 108.397 55.5059 108.683 55.5059 109.29C55.5213 123.056 55.5249 136.822 55.5167 150.588V151.472L76.9107 151.209ZM130.406 150.631L130.496 150.38C123.991 139.953 114.5 133.499 102.733 129.811C102.788 130.231 102.789 130.505 102.869 130.756C103.263 132.134 102.89 133.3 101.921 134.312C101.888 134.348 101.859 134.39 101.827 134.429C99.4877 137.213 96.4788 139.069 93.2059 140.529C90.8467 141.583 88.4077 142.388 85.771 142.411C85.2499 142.411 85.0834 142.219 85.0143 141.736C84.7556 140 84.9601 138.227 85.6072 136.595C85.7128 136.325 85.8102 136.002 85.7574 135.734C85.2377 133.153 84.6841 130.577 84.1156 127.885L74.3498 129.116C74.5041 130.142 74.6422 131.024 74.7708 131.908C75.6804 138.149 76.5872 144.389 77.4914 150.63C77.5591 151.108 77.7621 151.236 78.2264 151.218C79.7532 151.16 81.2799 151.126 82.8067 151.106C87.0875 151.049 91.3696 150.999 95.6531 150.954C99.8112 150.905 103.969 150.856 108.126 150.805C114.089 150.741 120.051 150.681 126.012 150.626C127.473 150.615 128.941 150.631 130.406 150.631ZM215.855 149.562C215.871 149.384 215.889 149.292 215.889 149.192C215.889 135.823 215.894 122.454 215.905 109.085C215.905 108.606 215.797 108.385 215.273 108.301C212.36 107.84 209.462 107.284 206.543 106.868C204.844 106.625 203.114 106.583 201.33 106.445C198.721 120.921 196.812 135.365 194.58 149.82L215.855 149.562ZM48.814 151.539C47.6554 145.683 46.536 139.96 45.3869 134.243C43.6165 125.423 41.8244 116.605 40.0526 107.79C39.9646 107.352 39.836 107.128 39.3542 107.115C37.1046 107.038 34.8537 106.827 32.6068 106.875C30.8919 106.912 29.1824 107.263 27.4715 107.479C27.0167 107.536 26.7798 107.732 26.8191 108.257C26.9544 109.973 27.0181 111.695 27.1399 113.412C27.4106 117.245 27.7084 121.075 27.9885 124.907C28.2593 128.615 28.5259 132.323 28.7885 136.031C29.0781 140.062 29.3669 144.093 29.6547 148.125C29.7414 149.34 29.8131 150.543 29.893 151.769L48.814 151.539ZM226.697 149.283H245.538C245.268 135.298 244.997 121.466 244.718 107.599C243.425 107.398 242.321 107.181 241.199 107.059C238.105 106.722 235.005 106.655 231.918 107.146C231.72 107.177 231.429 107.435 231.402 107.618C231.065 109.913 230.743 112.207 230.469 114.508C230.079 117.801 229.726 121.098 229.369 124.394C228.974 128.063 228.585 131.732 228.203 135.402C227.874 138.501 227.545 141.6 227.215 144.698C227.054 146.248 226.868 147.792 226.697 149.283ZM56.8486 107.428C56.7811 107.06 56.6944 106.696 56.5887 106.337C56.5346 106.186 56.3776 105.989 56.2395 105.962C53.6678 105.466 52.4361 103.684 51.7566 101.374C51.6348 100.958 51.5698 100.525 51.4724 100.071C48.8912 100.704 46.2762 100.868 43.9061 102.043C43.3647 102.313 42.6758 102.236 42.0937 102.436C40.7077 102.908 39.3406 103.44 37.9776 103.978C37.8057 104.047 37.5905 104.296 37.5919 104.46C37.5919 105.05 37.6853 105.638 37.7435 106.234C38.5069 106.341 39.1945 106.475 39.8888 106.528C40.3964 106.566 40.5534 106.814 40.6292 107.273C40.8187 108.428 41.0353 109.578 41.2735 110.725C43.2154 120.311 45.1618 129.896 47.1126 139.481C47.2913 140.362 47.4903 141.235 47.6784 142.112C49.909 140.469 52.0463 138.865 54.2201 137.315C54.66 137 54.8237 136.706 54.8224 136.172C54.8052 127.053 54.8012 117.933 54.8102 108.811V107.948L56.8486 107.428ZM66.7213 105.943C66.7768 104.9 66.6983 103.808 66.9176 102.781C67.4306 100.374 68.1358 98.0078 68.669 95.6028C69.4067 92.2463 69.8101 88.8548 69.0521 85.4417C68.5933 83.3795 67.8339 81.4361 66.3085 79.8881C66.042 79.6265 65.7253 79.4213 65.3773 79.2848C64.9008 79.0932 64.5286 79.3375 64.1875 79.6897C63.8464 80.042 64.0657 80.2862 64.1726 80.6236C64.6721 82.1838 65.1336 83.7574 65.5938 85.331C65.7292 85.8047 65.4693 85.8925 65.0524 85.8182C64.982 85.52 64.9103 85.2338 64.848 84.945C64.3838 82.7654 63.7977 80.6371 62.2952 78.8881C61.2815 77.7072 60.5113 77.7436 59.6301 79.023C61.1488 81.7033 61.7254 83.6265 61.4804 85.1839C60.9322 85.3648 60.939 85.0112 60.9146 84.6333C60.7224 82.3295 59.913 80.2768 58.3659 78.5358C57.409 77.4561 56.6145 77.4818 55.6467 78.6154C57.5619 80.602 58.1967 83.1028 58.546 85.7683C58.4375 85.7971 58.3271 85.8183 58.2157 85.8317C58.1209 85.8317 58.0248 85.8169 58.1182 85.825C57.5863 84.1731 57.1613 82.5859 56.559 81.069C56.0834 79.8406 55.1546 78.8401 53.9629 78.2726C53.2861 77.946 52.6797 77.9609 52.091 78.4764C50.6413 79.7466 49.4566 81.2888 48.6042 83.0151C48.5785 83.0677 48.6191 83.1501 48.63 83.2297L51.8311 83.8775C51.8974 83.7817 51.9597 83.6764 52.0341 83.5833C52.6459 82.8127 53.3673 82.9085 53.726 83.833C53.8882 84.2766 53.9858 84.7411 54.0157 85.2123C54.1943 87.4256 53.8505 89.5876 53.3484 91.7362C52.7704 94.21 52.0896 96.6663 52.1437 99.244C52.2168 102.745 53.8262 104.789 57.0828 105.439C57.229 106.047 57.3792 106.669 57.5186 107.251L66.7213 105.943ZM206.328 85.7669L206.118 85.9208C206.012 85.7305 205.779 85.5065 205.821 85.3553C206.242 83.7965 206.676 82.2391 207.182 80.7073C207.331 80.2565 207.515 79.9259 207.077 79.5426C206.64 79.1593 206.207 79.0797 205.782 79.3942C205.269 79.7747 204.729 80.185 204.372 80.7006C202.997 82.6872 202.253 84.918 202.045 87.323C201.774 90.3906 202.23 93.3962 202.882 96.3747C203.572 99.5436 205.047 102.571 204.555 105.918L213.88 107.267C214.043 106.593 214.193 105.973 214.347 105.331C214.583 105.331 214.753 105.344 214.931 105.331C215.105 105.315 215.277 105.281 215.444 105.229C217.508 104.595 218.547 103.04 219.029 101.081C219.523 99.0753 219.201 97.0684 218.825 95.0737C218.313 92.3597 217.742 89.6511 217.377 86.9168C217.241 85.8938 217.474 84.7831 217.724 83.7574C217.922 82.9476 218.883 82.7843 219.258 83.474C219.611 84.1231 220.058 84.0719 220.605 83.999C221.022 83.9423 221.44 83.9004 221.85 83.8519C221.993 82.5846 221.229 80.8382 220.09 79.7896C218.846 78.6465 217.519 78.575 216.165 79.5912C215.184 80.3254 214.621 81.3592 214.27 82.4861C213.928 83.5658 213.706 84.6913 213.374 86.0207C213.168 85.7507 212.902 85.5578 212.925 85.4066C213.3 82.9139 213.853 80.4941 216.091 78.8098C215.847 78.5992 215.636 78.3901 215.4 78.2187C214.453 77.5263 213.911 77.579 213.129 78.4494C212.83 78.7855 212.551 79.1388 212.294 79.5075C211.11 81.2094 210.553 83.1231 210.352 85.2487C210.126 85.134 209.9 84.9788 209.879 84.802C209.857 84.4532 209.88 84.1031 209.947 83.7601C210.197 82.0672 210.827 80.4525 211.79 79.0365C210.89 77.7598 210.096 77.6437 209.219 78.8192C208.462 79.8346 207.835 80.9404 207.354 82.1109C206.865 83.2702 206.655 84.5442 206.328 85.7669ZM191.406 80.6209C191.271 81.0258 191.122 81.3335 191.065 81.6588C190.755 83.4254 190.363 85.1853 190.193 86.9667C189.738 91.6627 189.602 96.384 189.787 101.098C189.982 105.834 190.184 110.57 190.391 115.304C190.494 117.617 190.628 119.928 190.748 122.252L197.799 123.466L200.694 105.858H203.918C203.918 104.97 204.066 104.049 203.889 103.193C203.459 101.124 202.854 99.0915 202.377 97.0306C202.277 96.6001 202.078 96.4571 201.7 96.3788C200.697 96.1683 199.702 95.9145 198.694 95.7391C198.398 95.6967 198.116 95.5835 197.873 95.4091C197.631 95.2347 197.434 95.0044 197.3 94.7377C196.381 93.0615 196.225 91.3421 197.006 89.5714C197.385 88.7091 197.891 88.0127 198.975 88.0167C199.27 88.0167 199.565 87.9182 199.859 87.8561C201.301 87.5511 201.301 87.5497 201.525 86.1273C201.524 86.0809 201.515 86.0352 201.497 85.9923C198.774 85.8425 196.056 85.6428 193.335 85.5699C192.431 85.5456 192.072 85.1812 191.954 84.3904C191.783 83.1784 191.603 81.9584 191.406 80.6209ZM140.879 150.464L161.082 150.211C161.29 144.249 161.496 138.384 161.706 132.397C153.028 136.454 145.948 142.183 140.879 150.464ZM48.1075 92.6256C48.01 91.3313 47.9843 90.3043 47.8436 89.2948C47.5566 87.2393 47.1032 85.219 45.9933 83.4213C45.0268 81.8558 43.6476 80.9165 41.7486 80.8976C38.5556 80.8652 35.6401 83.1501 34.805 86.4633C33.9726 89.7701 33.9857 93.2322 34.8429 96.5326C35.5034 99.1414 36.842 101.247 39.813 101.661C43.7586 102.209 46.6646 100.868 47.6392 96.592C47.9532 95.2168 47.9789 93.7768 48.1075 92.6256ZM32.8653 90.8279C32.8356 88.6902 32.4417 86.2744 31.1666 84.0799C30.2192 82.4523 28.9279 81.2579 26.9707 81.0447C24.2636 80.7519 22.0492 82.0461 20.6185 84.6387C19.3246 86.9802 19.2488 89.5067 19.4911 92.0614C19.7022 94.2883 20.2572 96.4341 21.6567 98.2588C23.0752 100.109 24.912 101.179 27.2982 100.823C29.5614 100.483 31.0665 99.109 31.8759 96.9794C32.5811 95.1034 32.8667 93.1654 32.8653 90.8279ZM193.906 149.833C194.939 142.917 195.961 136.068 196.994 129.16L191.073 128.32C191.506 135.578 191.933 142.706 192.359 149.833H193.906ZM237.238 91.3327C237.089 89.9723 237.018 88.5984 236.777 87.2542C236.16 83.8168 233.947 81.5859 230.594 80.9718C229.021 80.6844 227.616 81.1068 226.43 82.1865C225.464 83.0704 224.898 84.2109 224.479 85.4255C223.323 88.7684 223.137 92.2031 223.592 95.6824C223.769 97.032 224.166 98.3155 224.983 99.4302C226.364 101.313 228.314 101.824 230.533 101.76C233.193 101.681 235.025 100.461 236.047 98.0091C236.943 95.8686 237.14 93.6216 237.238 91.3286V91.3327ZM54.7737 151.468V137.807C54.6865 137.827 54.6023 137.859 54.5233 137.9C52.3914 139.52 50.2556 141.121 48.1427 142.759C47.9816 142.884 47.8896 143.231 47.9234 143.45C48.0696 144.384 48.2807 145.307 48.4581 146.237C48.791 147.991 49.1186 149.746 49.4434 151.469L54.7737 151.468ZM252.011 90.1963C252.073 87.6145 251.479 85.2446 249.807 83.2108C248.169 81.2188 245.465 80.4482 243.175 81.3619C241.541 82.0151 240.53 83.3107 239.833 84.8506C238.436 87.9344 238.271 91.164 238.849 94.4516C239.137 96.0832 239.58 97.6906 240.716 98.9606C243.174 101.722 247.288 101.451 249.639 98.3856C251.496 95.9685 251.93 93.1303 252.011 90.1977V90.1963ZM46.5252 100.378C48.1237 100.062 49.5693 99.7906 51.0054 99.4734C51.1155 99.4318 51.2144 99.3651 51.2941 99.2787C51.3737 99.1922 51.432 99.0883 51.4643 98.9754C51.8703 96.6487 52.1762 94.3031 52.6256 91.9859C53.0317 89.8792 53.5203 87.7927 53.4282 85.6239C53.4039 85.0611 53.2306 84.7804 52.6405 84.6886C51.4602 84.5051 50.2907 84.2554 49.1213 84.026C48.412 83.891 47.7041 83.7372 46.911 83.5752C48.4405 87.0949 48.9237 90.6322 48.6245 94.3004C48.4432 96.4692 48.0804 98.557 46.5252 100.378ZM231.049 102.569L234.558 103.613C234.491 104.484 234.423 105.314 234.369 106.019L243.463 106.52L243.925 101.683C242.881 101.143 241.941 100.649 240.994 100.17C240.815 100.083 240.625 100.02 240.43 99.9809C239.212 99.719 237.994 99.4491 236.766 99.2278C236.556 99.19 236.195 99.3007 236.089 99.4613C234.92 101.308 233.214 102.225 231.049 102.569ZM40.3707 102.58C37.7002 101.955 37.1493 101.635 35.498 99.7258C35.4167 99.6458 35.3188 99.5846 35.2112 99.5463C35.1037 99.5081 34.989 99.4938 34.8753 99.5044C32.3605 99.9755 29.8294 100.402 27.4769 101.606C27.638 103.268 27.8031 104.97 27.9534 106.526L37.0545 106.018C37.0044 105.459 36.9747 104.812 36.8813 104.175C36.8122 103.698 37.0356 103.517 37.4457 103.406C38.4189 103.139 39.388 102.854 40.368 102.577L40.3707 102.58ZM74.2443 128.464L83.8043 127.267C83.3982 125.736 83.003 124.21 82.5861 122.599L73.6013 124.118C73.8138 125.592 74.0277 127.016 74.2443 128.464ZM29.5438 81.0447C30.5129 79.7882 30.7619 79.7167 32.4295 80.3065C32.8274 80.4482 33.2173 80.6533 33.6287 80.7114C34.407 80.822 35.2069 80.9462 35.9771 80.8652C36.3534 80.8261 36.9016 80.3821 36.9706 80.0393C37.0396 79.6965 36.6918 79.1134 36.3575 78.907C34.7914 77.9406 33.1766 77.0513 31.5551 76.1794C31.2449 76.0366 30.8922 76.0154 30.567 76.12C28.7398 76.78 27.2103 77.8745 26.0665 79.4535C25.9367 79.6658 25.8318 79.8922 25.7539 80.1283L29.5438 81.0447ZM245.68 80.1243C245.618 79.9454 245.539 79.7731 245.442 79.6101C244.292 77.9297 242.606 76.6854 240.659 76.0782C240.375 76.0132 240.077 76.054 239.821 76.1929C238.286 77.0162 236.758 77.8543 235.253 78.7302C234.764 79.0149 234.21 79.3955 234.399 80.0797C234.592 80.7842 235.274 80.9044 235.887 81.0123C236.136 81.0483 236.389 81.0326 236.631 80.9664C237.378 80.7775 238.13 80.5953 238.857 80.3429C240.647 79.7248 240.793 79.7491 241.867 81.0501L245.68 80.1243ZM69.4365 96.0913C70.679 95.8106 71.9175 95.5515 73.1465 95.2357C73.3333 95.1884 73.493 94.9577 73.623 94.7809C74.7897 93.1924 74.829 90.6633 73.6771 89.0788C73.4579 88.7885 73.1501 88.5768 72.8 88.4756C71.9378 88.2569 71.0513 88.1341 70.2798 87.9924C69.9955 90.6754 69.7194 93.3193 69.4365 96.0913ZM190.781 122.919C190.874 124.538 190.962 126.095 191.052 127.654L197.109 128.514L197.754 124.121L190.781 122.919ZM35.3464 83.2931L30.9555 82.4834C31.3426 83.1217 31.6837 83.6103 31.9531 84.1366C32.9712 86.1114 33.4827 88.3069 33.4419 90.527L33.4947 90.5148C33.6693 89.3002 33.7438 88.0424 34.047 86.8493C34.3502 85.6563 34.8889 84.5186 35.3464 83.2931ZM34.8225 98.8135C34.4896 97.5637 34.1201 96.426 33.8981 95.2613C33.6815 94.1263 33.6165 92.967 33.5353 92.2571C33.3864 93.1533 33.2809 94.5029 32.9141 95.7782C32.5473 97.0536 31.9152 98.2763 31.4049 99.5085L34.8225 98.8135ZM39.1809 80.6398C38.5879 79.0653 37.5672 77.6863 36.2329 76.6572C35.3491 75.9527 35.1772 75.9648 34.2311 76.726C34.472 76.8745 34.7061 76.9959 34.9241 77.1538C35.678 77.6802 36.4739 78.1593 37.1642 78.7585C37.8315 79.3361 37.8856 80.1621 37.3902 80.7599C37.1628 81.0299 36.8407 81.2364 36.3886 81.6156C36.8095 81.6412 37.1276 81.7505 37.3482 81.6574C37.9546 81.3808 38.5204 81.011 39.1809 80.6358V80.6398ZM235.021 81.5427C233.397 80.5278 233.306 79.4306 234.596 78.4036C234.966 78.1093 235.365 77.8529 235.762 77.5938C236.23 77.2915 236.709 77.0067 237.186 76.7139L237.167 76.4439C236.69 76.3792 236.084 76.0931 235.76 76.286C234.072 77.3009 232.931 78.8044 232.167 80.764C233.179 80.7923 233.72 82.0286 235.021 81.5387V81.5427ZM234.977 82.3187C235.289 82.8289 235.653 83.0502 236.33 82.8856C237.684 82.5563 239.076 82.3781 240.441 82.0852C240.762 82.0164 241.036 81.7411 241.333 81.5616C241.062 81.2499 240.833 80.8477 240.49 80.6601C240.274 80.544 239.876 80.7343 239.569 80.818C238.585 81.0879 237.619 81.4766 236.618 81.6034C235.948 81.6844 235.415 81.8275 234.974 82.3147L234.977 82.3187ZM36.4454 82.4712V82.231C36.1098 82.0353 35.7971 81.7573 35.4357 81.6588C34.2432 81.3362 33.0223 81.1189 31.8326 80.7842C30.8283 80.5076 30.59 80.5791 30.0933 81.6102C31.9544 81.9692 33.8033 82.339 35.659 82.6669C35.8986 82.7101 36.1815 82.5414 36.4454 82.4712ZM231.49 80.4468L233.128 77.6019C232.481 77.4669 231.784 76.8502 231.275 77.7436C230.829 78.5223 230.498 79.3631 230.096 80.2201L231.49 80.4468ZM39.9227 80.4468L41.2424 80.2363C41.1882 80.0771 41.1544 79.9583 41.107 79.8463C40.8986 79.3388 40.701 78.8273 40.4749 78.3307C39.9335 77.1525 39.4286 77.0175 38.3241 77.6937C38.8331 78.5709 39.3447 79.4508 39.92 80.4441L39.9227 80.4468ZM58.6894 77.6842L58.546 77.6127C58.5338 77.6505 58.5026 77.7004 58.5162 77.7234C58.5504 77.7654 58.591 77.8019 58.6366 77.8313L58.6894 77.6842Z" fill="#2A2727"/>
<path d="M193.837 50.4869C193.507 50.8634 193.261 51.3115 192.882 51.5314C192.34 51.8432 191.781 51.6664 191.313 51.2183C190.048 50.0159 188.768 48.8242 187.495 47.6298C187.058 47.2249 186.604 46.82 186.186 46.3976C185.594 45.7943 185.578 45.0156 186.114 44.465C186.622 43.9454 187.397 43.9103 187.998 44.465C189.764 46.0845 191.512 47.7229 193.243 49.3802C193.49 49.611 193.586 50.001 193.837 50.4869Z" fill="#EE7024"/>
<path d="M181.196 34.6533C180.832 35.0744 180.586 35.5198 180.207 35.76C179.657 36.1095 179.098 35.8842 178.639 35.4536L174.537 31.61C174.209 31.3023 173.873 31.0027 173.551 30.6882C172.912 30.0634 172.864 29.2698 173.416 28.6976C173.968 28.1253 174.727 28.1361 175.358 28.7219C177.062 30.3022 178.762 31.8867 180.438 33.4954C180.726 33.7693 180.887 34.1702 181.196 34.6533Z" fill="#EE7024"/>
<path d="M70.6849 44.2952C70.3654 44.7136 70.1597 45.2494 69.8024 45.3817C69.3801 45.5396 68.7196 45.5166 68.3487 45.2804C66.8084 44.3087 65.3357 43.2264 63.8387 42.1845C63.388 41.8714 62.9264 41.5691 62.4852 41.2398C61.8152 40.7296 61.6893 39.9644 62.1454 39.3341C62.5664 38.7525 63.3474 38.6121 64.012 39.0642C65.9922 40.4138 67.9656 41.7836 69.9107 43.1859C70.226 43.4072 70.3844 43.8431 70.6849 44.2952Z" fill="#EE7024"/>
<path d="M158.846 42.1666C158.304 43.1437 157.763 44.1208 157.221 45.0979C156.731 45.9833 156.003 46.2667 155.26 45.8632C154.567 45.488 154.402 44.7025 154.84 43.8536C155.229 43.1046 155.623 42.3596 156.014 41.6119L158.024 37.9559C158.495 37.1002 159.272 36.7993 160 37.1893C160.705 37.5685 160.856 38.3108 160.395 39.1962C159.886 40.1881 159.364 41.176 158.846 42.1666Z" fill="#EE7024"/>
<path d="M64.8666 29.9043C65.6517 29.9124 66.0848 30.2619 66.2743 30.9151C66.4638 31.5683 66.1606 32.1392 65.4419 32.482C63.6606 33.3323 61.8712 34.1649 60.0846 35.003C59.7002 35.1839 59.3212 35.3823 58.926 35.5334C58.6091 35.6679 58.2523 35.6744 57.9308 35.5515C57.6093 35.4287 57.3482 35.1861 57.2026 34.875C57.0571 34.5638 57.0384 34.2085 57.1506 33.8839C57.2627 33.5593 57.497 33.2909 57.8039 33.1352C60.0101 32.0758 62.2326 31.0501 64.4511 30.0177C64.5854 29.966 64.7246 29.928 64.8666 29.9043Z" fill="#EE7024"/>
<path d="M180.057 21.5236C179.129 21.5425 178.552 21.0755 178.447 20.4115C178.347 19.7705 178.694 19.1267 179.362 18.9702C181.793 18.3953 184.229 17.8505 186.671 17.3358C187.376 17.1887 187.963 17.6543 188.137 18.3305C188.298 18.9513 187.989 19.6936 187.36 19.8461C184.865 20.4547 182.35 21.0027 180.057 21.5236Z" fill="#EE7024"/>
<path d="M168.2 45.0761L167.157 44.5875C167.098 44.1367 166.886 43.6428 167.008 43.2379C167.653 40.9895 168.369 38.7613 169.08 36.5318C169.339 35.7221 169.975 35.3428 170.666 35.5223C171.439 35.7234 171.885 36.3793 171.642 37.1904C170.952 39.5427 170.21 41.8627 169.463 44.1867C169.28 44.7711 168.797 45.0275 168.2 45.0761Z" fill="#EE7024"/>
<path d="M177.908 39.1381C178.693 39.188 179.126 39.5186 179.314 40.1341C180.004 42.3973 180.693 44.6619 181.365 46.9306C181.604 47.7404 181.229 48.4502 180.497 48.6594C179.742 48.8754 179.072 48.5245 178.815 47.6945C178.12 45.4582 177.437 43.2179 176.784 40.9695C176.489 39.96 177.102 39.1178 177.908 39.1381Z" fill="#EE7024"/>
<path d="M170.91 19.6163C170.926 19.557 170.968 19.364 171.026 19.175C171.691 17.0328 172.358 14.8914 173.025 12.751C173.327 11.7914 174.023 11.3798 174.831 11.6524C175.553 11.8953 175.854 12.6147 175.581 13.5013C174.904 15.716 174.213 17.9294 173.506 20.1359C173.261 20.8998 172.663 21.2413 171.958 21.0996C171.29 20.9646 170.89 20.4517 170.91 19.6163Z" fill="#EE7024"/>
<path d="M27.5598 61.8343L33.1838 62.6711C33.7252 62.752 34.2761 62.806 34.808 62.9221C35.566 63.0786 35.9585 63.7076 35.8327 64.4971C35.7764 64.8209 35.5969 65.1105 35.3315 65.3054C35.0662 65.5003 34.7355 65.5854 34.4087 65.543C32.0094 65.202 29.6123 64.8421 27.2174 64.4633C26.4175 64.3351 25.9559 63.6995 26.0439 62.9869C26.1319 62.2743 26.7098 61.8114 27.5598 61.8343Z" fill="#EE7024"/>
<path d="M52.98 30.2175C52.8982 30.4493 52.7996 30.6748 52.6849 30.8923C51.5191 32.8717 50.346 34.8439 49.1657 36.8089C48.7028 37.5768 47.9272 37.7968 47.2505 37.3892C46.6116 37.006 46.4167 36.2056 46.8444 35.4863C48.0504 33.4444 49.2686 31.4159 50.4868 29.3834C50.8428 28.791 51.3896 28.5737 52.0285 28.768C52.6362 28.9475 52.9705 29.4023 52.98 30.2175Z" fill="#EE7024"/>
<path d="M29.6425 50.2764C29.9178 50.3704 30.1827 50.4926 30.433 50.6408C32.3072 51.9265 34.1737 53.2243 36.0325 54.5343C36.8013 55.0742 36.98 55.8759 36.5198 56.5304C36.0786 57.1566 35.2759 57.2538 34.5274 56.7382C32.6162 55.4183 30.7145 54.0836 28.8074 52.7556C28.2524 52.3696 28.0196 51.8473 28.2321 51.2008C28.4243 50.6273 28.8466 50.3101 29.6425 50.2764Z" fill="#EE7024"/>
<path d="M167.915 28.7745C167.854 29.5222 167.524 29.9703 166.845 30.1147C166.165 30.2591 165.552 29.9298 165.323 29.2226C164.885 27.873 164.492 26.5072 164.079 25.1495C163.809 24.244 163.511 23.3438 163.252 22.4328C163.009 21.5718 163.38 20.8214 164.11 20.6297C164.893 20.4246 165.54 20.8092 165.809 21.6824C166.486 23.8728 167.138 26.0686 167.799 28.2617C167.856 28.4506 167.887 28.6463 167.915 28.7745Z" fill="#EE7024"/>
<path d="M22.1102 44.6038C22.1102 45.6996 22.1197 46.7969 22.1102 47.8941C22.1007 48.9913 21.6094 49.5703 20.7214 49.5568C19.8768 49.5433 19.4207 48.9724 19.4288 47.9062C19.4451 45.6875 19.4735 43.4688 19.4938 41.2514C19.5006 40.5415 19.7252 39.8829 20.4737 39.7776C20.915 39.7169 21.4659 39.9558 21.8598 40.2189C22.075 40.362 22.1386 40.8357 22.1481 41.1636C22.1806 42.3095 22.1616 43.458 22.1616 44.6038H22.1102Z" fill="#EE7024"/>
<path d="M43.4488 60.1918C42.2902 60.0569 41.677 58.9988 42.2306 58.0325C42.9534 56.7504 43.733 55.5007 44.487 54.2374C44.9472 53.4655 45.3925 52.6868 45.8676 51.9242C46.3129 51.2116 47.0858 50.9971 47.7368 51.3844C48.3879 51.7717 48.5868 52.5612 48.1659 53.2738C46.9666 55.3171 45.7647 57.3604 44.5113 59.3699C44.2853 59.7195 43.8102 59.9219 43.4488 60.1918Z" fill="#EE7024"/>
<path d="M50.7399 66.13C50.7399 67.3015 50.7494 68.4729 50.7399 69.639C50.7304 70.5176 50.2364 71.0169 49.4189 71.0156C48.6257 71.0156 48.0802 70.4757 48.087 69.6214C48.1059 67.2543 48.1402 64.8871 48.1898 62.5199C48.2061 61.6912 48.8016 61.1365 49.5705 61.1635C50.3393 61.1905 50.8604 61.7601 50.8644 62.613C50.8712 63.7845 50.8644 64.9559 50.8644 66.1219L50.7399 66.13Z" fill="#EE7024"/>
<path d="M53.8712 46.1778C53.8712 47.2993 53.8888 48.4222 53.8712 49.5437C53.8509 50.5289 53.3393 51.0714 52.5015 51.0566C51.6636 51.0417 51.1899 50.4871 51.1994 49.487C51.2237 47.1936 51.258 44.8993 51.3022 42.6041C51.3171 41.7511 51.8436 41.1911 52.6165 41.1789C53.3894 41.1668 53.9348 41.7255 53.9551 42.5852C53.9836 43.7809 53.9619 44.9767 53.9619 46.1738L53.8712 46.1778Z" fill="#EE7024"/>
<path d="M38.1614 48.8337C37.4101 48.8432 36.9608 48.5355 36.755 47.9241C36.5385 47.2817 36.8227 46.6299 37.4941 46.3046C39.1183 45.5232 40.7425 44.7715 42.3668 44.0103C42.9326 43.7404 43.4916 43.4637 44.0695 43.2275C44.3827 43.099 44.7334 43.0947 45.0496 43.2157C45.3659 43.3366 45.6237 43.5736 45.7703 43.878C45.9169 44.1825 45.9412 44.5313 45.8381 44.853C45.735 45.1747 45.5125 45.4449 45.216 45.6082C43.0138 46.6744 40.7913 47.7028 38.5728 48.7366C38.4403 48.7861 38.3021 48.8188 38.1614 48.8337Z" fill="#EE7024"/>
<path d="M158.621 56.9715C158.261 57.3845 158.001 57.8461 157.606 58.1012C157.054 58.4561 156.504 58.2118 156.046 57.78C154.516 56.3404 152.984 54.9035 151.45 53.4693C151.287 53.3155 151.116 53.167 150.958 53.0078C150.339 52.3802 150.301 51.5637 150.86 51.0104C151.419 50.457 152.181 50.4881 152.811 51.0698C153.93 52.1063 155.036 53.1562 156.148 54.1995C156.732 54.7474 157.338 55.2711 157.892 55.8473C158.154 56.1199 158.315 56.4884 158.621 56.9715Z" fill="#EE7024"/>
<path d="M172.449 63.5875C172.087 63.2703 171.628 63.0058 171.377 62.6104C171.045 62.0894 171.241 61.5239 171.699 61.1258C172.436 60.4875 173.209 59.8923 173.969 59.2782C175.051 58.3983 176.144 57.5143 177.237 56.6398C177.947 56.0729 178.726 56.0999 179.242 56.6978C179.758 57.2957 179.668 58.1 178.971 58.6696C177.152 60.1595 175.322 61.6346 173.48 63.0949C173.239 63.296 172.91 63.3742 172.449 63.5875Z" fill="#EE7024"/>
<path d="M135.732 79.1092C135.715 79.1875 135.677 79.4075 135.612 79.6194C134.943 81.7832 134.271 83.9448 133.594 86.1041C133.323 86.9503 132.628 87.3525 131.878 87.1177C131.128 86.8828 130.78 86.208 131.029 85.3929C131.714 83.1328 132.416 80.8776 133.135 78.6274C133.376 77.8716 133.985 77.5046 134.673 77.6287C135.32 77.7367 135.739 78.2765 135.732 79.1092Z" fill="#EE7024"/>
<path d="M131.005 54.333C131.326 53.9511 131.561 53.4949 131.936 53.2669C132.469 52.9403 133.043 53.0955 133.513 53.5368C134.842 54.7865 136.172 56.0344 137.503 57.2806C137.886 57.6395 138.277 57.9891 138.65 58.3602C139.252 58.9568 139.29 59.7287 138.761 60.2929C138.249 60.8327 137.407 60.8678 136.81 60.309C135.07 58.6976 133.342 57.0714 131.626 55.4303C131.378 55.19 131.269 54.8095 131.005 54.333Z" fill="#EE7024"/>
<path d="M129.677 64.6997C130.677 64.6997 131.343 65.4784 131.095 66.3192C130.399 68.6783 129.666 71.0279 128.914 73.3695C128.865 73.5313 128.784 73.6818 128.676 73.812C128.568 73.9423 128.435 74.0499 128.284 74.1284C128.134 74.2069 127.97 74.2548 127.8 74.2693C127.631 74.2838 127.461 74.2647 127.3 74.213C126.553 73.9889 126.176 73.3371 126.398 72.5003C126.649 71.5637 126.975 70.6487 127.263 69.7229C127.669 68.4178 128.075 67.1155 128.481 65.8091C128.679 65.1289 129.096 64.7442 129.677 64.6997Z" fill="#EE7024"/>
<path d="M144.135 80.3197C143.398 80.3453 142.951 80.0606 142.767 79.4681C142.047 77.1347 141.329 74.7999 140.65 72.4502C140.425 71.6756 140.841 71.0251 141.572 70.824C142.27 70.631 142.954 70.9589 143.182 71.6823C143.904 73.9892 144.605 76.3029 145.284 78.6233C145.554 79.5572 144.955 80.3076 144.135 80.3197Z" fill="#EE7024"/>
<path d="M149.113 59.4305C149.002 59.7855 148.842 60.3064 148.678 60.8274C148.118 62.6318 147.563 64.4389 146.995 66.2406C146.706 67.1556 146.027 67.5794 145.263 67.3486C144.5 67.1178 144.155 66.3823 144.434 65.4781C145.124 63.2445 145.818 61.0136 146.534 58.7881C146.759 58.0877 147.406 57.7085 148.034 57.8434C148.718 57.9878 149.149 58.5479 149.113 59.4305Z" fill="#EE7024"/>
<path d="M143.218 53.433C143.006 53.4344 142.796 53.386 142.606 53.2917C142.416 53.1973 142.251 53.0597 142.124 52.89C141.997 52.7203 141.912 52.5232 141.875 52.3146C141.839 52.106 141.852 51.8918 141.914 51.6894C142.601 49.3775 143.329 47.0778 144.072 44.7835C144.121 44.6147 144.204 44.4575 144.316 44.3212C144.427 44.1849 144.565 44.0724 144.721 43.9902C144.877 43.908 145.048 43.8578 145.223 43.8427C145.399 43.8276 145.576 43.8479 145.744 43.9022C145.911 43.9552 146.066 44.0405 146.201 44.1534C146.335 44.2663 146.446 44.4045 146.526 44.5601C146.607 44.7157 146.656 44.8856 146.67 45.0601C146.685 45.2346 146.665 45.4103 146.611 45.5771C145.909 47.8835 145.177 50.1819 144.456 52.4829C144.257 53.1186 143.77 53.3602 143.218 53.433Z" fill="#EE7024"/>
<path d="M165.751 54.0781C164.826 54.0781 164.284 53.6489 164.156 53.0092C164.029 52.3695 164.405 51.6596 165.081 51.503C167.509 50.9335 169.945 50.3937 172.39 49.8835C173.075 49.7391 173.688 50.2115 173.86 50.8701C174.024 51.4976 173.737 52.2318 173.098 52.3897C170.576 53.0038 168.042 53.5558 165.751 54.0781Z" fill="#EE7024"/>
<path d="M73.8719 95.7334C73.9673 95.5325 74.0744 95.3374 74.1927 95.149C75.5463 93.2151 75.5111 90.3107 74.0574 88.4928C73.7682 88.168 73.3883 87.9368 72.9664 87.8288C72.1543 87.6075 71.2975 87.5184 70.4692 87.3322C70.281 87.289 70.0252 87.096 69.9832 86.9273C69.7721 86.0582 69.6733 85.1593 69.431 84.2996C69.1887 83.44 68.826 82.6262 68.5038 81.7597C69.634 81.703 70.7683 81.7395 71.8714 81.5681C73.6662 81.2901 75.4366 80.846 77.2273 80.5316C78.3102 80.3426 79.393 80.2387 80.4894 80.1469C81.4016 80.0714 82.0216 80.5181 82.4953 81.3022C83.6823 83.2672 84.2197 85.4401 84.5256 87.6642C84.9493 90.7264 85.2538 93.8048 85.6287 96.8738C85.6591 97.1382 85.7718 97.3864 85.9509 97.5837C86.6276 98.2585 87.4682 98.6053 88.5618 98.6053C88.5036 98.1343 88.417 97.7038 88.4062 97.2719C88.3886 96.5027 88.3317 95.7199 88.44 94.9641C88.6972 93.1827 89.7516 92.4107 91.5626 92.5457C92.8431 92.6415 93.7202 93.3014 94.1912 94.4594C94.9789 96.3988 94.7475 98.2099 93.3994 99.8578C93.2721 100.013 93.1287 100.263 93.1625 100.429C93.4332 101.971 93.7202 103.512 94.0572 105.042C94.2264 105.809 94.7069 106.191 95.5799 106.131C96.6763 106.054 97.7821 106.112 98.9637 106.112C99.1695 107.596 99.3874 109.115 99.5891 110.636C100.12 114.617 100.645 118.599 101.166 122.582C101.557 125.626 101.944 128.67 102.272 131.72C102.299 132.23 102.168 132.736 101.896 133.168C100.87 134.838 99.386 136.075 97.7929 137.174C94.5296 139.425 91.0131 141.099 87.0459 141.695C86.6087 141.76 86.1607 141.757 85.672 141.79C85.4609 140.17 85.4758 138.619 86.1079 137.178C86.4679 136.359 86.4612 135.594 86.2676 134.795C85.4406 131.383 84.5919 127.978 83.7527 124.57C83.5456 123.727 83.3467 122.883 83.0963 121.884L73.5336 123.457L70.66 105.777L67.5415 105.93C67.2301 104.506 67.4183 103.129 67.7499 101.774C68.1208 100.25 68.562 98.7416 68.9965 97.2369C69.0358 97.1316 69.0978 97.0363 69.178 96.9575C69.2582 96.8787 69.3547 96.8183 69.4608 96.7807C70.5747 96.5108 71.7009 96.2786 72.823 96.0344C72.8839 96.2746 72.9448 96.5148 73.0043 96.7524C74.389 96.6835 75.2796 95.9426 75.6532 94.5741C75.1429 94.3433 75.1957 94.3825 74.8993 94.7779C74.6231 95.1463 74.2198 95.4162 73.8719 95.7334ZM72.8202 86.8126C73.0368 87.0677 73.1749 87.3713 73.3102 87.3686C74.481 87.3565 74.8993 88.1892 75.216 89.0637C75.3879 89.5361 75.5815 89.5766 75.9618 89.389C75.599 87.5319 74.5474 86.598 72.8202 86.8126Z" fill="#FEFEFE"/>
<path d="M76.9107 151.208L55.5167 151.465V150.581C55.5167 136.815 55.5131 123.049 55.5059 109.283C55.5059 108.676 55.6101 108.39 56.3031 108.246C60.6209 107.356 64.9657 106.713 69.3756 106.492C69.5732 106.483 69.7735 106.492 70.0821 106.492C72.7256 121.328 74.6083 136.256 76.9107 151.208Z" fill="#EE7024"/>
<path d="M130.407 150.631C128.941 150.631 127.474 150.62 126.006 150.631C120.044 150.686 114.082 150.745 108.121 150.81C103.965 150.854 99.807 150.904 95.648 150.959C91.3654 151.01 87.0833 151.061 82.8016 151.111C81.2748 151.131 79.748 151.165 78.2213 151.223C77.7638 151.241 77.554 151.113 77.4863 150.635C76.5893 144.393 75.6825 138.153 74.7657 131.913C74.6303 131.029 74.495 130.147 74.3447 129.121L84.1105 127.89C84.679 130.589 85.2326 133.154 85.7523 135.739C85.8051 136.009 85.7077 136.332 85.6021 136.6C84.955 138.232 84.7505 140.005 85.0092 141.741C85.0783 142.219 85.2447 142.416 85.7659 142.416C88.4025 142.393 90.8416 141.589 93.2008 140.534C96.4737 139.074 99.4826 137.219 101.821 134.434C101.854 134.395 101.882 134.353 101.916 134.317C102.885 133.305 103.258 132.139 102.864 130.761C102.791 130.507 102.789 130.233 102.728 129.816C114.493 133.504 123.979 139.953 130.489 150.385L130.407 150.631Z" fill="#EE7024"/>
<path d="M215.855 149.562L194.58 149.82C196.812 135.364 198.721 120.921 201.33 106.445C203.114 106.58 204.849 106.625 206.543 106.868C209.462 107.283 212.363 107.839 215.273 108.301C215.797 108.385 215.905 108.606 215.905 109.085C215.891 122.454 215.886 135.823 215.889 149.192C215.889 149.288 215.871 149.384 215.855 149.562Z" fill="#EE7024"/>
<path d="M48.8136 151.539L29.8925 151.77C29.8127 150.54 29.7409 149.331 29.6543 148.126C29.3683 144.095 29.0795 140.064 28.7881 136.032C28.5173 132.323 28.2507 128.615 27.9881 124.907C27.7079 121.076 27.4129 117.246 27.1394 113.413C27.0176 111.696 26.9486 109.974 26.8187 108.257C26.7794 107.732 27.0163 107.537 27.4711 107.48C29.1819 107.264 30.8914 106.913 32.6064 106.875C34.8532 106.828 37.1042 107.039 39.3538 107.116C39.8356 107.132 39.9642 107.356 40.0522 107.791C41.8199 116.61 43.616 125.424 45.3865 134.243C46.5356 139.959 47.655 145.683 48.8136 151.539Z" fill="#EE7024"/>
<path d="M226.697 149.283C226.868 147.791 227.055 146.247 227.222 144.694C227.556 141.596 227.886 138.498 228.211 135.398C228.599 131.729 228.988 128.059 229.376 124.389C229.733 121.094 230.087 117.797 230.476 114.504C230.747 112.203 231.072 109.907 231.409 107.614C231.436 107.43 231.727 107.173 231.925 107.142C235.012 106.654 238.112 106.718 241.206 107.055C242.321 107.175 243.426 107.393 244.725 107.595C244.996 121.462 245.266 135.294 245.545 149.279L226.697 149.283Z" fill="#EE7024"/>
<path d="M66.7293 105.935L57.5253 107.245C57.3899 106.663 57.2356 106.041 57.0895 105.433C53.8329 104.783 52.2167 102.733 52.1504 99.238C52.0963 96.6603 52.7771 94.204 53.3551 91.7302C53.8572 89.5817 54.201 87.4196 54.0224 85.2063C53.9924 84.7351 53.8949 84.2706 53.7327 83.827C53.374 82.8958 52.6499 82.8067 52.0408 83.5773C51.9663 83.6705 51.9054 83.7757 51.8378 83.8715L48.6366 83.2237C48.6258 83.1455 48.5852 83.0618 48.6109 83.0092C49.4633 81.2828 50.648 79.7406 52.0976 78.4705C52.6864 77.9549 53.2969 77.9401 53.9696 78.2667C55.1612 78.8341 56.0901 79.8346 56.5656 81.063C57.168 82.58 57.593 84.1671 58.1249 85.819C58.0315 85.8109 58.1249 85.8298 58.2224 85.8258C58.3338 85.8124 58.4442 85.7912 58.5526 85.7623C58.2034 83.1023 57.5686 80.6015 55.6534 78.6095C56.6211 77.4758 57.413 77.4529 58.3726 78.5299C59.9129 80.2762 60.7223 82.3249 60.9091 84.6327C60.9403 85.0106 60.9267 85.3642 61.4749 85.1833C61.7199 83.6259 61.1433 81.7028 59.6246 79.0225C60.5058 77.7363 61.2759 77.6999 62.2897 78.8875C63.7922 80.642 64.3782 82.7649 64.8425 84.9445C64.9048 85.2333 64.9779 85.5194 65.0469 85.8177C65.4692 85.8919 65.7331 85.8042 65.5883 85.3305C65.1281 83.7568 64.6665 82.1832 64.1671 80.6231C64.0602 80.2857 63.8585 80.0266 64.182 79.6892C64.5055 79.3518 64.8953 79.0913 65.3717 79.2843C65.7198 79.4207 66.0365 79.6259 66.303 79.8875C67.823 81.4355 68.5877 83.3789 69.0466 85.4411C69.8046 88.8542 69.4012 92.2458 68.6635 95.6022C68.1343 98.0072 67.425 100.373 66.9121 102.781C66.7036 103.8 66.7821 104.891 66.7293 105.935Z" fill="#FEFEFE"/>
<path d="M206.327 85.7667C206.655 84.544 206.869 83.2727 207.34 82.1093C207.821 80.9383 208.448 79.8321 209.205 78.8163C210.082 77.6408 210.876 77.7569 211.776 79.0336C210.813 80.4495 210.183 82.0643 209.933 83.7572C209.866 84.1002 209.843 84.4503 209.865 84.799C209.886 84.9772 210.112 85.131 210.338 85.2458C210.539 83.1202 211.096 81.2064 212.28 79.5046C212.537 79.1359 212.816 78.7826 213.115 78.4465C213.893 77.576 214.439 77.5234 215.386 78.2157C215.622 78.3871 215.833 78.5963 216.077 78.8069C213.839 80.4911 213.286 82.911 212.911 85.4037C212.888 85.5548 213.154 85.7478 213.36 86.0177C213.692 84.6884 213.914 83.5669 214.256 82.4831C214.612 81.3562 215.175 80.3238 216.151 79.5883C217.505 78.572 218.839 78.6436 220.076 79.7867C221.216 80.8353 221.981 82.5817 221.836 83.8489C221.43 83.8975 221.008 83.9394 220.591 83.996C220.049 84.0689 219.597 84.1202 219.244 83.471C218.869 82.7814 217.908 82.9407 217.71 83.7545C217.46 84.7802 217.223 85.8909 217.362 86.9139C217.735 89.6481 218.299 92.3568 218.811 95.0708C219.187 97.0655 219.509 99.0723 219.015 101.078C218.533 103.037 217.494 104.587 215.43 105.226C215.263 105.278 215.091 105.312 214.917 105.328C214.745 105.345 214.569 105.328 214.333 105.328C214.179 105.97 214.029 106.592 213.866 107.264L204.54 105.915C205.039 102.568 203.558 99.5406 202.868 96.3718C202.216 93.3865 201.764 90.3877 202.031 87.3201C202.239 84.9151 202.979 82.6842 204.358 80.6976C204.715 80.1821 205.255 79.7718 205.768 79.3912C206.193 79.0768 206.644 79.1726 207.063 79.5397C207.483 79.9068 207.317 80.2536 207.168 80.7044C206.661 82.2362 206.228 83.7936 205.807 85.3524C205.765 85.5035 205.998 85.7276 206.104 85.9179L206.327 85.7667Z" fill="#FEFEFE"/>
<path d="M191.406 80.6206C191.602 81.9581 191.782 83.1848 191.964 84.3995C192.082 85.1903 192.44 85.5547 193.344 85.579C196.065 85.6519 198.783 85.8489 201.506 86.0014C201.524 86.0443 201.534 86.09 201.535 86.1364C201.31 87.5589 201.31 87.5602 199.868 87.8652C199.575 87.9273 199.28 88.0272 198.985 88.0258C197.902 88.0258 197.394 88.7182 197.015 89.5806C196.234 91.3512 196.39 93.0706 197.309 94.7468C197.443 95.0135 197.64 95.2438 197.883 95.4182C198.125 95.5926 198.407 95.7058 198.703 95.7482C199.711 95.9236 200.706 96.1774 201.709 96.3879C202.08 96.4662 202.279 96.6092 202.386 97.0398C202.864 99.1006 203.469 101.133 203.898 103.202C204.075 104.058 203.928 104.979 203.928 105.867H200.704L197.808 123.476L190.758 122.261C190.637 119.937 190.503 117.626 190.401 115.313C190.189 110.579 189.988 105.844 189.797 101.107C189.612 96.3932 189.748 91.6718 190.203 86.9758C190.372 85.1944 190.765 83.4345 191.075 81.6679C191.119 81.3332 191.271 81.0228 191.406 80.6206ZM195.451 89.3835C195.823 89.5711 196.029 89.5455 196.194 89.0731C196.505 88.1851 196.937 87.378 198.089 87.3659C198.224 87.3659 198.359 87.0514 198.556 86.8166C196.879 86.5804 195.794 87.5346 195.451 89.3835ZM195.893 94.3568L195.744 94.6051C196.213 96.0343 197.09 96.732 198.694 96.732C198.378 96.4149 198.229 96.1369 198.017 96.0748C197.68 95.9809 197.367 95.8157 197.1 95.5905C196.833 95.3653 196.617 95.0854 196.468 94.7697C196.368 94.5835 196.087 94.4917 195.89 94.3568H195.893Z" fill="#FEFEFE"/>
<path d="M140.878 150.464C145.947 142.183 153.027 136.453 161.705 132.398C161.495 138.383 161.289 144.249 161.081 150.213L140.878 150.464Z" fill="#EE7024"/>
<path d="M48.1067 92.6257C47.9781 93.7769 47.9524 95.2169 47.6384 96.5908C46.6639 100.866 43.7578 102.208 39.8123 101.66C36.8413 101.247 35.5026 99.1415 34.8421 96.5314C33.9849 93.2309 33.9719 89.7688 34.8042 86.4621C35.6393 83.1488 38.5548 80.8639 41.7478 80.8963C43.6428 80.9152 45.0261 81.8545 45.9925 83.4201C47.1024 85.2177 47.5558 87.2381 47.8428 89.2935C47.9836 90.3044 48.0093 91.3314 48.1067 92.6257ZM46.1252 92.4718L45.8964 92.434C45.8964 91.9104 45.9289 91.384 45.8964 90.8631C45.7462 88.7618 45.4673 86.6901 44.2004 84.9073C43.5941 84.053 42.8469 83.3485 41.7641 83.1677C40.7437 82.9934 39.6942 83.1406 38.7617 83.5888C37.8291 84.037 37.0599 84.764 36.5611 85.6685C35.7124 87.1598 35.4404 88.7982 35.3646 90.4811C35.2576 92.901 35.4363 95.2789 36.6044 97.4639C37.5884 99.3048 39.2113 100.243 41.266 100.186C43.4073 100.128 44.7202 98.7987 45.29 96.8431C45.6974 95.4247 45.8545 93.9321 46.1252 92.4718Z" fill="#FCFBFC"/>
<path d="M32.8653 90.8277C32.8653 93.1692 32.581 95.1073 31.8718 96.9711C31.0597 99.1007 29.5572 100.48 27.2941 100.815C24.9078 101.174 23.0711 100.103 21.6526 98.2505C20.2517 96.4258 19.6967 94.28 19.4869 92.0531C19.2446 89.501 19.3204 86.9746 20.6144 84.6303C22.0451 82.0378 24.2595 80.7435 26.9666 81.0364C28.9292 81.2496 30.2232 82.444 31.1625 84.0716C32.4416 86.2701 32.8355 88.6859 32.8653 90.8277ZM30.5264 91.6833C30.3842 90.497 30.276 89.3053 30.0851 88.1271C29.959 87.4156 29.7734 86.7159 29.5302 86.0353C29.0781 84.714 28.2023 83.7693 26.8718 83.2794C24.403 82.3698 21.8299 83.7288 20.9352 86.4671C20.2395 88.5968 20.2246 90.7859 20.5508 92.9803C20.785 94.5472 21.1964 96.0587 22.1507 97.3624C24.1336 100.071 28.0034 99.731 29.4692 96.7146C30.2394 95.1275 30.4858 93.4351 30.5264 91.6793V91.6833Z" fill="#FCFBFC"/>
<path d="M193.906 149.829H192.359C191.933 142.702 191.506 135.574 191.073 128.315L196.994 129.156C195.961 136.07 194.939 142.913 193.906 149.829Z" fill="#EE7024"/>
<path d="M216.566 149.114C216.55 147.369 216.523 145.624 216.518 143.879C216.518 141.884 216.526 139.888 216.531 137.892L216.675 137.819C218.64 139.393 220.632 140.933 222.557 142.552C223.775 143.578 224.903 144.72 226.063 145.817C226.198 145.944 226.388 146.134 226.374 146.279C226.275 147.314 226.132 148.345 225.982 149.535H216.652L216.566 149.114Z" fill="#EE7024"/>
<path d="M237.239 91.3283C237.143 93.6226 236.944 95.8683 236.053 98.0074C235.031 100.46 233.198 101.68 230.539 101.758C228.315 101.823 226.364 101.311 224.989 99.4285C224.177 98.3137 223.771 97.0289 223.598 95.6807C223.143 92.1987 223.327 88.764 224.484 85.4238C224.904 84.2092 225.47 83.0715 226.436 82.1848C227.619 81.1051 229.027 80.68 230.6 80.9701C233.952 81.5842 236.165 83.8151 236.782 87.2525C237.018 88.594 237.09 89.9679 237.239 91.3283ZM236.38 91.914C236.374 89.3417 236.131 87.2336 235.004 85.3104C233.416 82.6004 229.082 81.7772 227.181 84.4197C226.815 84.8934 226.508 85.409 226.266 85.9555C224.972 89.173 224.848 92.4984 225.487 95.8656C225.758 97.3151 226.362 98.639 227.562 99.5756C229.889 101.392 233.584 100.435 235.055 97.6552C236.075 95.732 236.402 93.6617 236.38 91.914Z" fill="#EE7024"/>
<path d="M54.7732 151.468H49.443C49.1182 149.742 48.7906 147.987 48.4576 146.235C48.2803 145.305 48.0692 144.382 47.923 143.448C47.8891 143.23 47.9812 142.883 48.1423 142.757C50.2551 141.12 52.391 139.518 54.5228 137.899C54.6018 137.857 54.686 137.826 54.7732 137.806V151.468Z" fill="#EE7024"/>
<path d="M252.01 90.1974C251.929 93.1301 251.496 95.9683 249.64 98.3868C247.289 101.452 243.174 101.723 240.716 98.9617C239.581 97.6863 239.138 96.0844 238.85 94.4527C238.272 91.1651 238.437 87.9355 239.834 84.8517C240.531 83.3118 241.542 82.0175 243.176 81.363C245.465 80.4493 248.169 81.2199 249.808 83.2119C251.478 85.2458 252.073 87.6156 252.01 90.1974ZM251.386 90.4552C251.27 88.7007 251.229 86.845 250.232 85.1918C249.135 83.3833 247.525 82.4292 245.392 82.7247C243.361 83.0054 242.055 84.2632 241.477 86.2013C241.158 87.2756 240.925 88.3736 240.78 89.4848C240.48 91.8075 240.54 94.1139 241.426 96.3327C242.153 98.1519 243.411 99.3396 245.434 99.4651C247.571 99.6001 249.05 98.5393 250.027 96.7011C251.052 94.7806 251.273 92.6793 251.386 90.4552Z" fill="#EE7024"/>
<path d="M46.5244 100.378C48.0796 98.5569 48.4424 96.4637 48.6197 94.3043C48.9188 90.6361 48.4356 87.0988 46.9061 83.5791C47.6993 83.7411 48.4072 83.8922 49.1164 84.0299C50.29 84.2593 51.4594 84.509 52.6356 84.6925C53.2258 84.7843 53.399 85.065 53.4234 85.6278C53.5154 87.7966 53.0295 89.8831 52.6208 91.9898C52.1714 94.307 51.8601 96.6526 51.4594 98.9793C51.4272 99.0923 51.3689 99.1961 51.2892 99.2826C51.2095 99.369 51.1107 99.4357 51.0006 99.4773C49.5685 99.7904 48.1229 100.062 46.5244 100.378Z" fill="#EE7024"/>
<path d="M231.049 102.569C233.214 102.228 234.923 101.31 236.093 99.4651C236.195 99.3045 236.556 99.1952 236.77 99.2316C237.997 99.453 239.215 99.7229 240.434 99.9847C240.63 100.023 240.819 100.087 240.999 100.174C241.946 100.653 242.885 101.145 243.929 101.687L243.468 106.524L234.373 106.023C234.429 105.318 234.495 104.488 234.563 103.616L231.049 102.569Z" fill="#FDFDFD"/>
<path d="M40.3676 102.577C39.3917 102.854 38.4185 103.139 37.4385 103.403C37.0324 103.514 36.8051 103.695 36.8741 104.172C36.9675 104.809 36.9973 105.456 37.0473 106.015L27.9462 106.523C27.7959 104.967 27.6308 103.265 27.4697 101.603C29.8222 100.399 32.3533 99.9725 34.8681 99.5015C34.9818 99.4908 35.0965 99.5051 35.2041 99.5433C35.3116 99.5816 35.4095 99.6428 35.4908 99.7228C37.1461 101.635 37.697 101.952 40.3676 102.577Z" fill="#FDFDFD"/>
<path d="M74.2444 128.464C74.0279 127.016 73.814 125.592 73.5947 124.121L82.5795 122.601C83.0031 124.212 83.4038 125.739 83.7977 127.269L74.2444 128.464Z" fill="#E9E9E8"/>
<path d="M29.5438 81.0447L25.7539 80.127C25.8318 79.8908 25.9367 79.6644 26.0666 79.4522C27.2063 77.8718 28.7398 76.7813 30.5671 76.1173C30.8922 76.0127 31.245 76.0339 31.5552 76.1767C33.1794 77.0485 34.7915 77.9312 36.3575 78.9042C36.6918 79.1107 37.0343 79.7032 36.9707 80.0365C36.907 80.3699 36.3534 80.8233 35.9772 80.8625C35.207 80.9435 34.4071 80.8193 33.6288 80.7086C33.2227 80.6492 32.8275 80.4387 32.4295 80.3038C30.762 79.7167 30.5129 79.7882 29.5438 81.0447Z" fill="#FDFCFD"/>
<path d="M245.68 80.1244L241.877 81.0475C240.802 79.7465 240.658 79.7222 238.866 80.3403C238.139 80.5927 237.387 80.7749 236.64 80.9638C236.398 81.03 236.145 81.0456 235.897 81.0097C235.279 80.9017 234.597 80.7816 234.408 80.0771C234.22 79.3956 234.773 79.015 235.262 78.7275C236.767 77.8516 238.295 77.0135 239.83 76.1903C240.086 76.0514 240.384 76.0106 240.668 76.0756C242.615 76.6828 244.301 77.9271 245.451 79.6075C245.545 79.7717 245.621 79.9449 245.68 80.1244Z" fill="#FDFCFD"/>
<path d="M69.4365 96.0912C69.7248 93.3178 70.0009 90.6739 70.2798 87.9937C71.0513 88.1286 71.9379 88.2636 72.8001 88.4768C73.1502 88.578 73.4579 88.7897 73.6772 89.0801C74.829 90.6645 74.7898 93.1936 73.623 94.7821C73.4877 94.9589 73.3334 95.1869 73.1466 95.2369C71.9121 95.5513 70.6737 95.8118 69.4365 96.0912Z" fill="#EE7024"/>
<path d="M190.781 122.918L197.755 124.12L197.109 128.513L191.052 127.654C190.963 126.095 190.875 124.54 190.781 122.918Z" fill="#E9E9E8"/>
<path d="M35.3458 83.2926C34.8883 84.518 34.3537 85.6517 34.0505 86.842C33.7473 88.0324 33.6728 89.2861 33.4982 90.5075L33.4454 90.5197C33.4862 88.2996 32.9747 86.1041 31.9565 84.1293C31.6858 83.603 31.3461 83.1144 30.959 82.4761L35.3458 83.2926Z" fill="#EE7024"/>
<path d="M34.8227 98.8093L31.4023 99.5043C31.9126 98.2721 32.542 97.0602 32.9115 95.774C33.281 94.4879 33.3839 93.1491 33.5328 92.2529C33.614 92.9574 33.679 94.1221 33.8956 95.2571C34.1202 96.4218 34.4898 97.5595 34.8227 98.8093Z" fill="#EE7024"/>
<path d="M39.1803 80.6356C38.5198 81.0108 37.954 81.3779 37.3477 81.6545C37.127 81.7544 36.8062 81.6383 36.388 81.6127C36.8401 81.2335 37.1622 81.0324 37.3896 80.7571C37.885 80.1592 37.8309 79.3332 37.1636 78.7556C36.4733 78.1564 35.6747 77.6759 34.9235 77.1509C34.7056 76.9998 34.4714 76.8716 34.2305 76.7231C35.1779 75.962 35.3485 75.9498 36.2323 76.6543C37.5664 77.683 38.5871 79.0615 39.1803 80.6356Z" fill="#F7F7F8"/>
<path d="M235.022 81.5385C233.721 82.0284 233.179 80.7921 232.167 80.7665C232.932 78.8069 234.073 77.3034 235.761 76.2885C236.081 76.0955 236.69 76.3817 237.167 76.4464L237.186 76.7164C236.711 77.0092 236.23 77.294 235.762 77.5963C235.365 77.8541 234.966 78.1105 234.597 78.4061C233.307 79.4263 233.393 80.5236 235.022 81.5385Z" fill="#F7F7F8"/>
<path d="M234.974 82.3128C235.412 81.8269 235.945 81.6839 236.609 81.5989C237.609 81.472 238.575 81.0806 239.559 80.8134C239.867 80.7297 240.265 80.5435 240.48 80.6555C240.824 80.8431 241.048 81.2453 241.323 81.557C241.027 81.7365 240.752 82.0118 240.431 82.0807C239.067 82.3735 237.675 82.5517 236.32 82.881C235.65 83.0456 235.289 82.8243 234.974 82.3128Z" fill="#FCFBFC"/>
<path d="M36.4451 82.4707C36.1811 82.5409 35.9037 82.7096 35.6546 82.6664C33.7989 82.3385 31.95 81.9687 30.0889 81.6097C30.5856 80.5786 30.8238 80.5071 31.8282 80.7837C33.0179 81.113 34.2388 81.3357 35.4313 81.6583C35.7927 81.7568 36.1081 82.0348 36.441 82.2305L36.4451 82.4707Z" fill="#F9F9F9"/>
<path d="M231.487 80.4493L230.101 80.2253C230.507 79.3696 230.834 78.5275 231.28 77.7488C231.788 76.8553 232.486 77.4667 233.133 77.6071L231.487 80.4493Z" fill="#F9F9F9"/>
<path d="M39.9204 80.4436C39.3452 79.4503 38.8376 78.5704 38.3232 77.6905C39.4277 77.0157 39.9326 77.1506 40.474 78.3275C40.7028 78.8241 40.8977 79.3356 41.1061 79.8431C41.1521 79.9551 41.186 80.0739 41.2415 80.2331L39.9204 80.4436Z" fill="#F9F9F9"/>
<path d="M73.8719 95.7333C74.2198 95.4188 74.6232 95.1462 74.8979 94.7778C75.1943 94.3823 75.1416 94.3432 75.6518 94.574C75.2783 95.9465 74.3876 96.6834 73.003 96.7523C72.9434 96.5147 72.8825 96.2745 72.8216 96.0343H72.8135L72.984 96.0518C72.984 95.9951 72.984 95.9371 72.984 95.8804C73.0286 95.8704 73.0748 95.8704 73.1194 95.8804C73.1485 95.9414 73.1815 96.0004 73.2182 96.0572C73.3441 96.0032 73.4632 95.9357 73.585 95.871L73.562 95.8818L73.8774 95.7225L73.8719 95.7333Z" fill="#373535"/>
<path d="M215.286 105.956C215.281 106.507 215.275 107.06 215.269 107.613L214.448 107.428C214.884 106.95 214.335 106.085 215.286 105.956Z" fill="#E2E1E0"/>
<path d="M73.5887 95.8779C73.4668 95.9427 73.3477 96.0129 73.2219 96.0642C73.1852 96.0074 73.1522 95.9483 73.123 95.8874L73.5887 95.8779Z" fill="#FEFEFE"/>
<path d="M216.565 149.114L216.651 149.535L216.565 149.114Z" fill="#A05622"/>
<path d="M73.8818 95.7295L73.5664 95.8887L73.8818 95.7295Z" fill="#FEFEFE"/>
<path d="M58.6893 77.6838L58.6365 77.8309C58.5909 77.8015 58.5503 77.765 58.516 77.723C58.5025 77.7 58.5336 77.6501 58.5458 77.6123L58.6893 77.6838Z" fill="white"/>
<path d="M216.679 137.819L216.535 137.892L216.679 137.819Z" fill="#A05622"/>
<path d="M72.9821 95.8872C72.9821 95.9439 72.9821 96.0019 72.9821 96.0586L72.8115 96.0411L72.9821 95.8872Z" fill="#FEFEFE"/>
<path d="M72.8203 86.8125C74.5542 86.5979 75.6059 87.5318 75.9619 89.3888C75.5815 89.5764 75.388 89.536 75.2161 89.0636C74.8993 88.1891 74.4811 87.3564 73.3103 87.3685C73.1682 87.3712 73.0301 87.0676 72.8203 86.8125Z" fill="#373535"/>
<path d="M195.45 89.3836C195.797 87.5347 196.881 86.5805 198.563 86.8194C198.371 87.0542 198.236 87.366 198.096 87.3687C196.94 87.3808 196.509 88.1879 196.201 89.0759C196.025 89.5456 195.82 89.5712 195.45 89.3836Z" fill="#373535"/>
<path d="M195.89 94.3569C196.086 94.4919 196.368 94.5837 196.465 94.7699C196.614 95.0855 196.83 95.3655 197.097 95.5907C197.364 95.8159 197.677 95.981 198.014 96.075C198.226 96.1371 198.375 96.4151 198.691 96.7322C197.087 96.7322 196.21 96.0345 195.741 94.6053L195.89 94.3569Z" fill="#373535"/>
<path d="M46.1256 92.4711C45.8549 93.9314 45.6978 95.4241 45.285 96.8425C44.7152 98.7981 43.4022 100.127 41.261 100.185C39.2063 100.242 37.5834 99.3041 36.5994 97.4633C35.4313 95.2783 35.2526 92.9003 35.3595 90.4805C35.4353 88.7975 35.7074 87.1591 36.5561 85.6678C37.0549 84.7633 37.8241 84.0363 38.7566 83.5881C39.6892 83.1399 40.7387 82.9927 41.7591 83.167C42.8419 83.3478 43.589 84.0523 44.1954 84.9066C45.4623 86.6895 45.7412 88.7611 45.8914 90.8624C45.9293 91.3834 45.8914 91.9097 45.8914 92.4333L46.1256 92.4711ZM36.5885 90.8395C38.3224 93.0434 42.6402 93.2795 44.8018 91.2902C42.8351 88.3238 38.2182 88.8987 36.5885 90.8395Z" fill="#292627"/>
<path d="M30.5263 91.6792C30.4857 93.4337 30.2393 95.1275 29.4691 96.7105C28.0033 99.7269 24.1335 100.067 22.1506 97.3583C21.1963 96.0546 20.7849 94.5431 20.5507 92.9762C20.2245 90.7804 20.2394 88.5927 20.9351 86.463C21.8298 83.7247 24.4029 82.3657 26.8717 83.2753C28.2022 83.7652 29.078 84.7099 29.5301 86.0312C29.7733 86.7118 29.9589 87.4115 30.085 88.1231C30.2759 89.3013 30.3841 90.4929 30.5263 91.6792ZM21.2748 90.4228C22.8246 92.6658 27.3509 92.6874 29.5165 90.9707C27.8341 88.2054 23.4784 88.2715 21.2748 90.4228Z" fill="#292627"/>
<path d="M236.38 91.9139C236.402 93.6576 236.074 95.7319 235.055 97.6551C233.584 100.435 229.889 101.392 227.562 99.5756C226.361 98.6389 225.762 97.315 225.487 95.8655C224.848 92.4915 224.971 89.1729 226.265 85.9555C226.508 85.4089 226.815 84.8933 227.18 84.4196C229.075 81.7771 233.416 82.6004 235.004 85.3103C236.131 87.2335 236.374 89.3429 236.38 91.9139ZM235.716 91.5333C235.716 91.1595 235.741 90.783 235.716 90.4118C235.58 88.741 235.346 87.0905 234.418 85.6356C232.512 82.653 228.733 82.765 227.052 85.8475C226.24 87.332 226.007 88.9516 225.885 90.5954C225.713 92.9207 225.674 95.2366 226.716 97.4122C227.344 98.7226 228.309 99.6309 229.829 99.8023C231.843 100.03 233.775 98.9129 234.667 96.983C235.46 95.2555 235.736 93.4201 235.716 91.5333Z" fill="#352E2B"/>
<path d="M251.387 90.4551C251.273 92.6792 251.052 94.7738 250.033 96.7077C249.056 98.5459 247.576 99.604 245.439 99.4717C243.417 99.3462 242.158 98.1586 241.431 96.3393C240.546 94.1206 240.484 91.8141 240.786 89.4914C240.93 88.3802 241.163 87.2823 241.483 86.2079C242.061 84.2699 243.378 83.012 245.397 82.7313C247.53 82.4358 249.141 83.3899 250.237 85.1984C251.23 86.8449 251.27 88.7073 251.387 90.4551ZM250.702 90.0704C250.649 89.5684 250.585 88.6466 250.446 87.737C250.358 87.2219 250.212 86.7181 250.013 86.2349C249.317 84.4642 247.62 83.2658 245.952 83.3211C244.118 83.3845 242.631 84.6329 242.051 86.5952C241.446 88.6466 241.142 90.7466 241.35 92.8735C241.47 93.9846 241.718 95.0782 242.089 96.1328C242.659 97.7928 243.885 98.7969 245.672 98.832C247.377 98.8698 248.608 97.9656 249.396 96.4837C250.386 94.6132 250.665 92.582 250.702 90.0704Z" fill="#372F2C"/>
<path d="M36.5889 90.8397C38.2131 88.899 42.8354 88.324 44.8021 91.2905C42.6365 93.2798 38.3227 93.0436 36.5889 90.8397ZM40.6346 91.86C40.9 91.8669 41.1575 91.7692 41.3511 91.588C41.5447 91.4069 41.6588 91.1569 41.6687 90.8923C41.7012 90.2013 41.3168 89.7344 40.7023 89.7168C40.5649 89.7062 40.4268 89.7234 40.2963 89.7674C40.1658 89.8113 40.0456 89.8812 39.9429 89.9728C39.8402 90.0643 39.7572 90.1757 39.6988 90.3001C39.6404 90.4245 39.6079 90.5594 39.6032 90.6966C39.5775 91.2918 40.0729 91.8505 40.6346 91.86Z" fill="#FCFBFC"/>
<path d="M21.2754 90.4228C23.4789 88.2742 27.8346 88.2081 29.5171 90.9707C27.3514 92.6847 22.8252 92.6632 21.2754 90.4228ZM25.359 91.4175C25.4967 91.4252 25.6345 91.4047 25.7639 91.3571C25.8933 91.3095 26.0115 91.2359 26.1111 91.1409C26.2108 91.0458 26.2898 90.9313 26.3432 90.8046C26.3966 90.6778 26.4232 90.5414 26.4215 90.4039C26.4324 90.1272 26.3347 89.8571 26.1493 89.651C25.9638 89.4449 25.7051 89.319 25.428 89.2999C24.8866 89.277 24.3966 89.7669 24.3736 90.3432C24.3614 90.4794 24.3778 90.6167 24.4218 90.7463C24.4658 90.8759 24.5364 90.995 24.6291 91.0958C24.7219 91.1966 24.8347 91.2771 24.9603 91.332C25.086 91.3869 25.2218 91.4151 25.359 91.4147V91.4175Z" fill="#F9F9F9"/>
<path d="M235.715 91.5331C235.735 93.4226 235.459 95.2553 234.659 96.9828C233.767 98.9127 231.836 100.03 229.822 99.8021C228.303 99.6307 227.338 98.7224 226.709 97.4119C225.666 95.2364 225.706 92.9205 225.878 90.5952C225.999 88.95 226.236 87.3291 227.044 85.8473C228.724 82.7648 232.504 82.6528 234.41 85.6354C235.339 87.0903 235.572 88.7395 235.708 90.4116C235.741 90.7828 235.715 91.1593 235.715 91.5331ZM226.581 91.3293C228.612 93.0582 233.116 93.2336 234.822 90.8313C233.078 88.8178 228.434 88.4088 226.581 91.3293Z" fill="#FDFDFD"/>
<path d="M250.702 90.0706C250.665 92.5754 250.386 94.6133 249.39 96.4879C248.602 97.9724 247.372 98.874 245.667 98.8362C243.88 98.7971 242.654 97.793 242.084 96.137C241.713 95.0824 241.465 93.9888 241.345 92.8777C241.136 90.7508 241.441 88.6508 242.046 86.5995C242.625 84.6371 244.113 83.3888 245.947 83.3253C247.62 83.266 249.317 84.4685 250.007 86.2391C250.207 86.7223 250.352 87.2261 250.44 87.7412C250.585 88.6468 250.649 89.5686 250.702 90.0706ZM241.855 90.9883C244.562 92.8305 248.677 92.512 250.112 90.381C247.832 88.277 243.651 88.2109 241.855 90.9883Z" fill="#FDFDFD"/>
<path d="M40.6339 91.8601C40.0722 91.8507 39.5768 91.2919 39.6025 90.6967C39.6072 90.5595 39.6397 90.4246 39.6981 90.3002C39.7565 90.1757 39.8396 90.0644 39.9423 89.9729C40.045 89.8813 40.1652 89.8114 40.2957 89.7675C40.4262 89.7235 40.5643 89.7063 40.7016 89.7169C41.3161 89.7345 41.7005 90.2014 41.668 90.8924C41.6581 91.157 41.544 91.407 41.3504 91.5881C41.1568 91.7693 40.8993 91.867 40.6339 91.8601Z" fill="#322F30"/>
<path d="M25.3582 91.4147C25.2203 91.4152 25.0837 91.3868 24.9575 91.3314C24.8312 91.276 24.718 91.1948 24.6251 91.0931C24.5322 90.9913 24.4618 90.8713 24.4184 90.7407C24.3749 90.6101 24.3594 90.472 24.3729 90.335C24.3959 89.7588 24.8926 89.2688 25.4273 89.2918C25.7043 89.3109 25.963 89.4368 26.1485 89.6429C26.334 89.849 26.4316 90.1191 26.4208 90.3958C26.4232 90.5337 26.3971 90.6707 26.344 90.7981C26.291 90.9255 26.2121 91.0407 26.1124 91.1363C26.0126 91.232 25.8942 91.306 25.7644 91.354C25.6347 91.4019 25.4964 91.4226 25.3582 91.4147Z" fill="#322F30"/>
<path d="M226.582 91.3294C228.442 88.4089 233.079 88.8178 234.822 90.8314C233.11 93.2337 228.604 93.0583 226.582 91.3294ZM231.812 90.7194C231.808 90.5824 231.777 90.4475 231.721 90.3226C231.664 90.1978 231.583 90.0855 231.482 89.9924C231.381 89.8994 231.262 89.8274 231.133 89.7807C231.004 89.734 230.867 89.7136 230.729 89.7207C230.116 89.7302 229.72 90.1931 229.738 90.8773C229.744 91.0142 229.777 91.1486 229.836 91.2725C229.895 91.3964 229.978 91.5073 230.08 91.5985C230.183 91.6898 230.303 91.7596 230.433 91.8038C230.563 91.848 230.7 91.8657 230.838 91.8558C231.353 91.8193 231.827 91.2687 231.805 90.7194H231.812Z" fill="#2D2A2B"/>
<path d="M241.855 90.9885C243.652 88.211 247.83 88.2772 250.112 90.3812C248.677 92.5122 244.557 92.8307 241.855 90.9885ZM246.035 91.4123C246.644 91.4001 247.042 90.9723 247.025 90.3515C247.032 90.2124 247.01 90.0734 246.96 89.9431C246.911 89.8128 246.835 89.694 246.738 89.5942C246.641 89.4943 246.524 89.4155 246.395 89.3626C246.265 89.3097 246.127 89.2839 245.987 89.2868C245.847 89.2897 245.71 89.3212 245.583 89.3793C245.456 89.4375 245.342 89.5211 245.249 89.6248C245.156 89.7286 245.086 89.8504 245.042 89.9826C244.998 90.1148 244.982 90.2546 244.994 90.3933C244.989 90.5301 245.013 90.6665 245.064 90.7936C245.114 90.9208 245.191 91.0361 245.289 91.132C245.387 91.2279 245.504 91.3023 245.632 91.3506C245.761 91.3989 245.898 91.4199 246.035 91.4123Z" fill="#2D2A2B"/>
<path d="M231.805 90.72C231.826 91.2693 231.353 91.82 230.826 91.8564C230.689 91.8663 230.552 91.8486 230.421 91.8044C230.291 91.7602 230.172 91.6904 230.069 91.5992C229.966 91.5079 229.883 91.397 229.825 91.2731C229.766 91.1492 229.733 91.0148 229.727 90.8779C229.708 90.1937 230.105 89.7308 230.718 89.7213C230.856 89.7137 230.993 89.7337 231.123 89.7801C231.253 89.8265 231.372 89.8984 231.473 89.9915C231.575 90.0847 231.656 90.1971 231.713 90.3223C231.77 90.4474 231.801 90.5827 231.805 90.72Z" fill="#F7F7F8"/>
<path d="M246.035 91.4118C245.897 91.4196 245.76 91.3988 245.632 91.3506C245.503 91.3024 245.386 91.228 245.288 91.1321C245.19 91.0361 245.113 90.9208 245.062 90.7936C245.011 90.6663 244.987 90.5298 244.992 90.3929C244.98 90.2542 244.996 90.1144 245.04 89.9822C245.084 89.85 245.154 89.7282 245.247 89.6244C245.341 89.5206 245.454 89.437 245.581 89.3789C245.708 89.3207 245.845 89.2892 245.985 89.2863C246.125 89.2835 246.263 89.3093 246.393 89.3622C246.522 89.415 246.639 89.4939 246.736 89.5937C246.833 89.6936 246.909 89.8124 246.958 89.9427C247.008 90.0729 247.03 90.212 247.023 90.351C247.042 90.9719 246.644 91.3997 246.035 91.4118Z" fill="#F7F7F8"/>
</svg>
