<svg width="519" height="307" viewBox="0 0 519 307" fill="none" xmlns="http://www.w3.org/2000/svg">
<path d="M282.34 55.4436L277.633 73.0105L264.773 60.1507L282.34 55.4436Z" stroke="white"/>
<path d="M256 146.414C310.624 130.876 284.834 194.976 308.071 207.061C334.93 221.028 360.642 198.439 389.683 207.061C398.519 209.684 406.865 230.984 415.719 233.124C427.355 235.935 462.836 226.99 473.298 233.124C493.891 245.198 492.794 267.018 513.765 278.132C521.333 282.143 516.622 299.222 515.776 306" stroke="white" stroke-linecap="round" stroke-linejoin="round" stroke-dasharray="8 8"/>
<circle cx="469" cy="196" r="12.5" stroke="white"/>
<circle cx="458" cy="201" r="12.5" stroke="white"/>
<circle cx="353" cy="76" r="4.5" stroke="white"/>
<rect x="377.061" y="78.8371" width="87" height="87" rx="6.5" transform="rotate(15 377.061 78.8371)" stroke="white" stroke-width="3"/>
<rect x="415.061" y="89.8371" width="10" height="87" transform="rotate(15 415.061 89.8371)" stroke="white" stroke-width="3"/>
<rect x="365.837" y="125.939" width="10" height="85" transform="rotate(-75 365.837 125.939)" fill="#FF8025" stroke="white" stroke-width="3"/>
<path d="M421.464 91.3571C420.591 90.7727 412.202 88.6205 411.333 88.0348C410.233 87.0766 409.137 85.3293 408.726 84.5754C408.233 83.7449 407.917 82.7253 407.571 81.8222C406.51 79.0524 405.092 76.4387 404.269 73.5741C403.576 71.1618 402.062 67.8288 403.048 65.2959C403.961 62.9511 406.74 63.2392 408.724 63.4105C411.51 63.6511 415.188 64.9595 417.173 67.0151C419.59 69.5191 420.234 73.539 420.816 76.8477C421.411 80.2293 421.267 83.6584 421.373 87.0593C421.376 87.1736 421.365 89.1466 421.57 89.1993C421.907 89.2861 423.845 85.6987 424.007 85.4489C425.637 82.9402 427.093 80.2775 428.831 77.847C430.962 74.8682 434.923 71.8714 438.749 72.0155C441.916 72.1349 445.866 72.1408 448.581 74.0003C450.648 75.415 451.538 77.918 450.715 80.3721C448.663 86.4951 441.72 87.3295 436.471 89.0416C434.405 89.7154 432.317 90.2786 430.23 90.8778C429.143 91.1898 428.216 91.4587 427.086 91.3797C425.128 91.2428 423.214 90.627 421.283 90.2716" stroke="white" stroke-width="3" stroke-linecap="round" stroke-linejoin="round"/>
</svg>
