<svg width="389" height="213" viewBox="0 0 389 213" fill="none" xmlns="http://www.w3.org/2000/svg">
<path d="M288.328 139.609C294.077 129.417 299.068 141.739 304.051 139.876C309.81 137.723 310.443 130.904 315.791 127.718C317.418 126.749 321.51 128.324 323.074 127.288C325.13 125.926 329.02 119.457 331.357 118.711" stroke="white" stroke-linecap="round" stroke-linejoin="round"/>
<path d="M287.89 140.734C299.573 140.612 291.476 151.115 295.596 154.503C300.358 158.419 306.551 155.55 311.995 158.592C313.651 159.517 314.36 163.855 316.041 164.692C318.252 165.792 325.788 165.924 327.611 167.577" stroke="white" stroke-linecap="round" stroke-linejoin="round"/>
<path d="M311.074 78.29C305.488 78.29 294.195 81.5871 291.933 89.4999C289.106 99.391 289.976 105.326 290.193 107.304M290.193 107.304C290.411 109.282 290.193 122.47 288.235 129.504C286.278 136.538 286.93 156.32 288.235 162.694C289.321 167.995 291.309 173.905 289.695 177.641M290.193 107.304C296.452 114.044 313.536 123.481 331.807 107.304M311.074 189.29C299.067 189.29 292.731 187.239 291.063 186.213C288.816 185.114 285.103 182.256 288.235 179.619C288.895 179.064 289.369 178.397 289.695 177.641M310.926 78.29C316.364 78.29 327.805 81.5871 330.067 89.4999C332.894 99.391 332.024 105.326 331.807 107.304M331.807 107.304C331.589 109.282 331.807 122.47 333.765 129.504C335.722 136.538 335.07 156.32 333.765 162.694C332.679 167.995 330.691 173.905 332.305 177.641M310.926 189.29C322.933 189.29 329.269 187.239 330.937 186.213C333.184 185.114 336.897 182.256 333.765 179.619C333.105 179.064 332.631 178.397 332.305 177.641M289.695 177.641C296.017 179.765 313.388 182.74 332.305 177.641" stroke="white"/>
<circle cx="311" cy="98.29" r="17.5" stroke="white"/>
<path d="M329.289 131.662C330.79 126.482 338.259 124.309 341.999 124.29C345.644 124.309 353.21 126.482 354.711 131.662C356.596 138.167 356.016 142.07 355.871 143.371C355.726 144.672 355.871 153.345 357.176 157.971C358.481 162.597 358.046 175.607 357.176 179.799C356.453 183.285 355.127 187.172 356.203 189.629C356.421 190.126 356.737 190.565 357.176 190.93C359.264 192.664 356.79 194.544 355.291 195.266C354.182 195.939 349.974 197.284 342.006 197.29C334.03 197.285 329.818 195.94 328.709 195.266C327.21 194.543 324.736 192.664 326.824 190.93C327.263 190.565 327.579 190.126 327.797 189.629C328.873 187.172 327.547 183.285 326.824 179.799C325.954 175.607 325.519 162.597 326.824 157.971C328.129 153.345 328.274 144.672 328.129 143.371C327.984 142.07 327.404 138.167 329.289 131.662Z" fill="#FF8025"/>
<path d="M342.049 124.29C338.326 124.29 330.797 126.458 329.289 131.662C327.404 138.167 327.984 142.07 328.129 143.371M328.129 143.371C328.274 144.672 328.129 153.345 326.824 157.971C325.519 162.597 325.954 175.607 326.824 179.799C327.547 183.285 328.873 187.172 327.797 189.629M328.129 143.371C332.301 147.804 343.691 154.01 355.871 143.371M342.049 197.29C334.045 197.29 329.82 195.941 328.709 195.266C327.21 194.543 324.736 192.664 326.824 190.93C327.263 190.565 327.579 190.126 327.797 189.629M341.951 124.29C345.576 124.29 353.203 126.458 354.711 131.662C356.596 138.167 356.016 142.07 355.871 143.371M355.871 143.371C355.726 144.672 355.871 153.345 357.176 157.971C358.481 162.597 358.046 175.607 357.176 179.799C356.453 183.285 355.127 187.172 356.203 189.629M341.951 197.29C349.955 197.29 354.18 195.941 355.291 195.266C356.79 194.544 359.264 192.664 357.176 190.93C356.737 190.565 356.421 190.126 356.203 189.629M327.797 189.629C332.011 191.026 343.592 192.982 356.203 189.629" stroke="white"/>
<circle cx="342" cy="137.29" r="11.5" fill="#FF8025" stroke="white"/>
<path d="M327.218 164.49C331.053 157.776 334.369 165.657 337.689 164.352C341.526 162.844 341.952 158.416 345.516 156.247C346.6 155.587 349.324 156.526 350.367 155.824C351.736 154.902 354.331 150.636 355.889 150.106" stroke="white" stroke-linecap="round" stroke-linejoin="round"/>
<path d="M326.93 165.578C334.728 165.422 329.405 172.261 332.181 174.423C335.39 176.922 339.502 175.029 343.16 176.958C344.272 177.545 344.779 180.343 345.908 180.873C347.392 181.57 352.424 181.605 353.654 182.661" stroke="white" stroke-linecap="round" stroke-linejoin="round"/>
</svg>
