<svg width="35" height="35" viewBox="0 0 35 35" fill="none" xmlns="http://www.w3.org/2000/svg">
<path fill-rule="evenodd" clip-rule="evenodd" d="M8.67496 0H26.3325C31.0978 0 35 3.90223 35 8.66745V26.325C35 31.0903 31.0978 34.9925 26.3325 34.9925H20.2015V22.3253H24.5916L25.2519 17.2223H20.2015V13.9655C20.2015 12.4871 20.6068 11.4816 22.7305 11.4816H25.432V6.91895C24.9668 6.85892 23.3608 6.71634 21.4923 6.71634C17.5976 6.71634 14.926 9.0952 14.926 13.4627V17.2298H10.521V22.3328H14.926V35H8.66745C3.90223 35 0 31.0978 0 26.3325V8.67496C0 3.90973 3.90223 0.00750429 8.66745 0.00750429L8.67496 0Z" fill="#FEFEFE"/>
</svg>
