<svg width="35" height="35" viewBox="0 0 35 35" fill="none" xmlns="http://www.w3.org/2000/svg">
<path fill-rule="evenodd" clip-rule="evenodd" d="M26.3909 0H8.60909C3.87602 0 0 3.87602 0 8.60909V26.3909C0 31.124 3.87602 35 8.60909 35H26.3909C31.124 35 35 31.124 35 26.3909V8.60909C35 3.87602 31.124 0 26.3909 0V0ZM26.9777 6.04566C28.1127 6.04566 29.0393 6.96448 29.0393 8.10721C29.0393 9.24222 28.1204 10.1688 26.9777 10.1688C25.8427 10.1688 24.9162 9.24994 24.9162 8.10721C24.9162 6.9722 25.835 6.04566 26.9777 6.04566ZM17.4961 8.7944C19.8974 8.7944 22.0748 9.76726 23.6422 11.3424C25.2173 12.9175 26.1902 15.0871 26.1902 17.4884C26.1902 19.8897 25.2173 22.0671 23.6422 23.6345C22.0671 25.2096 19.8974 26.1824 17.4961 26.1824C15.0949 26.1824 12.9175 25.2096 11.3501 23.6345C9.77498 22.0593 8.80212 19.8897 8.80212 17.4884C8.80212 15.0871 9.77498 12.9098 11.3501 11.3424C12.9252 9.76726 15.0949 8.7944 17.4961 8.7944ZM17.4961 11.6898C20.7004 11.6898 23.2947 14.2841 23.2947 17.4884C23.2947 20.6927 20.7004 23.287 17.4961 23.287C14.2919 23.287 11.6976 20.6927 11.6976 17.4884C11.6976 14.2841 14.2919 11.6898 17.4961 11.6898ZM26.3832 3.60578H8.60137C5.86036 3.60578 3.60578 5.86036 3.60578 8.60137V26.3832C3.60578 29.1242 5.86036 31.3788 8.60137 31.3788H26.3832C29.1242 31.3788 31.3788 29.1242 31.3788 26.3832V8.60137C31.3788 5.86036 29.1242 3.60578 26.3832 3.60578Z" fill="#FEFEFE"/>
</svg>
