<svg id="Слой_1" data-name="Слой 1" xmlns="http://www.w3.org/2000/svg" viewBox="0 0 1980 1230"><defs><style>.cls-1{fill:#ecebea;}.cls-2{fill:#322c29;}.cls-3{fill:#ec6a14;}.cls-4{fill:#ec6913;}.cls-5{fill:#ec6b15;}.cls-6{fill:#ec6911;}.cls-7{fill:#ec6912;}.cls-8{fill:#ec670e;}.cls-28,.cls-9{fill:#fff;}.cls-10{fill:#eb670d;}.cls-11{fill:#eb660c;}.cls-12{fill:#ea660c;}.cls-13{fill:#ecebeb;}.cls-14{fill:#e8650d;}.cls-15{fill:#eae9e9;}.cls-16{fill:#302a25;}.cls-17{fill:#2f2f2e;}.cls-18{fill:#2e2a26;}.cls-19{fill:#edeceb;}.cls-20{fill:#343433;}.cls-21{fill:#323230;}.cls-22{fill:#fffdfb;}.cls-23{fill:#fffcfa;}.cls-24{fill:#ed7221;}.cls-25{fill:#ee7525;}.cls-26{fill:#ec6d18;}.cls-27{fill:#ee7c2e;}.cls-28{font-size:59.85px;font-family:Beachday;}</style></defs><path class="cls-1" d="M1556.87,632.84c3.83,2.1,7.8,4,11.48,6.34,20.14,12.8,40.75,24.68,64.15,30.5,8,2,16.21,2.8,24.37,3.83,5.65.71,11.38.86,17.08,1.26,5.26,3.38,10.22,3.32,14.77-1.31,20.9,1.26,42.17.3,62.13,8.11,26.5,10.36,43,30.09,49.28,57.47,5,21.81-.11,42.87-8.5,63.29-12.31,30-31.1,55.95-49.56,82.17-16.37,23.24-32.37,46.75-49,69.82-19.31,26.83-38,54.24-58.94,79.73-25.72,31.27-55.34,58.81-90.78,79.2-35.76,20.57-73.77,35.82-114.06,44.67-21,4.62-42.43,7.54-63.79,10.31a269.37,269.37,0,0,1-41.21,2.47A460.4,460.4,0,0,1,1207.25,1153c-43.53-12.62-85.5-29.35-126.8-47.86-1.51-.68-2.64-2.23-4-3.36a28.43,28.43,0,0,1,2.78-1.35,377.77,377.77,0,0,0,97.08-51.46c54.83-40,98-90.44,132.41-148.69,1.3-2.2,2.66-4.37,4.68-7.7,17.12,67.43,33.81,133.18,51,200.68,36.18-90.82,71.57-179.65,107.35-269.44L1351.67,808.2c1.38-4.15,2.73-7.5,3.6-11q9.78-39.21,19.4-78.46c7.67-3.1,15.39-6.11,23-9.35,5.62-2.38,7.83-7.2,6-12.31-1.72-4.81-7.13-7.08-12.74-5-4.59,1.67-9,3.72-13.55,5.6a30.64,30.64,0,0,1,0-3.18c3.27-30.31,3.67-60.65-.19-90.91-2-16-5.17-31.78-7.81-47.65,36,.19,71.21,5.18,103.57,21.52,18.66,9.42,35.94,21.61,53.62,32.9,6.75,4.3,12.88,9.56,19.29,14.39q-22.85-1.49-45.69-3c-7-.47-11.48,2.6-12,8.38-.51,6,3.23,9.7,10.24,10.2l46.32,3.32C1553,644.25,1556.17,641.41,1556.87,632.84Zm-32.45,84.75c4-1.35,6.2-2,8.35-2.87q19.44-7.92,38.84-16c9.24-3.83,12.15-8.24,9.62-14.3-2.39-5.74-7.82-6.74-17-3q-20.58,8.49-41.11,17.1c-4.66,1.95-7.58,5.73-5.83,10.47C1518.57,712.49,1522.18,715,1524.42,717.59ZM1409.93,589.33c-9.49.09-13.55,7.76-9.53,14.83q12,21,24.35,41.76c3.33,5.6,8.69,7.06,13.49,4.13,4.46-2.73,5.72-8.07,2.67-13.42-8.11-14.18-16.25-28.33-24.77-42.26C1414.58,591.8,1411.22,590.34,1409.93,589.33Z"/><path class="cls-2" d="M1374.67,718.77q-9.69,39.24-19.4,78.46c-.87,3.47-2.22,6.82-3.6,11l120.08,15.57c-35.78,89.79-71.17,178.62-107.35,269.44-17.14-67.5-33.83-133.25-51-200.68-2,3.33-3.38,5.5-4.68,7.7-34.39,58.25-77.58,108.66-132.41,148.69a377.77,377.77,0,0,1-97.08,51.46,28.43,28.43,0,0,0-2.78,1.35c-21.27,4.84-42.38,10.62-63.85,14.31a433.72,433.72,0,0,1-108.07,5.11c-23.5-1.86-46.88-5.08-70.32-7.64a50.05,50.05,0,0,0-5.22,0c-3,35.28-6,70.45-9,106.23l-108.14-46c2.77-1.23,4.5-2.07,6.27-2.78,32.4-13.1,64.76-26.3,97.27-39.13,4.8-1.89,7.29-4,6.87-9.37-.25-3.3.62-6.69.87-8.92l-91.79-26.79L713,1079.56c-35.8-15.14-70.55-32.41-101.67-55.85-19.1-14.39-36.81-30.63-55.15-46l-13.11-13.86c-18.61-21.92-35.57-45-49-70.52a352.59,352.59,0,0,1-38-122.66c-3-24.75-4.46-49.53-2.51-74.44.18-2.31,0-4.64,0-7.72L286.41,731l-.63-.87L454.73,566l15.55,24.19C494.85,501.31,535.7,421.9,593,349.37L178.22,343l-.33-1.26,539-331.41,65.34,223.42a411.94,411.94,0,0,1,82.67-12.4c89.27-4.19,174.06,14.13,254.42,52.67,21,10.07,40.78,22.65,61.23,33.89a19.44,19.44,0,0,0,8.84,2.51c32.6.18,65.2.11,98.45,1.21l-54,35.88c47.3,40.9,85.94,88.07,113.25,145.79l46-49.21c25.92,31,50.29,60.1,74.67,89.22l-.66,1.16-104.27-49a12.38,12.38,0,0,0-1.43.93c-11.79,11.07-11.52,11-6.2,26.08,5.07,14.37,9.5,29,14.21,43.46,2.64,15.87,5.77,31.69,7.81,47.65,3.86,30.26,3.46,60.6.19,90.91a30.64,30.64,0,0,0,0,3.18Q1376,708.22,1374.67,718.77Zm69.55-201.72,1.53.21-.57-1.31L1394,454.05l-25.27,27.83C1393.47,493.39,1418.84,505.23,1444.22,517.05ZM1170.93,389.32l-23,15.26c-10.33,6.7-20.72,13.3-30.89,20.23-1.22.83-2.11,3.65-1.7,5.16,4.11,15.34,8.52,30.61,12.84,45.89q2.7,9.4,5.39,18.81l5.14,20.17-5.16,1.67c-3.38-12.08-6.56-23.5-9.77-34.92q-11-38.89-21.93-77.78l-5.82-20.6-19.89-72.66h96.29C1069,241.3,913.3,205.18,783.83,239.44q17,58.56,34,117.1,11.38,39.1,22.87,78.18c1,3.49,1.6,6.48-3.95,6-.27-.71-.6-1.45-.83-2.23C828,411.64,820,384.8,812.37,357.86c-1.14-4-2.75-5.31-6.88-5.33-14.9-.08-29.79-.68-44.69-.9-51.1-.74-102.19-1.35-153.29-2.18-4.69-.08-7.83,1.21-10.84,5Q511.25,461.1,475.67,593a11.9,11.9,0,0,0,1.37,8.19c5,8.61,10.49,17,15.89,25.36,22.87,35.52,45.77,71,68.95,107l-4.49,3c-13.11-20-26-39.54-38.6-59.22-2.31-3.6-4.53-4.7-8.73-3.55-14.12,3.88-28.24,7.86-42.56,10.86-6.5,1.37-8.46,4.13-8.61,10.43-.6,26.85-.27,53.59,3.49,80.27C474.73,862.9,515,935.16,581.41,993c57.44,50.09,124.35,82.27,197.4,102.37,14.65,4,29.52,7.24,45,11,3.17-37,6.24-72.93,9.31-108.72,5.85-1.3,5.59,1.84,5.29,5.33-.91,10.79-1.7,21.6-2.53,32.4l-2.91,31.77-.16.57c0,.71-.1,1.42-.16,2.13-1.08,12.22-2.15,24.44-3.26,37,4.09.72,7.58,1.55,11.12,1.93,21.11,2.27,42.22,4.44,63.33,6.65l26.87.68a52.12,52.12,0,0,0,6.35.31c25-1.86,50.12-2.9,75-5.93a300.06,300.06,0,0,0,88-24.47l20.8-9.89,44-26.38,15.47-11.06c1.22-.84,2.49-1.62,3.66-2.54,49.31-38.6,88.56-85.81,120.56-139.46,5.66-9.5,7.48-18,2.73-27.78q-2.9-11.41-5.8-22.82c-3-12.14-5.74-24.32-9-36.37-.49-1.78-3.16-4-5.06-4.23q-65.05-8.71-130.17-16.9c-4.9-.62-4.79-2.72-3.19-6.14l143.69,18.57,6.45.63,41.35,5.84c.64-1.34,1.08-2.07,1.35-2.85a488.48,488.48,0,0,0,26.43-124.11,397.58,397.58,0,0,0-1.41-77c-2.74-23.62-7.08-46.94-15.19-69.41-3.69-10.54-7.37-21.08-10.92-31.23l-12.17,10.76-21.4,20.46-3.26-3.95L1342,496l-1.32-2.74c-26.12-54.2-62.87-100.12-108.49-139.11-1.48-1.26-4.93-2.25-6.19-1.43C1207.54,364.71,1189.26,377.06,1170.93,389.32Zm-972.6-53.27.34,1.42,610.1,9.43C776.71,237.22,745,128.65,713.09,19.52ZM1463.59,828.71,1298,808.1,1365,1072.5l1.49-.12Q1414.94,950.82,1463.59,828.71ZM452.53,576.28,305.79,718.9l.59,1.06L511.93,667.6C492,637,472.55,607.07,452.53,576.28Zm660.93-156.12L1269.22,317H1084.08C1093.89,351.4,1103.54,385.32,1113.46,420.16ZM726.83,1173.7,814.54,1211c2.16-25.25,4.25-49.74,6.43-75.18Z"/><path class="cls-3" d="M1556.87,632.84c-.7,8.57-3.86,11.41-12.07,10.82l-46.32-3.32c-7-.5-10.75-4.23-10.24-10.2.49-5.78,5-8.85,12-8.38q22.85,1.53,45.69,3C1551.28,625.1,1555.32,627.28,1556.87,632.84Z"/><path class="cls-4" d="M1688.72,673.46c-4.55,4.63-9.51,4.69-14.77,1.31L1649.71,633a42,42,0,0,1-2.47-4.44c-2.11-5-.92-9.31,3.68-12.12,4.76-2.9,9.53-1.7,12.25,2.78,8.91,14.66,17.54,29.5,25.74,44.57C1690.25,666.27,1688.85,670.21,1688.72,673.46Z"/><path class="cls-5" d="M1614.74,598.86c0,7.87.08,15.75,0,23.63-.09,6.71-3.56,10.71-9.16,10.86-5.83.15-9.55-4-9.61-11.05-.14-15.75-.23-31.51-.19-47.26,0-6.64,3.67-10.47,9.46-10.42s9.06,3.74,9.13,10.62c.09,7.87,0,15.75,0,23.62Z"/><path class="cls-6" d="M1535.45,585.3c-8.71.25-13.86-7.13-10-13.19,9.27-14.76,19.09-29.18,29-43.52,2.93-4.24,7.64-4.67,12-2,4.67,2.88,6.06,7.69,3.19,12.17-9.4,14.67-19.22,29.09-29.13,43.42C1539.15,584,1536.33,584.76,1535.45,585.3Z"/><path class="cls-7" d="M443.77,924.32c1.48,1.33,5.26,3.22,6.58,6.2,6.71,15.08,12.86,30.42,19,45.74,2.13,5.32.1,10.3-4.47,12.33-5,2.24-10.17.37-12.54-5.18-6.49-15.19-12.88-30.44-19-45.79C430.72,930.88,435,924.5,443.77,924.32Z"/><path class="cls-6" d="M302.43,895.3c-1.8,3.19-2.7,5.92-4.5,7.78q-16.64,17.24-33.64,34.1c-4.93,4.9-10.72,5.08-14.61.9S246.27,928.79,251,924c11-11.24,22.19-22.37,33.23-33.6,3.36-3.42,7.45-4.85,11.53-2.55C298.41,889.29,300.07,892.53,302.43,895.3Z"/><path class="cls-6" d="M507.61,1026.1c-1.86,3.76-2.74,6.15-4.11,8.21q-12.67,19.15-25.55,38.17c-3.79,5.62-9.43,7.14-14.11,4-4.48-3-5.2-8.52-1.53-14.07,8.81-13.3,17.73-26.53,26.61-39.78,2.63-3.94,6.44-6.42,10.81-4.24C502.86,1019.93,505,1023.45,507.61,1026.1Z"/><path class="cls-7" d="M1645.79,381.57c-1.69,3.7-2.39,5.94-3.63,7.82q-12.83,19.44-25.87,38.73c-3.81,5.63-9.53,7.13-14.14,4s-5.21-8.51-1.53-14.07q13.19-20,26.57-39.8c2.59-3.85,6.44-6.44,10.84-4.24C1641.15,375.56,1643.3,379,1645.79,381.57Z"/><path class="cls-7" d="M378.74,910.06c-1.8-1.74-5.31-3.79-6.64-6.8-1.84-4.16-.51-8.89,4-10.86q24-10.33,48.28-19.95c4.76-1.87,8.94.27,11.07,5s.94,9.6-3.58,11.59c-16.33,7.16-32.95,13.67-49.47,20.4A30.75,30.75,0,0,1,378.74,910.06Z"/><path class="cls-7" d="M408.24,1018c-1.22-1-4.49-2.53-6.06-5.1-8.53-14-16.72-28.17-24.84-42.4-3-5.29-1.54-10.59,3.17-13.22,4.55-2.55,9.71-1.37,12.68,3.61,8.52,14.23,16.92,28.54,25,43C422,1010.59,417.6,1018,408.24,1018Z"/><path class="cls-6" d="M1592.64,492.28c1.9-1.9,4.07-5.8,7-6.47s8.45.67,9.91,3c9.32,14.72,18,29.85,26.49,45.09,2.42,4.34.92,8.85-3.53,11.62s-9.35,2.06-11.93-2.12c-9.24-15-17.9-30.4-26.7-45.69C1593.27,496.65,1593.29,495.26,1592.64,492.28Z"/><path class="cls-8" d="M1561.21,448.92c0,7.87.06,15.74,0,23.61,0,6.12-3.62,10.16-8.87,10.3s-9.07-3.72-9.19-9.9q-.44-24.23-.48-48.46c0-6.77,3.56-10.5,9.35-10.45s9.11,4,9.19,10.66C1561.29,432.76,1561.21,440.84,1561.21,448.92Z"/><path class="cls-6" d="M1663.38,433.25c14.22.92,28.44,1.74,42.64,2.78,7.06.52,10.66,4.48,10.13,10.49-.49,5.54-4.56,8.63-11.5,8.18q-23.87-1.54-47.7-3.43c-6.06-.47-9.76-4.55-9.37-9.88.38-5.16,4.17-8.34,10.07-8.41,1.91,0,3.83,0,5.74,0A2.53,2.53,0,0,1,1663.38,433.25Z"/><path class="cls-8" d="M343.88,919.68c0,8.07.1,16.15,0,24.22-.1,6.4-3.47,9.88-9.15,9.85-5.5,0-9.07-3.72-9.11-10q-.16-24.54,0-49.08c0-5.91,3.43-9.45,8.75-9.58,5.54-.13,9.17,3.46,9.3,9.72.17,8.28,0,16.56,0,24.85Z"/><path class="cls-7" d="M543.08,963.82l13.11,13.86q-11.13,16.62-22.26,33.24c-4.49,6.68-9.78,8.4-14.78,4.9s-5.19-8.77-.92-15.12Q530.64,982.25,543.08,963.82Z"/><path class="cls-8" d="M713,1079.56l18.36,7.14c-8.88,9.12-17.67,18.33-26.67,27.33-4.47,4.47-10.41,4.55-14.12.67-3.89-4.08-3.61-9.24,1.15-14.08C698.73,1093.5,705.91,1086.57,713,1079.56Z"/><path class="cls-3" d="M1524.42,717.59c-2.24-2.56-5.85-5.1-7.1-8.51-1.75-4.74,1.17-8.52,5.83-10.47q20.53-8.6,41.11-17.1c9.15-3.78,14.58-2.78,17,3,2.53,6.06-.38,10.47-9.62,14.3q-19.39,8.06-38.84,16C1530.62,715.6,1528.38,716.24,1524.42,717.59Z"/><path class="cls-4" d="M1409.93,589.33c1.29,1,4.65,2.47,6.21,5,8.52,13.93,16.66,28.08,24.77,42.26,3,5.35,1.79,10.69-2.67,13.42-4.8,2.93-10.16,1.47-13.49-4.13q-12.35-20.77-24.35-41.76C1396.38,597.09,1400.44,589.42,1409.93,589.33Z"/><path class="cls-4" d="M1374.67,718.77q1.35-10.54,2.71-21.1c4.51-1.88,9-3.93,13.55-5.6,5.61-2,11,.23,12.74,5,1.83,5.11-.38,9.93-6,12.31C1390.06,712.66,1382.34,715.67,1374.67,718.77Z"/><path class="cls-9" d="M903.79,1115.48c-21.11-2.21-42.22-4.38-63.33-6.65-3.54-.38-7-1.21-11.12-1.93,1.11-12.58,2.18-24.8,3.26-37l.16-2.13.16-.57c5.24.6,10.19.54,13.58-4.59,11-16.63,22.22-33.16,33.13-49.86,3-4.64,1.34-12-2.82-15-4.38-3.22-9.93-2.58-14.4,1.81a28.35,28.35,0,0,0-3.57,4.44c-6,8.8-11.75,17.69-17.79,26.41-1.35,2-3.46,3.38-5.22,5.05.83-10.8,1.62-21.61,2.53-32.4.3-3.49.56-6.63-5.29-5.33-3.07,35.79-6.14,71.68-9.31,108.72-15.43-3.75-30.3-7-45-11-73-20.1-140-52.28-197.4-102.37C515,935.16,474.73,862.9,462.38,775.35c-3.76-26.68-4.09-53.42-3.49-80.27.15-6.3,2.11-9.06,8.61-10.43,14.32-3,28.44-7,42.56-10.86,4.2-1.15,6.42,0,8.73,3.55,12.61,19.68,25.49,39.17,38.6,59.22l4.49-3c-23.18-36-46.08-71.47-68.95-107-5.4-8.39-10.87-16.75-15.89-25.36a11.9,11.9,0,0,1-1.37-8.19q35.77-131.8,121-238.6c3-3.76,6.15-5.05,10.84-5,51.1.83,102.19,1.44,153.29,2.18,14.9.22,29.79.82,44.69.9,4.13,0,5.74,1.32,6.88,5.33C820,384.8,828,411.64,835.9,438.5c.23.78.56,1.52.83,2.23,5.55.47,5-2.52,3.95-6q-11.48-39.08-22.87-78.18-17-58.53-34-117.1c129.47-34.26,285.18,1.86,388.62,71.11h-96.29l19.89,72.66c-4.82,2.55-6.18,7.08-5.07,11.71,1.26,5.25,5.13,8.54,10.89,8.89q11,38.9,21.93,77.78c3.21,11.42,6.39,22.84,9.77,34.92l5.16-1.67-5.14-20.17c2.31-.26,4.82,0,6.9-.86,18.9-7.59,37.79-15.21,56.53-23.18,5.89-2.51,7.53-8.12,5.08-13.84s-8.51-8.66-14.14-6.31c-20,8.32-39.85,16.9-59.76,25.38-4.32-15.28-8.73-30.55-12.84-45.89-.41-1.51.48-4.33,1.7-5.16,10.17-6.93,20.56-13.53,30.89-20.23,4.75,3.86,15.87,4.38,20.6,1,5-3.62,5.71-8.25,2.38-16.23,18.33-12.26,36.61-24.61,55.11-36.62,1.26-.82,4.71.17,6.19,1.43,45.62,39,82.37,84.91,108.49,139.11L1342,496l-33.17,34.25,3.26,3.95,21.4-20.46c.19.91.77,1.95.52,2.71-3.38,10.22,1,16.29,11.91,16.54,3.56.08,7.11.8,10.66,1.22,8.11,22.47,12.45,45.79,15.19,69.41a397.58,397.58,0,0,1,1.41,77,488.48,488.48,0,0,1-26.43,124.11c-.27.78-.71,1.51-1.35,2.85l-41.35-5.84a5.18,5.18,0,0,1,.45-1.83c13-18.2,26.26-36.27,39.06-54.63,3.74-5.35,1.78-12.88-3-15.73-6.2-3.68-11.51-2.47-15.81,3.91q-16.32,24.26-32.45,48.65c-3.64,5.49-3,10.27,1.63,14.89,1.3,1.31,2.48,2.74,3.71,4.11L1154,782.5c-1.6,3.42-1.71,5.52,3.19,6.14q65.11,8.22,130.17,16.9c1.9.25,4.57,2.45,5.06,4.23,3.29,12.05,6.08,24.23,9,36.37-14.59-.85-29.18-1.86-43.78-2.46-6.41-.26-10.43,3.8-11,10-.45,5.08,4.36,11.06,9.92,11.52,16.87,1.4,33.76,2.51,50.64,3.74,4.75,9.83,2.93,18.28-2.73,27.78-32,53.65-71.25,100.86-120.56,139.46-1.17.92-2.44,1.7-3.66,2.54-8-19.82-15.66-39.75-24-59.39-2.74-6.42-10.36-7.61-16.29-3.77-4.89,3.16-5.87,8.49-2.8,15.95,7.19,17.42,14.31,34.86,21.77,52.16,1,2.43,3.88,4.09,5.89,6.11l-44,26.38q-7.77-12.77-15.53-25.52c-4-6.51-7.52-13.32-12-19.43-3.77-5.11-9.39-5.7-14.08-2.75-4.89,3.08-6.53,8.92-3.9,14.56,1.16,2.49,2.6,4.86,4,7.25q10.37,17.89,20.75,35.78a300.06,300.06,0,0,1-88,24.47c-24.86,3-50,4.07-75,5.93a52.12,52.12,0,0,1-6.35-.31,44.55,44.55,0,0,1,2.89-6.26c3.73-5.67,7.65-11.21,11.53-16.78,3.52-5,3-12.09-1.22-15.69s-12.12-3.79-15.14.5C920.07,1090.21,912.06,1102.93,903.79,1115.48ZM1282.4,607.16c.64-4.76-1.85-8.28-5.94-9.13-3.49-.72-7.62.25-11.12,1.47-2.39.83-4.18,3.38-6.24,5.17-6.87-3.65-10.3-9.09-9.11-16.3.77-4.63-1.59-4.59-5.79-5.23.23,4.6-.48,8.86.84,12.33,1.89,5,5.27,9.36,8,14-1.24,1.9-2.2,4.07-3.76,5.66-8.79,9-17.76,17.78-26.59,26.72-5.42,5.49-5.75,11.43-1.1,16.3,4.05,4.24,11.58,3.86,16.41-1q19.24-19.16,38.37-38.43c1.42-1.44,2.33-3.4,3.47-5.11,6,.86,12.3.8,17.85,2.82,7,2.56,8.74,9.11,6.24,16.14-.57,1.59.48,3.76.78,5.66l1.91-.17,3.36-4.42c.61,2.11,1.69,4.21,1.74,6.34.21,8.28-.09,16.58.15,24.86.19,6.62,5.72,12.38,11.38,12.43,5.26.05,11.36-5.61,11.44-11.68.25-19.55.47-39.12-.1-58.66-.29-9.77-8.23-14.79-16-11.3-4.76,2.12-6.64,6-6.85,11.19-.2,4.88-1.19,9.72-1.84,14.57-3.88-8.64-11.09-12.21-20-13.17C1287.35,608,1284.88,607.53,1282.4,607.16ZM685.16,576.24a42.09,42.09,0,0,1,3.86-5.57c4.69-4.91,10.14-9.23,14.15-14.62,2.2-3,3.73-8.22,2.61-11.4s-5.81-7-9.13-7.2c-3.74-.23-8.53,2.43-11.44,5.29-13.45,13.22-26.43,26.93-39.53,40.51-5.09,5.26-5.23,10.21-.6,15.08s10.66,4.94,15.83.35c2.69-2.38,5.35-4.78,8-7.18,2.8.21,5,.38,6.49-3.27,1-2.42,4.52-4.27,7.31-5.37,7.28-2.87,13.57.82,20,3.78,6.19,2.89,12.51,5.49,18.78,8.21l1.87-2.54c-1.43-1.49-2.6-3.44-4.32-4.37a79.59,79.59,0,0,0-12.71-5.74C699.35,579.92,692.22,578.2,685.16,576.24ZM1132.71,1023l.18-.26-.32.15c-.79-1.29-1.34-2.83-2.39-3.85q-37.46-36-75.07-71.91c-3.56-3.38-4.49-5.94-2.19-10.77,8.72-18.35,16.72-37,25.25-55.48,2.06-4.45.58-5.52-3.55-5.74-.81,1.79-1.49,3.33-2.2,4.85q-18.29,39.72-36.59,79.43c-.08-1.69-.18-3.39-.26-5.09-.32-7.21-5.41-12.44-11.89-12.22s-9.83,4.46-9.84,12.26q0,29,0,58c0,7.71,3.79,11.45,11.23,11.51,6.72,0,10.39-3.88,10.47-11.42.08-8.08,0-16.16,0-24.24,1,.27,2,.47,3,.82ZM646.94,754.13c-13.73,5.48-27.44,11-41.19,16.44-8,3.15-11,8.89-8,15.73,2.56,6,8.68,7.64,16.25,4.73,10.22-3.93,20.53-7.65,30.8-11.46l-8.46,96,5.34.29c1.42-14.4,2.79-28.32,4.15-42.12l198-40.77c0-.41,0-.82,0-1.22L651.07,718.42C649.62,731,648.28,742.56,646.94,754.13ZM970.37,495.65c1.27,1.87,2.08,3.65,3.4,4.91,3.83,3.66,7.71,7.32,11.86,10.61,25,19.77,24.68,51.7-.86,70.74-2.21,1.65-4.45,3.28-6.79,4.75-13.66,8.6-27.64,16.73-40.93,25.86-8.13,5.59-16.4,11.73-22.52,19.31-10,12.36-5.24,27.61,9.33,34.1a95.22,95.22,0,0,0,11.43,3.83c6.69,2,13.62,3.42,20.09,6,13.59,5.39,17.39,16,10.26,28.68a53.13,53.13,0,0,1-9.85,12.36c-5.1,4.78-11,8.72-16.42,13.15-6.4,5.23-12.39,10.83-14.79,19.82,2.18.07,4.39-.2,5.63-1.44,4.63-4.61,8.66-9.85,13.43-14.3,7.14-6.66,15.6-12.08,21.92-19.39,16.5-19.08,10.54-38.58-13.36-46.17-1.82-.57-3.71-.93-5.54-1.48-6.9-2.07-14.06-3.55-20.63-6.4-11.72-5.09-14.83-16.23-6.57-26,5.67-6.66,13-12.2,20.28-17.14,15.83-10.68,32.49-20.16,48.11-31.14a58.89,58.89,0,0,0,16.75-17.94c11.16-19.2,4.61-45-14.13-60.65-5.36-4.47-10.53-9.16-16.28-14.19Zm122.74,12.84.54,0c-.56-10.79-.78-21.6-1.81-32.34-.67-7-5.73-11.29-11.38-10.94s-10.33,6-10.34,13.1q-.06,27.75,0,55.5c0,9.26,3.67,13.28,11.7,13.21,7.61-.06,11.2-4.12,11.27-13C1093.16,525.5,1093.11,517,1093.11,508.49Zm-34-95.78c9.45.1,14-4.13,13.41-11a25.62,25.62,0,0,0-3.47-10c-8.89-15.65-18-31.16-27.1-46.69-3.54-6-9.91-7.88-15.84-4.74-5.24,2.77-7.09,9.29-3.7,15.29,9.58,17,19.26,33.87,29.33,50.54C1053.67,409.3,1057.55,411.36,1059.09,412.71Zm169.82,79.22c3-2,6.86-3.31,8.75-6,11.34-16.35,22.3-33,33.22-49.61,2.78-4.24,1.66-11.28-1.71-14.06-5.18-4.28-10.76-4.32-15.32.7-3.53,3.88-6.33,8.45-9.27,12.83-8.49,12.66-17.21,25.19-25.22,38.14C1214,482.63,1218.52,490.76,1228.91,491.93Zm-59.06,41.65a34.85,34.85,0,0,0,1.26,4.34c2.58,6.51,5.2,13,7.92,19.45,4.93,11.74,9.69,23.56,15,35.12,2.84,6.17,8.11,7.89,13.68,5.6s8-7.9,6.18-14.21c-.3-1-.57-2-1-3q-11-26.48-22-52.91c-2.22-5.3-7.39-7.83-13.14-6.34C1172.39,523,1169.74,526.75,1169.85,533.58ZM638.29,528a54.3,54.3,0,0,0-1.82-6.65Q626,495.71,615.34,470.16c-3.11-7.47-8.49-10.14-15-7.63-6.3,2.44-8.58,8.52-5.7,15.79,2.81,7.1,5.82,14.12,8.76,21.17,4.57,11,9,22,13.8,32.86,2.41,5.41,7.1,8.21,13,6.62C635.41,537.59,638.77,534.14,638.29,528ZM968.56,847.45a10.42,10.42,0,0,0-2.92.51c-18.84,7.68-37.75,15.22-56.44,23.29a10.64,10.64,0,0,0-5.63,13.91c2.67,5.69,8.67,8.57,14.25,6.33q27.73-11.13,55.33-22.63c5.31-2.22,8.61-8.77,7.21-13.64C978.82,849.84,975.05,847.23,968.56,847.45Zm-48.84,99.11c-3.87,2.51-7.38,3.94-9.66,6.47-3.65,4.05-2,8.7.39,12.9q14.2,24.45,28.48,48.87c3.45,5.91,10.3,8.56,15.63,6,5.58-2.72,7.65-10,3.92-16.6Q944,978.76,928.84,953.76C927.12,950.94,923.38,949.36,919.72,946.56Zm23.69-629.3c.24-9.64-8.76-15.33-16.48-12.5-2.38.87-4.63,2.12-7,3.09-16.05,6.65-32.16,13.15-48.13,20a10.61,10.61,0,0,0-5.72,13.22c2.15,5.64,8.55,9.46,13.83,7.33,19.05-7.71,38-15.59,56.82-23.95C939.94,323,941.94,318.9,943.41,317.26Zm191.94,420.41c-1.71,8.19,7.78,13.22,13.85,10.77,1.37-.55,2.82-.93,4.19-1.49q25.83-10.66,51.65-21.37a11.19,11.19,0,0,0,6.48-14.64,10.68,10.68,0,0,0-14.2-6.17c-18.66,7.53-37.18,15.38-55.71,23.22C1137.42,729.77,1134.52,732.73,1135.35,737.67Zm34.16-76.16c7.1.65,12.15-3.41,13-9.91.68-5.37-3.61-10.53-10.29-11.27-10.29-1.15-20.64-1.76-31-2.57-8.85-.69-17.75-1-26.56-2.12-6.65-.83-12.77,2.28-13.8,8-1.43,8.1,2.41,13.9,10.33,14.44C1130.62,659.44,1150.07,660.4,1169.51,661.51ZM540.64,576.39h-3.83c-8.67,0-12.68,3.34-12.81,10.57-.13,7.63,3.88,10.82,12.86,11.25s18.08,1.68,27.14,2.25c10.57.68,21.15,1.24,31.74,1.41,6.11.09,9.82-4,10.1-10,.23-5-4.21-11.18-8.88-11.54C578.2,578.88,559.42,577.68,540.64,576.39Zm610.23,228.84c-8.59-.05-13.27,7.76-9.26,16.18,2.83,5.92,6.43,11.48,9.76,17.16,6.87,11.71,13.85,23.37,20.67,35.11,3.13,5.38,8.35,5.32,12.93,4.05s7.72-5.07,6.53-10.27a46.36,46.36,0,0,0-4.62-12.32c-8.26-14.6-17-28.93-25.25-43.5C1159.13,807.25,1155.87,805,1150.87,805.23ZM949.7,377.39l1.33,1.22c.15,1.69-.1,3.54.51,5,7.37,18,14.62,36.1,22.56,53.88,1.38,3.08,5.53,6.37,8.82,6.89,10.08,1.6,14.9-6.65,10.61-17.21-6.61-16.27-13.23-32.54-20-48.76a37.71,37.71,0,0,0-4.26-7c-3.12-4.42-8.12-4.68-12-2.78C954.11,370.23,952.19,374.38,949.7,377.39ZM912.83,250.72c.16-5.95-2.62-10-8.57-10.53q-30.62-2.87-61.27-5.09c-5.92-.44-11.54,4.68-12,10.08-.51,5.94,2.68,10.58,9.33,11.51,9.6,1.35,19.33,1.83,29,2.61,10.32.84,20.66,1.44,31,2.46C907.22,262.45,912.7,257.87,912.83,250.72Zm69,44.26q0-14.69,0-29.38c0-7.07-3.46-11-9.88-11.4-6.83-.41-11.49,2.8-11.63,9.75-.42,20.64-.35,41.3-.07,61.95.08,5.83,6.2,10.41,12,10.11,5.95-.31,9.61-4.44,9.64-11Q981.92,310,981.86,295ZM869.32,904.34c0-10.2.08-20.4,0-30.59-.08-6.72-3.84-10.76-9.83-11-5.75-.2-11.69,4.45-11.76,10.29q-.41,30.58,0,61.18c.09,6.28,6.33,10.8,12.8,10.35,5.51-.39,8.8-4.41,8.82-11C869.36,923.88,869.33,914.11,869.32,904.34ZM668.67,477.23l1.1,2.72c4.81,0,9.61.09,14.41,0,5.5-.14,11.05-1.08,16.48-.59,8.84.81,12.16,5.4,11.6,14.14a79.08,79.08,0,0,0-.23,12.11c1.21,13.3,6.74,24.17,19.23,30.22,12,5.8,23,3.52,33.16-4.82a46,46,0,0,1,6.84-4.64c4.85-2.71,9.47-3.12,13.92,1.23,1.23,1.2,3.69,1.14,6.3,1.85-3.37-9.39-10.94-13-19.36-9.52-5,2.09-9.45,5.56-14,8.65-9.37,6.38-20,6.34-28.91-.7-10-7.85-12.47-18.72-11.67-30.76.2-2.95.82-6,.42-8.85-1.45-10.3-12.06-16.45-25.05-15.14-6.53.66-13.13.61-19.66,1.27C671.65,474.54,670.19,476.24,668.67,477.23Zm25.33,488c.86-1.87,2.48-3.75,2.46-5.62-.13-11.76,5.45-20.43,17.11-22.65,6.82-1.3,14.2,0,21.3.55,5.87.44,11.75,2.36,17.53,2,9.62-.57,15.19-9.26,11.76-19.06-1.56,2.36-3,3.83-3.61,5.59-1.6,5.08-5.07,8.05-10.12,8.17-4.16.1-8.33-1.28-12.53-1.7-7.74-.77-15.64-2.57-23.22-1.71C697.52,932.73,687.33,948.85,694,965.19Zm572.11-41.6c3-11-.61-19.14-9.09-24.13-9.22-5.41-18.12-5-24.76,2.91-8.09,9.69-17.94,12-29.6,10.39a22.64,22.64,0,0,0-3,0l-1.25,1.93c1.54,1.3,2.93,3.52,4.62,3.76,12.75,1.87,24-.83,32.5-11.46,4-5.06,9.35-6.68,15.33-4.22,6.18,2.55,10.61,6.72,11.29,14C1262.36,918.7,1264.22,920.43,1266.11,923.59ZM934.75,289.26c-21.5-8.36-41.76-7.66-61.81,2.57,2.68,4.79,2.7,4.83,6.57,3.13,11.72-5.15,23.86-7.38,36.57-5,5.54,1,11,2.6,16.62,4Z"/><path class="cls-10" d="M198.33,336.05,713.09,19.52C745,128.65,776.71,237.22,808.77,346.9l-610.1-9.43Zm467.5-135.41c-2.85-3.64-5.65-7.33-8.58-10.9-3.43-4.18-9.18-4.42-16.23-1.11-5.28,2.49-3.57,6.72-2.61,10.44,2.41,9.25,5.51,18.32,7.7,27.6,1.16,4.89,3.41,5.4,7.68,4.38,5.14-1.21,5.5-4.17,4.51-8.54-1.63-7.15-2.86-14.39-4.26-21.59l1.9-.53c3.93,6.74,7.9,13.46,11.8,20.22,4.06,7,9.39,2,14.12,1.37,4.36-.62,4.06-4,3.47-7.41-1.61-9.21-3.42-18.4-4.63-27.66-1.42-10.78-2.29-9-12.1-8-3.84.39-5.63,2.4-4.67,6.56,1.11,4.76,1.83,9.59,2.72,14.4A6.54,6.54,0,0,0,665.83,200.64Zm-181.5,53.57c4.74-1.8,10.82-3.64,10.75-11.25-.06-5.41-4.78-10.07-13-11a65.17,65.17,0,0,0-21.41.9c-10,2.24-14.77,10.23-12.79,20.36A126.16,126.16,0,0,0,454.63,275c2.67,6.74,5.69,7.35,13.35,4.42,5.68-2.17,3.89-6.08,2.59-10a18.93,18.93,0,0,1-.47-2.56c3.67-2.22,5.92-2,6.73,2.65.84,4.83,4,6.19,8.48,4.81,2-.62,4.05-1.3,6.12-1.78,4.39-1,5.16-3.45,2.5-6.85C490.82,261.71,487.45,257.92,484.33,254.21Zm97-24.8c1.33-.47,2.35-.75,3.31-1.17,4.41-2,8.6-4.27,8.42-10s-3.92-8.72-8.87-10.4c-10.09-3.43-20.06-3.17-29.77,1.45a14.24,14.24,0,0,0-8.52,11.9c-1.19,11.5,2.69,21.9,8.2,31.59,3.14,5.51,8.41,2.34,12.66,1s3.71-4.53,2.34-7.84a44.7,44.7,0,0,1-1.29-4.6l5.48-1.37a17.32,17.32,0,0,1,1.33,3.39c.84,5.91,4.14,7.4,9.51,5.56,1.8-.62,3.7-1,5.53-1.52,3.77-1.12,4.94-3.5,2.35-6.61C588.77,237,585.14,233.49,581.29,229.41Zm-71.74,36c7.23-1.44,14-2.23,20.46-4.19,9.7-2.94,15.85-15.06,13-24.72-1.45-4.91-4.68-8.43-10.16-7.93-4.68.42-9.28,1.81-14,2.79a8.73,8.73,0,0,1-.48-1.68c-.41-4.53-2.55-8.58-7.2-8.14-5,.48-9.9,2.9-14.75,4.72-.4.16-.4,2.39,0,3.45C500.57,241.22,504.86,252.72,509.55,265.38Zm174.51-88c1.94,8.3,3.77,16.35,5.69,24.37,4.67,19.57,6.9,20.76,26.3,14.1.8-.27,1.58-.59,2.36-.93,7.84-3.43,10.94-8.86,9.84-17.23C725.42,176.06,704.25,166,684.06,177.41Zm-60.75,47.35c1.21,2.35,2,4.32,3.17,6.07,1.38,2.13,2.62,4.86,4.65,5.9,2.53,1.29,6.1,2,8.66,1.22,1.38-.43,2.71-4.89,2.14-7-3.71-13.86-13.19-24-23.36-33.37-3.48-3.19-8.55-1.9-10.73,2.74C602,212.83,599,226,602.3,239.77c.63,2.61,4.22,4.51,6.44,6.74,2.18-2.33,5.39-4.31,6.3-7,1.35-4.06,1.06-8.67,1.46-13ZM383.87,309.69c4.62-1.41,9.5-2.29,13.77-4.4a30.16,30.16,0,0,0,8.95-7.54c1-1.21,1-4.44.12-5.8-.73-1.07-3.69-1.14-5.51-.83-3.32.56-6.5,1.93-9.81,2.62-5.42,1.15-10.89,1.59-13.57-4.75-2.62-6.18.95-10,5.72-13.14,5.17-3.44,6.63-7.91,3.88-12.3-3.58-5.68-8.12-3.07-12.18-.82-9.36,5.17-14.23,18.73-11.31,30.72C366.32,303.28,373.67,309.07,383.87,309.69Zm39.64-33.33c6.58-2.37,6.57-2.37,10.21,3.39a11.28,11.28,0,0,0,1.81,2.6c3.69,3.17,8,4.78,12.15,1.56s3.22-7.6.07-11.17c-6.9-7.82-13.73-15.72-21.13-23.05-5-5-10.22-3.83-12.64,2.42-4.71,12.16-5.52,24.9-3.59,37.67.31,2.08,3.66,4.78,5.92,5.13,1.6.25,4.82-2.65,5.43-4.71C423,286,423,281.45,423.51,276.36Z"/><path class="cls-11" d="M1463.59,828.71q-48.77,122.38-97.07,243.67l-1.49.12L1298,808.1Z"/><path class="cls-12" d="M452.53,576.28c20,30.79,39.46,60.67,59.4,91.32L306.38,720l-.59-1.06Z"/><path class="cls-11" d="M1113.46,420.16c-9.92-34.84-19.57-68.76-29.38-103.21h185.14Z"/><path class="cls-12" d="M726.83,1173.7,821,1135.85c-2.18,25.44-4.27,49.93-6.43,75.18Z"/><path class="cls-13" d="M1297.64,801.07c-1.23-1.37-2.41-2.8-3.71-4.11-4.61-4.62-5.27-9.4-1.63-14.89q16.14-24.39,32.45-48.65c4.3-6.38,9.61-7.59,15.81-3.91,4.82,2.85,6.78,10.38,3,15.73-12.8,18.36-26,36.43-39.06,54.63a5.18,5.18,0,0,0-.45,1.83Z"/><path class="cls-1" d="M1128.2,475.86c19.91-8.48,39.78-17.06,59.76-25.38,5.63-2.35,11.73.67,14.14,6.31s.81,11.33-5.08,13.84c-18.74,8-37.63,15.59-56.53,23.18-2.08.83-4.59.6-6.9.86Q1130.89,485.27,1128.2,475.86Z"/><path class="cls-1" d="M1164.78,1049.8c-2-2-4.84-3.68-5.89-6.11-7.46-17.3-14.58-34.74-21.77-52.16-3.07-7.46-2.09-12.79,2.8-15.95,5.93-3.84,13.55-2.65,16.29,3.77,8.38,19.64,16.08,39.57,24,59.39Z"/><path class="cls-14" d="M1444.22,517.06l-75.45-35.18L1394,454.05l51.14,61.9Z"/><path class="cls-1" d="M835.83,1035.41c1.76-1.67,3.87-3.09,5.22-5.05,6-8.72,11.84-17.61,17.79-26.41a28.35,28.35,0,0,1,3.57-4.44c4.47-4.39,10-5,14.4-1.81,4.16,3.06,5.85,10.39,2.82,15-10.91,16.7-22.11,33.23-33.13,49.86-3.39,5.13-8.34,5.19-13.58,4.59Z"/><path class="cls-1" d="M1100,1086.07q-10.38-17.89-20.75-35.78c-1.38-2.39-2.82-4.76-4-7.25-2.63-5.64-1-11.48,3.9-14.56,4.69-3,10.31-2.36,14.08,2.75,4.5,6.11,8,12.92,12,19.43q7.76,12.77,15.53,25.52Z"/><path class="cls-1" d="M1307.2,869c-16.88-1.23-33.77-2.34-50.64-3.74-5.56-.46-10.37-6.44-9.92-11.52.55-6.22,4.57-10.28,11-10,14.6.6,29.19,1.61,43.78,2.46Q1304.29,857.56,1307.2,869Z"/><path class="cls-1" d="M903.79,1115.48c8.27-12.55,16.28-25.27,24.93-37.55,3-4.29,11.07-4,15.14-.5s4.74,10.65,1.22,15.69c-3.88,5.57-7.8,11.11-11.53,16.78a44.55,44.55,0,0,0-2.89,6.26Z"/><path class="cls-15" d="M1356.62,534.19c-3.55-.42-7.1-1.14-10.66-1.22-10.87-.25-15.29-6.32-11.91-16.54.25-.76-.33-1.8-.52-2.71L1345.7,503C1349.25,513.11,1352.93,523.65,1356.62,534.19Z"/><path class="cls-15" d="M1170.93,389.32c3.33,8,2.65,12.61-2.38,16.23-4.73,3.41-15.85,2.89-20.6-1Z"/><path class="cls-15" d="M1101.87,403.81c-5.76-.35-9.63-3.64-10.89-8.89-1.11-4.63.25-9.16,5.07-11.71Z"/><path class="cls-14" d="M1445.18,516l.57,1.31-1.53-.21Z"/><path class="cls-1" d="M832.76,1067.75c0,.71-.1,1.42-.16,2.13C832.66,1069.17,832.71,1068.46,832.76,1067.75Z"/><path class="cls-16" d="M646.94,754.13c1.34-11.57,2.68-23.13,4.13-35.71l192.66,73.35c0,.4,0,.81,0,1.22l-198,40.77c-1.36,13.8-2.73,27.72-4.15,42.12l-5.34-.29,8.46-96ZM825.49,791,656.13,726.48c-3.22,34.14-6.35,67.2-9.57,101.28Z"/><path class="cls-17" d="M970.37,495.65l3.82-2.08c5.75,5,10.92,9.72,16.28,14.19,18.74,15.67,25.29,41.45,14.13,60.65a58.89,58.89,0,0,1-16.75,17.94c-15.62,11-32.28,20.46-48.11,31.14-7.32,4.94-14.61,10.48-20.28,17.14-8.26,9.72-5.15,20.86,6.57,26,6.57,2.85,13.73,4.33,20.63,6.4,1.83.55,3.72.91,5.54,1.48,23.9,7.59,29.86,27.09,13.36,46.17-6.32,7.31-14.78,12.73-21.92,19.39-4.77,4.45-8.8,9.69-13.43,14.3-1.24,1.24-3.45,1.51-5.63,1.44,2.4-9,8.39-14.59,14.79-19.82,5.43-4.43,11.32-8.37,16.42-13.15a53.13,53.13,0,0,0,9.85-12.36c7.13-12.66,3.33-23.29-10.26-28.68-6.47-2.57-13.4-4-20.09-6a95.22,95.22,0,0,1-11.43-3.83c-14.57-6.49-19.32-21.74-9.33-34.1,6.12-7.58,14.39-13.72,22.52-19.31,13.29-9.13,27.27-17.26,40.93-25.86,2.34-1.47,4.58-3.1,6.79-4.75,25.54-19,25.88-51,.86-70.74-4.15-3.29-8-6.95-11.86-10.61C972.45,499.3,971.64,497.52,970.37,495.65Z"/><path class="cls-18" d="M1035.83,959.37q18.3-39.71,36.59-79.43c.71-1.52,1.39-3.06,2.2-4.85,4.13.22,5.61,1.29,3.55,5.74-8.53,18.44-16.53,37.13-25.25,55.48-2.3,4.83-1.37,7.39,2.19,10.77q37.71,35.77,75.07,71.91c1,1,1.6,2.56,2.39,3.85l.17.12L1038.59,989c-1-.35-2-.55-3-.82l-10.06-4.32C1029,975.52,1032.44,967.45,1035.83,959.37Zm73.78,49.26c.19-.31.39-.62.59-.93L1048.06,948l-14.79,33Z"/><path class="cls-19" d="M1309.89,621.43c.65-4.85,1.64-9.69,1.84-14.57.21-5.2,2.09-9.07,6.85-11.19,7.8-3.49,15.74,1.53,16,11.3.57,19.54.35,39.11.1,58.66-.08,6.07-6.18,11.73-11.44,11.68-5.66,0-11.19-5.81-11.38-12.43-.24-8.28.06-16.58-.15-24.86,0-2.13-1.13-4.23-1.74-6.34.24-.78.47-1.56.71-2.35s.57-1.45.85-2.18c-.25-1.41-.51-2.82-.77-4.22.14-.13.42-.31.4-.37a5.17,5.17,0,0,0-.5-.84C1310.43,623,1310.16,622.19,1309.89,621.43Z"/><path class="cls-19" d="M1093.11,508.49c0,8.51.05,17,0,25.52-.07,8.87-3.66,12.93-11.27,13-8,.07-11.67-4-11.7-13.21q-.07-27.75,0-55.5c0-7.08,4.55-12.73,10.34-13.1s10.71,3.9,11.38,10.94c1,10.74,1.25,21.55,1.81,32.34Z"/><path class="cls-13" d="M1059.09,412.71c-1.54-1.35-5.42-3.41-7.37-6.63-10.07-16.67-19.75-33.58-29.33-50.54-3.39-6-1.54-12.52,3.7-15.29,5.93-3.14,12.3-1.3,15.84,4.74,9.1,15.53,18.21,31,27.1,46.69a25.62,25.62,0,0,1,3.47,10C1073.1,408.58,1068.54,412.81,1059.09,412.71Z"/><path class="cls-13" d="M1228.91,491.93c-10.39-1.17-15-9.3-9.55-18,8-12.95,16.73-25.48,25.22-38.14,2.94-4.38,5.74-8.95,9.27-12.83,4.56-5,10.14-5,15.32-.7,3.37,2.78,4.49,9.82,1.71,14.06-10.92,16.64-21.88,33.26-33.22,49.61C1235.77,488.62,1231.88,490,1228.91,491.93Z"/><path class="cls-13" d="M1169.85,533.58c-.11-6.83,2.54-10.58,8-12,5.75-1.49,10.92,1,13.14,6.34q11.05,26.41,22,52.91c.4,1,.67,2,1,3,1.83,6.31-.61,11.92-6.18,14.21s-10.84.57-13.68-5.6c-5.32-11.56-10.08-23.38-15-35.12-2.72-6.45-5.34-12.94-7.92-19.45A34.85,34.85,0,0,1,1169.85,533.58Z"/><path class="cls-13" d="M638.29,528c.48,6.15-2.88,9.6-8,11-5.94,1.59-10.63-1.21-13-6.62-4.84-10.84-9.23-21.89-13.8-32.86-2.94-7.05-5.95-14.07-8.76-21.17-2.88-7.27-.6-13.35,5.7-15.79,6.5-2.51,11.88.16,15,7.63q10.63,25.56,21.13,51.18A54.3,54.3,0,0,1,638.29,528Z"/><path class="cls-13" d="M968.56,847.45c6.49-.22,10.26,2.39,11.8,7.77,1.4,4.87-1.9,11.42-7.21,13.64q-27.57,11.53-55.33,22.63c-5.58,2.24-11.58-.64-14.25-6.33a10.64,10.64,0,0,1,5.63-13.91c18.69-8.07,37.6-15.61,56.44-23.29A10.42,10.42,0,0,1,968.56,847.45Z"/><path class="cls-13" d="M919.72,946.56c3.66,2.8,7.4,4.38,9.12,7.2q15.24,24.93,29.64,50.39c3.73,6.56,1.66,13.88-3.92,16.6-5.33,2.61-12.18,0-15.63-6q-14.22-24.45-28.48-48.87c-2.44-4.2-4-8.85-.39-12.9C912.34,950.5,915.85,949.07,919.72,946.56Z"/><path class="cls-13" d="M943.41,317.26c-1.47,1.64-3.47,5.74-6.66,7.17C918,332.79,899,340.67,879.93,348.38c-5.28,2.13-11.68-1.69-13.83-7.33a10.61,10.61,0,0,1,5.72-13.22c16-6.83,32.08-13.33,48.13-20,2.35-1,4.6-2.22,7-3.09C934.65,301.93,943.65,307.62,943.41,317.26Z"/><path class="cls-13" d="M1135.35,737.67c-.83-4.94,2.07-7.9,6.26-9.68,18.53-7.84,37.05-15.69,55.71-23.22a10.68,10.68,0,0,1,14.2,6.17,11.19,11.19,0,0,1-6.48,14.64q-25.82,10.71-51.65,21.37c-1.37.56-2.82.94-4.19,1.49C1143.13,750.89,1133.64,745.86,1135.35,737.67Z"/><path class="cls-13" d="M1169.51,661.51c-19.44-1.11-38.89-2.07-58.32-3.4-7.92-.54-11.76-6.34-10.33-14.44,1-5.75,7.15-8.86,13.8-8,8.81,1.11,17.71,1.43,26.56,2.12,10.33.81,20.68,1.42,31,2.57,6.68.74,11,5.9,10.29,11.27C1181.66,658.1,1176.61,662.16,1169.51,661.51Z"/><path class="cls-13" d="M540.64,576.39c18.78,1.29,37.56,2.49,56.32,3.94,4.67.36,9.11,6.57,8.88,11.54-.28,6-4,10.09-10.1,10-10.59-.17-21.17-.73-31.74-1.41-9.06-.57-18.08-1.83-27.14-2.25s-13-3.62-12.86-11.25c.13-7.23,4.14-10.54,12.81-10.57Z"/><path class="cls-13" d="M1150.87,805.23c5-.24,8.26,2,10.76,6.41,8.29,14.57,17,28.9,25.25,43.5a46.36,46.36,0,0,1,4.62,12.32c1.19,5.2-2.09,9-6.53,10.27s-9.8,1.33-12.93-4.05c-6.82-11.74-13.8-23.4-20.67-35.11-3.33-5.68-6.93-11.24-9.76-17.16C1137.6,813,1142.28,805.18,1150.87,805.23Z"/><path class="cls-13" d="M949.7,377.39c2.49-3,4.41-7.16,7.61-8.74,3.86-1.9,8.86-1.64,12,2.78a37.71,37.71,0,0,1,4.26,7c6.75,16.22,13.37,32.49,20,48.76,4.29,10.56-.53,18.81-10.61,17.21-3.29-.52-7.44-3.81-8.82-6.89-7.94-17.78-15.19-35.85-22.56-53.88-.61-1.49-.36-3.34-.51-5Z"/><path class="cls-13" d="M912.83,250.72c-.13,7.15-5.61,11.73-12.55,11-10.3-1-20.64-1.62-31-2.46-9.68-.78-19.41-1.26-29-2.61-6.65-.93-9.84-5.57-9.33-11.51.47-5.4,6.09-10.52,12-10.08q30.66,2.27,61.27,5.09C910.21,240.74,913,244.77,912.83,250.72Z"/><path class="cls-19" d="M981.87,295c0,10,0,20,0,30,0,6.57-3.69,10.7-9.64,11-5.76.3-11.88-4.28-12-10.11-.28-20.65-.35-41.31.07-61.95.14-6.95,4.8-10.16,11.63-9.75,6.42.39,9.87,4.33,9.88,11.4C981.87,275.39,981.86,285.19,981.87,295Z"/><path class="cls-19" d="M869.32,904.34c0,9.77,0,19.54,0,29.32,0,6.54-3.31,10.56-8.82,11-6.47.45-12.71-4.07-12.8-10.35q-.44-30.59,0-61.18c.07-5.84,6-10.49,11.76-10.29,6,.2,9.75,4.24,9.83,11C869.4,883.94,869.32,894.14,869.32,904.34Z"/><path class="cls-1" d="M668.94,591.5c-2.68,2.4-5.34,4.8-8,7.18-5.17,4.59-11.27,4.46-15.83-.35s-4.49-9.82.6-15.08c13.1-13.58,26.08-27.29,39.53-40.51,2.91-2.86,7.7-5.52,11.44-5.29,3.32.2,8,4,9.13,7.2s-.41,8.43-2.61,11.4c-4,5.39-9.46,9.71-14.15,14.62a42.09,42.09,0,0,0-3.86,5.57C673.11,579.33,669.6,582.64,668.94,591.5Z"/><path class="cls-1" d="M1035.83,959.37c-3.39,8.08-6.79,16.15-10.31,24.53l10.06,4.32c0,8.08.05,16.16,0,24.24-.08,7.54-3.75,11.47-10.47,11.42-7.44-.06-11.2-3.8-11.23-11.51q-.09-29,0-58c0-7.8,3.46-12,9.84-12.26s11.57,5,11.89,12.22C1035.65,956,1035.75,957.68,1035.83,959.37Z"/><path class="cls-1" d="M1279.86,613.65c-1.14,1.71-2,3.67-3.47,5.11q-19.11,19.31-38.37,38.43c-4.83,4.82-12.36,5.2-16.41,1-4.65-4.87-4.32-10.81,1.1-16.3,8.83-8.94,17.8-17.74,26.59-26.72,1.56-1.59,2.52-3.76,3.76-5.66Z"/><path class="cls-1" d="M646.94,754.13l-2.19,25.44c-10.27,3.81-20.58,7.53-30.8,11.46-7.57,2.91-13.69,1.25-16.25-4.73-2.92-6.84.08-12.58,8-15.73C619.5,765.14,633.21,759.61,646.94,754.13Z"/><path class="cls-20" d="M668.67,477.23c1.52-1,3-2.69,4.59-2.86,6.53-.66,13.13-.61,19.66-1.27,13-1.31,23.6,4.84,25.05,15.14.4,2.87-.22,5.9-.42,8.85-.8,12,1.69,22.91,11.67,30.76,8.94,7,19.54,7.08,28.91.7,4.54-3.09,9-6.56,14-8.65,8.42-3.52,16,.13,19.36,9.52-2.61-.71-5.07-.65-6.3-1.85-4.45-4.35-9.07-3.94-13.92-1.23a46,46,0,0,0-6.84,4.64c-10.11,8.34-21.18,10.62-33.16,4.82-12.49-6-18-16.92-19.23-30.22a79.08,79.08,0,0,1,.23-12.11c.56-8.74-2.76-13.33-11.6-14.14-5.43-.49-11,.45-16.48.59-4.8.12-9.6,0-14.41,0Z"/><path class="cls-21" d="M694,965.19c-6.67-16.34,3.52-32.46,20.68-34.41,7.58-.86,15.48.94,23.22,1.71,4.2.42,8.37,1.8,12.53,1.7,5.05-.12,8.52-3.09,10.12-8.17.56-1.76,2.05-3.23,3.61-5.59,3.43,9.8-2.14,18.49-11.76,19.06-5.78.34-11.66-1.58-17.53-2-7.1-.53-14.48-1.85-21.3-.55-11.66,2.22-17.24,10.89-17.11,22.65C696.48,961.44,694.86,963.32,694,965.19Z"/><path class="cls-21" d="M1279.86,613.65l-26.8-4.18c-2.75-4.64-6.13-9-8-14-1.32-3.47-.61-7.73-.84-12.33,4.2.64,6.56.6,5.79,5.23-1.19,7.21,2.24,12.65,9.11,16.3l23.3,2.49c2.48.37,4.95.83,7.45,1.1,9,1,16.16,4.53,20,13.17.27.76.54,1.53.8,2.29a1.46,1.46,0,0,0,.1,1.21c.26,1.4.52,2.81.77,4.22-.28.73-.57,1.46-.85,2.18s-.47,1.57-.71,2.35l-3.36,4.42-1.91.17c-.3-1.9-1.35-4.07-.78-5.66,2.5-7,.77-13.58-6.24-16.14C1292.16,614.45,1285.84,614.51,1279.86,613.65Z"/><path class="cls-20" d="M1266.11,923.59c-1.89-3.16-3.75-4.89-3.93-6.78-.68-7.33-5.11-11.5-11.29-14-6-2.46-11.3-.84-15.33,4.22-8.47,10.63-19.75,13.33-32.5,11.46-1.69-.24-3.08-2.46-4.62-3.76l1.25-1.93a22.64,22.64,0,0,1,3,0c11.66,1.64,21.51-.7,29.6-10.39,6.64-8,15.54-8.32,24.76-2.91C1265.5,904.45,1269.14,912.61,1266.11,923.59Z"/><path class="cls-21" d="M934.75,289.26l-2,4.65c-5.63-1.36-11.08-2.92-16.62-4-12.71-2.37-24.85-.14-36.57,5-3.87,1.7-3.89,1.66-6.57-3.13C893,281.6,913.25,280.9,934.75,289.26Z"/><path class="cls-21" d="M668.94,591.5c.66-8.86,4.17-12.17,16.22-15.26,7.06,2,14.19,3.68,21.15,6A79.59,79.59,0,0,1,719,587.94c1.72.93,2.89,2.88,4.32,4.37l-1.87,2.54c-6.27-2.72-12.59-5.32-18.78-8.21-6.38-3-12.67-6.65-20-3.78-2.79,1.1-6.29,2.95-7.31,5.37C673.9,591.88,671.74,591.71,668.94,591.5Z"/><path class="cls-1" d="M1282.4,607.16l-23.3-2.49c2.06-1.79,3.85-4.34,6.24-5.17,3.5-1.22,7.63-2.19,11.12-1.47C1280.55,598.88,1283,602.4,1282.4,607.16Z"/><path class="cls-18" d="M1132.57,1022.84l.32-.15s-.18.26-.16.27Z"/><path class="cls-22" d="M484.33,254.21c3.12,3.71,6.49,7.5,9.6,11.49,2.66,3.4,1.89,5.82-2.5,6.85-2.07.48-4.09,1.16-6.12,1.78-4.52,1.38-7.64,0-8.48-4.81-.81-4.67-3.06-4.87-6.73-2.65a18.93,18.93,0,0,0,.47,2.56c1.3,3.9,3.09,7.81-2.59,10-7.66,2.93-10.68,2.32-13.35-4.42a126.16,126.16,0,0,1-6.76-21.78c-2-10.13,2.84-18.12,12.79-20.36a65.17,65.17,0,0,1,21.41-.9c8.23.94,12.95,5.6,13,11C495.15,250.57,489.07,252.41,484.33,254.21Zm-24.45-13.28c1.47,4,2.24,8.11,3.16,8.15,3.42.12,6.94-.94,10.31-1.92a3.51,3.51,0,0,0,2-2.77,3.64,3.64,0,0,0-2.39-2.53C469.26,241.35,465.52,241.28,459.88,240.93Z"/><path class="cls-22" d="M581.29,229.41c3.85,4.08,7.48,7.57,10.68,11.41,2.59,3.11,1.42,5.49-2.35,6.61-1.83.55-3.73.9-5.53,1.52-5.37,1.84-8.67.35-9.51-5.56a17.32,17.32,0,0,0-1.33-3.39l-5.48,1.37a44.7,44.7,0,0,0,1.29,4.6c1.37,3.31,1.8,6.54-2.34,7.84s-9.52,4.51-12.66-1c-5.51-9.69-9.39-20.09-8.2-31.59a14.24,14.24,0,0,1,8.52-11.9c9.71-4.62,19.68-4.88,29.77-1.45,5,1.68,8.69,4.7,8.87,10.4s-4,8-8.42,10C583.64,228.66,582.62,228.94,581.29,229.41Zm-20.52-4,13.85-4.65c-5.35-5.83-9.81-6.32-16.14-2.8C559.13,220,559.8,222.2,560.77,225.38Z"/><path class="cls-22" d="M666.65,199.88c-.89-4.81-1.61-9.64-2.72-14.4-1-4.16.83-6.17,4.67-6.56,9.81-1,10.68-2.79,12.1,8,1.21,9.26,3,18.45,4.63,27.66.59,3.37.89,6.79-3.47,7.41-4.73.68-10.06,5.64-14.12-1.37-3.9-6.76-7.87-13.48-11.8-20.22l-1.9.53c1.4,7.2,2.63,14.44,4.26,21.59,1,4.37.63,7.33-4.51,8.54-4.27,1-6.52.51-7.68-4.38-2.19-9.28-5.29-18.35-7.7-27.6-1-3.72-2.67-7.95,2.61-10.44,7.05-3.31,12.8-3.07,16.23,1.11,2.93,3.57,5.73,7.26,8.58,10.9l.73.83Z"/><path class="cls-23" d="M509.55,265.38c-4.69-12.66-9-24.16-13.15-35.7-.39-1.06-.39-3.29,0-3.45,4.85-1.82,9.72-4.24,14.75-4.72,4.65-.44,6.79,3.61,7.2,8.14a8.73,8.73,0,0,0,.48,1.68c4.74-1,9.34-2.37,14-2.79,5.48-.5,8.71,3,10.16,7.93,2.84,9.66-3.31,21.78-13,24.72C523.57,263.15,516.78,263.94,509.55,265.38Zm6.29-21.08-1.07,2.78c1.48,2.24,1.33,6.75,6.17,4.45,1.41-.67,2.08-2.89,3.09-4.4Z"/><path class="cls-23" d="M684.06,177.41c20.19-11.39,41.36-1.35,44.19,20.31,1.1,8.37-2,13.8-9.84,17.23-.78.34-1.56.66-2.36.93-19.4,6.66-21.63,5.47-26.3-14.1C687.83,193.76,686,185.71,684.06,177.41Zm15.13,7.8c1.95,7.55,3.77,14.62,5.58,21.62,8.09-.43,11.64-3.76,11-10C714.73,188,709.28,184,699.19,185.21Z"/><path class="cls-22" d="M623.31,224.76l-6.81,1.71c-.4,4.32-.11,8.93-1.46,13-.91,2.74-4.12,4.72-6.3,7-2.22-2.23-5.81-4.13-6.44-6.74C599,226,602,212.83,607.84,200.3c2.18-4.64,7.25-5.93,10.73-2.74,10.17,9.33,19.65,19.51,23.36,33.37.57,2.13-.76,6.59-2.14,7-2.56.81-6.13.07-8.66-1.22-2-1-3.27-3.77-4.65-5.9C625.34,229.08,624.52,227.11,623.31,224.76Zm-10.24-7,8.38-2.4-5.94-7.57C614.54,211.74,614,214.19,613.07,217.77Z"/><path class="cls-23" d="M383.87,309.69c-10.2-.62-17.55-6.41-19.94-16.24-2.92-12,1.95-25.55,11.31-30.72,4.06-2.25,8.6-4.86,12.18.82,2.75,4.39,1.29,8.86-3.88,12.3-4.77,3.18-8.34,7-5.72,13.14,2.68,6.34,8.15,5.9,13.57,4.75,3.31-.69,6.49-2.06,9.81-2.62,1.82-.31,4.78-.24,5.51.83.92,1.36.91,4.59-.12,5.8a30.16,30.16,0,0,1-8.95,7.54C393.37,307.4,388.49,308.28,383.87,309.69Z"/><path class="cls-22" d="M423.51,276.36c-.56,5.09-.53,9.66-1.77,13.84-.61,2.06-3.83,5-5.43,4.71-2.26-.35-5.61-3.05-5.92-5.13-1.93-12.77-1.12-25.51,3.59-37.67,2.42-6.25,7.6-7.4,12.64-2.42,7.4,7.33,14.23,15.23,21.13,23.05,3.15,3.57,4.25,7.85-.07,11.17s-8.46,1.61-12.15-1.56a11.28,11.28,0,0,1-1.81-2.6C430.08,274,430.09,274,423.51,276.36Zm-1.58-18.82c-.69,3.95-1.11,6.42-1.73,9.95l8.66-2.46Z"/><path class="cls-11" d="M825.49,791,646.56,827.76c3.22-34.08,6.35-67.14,9.57-101.28Z"/><path class="cls-14" d="M1109.61,1008.63,1033.27,981l14.79-33,62.14,59.66C1110,1008,1109.8,1008.32,1109.61,1008.63Z"/><path class="cls-9" d="M1310.71,631.33c.28-.72.57-1.45.85-2.18C1311.28,629.88,1311,630.6,1310.71,631.33Z"/><path class="cls-9" d="M1310.79,624.93a1.46,1.46,0,0,1-.1-1.21,5.17,5.17,0,0,1,.5.84C1311.21,624.62,1310.93,624.8,1310.79,624.93Z"/><path class="cls-24" d="M459.88,240.93c5.64.35,9.38.42,13.05.93a3.64,3.64,0,0,1,2.39,2.53,3.51,3.51,0,0,1-2,2.77c-3.37,1-6.89,2-10.31,1.92C462.12,249,461.35,244.9,459.88,240.93Z"/><path class="cls-24" d="M560.77,225.38c-1-3.18-1.64-5.34-2.29-7.45,6.33-3.52,10.79-3,16.14,2.8Z"/><path class="cls-10" d="M666.65,199.88l-.09,1.59-.73-.83A6.54,6.54,0,0,1,666.65,199.88Z"/><path class="cls-25" d="M515.84,244.3l8.19,2.83c-1,1.51-1.68,3.73-3.09,4.4-4.84,2.3-4.69-2.21-6.17-4.45Z"/><path class="cls-26" d="M699.19,185.21c10.09-1.25,15.54,2.81,16.53,11.67.69,6.19-2.86,9.52-11,10C703,199.83,701.14,192.76,699.19,185.21Z"/><path class="cls-25" d="M613.07,217.77c.88-3.58,1.47-6,2.44-10l5.94,7.57Z"/><path class="cls-27" d="M421.93,257.54l6.93,7.49-8.66,2.46C420.82,264,421.24,261.49,421.93,257.54Z"/><polygon class="cls-10" points="716.68 116.19 769.22 262.14 305.12 323.44 416.03 224.19 716.68 116.19"/><text class="cls-28" transform="translate(376.82 305.06) rotate(-15.74)">BRAND&amp;DIGITAL</text></svg>