<svg width="922" height="572" viewBox="0 0 922 572" fill="none" xmlns="http://www.w3.org/2000/svg">
<path d="M724.326 294.301C726.108 295.277 727.955 296.161 729.667 297.249C739.038 303.202 748.626 308.726 759.513 311.433C763.235 312.363 767.055 312.735 770.851 313.214C773.48 313.544 776.145 313.614 778.797 313.8C781.245 315.372 783.552 315.344 785.669 313.191C795.393 313.777 805.288 313.33 814.575 316.962C826.904 321.78 834.58 330.955 837.502 343.688C839.828 353.831 837.451 363.624 833.547 373.12C827.82 387.072 819.078 399.139 810.49 411.333C802.874 422.14 795.43 433.073 787.693 443.802C778.709 456.279 770.014 469.026 760.271 480.88C748.305 495.421 734.525 508.229 718.036 517.711C701.399 527.277 683.715 534.369 664.971 538.484C655.2 540.633 645.23 541.991 635.293 543.279C628.94 544.151 622.531 544.535 616.12 544.427C597.69 544.037 579.388 541.27 561.667 536.196C541.415 530.327 521.889 522.547 502.674 513.939C501.972 513.623 501.446 512.902 500.813 512.377C501.233 512.144 501.665 511.935 502.107 511.749C518.248 506.015 533.465 497.953 547.273 487.818C572.782 469.216 592.867 445.76 608.876 418.671C609.481 417.648 610.113 416.639 611.053 415.09C619.018 446.448 626.783 477.024 634.781 508.415C651.613 466.18 668.078 424.87 684.725 383.114L628.858 375.85C629.5 373.92 630.128 372.362 630.533 370.735C633.566 358.579 636.575 346.416 639.559 334.248C643.127 332.806 646.719 331.406 650.259 329.9C652.874 328.793 653.902 326.551 653.051 324.175C652.251 321.938 649.734 320.882 647.124 321.85C644.988 322.626 642.936 323.58 640.82 324.454C640.794 323.961 640.794 323.468 640.82 322.975C642.341 308.88 642.527 294.77 640.731 280.698C639.801 273.258 638.326 265.919 637.098 258.539C653.846 258.627 670.228 260.948 685.283 268.547C693.965 272.927 702.004 278.596 710.23 283.847C713.37 285.846 716.222 288.292 719.204 290.538C712.117 290.077 705.031 289.612 697.947 289.143C694.69 288.925 692.606 290.352 692.364 293.04C692.127 295.831 693.867 297.551 697.128 297.784L718.678 299.328C722.526 299.607 724.001 298.286 724.326 294.301ZM709.229 333.713C711.09 333.085 712.114 332.783 713.114 332.378C719.144 329.923 725.167 327.443 731.184 324.938C735.483 323.156 736.837 321.106 735.66 318.287C734.548 315.618 732.022 315.153 727.751 316.892C721.368 319.524 714.992 322.175 708.624 324.845C706.456 325.751 705.098 327.509 705.912 329.714C706.508 331.341 708.187 332.508 709.229 333.713ZM655.963 274.067C651.548 274.109 649.659 277.675 651.53 280.963C655.252 287.474 659.028 293.947 662.858 300.383C664.408 302.988 666.901 303.667 669.134 302.304C671.209 301.034 671.796 298.551 670.377 296.063C666.604 289.469 662.816 282.889 658.853 276.411C658.127 275.215 656.564 274.536 655.963 274.067Z" fill="#EBEAEA"/>
<path d="M239.442 64.8474C276.866 43.6405 332.558 8.3125 332.558 8.3125L377.453 161.289L88.1279 157.964C88.1279 157.964 189.558 93.1148 239.442 64.8474Z" fill="#EB670A"/>
<path d="M639.558 334.258C636.552 346.424 633.544 358.586 630.532 370.745C630.127 372.359 629.499 373.917 628.857 375.861L684.724 383.101C668.077 424.857 651.612 466.167 634.78 508.402C626.805 477.012 619.04 446.435 611.052 415.078C610.122 416.626 609.479 417.635 608.875 418.658C592.875 445.747 572.781 469.19 547.272 487.805C533.463 497.94 518.247 506.002 502.105 511.736C501.663 511.922 501.231 512.132 500.812 512.364C490.916 514.615 481.095 517.303 471.106 519.019C454.511 521.905 437.62 522.704 420.827 521.395C409.894 520.53 399.016 519.033 388.111 517.842C387.302 517.8 386.491 517.8 385.682 517.842C384.287 534.249 382.891 550.604 381.495 567.244L331.184 545.852C332.472 545.28 333.277 544.889 334.101 544.559C349.175 538.467 364.23 532.328 379.355 526.362C381.588 525.483 382.747 524.502 382.551 522.004C382.435 520.47 382.84 518.893 382.956 517.856L340.251 505.398L331.719 502.04C315.063 495 298.896 486.968 284.417 476.068C275.531 469.376 267.291 461.823 258.759 454.676L252.659 448.23C244.001 438.037 236.111 427.303 229.862 415.436C220.526 397.664 214.533 378.329 212.183 358.394C210.787 346.884 210.108 335.36 211.015 323.776C211.099 322.702 211.015 321.618 211.015 320.186L133.249 339.946L132.956 339.541L211.56 263.214L218.794 274.463C230.225 233.13 249.231 196.202 275.889 162.472L82.9146 159.51L82.761 158.924L333.528 4.80469L363.928 108.704C376.519 105.483 389.406 103.551 402.389 102.938C443.922 100.989 483.37 109.509 520.757 127.431C530.527 132.114 539.73 137.964 549.244 143.192C550.502 143.904 551.912 144.304 553.357 144.359C568.524 144.442 583.691 144.41 599.16 144.921L574.037 161.607C596.043 180.627 614.02 202.563 626.726 229.405L648.127 206.521C660.187 220.937 671.525 234.47 682.867 248.012L682.56 248.551L634.049 225.764C633.818 225.893 633.595 226.037 633.384 226.197C627.899 231.345 628.024 231.312 630.499 238.325C632.858 245.008 634.919 251.811 637.11 258.536C638.339 265.916 639.795 273.273 640.744 280.695C642.54 294.767 642.354 308.876 640.832 322.972C640.807 323.464 640.807 323.958 640.832 324.45C640.395 327.718 639.97 330.987 639.558 334.258ZM671.915 240.45L672.627 240.548L672.362 239.939L648.551 211.153L636.794 224.095C648.304 229.447 660.107 234.953 671.915 240.45ZM544.768 181.05L534.068 188.147C529.262 191.263 524.428 194.332 519.696 197.555C519.129 197.941 518.715 199.252 518.905 199.954C520.818 207.088 522.869 214.189 524.879 221.295C525.717 224.209 526.553 227.125 527.387 230.043L529.778 239.422L527.378 240.199C525.805 234.581 524.326 229.271 522.832 223.96C519.42 211.903 516.019 199.846 512.629 187.789L509.922 178.209L500.668 144.419H545.466C497.346 112.215 424.907 95.4179 364.672 111.35C369.945 129.505 375.217 147.657 380.49 165.806C384.02 177.929 387.567 190.047 391.13 202.163C391.596 203.786 391.875 205.177 389.293 204.954C389.167 204.623 389.014 204.279 388.907 203.917C385.222 191.43 381.5 178.949 377.95 166.42C377.42 164.56 376.671 163.951 374.749 163.942C367.817 163.904 360.889 163.625 353.957 163.523C330.183 163.179 306.414 162.895 282.64 162.509C280.458 162.472 278.997 163.072 277.597 164.835C251.102 197.899 232.338 234.877 221.302 275.77C221.05 277.075 221.276 278.427 221.939 279.579C224.265 283.583 226.82 287.484 229.332 291.372C239.972 307.89 250.626 324.39 261.411 341.131L259.322 342.527C253.222 333.226 247.225 324.139 241.363 314.987C240.289 313.313 239.256 312.801 237.302 313.336C230.732 315.14 224.163 316.991 217.501 318.386C214.477 319.023 213.565 320.307 213.495 323.237C213.216 335.723 213.369 348.158 215.119 360.566C220.865 401.284 239.6 434.888 270.497 461.786C297.221 485.08 328.35 500.045 362.336 509.393C369.152 511.253 376.07 512.759 383.272 514.508C384.747 497.301 386.176 480.593 387.604 463.949C390.326 463.344 390.205 464.804 390.065 466.427C389.642 471.445 389.274 476.472 388.888 481.495L387.534 496.269L387.46 496.534C387.46 496.864 387.413 497.194 387.385 497.525C386.883 503.207 386.385 508.89 385.869 514.731C387.771 515.066 389.395 515.452 391.042 515.629C400.863 516.684 410.685 517.694 420.506 518.721L433.007 519.037C433.988 519.146 434.975 519.194 435.961 519.182C447.593 518.317 459.28 517.833 470.855 516.424C485.003 514.741 498.81 510.904 511.797 505.044L521.474 500.445L541.944 488.177L549.142 483.034C549.709 482.643 550.3 482.281 550.845 481.853C573.786 463.902 592.047 441.948 606.935 416.998C609.568 412.58 610.415 408.627 608.205 404.079C607.305 400.542 606.406 397.005 605.506 393.467C604.111 387.822 602.836 382.157 601.319 376.554C601.091 375.726 599.849 374.693 598.965 374.586C578.789 371.886 558.602 369.266 538.404 366.727C536.124 366.439 536.175 365.462 536.92 363.872L603.771 372.508L606.772 372.801L626.01 375.517C626.307 374.893 626.512 374.554 626.638 374.191C633.23 355.569 637.363 336.166 638.934 316.475C639.875 304.546 639.656 292.554 638.278 280.667C637.003 269.683 634.984 258.838 631.211 248.388C629.494 243.487 627.782 238.585 626.131 233.865L620.469 238.869L610.512 248.384L608.996 246.547L624.358 230.661L623.744 229.387C611.592 204.182 594.494 182.827 573.269 164.695C572.581 164.109 570.976 163.649 570.39 164.03C561.801 169.606 553.296 175.349 544.768 181.05ZM92.2707 156.278L92.4288 156.938L376.275 161.323C361.359 110.318 346.606 59.8283 331.76 9.07841L92.2707 156.278ZM680.927 385.385L603.887 375.8L635.059 498.757L635.752 498.701C650.779 461.014 665.838 423.242 680.927 385.385ZM210.536 267.995L142.266 334.319L142.54 334.812L238.172 310.462C228.899 296.232 219.85 282.313 210.536 267.995ZM518.031 195.392L590.497 147.419H504.362C508.926 163.416 513.416 179.19 518.031 195.392ZM338.153 545.819L378.96 563.165C379.965 551.423 380.937 540.034 381.951 528.203L338.153 545.819Z" fill="#33302D"/>
<path d="M724.328 294.292C724.002 298.277 722.532 299.598 718.713 299.323L697.162 297.779C693.906 297.547 692.161 295.812 692.398 293.036C692.626 290.348 694.725 288.92 697.981 289.139C705.068 289.613 712.154 290.078 719.238 290.534C721.727 290.692 723.607 291.706 724.328 294.292Z" fill="#EB670A"/>
<path d="M785.669 313.187C783.552 315.34 781.244 315.368 778.797 313.797L767.519 294.372C767.095 293.707 766.711 293.018 766.37 292.307C765.388 289.982 765.942 287.978 768.082 286.671C770.297 285.322 772.516 285.88 773.782 287.964C777.927 294.781 781.942 301.682 785.757 308.69C786.381 309.844 785.729 311.676 785.669 313.187Z" fill="#EB670A"/>
<path d="M751.253 278.49C751.253 282.149 751.29 285.814 751.253 289.479C751.211 292.599 749.596 294.459 746.991 294.529C744.278 294.599 742.548 292.669 742.52 289.39C742.455 282.066 742.413 274.737 742.432 267.412C742.432 264.324 744.139 262.543 746.833 262.567C749.526 262.59 751.048 264.306 751.08 267.505C751.122 271.165 751.08 274.83 751.08 278.49H751.253Z" fill="#EB670A"/>
<path d="M714.359 272.185C710.307 272.302 707.911 268.87 709.707 266.052C714.02 259.188 718.589 252.482 723.199 245.813C724.562 243.841 726.754 243.641 728.782 244.883C730.955 246.222 731.601 248.459 730.266 250.542C725.893 257.365 721.324 264.07 716.714 270.735C716.081 271.581 714.769 271.934 714.359 272.185Z" fill="#EB670A"/>
<path d="M206.46 429.84C207.149 430.458 208.908 431.337 209.522 432.723C212.644 439.736 215.505 446.87 218.361 453.994C219.352 456.468 218.408 458.784 216.282 459.728C213.956 460.77 211.55 459.9 210.448 457.319C207.428 450.255 204.455 443.163 201.608 436.025C200.389 432.89 202.38 429.924 206.46 429.84Z" fill="#EB670A"/>
<path d="M140.703 416.345C139.865 417.829 139.446 419.098 138.609 419.963C133.448 425.308 128.231 430.594 122.958 435.821C120.664 438.1 117.971 438.184 116.161 436.24C114.351 434.296 114.574 431.92 116.775 429.692C121.893 424.465 127.099 419.289 132.235 414.067C133.798 412.476 135.701 411.811 137.599 412.881C138.832 413.55 139.605 415.057 140.703 416.345Z" fill="#EB670A"/>
<path d="M236.164 477.186C235.298 478.934 234.889 480.046 234.251 481.004C230.322 486.941 226.359 492.857 222.364 498.754C220.601 501.368 217.977 502.075 215.8 500.614C213.715 499.219 213.38 496.652 215.088 494.071C219.187 487.886 223.337 481.734 227.468 475.572C228.692 473.74 230.464 472.586 232.497 473.6C233.954 474.316 234.949 475.953 236.164 477.186Z" fill="#EB670A"/>
<path d="M765.698 177.446C764.912 179.166 764.586 180.208 764.009 181.082C760.03 187.109 756.018 193.113 751.973 199.093C750.201 201.712 747.539 202.409 745.395 200.954C743.25 199.498 742.971 196.996 744.683 194.41C748.774 188.21 752.894 182.04 757.044 175.902C758.249 174.111 760.041 172.907 762.088 173.93C763.539 174.651 764.54 176.251 765.698 177.446Z" fill="#EB670A"/>
<path d="M176.207 423.21C175.369 422.4 173.736 421.447 173.118 420.047C172.262 418.113 172.88 415.913 174.979 414.997C182.423 411.794 189.91 408.702 197.441 405.719C199.655 404.85 201.6 405.845 202.591 408.045C203.582 410.244 203.028 412.509 200.925 413.434C193.328 416.764 185.595 419.791 177.91 422.921C177.348 423.052 176.78 423.148 176.207 423.21Z" fill="#EB670A"/>
<path d="M189.933 473.41C189.366 472.945 187.844 472.234 187.114 471.039C183.145 464.528 179.335 457.938 175.557 451.321C174.162 448.861 174.841 446.396 177.032 445.173C179.149 443.987 181.55 444.536 182.931 446.852C186.895 453.469 190.803 460.124 194.562 466.849C196.335 469.964 194.288 473.41 189.933 473.41Z" fill="#EB670A"/>
<path d="M740.971 228.933C741.854 228.049 742.864 226.236 744.227 225.924C745.59 225.612 748.159 226.236 748.838 227.319C753.174 234.165 757.212 241.201 761.162 248.288C762.288 250.306 761.59 252.403 759.52 253.692C757.449 254.98 755.17 254.65 753.969 252.706C749.671 245.73 745.642 238.568 741.547 231.458C741.264 230.965 741.273 230.319 740.971 228.933Z" fill="#EB670A"/>
<path d="M726.345 208.765C726.345 212.425 726.373 216.085 726.345 219.745C726.345 222.591 724.66 224.47 722.218 224.535C719.775 224.6 717.998 222.805 717.942 219.931C717.806 212.419 717.731 204.907 717.719 197.395C717.719 194.247 719.375 192.512 722.069 192.535C724.763 192.559 726.307 194.396 726.345 197.493C726.382 201.25 726.345 205.008 726.345 208.765Z" fill="#EB670A"/>
<path d="M773.879 201.477C780.495 201.905 787.11 202.286 793.717 202.77C797.001 203.012 798.676 204.853 798.43 207.648C798.202 210.225 796.308 211.662 793.079 211.452C785.676 210.975 778.278 210.443 770.887 209.857C768.068 209.639 766.346 207.741 766.528 205.263C766.705 202.863 768.468 201.384 771.213 201.352C772.102 201.352 772.995 201.352 773.883 201.352C773.884 201.393 773.883 201.435 773.879 201.477Z" fill="#EB670A"/>
<path d="M159.99 427.693C159.99 431.446 160.037 435.203 159.99 438.956C159.944 441.932 158.376 443.551 155.733 443.537C153.174 443.537 151.513 441.807 151.495 438.886C151.445 431.278 151.445 423.67 151.495 416.062C151.495 413.314 153.091 411.668 155.566 411.607C158.143 411.547 159.832 413.216 159.893 416.127C159.972 419.978 159.893 423.828 159.893 427.684L159.99 427.693Z" fill="#EB670A"/>
<path d="M252.666 448.215L258.765 454.66C255.313 459.813 251.861 464.966 248.409 470.118C246.32 473.225 243.858 474.025 241.532 472.397C239.206 470.769 239.118 468.319 241.104 465.366C244.953 459.646 248.807 453.929 252.666 448.215Z" fill="#EB670A"/>
<path d="M331.719 502.047L340.26 505.367C336.129 509.608 332.04 513.891 327.852 518.077C325.773 520.156 323.009 520.193 321.283 518.388C319.473 516.491 319.604 514.091 321.818 511.841C325.079 508.53 328.42 505.307 331.719 502.047Z" fill="#EB670A"/>
<path d="M709.231 333.708C708.189 332.517 706.509 331.336 705.928 329.75C705.113 327.546 706.472 325.788 708.64 324.881C715.008 322.215 721.383 319.565 727.766 316.929C732.023 315.171 734.55 315.636 735.675 318.324C736.853 321.143 735.499 323.193 731.2 324.974C725.186 327.473 719.162 329.954 713.13 332.415C712.115 332.783 711.073 333.08 709.231 333.708Z" fill="#EB670A"/>
<path d="M655.961 274.062C656.562 274.528 658.125 275.211 658.851 276.388C662.814 282.866 666.601 289.446 670.375 296.04C671.77 298.528 671.207 301.012 669.132 302.281C666.899 303.644 664.406 302.965 662.856 300.36C659.026 293.921 655.25 287.448 651.528 280.94C649.657 277.671 651.546 274.104 655.961 274.062Z" fill="#EB670A"/>
<path d="M639.561 334.262C639.979 330.994 640.4 327.723 640.821 324.449C642.92 323.575 645.009 322.622 647.126 321.845C649.736 320.915 652.243 321.952 653.053 324.17C653.904 326.546 652.876 328.788 650.261 329.895C646.721 331.42 643.129 332.82 639.561 334.262Z" fill="#EB670A"/>
<path d="M420.485 518.745C410.664 517.718 400.843 516.709 391.021 515.653C389.374 515.476 387.765 515.09 385.848 514.755C386.364 508.905 386.862 503.222 387.365 497.549L387.439 496.558L387.513 496.293C389.951 496.572 392.254 496.544 393.832 494.159C398.949 486.425 404.169 478.738 409.245 470.972C410.641 468.814 409.869 465.391 407.933 463.996C405.895 462.499 403.313 462.796 401.234 464.838C400.612 465.469 400.056 466.16 399.573 466.903C396.781 470.995 394.106 475.129 391.296 479.185C390.668 480.115 389.686 480.756 388.867 481.533C389.254 476.51 389.621 471.483 390.044 466.466C390.184 464.843 390.305 463.382 387.583 463.987C386.155 480.631 384.727 497.321 383.252 514.546C376.073 512.802 369.155 511.291 362.316 509.431C328.353 500.083 297.181 485.118 270.476 461.825C239.603 434.889 220.867 401.286 215.121 360.571C213.372 348.164 213.219 335.729 213.498 323.242C213.568 320.313 214.479 319.029 217.503 318.392C224.166 316.997 230.735 315.137 237.304 313.342C239.258 312.807 240.291 313.342 241.366 314.993C247.233 324.145 253.225 333.208 259.324 342.532L261.413 341.137C250.629 324.396 239.975 307.901 229.335 291.378C226.822 287.476 224.277 283.588 221.942 279.584C221.279 278.433 221.053 277.081 221.305 275.776C232.399 234.914 251.164 197.928 277.599 164.817C278.995 163.069 280.461 162.469 282.643 162.492C306.417 162.878 330.186 163.162 353.96 163.506C360.892 163.608 367.82 163.887 374.752 163.924C376.673 163.924 377.422 164.538 377.953 166.403C381.503 178.95 385.224 191.431 388.9 203.922C389.007 204.285 389.16 204.629 389.286 204.959C391.868 205.178 391.612 203.787 391.124 202.169C387.563 190.053 384.016 177.934 380.484 165.812C375.211 147.666 369.938 129.514 364.665 111.356C424.901 95.4237 497.344 112.221 545.469 144.425H500.67L509.924 178.215C507.682 179.401 507.049 181.507 507.565 183.661C508.152 186.102 509.952 187.632 512.632 187.795C516.044 199.855 519.445 211.912 522.835 223.966C524.328 229.276 525.808 234.587 527.38 240.205L529.781 239.428L527.389 230.048C528.464 229.927 529.632 230.048 530.6 229.648C539.393 226.119 548.181 222.575 556.9 218.869C559.64 217.701 560.403 215.093 559.263 212.433C558.124 209.773 555.304 208.405 552.685 209.498C543.38 213.367 534.145 217.357 524.882 221.301C522.872 214.195 520.82 207.094 518.908 199.96C518.717 199.258 519.131 197.947 519.699 197.561C524.431 194.338 529.264 191.269 534.07 188.153C536.28 189.948 541.454 190.19 543.655 188.618C545.981 186.934 546.311 184.781 544.762 181.07C553.29 175.369 561.794 169.626 570.401 164.04C570.988 163.659 572.593 164.12 573.281 164.705C594.506 182.842 611.604 204.192 623.756 229.397L624.361 230.662L608.928 246.59L610.445 248.427L620.401 238.912C620.49 239.335 620.76 239.819 620.643 240.172C619.071 244.925 621.109 247.748 626.184 247.864C627.841 247.901 629.492 248.236 631.144 248.431C634.917 258.881 636.936 269.726 638.211 280.71C639.588 292.597 639.808 304.589 638.867 316.518C637.296 336.209 633.163 355.612 626.571 374.234C626.445 374.597 626.24 374.936 625.942 375.56L606.705 372.844C606.722 372.55 606.793 372.261 606.914 371.993C612.962 363.529 619.131 355.126 625.086 346.587C626.826 344.1 625.915 340.598 623.691 339.272C620.806 337.561 618.336 338.124 616.335 341.091C611.273 348.612 606.241 356.153 601.238 363.715C599.544 366.268 599.842 368.491 601.996 370.639C602.601 371.249 603.15 371.914 603.722 372.551L536.894 363.896C536.15 365.487 536.099 366.463 538.379 366.752C558.573 369.3 578.76 371.92 598.94 374.611C599.824 374.727 601.066 375.75 601.294 376.578C602.824 382.182 604.122 387.846 605.481 393.491C598.693 393.096 591.905 392.626 585.113 392.347C582.13 392.227 580.26 394.115 579.995 396.998C579.785 399.36 582.023 402.141 584.61 402.355C592.459 403.006 600.317 403.522 608.17 404.094C610.38 408.666 609.533 412.595 606.9 417.013C592.012 441.963 573.751 463.917 550.81 481.868C550.266 482.296 549.675 482.658 549.107 483.049C545.385 473.832 541.821 464.564 537.941 455.43C536.667 452.445 533.121 451.891 530.362 453.677C528.087 455.147 527.631 457.625 529.06 461.094C532.405 469.195 535.717 477.306 539.188 485.351C539.653 486.481 540.993 487.253 541.928 488.192L521.458 500.46C519.048 496.501 516.639 492.545 514.232 488.592C512.371 485.565 510.734 482.398 508.649 479.556C506.895 477.18 504.281 476.906 502.099 478.278C499.824 479.71 499.061 482.426 500.284 485.049C500.824 486.207 501.494 487.309 502.145 488.42C505.362 493.967 508.58 499.513 511.799 505.059C498.813 510.919 485.006 514.756 470.858 516.439C459.292 517.834 447.595 518.332 435.964 519.197C434.977 519.209 433.991 519.161 433.01 519.052C433.382 518.049 433.832 517.075 434.354 516.141C436.09 513.504 437.914 510.928 439.719 508.338C441.356 506.013 441.114 502.716 439.151 501.041C437.188 499.367 433.512 499.279 432.107 501.274C428.06 506.994 424.333 512.909 420.485 518.745ZM596.632 282.356C596.93 280.142 595.771 278.506 593.868 278.11C592.245 277.775 590.323 278.227 588.695 278.794C587.583 279.18 586.75 280.366 585.792 281.198C582.596 279.501 581 276.971 581.553 273.618C581.912 271.465 580.814 271.483 578.86 271.186C578.967 273.325 578.636 275.306 579.25 276.92C580.13 279.245 581.702 281.273 582.972 283.43C582.396 284.314 581.949 285.323 581.223 286.062C577.134 290.248 572.96 294.331 568.852 298.488C566.331 301.041 566.177 303.804 568.34 306.068C570.225 308.04 573.728 307.864 575.975 305.603C581.943 299.663 587.893 293.706 593.827 287.732C594.487 287.062 594.911 286.151 595.441 285.356C598.232 285.756 601.163 285.728 603.746 286.667C607.002 287.857 607.812 290.904 606.649 294.173C606.384 294.912 606.872 295.921 607.012 296.805L607.9 296.726L609.463 294.67C609.747 295.652 610.25 296.628 610.273 297.619C610.371 301.469 610.231 305.329 610.343 309.18C610.431 312.258 613.004 314.937 615.637 314.96C618.084 314.983 620.922 312.351 620.96 309.528C621.076 300.437 621.178 291.336 620.913 282.249C620.778 277.706 617.084 275.371 613.469 276.994C611.255 277.98 610.38 279.784 610.282 282.198C610.189 284.467 609.729 286.718 609.426 288.974C607.621 284.956 604.267 283.295 600.121 282.849C598.935 282.747 597.786 282.528 596.632 282.356ZM318.769 267.977C319.297 267.067 319.897 266.201 320.565 265.387C322.747 263.103 325.282 261.094 327.148 258.588C328.171 257.193 328.883 254.765 328.362 253.286C327.841 251.808 325.659 250.031 324.115 249.938C322.374 249.831 320.146 251.068 318.792 252.398C312.535 258.546 306.496 264.922 300.401 271.237C298.033 273.683 297.968 275.985 300.122 278.25C302.276 280.515 305.081 280.547 307.487 278.413C308.738 277.306 309.976 276.19 311.209 275.074C312.511 275.171 313.535 275.25 314.228 273.553C314.693 272.427 316.331 271.567 317.629 271.056C321.016 269.721 323.942 271.437 326.934 272.813C329.814 274.157 332.754 275.367 335.671 276.631L336.541 275.45C335.876 274.757 335.332 273.85 334.531 273.418C332.642 272.357 330.664 271.464 328.618 270.749C325.371 269.688 322.053 268.888 318.769 267.977ZM526.989 475.739L527.073 475.618L526.924 475.687C526.557 475.087 526.301 474.371 525.812 473.897C514.194 462.736 502.552 451.589 490.886 440.456C489.23 438.884 488.797 437.694 489.867 435.447C493.924 426.914 497.646 418.241 501.615 409.647C502.573 407.578 501.885 407.08 499.963 406.978C499.586 407.81 499.27 408.526 498.94 409.233C493.267 421.547 487.592 433.86 481.916 446.171C481.879 445.385 481.833 444.595 481.795 443.804C481.647 440.451 479.278 438.019 476.264 438.121C473.249 438.224 471.69 440.195 471.686 443.823C471.686 452.814 471.686 461.804 471.686 470.795C471.686 474.381 473.449 476.12 476.91 476.148C480.037 476.148 481.744 474.343 481.782 470.837C481.819 467.079 481.782 463.322 481.782 459.564C482.247 459.69 482.712 459.783 483.177 459.946L526.989 475.739ZM300.987 350.703C294.599 353.252 288.221 355.819 281.824 358.348C278.102 359.813 276.706 362.483 278.102 365.663C279.293 368.454 282.14 369.216 285.662 367.863C290.417 366.035 295.213 364.306 299.992 362.534L296.056 407.178L298.54 407.312C299.201 400.616 299.838 394.143 300.471 387.725L392.589 368.765C392.589 368.575 392.589 368.384 392.589 368.198L302.909 334.096C302.234 339.947 301.611 345.323 300.987 350.703ZM451.461 230.499C452.052 231.369 452.429 232.197 453.043 232.783C454.825 234.485 456.63 236.187 458.561 237.717C470.192 246.911 470.043 261.759 458.161 270.614C457.133 271.381 456.091 272.139 455.002 272.823C448.647 276.822 442.143 280.603 435.959 284.849C432.177 287.448 428.329 290.304 425.482 293.829C420.83 299.577 423.044 306.668 429.823 309.686C431.556 310.392 433.332 310.987 435.141 311.468C438.253 312.398 441.477 313.058 444.487 314.258C450.81 316.764 452.578 321.699 449.261 327.595C448.029 329.729 446.484 331.666 444.678 333.343C442.305 335.566 439.561 337.398 437.039 339.458C434.061 341.891 431.274 344.495 430.158 348.676C431.172 348.708 432.2 348.583 432.777 348.006C434.931 345.862 436.806 343.425 439.025 341.356C442.347 338.259 446.283 335.738 449.224 332.339C456.9 323.466 454.127 314.397 443.008 310.868C442.161 310.603 441.282 310.435 440.43 310.179C437.22 309.217 433.889 308.529 430.833 307.203C425.38 304.836 423.933 299.656 427.776 295.112C430.414 292.015 433.824 289.439 437.211 287.141C444.576 282.175 452.327 277.766 459.594 272.66C462.749 270.457 465.404 267.614 467.387 264.317C472.579 255.388 469.532 243.39 460.813 236.112C458.319 234.034 455.914 231.853 453.239 229.514L451.461 230.499ZM508.566 236.471H508.817C508.556 231.453 508.454 226.426 507.975 221.431C507.663 218.176 505.309 216.181 502.68 216.344C500.052 216.506 497.874 219.134 497.87 222.436C497.851 231.039 497.851 239.642 497.87 248.245C497.87 252.552 499.577 254.421 503.313 254.389C506.854 254.361 508.524 252.473 508.556 248.343C508.589 244.381 508.566 240.428 508.566 236.471ZM492.747 191.929C497.144 191.975 499.261 190.008 498.986 186.813C498.778 185.168 498.228 183.584 497.372 182.163C493.236 174.885 488.997 167.672 484.764 160.45C483.117 157.66 480.153 156.786 477.394 158.246C474.956 159.534 474.096 162.566 475.673 165.357C480.13 173.262 484.633 181.107 489.318 188.86C490.216 190.343 492.022 191.301 492.738 191.929H492.747ZM571.755 228.769C573.151 227.839 574.947 227.23 575.826 225.979C581.102 218.376 586.201 210.633 591.282 202.909C592.575 200.937 592.054 197.663 590.486 196.37C588.076 194.38 585.48 194.361 583.359 196.696C581.716 198.5 580.414 200.625 579.046 202.662C575.096 208.549 571.039 214.376 567.312 220.399C564.809 224.445 566.912 228.225 571.746 228.769H571.755ZM544.278 248.138C544.429 248.823 544.625 249.497 544.864 250.157C546.064 253.184 547.283 256.202 548.549 259.202C550.843 264.661 553.057 270.158 555.528 275.534C556.849 278.403 559.301 279.203 561.892 278.138C564.484 277.073 565.614 274.464 564.767 271.53C564.628 271.065 564.502 270.6 564.302 270.135C560.89 261.925 557.479 253.724 554.067 245.529C553.034 243.065 550.629 241.888 547.953 242.581C545.45 243.218 544.217 244.962 544.269 248.138H544.278ZM296.963 245.543C296.746 244.496 296.464 243.463 296.116 242.451C292.869 234.502 289.592 226.567 286.285 218.646C284.838 215.172 282.335 213.93 279.307 215.097C276.376 216.232 275.315 219.059 276.655 222.44C277.962 225.742 279.363 229.007 280.73 232.285C282.857 237.401 284.918 242.516 287.151 247.566C288.272 250.082 290.454 251.384 293.199 250.645C295.623 250.003 297.186 248.399 296.963 245.543ZM450.619 394.101C450.158 394.115 449.7 394.194 449.261 394.338C440.496 397.909 431.698 401.416 423.002 405.169C421.799 405.682 420.848 406.651 420.358 407.863C419.867 409.075 419.876 410.432 420.383 411.637C421.625 414.283 424.417 415.623 427.013 414.581C435.614 411.13 444.194 407.622 452.755 404.057C455.225 403.025 456.761 399.979 456.109 397.714C455.393 395.212 453.639 393.998 450.619 394.101ZM427.897 440.191C426.096 441.358 424.463 442.023 423.403 443.2C421.704 445.083 422.472 447.246 423.584 449.199C427.988 456.779 432.405 464.354 436.834 471.925C438.439 474.674 441.626 475.906 444.106 474.715C446.702 473.451 447.665 470.065 445.93 466.996C441.439 459.109 436.842 451.29 432.14 443.539C431.34 442.228 429.6 441.493 427.897 440.191ZM438.918 147.541C439.03 143.058 434.843 140.412 431.251 141.728C430.144 142.132 429.097 142.714 427.994 143.165C420.527 146.257 413.032 149.28 405.602 152.466C404.466 152.968 403.561 153.879 403.068 155.019C402.575 156.158 402.529 157.442 402.941 158.613C403.941 161.236 406.919 163.013 409.375 162.022C418.238 158.437 427.055 154.772 435.811 150.884C437.304 150.21 438.235 148.303 438.918 147.541ZM528.218 343.049C527.422 346.857 531.837 349.196 534.661 348.057C535.299 347.801 535.973 347.625 536.611 347.364C544.622 344.059 552.632 340.747 560.641 337.426C561.291 337.184 561.886 336.814 562.391 336.338C562.896 335.863 563.301 335.291 563.582 334.657C563.863 334.022 564.014 333.338 564.027 332.645C564.039 331.951 563.913 331.262 563.655 330.618C563.424 329.985 563.067 329.406 562.605 328.916C562.143 328.426 561.586 328.035 560.968 327.766C560.35 327.498 559.684 327.358 559.01 327.355C558.337 327.352 557.669 327.486 557.049 327.749C548.367 331.25 539.751 334.901 531.13 338.547C529.181 339.375 527.831 340.751 528.218 343.049ZM544.11 307.631C547.414 307.933 549.763 306.045 550.159 303.022C550.475 300.525 548.479 298.126 545.371 297.781C540.584 297.247 535.769 296.963 530.949 296.586C526.831 296.265 522.691 296.121 518.592 295.6C515.498 295.214 512.651 296.661 512.171 299.321C511.506 303.088 513.293 305.785 516.977 306.036C526.017 306.668 535.066 307.115 544.11 307.631ZM251.532 268.047H249.75C245.716 268.047 243.85 269.6 243.79 272.962C243.729 276.511 245.595 277.994 249.773 278.194C253.951 278.394 258.185 278.975 262.4 279.24C267.317 279.557 272.24 279.817 277.167 279.896C280.009 279.938 281.735 278.036 281.866 275.246C281.973 272.92 279.907 270.046 277.734 269.879C269.006 269.205 260.269 268.647 251.532 268.047ZM535.438 374.467C531.442 374.443 529.264 378.075 531.13 381.991C532.447 384.744 534.122 387.33 535.671 389.971C538.867 395.417 542.115 400.839 545.288 406.299C546.744 408.801 549.172 408.773 551.303 408.182C553.434 407.591 554.895 405.824 554.341 403.406C553.901 401.404 553.177 399.475 552.192 397.677C548.349 390.887 544.283 384.223 540.444 377.448C539.281 375.406 537.764 374.36 535.438 374.467ZM441.845 175.504L442.464 176.071C442.533 176.857 442.417 177.717 442.701 178.396C446.13 186.767 449.503 195.184 453.197 203.453C453.839 204.885 455.77 206.415 457.3 206.657C461.99 207.401 464.232 203.564 462.237 198.653C459.161 191.087 456.081 183.521 452.932 175.978C452.391 174.824 451.727 173.733 450.95 172.723C449.498 170.667 447.172 170.546 445.367 171.43C443.897 172.174 443.003 174.104 441.845 175.504ZM424.691 116.597C424.766 113.83 423.472 111.947 420.704 111.7C411.207 110.81 401.705 110.021 392.199 109.333C389.444 109.128 386.83 111.509 386.616 114.021C386.378 116.783 387.862 118.941 390.956 119.373C395.423 120.001 399.95 120.224 404.448 120.587C409.25 120.978 414.06 121.257 418.871 121.731C422.081 122.052 424.631 119.922 424.691 116.597ZM456.793 137.18C456.793 132.625 456.793 128.071 456.793 123.517C456.793 120.229 455.183 118.401 452.197 118.215C449.019 118.025 446.851 119.517 446.786 122.75C446.59 132.348 446.623 141.956 446.753 151.559C446.79 154.27 449.638 156.4 452.336 156.26C455.104 156.116 456.807 154.196 456.821 151.145C456.83 146.491 456.826 141.839 456.807 137.189L456.793 137.18ZM404.448 420.557C404.448 415.813 404.486 411.07 404.448 406.331C404.411 403.206 402.662 401.327 399.875 401.216C397.2 401.123 394.436 403.285 394.404 406.001C394.277 415.482 394.277 424.965 394.404 434.452C394.446 437.373 397.349 439.475 400.359 439.265C402.922 439.084 404.453 437.215 404.462 434.15C404.467 429.644 404.453 425.1 404.448 420.557ZM311.097 221.933L311.609 223.198C313.847 223.198 316.08 223.24 318.313 223.198C320.872 223.133 323.454 222.696 325.98 222.924C330.093 223.301 331.638 225.435 331.377 229.5C331.197 231.371 331.162 233.254 331.27 235.131C331.833 241.316 334.406 246.371 340.217 249.185C345.8 251.882 350.917 250.822 355.644 246.943C356.638 246.13 357.703 245.408 358.826 244.785C361.083 243.525 363.232 243.335 365.303 245.357C365.875 245.915 367.019 245.888 368.234 246.218C366.666 241.851 363.144 240.172 359.227 241.791C356.9 242.763 354.83 244.376 352.713 245.813C348.354 248.78 343.408 248.762 339.263 245.488C334.61 241.837 333.461 236.782 333.833 231.183C333.927 229.811 334.215 228.393 334.029 227.067C333.354 222.277 328.418 219.417 322.374 220.027C319.336 220.334 316.266 220.31 313.228 220.617C312.483 220.682 311.804 221.473 311.097 221.933ZM322.882 448.873C323.282 448.004 324.035 447.129 324.026 446.26C323.966 440.791 326.562 436.759 331.986 435.726C335.159 435.122 338.593 435.726 341.896 435.982C344.627 436.187 347.363 437.08 350.052 436.912C354.528 436.647 357.119 432.606 355.523 428.049C354.797 429.146 354.127 429.83 353.844 430.648C353.099 433.011 351.485 434.392 349.135 434.448C347.2 434.494 345.26 433.852 343.306 433.657C339.705 433.299 336.029 432.462 332.503 432.862C324.519 433.759 319.778 441.256 322.882 448.855V448.873ZM589.053 429.527C590.449 424.412 588.769 420.627 584.824 418.306C580.535 415.79 576.394 415.981 573.305 419.659C569.541 424.166 564.958 425.24 559.533 424.491C559.069 424.46 558.602 424.46 558.138 424.491L557.556 425.389C558.273 425.993 558.919 427.026 559.705 427.137C565.637 428.007 570.871 426.751 574.826 421.808C576.687 419.455 579.176 418.701 581.958 419.845C584.833 421.031 586.894 422.97 587.211 426.356C587.309 427.235 588.174 428.039 589.053 429.509V429.527ZM434.889 134.52C424.887 130.632 415.461 130.957 406.133 135.715C407.379 137.942 407.389 137.961 409.189 137.17C414.642 134.775 420.29 133.738 426.203 134.845C428.781 135.31 431.321 136.054 433.936 136.705L434.889 134.52Z" fill="white"/>
<path d="M680.929 385.389C665.803 423.33 650.749 461.102 635.768 498.706L635.075 498.761L603.889 375.805L680.929 385.389Z" fill="#EB670A"/>
<path d="M210.539 267.992C219.844 282.311 228.898 296.206 238.175 310.46L142.544 334.828L142.269 334.335L210.539 267.992Z" fill="#EB670A"/>
<path d="M518.032 195.391C513.417 179.189 508.927 163.415 504.363 147.395H590.499L518.032 195.391Z" fill="#EB670A"/>
<path d="M338.154 545.821L381.966 528.219C380.952 540.049 379.979 551.438 378.974 563.18L338.154 545.821Z" fill="#EB670A"/>
<path d="M603.721 372.523C603.149 371.885 602.6 371.22 601.995 370.611C599.85 368.463 599.543 366.24 601.237 363.687C606.243 356.125 611.275 348.584 616.334 341.063C618.334 338.096 620.805 337.533 623.689 339.244C625.932 340.57 626.844 344.071 625.085 346.559C619.13 355.097 612.989 363.501 606.913 371.965C606.791 372.233 606.72 372.521 606.703 372.816L603.721 372.523Z" fill="#EBEBEA"/>
<path d="M524.888 221.301C534.151 217.358 543.396 213.367 552.691 209.498C555.311 208.406 558.149 209.81 559.27 212.433C560.391 215.056 559.647 217.702 556.906 218.869C548.188 222.589 539.399 226.119 530.606 229.649C529.638 230.035 528.47 229.928 527.396 230.049C526.558 227.134 525.722 224.218 524.888 221.301Z" fill="#EBEAEA"/>
<path d="M541.908 488.205C540.977 487.274 539.656 486.493 539.167 485.363C535.697 477.318 532.384 469.208 529.039 461.107C527.611 457.637 528.067 455.159 530.342 453.689C533.101 451.903 536.646 452.457 537.92 455.442C541.819 464.576 545.402 473.844 549.086 483.061L541.908 488.205Z" fill="#EBEAEA"/>
<path d="M671.916 240.447L636.813 224.087L648.551 211.145L672.344 239.931L671.916 240.447Z" fill="#EB670A"/>
<path d="M388.866 481.507C389.685 480.73 390.667 480.07 391.295 479.158C394.086 475.103 396.803 470.969 399.571 466.876C400.054 466.134 400.611 465.442 401.232 464.812C403.312 462.77 405.885 462.486 407.932 463.97C409.867 465.393 410.653 468.802 409.244 470.945C404.168 478.712 398.957 486.399 393.83 494.132C392.253 496.518 389.95 496.546 387.512 496.267L388.866 481.507Z" fill="#EBEAE9"/>
<path d="M511.768 505.06C508.549 499.514 505.331 493.967 502.114 488.421C501.472 487.31 500.802 486.207 500.253 485.05C499.03 482.427 499.788 479.711 502.068 478.279C504.25 476.883 506.865 477.181 508.619 479.557C510.712 482.399 512.341 485.566 514.201 488.593C516.608 492.552 519.017 496.508 521.427 500.461L511.768 505.06Z" fill="#EBEAEA"/>
<path d="M608.169 404.121C600.316 403.549 592.458 403.032 584.609 402.381C582.022 402.167 579.784 399.386 579.994 397.024C580.25 394.131 582.12 392.243 585.111 392.374C591.904 392.653 598.692 393.122 605.48 393.518C606.37 397.039 607.266 400.574 608.169 404.121Z" fill="#EBEAE9"/>
<path d="M420.485 518.75C424.332 512.914 428.059 506.998 432.083 501.288C433.479 499.292 437.234 499.427 439.127 501.055C441.021 502.683 441.332 506.008 439.695 508.351C437.89 510.942 436.066 513.518 434.33 516.155C433.808 517.089 433.358 518.062 432.986 519.066L420.485 518.75Z" fill="#EBEAE9"/>
<path d="M631.162 248.426C629.51 248.231 627.859 247.896 626.202 247.859C621.145 247.743 619.089 244.92 620.661 240.167C620.778 239.814 620.508 239.33 620.419 238.907L626.081 233.922C627.733 238.623 629.445 243.525 631.162 248.426Z" fill="#E9E9E8"/>
<path d="M544.768 181.047C546.317 184.767 546.001 186.911 543.661 188.594C541.46 190.18 536.286 189.938 534.076 188.129L544.768 181.047Z" fill="#E9E9E8"/>
<path d="M512.642 187.783C509.962 187.62 508.161 186.09 507.575 183.649C507.059 181.496 507.692 179.389 509.934 178.203L512.642 187.783Z" fill="#E9E9E8"/>
<path d="M672.363 239.961L672.628 240.57L671.916 240.472L672.363 239.961Z" fill="#CD651E"/>
<path d="M387.436 496.551C387.436 496.881 387.39 497.211 387.362 497.541C387.39 497.211 387.413 496.881 387.436 496.551Z" fill="#EBEAE9"/>
<path d="M300.985 350.7C301.608 345.32 302.232 339.944 302.906 334.094L392.54 368.205C392.54 368.391 392.54 368.581 392.54 368.772L300.422 387.732C299.789 394.149 299.152 400.623 298.491 407.319L296.007 407.184L299.943 362.54L300.985 350.7ZM384.054 367.846L305.26 337.842C303.762 353.718 302.306 369.093 300.808 384.941L384.054 367.846Z" fill="#322E29"/>
<path d="M451.459 230.495L453.236 229.527C455.911 231.853 458.317 234.048 460.81 236.126C469.529 243.413 472.576 255.402 467.384 264.331C465.402 267.628 462.746 270.471 459.591 272.674C452.324 277.789 444.573 282.189 437.208 287.155C433.803 289.452 430.411 292.029 427.773 295.126C423.93 299.646 425.377 304.827 430.83 307.217C433.886 308.542 437.218 309.231 440.428 310.193C441.279 310.449 442.159 310.616 443.005 310.882C454.125 314.411 456.898 323.479 449.221 332.352C446.281 335.752 442.345 338.272 439.023 341.37C436.804 343.439 434.929 345.876 432.775 348.02C432.198 348.596 431.169 348.722 430.155 348.689C431.272 344.504 434.059 341.904 437.036 339.472C439.562 337.412 442.303 335.58 444.676 333.357C446.481 331.68 448.026 329.743 449.258 327.609C452.575 321.722 450.807 316.778 444.485 314.272C441.475 313.077 438.25 312.412 435.138 311.481C433.33 311.001 431.553 310.406 429.82 309.7C423.042 306.682 420.832 299.59 425.479 293.842C428.327 290.317 432.174 287.462 435.957 284.863C442.14 280.617 448.644 276.836 454.999 272.837C456.088 272.153 457.13 271.395 458.158 270.628C470.041 261.792 470.199 246.911 458.558 237.731C456.628 236.201 454.837 234.499 453.041 232.797C452.427 232.192 452.05 231.364 451.459 230.495Z" fill="#323331"/>
<path d="M481.915 446.147C487.591 433.836 493.265 421.523 498.938 409.209C499.268 408.502 499.585 407.786 499.961 406.953C501.883 407.055 502.571 407.553 501.613 409.622C497.644 418.198 493.923 426.889 489.866 435.423C488.796 437.669 489.228 438.859 490.884 440.431C502.581 451.521 514.223 462.668 525.81 473.872C526.276 474.337 526.555 475.063 526.922 475.663L527.001 475.719L483.199 459.926C482.733 459.763 482.268 459.67 481.803 459.544L477.123 457.535C478.737 453.657 480.337 449.904 481.915 446.147ZM516.24 469.055C516.329 468.91 516.422 468.766 516.515 468.622L487.605 440.859L480.724 456.205L516.24 469.055Z" fill="#302E2A"/>
<path d="M609.422 288.987C609.724 286.732 610.185 284.481 610.278 282.211C610.375 279.793 611.25 277.993 613.465 277.008C617.094 275.385 620.788 277.719 620.909 282.263C621.174 291.349 621.072 300.45 620.955 309.542C620.918 312.365 618.08 314.997 615.633 314.974C612.999 314.974 610.427 312.272 610.338 309.193C610.227 305.343 610.366 301.483 610.268 297.632C610.268 296.642 609.743 295.665 609.459 294.684C609.571 294.321 609.678 293.958 609.789 293.591C609.901 293.224 610.054 292.917 610.185 292.577C610.068 291.921 609.947 291.266 609.826 290.615C609.892 290.554 610.022 290.471 610.013 290.443C609.948 290.305 609.87 290.175 609.78 290.052C609.673 289.717 609.547 289.34 609.422 288.987Z" fill="#ECEBEA"/>
<path d="M508.565 236.474C508.565 240.431 508.588 244.38 508.565 248.342C508.532 252.467 506.862 254.355 503.322 254.387C499.6 254.42 497.892 252.527 497.878 248.244C497.857 239.641 497.857 231.038 497.878 222.434C497.878 219.142 499.995 216.514 502.689 216.342C505.383 216.17 507.672 218.156 507.983 221.43C508.449 226.424 508.565 231.452 508.825 236.469L508.565 236.474Z" fill="#ECEBEA"/>
<path d="M492.736 191.919C492.019 191.291 490.214 190.333 489.307 188.835C484.622 181.083 480.118 173.219 475.661 165.332C474.084 162.542 474.945 159.51 477.383 158.222C480.141 156.762 483.105 157.617 484.752 160.426C488.986 167.648 493.224 174.842 497.36 182.139C498.216 183.56 498.766 185.144 498.975 186.789C499.254 189.998 497.132 191.965 492.736 191.919Z" fill="#EBEBEA"/>
<path d="M571.746 228.771C566.912 228.227 564.767 224.446 567.303 220.4C571.025 214.378 575.086 208.551 579.036 202.664C580.404 200.627 581.707 198.501 583.349 196.697C585.47 194.372 588.067 194.372 590.477 196.372C592.044 197.664 592.565 200.938 591.272 202.91C586.192 210.648 581.092 218.377 575.817 225.981C574.937 227.232 573.127 227.873 571.746 228.771Z" fill="#EBEBEA"/>
<path d="M544.265 248.126C544.214 244.95 545.447 243.206 547.987 242.546C550.662 241.853 553.067 243.011 554.1 245.494C557.528 253.682 560.939 261.884 564.336 270.099C564.522 270.564 564.647 271.03 564.801 271.495C565.652 274.429 564.517 277.038 561.926 278.103C559.334 279.168 556.882 278.368 555.561 275.499C553.086 270.123 550.871 264.626 548.582 259.166C547.317 256.167 546.098 253.149 544.898 250.121C544.644 249.471 544.433 248.804 544.265 248.126Z" fill="#EBEBEA"/>
<path d="M296.963 245.543C297.186 248.403 295.623 250.007 293.241 250.658C290.477 251.397 288.295 250.095 287.193 247.579C284.941 242.538 282.899 237.4 280.772 232.298C279.405 229.02 278.004 225.755 276.697 222.453C275.357 219.072 276.418 216.245 279.349 215.11C282.373 213.943 284.876 215.185 286.327 218.659C289.625 226.583 292.901 234.516 296.158 242.459C296.491 243.469 296.76 244.499 296.963 245.543Z" fill="#EBEBEA"/>
<path d="M450.616 394.096C453.635 393.994 455.389 395.207 456.106 397.709C456.757 399.974 455.222 403.02 452.751 404.052C444.2 407.627 435.62 411.135 427.009 414.576C424.413 415.618 421.622 414.279 420.38 411.632C419.873 410.427 419.863 409.07 420.354 407.858C420.845 406.646 421.796 405.677 422.999 405.164C431.694 401.411 440.492 397.904 449.257 394.333C449.697 394.19 450.154 394.11 450.616 394.096Z" fill="#EBEBEA"/>
<path d="M427.895 440.184C429.598 441.486 431.338 442.22 432.138 443.532C436.865 451.261 441.462 459.072 445.928 466.965C447.663 470.016 446.7 473.42 444.104 474.685C441.625 475.899 438.438 474.685 436.833 471.895C432.422 464.315 428.005 456.739 423.582 449.168C422.447 447.215 421.721 445.053 423.401 443.169C424.462 442.016 426.095 441.351 427.895 440.184Z" fill="#EBEBEA"/>
<path d="M438.916 147.535C438.232 148.298 437.302 150.205 435.818 150.87C427.094 154.758 418.254 158.422 409.382 162.008C406.926 162.998 403.948 161.222 402.948 158.599C402.536 157.427 402.582 156.144 403.075 155.004C403.568 153.865 404.473 152.953 405.609 152.451C413.053 149.275 420.534 146.252 428.001 143.15C429.095 142.685 430.142 142.118 431.258 141.713C434.84 140.406 439.028 143.052 438.916 147.535Z" fill="#EBEBEA"/>
<path d="M528.216 343.045C527.83 340.748 529.179 339.371 531.129 338.544C539.75 334.898 548.366 331.247 557.048 327.745C557.668 327.483 558.335 327.349 559.009 327.352C559.683 327.355 560.349 327.495 560.967 327.763C561.585 328.031 562.142 328.423 562.604 328.913C563.066 329.403 563.423 329.982 563.654 330.615C563.912 331.259 564.038 331.948 564.025 332.641C564.013 333.335 563.862 334.019 563.581 334.653C563.3 335.288 562.895 335.859 562.39 336.335C561.885 336.811 561.289 337.181 560.639 337.423C552.631 340.743 544.621 344.056 536.609 347.361C535.972 347.621 535.297 347.798 534.66 348.054C531.836 349.193 527.421 346.854 528.216 343.045Z" fill="#EBEBEA"/>
<path d="M544.109 307.633C535.065 307.117 526.016 306.671 516.976 306.052C513.291 305.801 511.505 303.104 512.17 299.337C512.635 296.663 515.496 295.217 518.59 295.617C522.689 296.133 526.83 296.282 530.947 296.602C535.753 296.979 540.568 297.263 545.37 297.798C548.478 298.142 550.488 300.541 550.157 303.039C549.762 306.047 547.412 307.936 544.109 307.633Z" fill="#EBEBEA"/>
<path d="M251.531 268.051C260.269 268.651 269.006 269.209 277.734 269.883C279.907 270.05 281.972 272.938 281.865 275.25C281.735 278.04 280.004 279.942 277.166 279.9C272.239 279.821 267.317 279.561 262.399 279.244C258.184 278.979 253.988 278.393 249.773 278.198C245.558 278.003 243.725 276.515 243.79 272.966C243.85 269.604 245.716 268.065 249.749 268.051H251.531Z" fill="#EBEBEA"/>
<path d="M535.435 374.461C537.762 374.35 539.278 375.391 540.441 377.442C544.298 384.218 548.351 390.882 552.189 397.671C553.174 399.469 553.898 401.398 554.338 403.401C554.892 405.819 553.366 407.586 551.3 408.177C549.234 408.767 546.741 408.795 545.285 406.293C542.112 400.834 538.864 395.411 535.668 389.966C534.119 387.324 532.444 384.739 531.127 381.986C529.262 378.075 531.439 374.438 535.435 374.461Z" fill="#EBEBEA"/>
<path d="M441.846 175.5C443.005 174.105 443.898 172.17 445.387 171.435C447.182 170.552 449.509 170.673 450.97 172.728C451.747 173.738 452.411 174.83 452.952 175.983C456.092 183.526 459.172 191.093 462.256 198.659C464.252 203.57 462.01 207.406 457.32 206.662C455.79 206.42 453.859 204.89 453.217 203.458C449.523 195.19 446.15 186.786 442.721 178.402C442.437 177.709 442.553 176.848 442.483 176.076L441.846 175.5Z" fill="#EBEBEA"/>
<path d="M424.689 116.596C424.629 119.921 422.079 122.051 418.85 121.711C414.058 121.246 409.248 120.958 404.428 120.567C399.924 120.204 395.397 119.981 390.936 119.353C387.842 118.921 386.358 116.763 386.595 114.001C386.814 111.489 389.428 109.108 392.178 109.313C401.687 110.017 411.189 110.806 420.683 111.68C423.47 111.955 424.768 113.829 424.689 116.596Z" fill="#EBEBEA"/>
<path d="M456.812 137.182C456.812 141.832 456.812 146.483 456.812 151.133C456.812 154.189 455.095 156.109 452.327 156.249C449.647 156.388 446.799 154.258 446.744 151.547C446.613 141.944 446.581 132.336 446.776 122.738C446.841 119.506 449.009 118.013 452.187 118.204C455.174 118.385 456.779 120.217 456.784 123.505C456.812 128.063 456.807 132.62 456.812 137.182Z" fill="#ECEBEA"/>
<path d="M404.447 420.552C404.447 425.096 404.447 429.639 404.447 434.187C404.447 437.228 402.907 439.098 400.343 439.303C397.333 439.512 394.43 437.41 394.388 434.489C394.252 425.006 394.252 415.522 394.388 406.038C394.421 403.322 397.18 401.16 399.86 401.253C402.651 401.346 404.396 403.225 404.433 406.368C404.484 411.065 404.447 415.809 404.447 420.552Z" fill="#ECEBEA"/>
<path d="M311.222 275.068C309.975 276.184 308.738 277.3 307.5 278.407C305.095 280.541 302.257 280.481 300.135 278.244C298.014 276.007 298.046 273.677 300.415 271.231C306.509 264.916 312.548 258.54 318.806 252.392C320.16 251.062 322.388 249.825 324.128 249.932C325.673 250.025 327.85 251.792 328.376 253.281C328.902 254.769 328.185 257.201 327.162 258.582C325.301 261.089 322.76 263.098 320.578 265.381C319.911 266.195 319.31 267.061 318.782 267.971C313.162 269.408 311.529 270.947 311.222 275.068Z" fill="#EBEAEA"/>
<path d="M481.916 446.152C480.339 449.91 478.757 453.662 477.119 457.559L481.799 459.568C481.799 463.326 481.823 467.083 481.799 470.841C481.762 474.347 480.055 476.175 476.928 476.152C473.467 476.124 471.718 474.385 471.704 470.799C471.676 461.808 471.676 452.818 471.704 443.827C471.704 440.199 473.313 438.246 476.282 438.125C479.25 438.004 481.664 440.451 481.813 443.808C481.832 444.585 481.878 445.366 481.916 446.152Z" fill="#EBEAE9"/>
<path d="M595.448 285.367C594.917 286.162 594.517 287.073 593.833 287.743C587.906 293.73 581.955 299.687 575.982 305.615C573.734 307.856 570.231 308.033 568.347 306.08C566.183 303.815 566.337 301.052 568.859 298.499C572.967 294.342 577.14 290.25 581.23 286.074C581.955 285.334 582.402 284.325 582.979 283.441L595.448 285.367Z" fill="#EBEAEA"/>
<path d="M300.987 350.711L299.968 362.542C295.19 364.313 290.393 366.043 285.638 367.871C282.116 369.224 279.269 368.452 278.078 365.671C276.719 362.49 278.115 359.821 281.8 358.356C288.22 355.831 294.599 353.259 300.987 350.711Z" fill="#EBEAE9"/>
<path d="M311.094 221.932C311.802 221.467 312.49 220.681 313.23 220.602C316.268 220.295 319.339 220.318 322.377 220.011C328.425 219.402 333.356 222.262 334.031 227.052C334.217 228.386 333.929 229.795 333.836 231.167C333.463 236.748 334.622 241.821 339.265 245.472C343.424 248.727 348.356 248.764 352.715 245.797C354.827 244.361 356.902 242.747 359.229 241.775C363.146 240.138 366.673 241.835 368.236 246.202C367.022 245.872 365.877 245.9 365.305 245.342C363.234 243.319 361.085 243.51 358.829 244.77C357.705 245.392 356.64 246.114 355.646 246.928C350.943 250.806 345.792 251.866 340.219 249.169C334.408 246.379 331.844 241.301 331.272 235.116C331.164 233.238 331.199 231.356 331.379 229.484C331.64 225.419 330.095 223.285 325.982 222.908C323.456 222.68 320.865 223.117 318.315 223.183C316.082 223.238 313.849 223.183 311.611 223.183L311.094 221.932Z" fill="#373736"/>
<path d="M322.88 448.854C319.777 441.256 324.518 433.759 332.502 432.852C336.028 432.452 339.704 433.289 343.305 433.647C345.259 433.843 347.199 434.485 349.134 434.438C351.484 434.382 353.098 433.001 353.842 430.639C354.103 429.82 354.796 429.137 355.522 428.039C357.118 432.596 354.526 436.638 350.051 436.903C347.361 437.061 344.626 436.168 341.895 435.973C338.592 435.726 335.158 435.112 331.985 435.717C326.56 436.749 323.964 440.781 324.025 446.25C324.034 447.11 323.28 447.985 322.88 448.854Z" fill="#343533"/>
<path d="M595.448 285.364L582.979 283.42C581.7 281.262 580.127 279.235 579.257 276.91C578.643 275.296 578.973 273.315 578.866 271.176C580.82 271.473 581.918 271.455 581.56 273.608C581.006 276.961 582.602 279.491 585.798 281.188L596.639 282.346C597.793 282.518 598.942 282.732 600.105 282.858C604.292 283.323 607.623 284.964 609.41 288.982C609.535 289.336 609.661 289.694 609.782 290.047C609.749 290.139 609.736 290.236 609.744 290.334C609.752 290.431 609.781 290.525 609.829 290.61C609.95 291.261 610.07 291.917 610.187 292.572C610.057 292.912 609.922 293.251 609.791 293.586C609.661 293.921 609.573 294.316 609.461 294.679L607.898 296.734L607.009 296.813C606.87 295.93 606.381 294.921 606.646 294.181C607.809 290.926 607.004 287.866 603.743 286.676C601.17 285.736 598.23 285.764 595.448 285.364Z" fill="#343533"/>
<path d="M589.05 429.504C588.171 428.035 587.305 427.23 587.222 426.351C586.905 422.943 584.844 421.003 581.969 419.841C579.177 418.697 576.712 419.45 574.837 421.803C570.896 426.747 565.648 428.002 559.716 427.133C558.93 427.021 558.283 425.989 557.567 425.384L558.148 424.487C558.613 424.456 559.079 424.456 559.544 424.487C564.969 425.249 569.551 424.161 573.315 419.655C576.405 415.934 580.545 415.786 584.835 418.302C588.766 420.603 590.46 424.398 589.05 429.504Z" fill="#373736"/>
<path d="M434.89 134.511L433.959 136.674C431.34 136.041 428.804 135.316 426.227 134.814C420.313 133.712 414.665 134.749 409.213 137.139C407.412 137.93 407.403 137.911 406.156 135.683C415.466 130.949 424.887 130.624 434.89 134.511Z" fill="#343533"/>
<path d="M311.222 275.065C311.529 270.945 313.162 269.406 318.768 267.969C322.053 268.899 325.37 269.68 328.608 270.759C330.65 271.469 332.625 272.356 334.512 273.41C335.312 273.842 335.857 274.749 336.522 275.442L335.652 276.623C332.735 275.358 329.795 274.149 326.915 272.805C323.946 271.41 321.02 269.713 317.61 271.047C316.312 271.559 314.683 272.419 314.209 273.545C313.529 275.242 312.525 275.163 311.222 275.065Z" fill="#343533"/>
<path d="M596.633 282.36L585.793 281.202C586.751 280.37 587.584 279.184 588.696 278.798C590.324 278.231 592.246 277.78 593.869 278.115C595.772 278.51 596.912 280.147 596.633 282.36Z" fill="#EBEAE9"/>
<path d="M526.923 475.668L527.072 475.598C527.072 475.598 526.988 475.719 526.998 475.724L526.923 475.668Z" fill="#302E2A"/>
<path d="M384.056 367.848L300.81 384.943C302.308 369.095 303.764 353.72 305.262 337.844L384.056 367.848Z" fill="#EB670A"/>
<path d="M516.239 469.055L480.723 456.206L487.604 440.859L516.514 468.604C516.421 468.762 516.328 468.911 516.239 469.055Z" fill="#EB670A"/>
<path d="M609.8 293.6C609.93 293.265 610.065 292.925 610.195 292.586C610.065 292.925 609.935 293.26 609.8 293.6Z" fill="white"/>
<path d="M609.84 290.614C609.792 290.529 609.763 290.435 609.755 290.338C609.747 290.24 609.76 290.143 609.793 290.051C609.883 290.174 609.961 290.305 610.026 290.442C610.036 290.47 609.905 290.554 609.84 290.614Z" fill="white"/>
<path d="M175.685 121.688C176.516 121.433 177.379 121.3 178.249 121.293C178.905 121.294 179.559 121.389 180.189 121.577C180.963 121.869 181.633 122.383 182.115 123.055C182.587 123.67 182.849 124.42 182.864 125.195C182.831 126.072 182.543 126.92 182.036 127.636L181.17 128.966C181.989 128.964 182.807 129.022 183.617 129.138C183.982 129.173 184.334 129.291 184.646 129.482C185.111 129.782 185.492 130.195 185.753 130.682C186.163 131.458 186.419 132.306 186.507 133.179C186.659 134.156 186.52 135.155 186.106 136.053C185.687 136.946 185.069 137.731 184.301 138.351C183.492 139.007 182.568 139.507 181.575 139.825C180.547 140.117 179.48 140.253 178.411 140.229C177.628 140.266 176.858 140.022 176.239 139.541C175.58 138.815 175.027 137.999 174.596 137.118C173.927 135.543 173.341 133.933 172.842 132.296C172.3 130.541 171.775 128.653 171.27 126.632C170.805 124.771 170.67 123.786 170.832 123.641C171.075 123.443 171.339 123.271 171.619 123.13C172.554 122.72 173.515 122.369 174.494 122.079C174.931 121.925 175.308 121.795 175.685 121.688ZM176.792 124.404H176.713C176.441 124.494 176.191 124.64 175.978 124.832C175.896 124.894 175.833 124.978 175.797 125.074C175.761 125.171 175.753 125.275 175.773 125.376L176.453 127.785C176.466 127.839 176.49 127.891 176.523 127.936C176.556 127.982 176.598 128.02 176.646 128.049C176.694 128.078 176.747 128.097 176.803 128.105C176.858 128.113 176.915 128.11 176.969 128.097C177.307 128.052 177.628 127.921 177.9 127.715C178.233 127.477 178.499 127.157 178.672 126.785C178.867 126.366 178.903 125.89 178.774 125.446C178.726 125.226 178.626 125.021 178.484 124.846C178.342 124.672 178.161 124.533 177.955 124.441C177.583 124.299 177.173 124.286 176.792 124.404ZM179.23 132.077C178.843 132.172 178.489 132.368 178.202 132.645C178.083 132.751 177.998 132.889 177.956 133.042C177.914 133.196 177.917 133.358 177.965 133.51L178.998 136.323C179.089 136.479 179.221 136.607 179.379 136.694C179.536 136.782 179.715 136.826 179.895 136.821C180.343 136.825 180.782 136.701 181.161 136.463C181.642 136.18 182.016 135.748 182.227 135.232C182.438 134.716 182.474 134.145 182.329 133.607C182.23 133.149 181.977 132.739 181.612 132.445C181.276 132.189 180.878 132.028 180.458 131.98C180.047 131.934 179.63 131.967 179.23 132.077Z" fill="white"/>
<path d="M188.033 117.708C189.14 117.383 190.303 117.303 191.444 117.475C192.46 117.622 193.387 118.136 194.049 118.921C194.719 119.712 195.059 120.865 195.068 122.381C195.068 123.902 194.603 125.837 193.672 128.199L199.097 130.524C199.189 130.763 199.231 131.019 199.22 131.275C199.209 131.531 199.145 131.782 199.032 132.012C198.78 132.567 198.449 133.082 198.05 133.542C197.67 133.997 197.266 134.432 196.84 134.844L191.983 132.738L193.895 136.677C193.637 136.886 193.367 137.08 193.086 137.258C192.643 137.551 192.185 137.821 191.713 138.067C191.278 138.308 190.807 138.476 190.318 138.565C190.159 138.615 189.987 138.608 189.833 138.544C189.679 138.48 189.552 138.364 189.476 138.216C188.43 135.891 187.525 133.506 186.763 131.073C186.034 128.645 185.347 126.23 184.702 123.828C184.367 122.569 184.023 121.31 183.669 120.051C184.93 118.953 186.421 118.152 188.033 117.708ZM188.964 122.284C188.661 122.349 188.55 122.488 188.624 122.688L189.61 125.334C189.755 125.637 189.969 125.678 190.257 125.465C190.587 125.197 190.853 124.858 191.034 124.474C191.254 124.089 191.351 123.646 191.313 123.204C191.281 123.067 191.219 122.939 191.13 122.829C191.042 122.72 190.929 122.632 190.802 122.572C190.512 122.415 190.197 122.311 189.871 122.265C189.573 122.216 189.269 122.222 188.973 122.284H188.964Z" fill="white"/>
<path d="M202.961 114.276C203.383 114.148 203.823 114.093 204.264 114.114C204.425 114.112 204.585 114.145 204.732 114.212C204.879 114.279 205.01 114.377 205.115 114.5C206.101 115.836 207.126 117.31 208.19 118.922C209.254 120.534 210.307 122.174 211.349 123.842C212.364 125.427 213.333 126.927 214.257 128.344C214.355 128.479 214.285 128.73 214.052 129.093C213.779 129.521 213.454 129.915 213.085 130.265C212.667 130.67 212.198 131.018 211.689 131.302C211.251 131.563 210.747 131.691 210.237 131.669C209.993 131.638 209.76 131.544 209.564 131.394C209.368 131.245 209.215 131.046 209.121 130.818L207.623 127.707C207.477 127.385 207.308 127.074 207.116 126.777C206.975 126.56 206.804 126.364 206.608 126.195C206.536 126.124 206.448 126.071 206.351 126.041C206.253 126.011 206.15 126.005 206.05 126.023C205.954 126.065 205.869 126.129 205.802 126.21C205.735 126.291 205.687 126.386 205.664 126.488C205.587 126.753 205.549 127.027 205.552 127.302C205.556 127.68 205.583 128.058 205.631 128.432L206.027 131.497C206.085 131.791 206.053 132.096 205.934 132.372C205.815 132.648 205.616 132.881 205.362 133.041C204.797 133.37 204.155 133.545 203.501 133.548C202.856 133.579 202.21 133.517 201.584 133.362C201.03 133.213 200.742 133.027 200.714 132.808C200.67 130.542 200.582 128.217 200.449 125.833C200.356 124.191 200.276 122.577 200.221 120.992C200.165 119.406 200.151 117.881 200.188 116.434C200.221 116.165 200.317 115.907 200.468 115.682C200.619 115.456 200.821 115.27 201.058 115.137C201.635 114.738 202.28 114.446 202.961 114.276ZM204.315 119.671H204.273C204.18 119.714 204.099 119.778 204.037 119.859C203.974 119.94 203.932 120.035 203.915 120.136C203.858 120.384 203.842 120.64 203.868 120.894C203.891 121.179 203.933 121.461 203.994 121.74C204.054 122.024 204.138 122.345 204.25 122.708L205.934 122.164C205.832 121.796 205.729 121.48 205.631 121.233C205.532 120.966 205.417 120.706 205.287 120.452C205.166 120.225 205.009 120.02 204.822 119.843C204.759 119.774 204.679 119.722 204.59 119.692C204.502 119.662 204.407 119.655 204.315 119.671Z" fill="white"/>
<path d="M215.872 128.444L210.945 113.539C210.857 113.288 211.001 113.018 211.378 112.716C211.82 112.382 212.305 112.11 212.82 111.907C213.35 111.685 213.905 111.529 214.472 111.442C214.649 111.389 214.836 111.376 215.018 111.404C215.201 111.432 215.375 111.501 215.528 111.604L218.524 115.813C218.715 116.017 218.89 116.237 219.045 116.469C219.27 116.827 219.557 117.142 219.892 117.399C220.086 117.522 220.306 117.596 220.535 117.614C220.764 117.632 220.994 117.593 221.204 117.501L220.697 115.892L219.092 110.898C218.999 110.646 219.157 110.372 219.557 110.07C220.029 109.732 220.543 109.46 221.088 109.261C221.638 109.034 222.221 108.893 222.814 108.842C223.349 108.805 223.702 108.935 223.87 109.237C224.735 111.773 225.556 114.337 226.331 116.929C227.106 119.521 227.798 122.169 228.406 124.872C228.454 125.076 228.453 125.289 228.402 125.493C228.352 125.696 228.255 125.885 228.118 126.044C227.79 126.43 227.364 126.719 226.885 126.881C226.341 127.082 225.756 127.146 225.182 127.067C224.547 126.979 223.956 126.696 223.488 126.258L219.073 122.124C219.404 123.161 219.678 124.026 219.906 124.728L220.534 126.681L220.93 127.913C220.868 128.123 220.761 128.317 220.617 128.481C220.474 128.646 220.296 128.777 220.097 128.867C219.6 129.129 219.062 129.302 218.506 129.378C217.958 129.47 217.398 129.44 216.863 129.29C216.643 129.238 216.438 129.134 216.265 128.987C216.093 128.84 215.958 128.653 215.872 128.444Z" fill="white"/>
<path d="M229.621 106.238C230.119 106.09 230.633 105.998 231.152 105.964C231.522 105.854 231.915 105.842 232.292 105.927C233.109 106.032 233.905 106.264 234.65 106.615C235.68 107.098 236.608 107.771 237.386 108.601C238.401 109.707 239.174 111.012 239.656 112.433C240.15 113.778 240.359 115.211 240.269 116.64C240.179 118.07 239.793 119.466 239.135 120.738C238.624 121.757 237.941 122.681 237.116 123.468C236.516 124.078 235.775 124.53 234.957 124.784C234.095 124.928 233.211 124.869 232.375 124.612C231.588 124.44 230.85 124.092 230.217 123.594C229.835 123.212 229.393 122.307 228.891 120.878C228.388 119.449 227.906 117.854 227.444 116.093C226.978 114.326 226.611 112.746 226.341 111.354C226.071 109.962 225.975 109.119 226.053 108.824C226.319 108.141 226.811 107.569 227.448 107.206C228.122 106.781 228.854 106.455 229.621 106.238ZM232.026 112.014C231.94 112.03 231.859 112.065 231.787 112.115C231.716 112.165 231.656 112.23 231.612 112.306C231.568 112.381 231.54 112.465 231.532 112.552C231.523 112.639 231.533 112.727 231.561 112.809L233.166 118.092C233.292 118.469 233.511 118.65 233.818 118.632C234.184 118.584 234.518 118.395 234.748 118.106C235.099 117.711 235.338 117.229 235.441 116.711C235.586 116.042 235.555 115.347 235.353 114.693C235.189 114.032 234.87 113.42 234.422 112.907C234.078 112.525 233.645 112.233 233.162 112.056C232.797 111.924 232.4 111.91 232.026 112.014Z" fill="white"/>
<path d="M242.898 119.787C242.321 119.081 241.994 118.205 241.967 117.294C241.928 116.378 242.065 115.462 242.372 114.597C242.621 113.84 243.002 113.133 243.498 112.509C242.76 112.075 242.135 111.473 241.674 110.751C241.197 110.028 240.903 109.2 240.818 108.338C240.729 107.458 240.921 106.572 241.367 105.808C241.952 104.887 242.793 104.157 243.786 103.706C244.338 103.437 244.931 103.263 245.54 103.19C246.381 103.152 247.221 103.288 248.006 103.59C248.807 104.095 249.407 104.863 249.704 105.761C250.035 106.721 250.113 107.749 249.932 108.747C249.748 109.786 249.263 110.748 248.537 111.514C248.792 111.793 249.086 112.032 249.411 112.226C249.733 112.403 250.088 112.515 250.453 112.556C250.567 112.411 250.665 112.255 250.746 112.091C250.83 111.923 250.928 111.709 251.03 111.454C251.067 111.351 251.129 111.26 251.21 111.187C251.291 111.115 251.389 111.064 251.495 111.04C251.724 111.003 251.958 111.025 252.175 111.105C252.423 111.185 252.663 111.289 252.891 111.416C253.124 111.547 253.389 111.719 253.696 111.933C253.64 112.063 253.594 112.165 253.556 112.239L253.468 112.421L253.375 112.616C253.321 112.72 253.273 112.827 253.231 112.937H253.403C253.612 112.937 253.784 112.96 253.915 112.937C254.058 112.931 254.199 112.911 254.338 112.877C254.487 112.839 254.692 112.779 254.948 112.695C255.134 113.034 255.192 113.429 255.11 113.807C255.057 114.344 254.928 114.872 254.729 115.374C254.533 115.876 254.306 116.174 254.05 116.267L253.515 116.397C253.411 116.423 253.305 116.44 253.198 116.448L252.821 116.471C252.7 116.471 252.533 116.471 252.356 116.471C251.987 117.338 251.457 118.127 250.793 118.797C250.101 119.519 249.297 120.123 248.411 120.587C247.621 121.026 246.732 121.255 245.829 121.252C244.452 120.996 243.479 120.508 242.898 119.787ZM244.494 109.091C244.824 109.559 245.257 109.946 245.759 110.221C245.887 110.063 246.002 109.895 246.103 109.719C246.234 109.5 246.355 109.254 246.466 109.059C246.578 108.863 246.662 108.668 246.713 108.552C247.085 107.836 247.178 107.268 246.973 106.85C246.885 106.648 246.747 106.472 246.573 106.337C246.4 106.203 246.195 106.113 245.978 106.078C245.527 105.98 245.057 106.062 244.666 106.306C244.453 106.446 244.278 106.636 244.156 106.86C244.035 107.084 243.97 107.334 243.968 107.589C243.967 108.135 244.152 108.665 244.494 109.091ZM248.332 115.69C247.95 115.598 247.577 115.475 247.215 115.323C246.757 115.097 246.321 114.829 245.913 114.523C245.838 114.658 245.773 114.779 245.722 114.881C245.67 114.985 245.628 115.094 245.596 115.206C245.395 115.744 245.368 116.331 245.517 116.885C245.575 117.071 245.676 117.24 245.812 117.379C245.948 117.518 246.115 117.623 246.299 117.685C246.697 117.799 247.123 117.766 247.499 117.592C247.835 117.438 248.14 117.225 248.402 116.964C248.691 116.65 248.947 116.305 249.165 115.937C248.834 115.844 248.555 115.76 248.332 115.69Z" fill="white"/>
<path d="M257.307 98.4354C257.807 98.2868 258.322 98.1948 258.842 98.161C259.213 98.0511 259.605 98.0367 259.982 98.1191C260.798 98.227 261.592 98.4607 262.336 98.812C263.366 99.2915 264.295 99.964 265.072 100.793C266.086 101.902 266.86 103.208 267.347 104.63C267.838 105.975 268.046 107.407 267.957 108.836C267.868 110.266 267.485 111.661 266.831 112.935C266.317 113.954 265.633 114.878 264.807 115.665C264.208 116.276 263.466 116.728 262.648 116.981C261.785 117.12 260.902 117.061 260.066 116.809C259.278 116.635 258.541 116.285 257.907 115.786C257.526 115.405 257.085 114.501 256.586 113.075C256.086 111.649 255.603 110.054 255.134 108.29C254.669 106.522 254.301 104.943 254.032 103.551C253.762 102.156 253.669 101.314 253.743 101.021C254.012 100.338 254.504 99.7663 255.139 99.398C255.813 98.9765 256.542 98.6524 257.307 98.4354ZM259.712 104.211C259.626 104.227 259.545 104.261 259.473 104.312C259.402 104.362 259.342 104.427 259.298 104.503C259.254 104.578 259.226 104.662 259.218 104.749C259.209 104.836 259.219 104.924 259.247 105.006L260.847 110.285C260.975 110.666 261.193 110.847 261.503 110.829C261.87 110.78 262.203 110.592 262.434 110.303C262.778 109.912 263.017 109.44 263.127 108.931C263.269 108.262 263.239 107.567 263.039 106.913C262.871 106.254 262.553 105.642 262.108 105.127C261.765 104.742 261.329 104.449 260.843 104.276C260.482 104.138 260.087 104.115 259.712 104.211Z" fill="white"/>
<path d="M267.338 97.9364C267.817 97.4232 268.419 97.042 269.088 96.8296C269.726 96.5955 270.421 96.5614 271.079 96.7319C271.393 96.8253 271.675 97.0016 271.897 97.2422C272.119 97.4829 272.272 97.7789 272.34 98.0991L273.359 101.457C273.428 101.712 273.507 101.982 273.587 102.271C273.801 103.055 274.042 103.901 274.312 104.81C274.582 105.716 274.875 106.591 275.201 107.432L276.131 110.12C276.179 110.337 276.169 110.563 276.101 110.775C276.033 110.986 275.91 111.176 275.745 111.325C275.336 111.781 274.826 112.136 274.256 112.362C273.67 112.616 273.017 112.673 272.396 112.525C272.054 112.423 271.741 112.244 271.479 112.002C271.218 111.761 271.016 111.462 270.888 111.13C270.023 109.198 269.247 107.274 268.562 105.358C267.879 103.477 267.298 101.56 266.822 99.6152C266.767 99.3144 266.785 99.005 266.875 98.7128C266.965 98.4206 267.124 98.1543 267.338 97.9364Z" fill="white"/>
<path d="M279.51 93.4647C280.525 92.933 281.602 92.5269 282.715 92.2555C283.58 92.0026 284.509 92.0891 285.311 92.4974C286.019 92.8973 286.448 93.7669 286.6 95.1062C286.542 95.6075 286.314 96.0737 285.953 96.427C285.647 96.6787 285.266 96.8226 284.869 96.8362C284.423 96.8585 283.975 96.8336 283.534 96.7618C282.558 96.7317 281.603 97.0462 280.836 97.65C280.198 98.2553 279.807 99.0754 279.738 99.952C279.628 101.115 279.708 102.288 279.975 103.426C280.184 104.087 280.546 104.689 281.031 105.184C281.479 105.669 282.035 106.042 282.655 106.272C282.91 106.375 283.186 106.414 283.46 106.385C283.733 106.356 283.995 106.259 284.223 106.104C284.679 105.794 284.961 105.129 285.07 104.109C285.07 104.063 285.07 104.012 285.07 103.965C285.071 103.788 285.059 103.611 285.032 103.435C285.005 103.234 284.927 103.043 284.804 102.882C284.704 102.782 284.588 102.701 284.46 102.64C284.33 102.577 284.195 102.525 284.055 102.486C283.925 102.449 283.762 102.412 283.59 102.37C283.418 102.328 283.185 102.221 283.05 101.928C282.909 101.604 282.831 101.255 282.822 100.901C282.8 100.534 282.856 100.166 282.985 99.8218C283.03 99.6789 283.112 99.5507 283.223 99.4508C283.335 99.3509 283.471 99.283 283.618 99.2544C284.441 98.9475 285.153 98.7196 285.753 98.5615C286.334 98.41 286.931 98.3258 287.531 98.3104C288.041 98.2756 288.549 98.399 288.987 98.6638C289.396 99.008 289.687 99.4714 289.82 99.9892C290.003 100.595 290.122 101.219 290.173 101.849C290.224 102.491 290.248 103.021 290.248 103.444C290.287 103.634 290.279 103.831 290.224 104.016C290.224 104.109 290.224 104.207 290.224 104.305C290.207 105.09 290.098 105.87 289.899 106.63C289.658 107.447 289.17 108.17 288.503 108.699C287.774 109.319 286.594 109.831 284.963 110.234C283.481 110.593 281.936 110.593 280.454 110.234C279.313 109.935 278.265 109.355 277.407 108.546C276.662 107.841 276.054 107.006 275.611 106.081C275.094 104.456 274.802 102.768 274.746 101.063C274.713 99.9271 274.893 98.7947 275.276 97.7244C275.556 96.9726 275.972 96.2788 276.504 95.6782C276.889 95.2576 277.311 94.8731 277.765 94.5296C277.933 94.3994 278.068 94.2878 278.165 94.1948C278.579 93.9297 279.04 93.6925 279.51 93.4647Z" fill="white"/>
<path d="M289.126 91.7972C289.604 91.284 290.206 90.9028 290.875 90.6904C291.514 90.4575 292.208 90.4251 292.866 90.5973C293.181 90.6894 293.464 90.8653 293.686 91.1061C293.908 91.347 294.061 91.6437 294.127 91.9646L295.146 95.3175C295.216 95.5733 295.295 95.843 295.374 96.1313C295.588 96.9157 295.83 97.7621 296.099 98.6704C296.369 99.6005 296.662 100.456 296.988 101.293L297.919 103.986C297.965 104.203 297.953 104.428 297.886 104.639C297.818 104.851 297.696 105.041 297.532 105.19C297.121 105.643 296.612 105.996 296.044 106.223C295.457 106.476 294.804 106.533 294.183 106.385C293.841 106.284 293.528 106.105 293.267 105.863C293.005 105.621 292.803 105.323 292.675 104.99C291.81 103.059 291.035 101.135 290.349 99.2192C289.659 97.338 289.072 95.4207 288.59 93.4759C288.538 93.1737 288.559 92.8633 288.652 92.5711C288.746 92.2788 288.908 92.0133 289.126 91.7972Z" fill="white"/>
<path d="M295.189 92.617C295.021 92.1915 294.895 91.7508 294.812 91.3009C294.714 90.8359 294.626 90.2034 294.542 89.464L308.792 84.8555C308.971 84.8594 309.143 84.9201 309.285 85.0289C309.426 85.1376 309.529 85.2887 309.579 85.46C309.765 85.9059 309.889 86.3754 309.946 86.8551C310.016 87.3853 310.063 87.8457 310.086 88.2503C310.092 88.3797 310.106 88.5086 310.128 88.6362L306.192 89.8686L308.946 102.383C308.946 102.527 308.802 102.746 308.453 103.034C308.056 103.355 307.629 103.637 307.178 103.876C306.743 104.117 306.271 104.286 305.782 104.378C305.359 104.443 305.089 104.327 304.977 104.02L301.014 91.7195L295.761 93.3285C295.622 93.2555 295.499 93.1547 295.401 93.0323C295.302 92.9099 295.23 92.7685 295.189 92.617Z" fill="white"/>
<path d="M314.504 82.8499C314.926 82.7234 315.366 82.6684 315.806 82.6872C315.968 82.6871 316.128 82.7219 316.275 82.7894C316.422 82.8568 316.552 82.9552 316.658 83.0778C317.644 84.4078 318.669 85.882 319.733 87.5003C320.797 89.1187 321.845 90.7587 322.878 92.4205C323.892 94.0047 324.862 95.5052 325.786 96.9221C325.879 97.0569 325.814 97.3034 325.581 97.6708C325.299 98.0981 324.966 98.49 324.59 98.838C324.173 99.2445 323.704 99.5933 323.194 99.8751C322.759 100.139 322.256 100.267 321.748 100.242C321.503 100.212 321.27 100.117 321.074 99.9675C320.878 99.818 320.725 99.6192 320.631 99.3914L319.156 96.2663C319.009 95.9451 318.839 95.6343 318.649 95.3363C318.507 95.118 318.334 94.9208 318.137 94.7503C318.065 94.6801 317.977 94.6282 317.881 94.5991C317.784 94.57 317.683 94.5644 317.584 94.5829C317.486 94.6238 317.4 94.6874 317.332 94.7682C317.264 94.8491 317.216 94.945 317.193 95.0479C317.12 95.3145 317.084 95.59 317.086 95.8664C317.09 96.2426 317.115 96.6183 317.16 96.9918L317.56 100.056C317.619 100.351 317.586 100.656 317.468 100.932C317.349 101.207 317.149 101.44 316.895 101.6C316.33 101.93 315.688 102.105 315.034 102.107C314.389 102.142 313.743 102.079 313.117 101.921C312.564 101.772 312.27 101.586 312.247 101.368C312.201 99.1015 312.112 96.7763 311.982 94.3922C311.886 92.7522 311.81 91.137 311.754 89.5465C311.698 87.9561 311.686 86.4369 311.717 84.9891C311.751 84.72 311.847 84.4626 311.998 84.2373C312.149 84.012 312.351 83.8252 312.587 83.6917C313.17 83.299 313.82 83.0139 314.504 82.8499ZM315.853 88.2444H315.816C315.721 88.2856 315.639 88.3497 315.575 88.4309C315.512 88.5121 315.47 88.6079 315.453 88.7094C315.398 88.9598 315.383 89.217 315.406 89.4721C315.433 89.7565 315.477 90.0391 315.536 90.3185C315.592 90.5975 315.681 90.9184 315.792 91.2858L317.477 90.7417C317.37 90.3743 317.272 90.0581 317.174 89.8116C317.075 89.5453 316.959 89.2858 316.825 89.035C316.709 88.8052 316.551 88.5988 316.36 88.4258C316.297 88.3552 316.217 88.3016 316.127 88.2699C316.038 88.2383 315.942 88.2295 315.848 88.2444H315.853Z" fill="white"/>
<path d="M325.746 92.3208C325.126 90.5536 324.586 88.8562 324.127 87.2286C324.048 86.9217 323.946 86.531 323.811 86.0613C323.59 85.2491 323.362 84.4073 323.127 83.5362L322.624 81.6527C322.584 81.4763 322.6 81.2917 322.67 81.1249C322.74 80.958 322.861 80.8173 323.015 80.7227C323.439 80.4545 323.915 80.2772 324.411 80.2018C324.992 80.093 325.582 80.0339 326.174 80.0251C326.694 80.0054 327.215 80.0381 327.728 80.1228C328.161 80.1972 328.407 80.3041 328.472 80.4343C328.686 81.2203 328.938 82.2526 329.263 83.5315C329.552 84.7267 329.859 85.9497 330.194 87.1867C330.529 88.4237 330.826 89.5119 331.124 90.4095C331.266 91.0052 331.513 91.5706 331.855 92.079C332.19 92.2603 332.701 92.2278 333.399 91.9906C334.162 91.7184 334.91 91.4079 335.642 91.0605C336.205 90.8094 336.726 90.5955 337.219 90.3909C337.41 90.3351 337.684 90.4885 338.028 90.8559C338.406 91.2721 338.72 91.7423 338.959 92.251C339.226 92.7605 339.364 93.327 339.364 93.9019C339.363 94.1613 339.29 94.4154 339.153 94.6355C339.015 94.8557 338.819 95.0332 338.587 95.1482C337.036 96.0535 334.772 96.9231 331.794 97.7571C331.193 97.946 330.563 98.0263 329.933 97.9943C329.472 97.9663 329.022 97.8428 328.612 97.6316C328.295 97.4682 328.008 97.2511 327.765 96.9898C327.532 96.7186 327.338 96.4166 327.188 96.0923C326.825 95.325 326.355 94.0879 325.746 92.3208Z" fill="white"/>
</svg>
