<svg width="1920" height="1673" viewBox="0 0 1920 1673" fill="none" xmlns="http://www.w3.org/2000/svg">
<mask id="mask0_356_455" style="mask-type:alpha" maskUnits="userSpaceOnUse" x="0" y="0" width="1920" height="1673">
<rect width="1920" height="1673" fill="#C4C4C4"/>
</mask>
<g mask="url(#mask0_356_455)">
<path d="M213.764 22.7207H167.451L87.6719 115.738L167.451 208.755H213.764L134.338 115.738L213.764 22.7207Z" fill="#000306" fill-opacity="0.05"/>
<path d="M61.9857 22.7207H25.9258V208.755H61.9857V22.7207Z" fill="#000306" fill-opacity="0.05"/>
<path d="M25.9258 255.438V301.305L119.846 380.317L213.767 301.305V255.438L119.846 334.1L25.9258 255.438Z" fill="#000306" fill-opacity="0.05"/>
<path d="M213.767 405.759H25.9258V441.472H213.767V405.759Z" fill="#000306" fill-opacity="0.05"/>
<path d="M213.764 503.562H167.451L87.6719 596.579L167.451 689.712H213.764L134.338 596.579L213.764 503.562Z" fill="#000306" fill-opacity="0.05"/>
<path d="M61.9857 503.562H25.9258V689.596H61.9857V503.562Z" fill="#000306" fill-opacity="0.05"/>
<path d="M25.9258 736.279V782.146L119.846 861.158L213.767 782.146V736.279L119.846 814.941L25.9258 736.279Z" fill="#000306" fill-opacity="0.05"/>
<path d="M213.767 886.601H25.9258V922.313H213.767V886.601Z" fill="#000306" fill-opacity="0.05"/>
<path d="M213.764 976H167.451L87.6719 1069.02L167.451 1162.03H213.764L134.338 1069.02L213.764 976Z" fill="#000306" fill-opacity="0.05"/>
<path d="M61.9857 976H25.9258V1162.03H61.9857V976Z" fill="#000306" fill-opacity="0.05"/>
<path d="M25.9258 1208.72V1254.58L119.846 1333.6L213.767 1254.58V1208.72L119.846 1287.38L25.9258 1208.72Z" fill="#000306" fill-opacity="0.05"/>
<path d="M213.767 1359.04H25.9258V1394.75H213.767V1359.04Z" fill="#000306" fill-opacity="0.05"/>
<path d="M213.764 1456.84H167.451L87.6719 1549.86L167.451 1642.99H213.764L134.338 1549.86L213.764 1456.84Z" fill="#000306" fill-opacity="0.05"/>
<path d="M61.9857 1456.84H25.9258V1642.88H61.9857V1456.84Z" fill="#000306" fill-opacity="0.05"/>
<path d="M260.082 30.1899V76.0566L354.003 155.069L448.041 76.0566V30.1899L354.003 108.852L260.082 30.1899Z" fill="#000306" fill-opacity="0.05"/>
<path d="M447.923 180.628H260.082V216.341H447.923V180.628Z" fill="#000306" fill-opacity="0.05"/>
<path d="M448.038 269.91H401.726L321.828 362.927L401.726 456.061H448.038L368.494 362.927L448.038 269.91Z" fill="#000306" fill-opacity="0.05"/>
<path d="M296.142 269.91H260.082V455.944H296.142V269.91Z" fill="#000306" fill-opacity="0.05"/>
<path d="M260.082 502.628V548.495L354.003 627.507L448.041 548.495V502.628L354.003 581.29L260.082 502.628Z" fill="#000306" fill-opacity="0.05"/>
<path d="M447.923 652.949H260.082V688.662H447.923V652.949Z" fill="#000306" fill-opacity="0.05"/>
<path d="M448.038 750.751H401.726L321.828 843.885L401.726 936.902H448.038L368.494 843.885L448.038 750.751Z" fill="#000306" fill-opacity="0.05"/>
<path d="M296.142 750.751H260.082V936.785H296.142V750.751Z" fill="#000306" fill-opacity="0.05"/>
<path d="M260.082 983.469V1029.34L354.003 1108.35L448.041 1029.34V983.469L354.003 1062.13L260.082 983.469Z" fill="#000306" fill-opacity="0.05"/>
<path d="M447.923 1133.79H260.082V1169.5H447.923V1133.79Z" fill="#000306" fill-opacity="0.05"/>
<path d="M448.038 1223.19H401.726L321.828 1316.21L401.726 1409.22H448.038L368.494 1316.21L448.038 1223.19Z" fill="#000306" fill-opacity="0.05"/>
<path d="M296.142 1223.19H260.082V1409.22H296.142V1223.19Z" fill="#000306" fill-opacity="0.05"/>
<path d="M260.082 1455.91V1501.77L354.003 1580.79L448.041 1501.77V1455.91L354.003 1534.57L260.082 1455.91Z" fill="#000306" fill-opacity="0.05"/>
<path d="M447.923 1606.23H260.082V1641.94H447.923V1606.23Z" fill="#000306" fill-opacity="0.05"/>
<path d="M685.845 35.5581H639.533L559.753 128.692L639.533 221.709H685.845L606.419 128.692L685.845 35.5581Z" fill="#000306" fill-opacity="0.05"/>
<path d="M534.061 35.5581H498.001V221.592H534.061V35.5581Z" fill="#000306" fill-opacity="0.05"/>
<path d="M498.001 268.276V314.143L591.922 393.155L685.842 314.143V268.276L591.922 346.938L498.001 268.276Z" fill="#000306" fill-opacity="0.05"/>
<path d="M685.842 418.597H498.001V454.31H685.842V418.597Z" fill="#000306" fill-opacity="0.05"/>
<path d="M685.845 516.399H639.533L559.753 609.533L639.533 702.55H685.845L606.419 609.533L685.845 516.399Z" fill="#000306" fill-opacity="0.05"/>
<path d="M534.061 516.517H498.001V702.551H534.061V516.517Z" fill="#000306" fill-opacity="0.05"/>
<path d="M498.001 749.117V794.984L591.922 873.996L685.842 794.984V749.117L591.922 827.896L498.001 749.117Z" fill="#000306" fill-opacity="0.05"/>
<path d="M685.842 899.555H498.001V935.268H685.842V899.555Z" fill="#000306" fill-opacity="0.05"/>
<path d="M685.845 988.837H639.533L559.753 1081.97L639.533 1174.99H685.845L606.419 1081.97L685.845 988.837Z" fill="#000306" fill-opacity="0.05"/>
<path d="M534.061 988.837H498.001V1174.87H534.061V988.837Z" fill="#000306" fill-opacity="0.05"/>
<path d="M498.001 1221.56V1267.42L591.922 1346.43L685.842 1267.42V1221.56L591.922 1300.22L498.001 1221.56Z" fill="#000306" fill-opacity="0.05"/>
<path d="M685.842 1371.88H498.001V1407.59H685.842V1371.88Z" fill="#000306" fill-opacity="0.05"/>
<path d="M685.845 1469.68H639.533L559.753 1562.81L639.533 1655.83H685.845L606.419 1562.81L685.845 1469.68Z" fill="#000306" fill-opacity="0.05"/>
<path d="M534.061 1469.68H498.001V1655.71H534.061V1469.68Z" fill="#000306" fill-opacity="0.05"/>
<path d="M744.059 17.3516V63.2182L837.979 142.23L931.9 63.2182V17.3516L837.979 96.0134L744.059 17.3516Z" fill="#000306" fill-opacity="0.05"/>
<path d="M931.9 167.673H744.059V203.386H931.9V167.673Z" fill="#000306" fill-opacity="0.05"/>
<path d="M931.898 257.072H885.586L805.807 350.089L885.586 443.106H931.898L852.472 350.089L931.898 257.072Z" fill="#000306" fill-opacity="0.05"/>
<path d="M780.119 257.072H744.059V443.106H780.119V257.072Z" fill="#000306" fill-opacity="0.05"/>
<path d="M744.059 489.673V535.657L837.979 614.669L931.9 535.657V489.673L837.979 568.452L744.059 489.673Z" fill="#000306" fill-opacity="0.05"/>
<path d="M931.9 640.111H744.059V675.824H931.9V640.111Z" fill="#000306" fill-opacity="0.05"/>
<path d="M931.898 737.913H885.586L805.807 830.93L885.586 924.064H931.898L852.472 830.93L931.898 737.913Z" fill="#000306" fill-opacity="0.05"/>
<path d="M780.119 737.913H744.059V923.947H780.119V737.913Z" fill="#000306" fill-opacity="0.05"/>
<path d="M744.059 970.631V1016.5L837.979 1095.51L931.9 1016.5V970.631L837.979 1049.29L744.059 970.631Z" fill="#000306" fill-opacity="0.05"/>
<path d="M931.9 1120.95H744.059V1156.67H931.9V1120.95Z" fill="#000306" fill-opacity="0.05"/>
<path d="M931.898 1210.35H885.586L805.807 1303.37L885.586 1396.39H931.898L852.472 1303.37L931.898 1210.35Z" fill="#000306" fill-opacity="0.05"/>
<path d="M780.119 1210.35H744.059V1396.39H780.119V1210.35Z" fill="#000306" fill-opacity="0.05"/>
<path d="M744.059 1442.95V1488.94L837.979 1567.95L931.9 1488.94V1442.95L837.979 1521.73L744.059 1442.95Z" fill="#000306" fill-opacity="0.05"/>
<path d="M931.9 1593.39H744.059V1629.1H931.9V1593.39Z" fill="#000306" fill-opacity="0.05"/>
<path d="M1169.82 22.7207H1123.51L1043.73 115.738L1123.51 208.755H1169.82L1090.28 115.738L1169.82 22.7207Z" fill="#000306" fill-opacity="0.05"/>
<path d="M1017.92 22.7207H981.859V208.755H1017.92V22.7207Z" fill="#000306" fill-opacity="0.05"/>
<path d="M981.859 255.438V301.305L1075.9 380.317L1169.82 301.305V255.438L1075.9 334.1L981.859 255.438Z" fill="#000306" fill-opacity="0.05"/>
<path d="M1169.7 405.759H981.859V441.472H1169.7V405.759Z" fill="#000306" fill-opacity="0.05"/>
<path d="M1169.82 503.562H1123.51L1043.73 596.579L1123.51 689.712H1169.82L1090.28 596.579L1169.82 503.562Z" fill="#000306" fill-opacity="0.05"/>
<path d="M1017.92 503.562H981.859V689.596H1017.92V503.562Z" fill="#000306" fill-opacity="0.05"/>
<path d="M981.859 736.279V782.146L1075.9 861.158L1169.82 782.146V736.279L1075.9 814.941L981.859 736.279Z" fill="#000306" fill-opacity="0.05"/>
<path d="M1169.7 886.601H981.859V922.313H1169.7V886.601Z" fill="#000306" fill-opacity="0.05"/>
<path d="M1169.82 976H1123.51L1043.73 1069.02L1123.51 1162.03H1169.82L1090.28 1069.02L1169.82 976Z" fill="#000306" fill-opacity="0.05"/>
<path d="M1017.92 976H981.859V1162.03H1017.92V976Z" fill="#000306" fill-opacity="0.05"/>
<path d="M981.859 1208.72V1254.58L1075.9 1333.6L1169.82 1254.58V1208.72L1075.9 1287.38L981.859 1208.72Z" fill="#000306" fill-opacity="0.05"/>
<path d="M1169.7 1359.04H981.859V1394.75H1169.7V1359.04Z" fill="#000306" fill-opacity="0.05"/>
<path d="M1169.82 1456.84H1123.51L1043.73 1549.86L1123.51 1642.99H1169.82L1090.28 1549.86L1169.82 1456.84Z" fill="#000306" fill-opacity="0.05"/>
<path d="M1017.92 1456.84H981.859V1642.88H1017.92V1456.84Z" fill="#000306" fill-opacity="0.05"/>
<path d="M1216.13 30.1899V76.0566L1310.06 155.069L1403.98 76.0566V30.1899L1310.06 108.852L1216.13 30.1899Z" fill="#000306" fill-opacity="0.05"/>
<path d="M1403.98 180.628H1216.13V216.341H1403.98V180.628Z" fill="#000306" fill-opacity="0.05"/>
<path d="M1403.97 269.91H1357.66L1277.88 362.927L1357.66 456.061H1403.97L1324.55 362.927L1403.97 269.91Z" fill="#000306" fill-opacity="0.05"/>
<path d="M1252.19 269.91H1216.13V455.944H1252.19V269.91Z" fill="#000306" fill-opacity="0.05"/>
<path d="M1216.13 502.628V548.495L1310.06 627.507L1403.98 548.495V502.628L1310.06 581.29L1216.13 502.628Z" fill="#000306" fill-opacity="0.05"/>
<path d="M1403.98 652.949H1216.13V688.662H1403.98V652.949Z" fill="#000306" fill-opacity="0.05"/>
<path d="M1403.97 750.751H1357.66L1277.88 843.885L1357.66 936.902H1403.97L1324.55 843.885L1403.97 750.751Z" fill="#000306" fill-opacity="0.05"/>
<path d="M1252.19 750.751H1216.13V936.785H1252.19V750.751Z" fill="#000306" fill-opacity="0.05"/>
<path d="M1216.13 983.469V1029.34L1310.06 1108.35L1403.98 1029.34V983.469L1310.06 1062.13L1216.13 983.469Z" fill="#000306" fill-opacity="0.05"/>
<path d="M1403.98 1133.79H1216.13V1169.5H1403.98V1133.79Z" fill="#000306" fill-opacity="0.05"/>
<path d="M1403.97 1223.19H1357.66L1277.88 1316.21L1357.66 1409.22H1403.97L1324.55 1316.21L1403.97 1223.19Z" fill="#000306" fill-opacity="0.05"/>
<path d="M1252.19 1223.19H1216.13V1409.22H1252.19V1223.19Z" fill="#000306" fill-opacity="0.05"/>
<path d="M1216.13 1455.91V1501.77L1310.06 1580.79L1403.98 1501.77V1455.91L1310.06 1534.57L1216.13 1455.91Z" fill="#000306" fill-opacity="0.05"/>
<path d="M1403.98 1606.23H1216.13V1641.94H1403.98V1606.23Z" fill="#000306" fill-opacity="0.05"/>
<path d="M1641.9 35.5581H1595.59L1515.81 128.692L1595.59 221.709H1641.9L1562.47 128.692L1641.9 35.5581Z" fill="#000306" fill-opacity="0.05"/>
<path d="M1490.12 35.5581H1454.06V221.592H1490.12V35.5581Z" fill="#000306" fill-opacity="0.05"/>
<path d="M1454.06 268.276V314.143L1547.98 393.155L1641.9 314.143V268.276L1547.98 346.938L1454.06 268.276Z" fill="#000306" fill-opacity="0.05"/>
<path d="M1641.9 418.597H1454.06V454.31H1641.9V418.597Z" fill="#000306" fill-opacity="0.05"/>
<path d="M1641.9 516.399H1595.59L1515.81 609.533L1595.59 702.55H1641.9L1562.47 609.533L1641.9 516.399Z" fill="#000306" fill-opacity="0.05"/>
<path d="M1490.12 516.517H1454.06V702.551H1490.12V516.517Z" fill="#000306" fill-opacity="0.05"/>
<path d="M1454.06 749.117V794.984L1547.98 873.996L1641.9 794.984V749.117L1547.98 827.896L1454.06 749.117Z" fill="#000306" fill-opacity="0.05"/>
<path d="M1641.9 899.555H1454.06V935.268H1641.9V899.555Z" fill="#000306" fill-opacity="0.05"/>
<path d="M1641.9 988.837H1595.59L1515.81 1081.97L1595.59 1174.99H1641.9L1562.47 1081.97L1641.9 988.837Z" fill="#000306" fill-opacity="0.05"/>
<path d="M1490.12 988.837H1454.06V1174.87H1490.12V988.837Z" fill="#000306" fill-opacity="0.05"/>
<path d="M1454.06 1221.56V1267.42L1547.98 1346.43L1641.9 1267.42V1221.56L1547.98 1300.22L1454.06 1221.56Z" fill="#000306" fill-opacity="0.05"/>
<path d="M1641.9 1371.88H1454.06V1407.59H1641.9V1371.88Z" fill="#000306" fill-opacity="0.05"/>
<path d="M1641.9 1469.68H1595.59L1515.81 1562.81L1595.59 1655.83H1641.9L1562.47 1562.81L1641.9 1469.68Z" fill="#000306" fill-opacity="0.05"/>
<path d="M1490.12 1469.68H1454.06V1655.71H1490.12V1469.68Z" fill="#000306" fill-opacity="0.05"/>
<path d="M1703.42 17.3516V63.2182L1797.34 142.23L1891.38 63.2182V17.3516L1797.34 96.0134L1703.42 17.3516Z" fill="#000306" fill-opacity="0.05"/>
<path d="M1891.26 167.673H1703.42V203.386H1891.26V167.673Z" fill="#000306" fill-opacity="0.05"/>
<path d="M1891.37 257.072H1845.06L1765.16 350.089L1845.06 443.106H1891.37L1811.83 350.089L1891.37 257.072Z" fill="#000306" fill-opacity="0.05"/>
<path d="M1739.48 257.072H1703.42V443.106H1739.48V257.072Z" fill="#000306" fill-opacity="0.05"/>
<path d="M1703.42 489.673V535.657L1797.34 614.669L1891.38 535.657V489.673L1797.34 568.452L1703.42 489.673Z" fill="#000306" fill-opacity="0.05"/>
<path d="M1891.26 640.111H1703.42V675.824H1891.26V640.111Z" fill="#000306" fill-opacity="0.05"/>
<path d="M1891.37 737.913H1845.06L1765.16 830.93L1845.06 924.064H1891.37L1811.83 830.93L1891.37 737.913Z" fill="#000306" fill-opacity="0.05"/>
<path d="M1739.48 737.913H1703.42V923.947H1739.48V737.913Z" fill="#000306" fill-opacity="0.05"/>
<path d="M1703.42 970.631V1016.5L1797.34 1095.51L1891.38 1016.5V970.631L1797.34 1049.29L1703.42 970.631Z" fill="#000306" fill-opacity="0.05"/>
<path d="M1891.26 1120.95H1703.42V1156.67H1891.26V1120.95Z" fill="#000306" fill-opacity="0.05"/>
<path d="M1891.37 1210.35H1845.06L1765.16 1303.37L1845.06 1396.39H1891.37L1811.83 1303.37L1891.37 1210.35Z" fill="#000306" fill-opacity="0.05"/>
<path d="M1739.48 1210.35H1703.42V1396.39H1739.48V1210.35Z" fill="#000306" fill-opacity="0.05"/>
<path d="M1703.42 1442.95V1488.94L1797.34 1567.95L1891.38 1488.94V1442.95L1797.34 1521.73L1703.42 1442.95Z" fill="#000306" fill-opacity="0.05"/>
<path d="M1891.26 1593.39H1703.42V1629.1H1891.26V1593.39Z" fill="#000306" fill-opacity="0.05"/>
</g>
</svg>
