<svg width="1125" height="615" viewBox="0 0 1125 615" fill="none" xmlns="http://www.w3.org/2000/svg">
<path d="M662.82 133.414C665.427 134.308 668.022 135.267 670.653 136.085C679.311 138.769 687.977 141.417 696.651 144.03C697.352 144.236 698.181 144.03 698.952 143.994L703.489 146.125C709.486 148.637 715.488 151.133 721.467 153.675C737.909 160.66 753.933 168.551 768.751 178.508C781.962 187.382 795.232 196.421 807.261 206.755C819.501 217.247 830.311 229.405 841.727 240.851C841.998 241.122 842.01 241.651 842.145 242.057C841.18 241.963 840.209 241.893 839.244 241.775C831.8 240.828 824.373 239.639 816.882 238.962C796.057 237.016 775.097 236.995 754.269 238.897C742.788 239.974 731.371 241.451 720.378 245.282C716.13 246.765 713.276 249.19 712.187 253.627C711.54 256.257 710.616 258.823 709.98 261.453C700.835 299.704 695.492 338.543 690.443 377.465C687.153 402.81 684.311 428.227 681.739 453.66C679.497 475.846 677.885 498.09 676.102 520.323C675.931 522.5 675.431 523.689 673.265 524.695C635.374 542.349 604.226 567.759 582.37 603.85C582.023 604.334 581.577 604.738 581.062 605.036C580.546 605.333 579.973 605.517 579.38 605.575C568.2 605.875 556.954 605.963 545.743 606.245C543.807 606.293 542.86 605.557 541.936 603.992C528.342 580.941 510.2 562.092 488.609 546.457C468.306 531.812 445.677 520.698 421.676 513.585C419.534 512.937 418.274 512.302 418.051 509.642C417.462 502.498 416.444 495.377 415.503 488.263C412.148 463.037 408.786 437.811 405.416 412.585C405.312 411.632 405.451 410.668 405.822 409.784C415.173 387.793 418.522 364.471 420.864 340.933C422.147 328.063 423.135 315.122 423.288 302.199C423.46 290.895 422.823 279.593 421.382 268.38C419.893 257.199 414.137 248.336 402.492 244.894C398.617 243.813 394.67 243.012 390.681 242.499C370.873 239.662 351.065 236.861 331.245 234.219C324.707 233.348 318.093 233.001 311.514 232.418C314.197 229.876 316.951 227.41 319.54 224.768C339.193 204.929 361.35 187.738 385.449 173.63C413.184 157.294 442.614 144.736 473.867 136.815C487.585 133.343 501.473 130.418 515.39 127.864C523.915 126.377 532.53 125.467 541.177 125.14C557.336 124.398 573.543 123.574 589.696 123.963C602.519 124.257 615.319 126.146 628.094 127.594C635.603 128.447 643.053 129.83 650.527 130.971C648.826 134.232 647.114 137.48 645.425 140.746C643.518 144.447 644.248 147.872 647.249 149.508C650.474 151.274 653.646 150.032 655.776 146.172C658.13 141.935 660.478 137.682 662.82 133.414ZM661.843 197.969C660.513 195.862 659.813 194.256 658.671 193.067C656.264 190.554 653.628 188.271 651.092 185.882C646.255 181.333 641.447 176.755 636.58 172.235C633.844 169.699 630.442 169.646 628.1 171.976C625.758 174.307 625.835 177.949 628.524 180.686C629.212 181.38 629.954 182.027 630.666 182.698C637.335 188.975 643.995 195.241 650.645 201.494C652.639 203.377 655.029 204.436 657.43 202.895C659.148 201.782 660.278 199.77 661.843 197.969V197.969ZM721.962 226.804C723.968 225.874 725.398 225.51 726.446 224.674C734.449 218.299 742.407 211.867 750.32 205.378C753.351 202.895 753.727 199.387 751.497 196.78C749.267 194.173 745.865 194.056 742.782 196.527C738.027 200.341 733.301 204.177 728.57 208.032C725.269 210.709 721.909 213.328 718.701 216.088C716.724 217.806 715.859 220.272 717.301 222.561C718.395 224.28 720.39 225.433 721.962 226.816V226.804ZM562.332 294.479C562.362 290.83 560.567 288.517 557.736 288.005C554.747 287.464 552.099 289.065 551.051 292.36C547.933 302.168 544.88 312.001 541.895 321.86C540.812 325.391 542.383 328.38 545.585 329.381C548.786 330.381 551.893 328.669 553.035 324.997C555.989 315.581 558.909 306.166 561.797 296.75C562.091 295.797 562.256 294.838 562.332 294.496V294.479ZM541.777 186.464C542.954 188.542 543.401 190.201 544.478 191.237C551.932 198.412 559.445 205.503 567.017 212.51C569.635 214.947 573.272 214.811 575.497 212.44C577.798 209.98 577.633 206.614 575.014 204.013C573.396 202.4 571.695 200.876 570.03 199.305C564.243 193.863 558.46 188.422 552.681 182.981C550.639 181.062 548.144 180.386 545.826 181.804C544.207 182.81 543.172 184.799 541.777 186.464ZM536.004 231.665C533.48 231.859 531.667 233.536 530.79 236.467C529.072 242.175 527.259 247.854 525.494 253.533C524.241 257.57 522.822 261.559 521.734 265.643C520.769 269.292 522.405 272.117 525.653 273.111C526.355 273.337 527.095 273.42 527.83 273.357C528.565 273.293 529.28 273.084 529.933 272.742C530.587 272.4 531.165 271.931 531.636 271.363C532.106 270.795 532.459 270.139 532.673 269.433C535.939 259.223 539.147 248.978 542.154 238.691C543.248 235.06 540.353 231.689 536.004 231.665V231.665ZM598.865 299.775C602.431 299.722 605.032 296.45 603.861 292.395C600.938 282.274 597.892 272.185 594.722 262.13C593.727 258.947 590.756 257.546 587.719 258.388C584.541 259.264 582.735 262.101 583.712 265.479C586.654 275.706 589.785 285.887 592.915 296.079C593.716 298.645 595.658 299.887 598.865 299.775ZM620.503 208.691C620.662 204.842 618.785 202.4 615.795 201.782C613.065 201.194 610.252 202.836 609.275 205.902C606.162 215.606 603.143 225.321 600.142 235.072C598.93 239.015 600.401 242.21 603.749 243.228C607.098 244.247 610.022 242.387 611.276 238.397C613.747 230.541 616.16 222.661 618.596 214.794C619.314 212.51 620.02 210.245 620.503 208.691ZM594.875 182.539C597.276 182.222 599.394 181.168 600.259 178.42C603.39 168.387 606.574 158.365 609.628 148.308C609.861 147.581 609.949 146.815 609.885 146.054C609.822 145.293 609.608 144.552 609.258 143.873C608.908 143.195 608.427 142.592 607.843 142.1C607.259 141.608 606.584 141.236 605.856 141.005C605.127 140.768 604.357 140.68 603.593 140.745C602.83 140.811 602.087 141.03 601.409 141.388C600.731 141.747 600.132 142.238 599.648 142.832C599.163 143.426 598.803 144.112 598.588 144.848C595.358 154.852 592.192 164.856 589.208 174.96C588.943 175.841 588.888 176.772 589.048 177.679C589.209 178.585 589.579 179.441 590.13 180.178C590.681 180.916 591.398 181.513 592.222 181.923C593.046 182.333 593.955 182.544 594.875 182.539ZM692.844 185.352C702.807 183.075 713.823 180.644 724.763 177.967C727.54 177.278 728.788 174.077 728.076 171.341C727.328 168.469 724.663 166.409 721.685 167.039C711.092 169.271 700.5 171.625 689.907 174.101C686.965 174.795 685.335 177.855 685.888 180.668C686.441 183.481 688.825 185.358 692.844 185.352V185.352Z" fill="#ECEBEA"/>
<path d="M311.525 232.442C318.104 233.03 324.719 233.372 331.257 234.242C351.088 236.885 370.896 239.686 390.693 242.522C394.682 243.036 398.629 243.836 402.503 244.917C414.149 248.36 419.904 257.199 421.393 268.403C422.835 279.617 423.472 290.919 423.3 302.223C423.147 315.169 422.158 328.116 420.875 340.956C418.521 364.454 415.185 387.787 405.834 409.807C405.463 410.691 405.323 411.655 405.428 412.608C408.763 437.834 412.125 463.06 415.514 488.286C416.456 495.401 417.462 502.521 418.062 509.665C418.286 512.325 419.545 512.961 421.687 513.608C445.689 520.722 468.317 531.835 488.62 546.48C510.211 562.116 528.354 580.965 541.948 604.015C542.872 605.58 543.819 606.316 545.755 606.269C556.965 605.986 568.182 605.898 579.392 605.598C579.985 605.54 580.558 605.356 581.073 605.059C581.589 604.762 582.035 604.358 582.382 603.874C604.237 567.783 635.385 542.373 673.277 524.718C675.443 523.712 675.943 522.523 676.114 520.346C677.879 498.114 679.509 475.869 681.751 453.684C684.323 428.25 687.165 402.834 690.455 377.488C695.515 338.532 700.859 299.692 710.004 261.442C710.639 258.811 711.563 256.245 712.21 253.615C713.299 249.178 716.153 246.753 720.402 245.27C731.395 241.439 742.811 239.974 754.292 238.886C775.121 236.983 796.081 237.004 816.906 238.95C824.373 239.627 831.8 240.816 839.268 241.763C840.233 241.881 841.204 241.951 842.169 242.046C852.838 244.923 863.666 247.342 874.135 250.802C885.351 254.533 895.655 260.218 903.458 269.51C907.674 274.403 910.248 280.495 910.82 286.928C910.865 287.628 911.067 288.308 911.411 288.918C911.756 289.529 912.233 290.054 912.808 290.454C913.383 290.854 914.041 291.12 914.733 291.231C915.425 291.342 916.133 291.295 916.805 291.095C922.201 289.512 926.632 291.289 930.563 294.879C935.671 299.539 937.966 304.012 940.226 313.71C944.681 312.733 949.265 313.121 952.49 308.261C955.885 303.111 961.376 300.499 967.607 299.563C968.673 299.404 969.926 298.245 970.456 297.209C971.997 294.231 973.033 290.989 974.575 288.035C976.858 283.751 979.518 282.58 984.049 284.416C987.192 285.698 989.346 285.269 991.341 282.762C991.869 282.202 992.462 281.706 993.106 281.285C997.514 277.919 999.285 277.701 1003.98 280.696C1005.98 281.985 1007.55 282.203 1009.55 280.867C1015.04 277.183 1020.67 277.478 1025.93 281.179C1030.52 284.41 1034.83 288.046 1039.15 291.66C1040.37 292.678 1041.78 294.12 1042.01 295.544C1042.7 299.828 1045.83 300.634 1049.16 302.017C1060.16 306.648 1066.16 315.787 1068.92 326.839C1072.87 342.255 1071.3 358.566 1064.48 372.945C1058.72 385.392 1049.71 391.288 1035.71 392.512C1034.98 399.892 1034.26 407.324 1033.54 414.633C1033.78 414.951 1033.9 415.257 1034.03 415.263C1038.28 415.533 1038.77 418.493 1038.86 421.842C1039.17 433.37 1039.6 444.892 1039.85 456.42C1040.34 478.835 1040.74 501.244 1041.17 523.659C1041.4 535.429 1041.64 547.157 1041.82 558.909C1042.01 572.079 1042.14 585.255 1042.3 598.425C1042.32 598.866 1042.37 599.307 1042.44 599.743C1052.79 599.743 1063.04 599.813 1073.24 599.743C1089.46 599.596 1105.69 599.348 1121.92 599.119C1123.85 599.119 1125.61 599.048 1124.44 602.35C1116.25 602.35 1107.89 602.285 1099.52 602.35C1073.27 602.589 1047.03 602.866 1020.78 603.179C1002.49 603.379 984.193 603.595 965.895 603.827L910.679 604.48L855.462 605.139L800.593 605.792L745.383 606.445L690.819 607.099L635.279 607.752L580.393 608.405L524.864 609.058C506.79 609.278 488.714 609.496 470.637 609.711L414.743 610.406L360.833 611.053L304.64 611.712C286.456 611.924 268.275 612.142 250.095 612.365L194.555 613.019L139.991 613.672L84.4455 614.325C66.1499 614.543 47.8543 614.802 29.5587 614.961C19.7842 615.049 10.0038 614.961 0.193928 614.961C-0.212118 612.383 -0.212118 612.36 2.54782 612.336C18.672 612.207 34.7961 612.042 50.9203 611.983C66.9208 611.918 82.9214 611.983 99.2515 611.983C98.9867 606.828 98.8396 602.503 98.5277 598.195C97.0918 578.358 95.5853 558.526 94.1495 538.689C92.7607 519.493 91.3876 500.297 90.0301 481.101C88.7944 463.753 87.5605 446.404 86.3287 429.056C86.1756 426.885 86.2404 424.702 86.0933 422.53C85.8461 418.917 85.5342 415.333 90.9482 415.374C90.189 407.565 89.4652 400.127 88.7237 392.459C76.5777 392.324 67.5682 386.574 61.9365 376.288C58.8836 370.564 56.6322 364.447 55.2455 358.11C52.7269 346.976 52.4503 335.613 56.1459 324.614C60.2064 312.55 67.4622 303.394 80.3674 300.299C85.0046 288.435 94.3142 281.873 105.778 278.419C108.491 277.601 112.298 280.008 115.47 281.273C117.153 281.944 118.294 282.026 119.907 281.008C125.321 277.589 127.286 277.689 132.065 281.968C134.778 284.392 136.943 286.087 141.033 284.233C144.964 282.468 147.565 283.898 149.66 287.811C151.29 290.859 152.385 294.19 153.985 297.227C154.286 297.786 154.696 298.278 155.191 298.675C155.687 299.071 156.258 299.363 156.869 299.533C162.712 300.451 167.767 302.882 171.369 307.507C173.723 310.55 176.665 311.203 179.184 311.427L192.536 293.519C192.67 293.346 192.813 293.181 192.966 293.025C199.786 285.775 202.729 285.275 211.62 290.024C216.057 286.163 220.871 283.551 226.85 288.141C225.32 282.968 223.708 278.425 222.654 273.758C219.847 261.289 224.161 250.879 234.83 243.888C243.474 238.215 253.29 235.931 263.3 234.272C279.289 231.665 295.419 232.33 311.525 232.442ZM292.053 367.661L292.153 367.614L290.128 367.655C289.935 367.612 289.734 367.612 289.54 367.655L288.81 368.326H288.846C283.967 369.391 279.071 370.38 274.228 371.58C273.767 371.744 273.347 372.007 272.998 372.351C272.65 372.695 272.38 373.11 272.209 373.569C270.297 380.131 268.402 386.71 266.79 393.354C265.348 399.238 264.53 405.264 265.883 411.473L279.495 410.767L291.988 487.856L333.534 481.001C334.599 485.355 335.488 489.033 336.388 492.711C340.037 507.57 343.727 522.417 347.322 537.294C348.164 540.778 348.193 544.114 346.628 547.686C343.88 553.971 343.815 560.727 344.733 567.795C346.857 567.653 348.805 567.665 350.706 567.383C367.954 564.782 383.242 557.485 397.431 547.669C404.357 542.879 410.807 537.482 415.267 530.203C416.448 528.321 417.02 526.12 416.903 523.9C415.479 510.601 413.796 497.325 412.095 484.055C409.859 466.683 407.574 449.319 405.24 431.963C404.363 425.331 403.415 418.711 402.521 412.238C397.36 412.238 392.552 411.985 387.809 412.32C384.013 412.585 381.924 410.92 381.189 407.571C379.723 400.904 378.488 394.183 377.299 387.457C377.164 386.704 377.776 385.645 378.329 384.968C384.213 377.8 385.196 369.903 381.771 361.429C379.723 356.38 375.887 353.502 370.343 353.084C362.469 352.496 357.885 355.862 356.767 363.63C356.296 366.925 356.543 370.339 356.62 373.693C356.667 375.576 357.044 377.453 357.297 379.507C352.542 379.507 348.905 378 345.945 375.052C345.166 374.192 344.677 373.11 344.545 371.957C342.914 358.575 341.602 345.152 339.748 331.799C338.413 322.101 336.076 312.627 330.921 304.059C328.862 300.64 326.167 298.692 322.2 299.022C317.457 299.422 312.702 299.875 308.018 300.699C300.233 302.07 292.535 304.006 284.732 305.218C279.936 305.965 275.005 305.807 270.091 306.054C271.492 309.832 273.075 313.404 274.122 317.129C275.169 320.854 275.605 324.779 276.523 328.586C276.705 329.316 277.818 330.158 278.636 330.352C282.237 331.164 285.939 331.529 289.493 332.517C291.327 332.988 292.979 333.996 294.236 335.413C300.539 343.339 300.668 356.009 294.824 364.436C294.31 365.257 293.844 366.108 293.43 366.984H293.471L292.053 367.661ZM914.257 550.493L913.633 550.811C913.633 559.515 913.55 568.218 913.574 576.916C913.574 584.525 913.715 592.134 913.786 599.743L914.157 601.579H954.72C955.373 596.388 955.997 591.893 956.426 587.379C956.485 586.749 955.661 585.92 955.073 585.366C950.03 580.582 945.14 575.604 939.832 571.131C931.464 564.07 922.801 557.355 914.257 550.493ZM908.207 411.555C904.088 412.144 906.442 415.892 904.564 417.975L908.131 418.782L913.615 420.153V468.178C913.615 493.335 913.615 518.492 913.703 543.65C913.835 545.154 914.536 546.551 915.663 547.557C927.768 557.997 939.979 568.312 952.148 578.652C953.655 579.935 955.173 581.194 957.015 582.771C958.71 566.053 960.299 549.946 961.993 533.857C964.065 514.191 966.113 494.512 968.378 474.869C970.632 455.555 973.198 436.271 975.587 416.969C975.805 415.204 976.552 414.286 978.412 414.086C981.625 413.744 984.814 413.203 988.08 412.732C988.292 410.443 988.251 408.336 988.722 406.347C989.346 403.723 988.027 403.093 985.897 402.381C980.477 400.568 975.305 397.75 969.761 396.649C962.847 395.272 956.933 391.882 950.554 389.452C943.663 386.822 936.024 386.151 928.521 384.585C926.644 397.379 922.007 407.971 908.207 411.555ZM306.594 608.876C296.59 543.679 288.398 478.588 276.905 413.927C275.564 413.927 274.693 413.891 273.834 413.927C254.673 414.862 235.771 417.663 216.999 421.577C213.986 422.201 213.533 423.448 213.533 426.096C213.6 486.12 213.615 546.145 213.58 606.169V610.023L306.594 608.876ZM539.176 606.357L539.564 605.263C511.282 559.797 470.019 531.656 418.863 515.574C419.098 517.404 419.104 518.598 419.451 519.693C421.164 525.701 419.545 530.786 415.332 535.199C415.185 535.358 415.061 535.54 414.92 535.711C404.751 547.851 391.669 555.943 377.44 562.31C367.183 566.906 356.579 570.413 345.115 570.513C342.85 570.513 342.126 569.678 341.826 567.571C340.701 560.003 341.59 552.271 344.403 545.156C344.862 543.979 345.286 542.567 345.057 541.402C342.797 530.144 340.39 518.916 337.918 507.176L295.46 512.543C296.131 517.015 296.731 520.864 297.29 524.718C301.245 551.929 305.187 579.14 309.118 606.351C309.413 608.434 310.295 608.994 312.314 608.917C318.952 608.664 325.59 608.517 332.228 608.429C350.839 608.181 369.457 607.96 388.08 607.764C406.158 607.552 424.234 607.336 442.307 607.116C468.232 606.838 494.152 606.577 520.068 606.334C526.424 606.287 532.803 606.357 539.176 606.357V606.357ZM910.679 601.696C910.749 600.92 910.826 600.52 910.826 600.084C910.826 541.79 910.849 483.496 910.896 425.202C910.896 423.113 910.426 422.148 908.148 421.783C895.484 419.77 882.885 417.346 870.192 415.533C862.806 414.474 855.286 414.291 847.53 413.691C836.184 476.811 827.886 539.789 818.183 602.82L910.679 601.696ZM184.439 610.318C179.401 584.784 174.535 559.827 169.539 534.899C161.841 496.442 154.05 457.991 146.347 419.552C145.964 417.646 145.405 416.669 143.31 416.61C133.53 416.275 123.744 415.357 113.975 415.563C106.519 415.727 99.0867 417.257 91.6484 418.199C89.6712 418.446 88.6413 419.299 88.812 421.589C89.4005 429.074 89.6771 436.583 90.2067 444.068C91.3836 460.781 92.6783 477.482 93.8964 494.188C95.0734 510.36 96.2326 526.529 97.3743 542.696C98.6336 560.272 99.889 577.85 101.141 595.429C101.517 600.726 101.829 605.975 102.176 611.318L184.439 610.318ZM957.815 600.478H1039.73C1038.55 539.501 1037.38 479.188 1036.16 418.723C1030.54 417.846 1025.74 416.898 1020.86 416.369C1007.41 414.898 993.936 414.603 980.513 416.745C979.654 416.881 978.388 418.005 978.271 418.805C976.805 428.809 975.405 438.813 974.216 448.847C972.521 463.205 970.985 477.582 969.432 491.952C967.713 507.951 966.024 523.951 964.365 539.954C962.933 553.465 961.501 566.977 960.069 580.488C959.369 587.244 958.557 593.976 957.815 600.478V600.478ZM219.371 417.975C219.077 416.372 218.7 414.785 218.241 413.22C218.005 412.561 217.323 411.702 216.722 411.585C205.541 409.419 200.186 401.651 197.232 391.576C196.703 389.764 196.42 387.875 195.996 385.898C184.774 388.658 173.405 389.37 163.101 394.495C160.747 395.672 157.752 395.337 155.221 396.208C149.195 398.267 143.252 400.586 137.326 402.934C136.578 403.234 135.643 404.317 135.649 405.035C135.649 407.606 136.055 410.172 136.308 412.767C139.627 413.238 142.616 413.821 145.635 414.05C147.842 414.215 148.524 415.298 148.854 417.299C149.678 422.336 150.619 427.35 151.655 432.352C160.098 474.149 168.56 515.944 177.042 557.738C177.818 561.58 178.684 565.388 179.502 569.213C189.2 562.045 198.492 555.054 207.942 548.293C209.855 546.921 210.567 545.639 210.561 543.308C210.487 503.547 210.469 463.78 210.508 424.007V420.241L219.371 417.975ZM262.294 411.502C262.535 406.953 262.194 402.193 263.147 397.714C265.377 387.216 268.443 376.9 270.762 366.413C273.969 351.778 275.723 336.99 272.427 322.107C270.432 313.115 267.131 304.641 260.499 297.892C259.34 296.751 257.963 295.856 256.45 295.261C254.379 294.426 252.76 295.491 251.278 297.027C249.795 298.562 250.748 299.628 251.213 301.099C253.384 307.902 255.391 314.763 257.392 321.625C257.98 323.69 256.85 324.073 255.038 323.749C254.732 322.449 254.42 321.201 254.149 319.942C252.131 310.438 249.583 301.158 243.051 293.531C238.643 288.382 235.295 288.541 231.464 294.12C238.066 305.807 240.573 314.192 239.508 320.983C237.125 321.772 237.154 320.23 237.048 318.582C236.213 308.537 232.694 299.586 225.967 291.995C221.807 287.287 218.352 287.399 214.145 292.342C222.472 301.005 225.232 311.909 226.75 323.531C226.278 323.657 225.799 323.75 225.314 323.808C224.902 323.808 224.484 323.743 224.89 323.779C222.578 316.576 220.73 309.655 218.111 303.041C216.044 297.684 212.005 293.322 206.824 290.848C203.882 289.424 201.246 289.488 198.686 291.736C192.383 297.275 187.232 303.999 183.527 311.527C183.415 311.756 183.591 312.115 183.638 312.462L197.556 315.287C197.844 314.869 198.115 314.41 198.439 314.004C201.098 310.644 204.235 311.062 205.794 315.093C206.5 317.027 206.924 319.052 207.054 321.107C207.831 330.758 206.336 340.185 204.153 349.554C201.64 360.34 198.68 371.051 198.915 382.29C199.233 397.555 206.23 406.471 220.389 409.301C221.024 411.955 221.677 414.668 222.283 417.204L262.294 411.502ZM869.256 323.526L868.344 324.196C867.885 323.367 866.873 322.39 867.055 321.731C868.885 314.934 870.768 308.143 872.969 301.464C873.617 299.498 874.417 298.056 872.516 296.385C870.615 294.714 868.732 294.367 866.884 295.738C864.654 297.397 862.306 299.186 860.753 301.434C854.774 310.097 851.543 319.824 850.637 330.311C849.46 343.687 851.443 356.792 854.274 369.779C857.275 383.597 863.689 396.796 861.547 411.39L902.093 417.275C902.799 414.333 903.452 411.632 904.123 408.831C905.147 408.831 905.889 408.889 906.659 408.831C907.416 408.76 908.163 408.612 908.89 408.389C917.864 405.623 922.383 398.844 924.478 390.299C926.626 381.555 925.226 372.804 923.59 364.107C921.365 352.272 918.882 340.462 917.293 328.539C916.705 324.079 917.717 319.236 918.805 314.763C919.665 311.232 923.843 310.52 925.473 313.527C927.009 316.358 928.951 316.134 931.328 315.817C933.141 315.569 934.959 315.387 936.742 315.175C937.366 309.649 934.041 302.035 929.092 297.462C923.684 292.478 917.911 292.166 912.026 296.597C907.76 299.798 905.312 304.306 903.788 309.22C902.299 313.928 901.334 318.835 899.892 324.632C898.997 323.455 897.838 322.613 897.938 321.954C899.568 311.085 901.975 300.534 911.703 293.19C910.643 292.272 909.725 291.36 908.701 290.612C904.582 287.593 902.228 287.823 898.827 291.619C897.527 293.084 896.315 294.625 895.196 296.232C890.047 303.653 887.628 311.997 886.751 321.266C885.769 320.766 884.786 320.089 884.698 319.318C884.603 317.797 884.701 316.271 884.992 314.775C886.078 307.393 888.818 300.352 893.007 294.178C889.093 288.611 885.639 288.105 881.826 293.231C878.535 297.658 875.81 302.48 873.717 307.584C871.592 312.639 870.68 318.194 869.256 323.526ZM804.383 301.087C803.794 302.852 803.147 304.194 802.9 305.612C801.552 313.316 799.846 320.989 799.11 328.757C797.13 349.233 796.541 369.82 797.345 390.376C798.192 411.027 799.067 431.675 799.969 452.319C800.417 462.405 800.999 472.48 801.523 482.613L832.176 487.909L844.764 411.131H858.781C858.781 407.259 859.423 403.24 858.652 399.509C856.786 390.488 854.156 381.625 852.079 372.639C851.643 370.762 850.778 370.138 849.136 369.797C844.776 368.879 840.45 367.773 836.066 367.008C834.779 366.823 833.555 366.329 832.499 365.569C831.444 364.809 830.588 363.804 830.005 362.641C826.009 355.332 825.332 347.835 828.728 340.115C830.376 336.354 832.577 333.318 837.29 333.335C838.573 333.335 839.856 332.906 841.133 332.635C847.4 331.305 847.4 331.299 848.377 325.097C848.373 324.895 848.331 324.695 848.254 324.508C836.413 323.855 824.597 322.984 812.769 322.666C808.838 322.56 807.278 320.972 806.766 317.523C806.019 312.239 805.236 306.919 804.383 301.087ZM584.706 605.627L672.541 604.527C673.448 578.528 674.342 552.953 675.254 526.849C637.527 544.538 606.744 569.519 584.706 605.627ZM181.367 353.432C180.943 347.788 180.831 343.31 180.219 338.908C178.972 329.946 177 321.136 172.175 313.298C167.973 306.472 161.977 302.376 153.721 302.293C139.838 302.152 127.163 312.115 123.532 326.562C119.913 340.981 119.97 356.077 123.697 370.468C126.568 381.843 132.388 391.023 145.305 392.83C162.459 395.219 175.094 389.37 179.331 370.727C180.696 364.73 180.808 358.451 181.367 353.432ZM115.099 345.593C114.97 336.272 113.257 325.738 107.714 316.17C103.594 309.073 97.9804 303.865 89.4711 302.935C77.7016 301.658 68.0742 307.301 61.8541 318.606C56.2283 328.816 55.8987 339.832 56.9521 350.972C57.8701 360.682 60.2829 370.038 66.3677 377.995C72.5349 386.062 80.5204 390.729 90.8952 389.176C100.734 387.693 107.278 381.702 110.797 372.416C113.863 364.236 115.105 355.786 115.099 345.593ZM815.252 602.879C819.742 572.72 824.185 542.855 828.675 512.737L802.935 509.071C804.818 540.719 806.672 571.802 808.526 602.879H815.252ZM1003.65 347.794C1003 341.862 1002.69 335.872 1001.64 330.01C998.955 315.022 989.334 305.295 974.757 302.617C967.919 301.364 961.811 303.206 956.656 307.913C952.454 311.768 949.994 316.74 948.17 322.037C943.145 336.613 942.338 351.59 944.316 366.761C945.087 372.645 946.811 378.242 950.365 383.102C956.368 391.312 964.848 393.542 974.493 393.26C986.056 392.918 994.024 387.598 998.467 376.906C1002.36 367.573 1003.22 357.775 1003.65 347.776V347.794ZM210.349 610.006V550.441C209.97 550.528 209.604 550.664 209.261 550.847C199.992 557.908 190.706 564.888 181.52 572.032C180.82 572.579 180.42 574.091 180.567 575.045C181.202 579.117 182.12 583.142 182.891 587.197C184.339 594.847 185.763 602.497 187.175 610.012L210.349 610.006ZM1067.87 342.839C1068.14 331.582 1065.56 321.248 1058.29 312.38C1051.17 303.694 1039.41 300.334 1029.46 304.318C1022.35 307.166 1017.96 312.815 1014.93 319.53C1008.85 332.976 1008.14 347.059 1010.65 361.394C1011.9 368.508 1013.83 375.517 1018.76 381.055C1029.45 393.095 1047.34 391.912 1057.56 378.548C1065.64 368.008 1067.52 355.633 1067.87 342.845V342.839ZM174.488 387.234C181.438 385.857 187.722 384.674 193.966 383.291C194.445 383.109 194.875 382.819 195.221 382.442C195.567 382.065 195.821 381.612 195.961 381.119C197.727 370.974 199.056 360.746 201.01 350.642C202.776 341.456 204.9 332.358 204.5 322.902C204.394 320.448 203.641 319.224 201.075 318.824C195.943 318.023 190.859 316.935 185.775 315.934C182.691 315.346 179.613 314.675 176.165 313.969C182.815 329.316 184.915 344.74 183.615 360.735C182.826 370.191 181.249 379.295 174.488 387.234ZM976.735 396.79L991.994 401.339C991.7 405.141 991.405 408.76 991.17 411.832L1030.71 414.015L1032.72 392.924C1028.18 390.57 1024.09 388.416 1019.98 386.327C1019.2 385.949 1018.37 385.672 1017.52 385.503C1012.23 384.362 1006.93 383.185 1001.59 382.22C1000.68 382.055 999.108 382.538 998.649 383.238C993.565 391.288 986.15 395.29 976.735 396.79ZM147.73 396.837C136.119 394.113 133.724 392.718 126.545 384.391C126.191 384.043 125.766 383.775 125.298 383.609C124.831 383.442 124.332 383.38 123.838 383.426C112.904 385.48 101.9 387.339 91.672 392.589C92.3723 399.839 93.0902 407.259 93.7434 414.044L133.312 411.826C133.095 409.39 132.965 406.571 132.559 403.793C132.259 401.71 133.23 400.921 135.013 400.439C139.244 399.274 143.458 398.032 147.718 396.826L147.73 396.837ZM295.001 509.701L336.565 504.481C334.799 497.808 333.081 491.152 331.269 484.126L292.206 490.752C293.13 497.178 294.059 503.386 295.001 509.701ZM100.658 302.935C104.871 297.456 105.954 297.144 113.204 299.716C114.934 300.334 116.629 301.228 118.418 301.481C121.802 301.964 125.28 302.505 128.628 302.152C130.264 301.982 132.647 300.045 132.947 298.551C133.248 297.056 131.735 294.514 130.282 293.613C123.473 289.4 116.453 285.522 109.403 281.72C108.054 281.098 106.52 281.005 105.107 281.462C97.1624 284.339 90.5127 289.112 85.5401 295.997C84.9756 296.922 84.5194 297.909 84.1807 298.939L100.658 302.935ZM1040.35 298.921C1040.08 298.141 1039.73 297.39 1039.31 296.679C1034.31 289.352 1026.98 283.927 1018.52 281.279C1017.28 280.996 1015.99 281.174 1014.87 281.779C1008.2 285.369 1001.56 289.023 995.013 292.843C992.888 294.084 990.481 295.744 991.299 298.727C992.141 301.799 995.107 302.323 997.773 302.794C998.852 302.95 999.952 302.882 1001 302.594C1004.25 301.77 1007.52 300.975 1010.68 299.875C1018.46 297.18 1019.1 297.286 1023.77 302.958L1040.35 298.921ZM274.098 368.544C279.501 367.32 284.885 366.19 290.228 364.813C291.041 364.607 291.735 363.6 292.3 362.83C297.373 355.903 297.543 344.875 292.535 337.967C291.582 336.7 290.244 335.777 288.722 335.336C284.973 334.383 281.119 333.847 277.765 333.229C276.529 344.928 275.328 356.456 274.098 368.544ZM801.664 485.52C802.07 492.582 802.453 499.373 802.841 506.17L829.175 509.918L831.982 490.764L801.664 485.52ZM125.886 312.739L106.796 309.208C108.479 311.991 109.962 314.122 111.133 316.417C115.559 325.027 117.783 334.601 117.606 344.281L117.835 344.228C118.595 338.932 118.918 333.447 120.236 328.245C121.555 323.043 123.897 318.082 125.886 312.739ZM123.608 380.413C122.161 374.964 120.554 370.003 119.589 364.925C118.648 359.975 118.365 354.921 118.012 351.825C117.365 355.733 116.906 361.617 115.311 367.178C113.716 372.739 110.968 378.071 108.749 383.444L123.608 380.413ZM142.557 301.169C139.979 294.304 135.541 288.291 129.74 283.804C125.898 280.732 125.15 280.785 121.037 284.104C122.084 284.751 123.102 285.281 124.05 285.969C127.328 288.264 130.788 290.353 133.789 292.966C136.69 295.485 136.926 299.086 134.772 301.693C133.783 302.87 132.383 303.77 130.417 305.424C132.247 305.536 133.63 306.013 134.589 305.607C137.226 304.4 139.685 302.788 142.557 301.152V301.169ZM994.006 305.106C986.945 300.681 986.55 295.897 992.159 291.418C993.765 290.136 995.501 289.017 997.225 287.888C999.261 286.569 1001.34 285.328 1003.42 284.051L1003.33 282.874C1001.26 282.591 998.626 281.344 997.219 282.185C989.881 286.611 984.92 293.166 981.595 301.711C985.997 301.834 988.351 307.225 994.006 305.089V305.106ZM993.812 308.49C995.172 310.714 996.755 311.68 999.697 310.962C1005.58 309.526 1011.64 308.749 1017.57 307.472C1018.96 307.172 1020.16 305.971 1021.45 305.189C1020.27 303.829 1019.28 302.076 1017.78 301.258C1016.84 300.752 1015.11 301.581 1013.78 301.946C1009.5 303.123 1005.3 304.818 1000.95 305.371C998.037 305.724 995.719 306.348 993.8 308.472L993.812 308.49ZM130.664 309.155V308.108C129.205 307.254 127.845 306.042 126.274 305.612C121.09 304.206 115.782 303.259 110.609 301.799C106.243 300.593 105.207 300.905 103.047 305.401C111.139 306.966 119.177 308.578 127.245 310.008C128.287 310.197 129.517 309.461 130.664 309.155ZM978.653 300.328L985.774 287.923C982.961 287.334 979.93 284.645 977.717 288.541C975.781 291.936 974.34 295.603 972.592 299.339L978.653 300.328ZM145.782 300.328L151.52 299.41C151.284 298.716 151.137 298.198 150.931 297.709C150.025 295.497 149.166 293.266 148.183 291.101C145.829 285.963 143.634 285.375 138.832 288.323C141.045 292.148 143.269 295.985 145.77 300.316L145.782 300.328ZM227.374 288.282L226.75 287.97C226.697 288.135 226.562 288.353 226.621 288.453C226.769 288.636 226.946 288.795 227.144 288.923L227.374 288.282Z" fill="#272222"/>
<path d="M814.952 169.692C813.516 171.334 812.445 173.288 810.797 174.247C808.443 175.607 806.013 174.836 803.977 172.882C798.475 167.639 792.913 162.442 787.376 157.234C785.475 155.469 783.504 153.704 781.685 151.862C779.114 149.231 779.043 145.836 781.374 143.435C783.58 141.169 786.952 141.016 789.565 143.435C797.243 150.496 804.844 157.641 812.368 164.867C813.439 165.873 813.857 167.574 814.952 169.692Z" fill="#EC6911"/>
<path d="M759.994 100.653C758.411 102.489 757.34 104.431 755.693 105.478C753.304 107.003 750.873 106.02 748.878 104.143L731.042 87.3829C729.618 86.0412 728.158 84.7348 726.758 83.3636C723.98 80.639 723.768 77.1788 726.169 74.6837C728.57 72.1885 731.871 72.2356 734.614 74.7896C742.023 81.6806 749.414 88.5893 756.699 95.6039C757.952 96.7985 758.653 98.5462 759.994 100.653Z" fill="#EC6911"/>
<path d="M279.524 142.694C278.135 144.518 277.241 146.854 275.687 147.431C273.851 148.12 270.98 148.02 269.367 146.99C262.67 142.753 256.268 138.033 249.759 133.49C247.8 132.125 245.793 130.807 243.875 129.371C240.962 127.146 240.414 123.81 242.397 121.062C244.228 118.525 247.623 117.913 250.513 119.885C259.122 125.769 267.702 131.742 276.158 137.857C277.529 138.822 278.218 140.722 279.524 142.694Z" fill="#EC6911"/>
<path d="M662.821 133.414C660.467 137.675 658.113 141.935 655.759 146.196C653.629 150.056 650.463 151.292 647.232 149.533C644.219 147.897 643.501 144.472 645.408 140.77C647.097 137.504 648.809 134.256 650.51 130.996L659.249 115.054C661.296 111.323 664.674 110.011 667.84 111.711C670.906 113.365 671.559 116.602 669.559 120.462C667.346 124.787 665.075 129.095 662.821 133.414Z" fill="#EC6912"/>
<path d="M254.232 79.9453C257.645 79.9806 259.528 81.5048 260.352 84.353C261.176 87.2012 259.858 89.6904 256.733 91.1851C248.989 94.8925 241.209 98.5234 233.441 102.178C231.77 102.966 230.122 103.831 228.404 104.491C227.026 105.077 225.475 105.105 224.077 104.569C222.679 104.034 221.544 102.976 220.911 101.619C220.279 100.263 220.197 98.7133 220.685 97.298C221.173 95.8826 222.191 94.7121 223.525 94.0333C233.118 89.4138 242.78 84.9414 252.425 80.4396C253.009 80.2145 253.615 80.0489 254.232 79.9453V79.9453Z" fill="#EC6911"/>
<path d="M755.04 43.4015C751.003 43.4839 748.496 41.4478 748.037 38.5525C747.601 35.7572 749.114 32.9502 752.015 32.2676C762.584 29.7607 773.176 27.3852 783.792 25.1412C786.858 24.4998 789.412 26.53 790.165 29.4782C790.866 32.1852 789.524 35.4218 786.788 36.0868C775.942 38.7408 765.008 41.13 755.04 43.4015Z" fill="#EC6911"/>
<path d="M703.489 146.101L698.952 143.971C698.699 142.005 697.775 139.851 698.305 138.086C701.112 128.282 704.225 118.566 707.314 108.845C708.438 105.314 711.204 103.66 714.211 104.443C717.571 105.32 719.507 108.18 718.454 111.716C715.453 121.974 712.228 132.089 708.98 142.223C708.185 144.771 706.084 145.889 703.489 146.101Z" fill="#EC6911"/>
<path d="M745.694 120.209C749.107 120.426 750.99 121.868 751.808 124.552C754.81 134.42 757.805 144.295 760.724 154.187C761.765 157.718 760.135 160.813 756.952 161.725C753.668 162.667 750.755 161.137 749.637 157.518C746.618 147.767 743.646 137.998 740.81 128.194C739.527 123.792 742.193 120.12 745.694 120.209Z" fill="#EC6911"/>
<path d="M715.271 35.0858C715.341 34.8269 715.524 33.9854 715.777 33.1615C718.668 23.8205 721.565 14.4834 724.469 5.15022C725.781 0.966183 728.806 -0.828663 732.319 0.360052C735.455 1.4193 736.768 4.55586 735.579 8.42213C732.637 18.079 729.63 27.7299 726.558 37.3514C725.493 40.6822 722.892 42.171 719.826 41.5531C716.924 40.9647 715.183 38.7285 715.271 35.0858Z" fill="#EC6911"/>
<path d="M92.0309 219.172L116.482 222.82C118.836 223.173 121.231 223.409 123.544 223.915C126.839 224.597 128.546 227.34 127.998 230.782C127.754 232.194 126.973 233.457 125.82 234.307C124.666 235.156 123.228 235.528 121.808 235.343C111.376 233.856 100.954 232.287 90.542 230.635C87.0641 230.076 85.0575 227.304 85.44 224.197C85.8225 221.09 88.3352 219.071 92.0309 219.172Z" fill="#EC6911"/>
<path d="M202.552 81.3099C202.197 82.3206 201.768 83.304 201.269 84.2522C196.201 92.8832 191.101 101.483 185.969 110.051C183.957 113.399 180.585 114.359 177.642 112.581C174.865 110.91 174.017 107.42 175.877 104.284C181.12 95.3803 186.416 86.5355 191.713 77.6731C193.26 75.0897 195.638 74.1423 198.415 74.9897C201.058 75.7724 202.511 77.7555 202.552 81.3099Z" fill="#EC6911"/>
<path d="M101.087 168.775C102.284 169.186 103.436 169.718 104.524 170.364C112.672 175.97 120.787 181.63 128.869 187.342C132.212 189.696 132.988 193.191 130.988 196.045C129.069 198.776 125.58 199.199 122.325 196.951C114.016 191.196 105.748 185.376 97.4565 179.586C95.0438 177.903 94.0316 175.625 94.9555 172.806C95.7911 170.305 97.6272 168.923 101.087 168.775Z" fill="#EC6911"/>
<path d="M702.254 75.0196C701.989 78.2797 700.554 80.2334 697.599 80.8631C694.645 81.4928 691.98 80.0569 690.985 76.9733C689.078 71.0886 687.372 65.1332 685.577 59.2132C684.4 55.2645 683.105 51.3394 681.981 47.3672C680.922 43.6128 682.535 40.3409 685.712 39.5052C689.114 38.6108 691.927 40.2879 693.098 44.0953C696.04 53.6462 698.876 63.2207 701.748 72.7834C701.995 73.6072 702.131 74.4605 702.254 75.0196Z" fill="#EC6911"/>
<path d="M68.3388 144.041C68.3388 148.82 68.38 153.604 68.3388 158.388C68.2976 163.173 66.1614 165.697 62.301 165.638C58.629 165.58 56.6458 163.09 56.6811 158.441C56.7517 148.767 56.8753 139.092 56.9636 129.424C56.993 126.328 57.9699 123.457 61.2241 122.998C63.1426 122.733 65.5376 123.774 67.2501 124.922C68.1858 125.546 68.4624 127.611 68.5035 129.041C68.6448 134.037 68.5624 139.045 68.5624 144.041H68.3388Z" fill="#EC6911"/>
<path d="M161.112 212.01C156.074 211.422 153.409 206.808 155.815 202.594C158.958 197.004 162.347 191.555 165.625 186.047C167.626 182.681 169.562 179.285 171.628 175.96C173.564 172.853 176.924 171.917 179.754 173.606C182.585 175.295 183.45 178.738 181.62 181.845C176.406 190.754 171.18 199.664 165.731 208.426C164.748 209.95 162.683 210.833 161.112 212.01Z" fill="#EC6911"/>
<path d="M192.813 237.903C192.813 243.011 192.854 248.119 192.813 253.203C192.771 257.034 190.624 259.212 187.069 259.206C183.621 259.206 181.249 256.852 181.279 253.127C181.361 242.805 181.51 232.483 181.726 222.161C181.796 218.548 184.386 216.13 187.728 216.247C191.071 216.365 193.336 218.848 193.354 222.567C193.383 227.675 193.354 232.783 193.354 237.868L192.813 237.903Z" fill="#EC680F"/>
<path d="M206.425 150.903C206.425 155.794 206.501 160.69 206.425 165.58C206.336 169.876 204.112 172.241 200.469 172.177C196.827 172.112 194.767 169.693 194.808 165.333C194.914 155.333 195.063 145.329 195.255 135.321C195.32 131.601 197.609 129.159 200.97 129.106C204.33 129.053 206.701 131.49 206.79 135.238C206.913 140.452 206.819 145.666 206.819 150.886L206.425 150.903Z" fill="#EC680F"/>
<path d="M138.127 162.484C134.861 162.525 132.907 161.183 132.013 158.518C131.071 155.717 132.307 152.874 135.226 151.456C142.287 148.049 149.349 144.771 156.411 141.452C158.871 140.275 161.301 139.069 163.814 138.039C165.175 137.478 166.7 137.46 168.075 137.987C169.45 138.514 170.571 139.548 171.208 140.875C171.846 142.203 171.951 143.724 171.503 145.127C171.055 146.529 170.087 147.707 168.798 148.419C159.224 153.068 149.561 157.553 139.916 162.06C139.34 162.276 138.739 162.419 138.127 162.484V162.484Z" fill="#EC6911"/>
<path d="M661.843 197.969C660.278 199.77 659.148 201.783 657.43 202.895C655.029 204.442 652.639 203.377 650.644 201.494C643.995 195.217 637.335 188.952 630.666 182.698C629.954 182.028 629.212 181.38 628.524 180.686C625.834 177.949 625.67 174.389 628.1 171.976C630.531 169.564 633.844 169.699 636.58 172.235C641.447 176.755 646.254 181.333 651.092 185.882C653.628 188.271 656.264 190.555 658.671 193.067C659.813 194.256 660.513 195.863 661.843 197.969Z" fill="#EC6912"/>
<path d="M721.961 226.816C720.39 225.433 718.395 224.28 717.3 222.556C715.859 220.284 716.712 217.819 718.701 216.083C721.908 213.299 725.268 210.704 728.57 208.026C733.277 204.189 738.026 200.335 742.781 196.522C745.865 194.05 749.254 194.168 751.497 196.775C753.739 199.382 753.35 202.889 750.32 205.372C742.411 211.869 734.452 218.301 726.445 224.668C725.398 225.545 723.968 225.886 721.961 226.816Z" fill="#EC6912"/>
<path d="M562.333 294.497C562.256 294.838 562.091 295.797 561.809 296.721C558.902 306.156 555.977 315.582 553.035 324.997C551.858 328.687 548.833 330.44 545.573 329.417C542.313 328.393 540.8 325.45 541.883 321.896C544.861 312.041 547.913 302.208 551.04 292.396C552.087 289.1 554.735 287.5 557.725 288.041C560.538 288.512 562.362 290.866 562.333 294.497Z" fill="#EC6912"/>
<path d="M541.777 186.464C543.172 184.799 544.196 182.809 545.826 181.815C548.145 180.391 550.64 181.068 552.682 182.992C558.461 188.441 564.243 193.883 570.03 199.316C571.695 200.881 573.396 202.406 575.014 204.024C577.633 206.625 577.798 209.991 575.497 212.451C573.272 214.805 569.612 214.958 567.017 212.521C559.449 205.495 551.936 198.404 544.478 191.248C543.402 190.201 542.925 188.541 541.777 186.464Z" fill="#EC6912"/>
<path d="M536.005 231.665C540.353 231.665 543.249 235.061 542.172 238.727C539.147 249.013 535.958 259.259 532.691 269.469C532.477 270.174 532.124 270.83 531.654 271.398C531.183 271.966 530.605 272.435 529.951 272.778C529.298 273.12 528.583 273.329 527.848 273.392C527.113 273.455 526.373 273.372 525.671 273.146C522.423 272.17 520.787 269.327 521.752 265.679C522.84 261.595 524.259 257.605 525.512 253.568C527.278 247.877 529.043 242.199 530.808 236.502C531.668 233.536 533.48 231.859 536.005 231.665Z" fill="#EC6912"/>
<path d="M598.865 299.775C595.658 299.887 593.716 298.645 592.915 296.062C589.785 285.887 586.666 275.707 583.712 265.461C582.735 262.083 584.541 259.247 587.719 258.37C590.756 257.529 593.727 258.959 594.722 262.113C597.86 272.172 600.907 282.26 603.861 292.378C605.032 296.45 602.431 299.722 598.865 299.775Z" fill="#EC6912"/>
<path d="M620.503 208.692C620.02 210.239 619.326 212.511 618.614 214.782C616.177 222.65 613.765 230.53 611.293 238.386C610.04 242.376 607.085 244.224 603.766 243.217C600.447 242.211 598.947 239.004 600.159 235.061C603.16 225.322 606.179 215.594 609.292 205.89C610.269 202.836 613.082 201.183 615.812 201.771C618.784 202.401 620.661 204.843 620.503 208.692Z" fill="#EC6912"/>
<path d="M594.876 182.54C593.953 182.546 593.041 182.335 592.215 181.923C591.388 181.512 590.67 180.912 590.119 180.172C589.567 179.432 589.197 178.572 589.039 177.663C588.881 176.753 588.939 175.82 589.209 174.937C592.192 164.856 595.358 154.829 598.589 144.825C598.803 144.088 599.164 143.403 599.648 142.809C600.133 142.214 600.732 141.724 601.41 141.365C602.087 141.007 602.83 140.788 603.594 140.722C604.358 140.656 605.127 140.745 605.857 140.982C606.584 141.213 607.26 141.585 607.843 142.077C608.427 142.569 608.908 143.172 609.259 143.85C609.609 144.529 609.822 145.27 609.886 146.031C609.949 146.792 609.862 147.558 609.629 148.285C606.574 158.342 603.391 168.363 600.26 178.397C599.395 181.169 597.277 182.222 594.876 182.54Z" fill="#EC6912"/>
<path d="M692.844 185.352C688.824 185.352 686.465 183.48 685.911 180.691C685.358 177.902 686.994 174.806 689.931 174.124C700.488 171.64 711.08 169.286 721.708 167.062C724.686 166.432 727.352 168.492 728.099 171.364C728.811 174.1 727.563 177.301 724.786 177.99C713.823 180.668 702.806 183.074 692.844 185.352Z" fill="#EC6912"/>
<path d="M293.383 366.984C293.797 366.108 294.263 365.257 294.777 364.436C300.662 356.003 300.509 343.339 294.189 335.413C292.932 333.996 291.28 332.988 289.446 332.517C285.915 331.552 282.19 331.164 278.588 330.352C277.77 330.163 276.658 329.322 276.476 328.586C275.558 324.797 275.128 320.877 274.075 317.129C273.021 313.38 271.444 309.832 270.044 306.054C274.957 305.807 279.889 305.965 284.685 305.218C292.488 304.006 300.185 302.07 307.971 300.699C312.679 299.875 317.386 299.422 322.153 299.021C326.119 298.692 328.814 300.64 330.874 304.059C336.035 312.627 338.371 322.101 339.701 331.799C341.543 345.152 342.867 358.575 344.497 371.957C344.629 373.109 345.119 374.192 345.898 375.052C348.84 377.994 352.495 379.507 357.249 379.507C356.996 377.453 356.62 375.576 356.573 373.693C356.496 370.338 356.249 366.925 356.72 363.63C357.838 355.862 362.422 352.496 370.296 353.084C375.863 353.502 379.676 356.38 381.724 361.429C385.149 369.885 384.143 377.783 378.281 384.968C377.728 385.645 377.105 386.733 377.252 387.457C378.429 394.183 379.676 400.904 381.141 407.571C381.877 410.919 383.966 412.585 387.762 412.32C392.528 411.985 397.336 412.238 402.474 412.238C403.368 418.711 404.316 425.331 405.192 431.963C407.499 449.323 409.784 466.687 412.048 484.055C413.749 497.325 415.432 510.601 416.856 523.9C416.975 526.123 416.403 528.329 415.22 530.215C410.759 537.494 404.31 542.89 397.383 547.68C383.195 557.496 367.907 564.793 350.659 567.394C348.758 567.677 346.81 567.665 344.686 567.806C343.768 560.745 343.832 553.983 346.58 547.698C348.146 544.126 348.116 540.79 347.275 537.306C343.679 522.429 339.99 507.582 336.341 492.723C335.441 489.045 334.576 485.367 333.487 481.012L291.911 487.868L279.418 410.778L265.86 411.443C264.506 405.235 265.324 399.232 266.766 393.324C268.378 386.68 270.297 380.101 272.186 373.54C272.357 373.081 272.626 372.665 272.975 372.322C273.323 371.978 273.743 371.715 274.204 371.551C279.047 370.374 283.943 369.362 288.822 368.296C289.087 369.344 289.351 370.391 289.61 371.427C295.63 371.127 299.503 367.896 301.127 361.929C298.908 360.923 299.138 361.094 297.849 362.818C296.649 364.424 294.895 365.601 293.383 366.984ZM288.81 328.086C289.752 329.198 290.352 330.522 290.94 330.511C296.031 330.458 297.849 334.089 299.226 337.902C299.973 339.961 300.815 340.138 302.469 339.32C300.891 331.223 296.319 327.15 288.81 328.086Z" fill="#FFFEFF"/>
<path d="M306.594 608.876L213.58 609.994V606.139C213.58 546.115 213.565 486.091 213.533 426.067C213.533 423.419 213.986 422.171 216.999 421.547C235.772 417.663 254.662 414.862 273.834 413.897C274.693 413.856 275.564 413.897 276.906 413.897C288.399 478.588 296.584 543.679 306.594 608.876Z" fill="#EB660C"/>
<path d="M539.176 606.357C532.803 606.357 526.424 606.31 520.045 606.357C494.121 606.596 468.2 606.857 442.284 607.139C424.214 607.332 406.138 607.548 388.056 607.787C369.437 608.01 350.82 608.232 332.204 608.452C325.566 608.54 318.928 608.687 312.29 608.94C310.301 609.017 309.389 608.458 309.095 606.375C305.195 579.16 301.253 551.949 297.267 524.742C296.678 520.887 296.09 517.038 295.437 512.566L337.895 507.199C340.366 518.969 342.773 530.15 345.033 541.425C345.262 542.602 344.839 544.008 344.38 545.179C341.566 552.295 340.677 560.026 341.802 567.594C342.102 569.677 342.826 570.537 345.092 570.537C356.555 570.436 367.16 566.929 377.417 562.333C391.646 555.966 404.728 547.874 414.896 535.734C415.038 535.564 415.161 535.381 415.308 535.222C419.522 530.809 421.14 525.724 419.428 519.716C419.11 518.61 419.104 517.415 418.839 515.597C469.989 531.68 511.229 559.797 539.535 605.286L539.176 606.357Z" fill="#EB660C"/>
<path d="M910.679 601.697L818.183 602.821C827.887 539.789 836.184 476.811 847.53 413.691C855.286 414.28 862.83 414.474 870.192 415.533C882.885 417.346 895.496 419.77 908.148 421.783C910.426 422.148 910.896 423.113 910.896 425.202C910.838 483.496 910.814 541.79 910.826 600.084C910.826 600.502 910.749 600.92 910.679 601.697Z" fill="#EB660C"/>
<path d="M184.439 610.318L102.176 611.324C101.829 605.963 101.517 600.691 101.141 595.436C99.8971 577.86 98.6417 560.282 97.3745 542.702C96.1976 526.531 95.0383 510.362 93.8966 494.195C92.6785 477.488 91.3956 460.787 90.2069 444.074C89.6773 436.589 89.3772 429.08 88.8122 421.595C88.6416 419.306 89.6714 418.452 91.6487 418.205C99.087 417.264 106.519 415.734 113.975 415.569C123.744 415.363 133.53 416.281 143.311 416.616C145.406 416.687 145.965 417.664 146.347 419.559C154.033 458.015 161.842 496.449 169.539 534.899C174.535 559.827 179.402 584.784 184.439 610.318Z" fill="#EB660C"/>
<path d="M957.815 600.479C958.557 593.976 959.369 587.244 960.099 580.471C961.55 566.963 962.982 553.452 964.395 539.937C966.085 523.938 967.774 507.938 969.461 491.935C971.015 477.565 972.551 463.188 974.246 448.829C975.423 438.796 976.835 428.786 978.3 418.788C978.418 417.988 979.683 416.864 980.542 416.728C993.965 414.604 1007.44 414.881 1020.89 416.352C1025.74 416.875 1030.54 417.823 1036.19 418.706C1037.37 479.171 1038.55 539.484 1039.76 600.461L957.815 600.479Z" fill="#EB660C"/>
<path d="M262.329 411.467L222.313 417.181C221.724 414.644 221.053 411.931 220.418 409.277C206.259 406.447 199.233 397.508 198.945 382.267C198.709 371.027 201.669 360.317 204.182 349.53C206.365 340.161 207.86 330.734 207.083 321.083C206.953 319.028 206.529 317.003 205.824 315.069C204.264 311.008 201.116 310.62 198.468 313.98C198.144 314.386 197.879 314.845 197.585 315.263L183.668 312.438C183.621 312.097 183.444 311.732 183.556 311.503C187.262 303.975 192.413 297.251 198.715 291.712C201.275 289.464 203.929 289.4 206.854 290.824C212.035 293.298 216.073 297.661 218.141 303.017C220.759 309.631 222.607 316.552 224.92 323.755C224.514 323.719 224.92 323.802 225.343 323.784C225.828 323.726 226.308 323.633 226.779 323.508C225.261 311.909 222.501 301.004 214.174 292.319C218.382 287.375 221.824 287.275 225.997 291.971C232.693 299.586 236.213 308.519 237.025 318.582C237.16 320.23 237.101 321.772 239.484 320.983C240.55 314.192 238.043 305.806 231.44 294.119C235.271 288.511 238.619 288.352 243.027 293.531C249.559 301.181 252.107 310.438 254.126 319.941C254.396 321.201 254.714 322.448 255.014 323.749C256.85 324.073 257.998 323.69 257.368 321.625C255.367 314.763 253.361 307.901 251.189 301.099C250.724 299.627 249.847 298.498 251.254 297.026C252.66 295.555 254.355 294.419 256.427 295.261C257.94 295.856 259.317 296.751 260.475 297.891C267.084 304.641 270.409 313.115 272.404 322.107C275.699 336.99 273.945 351.778 270.738 366.413C268.437 376.9 265.354 387.216 263.123 397.714C262.217 402.157 262.558 406.918 262.329 411.467Z" fill="#FEFEFE"/>
<path d="M869.256 323.526C870.68 318.194 871.61 312.651 873.658 307.578C875.751 302.472 878.475 297.649 881.767 293.219C885.58 288.094 889.035 288.6 892.948 294.167C888.759 300.341 886.019 307.382 884.933 314.763C884.643 316.259 884.544 317.786 884.639 319.306C884.727 320.083 885.71 320.754 886.692 321.254C887.569 311.986 889.988 303.641 895.137 296.221C896.256 294.613 897.468 293.072 898.768 291.607C902.152 287.811 904.523 287.582 908.643 290.601C909.666 291.348 910.584 292.26 911.644 293.178C901.916 300.522 899.509 311.074 897.879 321.943C897.779 322.602 898.939 323.443 899.833 324.62C901.275 318.824 902.24 313.934 903.729 309.208C905.276 304.294 907.724 299.793 911.967 296.585C917.852 292.154 923.654 292.466 929.033 297.451C933.988 302.023 937.313 309.638 936.683 315.164C934.918 315.375 933.082 315.558 931.269 315.805C928.915 316.123 926.95 316.346 925.414 313.516C923.784 310.509 919.606 311.203 918.747 314.752C917.658 319.224 916.628 324.067 917.234 328.528C918.853 340.45 921.306 352.261 923.531 364.095C925.167 372.793 926.567 381.543 924.419 390.288C922.324 398.833 917.805 405.588 908.831 408.378C908.104 408.601 907.357 408.749 906.6 408.819C905.853 408.895 905.088 408.819 904.064 408.819C903.393 411.62 902.74 414.333 902.034 417.263L861.488 411.379C863.654 396.785 857.216 383.585 854.215 369.768C851.384 356.751 849.419 343.675 850.578 330.299C851.484 319.812 854.697 310.085 860.694 301.423C862.247 299.175 864.595 297.386 866.826 295.726C868.673 294.355 870.633 294.773 872.457 296.374C874.282 297.974 873.558 299.487 872.91 301.452C870.71 308.131 868.826 314.922 866.996 321.719C866.814 322.378 867.826 323.355 868.285 324.185L869.256 323.526Z" fill="#FEFEFE"/>
<path d="M804.383 301.087C805.236 306.919 806.019 312.268 806.808 317.564C807.32 321.013 808.879 322.601 812.81 322.707C824.638 323.025 836.455 323.884 848.295 324.549C848.372 324.736 848.414 324.936 848.418 325.138C847.442 331.34 847.442 331.346 841.174 332.676C839.897 332.947 838.615 333.382 837.332 333.376C832.624 333.376 830.417 336.395 828.769 340.156C825.374 347.876 826.051 355.373 830.046 362.682C830.629 363.845 831.485 364.85 832.541 365.61C833.596 366.37 834.82 366.864 836.108 367.049C840.492 367.814 844.817 368.92 849.178 369.838C850.79 370.179 851.655 370.803 852.12 372.681C854.197 381.666 856.828 390.529 858.693 399.55C859.464 403.281 858.823 407.3 858.823 411.172H844.805L832.218 487.95L801.564 482.654C801.041 472.521 800.458 462.446 800.011 452.36C799.093 431.716 798.218 411.069 797.386 390.417C796.582 369.861 797.172 349.274 799.152 328.798C799.887 321.03 801.594 313.357 802.941 305.653C803.136 304.194 803.795 302.841 804.383 301.087ZM821.967 339.296C823.585 340.114 824.479 340.003 825.197 337.943C826.551 334.071 828.428 330.552 833.436 330.499C834.024 330.499 834.613 329.128 835.466 328.104C828.175 327.074 823.461 331.234 821.967 339.296ZM823.891 360.982L823.244 362.064C825.28 368.296 829.093 371.339 836.066 371.339C834.695 369.956 834.048 368.744 833.124 368.473C831.659 368.063 830.3 367.343 829.138 366.361C827.976 365.379 827.04 364.159 826.392 362.782C825.956 361.97 824.732 361.57 823.879 360.982H823.891Z" fill="#FEFEFE"/>
<path d="M584.706 605.627C606.744 569.519 637.527 544.538 675.254 526.854C674.342 552.953 673.448 578.528 672.541 604.533L584.706 605.627Z" fill="#EB660C"/>
<path d="M181.367 353.432C180.808 358.451 180.696 364.73 179.331 370.721C175.094 389.364 162.46 395.213 145.306 392.824C132.389 391.023 126.569 381.843 123.697 370.462C119.97 356.071 119.914 340.975 123.532 326.556C127.163 312.109 139.839 302.146 153.721 302.288C161.959 302.37 167.974 306.466 172.175 313.292C177.001 321.131 178.972 329.94 180.22 338.902C180.832 343.31 180.943 347.788 181.367 353.432ZM172.752 352.761L171.757 352.596C171.757 350.313 171.899 348.018 171.757 345.746C171.104 336.584 169.892 327.551 164.384 319.777C161.747 316.052 158.499 312.98 153.791 312.192C149.355 311.432 144.792 312.073 140.738 314.028C136.683 315.982 133.339 319.152 131.17 323.096C127.481 329.599 126.298 336.743 125.968 344.081C125.503 354.632 126.28 365.001 131.359 374.529C135.637 382.555 142.693 386.645 151.626 386.398C160.935 386.145 166.644 380.349 169.121 371.822C170.892 365.637 171.575 359.128 172.752 352.761V352.761Z" fill="#FCFCFC"/>
<path d="M115.099 345.593C115.099 355.803 113.864 364.254 110.78 372.38C107.249 381.666 100.717 387.681 90.8779 389.14C80.5032 390.705 72.5176 386.039 66.3504 377.959C60.2597 370.003 57.847 360.646 56.9348 350.936C55.8815 339.808 56.211 328.792 61.8368 318.57C68.057 307.266 77.6844 301.622 89.4538 302.899C97.9867 303.829 103.612 309.037 107.696 316.134C113.258 325.72 114.97 336.254 115.099 345.593ZM104.931 349.324C104.313 344.151 103.842 338.955 103.012 333.818C102.464 330.715 101.657 327.664 100.599 324.696C98.634 318.935 94.8266 314.816 89.0419 312.68C78.3082 308.714 67.1213 314.639 63.2315 326.58C60.2067 335.866 60.142 345.411 61.5602 354.979C62.5783 361.811 64.3672 368.402 68.516 374.087C77.1371 385.898 93.9615 384.415 100.335 371.262C103.683 364.342 104.754 356.962 104.931 349.306V349.324Z" fill="#FCFCFC"/>
<path d="M815.252 602.862H808.526C806.672 571.785 804.819 540.702 802.936 509.054L828.675 512.72C824.185 542.867 819.742 572.703 815.252 602.862Z" fill="#EB660C"/>
<path d="M913.768 599.743C913.698 592.134 913.58 584.525 913.557 576.917C913.557 568.219 913.592 559.515 913.615 550.812L914.239 550.494C922.784 557.356 931.446 564.07 939.814 571.132C945.111 575.604 950.013 580.583 955.056 585.367C955.644 585.92 956.468 586.75 956.409 587.38C955.98 591.893 955.356 596.389 954.703 601.579H914.139L913.768 599.743Z" fill="#EB660C"/>
<path d="M1003.65 347.777C1003.23 357.781 1002.36 367.573 998.491 376.901C994.048 387.593 986.08 392.913 974.517 393.254C964.848 393.537 956.368 391.306 950.389 383.097C946.858 378.236 945.093 372.634 944.34 366.755C942.362 351.573 943.163 336.596 948.194 322.031C950.018 316.735 952.478 311.774 956.68 307.908C961.823 303.2 967.943 301.347 974.781 302.612C989.358 305.289 998.979 315.017 1001.66 330.005C1002.69 335.855 1003 341.845 1003.65 347.777ZM999.915 350.331C999.886 339.115 998.832 329.923 993.93 321.537C987.027 309.721 968.185 306.131 959.917 317.653C958.328 319.719 956.992 321.967 955.938 324.35C950.313 338.379 949.777 352.879 952.555 367.561C953.732 373.882 956.356 379.655 961.576 383.739C971.692 391.659 987.757 387.487 994.154 375.365C998.585 366.979 1000.01 357.952 999.915 350.331V350.331Z" fill="#E8650D"/>
<path d="M210.349 610.007H187.175C185.763 602.48 184.339 594.83 182.891 587.192C182.12 583.137 181.202 579.112 180.566 575.04C180.419 574.086 180.819 572.574 181.52 572.027C190.706 564.888 199.992 557.903 209.26 550.842C209.604 550.659 209.97 550.523 210.349 550.436V610.007Z" fill="#EB660C"/>
<path d="M1067.87 342.845C1067.52 355.633 1065.64 368.008 1057.57 378.554C1047.35 391.918 1029.46 393.101 1018.77 381.061C1013.83 375.5 1011.91 368.514 1010.65 361.4C1008.14 347.064 1008.86 332.982 1014.93 319.536C1017.96 312.821 1022.36 307.178 1029.46 304.324C1039.41 300.34 1051.17 303.7 1058.3 312.386C1065.56 321.254 1068.14 331.588 1067.87 342.845ZM1065.16 343.969C1064.65 336.319 1064.48 328.227 1060.14 321.019C1055.37 313.133 1048.37 308.973 1039.1 310.261C1030.27 311.485 1024.59 316.97 1022.08 325.42C1020.69 330.105 1019.68 334.893 1019.05 339.738C1017.74 349.866 1018.01 359.923 1021.85 369.597C1025.01 377.53 1030.49 382.708 1039.28 383.256C1048.57 383.844 1055 379.219 1059.25 371.204C1063.71 362.83 1064.66 353.667 1065.16 343.969Z" fill="#E8650D"/>
<path d="M174.488 387.234C181.25 379.295 182.827 370.168 183.598 360.752C184.898 344.758 182.798 329.334 176.148 313.986C179.596 314.692 182.674 315.352 185.758 315.952C190.86 316.952 195.944 318.041 201.058 318.841C203.624 319.241 204.377 320.465 204.483 322.919C204.883 332.376 202.77 341.474 200.993 350.66C199.039 360.764 197.686 370.992 195.944 381.137C195.804 381.629 195.55 382.082 195.204 382.459C194.858 382.836 194.428 383.127 193.949 383.308C187.723 384.674 181.438 385.856 174.488 387.234Z" fill="#EA660D"/>
<path d="M976.734 396.791C986.15 395.302 993.576 391.3 998.667 383.256C999.108 382.555 1000.68 382.079 1001.61 382.238C1006.94 383.203 1012.24 384.38 1017.54 385.521C1018.39 385.69 1019.21 385.967 1019.99 386.345C1024.11 388.434 1028.2 390.582 1032.73 392.942L1030.73 414.033L991.187 411.85C991.429 408.778 991.717 405.159 992.011 401.357L976.734 396.791Z" fill="#FDFDFD"/>
<path d="M147.719 396.826C143.476 398.032 139.245 399.274 134.985 400.427C133.219 400.91 132.231 401.698 132.531 403.781C132.937 406.559 133.066 409.378 133.284 411.814L93.715 414.033C93.0618 407.247 92.3438 399.827 91.6436 392.577C101.871 387.328 112.876 385.468 123.809 383.414C124.304 383.368 124.802 383.43 125.27 383.597C125.738 383.764 126.163 384.031 126.516 384.379C133.713 392.718 136.109 394.101 147.719 396.826Z" fill="#FDFDFD"/>
<path d="M295.001 509.701C294.06 503.387 293.13 497.178 292.177 490.764L331.24 484.138C333.081 491.164 334.823 497.82 336.536 504.493L295.001 509.701Z" fill="#EAE9E8"/>
<path d="M100.658 302.935L84.1807 298.933C84.5194 297.904 84.9755 296.916 85.54 295.991C90.495 289.1 97.1624 284.345 105.107 281.45C106.52 280.994 108.054 281.086 109.403 281.709C116.464 285.51 123.473 289.359 130.282 293.602C131.735 294.502 133.224 297.086 132.947 298.539C132.671 299.993 130.264 301.97 128.628 302.141C125.28 302.494 121.802 301.952 118.418 301.47C116.653 301.211 114.934 300.293 113.204 299.704C105.954 297.145 104.871 297.456 100.658 302.935Z" fill="#FDFDFD"/>
<path d="M1040.35 298.921L1023.81 302.947C1019.14 297.274 1018.52 297.168 1010.73 299.863C1007.57 300.963 1004.29 301.758 1001.05 302.582C999.994 302.87 998.894 302.939 997.815 302.782C995.131 302.311 992.165 301.787 991.341 298.715C990.523 295.744 992.93 294.084 995.055 292.831C1001.6 289.012 1008.24 285.357 1014.92 281.767C1016.03 281.162 1017.32 280.984 1018.56 281.267C1027.03 283.915 1034.35 289.341 1039.35 296.668C1039.76 297.384 1040.09 298.139 1040.35 298.921Z" fill="#FDFDFD"/>
<path d="M274.099 368.544C275.352 356.451 276.553 344.922 277.765 333.235C281.119 333.824 284.974 334.412 288.722 335.342C290.244 335.783 291.582 336.706 292.535 337.973C297.543 344.881 297.373 355.909 292.3 362.836C291.712 363.606 291.041 364.601 290.229 364.819C284.862 366.19 279.477 367.326 274.099 368.544Z" fill="#EA660D"/>
<path d="M801.664 485.521L831.982 490.764L829.175 509.919L802.841 506.17C802.453 499.373 802.07 492.594 801.664 485.521Z" fill="#EAE9E8"/>
<path d="M125.886 312.739C123.897 318.082 121.572 323.025 120.254 328.216C118.936 333.406 118.612 338.873 117.853 344.199L117.624 344.252C117.801 334.571 115.577 324.998 111.151 316.387C109.974 314.092 108.497 311.962 106.813 309.179L125.886 312.739Z" fill="#E8650D"/>
<path d="M123.608 380.396L108.737 383.426C110.956 378.053 113.692 372.769 115.299 367.161C116.905 361.553 117.353 355.715 118 351.808C118.353 354.879 118.635 359.958 119.577 364.907C120.554 369.986 122.16 374.946 123.608 380.396Z" fill="#E8650D"/>
<path d="M142.558 301.152C139.686 302.788 137.226 304.389 134.59 305.595C133.63 306.031 132.236 305.525 130.417 305.413C132.383 303.759 133.783 302.882 134.772 301.682C136.926 299.075 136.69 295.473 133.789 292.955C130.788 290.342 127.316 288.247 124.05 285.958C123.103 285.299 122.085 284.74 121.037 284.092C125.156 280.773 125.898 280.72 129.741 283.792C135.541 288.278 139.978 294.289 142.558 301.152V301.152Z" fill="#F8F7F8"/>
<path d="M994.007 305.089C988.351 307.225 985.997 301.835 981.596 301.723C984.921 293.178 989.881 286.623 997.22 282.197C998.614 281.356 1001.26 282.603 1003.33 282.886L1003.42 284.063C1001.35 285.34 999.262 286.582 997.225 287.9C995.501 289.024 993.765 290.142 992.159 291.431C986.551 295.879 986.927 300.664 994.007 305.089Z" fill="#F8F7F8"/>
<path d="M993.8 308.466C995.706 306.348 998.025 305.724 1000.91 305.353C1005.26 304.8 1009.46 303.094 1013.74 301.929C1015.07 301.564 1016.8 300.752 1017.74 301.24C1019.23 302.058 1020.21 303.812 1021.41 305.171C1020.12 305.954 1018.92 307.154 1017.53 307.454C1011.6 308.731 1005.55 309.508 999.655 310.944C996.742 311.662 995.171 310.697 993.8 308.466Z" fill="#FCFCFC"/>
<path d="M130.665 309.155C129.517 309.461 128.311 310.197 127.228 310.008C119.16 308.578 111.122 306.966 103.03 305.401C105.19 300.905 106.226 300.593 110.592 301.799C115.765 303.235 121.073 304.206 126.257 305.612C127.828 306.042 129.2 307.254 130.647 308.108L130.665 309.155Z" fill="#FAF9FA"/>
<path d="M978.641 300.34L972.615 299.364C974.381 295.633 975.805 291.961 977.741 288.565C979.953 284.669 982.984 287.335 985.797 287.947L978.641 300.34Z" fill="#FAF9FA"/>
<path d="M145.77 300.317C143.269 295.985 141.062 292.149 138.826 288.312C143.628 285.369 145.823 285.958 148.177 291.089C149.172 293.255 150.019 295.485 150.925 297.698C151.125 298.186 151.272 298.704 151.514 299.399L145.77 300.317Z" fill="#FAF9FA"/>
<path d="M293.383 366.984C294.895 365.613 296.649 364.424 297.844 362.818C299.132 361.093 298.903 360.923 301.122 361.929C299.497 367.914 295.625 371.127 289.605 371.427C289.346 370.391 289.081 369.344 288.817 368.296H288.781L289.523 368.373C289.523 368.126 289.523 367.873 289.523 367.625C289.716 367.582 289.917 367.582 290.111 367.625C290.238 367.891 290.381 368.149 290.541 368.396C291.088 368.161 291.606 367.867 292.136 367.584L292.035 367.631L293.407 366.937L293.383 366.984Z" fill="#353233"/>
<path d="M908.207 411.556C908.184 413.961 908.158 416.369 908.131 418.782L904.564 417.976C906.459 415.893 904.07 412.121 908.207 411.556Z" fill="#E3E1E1"/>
<path d="M292.153 367.613C291.624 367.896 291.106 368.202 290.558 368.425C290.399 368.178 290.256 367.92 290.129 367.654L292.153 367.613Z" fill="#FFFEFF"/>
<path d="M913.768 599.742L914.138 601.578L913.768 599.742Z" fill="#B55518"/>
<path d="M293.424 366.967L292.053 367.661L293.424 366.967Z" fill="#FFFEFF"/>
<path d="M227.374 288.282L227.145 288.923C226.946 288.795 226.77 288.636 226.621 288.452C226.562 288.352 226.697 288.134 226.75 287.97L227.374 288.282Z" fill="white"/>
<path d="M914.257 550.494L913.633 550.812L914.257 550.494Z" fill="#B55518"/>
<path d="M289.517 367.655C289.517 367.902 289.517 368.155 289.517 368.403L288.775 368.326L289.517 367.655Z" fill="#FFFEFF"/>
<path d="M288.811 328.086C296.349 327.15 300.921 331.223 302.469 339.32C300.815 340.138 299.974 339.961 299.227 337.902C297.849 334.088 296.031 330.458 290.941 330.511C290.323 330.522 289.723 329.198 288.811 328.086Z" fill="#353233"/>
<path d="M821.966 339.297C823.472 331.235 828.186 327.074 835.501 328.116C834.665 329.14 834.077 330.499 833.47 330.511C828.445 330.564 826.568 334.083 825.232 337.955C824.467 340.003 823.572 340.115 821.966 339.297Z" fill="#353233"/>
<path d="M823.879 360.982C824.732 361.571 825.956 361.971 826.38 362.783C827.028 364.159 827.964 365.38 829.126 366.362C830.287 367.344 831.647 368.064 833.112 368.474C834.036 368.744 834.683 369.957 836.054 371.34C829.081 371.34 825.268 368.297 823.231 362.065L823.879 360.982Z" fill="#353233"/>
<path d="M172.752 352.761C171.576 359.128 170.893 365.637 169.098 371.822C166.621 380.349 160.912 386.145 151.603 386.398C142.67 386.645 135.614 382.555 131.336 374.529C126.257 365.001 125.48 354.632 125.945 344.081C126.275 336.743 127.458 329.599 131.147 323.096C133.316 319.152 136.66 315.982 140.715 314.028C144.769 312.074 149.332 311.432 153.768 312.192C158.476 312.98 161.725 316.052 164.361 319.777C169.869 327.551 171.081 336.584 171.734 345.746C171.899 348.018 171.734 350.313 171.734 352.596L172.752 352.761ZM131.289 345.646C138.827 355.256 157.599 356.286 166.997 347.612C158.447 334.677 138.374 337.184 131.289 345.646V345.646Z" fill="#262223"/>
<path d="M104.93 349.307C104.753 356.957 103.682 364.342 100.334 371.245C93.9609 384.397 77.1364 385.88 68.5153 374.07C64.3666 368.385 62.5776 361.794 61.5596 354.962C60.1414 345.387 60.2061 335.848 63.2308 326.562C67.1206 314.622 78.3075 308.696 89.0413 312.662C94.8259 314.799 98.6334 318.918 100.599 324.679C101.656 327.647 102.463 330.698 103.012 333.8C103.841 338.938 104.312 344.134 104.93 349.307ZM64.7079 343.828C71.4459 353.608 91.1244 353.703 100.54 346.217C93.2253 334.159 74.2882 334.448 64.7079 343.828Z" fill="#262223"/>
<path d="M999.915 350.33C1000.01 357.933 998.585 366.978 994.154 375.364C987.757 387.486 971.692 391.658 961.576 383.738C956.356 379.654 953.749 373.881 952.555 367.561C949.777 352.849 950.313 338.378 955.938 324.349C956.992 321.966 958.328 319.718 959.916 317.652C968.155 306.13 987.027 309.72 993.93 321.536C998.832 329.922 999.885 339.12 999.915 350.33ZM997.025 348.671C997.025 347.04 997.137 345.399 997.025 343.78C996.437 336.495 995.419 329.298 991.382 322.954C983.096 309.949 966.666 310.437 959.357 323.878C955.826 330.351 954.814 337.413 954.285 344.581C953.537 354.72 953.367 364.818 957.898 374.304C960.628 380.018 964.824 383.979 971.433 384.726C980.189 385.721 988.587 380.848 992.465 372.433C995.913 364.901 997.114 356.897 997.025 348.671V348.671Z" fill="#342A27"/>
<path d="M1065.16 343.969C1064.66 353.667 1063.71 362.801 1059.27 371.233C1055.03 379.248 1048.59 383.862 1039.3 383.285C1030.51 382.738 1025.04 377.559 1021.88 369.627C1018.03 359.952 1017.76 349.895 1019.07 339.768C1019.7 334.922 1020.71 330.135 1022.1 325.45C1024.61 317 1030.34 311.515 1039.12 310.291C1048.39 309.002 1055.4 313.163 1060.16 321.048C1064.48 328.228 1064.65 336.349 1065.16 343.969ZM1062.18 342.292C1061.95 340.103 1061.68 336.084 1061.07 332.118C1060.69 329.871 1060.05 327.675 1059.19 325.568C1056.16 317.847 1048.78 312.621 1041.53 312.863C1033.56 313.139 1027.09 318.583 1024.57 327.139C1021.94 336.084 1020.62 345.24 1021.52 354.515C1022.05 359.36 1023.12 364.128 1024.74 368.726C1027.21 375.965 1032.55 380.343 1040.31 380.496C1047.73 380.661 1053.08 376.718 1056.5 370.256C1060.81 362.1 1062.02 353.244 1062.18 342.292Z" fill="#372C28"/>
<path d="M131.288 345.646C138.35 337.184 158.446 334.677 166.997 347.611C157.581 356.285 138.826 355.256 131.288 345.646ZM148.878 350.095C150.031 350.125 151.151 349.699 151.993 348.909C152.834 348.119 153.33 347.029 153.373 345.875C153.515 342.862 151.843 340.826 149.172 340.75C148.575 340.703 147.974 340.778 147.407 340.97C146.84 341.162 146.317 341.467 145.87 341.866C145.424 342.265 145.063 342.75 144.809 343.293C144.555 343.835 144.414 344.424 144.393 345.022C144.282 347.617 146.435 350.054 148.878 350.095Z" fill="#FCFCFC"/>
<path d="M64.708 343.828C74.2883 334.459 93.2254 334.171 100.54 346.217C91.1246 353.691 71.446 353.597 64.708 343.828ZM82.4622 348.165C83.0609 348.199 83.6601 348.109 84.2226 347.902C84.7852 347.694 85.299 347.373 85.7323 346.959C86.1655 346.544 86.5089 346.045 86.741 345.493C86.9732 344.94 87.0892 344.345 87.0817 343.745C87.129 342.539 86.7044 341.362 85.898 340.463C85.0916 339.564 83.9669 339.015 82.7624 338.932C80.4085 338.832 78.2782 340.968 78.1782 343.481C78.125 344.075 78.1963 344.674 78.3875 345.239C78.5788 345.804 78.8858 346.323 79.289 346.762C79.6922 347.202 80.1826 347.553 80.729 347.792C81.2754 348.032 81.8657 348.155 82.4622 348.153V348.165Z" fill="#FAF9FA"/>
<path d="M997.026 348.671C997.114 356.909 995.914 364.901 992.436 372.433C988.558 380.848 980.16 385.721 971.404 384.726C964.801 383.979 960.605 380.019 957.869 374.305C953.337 364.818 953.508 354.72 954.256 344.581C954.785 337.407 955.815 330.34 959.328 323.878C966.631 310.438 983.067 309.949 991.353 322.955C995.39 329.298 996.402 336.489 996.996 343.781C997.138 345.399 997.026 347.041 997.026 348.671ZM957.316 347.782C966.143 355.321 985.727 356.086 993.142 345.611C985.562 336.831 965.372 335.048 957.316 347.782Z" fill="#FDFDFD"/>
<path d="M1062.18 342.292C1062.02 353.214 1060.81 362.1 1056.48 370.274C1053.05 376.747 1047.7 380.678 1040.29 380.513C1032.52 380.343 1027.19 375.965 1024.71 368.744C1023.1 364.146 1022.02 359.377 1021.5 354.532C1020.59 345.258 1021.92 336.101 1024.55 327.157C1027.07 318.6 1033.53 313.157 1041.51 312.88C1048.78 312.621 1056.16 317.865 1059.16 325.585C1060.03 327.692 1060.66 329.889 1061.05 332.135C1061.68 336.084 1061.95 340.103 1062.18 342.292ZM1023.72 346.294C1035.49 354.326 1053.38 352.938 1059.62 343.646C1049.71 334.471 1031.53 334.183 1023.72 346.294V346.294Z" fill="#FDFDFD"/>
<path d="M148.878 350.096C146.436 350.054 144.282 347.618 144.394 345.023C144.414 344.424 144.556 343.836 144.81 343.294C145.063 342.751 145.424 342.266 145.871 341.867C146.317 341.467 146.84 341.163 147.407 340.971C147.975 340.779 148.575 340.704 149.172 340.751C151.844 340.827 153.515 342.863 153.374 345.876C153.331 347.03 152.835 348.12 151.993 348.91C151.151 349.7 150.032 350.126 148.878 350.096V350.096Z" fill="#2F2C2D"/>
<path d="M82.4617 348.153C81.8619 348.155 81.2683 348.031 80.7193 347.789C80.1703 347.548 79.678 347.194 79.2743 346.75C78.8706 346.306 78.5644 345.783 78.3755 345.214C78.1866 344.644 78.1192 344.042 78.1776 343.445C78.2777 340.932 80.4374 338.796 82.7618 338.896C83.9664 338.979 85.0911 339.528 85.8975 340.427C86.7039 341.326 87.1285 342.503 87.0812 343.71C87.0919 344.311 86.9783 344.908 86.7476 345.464C86.5169 346.02 86.1741 346.522 85.7405 346.939C85.3069 347.356 84.7919 347.679 84.2277 347.888C83.6635 348.097 83.0623 348.187 82.4617 348.153V348.153Z" fill="#2F2C2D"/>
<path d="M957.314 347.782C965.4 335.048 985.561 336.831 993.141 345.611C985.696 356.086 966.106 355.321 957.314 347.782ZM980.053 345.122C980.037 344.525 979.902 343.937 979.656 343.392C979.409 342.848 979.056 342.358 978.617 341.952C978.179 341.547 977.663 341.233 977.101 341.029C976.539 340.826 975.942 340.737 975.345 340.768C972.679 340.809 970.955 342.827 971.038 345.811C971.062 346.408 971.206 346.994 971.461 347.534C971.717 348.074 972.078 348.558 972.524 348.956C972.969 349.354 973.49 349.658 974.056 349.851C974.622 350.043 975.22 350.12 975.816 350.077C978.058 349.918 980.118 347.517 980.024 345.122H980.053Z" fill="#2A2627"/>
<path d="M1023.72 346.293C1031.53 334.183 1049.69 334.471 1059.61 343.645C1053.38 352.937 1035.46 354.326 1023.72 346.293ZM1041.89 348.141C1044.54 348.088 1046.27 346.223 1046.19 343.516C1046.22 342.909 1046.13 342.303 1045.91 341.735C1045.7 341.167 1045.37 340.649 1044.95 340.214C1044.52 339.778 1044.01 339.435 1043.45 339.204C1042.89 338.973 1042.29 338.861 1041.68 338.873C1041.07 338.886 1040.48 339.023 1039.92 339.277C1039.37 339.53 1038.88 339.895 1038.47 340.347C1038.07 340.8 1037.76 341.331 1037.57 341.908C1037.38 342.484 1037.31 343.094 1037.36 343.698C1037.34 344.295 1037.44 344.889 1037.67 345.444C1037.89 345.998 1038.22 346.501 1038.65 346.919C1039.07 347.337 1039.58 347.662 1040.14 347.872C1040.7 348.083 1041.29 348.174 1041.89 348.141V348.141Z" fill="#2A2627"/>
<path d="M980.025 345.123C980.119 347.518 978.06 349.919 975.77 350.078C975.175 350.121 974.576 350.044 974.01 349.852C973.445 349.659 972.924 349.355 972.478 348.957C972.032 348.559 971.671 348.075 971.416 347.535C971.161 346.995 971.017 346.409 970.992 345.812C970.91 342.828 972.634 340.81 975.3 340.769C975.898 340.735 976.497 340.822 977.061 341.025C977.625 341.227 978.143 341.541 978.583 341.947C979.024 342.353 979.378 342.843 979.626 343.389C979.874 343.935 980.01 344.524 980.025 345.123Z" fill="#F8F7F8"/>
</svg>
