<svg width="36" height="37" viewBox="0 0 36 37" fill="none" xmlns="http://www.w3.org/2000/svg">
<g clip-path="url(#clip0_43_180)">
<path d="M18 35.4017C27.231 35.4017 34.7143 27.9185 34.7143 18.6874C34.7143 9.45638 27.231 1.97314 18 1.97314C8.76895 1.97314 1.28571 9.45638 1.28571 18.6874C1.28571 27.9185 8.76895 35.4017 18 35.4017Z" fill="white"/>
<path d="M18 1.97314C21.3058 1.97314 24.5373 2.95342 27.2859 4.79002C30.0345 6.62661 32.1771 9.23702 33.4419 12.2912C34.7071 15.3453 35.038 18.706 34.3931 21.9482C33.7482 25.1905 32.1562 28.1688 29.8188 30.5062C27.4814 32.8437 24.5031 34.4356 21.2608 35.0805C18.0186 35.7255 14.6579 35.3945 11.6037 34.1294C8.54958 32.8642 5.93917 30.722 4.10258 27.9734C2.26599 25.2248 1.28572 21.9932 1.28572 18.6874C1.28042 13.8994 3.12263 9.29385 6.42856 5.83029" stroke="#FF8025" stroke-width="2" stroke-linecap="round" stroke-linejoin="round"/>
<path d="M1.28571 7.11604L6.42856 5.83032L7.71428 10.9732" stroke="#FF8025" stroke-width="2" stroke-linecap="round" stroke-linejoin="round"/>
<path d="M18 9.6875V19.9732L24.6857 23.3161" stroke="#353533" stroke-width="2" stroke-linecap="round" stroke-linejoin="round"/>
</g>
<defs>
<clipPath id="clip0_43_180">
<rect width="36" height="36" fill="white" transform="translate(0 0.6875)"/>
</clipPath>
</defs>
</svg>
