<svg width="50" height="53" viewBox="0 0 50 53" fill="none" xmlns="http://www.w3.org/2000/svg">
<path d="M25 22.7864H42.8983V16.0611H45.339M45.339 16.0611V22.7864H49V13.6875H45.339V16.0611ZM34.3559 40.193V49.6875H41.2712V40.193M42.8983 26.7424H38.0169V36.237H42.8983" stroke="#353533" stroke-width="2"/>
<path d="M25 3H37L43 6.5V10.5M25 40H43V22.8179V14.5V10.5M43 10.5H25" stroke="#353533" stroke-width="2"/>
<path d="M24.8863 52.6875V40.4754V40.0814M24.8863 16.4451V10.536V3.14962V0.6875M24.8863 16.4451C23.2938 16.7602 17.5877 16.5764 14.9337 16.4451L11.5498 19.7936M24.8863 16.4451V26.2936M8.16588 23.142L11.5498 19.7936M8.16588 23.142H3.38863V19.7936H11.5498M8.16588 23.142L4.58294 26.2936M1 36.536L3.38863 40.0814H14.9337M1 36.536V32.9905M1 36.536H8.16588V32.9905H1M24.8863 40.0814H14.9337M24.8863 40.0814V26.2936M1 32.9905V29.4451L4.58294 26.2936M6.97156 40.4754V46.3845H14.9337V40.0814M4.58294 26.2936H24.8863" stroke="#FF8025" stroke-width="2"/>
</svg>
