<svg id="Слой_1" data-name="Слой 1" xmlns="http://www.w3.org/2000/svg" viewBox="0 0 1980 1230"><defs><style>.cls-1{fill:#444342;}.cls-2{fill:#fefefe;}.cls-3{fill:#1f1f20;}.cls-4{fill:#f2f1f1;}.cls-5{fill:#434240;}.cls-6{fill:#464543;}.cls-7{fill:#272726;}.cls-8{fill:#494746;}.cls-9{fill:#fdfdfd;}.cls-10{fill:#535150;}.cls-11{fill:#3d3c3b;}.cls-12{fill:#fdfcfc;}.cls-13{fill:#fefdfd;}.cls-14{fill:#1c1c1d;}.cls-15{fill:#f9f8f8;}.cls-16{fill:#ebeaea;}.cls-17{fill:#a8a5a6;}.cls-18{fill:#e0dfe0;}.cls-19{fill:#d4d2d4;}.cls-20{fill:#fbfbfb;}.cls-21{fill:#ed701c;}.cls-22{fill:#ee7828;}.cls-23{fill:#ee7525;}.cls-24{fill:#dbdadb;}.cls-25{fill:#fde0cb;}.cls-26{fill:#fef3ea;}.cls-27{font-size:48.75px;fill:#eb660c;font-family:Beachday;}</style></defs><path class="cls-1" d="M1066.83,1235.75c-.77-2.69-1.36-5.44-2.34-8q-11.76-31.42-23.65-62.81c-.2-.53-.51-1-.71-1.55-2.11-5.82-2.11-5.83,4.15-8.29,2.64-1,5.35-1.88,7.9-3.1a2.8,2.8,0,0,0,1-2.54,33.41,33.41,0,0,0-3.2-5q-12.29-17.37-24.59-34.72c-4.73-6.67-4.73-6.68-12.81-8.22A398.74,398.74,0,0,1,940,1080.86c-10.52-4.16-20.88-8.83-31-13.87A168.63,168.63,0,0,1,862,1032.22c-26.44-27.56-49.11-58-69.45-90.23-1.45-2.31-3.28-4.39-4.93-6.57-2.82,1.6-2.69,4.7-3.51,7.22-13.63,41.56-34.59,79.38-58.75,115.58-17,25.52-35.48,50-54.91,73.68A105.2,105.2,0,0,0,654.68,1158q-4.62,10.95-8.94,22c-1.39,3.58-1.24,3.64,2,4.9,7.88,3.1,7.91,3.11,5.34,11.13-3.71,11.6-7.5,23.18-11.19,34.78a36.7,36.7,0,0,0-.88,4.92h-5.11q3.89-12.13,7.75-24.26c1.91-5.93,3.85-11.85,5.75-17.78.7-2.2.33-3.82-2.34-4.34a42.09,42.09,0,0,1-4.86-1.53l-172-55.92q-27.85-9.06-55.71-18.1c-5.58-1.8-5.68-1.75-7.6,4.1-4.34,13.17-8.57,26.38-12.88,39.56q-12.76,39.13-25.57,78.27H365a39.41,39.41,0,0,1,1-5.78q19.07-59,38.23-118c.26-.81.49-1.63.81-2.41.73-1.78,1.81-2.67,3.94-2s4.34,1,6.52,1.56a71.52,71.52,0,0,0,1.82-7.27c2.28-15.61.46-30.56-7.51-44.43-4.94-8.6-9.86-17.22-15-25.7-10.77-17.78-19.78-36.31-24.77-56.63-5.46-22.22-7-44.77-5.9-67.57,1.52-31,7.21-61.36,14.46-91.47,9.42-39.12,19.54-78,32.4-116.2,2.81-8.32,5.71-16.62,9-24.76a18.88,18.88,0,0,0,1-11.57q-8-37.41-16-74.86-15.86-74.88-31.66-149.76Q358.47,368.6,343.5,298.31c-2.71-12.75-5.39-25.52-7.95-38.3-4.63-23.11,8.51-43.2,31.73-48.26,28.8-6.28,57.65-12.35,86.49-18.46q70.71-15,141.44-29.92L745,131.74c6.1-1.29,12.28-2.3,18.29-3.92,17.2-4.64,42.57,5.33,48.1,31.13q6,27.86,11.85,55.74,17.63,83.19,35.24,166.4,9,42.42,17.84,84.88a28.19,28.19,0,0,1,1,4.13c.2,3.66,2,5.21,5.56,6.28,6,1.79,9.81,6.38,12.27,12.17,4.22,9.95,3.81,19.86.27,29.86-.83,2.36-1.42,4.79-2.13,7.19,2.4.39,4.79.95,7.21,1.14,7.47.61,12.72,4.52,16.17,10.92,4.68,8.66,5,17.91,2.88,27.3-2.27,9.86-7.25,18.41-13.54,26.23-1.72,2.13-3,4.28-1.51,6.91a10.83,10.83,0,0,0,2.73,2.8c.39.32,1.09.27,1.65.37,11.13,2,16.09,9.72,18.3,19.83,2.15,9.81.3,19.17-3.7,28.2-1,2.32-2.35,4.53-3.39,6.86-.88,2,.14,3.08,2.48,2.55a169.53,169.53,0,0,1,28.54-4.47,119.14,119.14,0,0,1,35.47,3c2.38.59,4.28.63,6.39-.75,13-8.51,27.28-8.69,41.84-5.95,16.46,3.1,31.17,10.28,44.42,20.38,4,3.06,7.74,4.6,13.11,3.93,14.88-1.83,28.65,2.62,41.63,9.51,15.74,8.35,29,19.86,40.61,33.25,25.36,29.27,42.64,62.57,50.69,100.66,7.21,34.14,13.8,68.39,18.28,103,4.08,31.52,7.33,63.14,7.57,95a24.14,24.14,0,0,0,1.05,7.49c4.82,14.22,9.79,28.38,14.8,42.52,1.4,3.93,1.54,3.88,5.38,2.62.54-.18,1.09-.34,1.63-.5,3.17-1,6.64-4.23,9.38-2.31,2.36,1.67,3.15,5.77,4.33,8.9q28.82,76.32,57.52,152.67c1,2.65,1.8,5.37,2.7,8h-5.11a47.49,47.49,0,0,0-1.37-5.62q-28.83-76.62-57.74-153.22c-2.52-6.67-2.56-6.68-9.32-4.13q-110.74,41.76-221.47,83.56c-2.89,1.09-5.65,2.51-8.47,3.77.82,3,1.43,6,2.5,8.91q12.45,33.39,25,66.73Zm-233.16-600q18.21,5,36.44,9.9l2.12-.2-.71-1.39c-.44-2.79-.75-5.61-1.33-8.37q-9-42.86-18.12-85.68Q837.28,480.17,822.5,410.3q-15.86-74.85-31.72-149.71c-5-23.57-10-47.14-15.09-70.68-2.11-9.72-8.8-15.17-18.58-15.35a35.21,35.21,0,0,0-7.59.75c-13,2.66-26.08,5.44-39.11,8.18-10.54,2.22-21,4.65-31.62,6.61-5.19,1-8.75,3-10.22,8.41-1.1,4.08-3,7.94-4.55,11.89-3.94,10-11.42,15.95-21.62,18.71-2.19.59-4.41,1.07-6.63,1.54q-22.46,4.74-44.93,9.44c-24.13,5.08-48.23,10.26-72.39,15.2-10.44,2.14-19.65-.71-27.37-8.12-3.48-3.35-7.16-6.52-10.28-10.18-2.82-3.3-5.91-3.67-9.81-2.8-10.79,2.41-21.62,4.62-32.44,6.9-13.58,2.87-27.2,5.61-40.75,8.63-14,3.12-19.84,12.43-16.91,26.37q5.07,24.12,10.19,48.24,14.1,66.1,28.21,132.21,16.4,77.34,32.65,154.73c1,4.55,1,4.55,5.17,2.64,8.37-3.81,14.67-2.21,20.09,5.12a27.86,27.86,0,0,1,5.17,14.24,233.82,233.82,0,0,1,1.18,26.32c-.49,20.73-3.09,41.3-6.24,61.77a34.24,34.24,0,0,0,.53,12.62c5,23.29,10.27,46.5,14.74,69.88,1.94,10.13,10.19,17.22,21.29,16.39a52.83,52.83,0,0,0,6.72-1c9.43-2,18.85-4,28.27-6q67-14.21,133.9-28.39,69.87-14.79,139.75-29.53l48.24-10.22c5.11-1.08,9.77-3,13.16-7.16a3.11,3.11,0,0,0-.07-2.86,8.84,8.84,0,0,0-2.66-2.06q-26.35-18-52.73-35.93c-1.55-1-3.53-1.46-5.31-2.17l.15-6.13c6.13,4,12.33,8,18.37,12.15,24.29,16.75,48.93,33,72.67,50.5,28.64,21.08,52,47.33,70.3,77.85,10.15,16.9,17.62,34.91,20.23,54.62,2.3,17.39-.31,33.91-9.3,49.2-5.3,9-12.93,15.06-23,17.66a50.38,50.38,0,0,1-17.72,1.43,104.12,104.12,0,0,1-34.22-9.6c-35-16.54-64.49-39.94-86.91-71.79a386.47,386.47,0,0,0-31.72-40c-6.76-7.31-13.72-14.43-22.14-19.82a54,54,0,0,0-11.38-5.56c-4.33-1.49-7.84,0-10.13,4.06a30.33,30.33,0,0,0-3.15,8.7c-2.13,10.45-1.31,20.9.79,31.27a183.13,183.13,0,0,0,13.89,41c24,51.65,56.44,97.58,95.44,139,15.39,16.33,33.74,28.42,54,38,31,14.59,63.49,24.16,97,30.37,4.82.89,8.16,2.83,10.94,6.9,8.64,12.64,17.58,25.09,26.51,37.53,6.46,9,4,7.75,13.35,4.23q81.15-30.37,162.17-61.11,14.71-5.55,29.38-11.2c5.72-2.19,5.73-2.24,3.61-8.29-4.49-12.83-9.08-25.63-13.46-38.49a30.8,30.8,0,0,1-1.78-9.07,849.79,849.79,0,0,0-10.47-115.2c-4.2-26.87-9.75-53.53-14.85-80.26a202.51,202.51,0,0,0-19.91-57.61c-12.63-23.78-28.25-45.19-48.92-62.67-9.58-8.11-20-14.8-31.9-19.19-8.6-3.19-17.41-5.06-26.63-4.51a11.1,11.1,0,0,0-2.8.93,30.65,30.65,0,0,0,1.82,2.63,18.18,18.18,0,0,0,1.88,1.73c22.11,20.27,40.7,43.46,56.75,68.72a229.75,229.75,0,0,1,18.32,34.51,40.47,40.47,0,0,1,1.78,5.63,1.58,1.58,0,0,1-.79,1.31c-.74.19-1.87.33-2.32-.08a8.8,8.8,0,0,1-1.71-2.82c-2.62-5.65-5-11.45-7.85-17-15.21-28.81-34.63-54.55-57.39-77.8a193.68,193.68,0,0,0-32.58-27.26,101.49,101.49,0,0,0-41-15.54c-10-1.47-19.8-.52-29,4-.76.37-1.47.84-2.2,1.26.78.76,1.43,1.85,2.36,2.21,14,5.36,26,13.75,37.39,23.25,17.72,14.84,33,32,46.7,50.54,11,14.85,20.79,30.43,28.48,47.27a92.71,92.71,0,0,1,3.75,9.47c.22.69-.76,1.77-1.18,2.67a10.75,10.75,0,0,1-2.71-1.43c-.56-.53-.65-1.53-1-2.32a216.43,216.43,0,0,0-22.33-41c-17.34-25.47-37.16-48.72-61.71-67.64-9.25-7.12-19.12-13.15-30.15-17.2-25-9.16-50-8.33-75.25-1.31a12.43,12.43,0,0,0-2.82,1.68,17.74,17.74,0,0,0,2.76,2.53c2.43,1.44,5,2.63,7.49,4,54.79,30.37,100.21,71.11,135.7,122.8a67.26,67.26,0,0,1,4.42,7.26c.33.65-.37,1.83-.6,2.77a10.79,10.79,0,0,1-3-.87c-.65-.41-.93-1.39-1.39-2.1a349.41,349.41,0,0,0-43-53.76c-50-51.77-109.48-87.6-179.25-106-3-.79-5.93-1.77-8.9-2.67C833.24,638.11,833.45,637,833.67,635.78ZM480.06,657.24c-.89-9-1.45-18.06-2.84-27a22.85,22.85,0,0,0-4.62-9.82c-4.05-5.25-8.75-6-14.13-2.12a50.26,50.26,0,0,0-9.67,9.44c-6.4,8-11,17.17-15.28,26.43-9,19.28-16,39.31-22.51,59.53-12.58,39.13-22.73,78.92-31.83,119-7.5,33-12.17,66.37-10.77,100.37a205.82,205.82,0,0,0,6.29,42.82c4.91,19.14,13.56,36.58,23.74,53.36,4.7,7.75,9.44,15.5,13.82,23.43a87.09,87.09,0,0,1,9.63,26.2c1.43,7.7.43,15.25-.38,22.87-1,9.57-1,9.6,7.61,12.39l203.58,66c1.34.44,2.73.77,4,1.27,2.28.87,3.6.34,4.51-2.11,1.86-5,4.09-10,6-15a138.59,138.59,0,0,1,22.61-38.68,849.78,849.78,0,0,0,62-85.3c21.3-33.66,39-69,50.92-107.13,1-3.23,1.25-5.75-.49-8.78q-5.89-10.32-11.15-21c-1.82-3.72-3.1-3.43-6-2.82q-32.83,6.95-65.67,13.95l-133,28.23c-9.43,2-18.87,3.91-28.27,6-4.5,1-4.47,1.11-4.51,5.41a53.25,53.25,0,0,1-.15,5.93,2.21,2.21,0,0,1-1.74,1.28A2.36,2.36,0,0,1,530,960a25,25,0,0,1-.58-4.18c-.82-6.76-1.32-13.57-2.52-20.25-8.11-45-31-80.37-69.17-105.74-4.9-3.26-5-3.26-3.75-8.88,7.65-33.44,14.15-67.1,19.21-101C476.29,699.17,479.05,678.36,480.06,657.24ZM338.76,252.31c.32,2.21.65,5.9,1.41,9.49,3.62,17.19,7.42,34.34,11.05,51.53q16.57,78.6,33.08,157.22,16,75.68,32.07,151.34,3.7,17.46,7.48,34.91a17.09,17.09,0,0,0,1.32,3.1,12.34,12.34,0,0,0,2.1-2.51C433,645,438.9,632.8,447.59,622.13c.92-1.12,1.1-3.11,1.07-4.68a31.18,31.18,0,0,0-1-5.85q-14-66.12-28.05-132.22Q406.41,417,393.29,354.62C387.61,327.73,382,300.83,376.16,274c-2-9.4,1.15-16.7,8.18-22.66a25.29,25.29,0,0,1,11.39-5.43C404.89,244,414,242,423.16,240c16.63-3.55,33.26-7,49.86-10.7,3.75-.83,6.43.1,9,2.91,3.85,4.16,8.11,7.94,12.14,11.94a24.52,24.52,0,0,0,19.28,7.29,55.36,55.36,0,0,0,8.41-1.13q34.95-7.31,69.87-14.71,23.7-5,47.39-10.07c10.49-2.24,17.91-8.08,21.62-18.35,1.54-4.26,3.62-8.35,4.87-12.69,1.45-5,4.6-7.07,9.59-8,13.08-2.48,26.06-5.48,39.09-8.2,12.49-2.61,24.93-5.49,37.5-7.57,14.94-2.48,25.46,5.06,28.59,19.81,5.28,24.95,10.44,49.92,15.72,74.87q14,66.12,28,132.22l26.4,124.74q12.84,60.71,25.59,121.44c.73,3.52,2.44,5.17,5.75,6.43,8.47,3.22,16.73,7,25.07,10.49,1,.44,2.08.92,3.16,1.25,1.89.58,3.27-.69,2.86-2.68-1.73-8.32-3.51-16.63-5.27-24.95Q891.85,559.51,876,484.66q-14.79-69.86-29.52-139.73-16.8-79.41-33.64-158.82c-2.06-9.7-3.85-19.49-6.52-29-4.77-17.1-20.7-27.53-38.27-25.6-2.81.31-5.59.92-8.36,1.51q-45.74,9.66-91.47,19.35Q597.92,167.19,527.64,182q-67.36,14.22-134.72,28.51c-9.69,2.06-19.49,3.83-29,6.59C348.83,221.5,339,235.22,338.76,252.31Zm609,574.9a55.44,55.44,0,0,0-.73-6.93c-2.63-12.76-5.45-25.49-8.09-38.25a13.51,13.51,0,0,0-3.81-7.38c-13.22-13-28.17-23.75-43.35-34.25-1.58-1.09-3-1.19-4.42.44-5,5.59-11.66,7.75-18.71,9.24Q808.39,762.82,748.1,775.6q-104.36,22.11-208.72,44.18c-7.76,1.64-15.51,3.42-23.35,4.64-13.33,2.07-23.93-5.32-27.18-18.49-.41-1.65-.81-3.3-1.16-5q-5.94-27.86-11.87-55.71a22.24,22.24,0,0,0-1-2.79c-.42,1-.91,2-1.25,3.11a29,29,0,0,0-.79,3.31c-3.5,18.08-7,36.17-10.49,54.24-1,5-2.2,10-3.23,15-.87,4.25-.12,7.91,4.12,10.14a18.69,18.69,0,0,1,2.13,1.41q48.87,35.24,63.46,93.7c1.49,6,2.38,12.23,3.46,18.36.42,2.42,1.55,3.5,4,2.94,1.11-.25,2.26-.28,3.37-.51q17-3.61,34.08-7.27,66.1-14,132.2-28.08c19.13-4,38.26-8,57.39-12.09,3.64-.76,3.78-1.06,2.48-4.5q-4.78-12.72-9.62-25.42c-.93-2.45-1.71-2.66-3.37-.94s-3,3.4-4.68,4.94c-11.55,10.79-25.32,14.06-40.21,9.83-17.84-5.05-28-17.63-30.62-35.93a41.29,41.29,0,0,1,20.59-40.92c15.83-8.88,31.46-8,46.42,2.39a41.68,41.68,0,0,1,5.17,4.41c1.81,1.73,2.68.92,3.79-.85,5.78-9.22,11.48-11,21.4-6.63a42.91,42.91,0,0,1,7.39,4.15,121,121,0,0,1,10,7.9c14.14,12.44,25.87,27,37.09,42.06,3.73,5,7.3,10.12,10.92,15.21,5,7,5,7.07,13,5.37,14.69-3.12,29.37-6.31,44-9.48,8.31-1.79,16.73-3.18,24.9-5.49C937.63,858.39,947.69,844.75,947.78,827.21ZM958.26,948c18.12.32,29.34-6.7,36.82-23.24a73.05,73.05,0,0,0,3.69-10.37c4.18-14.91,3-29.75-1.14-44.43-9.25-32.77-28.69-59.36-51.32-84a5.94,5.94,0,0,0-1.43-.85,8,8,0,0,0-.48,2.19,25.35,25.35,0,0,0,.67,3.32c2.13,10.26,4.53,20.46,6.32,30.77,3.79,21.93-9.51,41.6-31.18,46.38-13.54,3-27.13,5.72-40.69,8.61q-14.12,3-28.2,6.12c-1.78.39-2.21,1.54-.85,2.94,4.56,4.66,8.95,9.5,13.75,13.89,19.37,17.71,40.6,32.61,65.21,42.24C938.7,945.25,948.19,948,958.26,948ZM749.19,830.18l.84-.09a41.54,41.54,0,0,1,.06-6.79c.71-4.12-1-7-3.75-9.76a37.81,37.81,0,0,0-64.83,28.61c.83,16.73,12.17,30.39,28.82,34.73,15.17,4,32.23-2.79,40.75-16.1a9.89,9.89,0,0,0,1.37-7.95C751,845.36,750.23,837.74,749.19,830.18ZM916.87,552.84c-.79-2.8-1.62-7.61-3.5-12-3.38-7.8-10.23-11.19-18.72-10-3.15.43-4,1.35-3.51,4.44.53,3.35,1.27,6.67,2,10q4.29,20.37,8.63,40.73c.09.46.44,1.19.71,1.22a2,2,0,0,0,1.51-.61C911.26,577.26,916.07,566.88,916.87,552.84Zm6.89,76.26a28.51,28.51,0,0,0-3.84-15.49c-2.43-4.43-6.17-7.36-11.32-8-.64-.08-1.94,1.07-2,1.78a12.6,12.6,0,0,0,.47,4.19q3.59,17,7.23,34c1.46,6.71,1.85,6.94,2.3,6.3a36.29,36.29,0,0,0,3.79-6.4C922.61,640.29,924.13,634.85,923.76,629.1ZM894.19,501.82c-.86-3.25-1.73-8-3.41-12.44a14.59,14.59,0,0,0-8.72-8.78c-.52-.19-1.46-.53-1.56-.38a3.31,3.31,0,0,0-.74,2.1q1.59,8.32,3.4,16.61c1.56,7.18,3.18,14.35,4.8,21.51a4.54,4.54,0,0,0,.78,1.23c.4-.38.94-.68,1.19-1.14C892.78,515.16,893.53,509.28,894.19,501.82Z"/><path class="cls-2" d="M1071.94,1235.75q-12.53-33.36-25-66.73c-1.07-2.88-1.68-5.94-2.5-8.91,2.82-1.26,5.58-2.68,8.47-3.77q110.71-41.8,221.47-83.56c6.76-2.55,6.8-2.54,9.32,4.13q28.89,76.6,57.74,153.22a47.49,47.49,0,0,1,1.37,5.62Z"/><path class="cls-2" d="M368.44,1235.75q12.8-39.13,25.57-78.27c4.31-13.18,8.54-26.39,12.88-39.56,1.92-5.85,2-5.9,7.6-4.1q27.87,9,55.71,18.1l172,55.92a42.09,42.09,0,0,0,4.86,1.53c2.67.52,3,2.14,2.34,4.34-1.9,5.93-3.84,11.85-5.75,17.78q-3.89,12.12-7.75,24.26Z"/><path class="cls-3" d="M1857,956.79,1830,963.58c-1.37.35-2.7.91-4.09,1.16-5,.87-4.91,1-7.25-3.46q-23.49-44.78-47-89.53a13.06,13.06,0,0,1-1.43-3.06c-.24-1.19.18-2.23,1.82-1.75,11.14,3.24,22.3,6.45,33.43,9.73q80.23,23.67,160.47,47.38a19.66,19.66,0,0,1,2.45.68c1.41.63,2.76,1.4,4.13,2.11a30.14,30.14,0,0,1-4.62,2c-17.85,4.5-35.69,9.06-53.6,13.27-5.56,1.31-5.31,2.38-5.66,6.75-.65,8.2-1.33,16.4-2.14,24.58a73.48,73.48,0,0,1-1.56,9.21c-.73,3.21-1.89,3.57-4.82,1.66-2.13-1.39-4.17-2.93-6.25-4.42l-29.71-21.33C1862.36,957.23,1860.58,955.72,1857,956.79Zm-16.11-47.11-2.48-.36,1.44,1.41,14,8.07q21.42,12.21,42.81,24.44c2.28,1.31,4.42,2.57,7.1,1.3.69-.33,1.76-.62,1.9-1.14s-.45-1.49-1-2a9.34,9.34,0,0,0-2.24-1.18L1853.77,916Zm-4.38-1.91c-.19-.21-.37-.57-.57-.59s-.41.33-.62.51l.9.59Zm-3.84-1.16.58-.47-.56-.49-.58.71Z"/><path class="cls-4" d="M66.94,961.51c-4,.46-7.82-.59-11.62-1.69-10.78-3.1-21.58-6.17-32.36-9.28a4,4,0,0,1-1.48-.83c-.58-.51-1.41-1.13-1.45-1.75s.79-1.38,1.42-1.62c3.15-1.21,6.35-2.28,9.55-3.37,23.71-8,47.44-16,71.13-24.13,14.65-5,29.25-10.12,43.85-15.24,5.57-2,11.07-4.1,16.65-6.05,2-.71,3.43.62,2.89,2.51a18.2,18.2,0,0,1-1,2.34c-6.35,13.84-12.78,27.64-19,41.53-5.32,11.82-10.47,23.71-15.61,35.61-.67,1.56-1.37,2.2-3.11,1.68-5.37-1.62-10.81-3.06-16.17-4.72-10.63-3.31-11.62-2.94-19.34,4-6.71,6-13.81,11.56-20.78,17.26-1.73,1.42-3.33.73-3.49-1.45-.71-9.54-2.75-19-1.75-28.63.16-1.53,1.08-3,1.65-4.47,2,1,3.63,1.9,6.11.07,6.35-4.67,13.11-8.79,19.68-13.17a38.72,38.72,0,0,0,4-3.11,1.51,1.51,0,0,0,0-1.46c-.26-.35-1.11-.69-1.42-.52-3.72,2-7.41,4-11,6.18C78.47,954.57,72.71,958.06,66.94,961.51Zm32.7-18.33a8.29,8.29,0,0,0,1.82.76c.16,0,.75-1,.64-1.16a7.72,7.72,0,0,0-1.59-1.13C100.27,942.07,100,942.49,99.64,943.18Z"/><path class="cls-5" d="M1586.59,493c-.67-7-1.44-14.06-2-21.1-.53-6.78-.77-13.59-1.26-20.37-.74-10.44,1-7.78-8.16-11.18-18.55-6.92-37.21-13.57-55.82-20.32-1.86-.68-3.77-1.25-5.58-2-.61-.27-1.47-1.18-1.37-1.58a3.24,3.24,0,0,1,1.61-1.64c1.23-.68,2.57-1.18,3.87-1.74l259.8-111.28c1.56-.67,3.07-1.46,4.68-2a6.32,6.32,0,0,1,2.3.16,7,7,0,0,1-.43,1.54c-1.22,2.23-2.46,4.46-3.76,6.65Q1740.73,374.91,1701,441.7c-6.67,11.19-13.35,22.36-19.91,33.62-1.35,2.33-2.83,3.33-5.46,2.3q-17.34-6.81-34.7-13.56c0-1.13,0-2.27,0-3.41,2.68.8,5.42,1.46,8,2.42,8,2.91,15.89,6,23.86,8.9,4.13,1.5,4.2,1.39,6.71-2.57.3-.48.56-1,.85-1.47l91.29-153.37a35.07,35.07,0,0,0,2-3.74,1.58,1.58,0,0,0-.27-1.44,1.65,1.65,0,0,0-1.44-.31c-2.39.89-4.75,1.85-7.08,2.85q-89,38.1-178,76.22-30.83,13.2-61.62,26.51a7.21,7.21,0,0,0-1.62,1.43c.59.55,1.08,1.38,1.78,1.63,17.28,6.33,34.65,12.39,51.82,19,5.35,2.06,9.2,1.6,13.9-1.86,31.27-23,62.78-45.75,94.21-68.56a70.17,70.17,0,0,1,6.28-4.34,3.11,3.11,0,0,1,2.92.24c.46.41.33,2.12-.16,2.81a16.79,16.79,0,0,1-3.18,2.79q-42.93,35.53-85.88,71c-1.51,1.24-3.22,2.22-4.84,3.33l-4.39-.43,9-8.36a24,24,0,0,0,3.26-2.43c.46-.47.41-1.44.59-2.18-.71-.11-1.64-.56-2.1-.27a37,37,0,0,0-3.8,3.07l-13.18,9.16a5.15,5.15,0,0,0-2.46,5c.16,1.69.2,3.39.29,5.08q1,21.13,2.06,42.28Zm34.65-73,1.64-1.14,1.11-1.73-2.31.49-1.33,1.22-2.47,1.78-2.9,2.24-4.32,3c-.22.69-.45,1.38-.67,2.08l2.47-.73,3.79-2.95,2.66-2.54Zm6.18-5.1L1629,413c.54-.6,1.09-1.19,1.63-1.78l2.28-.9c-.18-.11-.46-.36-.53-.31-.56.41-1.09.87-1.63,1.32l-1.78,1.64-2.11,1.29-1,1.54Z"/><path class="cls-6" d="M1185.76,162.37c0-5.1-.19-10.21,0-15.3.52-12,6.62-20.29,17.78-24.5,5-1.89,10.33-2.91,15.54-4.19,3.58-.88,7.26-1.33,10.81-2.3,25.88-7,34.45-35.43,27.87-53.22a34.13,34.13,0,0,1-1.78-4.75,3.33,3.33,0,0,1,.78-2.87c1.51-1,2.55.21,3.27,1.53a16.72,16.72,0,0,1,.8,1.5c10,23.08-2.53,54-27.9,61.36-5.7,1.66-11.63,2.48-17.39,4a85.59,85.59,0,0,0-12.89,4.12c-6.35,2.76-10.14,7.84-11.87,14.61-1.43,5.62-1.12,11.24-.71,16.9.35,4.81,1,9.61,1,14.42.13,15.46-7,26.48-20.89,33.13-9.62,4.6-19.94,6.12-30.45,7-9.31.78-18.63,1.63-27.84,3.1-18.33,2.91-25.76,15.95-26.35,32.35-.07,1.7,0,3.4,0,5.1s-.65,3.16-2.21,2.92c-.84-.13-1.95-2-2-3.15a44.89,44.89,0,0,1,4.79-24.7,29.12,29.12,0,0,1,16.17-14.27c8.07-3,16.42-4.15,24.92-4.94,9.86-.9,19.78-1.65,29.49-3.46,5.43-1,10.78-3.51,15.64-6.27,8.66-4.93,13.71-12.57,14-22.81.16-5.08,0-10.18,0-15.27Z"/><path class="cls-7" d="M1640.89,460.65c0,1.14,0,2.28,0,3.41-3.46-1.05-5.7.65-8,3.06-11.7,12.22-23.55,24.3-35.34,36.44-1.38,1.41-2.7,2.89-4.16,4.21-2.11,1.92-4.56,1.35-5.06-1.4-.81-4.41-1.17-8.9-1.72-13.36l3.12.06c.2.83.41,1.65.61,2.47.33-.54.9-1.06,1-1.63.51-5.92,1.31-11.85,1.32-17.77,0-8.78-.36-17.56-1-26.32-.26-3.94.81-6.59,4.45-8.12l4.39.43c0,1-.26,2.59.18,2.83a58.33,58.33,0,0,0,6.28,2.52Z"/><path class="cls-8" d="M1620.86,1061.74c.4-18.12-6-33.34-20-44.86-10.78-8.84-23.09-10.67-35.86-5-6.42,2.86-12.36,6.85-18.31,10.67-5.48,3.52-10.52,7.71-16,11.21-17,10.82-30.18,10.56-46.31-1.56-6.77-5.08-12.6-11.4-18.89-17.12-4.61-4.19-9-8.74-14-12.38-10.79-7.82-22.8-11.2-36.12-7.81-1.54.4-3,.45-3.52-1.2-.79-2.38,1.29-2.76,2.81-3.17a37.35,37.35,0,0,1,15.17-1.08,52.61,52.61,0,0,1,24.92,10.12,127.92,127.92,0,0,1,10.29,8.9c4.12,3.89,8,8,12.07,12a70.74,70.74,0,0,0,17.67,13.15c9,4.48,18,4.76,27,.16a114.53,114.53,0,0,0,11.56-7.11c5.41-3.64,10.54-7.7,16-11.17a109.48,109.48,0,0,1,14.92-8c12.4-5.36,24.61-4.12,35.64,3.42,18.08,12.35,25.9,30.12,25.46,51.76a12.45,12.45,0,0,1-.68,4.17c-.45,1.17-1.49,3-2.2,3-2.27-.1-2.15-2.12-2-3.86C1620.57,1064.56,1620.72,1063.15,1620.86,1061.74Z"/><path class="cls-6" d="M316.35,749.58c-.69,15.11-3.89,27.88-11.06,39.49a37.61,37.61,0,0,1-13,13.23c-10.54,6.15-21.08,6.07-31.1-1-3.88-2.77-7.23-6.32-10.68-9.67-3.86-3.75-7.42-7.8-11.36-11.46a30.92,30.92,0,0,0-7-4.77c-7.58-3.84-13.81-1.85-17.83,5.57a25.73,25.73,0,0,0-3,16.41,40.08,40.08,0,0,1,.49,5c0,.31-.79.77-1.29.92s-1.28.22-1.55-.06a4.9,4.9,0,0,1-1.27-2.13c-2.76-10.41-.3-19.69,6.78-27.57a13.31,13.31,0,0,1,14.79-3.84,39.61,39.61,0,0,1,11.12,6c4,3.09,7.36,7,11,10.58s7,7.44,11,10.57c9.91,7.79,21.46,7.41,31.11-.68a43.72,43.72,0,0,0,11.82-16.39,81.37,81.37,0,0,0,6.79-32.19c0-1.51-.74-3.57,1.73-4.13,1.59-.37,2.38,1.07,2.43,4.41C316.36,748.91,316.35,750,316.35,749.58Z"/><path class="cls-1" d="M207.56,264.91c.35.59.95,1.17,1,1.83a6.6,6.6,0,0,1-.36,2.5q-6.86,24.06-13.76,48.11c-.68,2.38-1.92,2.74-3.45,1q-17-19.53-34-39.12c-1.5-1.73-1.07-2.88,1.36-3.44,11-2.53,22.08-5,33.12-7.44l13.25-2.93C205.58,265.22,206.42,265.1,207.56,264.91ZM201,271.08c-11.56,2.44-23.12,4.86-34.67,7.35-2.45.53-2.91,1.58-1.43,3.28q11.87,13.77,23.87,27.43c2,2.26,3.07,2,3.89-.93,3.36-11.91,6.63-23.84,9.93-35.76-.08-.7-.17-1.39-.26-2.09Z"/><path class="cls-1" d="M268,1087.72c0,12.65-10.83,23.83-22.88,23.65-12.24-.18-23.09-10.76-23.13-22.54,0-12.78,10.59-23.69,22.89-23.47C257.4,1065.58,268,1075.83,268,1087.72Zm-23.17-18.13c-9.49-.27-18,8.28-18.42,18.43-.38,9.93,8.46,18.86,18.78,19,9.5.1,18-8.38,18.57-18.47C264.28,1078.89,255.26,1069.88,244.82,1069.59Z"/><path class="cls-6" d="M1940.85,404.2c12.62.13,23.19,10.21,23.24,22.14.06,12.63-10.72,24-22.81,23.65-14.65-.39-23.51-12.69-23.15-23.21C1918.5,416,1927.76,403.48,1940.85,404.2Zm.1,41.33c10.75.83,18.71-10.42,18.79-18.89.07-8.72-7.57-17.71-18.6-18.31-10.15-.54-18.4,8.45-18.76,19C1922.06,436.85,1930.94,445.36,1941,445.53Z"/><path class="cls-9" d="M66.94,961.51c5.77-3.45,11.53-6.94,17.33-10.34,3.64-2.14,7.33-4.18,11-6.18.31-.17,1.16.17,1.42.52a1.51,1.51,0,0,1,0,1.46,38.72,38.72,0,0,1-4,3.11c-6.57,4.38-13.33,8.5-19.68,13.17-2.48,1.83-4.09,1-6.11-.07Z"/><path class="cls-8" d="M1786.29,522.67a3.7,3.7,0,0,1-3.75,3.7c-1.85,0-3.28-.84-3.56-2.85-.33-2.39,1.55-4.81,3.61-4.78A4.13,4.13,0,0,1,1786.29,522.67Z"/><path class="cls-10" d="M875.46,392.59c.64.8,2.1,1.84,2.4,3.14a4.05,4.05,0,0,1-3.61,4.69,4.19,4.19,0,0,1-3.85-3.69C870.19,394.71,872.27,392.72,875.46,392.59Z"/><path class="cls-1" d="M1512.46,817.45c0-2,1.75-4,3.53-4a4.2,4.2,0,0,1,3.81,4.59,3,3,0,0,1-3.37,2.9A3.82,3.82,0,0,1,1512.46,817.45Z"/><path class="cls-8" d="M1647.09,116.24c-.82.64-1.88,2-3.2,2.36a3.39,3.39,0,0,1-4.06-3.84c.26-1.69,1.12-3.08,3.08-3.32C1645.05,111.19,1647.1,113.18,1647.09,116.24Z"/><path class="cls-10" d="M1615.87,250.52c-.56-.88-2-2.13-2-3.42-.08-2.19,2.79-4.42,4.57-3.63a5.83,5.83,0,0,1,2.94,3.5C1621.77,248.79,1618.78,250.81,1615.87,250.52Z"/><path class="cls-10" d="M290.12,467a3.82,3.82,0,0,1,3.41-3.93,4.11,4.11,0,0,1,4.37,3c.45,2-1.61,4.34-3.86,4.45A4,4,0,0,1,290.12,467Z"/><path class="cls-10" d="M1344,770c-.44,2.84-2.64,4.28-4.62,3.72-1.72-.48-3.12-1.48-3.07-3.49,0-2.33,2.82-4.77,4.46-3.76C1342.22,767.41,1343.19,769.13,1344,770Z"/><path class="cls-8" d="M1300.81,748.9a4,4,0,0,1-3.39-4.7,3.52,3.52,0,0,1,3.64-2.75,3.91,3.91,0,0,1,3.85,4.31A3.63,3.63,0,0,1,1300.81,748.9Z"/><path class="cls-5" d="M1263.86,721.62c-1.95-.07-3.28-1.79-3.17-4.08a3.34,3.34,0,0,1,3.82-3.36,3.4,3.4,0,0,1,3.27,3.93A3.91,3.91,0,0,1,1263.86,721.62Z"/><path class="cls-8" d="M1757.85,701.9c-.76.7-1.71,2.24-3,2.63a3.65,3.65,0,0,1-4.67-3.5,3.74,3.74,0,0,1,3.76-3.69C1755.8,697.38,1757.61,699.17,1757.85,701.9Z"/><path class="cls-8" d="M993.88,471.82c-.78.56-1.89,1.94-3.2,2.16a3.45,3.45,0,0,1-4.07-3.92,3.78,3.78,0,0,1,4.11-3.21C992.7,467.11,994.05,468.86,993.88,471.82Z"/><path class="cls-5" d="M1638.88,284.69c.14-2,1.85-3.32,4.11-3.17a3.38,3.38,0,0,1,3.31,3.91,3,3,0,0,1-3.09,3.2A3.87,3.87,0,0,1,1638.88,284.69Z"/><path class="cls-11" d="M1786.26,572.05c-.67-.66-2.25-1.53-2.7-2.8a3.49,3.49,0,0,1,2.84-4.41,3.87,3.87,0,0,1,4.2,3.26C1790.94,570.17,1789.48,571.81,1786.26,572.05Z"/><path class="cls-6" d="M275.34,600.35c.13,3.28-1.1,5-3,5-2.37,0-4.45-1.92-4.28-4a3.53,3.53,0,0,1,4.13-3.14C273.51,598.46,274.59,599.8,275.34,600.35Z"/><path class="cls-8" d="M1757.84,437.89a4.06,4.06,0,0,1-3.95-3.57,3.63,3.63,0,0,1,7.21-.58A3.93,3.93,0,0,1,1757.84,437.89Z"/><path class="cls-10" d="M1130.54,596.53c-2.38,1.43-3.85,3-5.36,3-2,0-3.32-1.75-3.51-3.89-.14-1.68,2.4-3.83,4-3.11S1128.39,594.73,1130.54,596.53Z"/><path class="cls-8" d="M1788,616.14c-.92.59-2.08,1.88-3.4,2.07a3.79,3.79,0,0,1-3.93-3.48c.11-2.12,2.66-4.37,4.52-3.86C1787.42,611.49,1787.94,613.31,1788,616.14Z"/><path class="cls-8" d="M280.82,643a4,4,0,0,1,4,3.44,3.79,3.79,0,0,1-3.54,3.87,4.28,4.28,0,0,1-4.12-3.46C277,645.07,278.87,643.09,280.82,643Z"/><path class="cls-10" d="M347.77,388.87A4.29,4.29,0,0,1,343.4,393a3.54,3.54,0,0,1-3.3-4c.38-2.06,2.48-4,4.07-3.24S346.86,388.06,347.77,388.87Z"/><path class="cls-10" d="M328,727.39c-.08,2.05-1.88,3.93-3.64,3.83a4.87,4.87,0,0,1-3.79-3.91c-.1-1.59,2-3.63,3.86-3.71A3.66,3.66,0,0,1,328,727.39Z"/><path class="cls-10" d="M1385.22,790.94c0,1.65-2.38,3.31-4.31,3.06s-4-2.46-3.33-4a6.23,6.23,0,0,1,3.36-3.19C1382.84,786.21,1385.28,788.9,1385.22,790.94Z"/><path class="cls-10" d="M1611.27,805.8a3.91,3.91,0,0,1-3.45,4c-1.74.11-3.59-1.68-3.86-3.74a3.74,3.74,0,0,1,3.37-4A4.63,4.63,0,0,1,1611.27,805.8Z"/><path class="cls-6" d="M1470.42,818.19a4.46,4.46,0,0,1-3.73-4.64c.33-2,1.84-2.68,3.58-2.79a3.53,3.53,0,0,1,3.69,3.54C1473.79,816.33,1472,818.3,1470.42,818.19Z"/><path class="cls-10" d="M1030,500.5c-2.12,1.81-3.35,3.31-4.94,4.08-1.39.68-3.71-1.66-3.91-3.55s1.81-4.36,3.49-3.88S1027.67,499,1030,500.5Z"/><path class="cls-10" d="M1672,77.26c-.65.71-1.47,2.3-2.74,2.83-1.94.81-4.59-1.48-4.61-3.53a4.55,4.55,0,0,1,3.69-3.92C1670.13,72.56,1671.88,74.41,1672,77.26Z"/><path class="cls-11" d="M271.66,552.09c.67.61,2.29,1.43,2.76,2.68.82,2.16-1.38,4.74-3.56,4.54a3.6,3.6,0,0,1-3.36-3.24C267.12,554,268.53,552.3,271.66,552.09Z"/><path class="cls-5" d="M1428.7,805.2a3.87,3.87,0,0,1-4.06,3.45,3.54,3.54,0,0,1-3.3-3.3,3.73,3.73,0,0,1,3.51-3.94A4.14,4.14,0,0,1,1428.7,805.2Z"/><path class="cls-10" d="M1654.61,790.74c-.2,1.87-2.4,3.68-4.16,3.17a3.64,3.64,0,0,1-2.94-3.62,3.84,3.84,0,0,1,3.8-3.63A3.73,3.73,0,0,1,1654.61,790.74Z"/><path class="cls-11" d="M1227.09,692.69c-.61-.77-2-1.82-2.37-3.14a3.32,3.32,0,0,1,3.09-4.17,3.71,3.71,0,0,1,3.87,3.57C1231.69,691,1230,692.66,1227.09,692.69Z"/><path class="cls-10" d="M1729.57,736.88a4.08,4.08,0,0,1-3.23,4.21,4.17,4.17,0,0,1-4-3.47,3.8,3.8,0,0,1,3.28-4.07A3.63,3.63,0,0,1,1729.57,736.88Z"/><path class="cls-5" d="M1566,815.74c-.74.65-1.72,2.08-3,2.52a3.3,3.3,0,0,1-4.23-3,4.1,4.1,0,0,1,3.46-4.13C1564,811,1565.76,812.71,1566,815.74Z"/><path class="cls-8" d="M1092,560.8c2.41,0,3.9,1.25,3.93,3.24a3.64,3.64,0,0,1-3.55,3.73c-2.18.17-3.6-1.11-3.77-3.38A3.07,3.07,0,0,1,1092,560.8Z"/><path class="cls-8" d="M361.74,758.78c0,2.23-1.36,3.47-3.76,3.46a3.27,3.27,0,0,1-3.51-3.69,3.36,3.36,0,0,1,3.74-3.52A3.39,3.39,0,0,1,361.74,758.78Z"/><path class="cls-11" d="M1158.05,631.36c-.63-.67-2.12-1.59-2.54-2.87-.65-1.94,1.06-4,2.91-4.28a3.93,3.93,0,0,1,4,3.41C1162.72,629.61,1161.12,631.28,1158.05,631.36Z"/><path class="cls-11" d="M1616.88,201.75a3.87,3.87,0,0,1-4.19,3.3c-2.09-.05-3.3-1.8-3-4.19.28-2.09,1.65-2.92,3.51-3A3.64,3.64,0,0,1,1616.88,201.75Z"/><path class="cls-10" d="M1627.41,156.67c0,2-2,3.89-3.88,3.6s-3.13-1.19-3.26-3.26a3.66,3.66,0,0,1,3.33-4.07A4,4,0,0,1,1627.41,156.67Z"/><path class="cls-8" d="M1777.21,658.94c.06,2.18-2.11,4.58-4.13,4.28s-2.73-1.68-2.86-3.52c-.16-2.23,1.17-4.06,3-4.19A4,4,0,0,1,1777.21,658.94Z"/><path class="cls-1" d="M282.38,510.22a3.45,3.45,0,0,1-3.86,3.35,3.77,3.77,0,0,1-3.65-3.74c0-2,1.61-3.35,3.92-3.22S282.55,508.29,282.38,510.22Z"/><path class="cls-11" d="M1197.59,659.55c-2,1.24-3.18,2.47-4.52,2.68-2.06.34-3.54-1.45-3.55-3.62,0-1.93,1.8-3.23,4.23-2.48C1195,656.51,1195.89,658,1197.59,659.55Z"/><path class="cls-11" d="M1775.92,476.28c.18,3.06-1.06,4.62-3.16,4.87-2.28.26-4.18-1.18-3.93-3.12.27-2.14,1.45-3.87,3.72-3.66C1773.86,474.49,1775.06,475.76,1775.92,476.28Z"/><path class="cls-8" d="M315.72,429.79c-.84-.84-2.77-1.9-3.19-3.38-.59-2.12,1.31-3.43,3.29-4.07,1.44-.45,3.16,1,3.43,2.74A4,4,0,0,1,315.72,429.79Z"/><path class="cls-11" d="M297.09,685.5c3.15,0,4.79,1.33,4.93,3.35s-1.49,3.58-3.74,3.71a3.05,3.05,0,0,1-3.28-3.81C295.25,687.43,296.54,686.31,297.09,685.5Z"/><path class="cls-10" d="M1738.58,14.32a4,4,0,0,1,4.13,3.43,3.33,3.33,0,0,1-2.82,3.58,4.17,4.17,0,0,1-4.63-2.87A3.88,3.88,0,0,1,1738.58,14.32Z"/><path class="cls-11" d="M1690.75,763.69a3.59,3.59,0,0,1,3.55,3.86c-.09,1.85-.88,3.23-3,3.38a3.72,3.72,0,0,1-4.09-3.34A3.62,3.62,0,0,1,1690.75,763.69Z"/><path class="cls-11" d="M916.67,413c.57.8,1.87,1.9,2.15,3.22a3,3,0,0,1-3.23,3.85c-2.27-.12-3.89-1.69-3.79-3.66S913.51,413,916.67,413Z"/><path class="cls-5" d="M1704.18,42.45c.12,3.12-1.35,4.68-3.41,4.54a3.68,3.68,0,0,1-3.6-3.75,3.38,3.38,0,0,1,4-3.11C1702.5,40.48,1703.49,41.88,1704.18,42.45Z"/><path class="cls-11" d="M954.39,445.53a3.52,3.52,0,0,1-3.91-3.45c-.05-1.85.72-3.25,2.73-3.61a3.93,3.93,0,0,1,4.43,2.94A3.73,3.73,0,0,1,954.39,445.53Z"/><path class="cls-6" d="M1062.62,532.5c-1.61,1.35-2.57,2.76-3.83,3.09-1.9.5-3.08-1.35-2.86-3.94.15-1.88,1.76-3.49,3.19-2.79C1060.34,529.47,1061.15,530.91,1062.62,532.5Z"/><path class="cls-2" d="M833,639.28c3,.9,5.91,1.88,8.9,2.67,69.77,18.4,129.22,54.23,179.25,106a349.41,349.41,0,0,1,43,53.76c.46.71.74,1.69,1.39,2.1a10.79,10.79,0,0,0,3,.87c.23-.94.93-2.12.6-2.77a67.26,67.26,0,0,0-4.42-7.26C1029.22,743,983.8,702.22,929,671.85c-2.47-1.38-5.06-2.57-7.49-4a17.74,17.74,0,0,1-2.76-2.53,12.43,12.43,0,0,1,2.82-1.68c25.21-7,50.3-7.85,75.25,1.31,11,4,20.9,10.08,30.15,17.2,24.55,18.92,44.37,42.17,61.71,67.64a216.43,216.43,0,0,1,22.33,41c.32.79.41,1.79,1,2.32a10.75,10.75,0,0,0,2.71,1.43c.42-.9,1.4-2,1.18-2.67a92.71,92.71,0,0,0-3.75-9.47c-7.69-16.84-17.5-32.42-28.48-47.27-13.72-18.55-29-35.7-46.7-50.54-11.35-9.5-23.43-17.89-37.39-23.25-.93-.36-1.58-1.45-2.36-2.21.73-.42,1.44-.89,2.2-1.26,9.23-4.55,19-5.5,29-4a101.49,101.49,0,0,1,41,15.54A193.68,193.68,0,0,1,1102,696.62c22.76,23.25,42.18,49,57.39,77.8,2.9,5.5,5.23,11.3,7.85,17a8.8,8.8,0,0,0,1.71,2.82c.45.41,1.58.27,2.32.08a1.58,1.58,0,0,0,.79-1.31,40.47,40.47,0,0,0-1.78-5.63A229.75,229.75,0,0,0,1152,752.82c-16-25.26-34.64-48.45-56.75-68.72a18.18,18.18,0,0,1-1.88-1.73,30.65,30.65,0,0,1-1.82-2.63,11.1,11.1,0,0,1,2.8-.93c9.22-.55,18,1.32,26.63,4.51,11.85,4.39,22.32,11.08,31.9,19.19,20.67,17.48,36.29,38.89,48.92,62.67a202.51,202.51,0,0,1,19.91,57.61c5.1,26.73,10.65,53.39,14.85,80.26a849.79,849.79,0,0,1,10.47,115.2,30.8,30.8,0,0,0,1.78,9.07c4.38,12.86,9,25.66,13.46,38.49,2.12,6,2.11,6.1-3.61,8.29q-14.67,5.64-29.38,11.2-81.06,30.6-162.17,61.11c-9.4,3.52-6.89,4.77-13.35-4.23-8.93-12.44-17.87-24.89-26.51-37.53-2.78-4.07-6.12-6-10.94-6.9-33.55-6.21-66.08-15.78-97-30.37-20.21-9.53-38.56-21.62-54-38-39-41.38-71.41-87.31-95.44-139a183.13,183.13,0,0,1-13.89-41c-2.1-10.37-2.92-20.82-.79-31.27a30.33,30.33,0,0,1,3.15-8.7c2.29-4.07,5.8-5.55,10.13-4.06a54,54,0,0,1,11.38,5.56c8.42,5.39,15.38,12.51,22.14,19.82a386.47,386.47,0,0,1,31.72,40c22.42,31.85,51.87,55.25,86.91,71.79a104.12,104.12,0,0,0,34.22,9.6,50.38,50.38,0,0,0,17.72-1.43c10.07-2.6,17.7-8.66,23-17.66,9-15.29,11.6-31.81,9.3-49.2-2.61-19.71-10.08-37.72-20.23-54.62-18.33-30.52-41.66-56.77-70.3-77.85C890.59,734,866,717.73,841.66,701c-6-4.16-12.24-8.1-18.37-12.15l-8-6.2c-10.51-8.18-21.17-16.19-31.49-24.6A100.85,100.85,0,0,1,771.84,646c-2.51-2.89-6.19-6.15-4.21-10.37,1.75-3.73,6.4-3.61,9.93-3.55a199.62,199.62,0,0,1,23.7,1.64C811.9,635.17,822.44,637.38,833,639.28Z"/><path class="cls-2" d="M823.14,695c1.78.71,3.76,1.12,5.31,2.17q26.41,17.88,52.73,35.93a8.84,8.84,0,0,1,2.66,2.06,3.11,3.11,0,0,1,.07,2.86c-3.39,4.13-8,6.08-13.16,7.16l-48.24,10.22q-69.87,14.77-139.75,29.53-66.94,14.18-133.9,28.39c-9.42,2-18.84,4-28.27,6a52.83,52.83,0,0,1-6.72,1c-11.1.83-19.35-6.26-21.29-16.39-4.47-23.38-9.79-46.59-14.74-69.88a34.24,34.24,0,0,1-.53-12.62c3.15-20.47,5.75-41,6.24-61.77a233.82,233.82,0,0,0-1.18-26.32A27.86,27.86,0,0,0,477.2,619c-5.42-7.33-11.72-8.93-20.09-5.12-4.19,1.91-4.2,1.91-5.17-2.64q-16.32-77.37-32.65-154.73-14-66.12-28.21-132.21-5.13-24.1-10.19-48.24c-2.93-13.94,2.94-23.25,16.91-26.37,13.55-3,27.17-5.76,40.75-8.63,10.82-2.28,21.65-4.49,32.44-6.9,3.9-.87,7-.5,9.81,2.8,3.12,3.66,6.8,6.83,10.28,10.18,7.72,7.41,16.93,10.26,27.37,8.12,24.16-4.94,48.26-10.12,72.39-15.2q22.47-4.72,44.93-9.44c2.22-.47,4.44-1,6.63-1.54,10.2-2.76,17.68-8.69,21.62-18.71,1.55-4,3.45-7.81,4.55-11.89,1.47-5.44,5-7.45,10.22-8.41,10.58-2,21.08-4.39,31.62-6.61,13-2.74,26.06-5.52,39.11-8.18a35.21,35.21,0,0,1,7.59-.75c9.78.18,16.47,5.63,18.58,15.35,5.11,23.54,10.09,47.11,15.09,70.68q15.87,74.85,31.72,149.71Q837.29,480.17,852.07,550q9.06,42.84,18.12,85.68c.58,2.76.89,5.58,1.33,8.37-.47.54-.95,1.07-1.42,1.6l-36.43-9.91c-.75-1.84-1.4-3.71-2.25-5.5-11.49-24.09-37.58-35.76-61.37-30.43-10.5,2.35-21.06,4.44-31.59,6.67q-74.37,15.69-148.75,31.42c-15.24,3.22-30.57,6.08-45.63,10-19,4.93-31.32,17.45-37.75,35.86-4.61,13.2-3.24,26.36,1.22,39.19,6.64,19.1,20.09,31,39.72,36,10,2.56,19.66,1.21,29.43-.88q46.51-10,93.06-19.78c41-8.66,82-17.21,123-26C804.66,709.84,815.19,704.57,823.14,695ZM547.08,525.21l.29,0c0,2.55-.42,5.19.08,7.64,1.84,9.06,4.38,18,5.9,27.1s6.38,15.63,13.08,21.08c7.07,5.75,15.5,8.5,24.51,7.14,9.67-1.46,19.18-4,28.75-6.09,11-2.4,21.89-4.88,32.86-7.22,17.81-3.8,35.64-7.5,53.46-11.26,9-1.91,18.07-3.91,27.13-5.8,12.34-2.57,24.71-5,37.05-7.6s24.67-5.23,37-7.86c3.56-.76,7.15-1.41,10.65-2.39,2.87-.8,3.25-1.71,2.57-4.93q-6.23-29.62-12.5-59.22c-2.87-13.67-12.07-21.24-24.69-25.2-5.33-1.67-10.63-2.4-16.52-.54-8.24,2.62-17,3.71-25.46,5.49-12.61,2.64-25.22,5.26-37.82,8-11.24,2.41-22.45,5-33.68,7.36-12.6,2.69-25.22,5.3-37.83,7.95-11.79,2.47-23.61,4.87-35.37,7.47-8.75,1.95-17.56,3.78-26.13,6.37-11.65,3.52-19,11.78-22.47,23.29C547.06,518.87,547.34,522.12,547.08,525.21Zm27.43-122.77a17.54,17.54,0,0,0,0-3.4c-1.29-6.59-2.71-13.16-4-19.75-1.35-6.78-5.59-11.68-10.68-15.82a20.82,20.82,0,0,0-16.63-4.38c-13.52,2.24-27,5-40.3,8.26-15.51,3.83-31.21,6.65-46.81,10-16.39,3.52-23.9,18.56-20.34,32.4,3,11.65,5.24,23.5,7.67,35.29,1,4.84,2.1,5.73,6.72,4.65,6.27-1.46,12.53-3,18.84-4.28,12.33-2.56,24.69-5,37-7.52,9.87-2,19.75-4,29.58-6.21,7.11-1.57,14.29-3,21.23-5.15A24.92,24.92,0,0,0,574.51,402.44Zm51.14,33.06c0,.8,0,1.36,0,1.93.07,14.66,11.81,23.9,26,20.52,5.72-1.36,11.44-2.75,17.2-3.93,20.29-4.14,40.69-7.8,60.87-12.41,18.56-4.23,37.16-8.22,55.85-11.8a76.71,76.71,0,0,0,9.63-2.92c1.44-.48,2.32-1.42,1.86-3.2s-.58-3.89-1.15-5.75c-1.78-5.89-2.45-12-4.56-17.89-3.57-10-15.74-14.58-24.2-11.9-5.85,1.85-11.94,3-18,4.3q-27.09,5.78-54.21,11.39c-9.59,2-19.24,3.72-28.8,5.84-9,2-17.94,4.4-26.93,6.52-5,1.17-8.23,4-11.17,8.27C625.51,428.2,625.79,431.85,625.65,435.5ZM559,318.81a8.64,8.64,0,0,1-.3-1.83c.26-1,.59-1.91.9-2.87a20.4,20.4,0,0,1,2.59,1.88,8.15,8.15,0,0,1,1.33,2.16c1.19,2.43,3.14,3.09,5.63,2.45,1.38-.36,2.75-.71,4.09-1.18a1.74,1.74,0,0,0,1-2.7c-1.7-3-3.51-5.83-5.34-8.69-1-1.53-1.49-2.93-.34-4.68a12.7,12.7,0,0,0,1.63-3.89c1.79-7.59-3.67-14.6-11.46-14.14-4.77.28-9.48,1.57-14.19,2.54a2.47,2.47,0,0,0-1.92,3.23c2.14,10.27,4.29,20.53,6.52,30.77.16.74,1,2,1.36,1.91,2.49-.27,5.13-.46,7.34-1.49C558.78,321.85,558.8,319.44,559,318.81ZM516.6,314h.16c-.19,3.38-.51,6.76-.53,10.15a56.48,56.48,0,0,0,.67,6.44c2.47-.35,5-.41,7.35-1.18,1-.32,1.42-2.17,2.15-3.3,1.85-2.82,5.79-4.18,7.71-1.85,2.67,3.23,5.42,2.21,8.35,1.68,3.14-.56,3.69-1.69,2.25-4.67-4.06-8.38-8.2-16.71-12.34-25C529.76,291,529.74,291,524,292c-5.92,1.09-6,1.08-6.47,6.77C517.13,303.85,516.91,308.93,516.6,314Zm-18.29,21.1c6.73,0,12.1-3.67,13.53-9.37,1.25-5-.52-6.64-5.71-5.58-2.44.5-4.11,1.42-4.92,4a3,3,0,0,1-2.61,1.36,3.51,3.51,0,0,1-2.19-2.25c-1-4.4-1.93-8.84-2.6-13.3-.34-2.26,2.37-4,3.87-2.38,2.74,2.95,5.59,1.91,8.52,1.23s3.42-2.29,1.92-5.06c-3-5.45-8.73-7.59-15.3-5.65s-10.28,6.71-9.44,13.16a115.18,115.18,0,0,0,3,15C488,332,492.31,335.05,498.31,335.1Zm158.48-68c.1.56.19,1.12.3,1.67q2.88,13.69,5.78,27.39c.23,1.1.27,2.42.92,3.18a3.45,3.45,0,0,0,2.87,1c.8-.18,2-1.5,1.92-2.17-.5-3.92-1.5-7.77-2-11.69-.25-2-1.83-4.19.15-6.18a40.66,40.66,0,0,1,4.21,3.85c3.28,3.9,6.24,8.07,9.69,11.8.81.88,3.18.85,4.58.41.69-.22,1.3-2.4,1.08-3.53-1.83-9.43-3.87-18.82-5.86-28.22-.17-.83-.12-1.86-.6-2.44-.62-.74-1.92-1.77-2.47-1.54a6.13,6.13,0,0,0-2.7,2.59c-.33.57.15,1.64.31,2.47a50.49,50.49,0,0,1,1,5c.29,3.16,2.48,6.25.42,9.52-3.45-.76-4.44-4.08-6.44-6.31s-3.81-4.92-5.76-7.34a9.19,9.19,0,0,0-2.45-2.25C659.82,263.18,656.7,265,656.79,267.07Zm-70.68,12.26c-2.22.4-5.3.84-8.33,1.52-3.88.87-4.2,1.25-3.48,5.12,1.37,7.5,2.77,15,4.47,22.42,2.33,10.2-.36,10.49,12.56,7.56.55-.13,1.13-.18,1.66-.35,8.06-2.56,10.77-9.8,5.5-16.57-2.23-2.87-2.31-4.87-1.68-8.16C598.14,283.85,593.87,279.25,586.11,279.33Zm27.45-5.95-11.32,3.11c-1.4,3.73.27,7.17,1,10.71.21,1.11.32,2.24.55,3.35,1.34,6.36,2.61,12.74,4.17,19a3.89,3.89,0,0,0,2.89,2.25c2,.05,2.91-1.46,2.52-3.49-.64-3.33-1.44-6.63-1.92-10-.13-.87.52-2.49,1.13-2.67a6.19,6.19,0,0,1,3.94.26c.9.4,1.43,1.68,2,2.62,1.73,2.58,3.36,5.24,5.15,7.78a5.11,5.11,0,0,0,2.46,2.1,4.52,4.52,0,0,0,3.06-.75c.37-.22.46-1.57.16-2.12a35.76,35.76,0,0,0-3.64-5.72c-3.12-3.75-4-6.94-1.28-11.92C627.94,281.49,622.35,273.53,613.56,273.38Zm84.21-17.14c-2,.41-5.34,1.13-8.67,1.73-2.13.38-2.83,1.59-2.43,3.59,1.56,7.77,3.05,15.54,4.7,23.28,2.35,11-.14,10.73,13.1,7.83a15.57,15.57,0,0,0,3.23-1c4.13-2,6.44-5.76,5.69-10.36a171.66,171.66,0,0,0-3.68-17.42C708.15,258.13,705,256.1,697.77,256.24ZM635,288.9h-.84c0,5.08-.07,10.16.08,15.23,0,.85,1.19,2.43,1.54,2.36a6.5,6.5,0,0,0,3.43-1.81c.62-.74.36-2.18.67-3.25.22-.76.62-1.87,1.18-2a47.75,47.75,0,0,1,8.2-2c2.52-.31,2.72,2.43,4,3.75a5.57,5.57,0,0,0,3,1.2c1.66.29,3-1.11,2.4-2.41q-7.57-15.15-15.3-30.23c-.93-1.83-2.72-1.71-4.46-1.38-2,.39-2.74,1.75-2.85,3.63Q635.52,280.44,635,288.9Z"/><path class="cls-2" d="M480.06,657.24c-1,21.12-3.77,41.93-6.86,62.69-5.06,33.93-11.56,67.59-19.21,101-1.29,5.62-1.15,5.62,3.75,8.88,38.14,25.37,61.06,60.74,69.17,105.74,1.2,6.68,1.7,13.49,2.52,20.25A25,25,0,0,0,530,960a2.36,2.36,0,0,0,1.76,1.36,2.21,2.21,0,0,0,1.74-1.28,53.25,53.25,0,0,0,.15-5.93c0-4.3,0-4.42,4.51-5.41,9.4-2.07,18.84-4,28.27-6l133-28.23q32.84-7,65.67-13.95c2.91-.61,4.19-.9,6,2.82q5.24,10.68,11.15,21c1.74,3,1.5,5.55.49,8.78-11.94,38.12-29.62,73.47-50.92,107.13a849.78,849.78,0,0,1-62,85.3,138.59,138.59,0,0,0-22.61,38.68c-1.94,5-4.17,9.92-6,15-.91,2.45-2.23,3-4.51,2.11-1.32-.5-2.71-.83-4-1.27l-203.58-66c-8.59-2.79-8.63-2.82-7.61-12.39.81-7.62,1.81-15.17.38-22.87a87.09,87.09,0,0,0-9.63-26.2c-4.38-7.93-9.12-15.68-13.82-23.43-10.18-16.78-18.83-34.22-23.74-53.36a205.82,205.82,0,0,1-6.29-42.82c-1.4-34,3.27-67.37,10.77-100.37,9.1-40,19.25-79.84,31.83-119,6.5-20.22,13.54-40.25,22.51-59.53,4.3-9.26,8.88-18.42,15.28-26.43a50.26,50.26,0,0,1,9.67-9.44c5.38-3.86,10.08-3.13,14.13,2.12a22.85,22.85,0,0,1,4.62,9.82C478.61,639.18,479.17,648.24,480.06,657.24Z"/><path class="cls-12" d="M338.76,252.31c.19-17.09,10.07-30.81,25.17-35.2,9.5-2.76,19.3-4.53,29-6.59Q460.27,196.23,527.64,182q70.27-14.85,140.56-29.66,45.74-9.66,91.47-19.35c2.77-.59,5.55-1.2,8.36-1.51,17.57-1.93,33.5,8.5,38.27,25.6,2.67,9.53,4.46,19.32,6.52,29q16.84,79.41,33.64,158.82Q861.23,414.8,876,484.66q15.84,74.85,31.72,149.68c1.76,8.32,3.54,16.63,5.27,24.95.41,2-1,3.26-2.86,2.68-1.08-.33-2.11-.81-3.16-1.25-8.34-3.53-16.6-7.27-25.07-10.49-3.31-1.26-5-2.91-5.75-6.43q-12.68-60.75-25.59-121.44l-26.4-124.74q-14-66.11-28-132.22c-5.28-24.95-10.44-49.92-15.72-74.87-3.13-14.75-13.65-22.29-28.59-19.81-12.57,2.08-25,5-37.5,7.57-13,2.72-26,5.72-39.09,8.2-5,.94-8.14,3-9.59,8-1.25,4.34-3.33,8.43-4.87,12.69-3.71,10.27-11.13,16.11-21.62,18.35q-23.7,5-47.39,10.07-34.93,7.38-69.87,14.71a55.36,55.36,0,0,1-8.41,1.13,24.52,24.52,0,0,1-19.28-7.29c-4-4-8.29-7.78-12.14-11.94-2.6-2.81-5.28-3.74-9-2.91-16.6,3.66-33.23,7.15-49.86,10.7-9.14,2-18.27,4-27.43,5.87a25.29,25.29,0,0,0-11.39,5.43c-7,6-10.21,13.26-8.18,22.66,5.81,26.86,11.45,53.76,17.13,80.65q13.17,62.37,26.3,124.76,14,66.12,28.05,132.22a31.18,31.18,0,0,1,1,5.85c0,1.57-.15,3.56-1.07,4.68C438.9,632.8,433,645,427.27,657.39a12.34,12.34,0,0,1-2.1,2.51,17.09,17.09,0,0,1-1.32-3.1q-3.8-17.44-7.48-34.91-16-75.66-32.07-151.34-16.59-78.6-33.08-157.22c-3.63-17.19-7.43-34.34-11.05-51.53C339.41,258.21,339.08,254.52,338.76,252.31Z"/><path class="cls-13" d="M947.78,827.21c-.09,17.54-10.15,31.18-25.76,35.58-8.17,2.31-16.59,3.7-24.9,5.49-14.67,3.17-29.35,6.36-44,9.48-8,1.7-8,1.64-13-5.37-3.62-5.09-7.19-10.21-10.92-15.21-11.22-15-22.95-29.62-37.09-42.06a121,121,0,0,0-10-7.9,42.91,42.91,0,0,0-7.39-4.15c-9.92-4.36-15.62-2.59-21.4,6.63-1.11,1.77-2,2.58-3.79.85a41.68,41.68,0,0,0-5.17-4.41c-15-10.35-30.59-11.27-46.42-2.39a41.29,41.29,0,0,0-20.59,40.92c2.59,18.3,12.78,30.88,30.62,35.93,14.89,4.23,28.66,1,40.21-9.83,1.66-1.54,3.11-3.31,4.68-4.94s2.44-1.51,3.37.94q4.83,12.71,9.62,25.42c1.3,3.44,1.16,3.74-2.48,4.5-19.13,4-38.26,8-57.39,12.09q-66.1,14-132.2,28.08-17,3.63-34.08,7.27c-1.11.23-2.26.26-3.37.51-2.5.56-3.63-.52-4-2.94-1.08-6.13-2-12.32-3.46-18.36q-14.5-58.47-63.46-93.7a18.69,18.69,0,0,0-2.13-1.41c-4.24-2.23-5-5.89-4.12-10.14,1-5,2.25-10,3.23-15,3.53-18.07,7-36.16,10.49-54.24a29,29,0,0,1,.79-3.31c.34-1.06.83-2.07,1.25-3.11a22.24,22.24,0,0,1,1,2.79q6,27.86,11.87,55.71c.35,1.66.75,3.31,1.16,5,3.25,13.17,13.85,20.56,27.18,18.49,7.84-1.22,15.59-3,23.35-4.64Q643.75,797.72,748.1,775.6q60.28-12.75,120.57-25.52c7.05-1.49,13.74-3.65,18.71-9.24,1.44-1.63,2.84-1.53,4.42-.44,15.18,10.5,30.13,21.28,43.35,34.25A13.51,13.51,0,0,1,939,782c2.64,12.76,5.46,25.49,8.09,38.25A55.44,55.44,0,0,1,947.78,827.21Z"/><path class="cls-14" d="M823.14,695c-7.95,9.61-18.48,14.88-30.38,17.42-41,8.75-82,17.3-123,26q-46.54,9.84-93.06,19.78c-9.77,2.09-19.47,3.44-29.43.88-19.63-5-33.08-16.91-39.72-36-4.46-12.83-5.83-26-1.22-39.19,6.43-18.41,18.8-30.93,37.75-35.86,15.06-3.92,30.39-6.78,45.63-10q74.37-15.75,148.75-31.42c10.53-2.23,21.09-4.32,31.59-6.67,23.79-5.33,49.88,6.34,61.37,30.43.85,1.79,1.5,3.66,2.25,5.5-.22,1.17-.43,2.33-.65,3.5-10.58-1.9-21.12-4.11-31.76-5.59a199.62,199.62,0,0,0-23.7-1.64c-3.53-.06-8.18-.18-9.93,3.55-2,4.22,1.7,7.48,4.21,10.37A100.85,100.85,0,0,0,783.79,658c10.32,8.41,21,16.42,31.49,24.6l8,6.2ZM679.25,669.33l2.28,2.07c-.14.73-.65,1.78-.35,2.13a3.48,3.48,0,0,0,2.24.72c1.89.11,3.61.65,3.06,2.87-.5,2-2.43,2-4.18,1.61A29,29,0,0,0,679,678c-.33,0-.93.61-1,1a1.79,1.79,0,0,0,.39,1.47c3.52,3.09,9.68,2.24,11.84-1.63,2.4-4.3-3.45-7.37-1.86-11.72.23-.65-1.42-2.4-2.54-3-3.11-1.74-7.25-.32-9.46,3.11-.37.58-.11,1.56-.14,2.35Zm-37.68,3c-1,1-2.16,1.61-2.08,2,1.06,5.19,2.26,10.35,3.52,15.5.06.26,1,.51,1.4.43s1.18-.52,1.25-.9a16.49,16.49,0,0,0,.19-3.3c0-1.54.73-2,2-1.32,1.7,1,3.18,2.37,4.94,3.19.73.34,1.93-.31,2.92-.52-.25-.68-.32-1.57-.79-2-1.85-1.72-4.46-2.94-5.61-5-1.55-2.77,1.74-4.85,2.43-7.41.07-.27.3-.54.28-.79-.06-.5-.1-1.26-.4-1.41a1.64,1.64,0,0,0-1.53.18c-1.42,1.71-2.72,3.52-4,5.31-1,1.32-1.77.87-2.44-.26S642.37,673.76,641.57,672.31Zm52.79,3.28h-.17a5,5,0,0,0-.11,1.66c.2.69.57,1.75,1,1.84.62.12,1.42-.48,2.1-.85.2-.1.24-.48.4-.71,3.13-4.57,3.68-4.64,8.13-1.65a8.1,8.1,0,0,0,2.86.63c0-1,.39-2.22,0-3-2-3.68-4.16-7.3-6.5-10.79a4.87,4.87,0,0,0-3.23-2.1c-1.81,0-2.93,1.38-3.15,3.28C695.23,667.81,694.8,671.7,694.36,675.59Zm-83.48,22.1h1.72a7.51,7.51,0,0,0,6.44-3.41c1.48-2.27.65-4.16-.82-6.17-.71-1-.7-2.53-.87-3.84-.47-3.48-1.59-5-4.16-5.39a7.25,7.25,0,0,0-8.16,4.45,1.82,1.82,0,0,0,.39,1.5,1.48,1.48,0,0,0,1.38.29c1.39-.86,2.61-2,4.05-2.75a1.93,1.93,0,0,1,2.24,2.9c-.36.68-1.22,1.1-1.87,1.63-1.52,1.27-1.5,2.17.62,2.57a6.47,6.47,0,0,1,2.4.6c.57.4,1.26,1.54,1.07,1.94-.43.88-1.36,2.06-2.14,2.1-1.62.09-3.27-.56-4.92-.74-.38,0-1,.5-1.2.92a1.62,1.62,0,0,0,.23,1.48C608.65,696.62,610.13,697.31,610.88,697.69Zm48.72-13.14c.2.48.6,1.43,1,2.38.83-.56,1.94-.93,2.44-1.71,2.62-4.05,4.06-4.56,7.73-2.32a17.15,17.15,0,0,0,2,1.44,1.84,1.84,0,0,0,1.53-.47c.34-.3.67-1.11.5-1.4-2.6-4.37-5.2-8.74-8-13a3.39,3.39,0,0,0-2.89-1,3.29,3.29,0,0,0-2.26,2C660.79,675,660.28,679.46,659.6,684.55Zm65.24-27.84c.95,4.37,2,8.48,2.7,12.66.44,2.77,2.05,3.11,4.18,2.69a21.59,21.59,0,0,0,5.63-1.7A6.21,6.21,0,0,0,740,667.3c1.38-3.55-.7-7.27-4.5-7.37-3.63-.1-6.64-.27-7.69-4.46-.06-.24-1.1-.53-1.41-.34A7.79,7.79,0,0,0,724.84,656.71ZM623.73,689.13a9.89,9.89,0,0,0,0,2.46,20.38,20.38,0,0,0,1.29,2.5,13.13,13.13,0,0,0,2.15-2c2.53-3.54,3.83-3.89,7.21-1.64.45.31.71,1,1.18,1.16a3.23,3.23,0,0,0,2.24.21,2.08,2.08,0,0,0,.4-2c-2.33-4.13-4.68-8.26-7.3-12.21a3.91,3.91,0,0,0-3.32-1.49c-1,.29-2,1.84-2.24,3C624.59,682.69,624.17,686.31,623.73,689.13Zm97.17-31.51c-.41-.33-1-1.15-1.45-1.09a60.27,60.27,0,0,0-7.45,1.36c-1.51.39-4,1.05-4.16,1.88-.41,2.77,2.31,1.21,3.45,1.91a6.14,6.14,0,0,1,2.22,3.25c.92,3,1.45,6,2.33,9a2.12,2.12,0,0,0,1.9.86A2.31,2.31,0,0,0,719,673a50.6,50.6,0,0,0-1.36-7.45c-.84-3.06-.73-5.53,2.77-6.73C720.6,658.75,720.64,658.32,720.9,657.62Z"/><path class="cls-9" d="M749.19,830.18c1,7.56,1.78,15.18,3.26,22.65a9.89,9.89,0,0,1-1.37,7.95c-8.52,13.31-25.58,20.06-40.75,16.1-16.65-4.34-28-18-28.82-34.73a37.81,37.81,0,0,1,64.83-28.61c2.78,2.79,4.46,5.64,3.75,9.76a41.54,41.54,0,0,0-.06,6.79Z"/><path class="cls-15" d="M916.87,552.84c-.8,14-5.61,24.42-12.91,33.79a2,2,0,0,1-1.51.61c-.27,0-.62-.76-.71-1.22q-4.35-20.35-8.63-40.73c-.7-3.33-1.44-6.65-2-10-.48-3.09.36-4,3.51-4.44,8.49-1.16,15.34,2.23,18.72,10C915.25,545.23,916.08,550,916.87,552.84Z"/><path class="cls-4" d="M923.76,629.1c.37,5.75-1.15,11.19-3.41,16.42a36.29,36.29,0,0,1-3.79,6.4c-.45.64-.84.41-2.3-6.3q-3.68-17-7.23-34a12.6,12.6,0,0,1-.47-4.19c.1-.71,1.4-1.86,2-1.78,5.15.59,8.89,3.52,11.32,8A28.51,28.51,0,0,1,923.76,629.1Z"/><path class="cls-4" d="M894.19,501.82c-.66,7.46-1.41,13.34-4.26,18.71-.25.46-.79.76-1.19,1.14a4.54,4.54,0,0,1-.78-1.23c-1.62-7.16-3.24-14.33-4.8-21.51q-1.8-8.28-3.4-16.61a3.31,3.31,0,0,1,.74-2.1c.1-.15,1,.19,1.56.38a14.59,14.59,0,0,1,8.72,8.78C892.46,493.83,893.33,498.57,894.19,501.82Z"/><path class="cls-2" d="M871.52,644.09l.71,1.39-2.12.21Z"/><path class="cls-16" d="M1853.77,916l48.68,24.23a9.34,9.34,0,0,1,2.24,1.18c.53.5,1.14,1.44,1,2s-1.21.81-1.9,1.14c-2.68,1.27-4.82,0-7.1-1.3q-21.36-12.29-42.81-24.44Z"/><path class="cls-17" d="M1853.77,916l.09,2.8-14-8.07c.35-.35.7-.69,1-1.05Z"/><path class="cls-17" d="M1836.49,907.77l-.29.51-.9-.59c.21-.18.43-.52.62-.51S1836.3,907.56,1836.49,907.77Z"/><path class="cls-17" d="M1839.83,910.73l-1.44-1.41,2.48.36C1840.53,910,1840.18,910.38,1839.83,910.73Z"/><path class="cls-17" d="M1832.65,906.61l-.56-.25.58-.71.56.49Z"/><path class="cls-9" d="M99.64,943.18l.87-1.53a7.72,7.72,0,0,1,1.59,1.13c.11.12-.48,1.19-.64,1.16A8.29,8.29,0,0,1,99.64,943.18Z"/><path class="cls-12" d="M1640.89,460.65l-34-13.17a58.33,58.33,0,0,1-6.28-2.52c-.44-.24-.14-1.85-.18-2.83,1.62-1.11,3.33-2.09,4.84-3.33q43-35.49,85.88-71a16.79,16.79,0,0,0,3.18-2.79c.49-.69.62-2.4.16-2.81a3.11,3.11,0,0,0-2.92-.24,70.17,70.17,0,0,0-6.28,4.34c-31.43,22.81-62.94,45.52-94.21,68.56-4.7,3.46-8.55,3.92-13.9,1.86-17.17-6.59-34.54-12.65-51.82-19-.7-.25-1.19-1.08-1.78-1.63a7.21,7.21,0,0,1,1.62-1.43q30.79-13.29,61.62-26.51,89-38.13,178-76.22c2.33-1,4.69-2,7.08-2.85a1.65,1.65,0,0,1,1.44.31,1.58,1.58,0,0,1,.27,1.44,35.07,35.07,0,0,1-2,3.74l-91.29,153.37c-.29.48-.55,1-.85,1.47-2.51,4-2.58,4.07-6.71,2.57-8-2.91-15.88-6-23.86-8.9C1646.31,462.11,1643.57,461.45,1640.89,460.65Z"/><path class="cls-18" d="M1596.08,441.7c-3.64,1.53-4.71,4.18-4.45,8.12.6,8.76,1,17.54,1,26.32,0,5.92-.81,11.85-1.32,17.77,0,.57-.62,1.09-1,1.63-.2-.82-.41-1.64-.61-2.47q-1-21.13-2.06-42.28c-.09-1.69-.13-3.39-.29-5.08a5.15,5.15,0,0,1,2.46-5l13.18-9.16,2,1.81Z"/><path class="cls-19" d="M1605.05,433.34l-2-1.81a37,37,0,0,1,3.8-3.07c.46-.29,1.39.16,2.1.27-.18.74-.13,1.71-.59,2.18A24,24,0,0,1,1605.05,433.34Z"/><path class="cls-19" d="M1616.25,424.23l-3.79,2.95-1.8-1.35,4.32-3Z"/><path class="cls-17" d="M1630.71,411.35c.54-.45,1.07-.91,1.63-1.32.07,0,.35.2.53.31l-2.28.9Z"/><path class="cls-19" d="M1618.91,421.69l-2.66,2.54-1.27-1.37,2.9-2.24A10.41,10.41,0,0,0,1618.91,421.69Z"/><path class="cls-19" d="M1612.46,427.18l-2.47.73c.22-.7.45-1.39.67-2.08Z"/><path class="cls-17" d="M1630.59,411.24c-.54.59-1.09,1.18-1.63,1.78l0,0,1.78-1.64Z"/><path class="cls-17" d="M1629,413l-1.54,1.88-.6-.62,2.11-1.29Z"/><path class="cls-17" d="M1627.42,414.9l-1.63.92,1-1.54Z"/><path class="cls-17" d="M1621.68,417.62l2.31-.49-1.11,1.73Z"/><path class="cls-17" d="M1620.35,418.84l1.33-1.22,1.2,1.24-1.64,1.14A1,1,0,0,1,1620.35,418.84Z"/><path class="cls-19" d="M1617.88,420.62l2.47-1.78a1,1,0,0,0,.89,1.16l-2.33,1.69A10.41,10.41,0,0,1,1617.88,420.62Z"/><path class="cls-15" d="M202.57,272.45c-3.3,11.92-6.57,23.85-9.93,35.76-.82,2.92-1.91,3.19-3.89.93q-12-13.65-23.87-27.43c-1.48-1.7-1-2.75,1.43-3.28,11.55-2.49,23.11-4.91,34.67-7.35Z"/><path class="cls-15" d="M201,271.08l1.33-.72c.09.7.18,1.39.26,2.09Z"/><path class="cls-20" d="M244.82,1069.59c10.44.29,19.46,9.3,18.93,18.92-.55,10.09-9.07,18.57-18.57,18.47-10.32-.1-19.16-9-18.78-19C226.79,1077.87,235.33,1069.32,244.82,1069.59Z"/><path class="cls-20" d="M1941,445.53c-10-.17-18.89-8.68-18.57-18.22.36-10.53,8.61-19.52,18.76-19,11,.6,18.67,9.59,18.6,18.31C1959.66,435.11,1951.7,446.36,1941,445.53Z"/><path class="cls-4" d="M547.08,525.21c.26-3.09,0-6.34.86-9.24,3.49-11.51,10.82-19.77,22.47-23.29,8.57-2.59,17.38-4.42,26.13-6.37,11.76-2.6,23.58-5,35.37-7.47,12.61-2.65,25.23-5.26,37.83-7.95,11.23-2.41,22.44-4.95,33.68-7.36,12.6-2.7,25.21-5.32,37.82-8,8.51-1.78,17.22-2.87,25.46-5.49,5.89-1.86,11.19-1.13,16.52.54,12.62,4,21.82,11.53,24.69,25.2q6.23,29.61,12.5,59.22c.68,3.22.3,4.13-2.57,4.93-3.5,1-7.09,1.63-10.65,2.39-12.33,2.63-24.66,5.29-37,7.86s-24.71,5-37.05,7.6c-9.06,1.89-18.08,3.89-27.13,5.8-17.82,3.76-35.65,7.46-53.46,11.26-11,2.34-21.9,4.82-32.86,7.22-9.57,2.09-19.08,4.63-28.75,6.09-9,1.36-17.44-1.39-24.51-7.14-6.7-5.45-11.58-12.09-13.08-21.08s-4.06-18-5.9-27.1c-.5-2.45-.08-5.09-.08-7.64Z"/><path class="cls-4" d="M574.51,402.44a24.92,24.92,0,0,1-17.74,24.09c-6.94,2.16-14.12,3.58-21.23,5.15-9.83,2.17-19.71,4.18-29.58,6.21-12.34,2.53-24.7,5-37,7.52-6.31,1.32-12.57,2.82-18.84,4.28-4.62,1.08-5.72.19-6.72-4.65-2.43-11.79-4.68-23.64-7.67-35.29-3.56-13.84,3.95-28.88,20.34-32.4,15.6-3.35,31.3-6.17,46.81-10,13.3-3.29,26.78-6,40.3-8.26a20.82,20.82,0,0,1,16.63,4.38c5.09,4.14,9.33,9,10.68,15.82,1.31,6.59,2.73,13.16,4,19.75A17.54,17.54,0,0,1,574.51,402.44Z"/><path class="cls-4" d="M625.65,435.5c.14-3.65-.14-7.3,2.44-11,2.94-4.25,6.21-7.1,11.17-8.27,9-2.12,17.92-4.53,26.93-6.52,9.56-2.12,19.21-3.85,28.8-5.84q27.12-5.64,54.21-11.39c6-1.29,12.11-2.45,18-4.3,8.46-2.68,20.63,1.94,24.2,11.9,2.11,5.88,2.78,12,4.56,17.89.57,1.86.67,3.86,1.15,5.75s-.42,2.72-1.86,3.2a76.71,76.71,0,0,1-9.63,2.92c-18.69,3.58-37.29,7.57-55.85,11.8-20.18,4.61-40.58,8.27-60.87,12.41-5.76,1.18-11.48,2.57-17.2,3.93-14.2,3.38-25.94-5.86-26-20.52C625.64,436.86,625.65,436.3,625.65,435.5Z"/><path class="cls-21" d="M559,318.81c-.18.63-.2,3-1.14,3.47-2.21,1-4.85,1.22-7.34,1.49-.39.05-1.2-1.17-1.36-1.91-2.23-10.24-4.38-20.5-6.52-30.77a2.47,2.47,0,0,1,1.92-3.23c4.71-1,9.42-2.26,14.19-2.54,7.79-.46,13.25,6.55,11.46,14.14a12.7,12.7,0,0,1-1.63,3.89c-1.15,1.75-.64,3.15.34,4.68,1.83,2.86,3.64,5.74,5.34,8.69a1.74,1.74,0,0,1-1,2.7c-1.34.47-2.71.82-4.09,1.18-2.49.64-4.44,0-5.63-2.45a8.15,8.15,0,0,0-1.33-2.16,20.4,20.4,0,0,0-2.59-1.88c-.31,1-.64,1.9-.9,2.87A8.64,8.64,0,0,0,559,318.81Zm-2.66-18.14c2.88-.24,4.67-2.21,4.11-3.9a3.49,3.49,0,0,0-3.66-2.71c-2,.14-3,1.51-2.52,3.36A12,12,0,0,0,556.32,300.67Zm2.28,11.59c.19-.2.52-.4.52-.6s-.33-.41-.51-.62l-.56.91Z"/><path class="cls-21" d="M516.6,314c.31-5.07.53-10.15.95-15.21.47-5.69.55-5.68,6.47-6.77,5.72-1,5.74-1.06,8.35,4.21,4.14,8.34,8.28,16.67,12.34,25,1.44,3,.89,4.11-2.25,4.67-2.93.53-5.68,1.55-8.35-1.68-1.92-2.33-5.86-1-7.71,1.85-.73,1.13-1.18,3-2.15,3.3-2.32.77-4.88.83-7.35,1.18a56.48,56.48,0,0,1-.67-6.44c0-3.39.34-6.77.53-10.15Zm8.86-2.44a17.05,17.05,0,0,0,1,3.67c.22.43,1.47.49,2.23.45a1.71,1.71,0,0,0,1.26-.92c.48-1.62-1.28-6.08-2.61-6.61-.29-.12-1.09.35-1.26.73A13.91,13.91,0,0,0,525.46,311.56Z"/><path class="cls-21" d="M498.31,335.1c-6-.05-10.35-3.07-11.92-8.92a115.18,115.18,0,0,1-3-15c-.84-6.45,2.79-11.21,9.44-13.16s12.34.2,15.3,5.65c1.5,2.77,1,4.4-1.92,5.06s-5.78,1.72-8.52-1.23c-1.5-1.59-4.21.12-3.87,2.38.67,4.46,1.57,8.9,2.6,13.3a3.51,3.51,0,0,0,2.19,2.25,3,3,0,0,0,2.61-1.36c.81-2.54,2.48-3.46,4.92-4,5.19-1.06,7,.58,5.71,5.58C510.41,331.43,505,335.15,498.31,335.1Z"/><path class="cls-22" d="M656.8,267.07c-.1-2,3-3.89,4.92-2.79a9.19,9.19,0,0,1,2.45,2.25c2,2.42,3.68,5,5.76,7.34s3,5.55,6.44,6.31c2.06-3.27-.13-6.36-.42-9.52a50.49,50.49,0,0,0-1-5c-.16-.83-.64-1.9-.31-2.47a6.13,6.13,0,0,1,2.7-2.59c.55-.23,1.85.8,2.47,1.54.48.58.43,1.61.6,2.44,2,9.4,4,18.79,5.86,28.22.22,1.13-.39,3.31-1.08,3.53-1.4.44-3.77.47-4.58-.41-3.45-3.73-6.41-7.9-9.69-11.8a40.66,40.66,0,0,0-4.21-3.85c-2,2-.4,4.17-.15,6.18.49,3.92,1.49,7.77,2,11.69.09.67-1.12,2-1.92,2.17a3.45,3.45,0,0,1-2.87-1c-.65-.76-.69-2.08-.92-3.18q-2.91-13.69-5.78-27.39C657,268.19,656.89,267.63,656.8,267.07Z"/><path class="cls-23" d="M586.11,279.33c7.76-.08,12,4.52,10.7,11.54-.63,3.29-.55,5.29,1.68,8.16,5.27,6.77,2.56,14-5.5,16.57-.53.17-1.11.22-1.66.35-12.92,2.93-10.23,2.64-12.56-7.56-1.7-7.42-3.1-14.92-4.47-22.42-.72-3.87-.4-4.25,3.48-5.12C580.81,280.17,583.89,279.73,586.11,279.33ZM589,299.11c-4.9.18-6.32,2-5.21,6.83.31,1.36.66,2.71,1,4.07.39,1.7,1.46,2.19,3.07,1.76a33.83,33.83,0,0,0,4-1.09c2.77-1.11,3.88-3.66,3.18-6.91A5.77,5.77,0,0,0,589,299.11Zm-4.69-3.49c5-.21,7.59-2.33,7.43-6.06a5.5,5.5,0,0,0-6.06-5.47c-3.53.27-5.83,1.73-5.7,3.64C580.33,292.76,582,295.71,584.33,295.62Z"/><path class="cls-22" d="M613.56,273.38c8.79.15,14.38,8.11,10.87,14.57-2.71,5-1.84,8.17,1.28,11.92a35.76,35.76,0,0,1,3.64,5.72c.3.55.21,1.9-.16,2.12a4.52,4.52,0,0,1-3.06.75,5.11,5.11,0,0,1-2.46-2.1c-1.79-2.54-3.42-5.2-5.15-7.78-.62-.94-1.15-2.22-2-2.62a6.19,6.19,0,0,0-3.94-.26c-.61.18-1.26,1.8-1.13,2.67.48,3.35,1.28,6.65,1.92,10,.39,2-.55,3.54-2.52,3.49a3.89,3.89,0,0,1-2.89-2.25c-1.56-6.3-2.83-12.68-4.17-19-.23-1.11-.34-2.24-.55-3.35-.68-3.54-2.35-7-1-10.71Zm.14,5.1c-3.67,0-5.76,1.3-5.78,3.54,0,5.17,1.36,8.43,3.64,8.55,4.52.22,8.15-2.19,8.31-5.51A6.11,6.11,0,0,0,613.7,278.48Z"/><path class="cls-22" d="M697.77,256.24c7.18-.14,10.38,1.89,11.94,7.63a171.66,171.66,0,0,1,3.68,17.42c.75,4.6-1.56,8.4-5.69,10.36a15.57,15.57,0,0,1-3.23,1c-13.24,2.9-10.75,3.14-13.1-7.83-1.65-7.74-3.14-15.51-4.7-23.28-.4-2,.3-3.21,2.43-3.59C692.43,257.37,695.74,256.65,697.77,256.24Zm9.91,24.61c-.81-4-1.67-9.26-3-14.44-1.24-4.74-3.23-5.73-8.22-4.93-2.68.43-3.59,1.32-3.13,3.91,1.23,6.95,2.61,13.88,4.09,20.78a3.36,3.36,0,0,0,2,2.23C703.77,289.18,707.56,286.22,707.68,280.85Z"/><path class="cls-22" d="M635,288.9q.51-8.46,1-16.92c.11-1.88.85-3.24,2.85-3.63,1.74-.33,3.53-.45,4.46,1.38q7.74,15.07,15.3,30.23c.64,1.3-.74,2.7-2.4,2.41a5.57,5.57,0,0,1-3-1.2c-1.3-1.32-1.5-4.06-4-3.75a47.75,47.75,0,0,0-8.2,2c-.56.17-1,1.28-1.18,2-.31,1.07,0,2.51-.67,3.25a6.5,6.5,0,0,1-3.43,1.81c-.35.07-1.52-1.51-1.54-2.36-.15-5.07-.08-10.15-.08-15.23Zm6.81,5.17c1.74-.25,2.85-.35,4-.58,2.16-.44,2.69-1.9,1.85-3.72-1.51-3.31-3.18-6.54-4.86-9.76-.21-.4-.86-.57-1.3-.84a4.55,4.55,0,0,0-.67,1.34c-.36,3.62-.81,7.24-.85,10.87C639.92,292.33,641.24,293.31,641.81,294.07Z"/><path class="cls-19" d="M641.57,672.31c.8,1.45,1.39,2.6,2,3.7s1.46,1.58,2.44.26c1.32-1.79,2.62-3.6,4-5.31a1.64,1.64,0,0,1,1.53-.18c.3.15.34.91.4,1.41,0,.25-.21.52-.28.79-.69,2.56-4,4.64-2.43,7.41,1.15,2.06,3.76,3.28,5.61,5,.47.44.54,1.33.79,2-1,.21-2.19.86-2.92.52-1.76-.82-3.24-2.21-4.94-3.19-1.27-.73-2-.22-2,1.32a16.49,16.49,0,0,1-.19,3.3c-.07.38-.77.81-1.25.9s-1.34-.17-1.4-.43c-1.26-5.15-2.46-10.31-3.52-15.5C639.41,673.92,640.54,673.27,641.57,672.31Z"/><path class="cls-19" d="M679.25,669.33l-3,.26c0-.79-.23-1.77.14-2.35,2.21-3.43,6.35-4.85,9.46-3.11,1.12.62,2.77,2.37,2.54,3-1.59,4.35,4.26,7.42,1.86,11.72-2.16,3.87-8.32,4.72-11.84,1.63A1.79,1.79,0,0,1,678,679c.12-.44.72-1.09,1-1a29,29,0,0,1,3.26.75c1.75.4,3.68.42,4.18-1.61.55-2.22-1.17-2.76-3.06-2.87a3.48,3.48,0,0,1-2.24-.72c-.3-.35.21-1.4.35-2.13,1.77-.39,3.17-1.23,2.68-3.28-.37-1.52-2.26-1.3-4.54.5A2.47,2.47,0,0,0,679.25,669.33Z"/><path class="cls-24" d="M694.36,675.59c.44-3.89.87-7.78,1.32-11.68.22-1.9,1.34-3.33,3.15-3.28a4.87,4.87,0,0,1,3.23,2.1c2.34,3.49,4.48,7.11,6.5,10.79.42.76,0,2,0,3a8.1,8.1,0,0,1-2.86-.63c-4.45-3-5-2.92-8.13,1.65-.16.23-.2.61-.4.71-.68.37-1.48,1-2.1.85-.45-.09-.82-1.15-1-1.84a5,5,0,0,1,.11-1.66Zm7.82-6.11c-.49-.87-.84-1.62-1.31-2.29a6.71,6.71,0,0,0-1.18-1.07,6.92,6.92,0,0,0-1,1.83,3.82,3.82,0,0,0,.12,2.4,2.14,2.14,0,0,0,1.91.85C701.31,671,701.7,670.09,702.18,669.48Z"/><path class="cls-19" d="M610.88,697.69c-.75-.38-2.23-1.07-3.6-1.92a1.62,1.62,0,0,1-.23-1.48c.17-.42.82-1,1.2-.92,1.65.18,3.3.83,4.92.74.78,0,1.71-1.22,2.14-2.1.19-.4-.5-1.54-1.07-1.94a6.47,6.47,0,0,0-2.4-.6c-2.12-.4-2.14-1.3-.62-2.57.65-.53,1.51-.95,1.87-1.63a1.93,1.93,0,0,0-2.24-2.9c-1.44.73-2.66,1.89-4.05,2.75a1.48,1.48,0,0,1-1.38-.29,1.82,1.82,0,0,1-.39-1.5,7.25,7.25,0,0,1,8.16-4.45c2.57.42,3.69,1.91,4.16,5.39.17,1.31.16,2.86.87,3.84,1.47,2,2.3,3.9.82,6.17a7.51,7.51,0,0,1-6.44,3.41Z"/><path class="cls-18" d="M659.6,684.55c.68-5.09,1.19-9.59,2-14a3.29,3.29,0,0,1,2.26-2,3.39,3.39,0,0,1,2.89,1c2.82,4.24,5.42,8.61,8,13,.17.29-.16,1.1-.5,1.4a1.84,1.84,0,0,1-1.53.47,17.15,17.15,0,0,1-2-1.44c-3.67-2.24-5.11-1.73-7.73,2.32-.5.78-1.61,1.15-2.44,1.71C660.2,686,659.8,685,659.6,684.55Zm8.41-6.94-2.28-3.79a12,12,0,0,0-1.89,3.16c-.1.41,1.23,1.44,2.07,1.75C666.34,678.89,667.13,678.11,668,677.61Z"/><path class="cls-18" d="M724.84,656.71a7.79,7.79,0,0,1,1.56-1.58c.31-.19,1.35.1,1.41.34,1.05,4.19,4.06,4.36,7.69,4.46,3.8.1,5.88,3.82,4.5,7.37a6.21,6.21,0,0,1-2.65,3.06,21.59,21.59,0,0,1-5.63,1.7c-2.13.42-3.74.08-4.18-2.69C726.87,665.19,725.79,661.08,724.84,656.71Zm8.45,13.09c1.48-2,2.9-3.1,3.05-4.35.25-2-1.43-2.82-3.29-2.61-1.35.16-3,.64-2.44,2.45C731,666.61,732,667.74,733.29,669.8Z"/><path class="cls-18" d="M623.73,689.13c.44-2.82.86-6.44,1.64-10,.25-1.16,1.26-2.71,2.24-3a3.91,3.91,0,0,1,3.32,1.49c2.62,4,5,8.08,7.3,12.21a2.08,2.08,0,0,1-.4,2,3.23,3.23,0,0,1-2.24-.21c-.47-.17-.73-.85-1.18-1.16-3.38-2.25-4.68-1.9-7.21,1.64a13.13,13.13,0,0,1-2.15,2,20.38,20.38,0,0,1-1.29-2.5A9.89,9.89,0,0,1,623.73,689.13Zm4.88-9.46a31.81,31.81,0,0,0-1.05,4.18c-.08,1.31-.27,3,1.81,2.8.62-.06,1.72-1.1,1.63-1.42A44.26,44.26,0,0,0,628.61,679.67Z"/><path class="cls-19" d="M720.9,657.62c-.26.7-.3,1.13-.46,1.18-3.5,1.2-3.61,3.67-2.77,6.73A50.6,50.6,0,0,1,719,673a2.31,2.31,0,0,1-1.29,1.79,2.12,2.12,0,0,1-1.9-.86c-.88-3-1.41-6-2.33-9a6.14,6.14,0,0,0-2.22-3.25c-1.14-.7-3.86.86-3.45-1.91.13-.83,2.65-1.49,4.16-1.88a60.27,60.27,0,0,1,7.45-1.36C719.91,656.47,720.49,657.29,720.9,657.62Z"/><path class="cls-25" d="M556.32,300.67a12,12,0,0,1-2.07-3.25c-.51-1.85.47-3.22,2.52-3.36a3.49,3.49,0,0,1,3.66,2.71C561,298.46,559.2,300.43,556.32,300.67Z"/><path class="cls-2" d="M558.6,312.26l-.55-.31.56-.91c.18.21.51.41.51.62S558.79,312.06,558.6,312.26Z"/><path class="cls-25" d="M525.46,311.56a13.91,13.91,0,0,1,.64-2.68c.17-.38,1-.85,1.26-.73,1.33.53,3.09,5,2.61,6.61a1.71,1.71,0,0,1-1.26.92c-.76,0-2,0-2.23-.45A17.05,17.05,0,0,1,525.46,311.56Z"/><path class="cls-26" d="M589,299.11a5.77,5.77,0,0,1,6.06,4.66c.7,3.25-.41,5.8-3.18,6.91a33.83,33.83,0,0,1-4,1.09c-1.61.43-2.68-.06-3.07-1.76-.32-1.36-.67-2.71-1-4.07C582.7,301.15,584.12,299.29,589,299.11Z"/><path class="cls-26" d="M584.33,295.62c-2.38.09-4-2.86-4.33-7.89-.13-1.91,2.17-3.37,5.7-3.64a5.5,5.5,0,0,1,6.06,5.47C591.92,293.29,589.33,295.41,584.33,295.62Z"/><path class="cls-26" d="M613.7,278.48a6.11,6.11,0,0,1,6.17,6.58c-.16,3.32-3.79,5.73-8.31,5.51-2.28-.12-3.67-3.38-3.64-8.55C607.94,279.78,610,278.5,613.7,278.48Z"/><path class="cls-15" d="M707.68,280.85c-.12,5.37-3.91,8.33-8.27,7.55a3.36,3.36,0,0,1-2-2.23c-1.48-6.9-2.86-13.83-4.09-20.78-.46-2.59.45-3.48,3.13-3.91,5-.8,7,.19,8.22,4.93C706,271.59,706.87,276.9,707.68,280.85Z"/><path class="cls-26" d="M641.81,294.07c-.57-.76-1.89-1.74-1.88-2.69,0-3.63.49-7.25.85-10.87a4.55,4.55,0,0,1,.67-1.34c.44.27,1.09.44,1.3.84,1.68,3.22,3.35,6.45,4.86,9.76.84,1.82.31,3.28-1.85,3.72C644.66,293.72,643.55,293.82,641.81,294.07Z"/><path class="cls-14" d="M679.25,669.33a2.47,2.47,0,0,1,.42-.71c2.28-1.8,4.17-2,4.54-.5.49,2-.91,2.89-2.68,3.28Z"/><path class="cls-10" d="M702.18,669.48c-.48.61-.87,1.54-1.48,1.72a2.14,2.14,0,0,1-1.91-.85,3.82,3.82,0,0,1-.12-2.4,6.92,6.92,0,0,1,1-1.83,6.71,6.71,0,0,1,1.18,1.07C701.34,667.86,701.69,668.61,702.18,669.48Z"/><path class="cls-10" d="M668,677.61c-.88.5-1.67,1.28-2.1,1.12-.84-.31-2.17-1.34-2.07-1.75a12,12,0,0,1,1.89-3.16Z"/><path class="cls-5" d="M733.29,669.8c-1.26-2.06-2.31-3.19-2.68-4.51-.52-1.81,1.09-2.29,2.44-2.45,1.86-.21,3.54.62,3.29,2.61C736.19,666.7,734.77,667.79,733.29,669.8Z"/><path class="cls-10" d="M628.61,679.67a44.26,44.26,0,0,1,2.39,5.56c.09.32-1,1.36-1.63,1.42-2.08.18-1.89-1.49-1.81-2.8A31.81,31.81,0,0,1,628.61,679.67Z"/><rect class="cls-9" x="444.92" y="273.4" width="306.04" height="55.03" transform="translate(-45.91 117.76) rotate(-10.83)"/><text class="cls-27" transform="translate(449.97 345.88) rotate(-12.81)">BRAND&amp;DIGITAL</text></svg>