<svg width="72" height="72" viewBox="0 0 72 72" fill="none" xmlns="http://www.w3.org/2000/svg">
<circle cx="36" cy="36" r="36" fill="#FF8025"/>
<path d="M39.1875 25.375H26.4375C25.851 25.375 25.375 25.851 25.375 26.4375C25.375 27.024 25.851 27.5 26.4375 27.5H39.1875C39.774 27.5 40.25 27.024 40.25 26.4375C40.25 25.851 39.774 25.375 39.1875 25.375Z" fill="white"/>
<path d="M34.9375 29.625H26.4375C25.851 29.625 25.375 30.101 25.375 30.6875C25.375 31.274 25.851 31.75 26.4375 31.75H34.9375C35.524 31.75 36 31.274 36 30.6875C36 30.101 35.524 29.625 34.9375 29.625Z" fill="white"/>
<path d="M42.375 19H23.25C20.9061 19 19 20.9061 19 23.25V44.5C19 44.9123 19.238 45.2884 19.612 45.4626C19.7544 45.5285 19.9095 45.5625 20.0625 45.5625C20.3069 45.5625 20.5491 45.4775 20.7425 45.316L26.8221 40.25H42.375C44.7189 40.25 46.625 38.3439 46.625 36V23.25C46.625 20.9061 44.7189 19 42.375 19ZM44.5 36C44.5 37.1709 43.548 38.125 42.375 38.125H26.4375C26.1889 38.125 25.9488 38.2121 25.7575 38.3715L21.125 42.2326V23.25C21.125 22.0791 22.077 21.125 23.25 21.125H42.375C43.548 21.125 44.5 22.0791 44.5 23.25V36Z" fill="white"/>
<path d="M48.75 27.5C48.1635 27.5 47.6875 27.976 47.6875 28.5625C47.6875 29.149 48.1635 29.625 48.75 29.625C49.923 29.625 50.875 30.5791 50.875 31.75V49.7254L47.288 46.8566C47.101 46.7079 46.8651 46.625 46.625 46.625H31.75C30.577 46.625 29.625 45.6709 29.625 44.5V43.4375C29.625 42.851 29.149 42.375 28.5625 42.375C27.976 42.375 27.5 42.851 27.5 43.4375V44.5C27.5 46.8439 29.4061 48.75 31.75 48.75H46.251L51.2724 52.7684C51.4658 52.9214 51.7016 53 51.9375 53C52.0926 53 52.2499 52.966 52.3986 52.8959C52.7663 52.7174 53 52.3455 53 51.9375V31.75C53 29.4061 51.0939 27.5 48.75 27.5Z" fill="white"/>
</svg>
