<svg width="884" height="574" viewBox="0 0 884 574" fill="none" xmlns="http://www.w3.org/2000/svg">
<path d="M697.824 553.615C700.622 553.615 703.424 553.554 706.217 553.615C723.714 554.085 741.066 555.722 758.054 560.201C759.408 560.613 760.738 561.097 762.04 561.65C762.748 561.918 763.72 562.285 763.616 563.062C763.493 563.965 762.399 564.073 761.583 564.191C760.262 564.388 758.931 564.567 757.596 564.661C742.325 565.602 727.031 566.007 711.736 566.331C689.998 566.802 668.259 567.173 646.53 567.893C637.094 568.208 627.749 569.893 618.299 570.175C603.587 570.705 588.856 570.101 574.237 568.368C571.435 568.025 568.576 568.237 565.712 568.251C554.498 568.321 543.289 568.458 532.076 568.491C497.253 568.6 462.434 568.685 427.618 568.745C415.566 568.773 403.513 568.8 391.458 568.825C371.379 568.876 351.325 570.118 331.247 569.822C326.147 569.747 321.038 569.897 315.962 569.286C315.217 569.222 314.481 569.085 313.763 568.876C311.952 568.279 312.06 567.22 313.334 566.185C314.142 565.596 315.02 565.107 315.947 564.732C327.713 559.364 339.965 555.238 352.094 550.811C357.316 548.929 362.057 546.205 366.761 543.34C369.997 541.374 373.309 539.44 377.215 541.952C378.338 542.677 378.253 541.336 378.324 540.964C378.517 539.873 380.178 538.612 377.998 537.671C375.097 536.41 372.295 534.909 369.36 533.738C367.506 532.995 367.506 532.327 368.568 530.774C390.47 498.196 412.355 465.603 434.223 432.994C436.832 429.122 438.115 424.756 439.823 420.541C445.484 406.592 451.272 392.699 458.462 379.456C463.283 370.578 469.477 362.881 479.177 358.873C492.348 353.43 505.558 354.258 518.371 359.814C532.448 365.93 544.469 375.259 555.782 385.478C558.612 388.046 561.292 390.836 563.943 393.612C564.304 394.052 564.786 394.379 565.329 394.552C565.872 394.726 566.454 394.739 567.005 394.59C588.045 390.733 602.906 379.065 611.761 359.673C612.482 358.092 612.19 357.382 610.784 356.337C591.532 341.984 574.242 325.593 559.768 306.403C553.361 297.935 553.456 295.394 559.296 286.507C566.712 275.216 577.082 267.162 588.503 260.317C597.971 254.638 608.086 250.348 618.559 246.885C619.903 246.443 620.243 246.311 620.064 244.42C619.748 241.127 619.12 238.186 617.667 235.18C616.643 233.077 618.578 231.459 620.436 230.499C621.55 229.92 621.743 229.558 621.29 228.26C619.597 223.508 621.319 219.448 624.376 215.816C625.659 214.292 627.036 214.588 628.103 216.094C629.105 217.525 630.025 219.013 630.858 220.549C634.49 227.201 639.821 231.671 647.015 234.333C656.224 237.754 665.702 240.567 674.378 245.187C677.617 246.991 681.378 247.635 685.035 247.012C689.134 246.382 693.21 247.172 697.131 248.424C698.687 248.894 699.018 248.424 698.739 247.172C698.192 244.674 699.579 244.321 701.57 244.307C723.394 244.18 744.189 248.494 763.687 258.487C764.951 259.136 765.942 260.058 767.536 258.684C768.815 257.588 770.688 258.943 770.268 260.75C769.938 262.161 770.64 262.424 771.466 262.961C776.162 266.011 780.563 269.491 784.614 273.353C791.983 280.41 794.361 289.226 794.125 299.003C793.785 313.229 788.728 326.143 782.633 338.723C782.218 339.456 782.001 340.282 782.001 341.123C782.001 341.963 782.218 342.79 782.633 343.522C790.204 358.828 795.438 375.177 798.163 392.026C802.527 419.482 799.026 445.781 786.652 470.781C770.022 504.381 744.194 528.944 711.354 546.525C706.924 548.877 702.325 550.943 697.805 553.144L697.824 553.615Z" fill="#222221"/>
<path d="M161.584 566.665C162.754 567.719 165.103 568.161 164.48 570.222C163.952 571.958 161.862 572.01 160.235 572.287C152.337 573.633 144.398 573.181 136.463 572.758C133.377 572.598 130.292 572.287 127.202 572.245C125.107 572.207 123.55 571.638 122.484 569.714C121.682 568.303 120.559 567.051 119.394 565.48C118.451 567.22 117.507 568.679 116.866 570.269C116.106 572.151 114.95 572.842 112.879 572.767C108.633 572.612 108.633 572.73 107.501 568.721C106.458 564.958 105.345 561.194 104.416 557.43C104.1 556.146 103.633 555.675 102.274 555.647C99.9671 555.61 96.9667 556.508 95.5561 554.989C94.2918 553.62 94.6126 550.754 94.3673 548.506C92.617 532.435 90.796 516.369 89.2062 500.279C87.4701 482.698 85.8095 465.107 84.3989 447.498C83.0544 430.722 81.9835 413.917 80.9504 397.117C80.0399 382.227 79.3369 367.327 79.0633 352.423C79.0067 349.008 78.7708 345.592 78.752 342.177C78.752 340.845 78.2094 340.483 77.0017 340.356C75.5157 340.196 74.0579 339.65 72.5766 339.584C70.6471 339.495 70.6471 338.526 70.7698 336.992C72.8785 310.486 80.4692 285.411 90.7819 261.069C98.8018 242.105 108.836 224.317 122.81 208.961C137.953 192.326 155.984 180.357 178.218 175.446C205.42 169.443 231.485 172.153 255.95 186.144C256.942 186.765 258.082 187.108 259.253 187.137C260.776 187.137 262.38 187.377 263.588 188.186C266.763 190.303 270.193 189.442 273.542 189.39C274.802 189.39 274.637 188.859 274.255 187.979C273.42 186.097 272.542 184.178 272.481 182.042C272.396 179.087 273.957 177.257 276.83 177.605C279.312 177.902 279.085 176.74 278.92 175.098C278.265 168.478 277.444 161.868 279.057 155.235C281.779 144.029 290.851 136.313 302.372 135.509C312.595 134.794 322.322 136.492 331.47 141.192C332.116 141.526 332.602 142.029 333.413 141.286C337.471 137.565 343.141 140.411 344.873 144.645C345.09 145.181 345.344 145.703 345.571 146.235C346.042 145.294 346.415 144.353 346.934 143.539C347.878 142.039 349.099 140.989 351.067 141.413C352.897 141.803 353.577 143.158 353.963 144.786C354.435 146.79 354.138 148.785 353.775 150.747C352.791 156.158 350.858 161.355 348.066 166.098C347.245 167.509 346.359 168.822 344.825 169.448C344.518 169.549 344.251 169.745 344.061 170.007C343.871 170.268 343.769 170.583 343.769 170.906C343.279 174.368 342.516 177.787 341.485 181.129C341.226 181.952 341.386 182.945 341.485 183.848C342.056 188.388 340.763 192.293 337.324 195.332C336.15 196.372 335.777 197.647 335.367 198.983C332.597 208.002 329.276 216.771 323.808 224.571C320.945 228.669 317.529 232.179 312.835 234.169C305.575 237.241 295.941 234.827 290.464 227.977C288.035 224.938 285.78 223.63 281.973 224.571C279.732 225.126 277.326 225.108 274.986 225.173C273.571 225.211 273.278 225.757 273.533 227.008C274.005 229.36 274.354 231.769 274.882 234.126C275.146 235.326 274.934 235.698 273.627 235.74C272.16 235.782 270.202 235.105 269.329 236.21C268.579 237.184 269.801 238.831 270.042 240.2C270.977 245.208 271.276 250.313 270.933 255.396C270.15 268.046 267.06 280.236 263.286 292.28C262.876 293.597 262.343 294.161 261.008 293.399C260.702 293.288 260.386 293.208 260.064 293.159C255.29 291.71 255.29 291.71 254.61 297.125C262.159 296.152 269.678 295.154 277.198 294.246C278.576 294.081 279.189 292.03 280.675 292.745C282.944 293.827 285.081 292.891 287.28 292.745L287.78 292.689C291.738 292.251 295.036 291.278 297.446 287.363C300.72 282.042 306.735 280.306 312.382 278.425C314.738 277.575 317.15 276.89 319.6 276.373C321.233 276.068 321.558 275.376 321.568 273.889C321.605 266.964 321.707 260.042 321.874 253.123C321.964 249.204 322.242 248.988 326.2 248.635C339.957 247.417 353.746 247.134 367.545 247.073C369.989 247.073 371.702 247.835 372.961 249.896C374.626 252.582 376.448 255.179 378.009 257.927C378.314 258.502 378.747 258.999 379.276 259.38C379.804 259.761 380.414 260.016 381.057 260.124C383.887 260.778 386.718 261.535 389.548 262.307C391.388 262.824 392.421 264.024 392.818 265.981C393.653 270.088 393.785 274.252 394.139 278.396C394.238 279.563 393.794 279.888 392.723 279.77C392.223 279.714 391.714 279.794 391.214 279.77C387.572 279.493 383.953 279.253 383.307 284.531H386.175C392.954 284.531 399.734 284.531 406.518 284.531C407.225 284.531 408.164 284.221 408.508 285.119C408.806 285.9 407.89 286.201 407.518 286.7C405.668 289.193 403.385 290.205 400.064 290.13C388.685 289.876 377.297 290.05 365.913 290.021C364.587 290.021 363.757 290.247 362.903 291.536C360.738 294.83 357.152 296.02 353.496 296.664C346.422 297.961 339.22 298.435 332.036 298.076C329.857 298.005 327.693 298.46 325.728 299.402C314.368 304.479 302.277 307.523 290.681 311.931C289.469 312.401 288.077 312.594 287.445 314.024C287.338 314.204 287.189 314.355 287.011 314.465C286.833 314.575 286.63 314.64 286.421 314.655C280.84 314.034 276.255 317.233 271.24 318.677C263.079 321.029 255.03 323.772 246.798 325.889C246.196 325.996 245.635 326.268 245.179 326.674C244.722 327.08 244.388 327.605 244.213 328.19C242.867 331.863 241.291 335.449 239.495 338.926C238.132 341.654 235.962 342.986 233.037 343.419C225.932 344.472 219.044 342.995 212.18 341.57C206.878 340.473 201.632 339.071 196.405 337.646C194.758 337.199 194.404 337.401 194.579 339.133C195.744 350.424 196.82 361.715 197.924 372.977C198.419 378.035 198.867 383.097 199.452 388.145C199.669 390.027 198.509 389.693 197.457 389.698C188.168 389.759 178.879 389.867 169.59 389.829C167.703 389.829 167.08 390.224 167.08 392.257C167.118 412.621 167.083 432.984 166.976 453.346C166.841 484.302 166.684 515.257 166.504 546.21C166.504 547.871 166.212 548.741 164.353 548.473C163.654 548.391 162.948 548.545 162.348 548.91C166.768 550.322 171.203 551.733 175.605 553.21C181.369 555.153 187.149 557.087 192.465 560.107C193.881 560.898 195.985 561.584 195.565 563.527C195.178 565.348 192.994 565.409 191.399 565.696C183.167 567.051 174.887 566.397 166.613 566.2C165.943 566.2 165.273 566.2 164.603 566.2C163.66 565.814 162.659 565.997 161.683 566.054C161.159 566.059 161.39 566.402 161.584 566.665Z" fill="#222221"/>
<path d="M863.9 405.551C864.806 405.128 865.381 404.812 865.99 404.577C871.127 402.601 875.397 405.048 876.368 410.491C877.246 415.308 876.265 419.966 875.128 424.572C870.41 443.625 864.188 462.208 858.026 480.843C855.083 489.754 852.016 498.622 848.997 507.509C848.784 508.135 848.487 508.737 848.704 509.546C854.115 509.546 859.555 509.593 864.99 509.513C866.579 509.513 866.905 509.805 866.579 511.461C863.494 527.226 860.555 543.019 857.465 558.779C857.106 560.605 857.767 560.661 859.182 560.661C863.277 560.661 867.381 560.704 871.396 561.706C871.962 561.847 872.514 562.04 873.071 562.209C873.731 562.411 874.458 562.717 874.486 563.437C874.514 564.157 873.774 564.472 873.137 564.717C870.853 565.513 868.474 566.006 866.06 566.184C861.56 566.655 857.045 566.688 852.526 566.716C841.062 566.791 829.593 566.486 818.129 566.951C816.371 567.082 814.606 566.812 812.968 566.161C812.275 565.855 811.553 565.394 811.614 564.533C811.665 564.203 811.811 563.894 812.034 563.643C812.256 563.393 812.546 563.212 812.869 563.122C813.638 562.821 814.45 562.284 815.205 562.341C817.521 562.52 817.818 561.118 818.148 559.344C819.248 553.458 820.257 547.545 821.738 541.749C822.838 537.439 821.531 533.497 820.795 529.442C819.63 522.893 818.323 516.368 817.021 509.579C820.064 509.579 822.984 509.489 825.895 509.612C827.31 509.673 827.829 509.113 828.018 507.862C828.357 505.641 828.697 503.416 829.122 501.209C829.371 499.731 829.147 498.211 828.48 496.867C823.536 485.576 819.045 474.13 816.837 461.94C815.813 456.337 815.341 450.715 816.544 445.07C818.186 437.349 823.531 433.026 831.461 432.969H833.396C832.193 426.825 830.924 420.77 829.839 414.687C827.192 399.906 825.173 385.048 825.211 369.994C825.239 360.453 826.244 351.001 830.721 342.321C832.844 338.214 835.637 334.709 840.741 334.182C842.001 334.055 841.85 333.359 841.812 332.442C841.217 317.11 839.835 301.862 837.755 286.643C834.981 266.319 830.759 246.315 824.602 226.739C814.785 195.548 800.42 166.746 779.313 141.506C762.143 120.837 741.035 103.766 717.21 91.28C712.493 88.8195 706.921 88.0338 701.708 86.5754C674.32 78.9102 646.473 72.9831 618.334 68.8297C588.887 64.5047 559.201 61.9909 529.445 61.3023C528.393 61.2788 527.341 61.1847 525.501 61.0765C527.279 62.2385 528.411 63.0289 529.596 63.7299C530.317 64.158 530.747 64.5109 530.247 65.4471C529.699 66.4586 529.072 66.054 528.402 65.7482C525.897 64.6097 523.349 63.5558 520.915 62.295C518.764 61.18 516.542 60.8836 514.16 60.8554C482.552 60.6437 450.943 61.7963 419.402 63.777C390.7 65.56 362.035 67.837 333.343 69.78C310.08 71.3607 286.808 72.9085 263.484 73.4825C255.625 73.6754 247.77 73.953 239.896 74.1506C239.323 74.2001 238.746 74.1147 238.212 73.9012C280.256 50.1713 325.455 37.2948 373.537 34.3592C421.619 31.4235 468.068 38.6639 512.848 56.4942C512.938 56.3061 513.023 56.1179 513.107 55.9344L469.394 28.342C454.831 19.1681 440.244 9.93295 425.7 0.0439095C430.483 0.0439095 435.267 -0.0548868 440.051 0.0439095C450.08 0.293253 460.105 0.514368 470.125 1.1636C487.738 2.29897 505.27 4.14317 522.722 6.6962C546.182 10.0964 569.37 15.1588 592.109 21.845C624.165 31.3812 654.697 44.2858 682.536 63.043C691.369 68.9256 699.738 75.4747 707.568 82.6329C709.62 84.5148 711.96 85.8791 714.413 87.1399C744.605 102.618 769.826 123.902 789.824 151.278C808.156 176.367 820.592 204.261 829.107 233.98C835.476 256.213 839.486 278.894 841.807 301.89C842.792 311.679 843.515 321.485 843.977 331.308C844.006 331.971 844.157 332.635 844.128 333.293C844.095 334.126 844.51 334.667 845.242 334.644C846.407 334.601 845.794 333.613 845.756 333.129C844.85 321.41 844.086 309.672 844.341 297.92C844.6 285.589 845.067 273.253 848.747 261.318C849.456 259.014 850.385 256.784 851.521 254.656C856.385 245.539 865.909 243.836 873.694 250.742C878.435 254.92 880.506 260.523 881.841 266.427C884.327 277.431 884.303 288.609 883.563 299.778C881.232 334.912 873.425 369.048 864.527 402.982C864.357 403.716 864.183 404.431 863.9 405.551Z" fill="#232221"/>
<path d="M582.893 132.818C580.534 133.331 578.647 132.611 576.76 132.173C568.395 130.259 560.191 127.737 551.903 125.554C542.788 123.159 533.848 124.406 525.196 127.817C514.634 131.99 505.156 137.974 496.56 145.356C494.754 146.908 493.357 147.492 491.201 145.563C487.427 142.185 483.304 139.202 479.308 136.083C475.534 133.119 471.085 131.745 466.41 131.04C460.098 130.099 453.72 130.315 447.398 130.616C440.86 130.922 434.363 132.028 427.91 133.232C424.725 133.82 421.55 134.465 418.366 135.067C417.894 135.156 417.39 135.636 416.979 135.137C416.569 134.639 417.003 134.032 417.239 133.528C419.998 127.633 424.367 123.178 429.698 119.546C435.684 115.477 442.082 112.165 449.299 111.21C453.788 110.657 458.326 110.633 462.82 111.139C472.184 112.189 481.323 114.707 489.899 118.601C491.05 119.113 491.39 118.328 491.984 117.843C499.344 111.897 507.114 106.773 516.28 103.828C530.843 99.152 544.416 101.476 557.418 108.829C563.712 112.45 569.435 116.98 574.401 122.27C577.463 125.502 580.501 128.796 582.893 132.818Z" fill="#F2F1F0"/>
<path d="M151.583 138.641C141.756 135.056 133.349 130.074 124.57 125.868C118.561 122.97 111.875 121.753 105.227 122.349C92.6833 123.318 81.3988 127.646 70.5766 133.569C68.6235 134.637 67.3026 135.089 65.6467 132.925C62.7736 129.161 59.4147 125.788 56.452 122.104C52.8667 117.626 47.8565 115.621 42.6672 114.064C35.2369 111.834 27.5708 111.077 19.8245 110.39C13.8001 109.858 7.80401 110.221 1.80321 109.985C1.2371 109.962 0.515301 110.23 0.156762 109.694C-0.343305 108.95 0.482277 108.452 0.831381 107.995C4.44979 103.187 9.3797 100.068 14.8238 97.8052C20.6076 95.4011 26.5895 93.7404 33.0055 93.9286C39.8083 94.1262 46.0874 96.1962 52.31 98.6332C58.1693 100.91 63.5426 104.105 68.7273 107.61C69.7887 108.325 70.5671 108.372 71.6522 107.765C78.6767 103.841 86.0645 101.014 94.0939 99.7434C104.46 97.9952 115.111 100.051 124.074 105.53C134.963 112.022 142.756 121.422 148.502 132.591C149.45 134.397 150.375 136.246 151.583 138.641Z" fill="#F2F1F0"/>
<path d="M598.189 189.958C593.503 188.729 588.938 187.079 584.551 185.027C575.889 181.061 567.511 182.063 559.179 185.728C555.324 187.341 551.648 189.351 548.211 191.727C546.928 192.668 546.234 192.362 545.3 191.355C543.649 189.586 541.757 188.024 540.196 186.18C536.959 182.379 532.478 181.4 527.93 180.624C523.212 179.815 518.443 179.998 513.692 180.12C510.961 180.186 508.239 180.591 505.512 180.897C504.951 180.958 504.285 181.33 503.927 180.713C503.568 180.097 504.266 179.655 504.578 179.222C507.649 174.917 512.013 172.447 516.844 170.57C522.854 168.218 528.793 169.084 534.704 170.82C538.219 171.85 541.71 173.035 544.805 175.077C546.149 175.962 547.225 175.858 548.617 174.974C554.311 171.361 560.359 168.749 567.289 168.533C573.474 168.335 578.904 170.311 584.013 173.567C589.471 177.044 593.396 181.965 597.043 187.149C597.712 187.942 598.113 188.925 598.189 189.958Z" fill="#F2F1F0"/>
<path d="M402.332 245.287C401.973 245.664 401.723 245.974 401.426 246.228C398.756 248.581 396.062 250.933 393.406 253.285C392.769 253.855 392.297 254.146 391.618 253.285C391.038 252.551 391.292 252.208 391.877 251.7C394.632 249.31 397.35 246.873 400.1 244.478C400.407 244.21 400.704 243.584 401.275 244.121C401.619 244.474 401.926 244.845 402.332 245.287Z" fill="#282827"/>
<path d="M365.192 238.621C363.749 238.399 363.272 238.009 363.48 237.035C364.041 234.452 364.555 231.86 365.112 229.282C365.282 228.487 365.74 228.299 366.57 228.539C367.282 228.741 367.485 228.939 367.301 229.701C366.683 232.269 366.15 234.876 365.589 237.435C365.471 237.985 365.499 238.663 365.192 238.621Z" fill="#292827"/>
<path d="M338.664 236.062C339.136 237.163 338.377 237.262 337.768 237.516C336.938 237.859 336.73 237.285 336.575 236.725C335.858 234.19 335.188 231.635 334.466 229.099C334.221 228.243 334.801 228.22 335.339 227.975C336.084 227.636 336.438 227.904 336.622 228.568C337.329 231.122 338.013 233.667 338.664 236.062Z" fill="#2D2C2B"/>
<path d="M314.797 251.991C314.641 252.777 314.391 253.403 313.486 253.139C311.264 252.476 309.051 251.779 306.838 251.083C306.131 250.857 306.046 250.344 306.23 249.7C306.414 249.055 306.584 248.646 307.423 248.933C309.617 249.681 311.834 250.344 314.028 251.045C314.556 251.205 315.014 251.384 314.797 251.991Z" fill="#292928"/>
<path d="M405.668 268.672C404.611 268.907 404.22 268.625 404.107 267.759C404.003 266.988 404.3 266.743 404.989 266.621C407.107 266.24 409.235 265.849 411.329 265.398C412.249 265.2 412.49 265.656 412.65 266.4C412.811 267.143 412.452 267.482 411.787 267.599L405.668 268.672Z" fill="#2D2D2C"/>
<path d="M311.292 268.203C311.779 268.112 312.27 268.046 312.764 268.005C313.552 267.972 313.679 268.528 313.708 269.158C313.736 269.788 313.59 270.099 312.943 270.169C311.136 270.367 309.33 270.579 307.523 270.791C306.782 270.875 306.263 270.791 306.197 269.85C306.131 268.909 306.579 268.767 307.348 268.692C308.66 268.565 309.966 268.344 311.278 268.161L311.292 268.203Z" fill="#292928"/>
<path d="M27.3447 160.067C27.0888 160.058 26.8373 159.997 26.6056 159.889C26.3739 159.78 26.1668 159.626 25.9969 159.435C25.827 159.244 25.6978 159.02 25.6173 158.778C25.5367 158.535 25.5065 158.279 25.5284 158.025C25.5284 156.693 26.3823 155.922 27.7787 156.002C29.0902 156.077 29.7271 156.943 29.6658 158.133C29.6044 159.323 28.8543 160.076 27.3447 160.067Z" fill="#2D2D2C"/>
<path d="M194.726 84.8582C195.797 84.8017 196.528 85.6344 196.58 86.7729C196.636 88.0714 195.83 88.9417 194.428 88.937C193.108 88.937 192.475 88.0667 192.466 86.8717C192.456 85.6768 193.131 84.8817 194.726 84.8582Z" fill="#2D2D2C"/>
<path d="M792.414 172.551C791.258 172.321 790.413 171.813 790.38 170.481C790.347 169.15 791.107 168.425 792.296 168.374C793.607 168.322 794.499 169.032 794.471 170.481C794.461 171.794 793.57 172.293 792.414 172.551Z" fill="#2F2F2E"/>
<path d="M274.762 278.765C273.522 278.657 272.819 277.966 272.819 276.705C272.819 275.444 273.446 274.696 274.767 274.672C276.182 274.649 276.933 275.472 276.885 276.804C276.843 278.027 276.05 278.709 274.762 278.765Z" fill="#2E2E2D"/>
<path d="M794.348 95.3879C794.126 96.5452 793.565 97.4109 792.282 97.4297C790.867 97.4297 790.201 96.5264 790.23 95.2138C790.258 93.9013 791.022 93.332 792.324 93.332C793.626 93.332 794.164 94.2259 794.348 95.3879Z" fill="#2F2E2D"/>
<path d="M790.436 78.7424C789.195 78.5589 788.422 77.9802 788.45 76.6253C788.478 75.2704 789.299 74.6259 790.521 74.6447C790.796 74.6266 791.071 74.6688 791.328 74.7681C791.584 74.8674 791.816 75.0216 792.007 75.2197C792.197 75.4179 792.342 75.6552 792.431 75.9151C792.52 76.175 792.551 76.4511 792.521 76.7241C792.493 78.0273 791.663 78.6247 790.436 78.7424Z" fill="#292928"/>
<path d="M182.276 74.6908C181.073 74.6108 180.247 73.9898 180.177 72.7478C180.136 72.4589 180.162 72.1646 180.252 71.8869C180.342 71.6092 180.493 71.3553 180.695 71.1441C180.897 70.9329 181.144 70.7699 181.417 70.6672C181.691 70.5644 181.985 70.5246 182.276 70.5508C183.455 70.5508 184.224 71.2988 184.239 72.602C184.253 73.9051 183.54 74.5261 182.276 74.6908Z" fill="#2D2D2C"/>
<path d="M312.685 383.734C312.496 384.924 311.977 385.837 310.699 385.893C309.316 385.954 308.5 385.145 308.51 383.799C308.51 382.595 309.198 381.833 310.538 381.828C311.878 381.823 312.416 382.619 312.685 383.734Z" fill="#2C2C2B"/>
<path d="M776.736 245.708C775.486 245.557 774.688 244.903 774.665 243.661C774.641 242.419 775.217 241.638 776.585 241.61C777.953 241.582 778.807 242.349 778.783 243.671C778.764 244.856 777.958 245.581 776.736 245.708Z" fill="#2C2C2B"/>
<path d="M318.736 398.668C320.128 398.767 320.854 399.35 320.873 400.677C320.892 402.004 320.142 402.733 318.953 402.761C318.663 402.794 318.369 402.762 318.093 402.667C317.817 402.572 317.566 402.417 317.358 402.212C317.149 402.008 316.99 401.76 316.89 401.486C316.791 401.212 316.754 400.92 316.783 400.63C316.788 399.303 317.726 398.833 318.736 398.668Z" fill="#2F2E2D"/>
<path d="M293.672 330.34C293.672 331.822 292.922 332.645 291.747 332.693C290.469 332.754 289.553 332.053 289.563 330.604C289.563 329.296 290.318 328.604 291.558 328.595C291.812 328.571 292.068 328.597 292.312 328.671C292.555 328.746 292.782 328.868 292.978 329.03C293.174 329.192 293.337 329.392 293.456 329.616C293.575 329.841 293.648 330.087 293.672 330.34Z" fill="#2E2D2C"/>
<path d="M787.452 209.657C785.985 209.614 785.164 208.927 785.093 207.723C785.036 206.424 785.73 205.545 787.183 205.559C788.494 205.559 789.164 206.326 789.178 207.554C789.226 208.06 789.071 208.565 788.748 208.959C788.425 209.352 787.959 209.603 787.452 209.657Z" fill="#2E2E2D"/>
<path d="M357.422 443.462C356.285 443.166 355.422 442.639 355.445 441.317C355.478 439.873 356.389 439.224 357.691 439.294C358.993 439.365 359.578 440.183 359.526 441.463C359.474 442.743 358.535 443.222 357.422 443.462Z" fill="#2D2D2C"/>
<path d="M375.81 450.544C375.744 451.875 375.126 452.68 373.857 452.741C373.587 452.773 373.314 452.749 373.055 452.67C372.795 452.59 372.555 452.458 372.35 452.281C372.145 452.104 371.979 451.886 371.863 451.641C371.747 451.396 371.684 451.13 371.677 450.859C371.637 450.57 371.663 450.276 371.751 449.997C371.84 449.719 371.989 449.464 372.189 449.25C372.388 449.037 372.633 448.87 372.905 448.763C373.178 448.656 373.47 448.61 373.763 448.629C374.989 448.611 375.697 449.377 375.81 450.544Z" fill="#2F2F2E"/>
<path d="M30.0478 137.254C31.3215 137.409 32.0528 138.021 32.0339 139.333C32.0555 139.603 32.0187 139.873 31.9259 140.127C31.8332 140.381 31.6868 140.612 31.4965 140.805C31.3063 140.997 31.0768 141.146 30.8235 141.242C30.5703 141.338 30.2993 141.379 30.0289 141.361C28.7316 141.361 27.8588 140.589 27.9485 139.155C28.0192 137.856 28.8495 137.32 30.0478 137.254Z" fill="#2E2D2C"/>
<path d="M391.558 454.781C392.757 454.913 393.592 455.506 393.601 456.785C393.63 457.076 393.594 457.369 393.495 457.644C393.396 457.918 393.237 458.167 393.029 458.372C392.821 458.578 392.569 458.734 392.293 458.83C392.016 458.925 391.722 458.958 391.431 458.926C390.242 458.884 389.511 458.103 389.544 456.8C389.577 455.496 390.337 454.932 391.558 454.781Z" fill="#2C2C2B"/>
<path d="M788.167 60.1116C787.896 60.1116 787.627 60.0583 787.377 59.9548C787.126 59.8512 786.898 59.6994 786.706 59.5081C786.514 59.3167 786.362 59.0896 786.258 58.8396C786.155 58.5896 786.101 58.3216 786.101 58.051C786.101 57.7804 786.155 57.5124 786.258 57.2624C786.362 57.0124 786.514 56.7853 786.706 56.5939C786.898 56.4026 787.126 56.2508 787.377 56.1472C787.627 56.0437 787.896 55.9904 788.167 55.9904C788.438 55.9688 788.71 56.0056 788.965 56.0983C789.22 56.1911 789.452 56.3376 789.645 56.5278C789.838 56.718 789.987 56.9475 790.083 57.2007C790.179 57.4538 790.219 57.7246 790.201 57.9945C790.229 59.246 789.54 59.9752 788.167 60.1116Z" fill="#2E2E2D"/>
<path d="M34.6705 123.082C33.4581 123.219 32.7221 122.41 32.6183 121.262C32.5004 119.954 33.2647 119.051 34.6611 119.013C35.949 118.975 36.6566 119.775 36.6991 121.003C36.7415 122.231 36.1801 123.054 34.6705 123.082Z" fill="#2E2E2D"/>
<path d="M784.899 225.635C784.701 226.929 784.126 227.794 782.861 227.851C781.474 227.912 780.663 227.131 780.691 225.762C780.672 225.491 780.712 225.218 780.808 224.964C780.904 224.71 781.054 224.479 781.249 224.288C781.443 224.097 781.676 223.95 781.932 223.858C782.189 223.766 782.462 223.73 782.734 223.753C784.013 223.739 784.579 224.628 784.899 225.635Z" fill="#2E2E2D"/>
<path d="M135.015 48.9193C134.959 50.58 134.138 51.1728 132.916 51.121C131.694 51.0693 130.878 50.3918 130.92 49.0886C130.967 47.7055 131.864 46.9292 133.175 47.0468C134.308 47.1503 135.143 47.8749 135.015 48.9193Z" fill="#2E2E2D"/>
<path d="M65.9013 73.4671C65.7267 74.8785 65.0615 75.5418 63.7595 75.5089C63.4903 75.5245 63.2208 75.4825 62.9693 75.3855C62.7178 75.2885 62.49 75.139 62.3014 74.9468C62.1127 74.7547 61.9676 74.5244 61.8757 74.2716C61.7838 74.0188 61.7473 73.7493 61.7686 73.4812C61.7922 72.1734 62.6272 71.3548 64.0237 71.4442C65.321 71.5241 65.755 72.4603 65.9013 73.4671Z" fill="#2E2E2D"/>
<path d="M792.498 188.916C792.248 190.36 791.611 191.136 790.3 191.103C788.988 191.07 788.347 190.308 788.38 189.01C788.413 187.711 789.125 187.029 790.437 187.043C791.748 187.057 792.22 188.012 792.498 188.916Z" fill="#2A2A29"/>
<path d="M240.367 169.99C240.141 171.162 239.457 172.013 238.239 171.971C237.95 171.985 237.66 171.935 237.392 171.824C237.124 171.713 236.884 171.544 236.689 171.33C236.494 171.115 236.35 170.86 236.267 170.582C236.183 170.305 236.162 170.013 236.206 169.727C236.301 168.456 237.15 167.798 238.381 167.873C239.612 167.948 240.24 168.753 240.367 169.99Z" fill="#2D2D2C"/>
<path d="M233.017 152.312C232.984 153.667 232.423 154.476 231.083 154.523C229.743 154.57 229.003 153.855 228.955 152.59C228.908 151.324 229.578 150.524 230.894 150.468C232.211 150.411 232.904 151.136 233.017 152.312Z" fill="#2B2B2A"/>
<path d="M795.941 132.947C795.767 134.208 795.083 134.975 793.795 134.938C793.519 134.95 793.243 134.904 792.987 134.801C792.731 134.698 792.5 134.542 792.309 134.343C792.119 134.144 791.973 133.906 791.883 133.645C791.792 133.385 791.759 133.109 791.785 132.835C791.785 131.574 792.577 130.854 793.894 130.896C795.21 130.939 795.833 131.696 795.941 132.947Z" fill="#2C2C2B"/>
<path d="M80.9256 62.3518C80.8501 63.5421 80.1943 64.3371 78.9536 64.3795C78.6619 64.4153 78.3658 64.3843 78.0879 64.2889C77.81 64.1935 77.5575 64.0362 77.3497 63.829C77.1419 63.6217 76.9842 63.3699 76.8885 63.0928C76.7928 62.8156 76.7618 62.5204 76.7977 62.2295C76.7904 61.9594 76.8414 61.691 76.9474 61.4424C77.0534 61.1938 77.2118 60.9709 77.4119 60.7888C77.6119 60.6067 77.849 60.4697 78.1069 60.3871C78.3648 60.3044 78.6375 60.2782 78.9064 60.31C80.2462 60.3476 80.8265 61.0533 80.9256 62.3518Z" fill="#2D2D2C"/>
<path d="M299.447 348.519C299.357 349.789 298.683 350.589 297.399 350.566C296.869 350.536 296.371 350.303 296.008 349.916C295.645 349.529 295.445 349.017 295.451 348.487C295.456 347.957 295.666 347.45 296.037 347.071C296.408 346.691 296.911 346.468 297.442 346.449C298.697 346.473 299.423 347.216 299.447 348.519Z" fill="#2C2C2B"/>
<path d="M95.9808 52.4609C97.1555 52.6585 97.9811 53.2984 97.9858 54.578C98.0103 54.8518 97.9743 55.1277 97.8803 55.3862C97.7864 55.6447 97.6368 55.8795 97.4421 56.0741C97.2474 56.2687 97.0123 56.4185 96.7533 56.5127C96.4943 56.607 96.2177 56.6435 95.9431 56.6198C95.6675 56.6392 95.391 56.5995 95.1321 56.5034C94.8732 56.4074 94.638 56.2571 94.4422 56.0627C94.2464 55.8684 94.0947 55.6345 93.9971 55.3768C93.8996 55.119 93.8586 54.8435 93.8768 54.5686C93.8768 53.383 94.6788 52.6209 95.9808 52.4609Z" fill="#2A2A29"/>
<path d="M205.48 100.387C206.528 100.463 207.268 101.178 207.226 102.443C207.242 102.718 207.197 102.993 207.095 103.248C206.992 103.504 206.835 103.734 206.634 103.922C206.433 104.111 206.193 104.253 205.931 104.339C205.669 104.424 205.391 104.452 205.117 104.419C203.876 104.367 203.15 103.615 203.164 102.302C203.178 100.99 203.924 100.364 205.48 100.387Z" fill="#292928"/>
<path d="M795.584 151.745C795.476 153.043 794.782 153.702 793.452 153.627C792.121 153.551 791.428 152.803 791.494 151.533C791.481 151.257 791.529 150.981 791.635 150.725C791.741 150.47 791.902 150.24 792.107 150.054C792.312 149.868 792.556 149.728 792.821 149.647C793.086 149.565 793.366 149.542 793.641 149.581C794.886 149.647 795.584 150.423 795.584 151.745Z" fill="#323130"/>
<path d="M223.437 137.482C222.05 137.397 221.22 136.776 221.149 135.501C221.079 134.226 221.758 133.431 223.036 133.37C223.31 133.332 223.588 133.353 223.852 133.432C224.117 133.511 224.361 133.646 224.568 133.828C224.776 134.01 224.941 134.234 225.054 134.485C225.166 134.737 225.223 135.009 225.221 135.285C225.357 136.56 224.532 137.261 223.437 137.482Z" fill="#2C2C2B"/>
<path d="M216.75 118.592C216.552 119.749 216.042 120.563 214.665 120.586C213.287 120.61 212.594 119.895 212.584 118.643C212.561 118.369 212.596 118.092 212.688 117.832C212.78 117.572 212.927 117.335 213.119 117.136C213.31 116.937 213.542 116.782 213.799 116.68C214.056 116.578 214.332 116.532 214.608 116.545C215.887 116.512 216.547 117.331 216.75 118.592Z" fill="#2C2C2A"/>
<path d="M53.4983 87.5646C53.3237 88.7502 52.7435 89.5123 51.4037 89.5311C50.0639 89.5499 49.3798 88.8254 49.3893 87.5458C49.3987 86.2662 50.1346 85.4758 51.4037 85.4805C52.6727 85.4852 53.3379 86.285 53.4983 87.5646Z" fill="#2A2A29"/>
<path d="M170.099 60.3184C169.896 61.6733 169.325 62.4731 167.99 62.4778C166.655 62.4825 165.962 61.885 165.985 60.516C166.009 59.147 166.684 58.4695 167.953 58.4272C169.222 58.3848 169.793 59.3257 170.099 60.3184Z" fill="#2A2928"/>
<path d="M785.563 41.4611C783.888 41.414 783.313 40.6613 783.36 39.3628C783.407 38.0644 784.247 37.3775 785.469 37.4198C785.745 37.4075 786.021 37.4561 786.277 37.5621C786.533 37.6681 786.762 37.829 786.948 38.0333C787.135 38.2377 787.274 38.4804 787.356 38.7443C787.437 39.0082 787.46 39.2869 787.422 39.5604C787.36 40.8213 786.554 41.4752 785.563 41.4611Z" fill="#292928"/>
<path d="M305.735 366.298C305.612 367.577 304.909 368.363 303.659 368.354C303.387 368.375 303.113 368.337 302.856 368.242C302.6 368.148 302.367 367.998 302.174 367.805C301.981 367.612 301.832 367.379 301.739 367.123C301.645 366.867 301.608 366.593 301.631 366.321C301.631 365.023 302.324 364.317 303.645 364.313C304.966 364.308 305.584 365.075 305.735 366.298Z" fill="#292927"/>
<path d="M793.249 116.15C791.937 115.995 791.31 115.289 791.39 113.967C791.47 112.645 792.268 112.001 793.518 112.086C793.793 112.083 794.066 112.139 794.318 112.25C794.57 112.361 794.796 112.525 794.979 112.731C795.162 112.937 795.298 113.179 795.379 113.442C795.46 113.705 795.483 113.982 795.447 114.254C795.376 115.487 794.49 116.108 793.249 116.15Z" fill="#2B2B2A"/>
<path d="M332.039 416.033C332.021 416.539 331.803 417.017 331.432 417.363C331.062 417.71 330.57 417.896 330.062 417.882C328.699 417.915 327.892 417.106 327.911 415.746C327.911 414.462 328.826 413.789 330.011 413.789C331.195 413.789 331.973 414.518 332.039 416.033Z" fill="#2C2C2B"/>
<path d="M153.451 52.0241C153.3 53.3084 152.588 54.0706 151.361 54.0941C150.135 54.1176 149.29 53.379 149.29 52.1276C149.29 50.8056 150.059 49.9352 151.456 49.9823C152.706 50.0246 153.31 50.8715 153.451 52.0241Z" fill="#2D2C2B"/>
<path d="M114.166 48.293C115.402 48.293 116.227 48.9328 116.312 50.203C116.353 50.4752 116.334 50.7529 116.255 51.0167C116.177 51.2805 116.041 51.524 115.858 51.7299C115.675 51.9358 115.449 52.0991 115.196 52.2084C114.942 52.3177 114.668 52.3703 114.392 52.3624C113.119 52.4518 112.335 51.7508 112.255 50.4571C112.175 49.1633 112.817 48.4294 114.166 48.293Z" fill="#282827"/>
<path d="M344.914 429.37C344.872 430.682 344.287 431.454 342.966 431.492C341.645 431.529 340.933 430.88 340.89 429.572C340.848 428.264 341.527 427.535 342.81 427.483C344.093 427.431 344.782 428.151 344.914 429.37Z" fill="#252524"/>
<path d="M161.584 566.654L160.32 566.099C161.806 565.708 163.235 565.581 164.632 566.16C163.665 566.626 162.48 565.77 161.584 566.654Z" fill="#BDBCBC"/>
<path d="M623.169 259.269L619.951 262.792C619.418 261.894 620.06 260.492 618.838 260.44C617.852 260.393 617.423 261.48 617.064 262.322C616.998 262.472 616.856 262.637 616.871 262.792C617.342 266.815 614.04 268.626 611.988 271.185C611.516 271.769 611.007 272.319 610.54 272.907C607.152 277.179 607.577 279.795 612.309 282.881C613.332 283.549 613.696 283.869 612.875 285.069C609.893 289.453 610.629 291.584 615.705 293.683C616.772 294.13 617.899 294.421 619.711 295.023C615.602 295.767 612.356 295.23 609.436 293.485C607.723 292.464 607.138 292.986 606.699 294.567C606.077 296.806 605.284 299.013 604.812 301.285C603.666 306.987 605.35 310.318 610.606 312.863C615.375 315.173 620.536 316.232 625.702 317.314C629.004 318.015 632.382 318.593 636.024 319.285C633.316 323.049 630.835 326.577 628.231 330.002C627.169 331.385 626.636 332.594 627.542 334.236C627.933 334.947 627.933 335.869 628.292 336.588C629.235 338.541 629.188 340.155 627.212 341.481C625.475 342.653 625.749 344.271 626.075 346.12C629.377 364.811 633.061 383.423 637.293 401.926C637.463 402.655 637.666 403.375 637.873 404.184C639.383 403.742 640.378 402.603 641.534 401.738C652.767 393.33 664.217 385.187 674.336 375.392C680.941 368.98 686.904 362.017 691.791 354.165C692.367 353.224 692.834 352.848 691.475 351.812C689.262 350.128 689.187 347.136 688.578 344.567C688.347 343.627 689.31 343.579 689.89 343.434C692.64 342.737 695.381 341.909 698.174 341.509C699.886 341.26 700.302 340.427 700.637 339.002C701.906 333.578 703.316 328.181 704.604 322.762C704.981 321.172 705.548 320.475 707.435 320.687C714.082 321.43 720.767 321.44 727.461 321.463C732.179 321.463 735.806 319.69 738.939 316.373C743.657 311.367 746.298 305.444 746.487 298.618C746.629 293.146 743.185 289.543 739.043 286.588C733.113 282.354 726.263 280.19 719.337 278.27C714.114 276.799 708.814 275.608 703.462 274.704C701.679 274.413 701.104 273.674 701.132 271.811C701.212 263.968 701.132 256.126 701.014 248.288C701.014 246.943 701.283 246.406 702.774 246.406C727.89 246.486 751.365 252.287 772.524 266.198C776.803 268.981 780.74 272.256 784.252 275.956C791.587 283.779 792.88 293.363 791.771 303.468C790.186 317.939 784.403 331.004 777.713 343.725C770.905 356.654 762.815 368.777 754.181 380.548C752.822 382.345 751.864 384.411 751.37 386.608C743.057 423.111 726.102 454.956 699.476 481.494C683.021 497.909 663.764 510.136 642.181 518.778C640.662 519.39 639.543 519.155 638.208 518.449C620.083 508.856 607.242 494.187 597.505 476.503C588.678 460.465 582.729 443.27 576.96 425.999C573.936 416.933 570.982 407.844 567.911 398.797C567.345 397.136 567.534 396.741 569.407 396.327C590.825 391.623 605.888 379.217 614.384 358.959C615.144 357.147 614.785 356.362 613.153 355.284C604.661 349.7 597.193 342.911 589.81 335.996C580.72 327.476 571.997 318.612 564.227 308.855C562.057 306.108 560.087 303.209 558.334 300.18C556.787 297.536 556.947 295.132 558.311 292.459C561.929 285.351 567.034 279.465 572.935 274.229C586.862 261.913 603.256 254.108 620.777 248.354C622.697 247.724 623.815 248.354 624.324 250.269C624.796 251.953 625.216 253.647 625.74 255.312C626.211 256.827 625.57 257.5 624.145 257.702C622.013 257.232 620.319 255.43 617.597 255.552C619.338 257.42 622.159 257.057 623.169 259.269Z" fill="white"/>
<path d="M780.264 343.559C783.268 349.576 785.923 355.76 788.218 362.081C794.398 378.97 797.823 396.424 797.871 414.372C797.937 438.365 791.096 460.515 778.679 480.918C756.841 516.814 725.309 540.864 686.044 555.171C664.136 563.169 641.42 567.125 618.144 567.958C592.956 568.861 568.019 567.059 543.653 560.21C528.872 556.055 515.281 549.54 503.751 539.157C488.707 525.617 482.725 508.577 483.866 488.719C484.248 482.052 485.036 475.456 487.73 469.072C495.585 475.052 503.298 481.045 511.143 486.856C519.857 493.301 528.075 500.461 537.69 505.622C552.012 513.314 567.41 517.308 583.549 518.696C597.9 519.985 612.366 518.693 626.258 514.881C626.727 514.736 627.225 514.71 627.706 514.805C628.188 514.899 628.639 515.111 629.018 515.422C631.91 517.412 635 519.059 638.043 520.804C639.609 521.698 640.901 521.651 642.491 521.016C676.386 507.529 703.534 485.7 723.936 455.528C738.429 434.145 748.581 410.872 753.851 385.542C754.001 384.812 754.303 384.121 754.737 383.515C764.059 370.831 772.749 357.743 780.264 343.559Z" fill="white"/>
<path d="M625.367 512.904C610.445 516.94 594.878 518.04 579.535 516.14C562.665 514.099 546.625 509.441 532.472 499.848C523.424 493.732 514.852 486.878 506.115 480.301C499.444 475.283 492.82 470.197 486.244 465.044C484.98 464.051 484.409 464.348 483.508 465.387C480.694 468.737 477.667 471.901 474.445 474.862C476.134 469.979 477.776 465.077 479.522 460.212C485.362 443.925 491.731 427.868 500.51 412.875C502.529 409.431 502.595 409.464 506.417 410.184C520.64 412.875 534.251 417.711 547.899 422.289C548.8 422.59 549.668 423.31 550.729 422.867C550.729 422.124 550.078 421.903 549.635 421.588C538.312 413.533 526.268 406.764 513.21 401.923C507.271 399.721 505.983 400.281 502.444 405.625C494.641 417.41 488.763 430.178 483.574 443.262C474.929 465.05 467.715 487.377 461.977 510.1C461.566 511.713 461.104 512.113 459.344 511.859C446.449 510.018 433.534 508.279 420.599 506.642C418.966 506.43 418.49 505.932 418.778 504.29C423.156 479.511 429.293 455.197 437.978 431.552C443.915 415.311 450.763 399.416 458.49 383.942C461.83 377.275 465.779 370.995 471.558 366.111C479.88 359.054 489.707 356.98 500.336 357.572C511.092 358.17 520.499 362.437 529.401 368.092C541.19 375.574 552.08 384.379 561.858 394.334C565.392 397.933 566.915 402.228 568.401 406.707C574.572 425.323 580.195 444.132 588.06 462.141C594.938 477.902 603.42 492.636 615.894 504.784C618.881 507.682 622.045 510.393 625.367 512.904Z" fill="white"/>
<path d="M617.093 282.871C615.47 282.005 613.87 281.483 612.545 280.434C610.115 278.51 609.813 277.103 611.828 274.788C615.073 271.09 618.381 267.44 621.82 263.916C626.367 259.258 631.071 254.747 635.689 250.15C636.435 249.407 637.058 248.781 638.256 249.369C643.573 251.962 648.823 254.638 653.532 258.308C656.914 260.938 658.31 264.137 657.216 268.357C656.4 271.495 655.612 274.642 654.961 277.818C654.843 278.401 653.758 279.441 655.178 279.836C656.367 280.166 657.73 281.106 658.796 279.596C659.806 278.185 660.797 276.736 662.188 275.626C663.302 274.736 664.505 274.214 665.882 274.812C667.26 275.409 667.944 276.694 667.897 278.26C667.75 282.998 665.651 286.935 662.528 290.295C661.113 291.791 661.485 292.129 663.085 292.901C666.859 294.698 670.425 296.843 674.199 298.589C675.86 299.356 676.006 300.311 675.893 301.882C675.129 312.486 670.01 321.171 663.627 329.22C659.954 333.813 655.728 337.939 651.045 341.504C648.531 335.628 646.163 329.879 643.285 324.365C642.898 323.627 642.492 322.902 642.148 322.145C640.615 318.757 638.161 317.148 634.288 316.636C627.363 315.718 620.475 314.335 613.875 311.879C612.47 311.364 611.12 310.708 609.846 309.922C607.393 308.393 606.332 306.215 606.671 303.364C606.754 302.452 606.899 301.546 607.105 300.654C607.506 299.13 607.577 297.206 608.596 296.246C609.615 295.286 611.224 296.82 612.625 297.074C616.583 297.798 620.447 297.629 624.193 296.133C625.047 295.794 626.344 295.474 626.122 294.181C625.9 292.887 624.707 293.037 623.697 292.976C620.607 292.788 617.564 292.449 614.823 290.76C613.182 289.744 612.535 288.733 614.045 287.03C615.13 285.695 616.147 284.307 617.093 282.871Z" fill="white"/>
<path d="M432.483 440.547C429.841 448.672 427.411 456.599 425.265 464.611C421.618 478.207 418.82 491.982 416.301 505.823C415.962 507.677 416.49 508.255 418.278 508.467C423.67 509.102 429.039 509.878 434.79 510.655C432.313 513.887 430.006 516.902 427.713 519.909C427.406 520.304 427.142 520.619 426.505 520.252C421.844 517.594 418.462 519.885 415.655 523.376C409.847 530.645 402.446 536.078 395.081 541.573C394.086 542.321 393.35 542.472 392.189 541.921C385.585 538.769 378.941 535.677 372.258 532.644C370.871 532.014 370.621 531.534 371.536 530.174C391.35 500.708 411.137 471.226 430.897 441.728C431.209 441.281 431.374 440.613 432.483 440.547Z" fill="white"/>
<path d="M721.692 319.2C711.219 319.289 700.883 317.901 690.556 316.208C689.612 316.048 688.627 315.921 687.966 314.961C685.697 311.668 682.659 309.203 679.286 307.147C678.059 306.399 677.705 305.594 677.729 304.126C677.79 300.899 678.672 298.199 680.942 295.78C682.676 293.96 684.15 291.91 685.324 289.688C686.504 287.411 688.188 286.583 690.575 286.315C708.384 284.315 725.509 286.503 741.78 294.313C743.639 295.207 744.431 296.387 744.304 298.368C743.752 306.784 740.19 313.493 733.071 318.217C731.741 319.101 730.193 319.049 728.731 319.158C726.367 319.327 724.032 319.2 721.692 319.2Z" fill="white"/>
<path d="M374.122 561.037C384.067 552.399 394.587 544.623 405.051 536.78C410.061 533.016 414.014 528.312 418.26 523.828C419.118 522.93 419.958 522.012 421.213 521.575C423.572 520.766 425.511 521.499 426.101 523.852C427.327 528.749 429.134 527.954 432.45 526.637C435.352 525.484 437.8 523.941 439.65 521.161C442.291 517.19 446.726 515.816 451.165 514.715C452.071 514.49 452.293 515.186 452.581 515.788C455.029 521.067 457.482 526.336 459.185 531.92C459.718 533.651 459.548 534.639 457.543 535.162C454.081 536.065 450.651 537.128 447.278 538.318C445.929 538.789 445.287 538.648 444.919 537.265C444.683 536.324 444.565 535.256 443.221 535.11C442.637 535.022 442.04 535.119 441.514 535.386C440.988 535.654 440.558 536.078 440.286 536.601C437.928 540.567 434.22 542.515 429.955 543.959C412.273 549.944 394.648 556.088 376.589 560.896C375.848 561.089 375.07 561.366 374.122 561.037Z" fill="white"/>
<path d="M649.268 392.376C658.378 381.692 663.784 369.177 667.403 355.793C667.899 354.123 668.756 352.582 669.912 351.276C677.371 342.197 682.787 331.865 687.99 321.431C689.137 319.139 690.08 317.907 692.958 318.735C695.737 319.539 698.723 319.638 701.615 320.066C702.44 320.189 703.101 320.184 702.724 321.544C701.233 326.913 699.876 332.317 698.652 337.755C698.369 338.998 697.812 339.336 696.737 339.576C693.647 340.277 690.604 341.124 687.495 341.811C686.424 342.046 685.745 342.375 686.08 343.594C686.891 346.633 687.118 349.889 689.052 352.533C689.849 353.619 689.156 354.198 688.679 354.932C683.103 363.551 676.177 370.998 668.549 377.81C662.447 383.263 656.038 388.363 649.353 393.086C649.296 393.048 649.248 392.999 649.213 392.941C649.177 392.883 649.154 392.818 649.146 392.75C649.138 392.683 649.145 392.614 649.166 392.55C649.187 392.485 649.222 392.426 649.268 392.376Z" fill="white"/>
<path d="M382.199 551.396C379.411 553.748 376.736 555.941 374.108 558.199C373.032 559.14 372.046 560.147 371.056 561.158C370.763 561.404 370.559 561.738 370.474 562.11C370.389 562.481 370.427 562.871 370.584 563.219C370.952 563.986 371.73 563.807 372.363 563.779C375.99 563.637 379.406 562.466 382.831 561.459C389.863 559.402 396.866 557.244 403.838 554.986C405.603 554.412 406.07 554.877 406.108 556.51C406.164 559.088 406.287 561.661 406.367 564.24C406.419 565.943 405.825 566.775 403.871 566.686C400.281 566.526 396.677 566.559 393.082 566.686C391.488 566.738 391.11 566.216 391.139 564.696C391.181 562.344 389.252 561.073 387.638 562.579C382.411 567.481 375.915 566.921 369.659 567.1C354.7 567.523 339.74 567.999 324.771 567.641C322.04 567.575 319.318 567.363 315.902 567.171C320.445 564.818 324.611 563.294 328.748 561.727C336.06 558.956 343.373 556.232 350.761 553.607C356.434 551.652 361.853 549.025 366.9 545.783C368.35 544.802 369.896 543.968 371.513 543.295C374.495 542.1 376.873 543.619 377.108 546.682C377.448 550.926 377.448 550.926 382.199 551.396Z" fill="white"/>
<path d="M657.56 358.941C655.432 354.561 653.46 350.251 651.253 346.064C650.389 344.436 651.488 344.037 652.352 343.345C660.768 336.58 667.958 328.789 672.93 319.116C674.462 316.166 675.725 313.085 676.704 309.909C677.077 308.686 677.497 308.498 678.591 309.232C681.573 311.269 684.384 313.466 686.47 316.468C687.003 317.23 687.451 317.907 686.941 318.923C681.219 329.923 675.761 341.087 667.599 350.595C664.73 353.903 661.339 356.722 657.56 358.941Z" fill="white"/>
<path d="M642.907 358.37C643.936 358.454 643.851 357.217 644.889 357.17L637.77 392.638H637.298C635.274 382.532 633.232 372.436 631.241 362.326C630.231 357.189 629.354 352.023 628.34 346.886C627.962 344.933 627.868 343.188 629.788 341.88C631.439 340.77 631.835 339.292 630.816 337.434C628.929 334 629.472 331.012 632.199 328.072C634.392 325.72 636.081 322.897 638.152 320.074C640.742 323.466 642.271 327.216 644.049 330.834C644.521 331.826 643.78 332.203 643.332 332.715C641.535 334.795 639.704 336.851 637.874 338.907C637.256 339.598 636.789 340.158 637.185 341.283C639.171 346.98 641.025 352.724 642.907 358.37Z" fill="white"/>
<path d="M650.248 384.823C651.248 375.253 652.248 365.68 653.328 355.367C654.38 357.47 655.215 358.882 655.8 360.378C656.362 361.789 657.069 361.85 658.206 361.088C660.16 359.785 662.146 358.529 664.49 357.014C661.66 368.305 657.555 378.401 650.337 387.057C649.899 386.333 650.026 385.58 650.248 384.823Z" fill="white"/>
<path d="M692.965 267.92C693.592 259.296 688.917 254.032 682.289 249.445C687.548 248.561 692.949 249.073 697.946 250.931C698.847 251.265 698.777 252.056 698.786 252.813C698.838 256.473 698.786 260.138 699.013 263.789C699.126 265.596 698.418 266.334 696.814 266.711C695.616 266.988 694.455 267.444 692.965 267.92Z" fill="white"/>
<path d="M643.807 354.313C642.293 349.707 640.977 345.609 639.562 341.549C639.437 341.25 639.411 340.919 639.486 340.604C639.562 340.289 639.735 340.005 639.981 339.794C641.43 338.19 642.911 336.614 644.279 334.944C645.322 333.669 645.652 334.408 646.058 335.391C646.916 337.451 647.846 339.484 648.667 341.558C648.902 342.161 649.525 342.918 648.534 343.511C647.699 344.01 648.063 344.72 648.435 345.205C649.539 346.719 649.006 347.834 647.888 349.076C646.544 350.61 645.364 352.323 643.807 354.313Z" fill="#FEFEFE"/>
<path d="M449.94 512.761C444.104 514.441 439.613 516.723 436.622 521.535C435.183 523.845 432.287 524.49 429.739 525.224C428.725 525.516 427.795 523.568 428.583 522.49C431.282 518.802 434.117 515.212 436.891 511.576C437.401 510.912 438.103 511.105 438.731 511.171C442.274 511.646 445.812 512.169 449.94 512.761Z" fill="#FEFEFE"/>
<path d="M391.586 544.008C388.609 546.897 385.618 549.084 381.433 549.084C380.108 549.084 379.598 548.948 379.4 547.452C379.041 544.718 380.225 542.437 381.018 540.014C381.414 538.805 382.089 539.59 382.547 539.802C385.5 541.133 388.425 542.526 391.586 544.008Z" fill="#FEFEFE"/>
<path d="M623.168 259.259C621.574 258.394 620.031 257.378 618.2 257.053C617.196 256.869 616.667 256.263 616.941 255.303C617.252 254.216 618.182 254.734 618.8 254.922C620.762 255.515 622.791 256.032 624.197 257.712C623.852 258.229 623.522 258.747 623.168 259.259Z" fill="#2C2C2B"/>
<path d="M627.815 254.463C627.494 253.324 627.173 252.172 626.758 250.699L630.112 252.111L627.815 254.463Z" fill="#E5E4E4"/>
<path d="M650.248 384.82L650.347 387.055C650.291 387.342 650.06 387.808 649.899 387.332C649.764 386.915 649.725 386.472 649.786 386.037C649.846 385.602 650.004 385.186 650.248 384.82Z" fill="#C6C6C5"/>
<path d="M649.266 392.371L649.337 393.072C649.203 393.321 649.019 393.539 648.797 393.713C648.574 393.887 648.318 394.013 648.044 394.084C648.099 393.722 648.238 393.379 648.45 393.082C648.662 392.784 648.942 392.541 649.266 392.371Z" fill="#C6C5C5"/>
<path d="M165.061 409.456C164.627 441.447 164.589 472.408 164.542 503.364C164.542 516.876 164.282 530.383 164.245 543.894C164.245 545.743 163.773 546.331 161.886 546.279C156.697 546.148 151.507 546.195 146.318 546.279C144.945 546.279 144.473 545.955 144.431 544.487C144.115 531.987 143.709 519.492 143.322 506.996C142.825 491.085 142.322 475.174 141.812 459.263C141.322 443.936 140.822 428.61 140.312 413.285C139.837 398.626 139.366 383.965 138.897 369.302C138.886 368.803 138.842 368.305 138.765 367.811C138.652 367.115 138.411 366.437 137.538 366.541C136.666 366.644 136.472 367.284 136.5 368.008C136.599 370.507 136.76 373 136.835 375.498C137.265 389.584 137.656 403.665 138.095 417.745C138.576 433.158 139.076 448.57 139.595 463.982C140.105 479.724 140.609 495.468 141.11 511.216C141.553 524.859 141.982 538.503 142.525 552.146C142.6 554.193 142.124 554.795 139.935 554.71C127.99 554.24 116.035 553.962 104.081 553.59C101.92 553.52 99.3634 553.953 97.7169 552.955C96.0705 551.958 96.7356 549.116 96.4951 547.103C95.1552 535.937 93.8972 524.764 92.721 513.583C91.5447 502.48 90.4329 491.374 89.3856 480.265C88.4075 469.811 87.5127 459.351 86.7013 448.885C85.687 435.929 84.668 422.972 83.8471 410.002C83.1065 398.278 82.6253 386.53 82.0497 374.797C81.5779 365.303 81.2053 355.814 81.0779 346.306C81.0779 344.283 81.7855 344.119 83.3989 344.424C99.0992 347.327 114.917 349.355 130.82 350.733C136.647 351.241 142.497 351.552 148.342 351.787C150.031 351.853 150.337 352.234 150.13 353.918C149.063 362.598 148.243 371.325 147.162 379.986C146.945 381.751 147.61 381.896 149.049 381.911C153.201 381.943 153.201 381.991 153.031 386.173C152.875 389.937 152.875 389.937 156.781 389.937C158.956 389.937 161.136 389.988 163.306 389.866C164.778 389.781 165.127 390.336 165.113 391.748C165.028 397.991 165.061 404.248 165.061 409.456Z" fill="#E20612"/>
<path d="M92.3497 263.261C101.054 242.316 112.027 222.801 128.241 206.584C128.579 206.611 128.896 206.762 129.128 207.008C132.067 210.724 135.898 210.376 139.88 209.36C140.281 209.257 140.672 209.092 141.078 208.984C143.437 208.372 144.008 208.89 143.536 211.28C143.489 211.524 143.408 211.75 143.361 212.009C142.536 216.281 144.149 220.007 147.678 221.075C151.207 222.143 155.646 221.71 158.137 217.391C159.426 215.041 160.034 212.379 159.892 209.704C159.892 208.814 159.694 207.648 160.642 207.22C161.59 206.791 162.274 207.784 162.939 208.372C163.756 209.087 164.463 209.92 165.298 210.626C168.454 213.35 172.125 213.67 175.752 211.567C178.918 209.718 180.295 206.462 179.578 202.543C178.427 196.286 173.917 192.936 167.289 193.397C164.095 193.619 163.704 193.176 165.289 190.358C166.93 187.437 166.704 184.285 167.02 181.175C174.063 178.277 181.456 176.715 188.952 175.647C198.697 174.269 208.589 174.269 218.334 175.647C219.15 175.76 219.952 175.991 220.763 176.169C221.419 176.527 221.674 176.95 220.905 177.44C220.32 177.807 219.617 177.764 218.966 177.91C216.329 178.418 214.182 179.698 213.342 182.323C212.46 185.099 212.871 187.771 214.89 190.048C218.117 193.675 222.131 194.178 226.575 192.993C227.294 192.768 228 192.502 228.689 192.198C230.165 191.61 230.656 192.076 230.472 193.661C229.731 199.927 230.288 200.803 236.294 203.352C236.405 203.407 236.502 203.488 236.575 203.589C236.647 203.69 236.693 203.808 236.709 203.931C236.544 212.465 238.332 220.618 241.573 228.475C241.768 228.883 241.858 229.333 241.833 229.784C241.809 230.236 241.67 230.674 241.431 231.058C239.1 235.295 236.247 239.225 232.939 242.758C231.996 242.593 232.251 241.662 231.892 241.121C230.434 230.818 228.929 220.519 226.33 210.423C225.83 208.49 225.334 206.552 224.754 204.641C224.509 203.823 224.386 202.52 223.131 202.863C221.876 203.207 222.339 204.274 222.603 205.178C224.724 212.539 226.401 220.02 227.627 227.581C228.146 230.78 228.901 233.96 228.892 237.23C227.755 237.701 227.005 236.76 226.141 236.393C220.277 233.904 214.413 236.181 212.786 241.568C212.021 244.094 212.734 246.334 213.904 248.531C214.508 249.664 214.762 250.478 212.894 250.624C208.526 250.977 206.289 252.68 205.577 255.851C204.851 259.144 206.771 262.983 210.026 264.95C210.795 265.42 212.054 265.382 212.116 266.714L183.956 271.263C181.102 271.734 180.965 271.578 180.102 267.245C180.663 264.056 181.324 260.889 180.758 257.606C180.541 256.326 181.338 255.757 182.607 255.983C183.588 256.157 184.527 256.528 185.546 256.594C189.764 256.876 192.656 254.548 192.972 250.582C193.055 249.664 192.955 248.739 192.678 247.859C192.401 246.98 191.953 246.164 191.359 245.458C190.765 244.752 190.037 244.17 189.217 243.745C188.396 243.321 187.5 243.062 186.579 242.984C185.075 242.818 183.552 243.028 182.149 243.595C180.659 244.198 180.116 243.595 180.262 242.118C180.429 241.046 180.458 239.956 180.347 238.877C180.045 236.92 179.116 235.32 177.168 234.76C175.219 234.2 173.568 235.005 172.29 236.543C171.87 237.047 171.643 237.734 170.922 237.955C170.23 235.891 169.535 233.824 168.836 231.754L168.412 231.829C168.887 235.455 169.366 239.079 169.851 242.702C168.803 243.497 167.761 242.824 166.746 242.65C160.765 241.624 155.811 243.497 152.99 248.046C150.848 251.499 150.419 255.188 152.815 258.617C155.113 261.91 158.538 262.715 162.378 261.732C163.925 261.336 164.935 261.303 164.869 263.453C164.685 269.504 168.058 272.322 173.997 271.249C174.568 271.15 175.139 270.953 175.686 271.334C176.158 273.079 176.833 274.806 177.05 276.584C177.29 278.574 178.267 278.856 180.036 278.852C182.164 278.852 184.754 277.492 186.277 278.96C187.594 280.235 187.669 282.766 188.339 284.728C190.931 292.255 193.531 299.782 196.142 307.31C197.227 310.429 195.397 312.645 192.184 312.268C188.306 311.798 185.508 309.046 182.008 307.813C182.088 306.759 183.041 306.355 183.631 305.696C186.608 302.36 186.098 298.564 182.088 296.64C179.89 295.586 179.81 294.57 180.805 292.631C181.881 290.538 180.918 288.298 178.706 286.92C176.493 285.542 174.63 285.781 172.927 287.729C172.673 287.948 172.469 288.217 172.327 288.52C171.337 292.161 168.784 293.878 165.303 295.059C162.265 296.089 160.949 298.757 161.17 302.055C161.227 302.934 161.642 303.861 161.062 304.722C157.816 306.515 155.717 305.635 153.598 302.52C151.301 299.138 147.4 297.59 143.531 296.31C141.172 295.525 138.813 294.659 136.455 293.831C136.172 293.52 135.828 293.27 135.445 293.097C132.968 292.25 131.261 291.107 131.322 287.922C131.36 286.115 129.435 285.396 127.52 285.518C125.736 285.636 124.689 286.562 124.58 288.341C124.463 290.016 123.774 290.919 121.995 291.06C119.967 291.215 119.434 292.636 119.528 294.433C119.632 296.371 121 296.715 122.519 296.673C123.352 296.612 124.188 296.758 124.951 297.098C125.714 297.438 126.381 297.961 126.892 298.62C128.845 300.973 131.487 300.502 134.072 300.145L136.068 301.344C130.753 303.379 125.148 304.555 119.462 304.83C112.385 305.197 105.271 305.094 98.2703 303.546C96.8173 303.221 95.1567 303.038 94.1141 304.487C93.1376 305.823 93.9726 307.032 94.8265 308.091C95.4822 308.9 94.7793 309.069 94.3217 309.328C93.2838 309.921 92.7271 311.445 93.3782 311.779C96.0955 313.19 95.6284 317.137 98.7751 318.031C99.2091 318.149 99.813 318.375 99.8035 318.972C99.7516 321.96 102.134 322.792 104.191 323.809C107.272 325.333 110.635 326.043 113.928 326.956C114.4 327.549 114.23 328.207 114.155 328.871C113.654 333.42 113.093 333.702 109.13 331.383C108.276 330.864 107.38 330.417 106.451 330.047C102.832 328.697 99.5488 329.957 97.8457 333.397C97.0044 335.026 96.5112 336.813 96.3974 338.642C96.355 339.522 96.5437 340.524 95.619 341.131C88.6936 340.049 81.7728 338.929 74.8615 337.908C72.6773 337.588 73.0735 336.149 73.2245 334.761C75.0172 318.417 77.9846 302.327 83.6033 286.807C83.9665 285.796 84.3581 284.793 84.7402 283.787C87.2028 283.246 89.7126 283.942 92.1893 283.471C93.0432 283.312 93.5669 283.942 93.7603 284.77C93.8262 285.096 93.8735 285.426 93.9018 285.758C94.4396 290.599 96.1946 292.782 99.8318 293.135C101.932 293.334 104.036 292.806 105.791 291.639C107.546 290.472 108.843 288.737 109.465 286.727C110.152 284.398 110.228 281.933 109.687 279.567C109.215 277.243 109.583 276.993 111.777 277.746C113.291 278.264 114.791 278.757 116.428 278.438C120.273 277.68 122.656 274.279 121.967 270.51C121.259 266.657 117.249 263.971 113.31 264.677C112.98 264.738 112.664 264.846 112.338 264.935C109.366 265.763 109.196 265.622 109.437 262.531C109.753 258.481 107.658 256.025 104.365 256.585C101.832 257.018 100.346 258.984 100.558 261.633C100.62 262.386 100.874 263.096 101.002 263.839C101.205 264.997 100.804 265.787 99.5535 265.382C97.1617 264.521 94.567 264.545 92.3497 263.261Z" fill="#FF8025"/>
<path d="M361.173 290.283C359.285 292.687 356.837 293.651 354.252 294.248C347.359 295.829 340.335 296.182 333.315 295.937C329.923 295.815 326.89 296.638 323.833 297.772C298.527 307.158 273.128 316.28 247.115 323.558C237.873 326.146 228.532 328.39 218.903 329.063C217.823 329.138 216.738 329.19 215.653 329.232C210.35 329.439 206.916 327.378 204.633 322.213C197.769 306.659 192.57 290.555 187.479 274.39C187.126 273.257 187.111 272.843 188.475 272.631C199.448 270.928 210.412 269.165 221.366 267.343C222.904 267.089 222.711 268.03 222.838 268.933C223.956 277.1 225.272 285.225 227.857 293.086C228.041 293.642 228.211 294.201 228.424 294.742C230.957 301.207 232.438 302.025 239.35 301.122C254.512 299.137 269.679 297.217 284.842 295.251C287.243 294.94 289.625 294.46 292.026 294.15C293.26 294.048 294.448 293.637 295.479 292.954C296.51 292.271 297.351 291.339 297.923 290.245C300.018 286.66 303.283 284.129 307.25 282.619C311.353 280.994 315.55 279.614 319.818 278.488C320.29 278.361 320.974 277.825 321.295 278.648C321.545 279.288 321.054 279.768 320.544 280.059C318.157 281.565 315.954 283.386 313.251 284.359C311.963 284.83 311.746 285.013 312.831 286.415C315.421 289.784 318.686 290.245 322.526 290.024C328.135 289.694 333.664 290.998 339.264 291.2C345.486 291.421 351.615 290.602 357.771 290.076C358.907 289.905 360.066 289.975 361.173 290.283Z" fill="white"/>
<path d="M159.493 307.414C162.729 306.275 165.927 306.256 169.187 306.746C175.429 307.687 181.378 309.423 186.841 312.678C188.963 313.948 189.94 315.703 190.19 318.145C192.3 339.109 194.445 360.069 196.625 381.027C196.705 381.77 196.705 382.527 196.762 383.275C197.078 387.509 197.078 387.467 192.676 387.509C180.807 387.608 168.937 387.702 157.068 387.891C155.417 387.891 154.945 387.509 155.072 385.835C156.903 361.336 158.7 336.839 160.464 312.344C160.667 310.64 160.327 308.915 159.493 307.414Z" fill="white"/>
<path d="M316.736 190.626C320.204 197.467 325.794 199.753 333.451 197.999C330.101 208.433 326.516 218.383 319.392 226.645C309.08 238.613 295.125 232.544 289.728 223.45C288.997 222.218 288.369 221.907 287.006 222.039C279.93 222.716 272.853 223.248 265.777 223.921C264.508 224.038 263.89 223.836 263.376 222.542C260.932 216.313 258.936 209.976 258.158 203.315C257.795 200.224 257.955 197.166 259.314 194.263C260.069 192.659 261.201 191.868 263.012 191.854C266.692 191.821 270.372 191.638 274.047 191.558C276.774 191.497 279.354 193.91 279.59 196.667C279.92 200.653 280.543 204.609 281.453 208.504C281.666 209.407 281.562 210.856 283.039 210.503C284.322 210.212 283.746 208.988 283.562 208.151C282.586 203.845 281.94 199.471 281.628 195.068C281.557 194.028 281.005 193.402 280.345 192.753C277.773 190.231 275.916 187.076 274.962 183.607C274.599 182.295 274.066 180.935 275.462 179.975C276.958 178.95 278.142 179.942 279.236 180.869C279.68 181.236 280.095 181.645 280.831 182.318C280.949 180.784 281.048 179.533 281.142 178.272C284.794 179.35 284.845 179.354 285.468 175.529C285.958 172.659 286.903 169.885 288.266 167.31C289.091 165.706 290.238 165.349 291.922 165.593C299.527 166.694 307.146 167.734 314.76 168.769C321.883 169.738 329.002 170.914 336.22 170.585C338.711 170.472 339.051 171.474 338.692 173.459C338.518 174.443 338.39 175.435 338.22 176.682C333.418 172.674 328.167 171.507 322.539 174.527C318.982 176.409 316.633 179.35 316.236 183.537C315.817 186.698 313.878 189.507 314.425 192.946C315.052 197.053 314.864 201.245 315.17 205.389C315.463 209.365 315.477 209.515 311.618 209.896C311.391 209.92 311.123 209.896 311.005 210.169C311.052 210.212 311.099 210.296 311.151 210.301C316.038 210.842 316.048 210.842 316.024 206.015C316.024 202.021 315.246 198.06 315.524 194.051C315.868 192.889 314.925 191.271 316.736 190.626Z" fill="white"/>
<path d="M323.757 264.922C323.917 261.412 323.724 257.244 324.077 253.076C324.228 251.307 324.988 250.831 326.526 250.723C334.546 250.135 342.537 249.698 350.562 249.557C356.077 249.458 361.597 249.382 367.107 249.18C368.994 249.114 370.315 249.792 371.282 251.344C373.046 254.167 374.91 256.943 376.556 259.841C376.858 260.416 377.29 260.914 377.818 261.294C378.346 261.673 378.956 261.925 379.599 262.028C382.614 262.687 385.59 263.515 388.562 264.305C389.134 264.422 389.653 264.72 390.041 265.155C390.428 265.59 390.664 266.139 390.714 266.719C391.237 269.755 391.572 272.82 391.719 275.897C391.78 277.201 391.426 277.779 390.077 277.676C388.912 277.601 387.718 277.643 386.567 277.676C384.505 277.718 382.373 277.234 382.415 280.701C382.415 282.465 380.477 283.458 378.453 283.345C376.273 283.222 374.886 281.933 374.773 279.943C374.66 277.953 373.773 277.76 372.14 277.793C363.026 277.967 353.912 278.057 344.778 278.174C343.434 278.174 342.363 278.099 342.198 280.146C342.033 282.192 340.311 283.462 338.079 283.345C335.848 283.227 334.466 281.99 334.305 279.765C334.225 278.509 333.763 278.25 332.626 278.287C330.267 278.363 327.936 278.217 325.601 278.353C323.992 278.447 323.634 277.845 323.676 276.354C323.823 272.755 323.757 269.16 323.757 264.922Z" fill="#FF8025"/>
<path d="M167.01 181.145C168.6 185.44 166.666 189.1 164.75 192.967C167.144 192.514 169.605 192.565 171.978 193.118C174.773 193.781 177.204 195.496 178.761 197.904C180.319 200.313 180.884 203.228 180.337 206.041C180.074 207.5 179.463 208.874 178.555 210.048C177.647 211.221 176.469 212.159 175.12 212.783C173.772 213.406 172.293 213.697 170.808 213.63C169.323 213.562 167.876 213.14 166.59 212.397C164.354 211.16 162.769 209.203 160.542 206.921C160.542 209.038 160.651 210.652 160.542 212.242C160.103 217.605 157.065 221.345 152.569 222.187C145.922 223.439 141.016 218.188 142.738 211.668C142.945 210.892 143.21 210.125 143.521 209.062C137.95 210.346 132.199 213.324 128.26 206.596C139.247 195.211 151.876 186.287 167.01 181.145Z" fill="white"/>
<path d="M236.966 266.659C241.868 262.924 246.727 259.132 250.718 254.375C254.922 249.337 258.446 243.922 260.484 237.66C261.338 235.03 263.394 236.54 264.88 236.159C266.112 235.844 266.796 236.432 267.178 237.754C269.258 244.933 269.018 252.225 268.338 259.522C268.074 262.317 267.98 265.168 267.003 267.868C265.116 268.781 263.805 268.019 262.758 266.48C262.474 266.071 262.253 265.619 261.989 265.191C258.861 260.087 253.747 261.498 251.181 264.782C249.246 267.257 249.878 270.141 252.77 271.284C254.337 271.905 254.945 272.521 254.091 274.177C253.757 274.811 253.582 275.517 253.582 276.233C253.582 276.949 253.757 277.655 254.091 278.289C254.464 279.091 255.058 279.772 255.804 280.25C256.55 280.728 257.417 280.984 258.304 280.989C260.337 281.041 261.488 279.808 262.234 278.054C262.824 276.642 263.291 274.859 265.3 276.755C264.442 281.154 263.074 285.421 261.842 289.726C261.479 291.005 260.927 291.137 259.743 290.775C249.364 287.535 238.962 284.325 228.536 281.145C225.762 280.293 226.611 277.917 226.323 276.017C227.484 275.339 228.762 275.654 229.989 275.593C233.57 275.428 235.65 273.598 236.245 270.056C236.438 268.913 236.466 267.736 236.966 266.659Z" fill="#FF8025"/>
<path d="M96.3212 305.722C111.668 308.328 126.646 307.717 141.355 301.916C138.256 299.728 134.718 298.185 131.425 295.16C132.675 295.334 133.359 295.367 134.005 295.532C138.04 296.569 141.998 297.881 145.851 299.46C149.536 300.956 152.263 303.614 154.395 306.912C154.843 307.604 155.065 308.681 155.9 308.822C158.863 309.326 158.282 311.372 158.117 313.348C157.9 316.002 157.707 318.664 157.645 321.346C157.612 322.475 157.202 322.612 156.306 322.287C156.143 322.234 155.985 322.168 155.834 322.089C150.748 319.154 145.658 319.831 140.294 321.511C134.656 323.28 128.859 324.663 122.924 325.11C116.187 325.618 109.832 324.079 103.817 321.087C103.346 320.857 102.747 320.664 102.577 319.629C106.738 321.473 110.965 322.263 115.286 322.588C117.371 322.743 119.461 322.837 121.546 322.917C122.277 322.946 123.23 323.059 123.315 322.014C123.424 320.772 122.419 320.894 121.57 320.843C116.159 320.513 110.719 320.438 105.53 318.406C103.313 317.531 101.119 316.599 98.7366 315.621C99.0985 315.448 99.493 315.354 99.8939 315.345C100.295 315.336 100.693 315.413 101.062 315.569C107.705 317.724 114.611 318.42 121.49 319.229C122.287 319.323 123.348 319.568 123.542 318.415C123.768 317.046 122.57 317.088 121.707 317.004C114.696 316.425 107.766 315.428 101.044 313.296C99.331 312.751 97.5572 312.29 95.6702 310.982C97.1656 310.69 98.2696 310.667 99.3405 311.01C106.785 313.419 114.475 313.419 122.169 313.362C123.051 313.362 124.287 313.489 124.15 312.134C124.042 311.034 122.952 311.273 122.127 311.288C115.673 311.4 109.247 311.118 102.916 309.787C100.341 309.241 97.8874 308.3 96.3212 305.722Z" fill="white"/>
<path d="M92.3479 263.27C95.1977 263.325 98.0065 263.957 100.604 265.129C99.9904 262.386 98.8723 259.69 101.104 257.319C101.621 256.769 102.245 256.33 102.937 256.027C103.63 255.725 104.377 255.566 105.133 255.559C108.855 255.423 110.261 258.203 109.921 264.936C115.007 263.054 119.262 263.943 121.503 267.363C122.443 268.807 122.883 270.519 122.756 272.236C122.628 273.953 121.939 275.582 120.795 276.871C118.219 279.694 114.554 279.91 109.897 277.408C110.629 280.339 111.133 283.166 110.369 286.097C109.209 290.43 105.543 293.624 101.316 293.845C96.2776 294.085 93.1263 291.023 93.1593 285.942C93.1593 285.217 93.5226 284.465 93.0225 283.674C90.3657 284.743 87.3989 284.755 84.7336 283.707C86.8038 276.73 89.3477 269.902 92.3479 263.27Z" fill="white"/>
<path d="M212.147 266.628C208.604 265.287 205.976 263.033 204.981 259.251C203.565 253.883 207.618 249.536 213.944 249.842C212.666 247.87 211.76 245.88 211.812 243.57C211.958 236.721 218.638 232.726 225.63 235.384C226.767 235.897 227.87 236.481 228.932 237.135C230.281 244.337 230.677 251.634 230.956 258.936C231.13 263.527 231.064 263.584 226.446 264.374C221.662 265.216 216.888 265.889 212.147 266.628Z" fill="white"/>
<path d="M242.236 327.149C240.847 331.213 239.083 335.139 236.967 338.878C235.901 340.759 233.981 341.159 232.042 341.366C224.861 342.129 217.889 340.618 210.977 339.094C206.095 338.026 201.316 336.497 196.433 335.443C194.447 335.015 193.966 334.032 193.796 332.268C193.22 326.33 192.541 320.403 191.885 314.301C193.994 314.545 196.131 314.799 198.263 315.039C199.278 315.157 199.533 315.91 199.882 316.71C201.004 319.302 202.368 321.795 203.354 324.434C205.288 329.61 209.317 331.233 214.388 331.341C221.71 331.491 228.838 330.094 235.948 328.589C237.887 328.179 239.816 327.704 242.236 327.149Z" fill="white"/>
<path d="M95.6213 341.051C95.3411 338.387 95.853 335.701 97.0932 333.326C99.2869 328.795 102.844 327.529 107.434 329.562C109.274 330.376 110.817 331.655 112.647 332.883L113.935 326.857C120.714 327.953 127.338 326.894 133.933 325.445C135.9 327.953 135.292 330.587 134.178 333.151C132.9 336.092 130.433 337.913 127.574 339.333C130.843 339.945 133.881 340.745 136.391 342.824C137.396 343.657 138.556 344.476 138.235 346.085C123.984 344.908 109.774 343.365 95.6213 341.051Z" fill="white"/>
<path d="M236.678 203.851C230.432 203.06 228.394 199.565 229.974 192.207C227.28 193.557 224.539 194.385 221.544 194.126C217.647 193.797 214.764 191.915 213.009 188.481C210.283 183.141 213.481 177.585 219.473 177.058C219.902 177.02 221.529 177.999 220.732 176.117C229.502 177.058 237.767 179.82 245.806 183.301C247.552 184.054 249.203 185.032 250.897 185.912C250.959 186.147 250.931 186.397 250.818 186.613C250.706 186.828 250.517 186.995 250.288 187.079C248.321 187.418 246.363 187.949 244.386 188.043C241.523 188.175 240.004 189.817 238.994 192.169C237.418 195.891 237.102 199.88 236.678 203.851Z" fill="white"/>
<path d="M259.573 219.068C260.517 221.35 261.461 223.632 262.451 226.125C256.724 226.835 251.266 227.508 245.812 228.2C244.633 228.35 243.817 228.2 243.307 226.859C239.632 217.13 237.575 207.236 239.882 196.834C240.194 195.194 240.748 193.609 241.524 192.13C241.73 191.674 242.045 191.275 242.441 190.968C242.838 190.661 243.304 190.456 243.798 190.37C248.832 189.603 253.856 188.766 258.979 189.18C259.517 189.282 260.047 189.422 260.564 189.599C256.436 192.591 256.016 196.792 255.766 201.054C255.252 201.769 254.46 201.675 253.728 201.779C251.195 202.141 250.351 202.851 250.704 205.359C251.101 208.182 250.45 210.459 248.959 212.849C247.119 215.803 248.1 218.833 251.063 220.847C253.757 222.677 256.507 222.258 258.809 219.684C259.015 219.425 259.276 219.214 259.573 219.068Z" fill="#FF8025"/>
<path d="M175.699 271.258C168.25 274.081 163.207 269.922 164.301 261.732C162.269 262.756 159.947 263.056 157.72 262.583C151.974 261.313 149.172 255.771 151.266 249.914C153.455 243.798 159.683 240.533 166.712 241.859C167.773 242.062 168.811 242.372 169.863 242.626C171.807 252.173 173.752 261.717 175.699 271.258Z" fill="white"/>
<path d="M138.256 346.081C136.662 342.614 133.392 341.518 130.128 340.478C128.792 340.132 127.439 339.856 126.075 339.65C131.736 336.427 136.261 332.711 133.935 325.442C138.284 324.313 142.648 323.231 146.979 322.031C149.338 321.373 151.126 322.92 153.15 323.504C153.758 323.678 153.419 324.548 153.357 325.103C152.593 331.793 151.777 338.479 151.083 345.178C150.947 346.509 150.706 347.107 149.196 346.952C145.554 346.575 141.903 346.364 138.256 346.081Z" fill="#FF8025"/>
<path d="M170.935 237.883C171.972 234.938 174.595 233.268 177.228 233.879C180.436 234.632 181.662 237.859 180.771 243.528C182.508 242.353 184.625 241.872 186.701 242.183C188.797 242.445 190.719 243.477 192.093 245.076C194.07 247.339 194.282 251.192 192.65 253.982C190.734 257.252 188.267 257.746 181.172 256.334C181.837 260.098 182.29 263.791 180.11 267.193C177.228 259.359 175.077 251.296 172.6 243.336C172.048 241.52 171.491 239.699 170.935 237.883Z" fill="white"/>
<path d="M161.074 304.635C159.395 299.079 161.546 295.066 167.273 293.344C168.976 292.841 170.321 292.3 170.637 290.338C170.819 289.698 171.104 289.093 171.481 288.545C173.368 285.167 175.85 284.255 178.624 285.92C182.096 288.004 182.832 290.742 180.803 294.045C180.633 294.323 180.463 294.605 180.232 294.986C183.039 296.021 185.893 297.075 186.125 300.575C186.351 303.798 184.747 306.103 182.02 307.702C177.661 306.38 173.345 304.936 168.778 304.451C166.212 304.197 163.625 304.259 161.074 304.635Z" fill="white"/>
<path d="M318.028 185.673C318.033 183.549 318.672 181.474 319.864 179.714C321.056 177.953 322.747 176.587 324.72 175.788C326.694 174.99 328.862 174.796 330.947 175.23C333.032 175.665 334.939 176.71 336.427 178.23C337.337 179.171 337.899 180.027 337.498 181.523C336.597 184.892 336.045 188.354 335.219 191.746C334.36 195.312 332.676 196.512 328.874 196.54C323.01 196.597 317.971 191.544 318.028 185.673Z" fill="white"/>
<path d="M227.391 283.066C235.991 285.72 244.162 288.265 252.356 290.735C253.427 291.055 253.696 291.535 253.404 292.518C253.055 293.708 252.668 294.898 252.404 296.117C252.168 297.204 251.507 297.566 250.479 297.679C245.662 298.191 240.841 298.685 236.043 299.316C234.076 299.57 232.896 298.845 231.991 297.185C229.646 292.904 228.66 288.213 227.391 283.066Z" fill="white"/>
<path d="M265.306 276.773C264.263 276.189 263.334 275.733 263.089 277.568C262.796 279.76 261.589 281.294 259.315 281.619C257.041 281.943 254.941 281.2 253.654 279.177C253.056 278.314 252.747 277.285 252.771 276.236C252.794 275.188 253.15 274.174 253.786 273.338C253.918 273.146 254.012 272.92 254.196 272.572C251.653 271.932 249.304 271.16 249.351 267.919C249.389 265.355 251.2 262.852 253.979 261.695C256.758 260.537 259.272 261.102 261.272 263.242C261.771 263.687 262.174 264.228 262.457 264.833C263.193 267.053 264.778 267.9 266.981 267.886C266.901 270.934 266.066 273.847 265.306 276.773Z" fill="white"/>
<path d="M232.961 253.632C232.961 252.692 233.353 252.155 234.211 251.605C240.519 247.545 246.597 243.142 252.417 238.413C254.223 236.959 256.035 236.221 258.55 236.611C255.591 245.05 250.415 252.541 243.562 258.304C242.845 257.942 242.906 257.213 242.741 256.592C241.83 253.162 239.519 251.958 236.136 252.979C235.108 253.261 234.249 254.54 232.961 253.632Z" fill="#FF8025"/>
<path d="M259.571 219.075C258.364 222.1 256.392 223.229 253.354 222.627C249.872 221.94 247.15 218.863 247.291 215.716C247.324 214.986 247.357 214.083 247.763 213.566C250.013 210.743 250.259 207.643 249.995 204.18C249.787 201.456 251.617 200.652 255.755 201.075C256.137 207.261 257.906 213.156 259.571 219.075Z" fill="white"/>
<path d="M232.738 249.988C231.974 247.81 232.658 246.474 233.866 245.133C237.559 241.04 240.914 236.665 243.466 231.772C243.626 231.397 243.887 231.074 244.22 230.838C244.553 230.602 244.945 230.463 245.353 230.436C247.429 230.205 249.504 229.965 251.566 229.669C252.67 229.504 252.882 229.895 253.014 230.968C253.373 233.875 252.543 235.912 249.967 237.634C245.122 240.885 240.532 244.498 235.814 247.946C234.889 248.619 233.903 249.235 232.738 249.988Z" fill="white"/>
<path d="M134.084 300.054C130.975 301.809 128.493 301.466 126.149 298.667C125.819 298.209 125.377 297.844 124.864 297.608C124.352 297.371 123.787 297.271 123.224 297.316C119.969 297.363 118.723 296.488 118.629 294.357C118.511 291.676 119.681 290.443 122.875 290.175C123.71 290.104 123.743 289.817 123.818 289.154C124.323 285.503 125.861 284.195 128.89 284.746C131.659 285.249 132.871 287.667 132.079 291.172C133.782 291.61 135.853 291.459 136.466 293.741C134.579 293.416 132.692 293.04 130.805 292.8C129.862 292.687 128.918 292.866 128.484 293.887C128.116 294.785 128.621 295.585 129.229 296.121C130.8 297.495 132.461 298.751 134.084 300.054Z" fill="#FFFFFE"/>
<path d="M267.573 233.754C264.078 233.909 260.577 234.055 257.077 234.224C255.874 234.285 254.756 234.201 255.105 232.592C255.378 231.321 253.93 229.247 256.794 229.072C259.2 228.922 261.587 228.466 263.983 228.16C264.795 228.056 265.644 228.263 265.347 226.8C265.092 225.549 266.413 226.141 266.951 226.061C270.956 225.459 270.961 225.497 271.767 229.421C272.635 233.627 272.635 233.627 267.573 233.754Z" fill="#FF8025"/>
<path d="M232.962 253.622C233.802 253.702 234.312 253.043 234.967 252.719C239.756 250.366 243.686 252.883 243.563 258.27C242.23 259.861 240.635 261.214 238.845 262.269C237.902 262.918 235.986 262.203 236.048 264.254C235.475 264.933 234.726 265.441 233.882 265.722C233.844 265.779 233.79 265.825 233.727 265.854C233.665 265.882 233.595 265.894 233.527 265.886C233.458 265.878 233.393 265.852 233.338 265.81C233.284 265.767 233.242 265.711 233.217 265.647C233.642 261.629 232.726 257.635 232.962 253.622Z" fill="#FFFEFE"/>
<path d="M316.202 194.216C316.419 199.278 316.584 204.345 316.872 209.403C316.966 211.054 316.57 211.632 314.81 211.284C313.437 211.026 311.979 211.139 310.564 211.139C309.72 211.139 309.022 210.979 309.04 209.976C309.059 208.974 309.819 209.148 310.479 209.036C311.871 208.772 313.782 210.024 314.551 208.565C315.117 207.492 314.522 205.813 314.451 204.402C314.187 199.179 313.871 193.953 313.716 188.726C313.687 187.785 312.734 185.658 315.428 186.397C315.9 186.529 315.782 185.818 315.815 185.456C315.867 184.797 315.815 184.12 316.235 183.551V188.18C316.098 190.189 315.791 192.203 316.202 194.216Z" fill="#252524"/>
<path d="M236.966 266.672C238.216 273.493 233.579 277.572 226.328 276.029C225.337 274.538 225.757 273.461 227.238 272.581C230.493 270.638 233.725 268.648 236.966 266.672Z" fill="#FEFDFD"/>
<path d="M233.212 265.648L233.877 265.724C231.088 267.505 228.295 269.288 225.499 271.073C225.446 270.973 225.399 270.871 225.357 270.767C224.414 266.843 224.385 266.834 228.259 266.284C229.905 266.053 231.561 265.86 233.212 265.648Z" fill="#F9F9F9"/>
<path d="M337.876 191.512C337.696 188.689 338.904 186.746 339.107 184.582C339.829 186.925 339.258 189.004 337.876 191.512Z" fill="#E3E2E3"/>
<path d="M236.041 264.286L234.862 262.301H238.839C238.05 263.144 237.099 263.819 236.041 264.286Z" fill="#FF8025"/>
<path d="M316.202 194.216C315.905 192.203 315.192 190.185 316.24 188.176L316.735 190.627C315.796 191.714 316.721 193.068 316.202 194.216Z" fill="#CDCCCC"/>
<path d="M250.308 187.069L250.917 185.902C251.521 186.119 252.2 186.222 252.563 187.069H250.308Z" fill="#C66725"/>
<path d="M231.9 241.039L232.948 242.676C232.749 242.926 232.594 243.316 232.344 243.387C231.9 243.518 231.872 243.09 231.872 242.77C231.867 242.196 231.891 241.618 231.9 241.039Z" fill="#EBE3DC"/>
<path d="M848.512 338.829C847.046 325.225 846.38 311.547 846.516 297.866C846.695 285.865 847.224 273.873 850.762 262.257C851.49 259.784 852.498 257.402 853.767 255.158C858.678 246.558 866.354 247.39 872.482 252.598C877.015 256.456 878.671 261.979 879.893 267.55C882.082 277.49 882.2 287.572 881.582 297.659C879.294 335.079 870.784 371.356 861.108 407.412C860.98 407.883 860.886 408.386 860.716 408.852C860.499 409.445 860.362 409.986 861.112 410.263C861.754 410.517 862.334 410.696 862.83 409.906C863.861 408.263 865.434 407.03 867.278 406.42C870.515 405.3 872.939 406.42 873.921 409.713C875.152 413.763 874.496 417.814 873.557 421.799C868.538 443.115 861.362 463.787 854.541 484.563C852.026 492.226 849.318 499.824 846.79 507.479C846.318 508.956 845.606 509.361 844.03 509.596C838.647 510.419 835.831 508.462 833.651 503.292C828.141 490.171 822.249 477.228 819.338 463.213C818.045 456.994 817.206 450.704 819.027 444.395C821.041 437.418 826.839 433.852 834.033 435.277C836.062 435.677 836.392 435.409 835.92 433.302C831.292 412.54 827.58 391.633 827.429 370.26C827.381 361.815 828.231 353.46 831.618 345.566C832.604 343.26 833.703 341.026 835.477 339.186C838.954 335.587 842.747 335.187 846.927 337.987C847.389 338.358 847.752 338.88 848.512 338.829Z" fill="white"/>
<path d="M706.751 85.6504C703.548 84.7895 700.618 84.0226 697.717 83.2229C669.06 75.3567 639.901 69.4389 610.441 65.5101C585.013 62.0526 559.415 59.981 533.761 59.3047C531.846 59.2577 529.893 58.7872 528.024 59.0272C523.363 59.6246 519.745 57.6158 515.995 55.2635C488.695 37.9004 461.346 20.6079 433.946 3.38601C433.597 3.16489 433.262 2.91555 432.762 2.59564C433.668 2.00757 434.583 2.26161 435.418 2.26161C456.319 2.26715 477.204 3.4231 497.978 5.72419C531.836 9.36554 565.147 15.665 597.656 25.8645C630.887 36.2946 662.288 50.446 690.386 71.325C695.415 75.0886 700.246 79.0499 704.954 83.1852C705.61 83.7357 706.478 84.2014 706.751 85.6504Z" fill="white"/>
<path d="M511.242 58.5515C494.702 58.6503 478.219 58.8667 461.759 59.4924C444.478 60.1511 427.207 61.0167 409.955 62.2352C394.533 63.322 379.107 64.3382 363.685 65.4155C348.183 66.5023 332.69 67.7255 317.183 68.7087C302.922 69.6026 288.646 70.2989 274.376 70.9763C265.22 71.4154 256.046 71.6695 246.853 71.7385C286.689 50.6337 329.223 39.1733 374.134 36.4541C421.471 33.6219 467.236 40.8152 511.242 58.5515Z" fill="white"/>
<path d="M864.309 511.793C861.198 528.052 858.096 544.267 855.001 560.439C854.227 564.461 854.171 564.447 850.052 564.447C844.108 564.447 838.164 564.339 832.224 564.508C830.163 564.569 829.549 563.812 829.205 561.982C826.091 545.304 822.907 528.64 819.708 511.793H864.309Z" fill="white"/>
<path d="M41.7525 105.739C40.5636 105.663 39.79 105.047 39.7286 103.767C39.6856 103.499 39.7016 103.224 39.7755 102.962C39.8494 102.7 39.9794 102.457 40.1565 102.25C40.3337 102.043 40.5538 101.876 40.8016 101.762C41.0494 101.648 41.3191 101.589 41.5921 101.589C41.8833 101.549 42.1799 101.574 42.4603 101.662C42.7407 101.75 42.998 101.899 43.2134 102.098C43.4289 102.298 43.5971 102.543 43.7059 102.815C43.8146 103.088 43.8613 103.381 43.8424 103.673C43.8612 104.84 43.0876 105.626 41.7525 105.739Z" fill="#2F2F2E"/>
<path d="M682.625 464.462C682.582 466.264 681.37 465.695 680.492 465.441C672.751 463.192 665.396 460.087 658.994 455.091C655.857 452.723 653.146 449.842 650.974 446.571C650.653 446.072 649.738 445.484 650.974 444.783C651.894 444.261 652.304 444.576 652.786 445.282C659.537 455.162 669.665 459.791 680.62 463.159C682.62 463.79 682.629 463.766 682.625 464.462Z" fill="#252524"/>
<path d="M631.043 260.579C634.572 260.89 636.827 262.64 638.69 265.006C638.978 265.373 639.634 265.89 638.69 266.375C638.091 266.69 637.52 267.151 636.954 266.375C635.454 264.338 633.543 262.983 630.963 262.724C629.934 262.621 630.118 261.859 630.142 261.228C630.189 260.273 630.864 260.523 631.043 260.579Z" fill="#282827"/>
<path d="M630.978 267.614C630.889 269.033 630.418 270.402 629.614 271.576C629.213 272.15 628.647 272.615 627.949 272.347C627.251 272.079 627.18 271.331 627.227 270.649C627.347 269.246 627.85 267.902 628.68 266.763C628.822 266.51 629.038 266.306 629.3 266.18C629.562 266.054 629.856 266.011 630.143 266.057C631.02 266.231 630.822 267.059 630.978 267.614Z" fill="#292928"/>
<path d="M194.347 224.618C191.516 224.039 189.365 223.061 189.233 220.215C189.096 217.194 190.964 215.284 193.441 213.953C195.918 212.621 198.951 212.631 200.56 214.79C202.782 217.773 205.192 220.012 208.886 220.986C210.424 221.391 211.061 223.061 210.552 224.712C209.948 226.66 209.108 228.476 206.674 228.744C205.56 228.862 204.556 228.499 203.452 228.062C202.843 230.527 202.4 233.166 199.295 233.623C196.988 233.961 194.941 233.279 193.634 231.247C192.214 229.054 192.332 226.862 194.347 224.618Z" fill="white"/>
<path d="M130.168 242.501C132.612 243.856 134.032 245.554 133.221 248.287C132.749 249.939 131.664 251.11 129.829 251.11C127.116 251.11 126.201 249.228 125.705 246.932C122.644 249.91 120.667 250.503 118.874 249.017C117.336 247.742 117.435 246.001 119.242 243.46C117.539 242.764 115.35 242.52 115.209 240.106C115.077 237.829 116.261 236.117 118.039 234.842C119.818 233.567 122.12 233.764 123.427 235.458C124.328 236.629 124.866 236.545 125.932 235.787C126.557 235.359 127.284 235.103 128.04 235.043C128.796 234.984 129.554 235.124 130.239 235.449C133.787 236.935 133.796 239.664 130.168 242.501Z" fill="white"/>
<path d="M194.723 191.368C191.001 189.058 190.104 187.341 191.255 185.129C192.199 183.309 193.926 183.05 196.652 184.325C196.751 184.217 196.921 184.113 196.94 183.991C197.167 182.147 197.322 180.251 199.62 179.7C201.479 179.258 204.62 180.641 205.701 182.429C206.781 184.217 206.607 186.099 205.007 187.628C204.432 188.178 204.536 188.465 205.078 188.968C205.627 189.474 206.073 190.081 206.39 190.756C207.394 192.944 206.781 194.943 205.083 196.402C202.979 198.208 201.45 196.402 199.842 195.033C198.761 197.559 197.341 199.568 194.228 198.947C192.638 198.627 191.458 197.738 191.213 196.025C190.85 193.447 192.421 192.205 194.723 191.368Z" fill="white"/>
<path d="M311.321 182.899C311.353 184.584 311.044 186.258 310.413 187.822C309.783 189.386 308.844 190.807 307.651 192.002C306.459 193.196 305.039 194.14 303.474 194.776C301.909 195.412 300.231 195.728 298.541 195.705C291.305 195.667 285.639 190.088 285.625 182.974C285.6 181.288 285.91 179.613 286.539 178.047C287.167 176.481 288.1 175.055 289.285 173.851C290.469 172.647 291.881 171.689 293.44 171.033C294.998 170.376 296.671 170.035 298.362 170.027C305.741 170.004 311.317 175.532 311.321 182.899Z" fill="#242423"/>
<path d="M309.291 224.082C304.574 223.791 300.8 222.008 298.299 218.047C297.828 217.317 297.077 216.381 298.111 215.657C299.266 214.838 299.634 216.019 300.106 216.753C302.611 220.634 306.197 222.163 310.749 221.688C311.608 221.598 312.976 220.714 313.212 222.271C313.448 223.828 311.83 223.546 310.891 223.819C310.364 223.942 309.83 224.03 309.291 224.082Z" fill="#282827"/>
<path d="M324.326 184.641C326.473 184.641 327.964 184.97 329.304 185.948C329.582 186.133 329.783 186.413 329.87 186.735C329.957 187.057 329.923 187.399 329.775 187.699C329.478 188.433 328.704 188.216 328.294 187.915C326.152 186.348 323.892 186.809 321.628 187.421C320.835 187.633 320.071 187.764 319.769 186.828C319.392 185.657 320.392 185.417 321.184 185.219C322.378 184.918 323.619 184.768 324.326 184.641Z" fill="#2D2D2C"/>
<path d="M309.231 182.845C309.23 185.663 308.121 188.368 306.143 190.38C304.165 192.392 301.475 193.552 298.65 193.609C292.781 193.68 287.705 188.703 287.714 182.883C287.764 180.067 288.897 177.378 290.88 175.372C292.863 173.367 295.544 172.198 298.367 172.109C299.787 172.103 301.195 172.375 302.51 172.911C303.824 173.447 305.021 174.236 306.029 175.233C307.038 176.23 307.841 177.415 308.39 178.721C308.939 180.028 309.225 181.429 309.231 182.845Z" fill="white"/>
<path d="M305.722 185.35C305.613 186.446 304.868 186.582 304.306 186.253C301.438 184.616 298.499 183.929 295.277 185.11C295.158 185.155 295.031 185.174 294.904 185.165C294.777 185.157 294.654 185.121 294.542 185.061C294.43 185.001 294.332 184.917 294.256 184.816C294.179 184.715 294.125 184.599 294.097 184.475C294.051 184.232 294.074 183.982 294.164 183.752C294.254 183.522 294.408 183.323 294.607 183.176C296.631 181.506 303.721 182.41 305.377 184.588C305.522 184.827 305.638 185.083 305.722 185.35Z" fill="#2D2D2C"/>
</svg>
