<svg width="720" height="487" viewBox="0 0 720 487" fill="none" xmlns="http://www.w3.org/2000/svg">
<path d="M443.986 226.385C443.32 228.22 442.788 230.126 441.961 231.889C436.15 244.147 429.06 255.767 420.807 266.556C417.081 271.466 412.967 276.082 409.025 280.828C408.442 280.971 407.85 281.081 407.253 281.155C401.278 281.546 395.3 281.924 389.319 282.29C386.095 282.487 384.133 284.296 384.255 286.994C384.394 289.591 386.42 291.208 389.513 291.099C392.606 290.99 395.577 290.814 398.607 290.68C391.956 296.264 385.525 302.149 378.6 307.369C366.224 316.693 353.425 325.469 341.044 334.776C335.558 338.894 330.646 343.757 325.473 348.281C323.549 347.863 321.629 347.088 319.704 347.088C306.42 347.088 293.12 347.088 279.852 347.444C259.648 348.002 239.451 348.746 219.26 349.676C209.977 350.095 200.748 350.979 191.536 352.043C185.497 352.743 185.519 353.057 185.295 359.252C184.904 370.004 184.521 380.755 184.147 391.506C183.177 391.171 182.172 390.916 181.244 390.497C172.804 386.685 164.487 382.572 155.925 379.091C148.449 376.123 140.536 374.382 132.497 373.934C126.884 373.578 121.23 373.184 115.617 373.473C108.309 373.85 101.008 374.701 93.746 375.677C83.9307 376.996 74.1787 378.823 64.3508 380.062C57.5991 380.9 50.7545 381.658 43.9648 381.537C34.4027 381.361 25.0348 379.698 16.7428 374.378C8.19769 368.895 2.4292 361.472 0.707519 351.339C-1.12388 340.549 0.766594 330.11 4.46315 319.977C8.37192 309.102 13.737 298.799 20.4141 289.344C24.8642 283.226 29.6203 277.333 34.6644 271.688C46.5558 258.124 60.8272 247.493 76.6768 238.88C92.9412 230.014 110.633 224.02 128.965 221.166C140.075 219.423 151.245 219.972 162.398 219.603C174.923 219.184 187.523 218.556 199.208 213.366C203.761 211.343 207.968 208.536 212.319 206.056C213.437 205.415 214.488 204.661 215.568 203.962L231.363 212.486C227.185 213.672 222.953 214.778 218.779 216.08C207.335 219.666 196.288 224.115 186.789 231.625C183.835 233.954 181.012 236.484 179.345 240.233C193.56 243.134 208.139 243.852 222.573 242.361C241.288 240.51 258.737 234.993 274.156 223.658C267.868 232.685 264.028 242.6 261.56 253.072C259.074 263.679 257.66 274.364 260.446 285.653C256.293 284.916 252.474 284.254 248.664 283.559C243.444 282.612 238.815 283.639 235.16 287.643C221.1 302.97 225.573 327.496 244.17 336.904C255.141 342.45 266.577 342.191 278.165 339.418C284.697 337.855 290.997 335.736 295.989 330.948C306.235 321.121 308.113 301.751 300.319 289.306C293.655 278.662 276.008 273.527 266.163 282.939C265.269 283.777 264.053 284.296 262.669 285.142C262.247 282.78 261.686 280.79 261.568 278.779C260.581 261.97 264.1 246.106 272.417 231.445C279.958 218.145 290.719 207.447 302.205 197.515C308.606 191.982 315.354 186.846 322.105 181.396L320.84 179.759L304.931 191.797C304.602 191.027 304.619 190.742 304.758 190.541C315.447 176.03 326.853 162.174 341.141 150.922C352.416 142.038 364.645 137.308 379.322 141.46C389.45 144.316 398.282 148.681 403.417 158.286C404.182 159.858 404.343 161.653 403.869 163.334C401.548 170.384 397.151 176.118 391.374 180.751C384.365 186.364 375.794 187.575 367.27 188.564C355.299 189.954 343.272 190.838 331.313 192.304C322.705 193.36 314.286 195.408 306.75 199.982C300.42 203.828 297.272 209.303 298.031 216.847C298.563 222.125 300.264 223.754 305.627 223.838C314.565 223.981 323.498 224.144 332.431 224.42C358.096 225.208 383.761 226.217 409.43 226.808C420.912 227.076 432.458 226.548 443.986 226.385ZM342.137 287.241L341.293 286.504C333.571 288.711 325.857 290.961 318.114 293.11C316.27 293.621 316.489 294.446 317.346 295.732C325.127 293.499 332.853 291.313 340.555 289.03C341.188 288.816 341.605 287.844 342.137 287.241ZM310.235 278.025C314.079 273.049 317.666 268.32 321.359 263.674C322.54 262.192 321.802 261.672 320.401 261.077L308.497 276.534L310.235 278.025ZM221.834 256.62L221.341 257.32L226.303 275.466L228.489 274.85C226.936 269.103 225.472 263.486 223.847 257.915C223.67 257.341 222.526 257.043 221.834 256.62ZM196.887 291.438L213.133 296.436L213.796 295.598C213.243 294.982 212.804 294.035 212.108 293.805C207.795 292.351 203.419 291.082 199.085 289.692C197.575 289.185 196.769 289.461 196.887 291.438ZM336.727 327.882L320.937 323.613C319.945 325.155 320.342 325.867 321.916 326.273C326.182 327.37 330.444 328.497 334.672 329.725C336.229 330.177 336.765 329.67 336.727 327.869V327.882ZM197.051 328.615L196.591 329.557C197.25 329.976 197.942 330.738 198.558 330.68C202.33 330.332 206.082 329.75 209.846 329.339C211.618 329.147 211.702 328.275 211.112 326.797L197.051 328.615Z" fill="#EBEAE9"/>
<path d="M671.945 2.66406C677.029 14.5242 682.114 26.3843 687.2 38.2444C697.494 62.4031 707.769 86.5673 718.026 110.737C718.359 111.529 718.655 112.337 718.967 113.137C711.219 117.875 703.421 122.533 695.737 127.38C680.647 136.88 666.038 147.227 650.471 155.864C624.456 170.32 597.854 183.728 571.48 197.548C566.978 199.902 562.399 202.105 557.648 204.484L511.196 122.864C512.192 122.181 512.964 121.645 513.728 121.121C529.127 110.822 544.525 100.521 559.922 90.2159C589.786 70.1637 618.89 49.1104 645.977 25.4264C654.653 17.8529 663.309 10.2655 671.945 2.66406Z" fill="#FF8025"/>
<path d="M359.472 452.165C372.857 453.309 386.302 453.996 399.611 455.709C416.178 457.845 432.724 460.367 449.114 463.559C468.744 467.379 487.936 472.921 505.891 481.957C508.335 483.18 510.672 484.608 513.065 485.94C513.014 486.154 512.959 486.359 512.909 486.577C509.326 486.577 505.735 486.615 502.165 486.577C492.46 486.455 482.72 486.259 472.998 486.158C447.552 485.926 422.105 485.717 396.657 485.53C378.934 485.379 361.218 485.208 343.509 485.019L290.622 484.499L237.477 483.98L184.839 483.465L134.05 482.945C133.628 482.945 133.227 482.907 131.94 482.845C133.708 480.893 134.894 479.263 136.387 477.985C143.219 472.155 151.435 468.891 159.824 466.097C173.75 461.465 188.097 458.662 202.592 456.714C209.892 455.738 217.222 454.984 224.535 454.126C225.379 454.394 226.358 454.498 227.092 454.963C228.523 455.86 229.624 456.115 230.844 454.545C231.148 454.155 232.278 454.297 233.013 454.356C234.135 454.44 235.35 455.039 236.329 454.75C237.756 454.331 239.009 453.321 240.334 452.563C244.828 452.371 249.318 452.086 253.816 451.998C275.197 451.587 296.584 451.213 317.979 450.875C324.73 450.779 331.482 450.963 338.234 451.018H342.302L355.349 451.558C356.869 454.197 357.058 454.226 359.472 452.165Z" fill="#242523"/>
<path d="M671.945 2.67197C663.294 10.2622 654.643 17.8497 645.993 25.4343C618.906 49.1183 589.802 70.1716 559.938 90.2237C544.558 100.556 529.16 110.858 513.744 121.129C512.963 121.653 512.191 122.189 511.212 122.872L557.647 204.48C562.398 202.1 566.977 199.897 571.479 197.543C597.853 183.72 624.455 170.315 650.47 155.859C666.037 147.209 680.646 136.863 695.736 127.375C703.42 122.537 711.219 117.879 718.966 113.133C719.295 113.715 719.62 114.301 720 114.976C712.784 119.466 705.653 123.852 698.563 128.334C683.153 138.094 668.13 148.529 652.289 157.539C631.274 169.49 609.669 180.406 588.236 191.641C577.91 197.057 567.437 202.192 556.786 207.558L552.275 199.872C545.038 203.106 538.016 206.574 530.754 209.406C516.407 215.01 501.447 218.697 486.256 221.105C473.175 223.179 459.975 224.394 446.826 225.994C445.885 226.111 444.944 226.245 444.003 226.375C432.462 226.538 420.916 227.066 409.4 226.794C383.731 226.203 358.066 225.194 332.402 224.406C323.468 224.13 314.535 223.966 305.597 223.824C300.242 223.74 298.542 222.111 298.002 216.833C297.242 209.293 300.382 203.814 306.72 199.968C314.256 195.394 322.675 193.346 331.283 192.29C343.242 190.824 355.269 189.94 367.24 188.549C375.764 187.561 384.335 186.35 391.344 180.737C397.121 176.104 401.518 170.37 403.839 163.32C404.313 161.639 404.152 159.844 403.387 158.272C398.252 148.667 389.407 144.302 379.292 141.445C364.616 137.294 352.387 142.023 341.111 150.908C326.81 162.172 315.404 176.025 304.732 190.535C304.593 190.723 304.576 191.008 304.905 191.792L320.814 179.753L322.08 181.391C315.328 186.836 308.576 191.976 302.179 197.509C290.693 207.454 279.932 218.152 272.392 231.439C264.087 246.1 260.576 261.968 261.542 278.774C261.661 280.784 262.222 282.774 262.644 285.137C264.007 284.299 265.243 283.788 266.138 282.933C275.983 273.521 293.63 278.656 300.293 289.3C308.087 301.745 306.201 321.136 295.963 330.942C290.976 335.734 284.675 337.854 278.147 339.416C266.56 342.189 255.111 342.449 244.153 336.903C225.556 327.494 221.083 302.973 235.143 287.641C238.819 283.637 243.448 282.615 248.647 283.557C252.444 284.248 256.276 284.91 260.428 285.652C257.643 274.363 259.057 263.677 261.542 253.071C263.994 242.598 267.851 232.683 274.139 223.656C258.736 234.987 241.287 240.504 222.581 242.351C208.147 243.842 193.568 243.124 179.353 240.223C181.041 236.453 183.847 233.94 186.797 231.615C196.296 224.105 207.343 219.656 218.787 216.07C222.961 214.768 227.193 213.662 231.371 212.476L215.576 203.952C206.714 197.736 198.975 190.426 192.937 181.428C192.219 180.356 191.536 179.258 190.882 178.148C190.46 177.407 190.097 176.624 189.337 175.128C193.857 175.417 198.005 175.333 202.026 176.012C212.656 177.809 223.231 179.933 233.831 181.927C234.202 182.115 234.587 182.275 234.983 182.404C249.664 185.99 262.834 192.391 273.383 203.349C276.535 206.62 279.207 210.348 282.165 213.946L289.402 206.055C288.439 206.147 287.853 206.185 287.292 206.268C280.937 207.165 276.345 203.533 276.156 197.153C276.051 194.49 276.335 191.827 277 189.245C283.27 166.252 293.967 145.387 308.365 126.411C311.661 122.068 315.64 118.231 319.531 113.912C311.965 108.282 304.34 102.602 296.685 96.9427C296.027 96.461 295.153 96.2599 294.385 95.929C292.444 94.7435 290.621 93.2774 288.545 92.4229C277.059 87.6937 265.488 83.2912 254.094 78.3943C249.288 76.3334 244.79 73.5101 240.321 70.7622C238.596 69.755 237.113 68.3847 235.979 66.7476C234.845 65.1106 234.085 63.2466 233.755 61.287C232.957 56.8174 234.822 53.9816 239.241 52.9804C244.33 51.8285 249.233 53.0181 254.132 54.0528C273.463 58.1369 292.647 62.8033 311.214 69.5935C317.181 71.7759 322.827 74.817 328.616 77.4644L329.882 77.9336L329.334 77.0371C317.965 66.9196 306.597 56.8035 295.229 46.6887C290.246 42.2695 285.068 38.0638 280.223 33.5021C276.945 30.4149 274.278 26.7999 273.379 22.1922C272.366 17.1027 275.615 12.6624 280.848 12.763C284.033 12.8545 287.176 13.5055 290.132 14.6857C305.108 20.6129 318.734 29.0242 331.275 38.9183C342.668 47.9077 353.285 57.873 364.257 67.4027C364.898 67.9598 365.616 68.4374 366.299 68.9568L366.852 68.5128C366.481 67.7169 366.126 66.9126 365.73 66.1293C359.375 53.5627 352.88 41.0756 346.766 28.4043C345.318 25.405 344.656 21.8319 344.483 18.4766C344.171 12.7504 350.876 8.52383 355.986 11.1922C358.637 12.6392 361.018 14.528 363.025 16.7759C371.76 26.3182 378.115 37.5276 385.018 48.3433C393.504 61.643 401.501 75.3323 412.211 87.0192C420.203 95.7405 428.854 103.896 437.53 111.947C445.832 119.638 454.378 127.062 463.169 134.22C467.993 138.153 473.63 141.253 480.141 141.068C484.214 140.951 488.349 140.05 492.286 138.924C499.388 136.888 506.363 134.421 513.672 132.041C511.727 128.594 509.959 125.469 508.039 122.08C509.604 121.046 511.174 120.04 512.714 118.985C543.793 97.6213 575.167 76.6769 605.845 54.7523C628.746 38.3864 649.706 19.5657 670.898 0.296875L671.945 2.67197ZM249.921 285.941L247.862 285.668L247.17 285.476C242.245 284.961 238.152 286.695 235.624 290.808C233.362 294.482 231.826 298.591 229.953 302.508C229.873 302.713 229.788 302.927 229.708 303.115C229.604 303.953 229.497 304.791 229.387 305.629C229.333 305.85 229.278 306.077 229.219 306.303C229.219 308.383 229.219 310.468 229.219 312.557L229.421 313.29C230.78 316.964 231.615 320.943 233.599 324.244C238.565 332.496 246.499 336.643 255.782 338.444L256.344 338.658L259.411 338.918L259.589 339.093L259.825 339.026H261.028L261.559 339.177H265.547L266.079 339.026H267.281L267.522 339.093L267.695 338.918L271.248 338.645L271.843 338.444L274.375 338.126L274.982 337.887L278.266 337.112C289.824 334.36 298.635 328.533 301.829 316.411C301.918 316.205 302.002 315.992 302.086 315.799C302.188 315.137 302.285 314.471 302.386 313.809C302.453 313.596 302.525 313.391 302.593 313.168V302.122L302.365 301.477C299.63 287.114 290.613 279.8 276.236 280.286L275.586 280.512L263.264 287.042C263.943 288.525 264.424 289.581 264.91 290.649C269.18 288.454 269.18 288.454 269.944 289.078C267.935 292.723 265.032 294.055 260.386 293.451L259.766 293.208L255.023 291.663C255.622 290.779 255.989 290.23 256.327 289.736L261.011 291.349L262.504 291.097C261.817 288.324 260.146 286.954 257.175 287.39C256.833 287.373 256.498 287.297 256.183 287.164L255.635 286.984L253.048 286.628L252.525 286.46L250.44 286.108L249.921 285.941ZM345.128 91.1788C344.225 90.5295 343.529 90.0227 342.829 89.5033C332.663 82.2858 322.008 75.881 310.218 71.6921C292.208 65.2455 273.674 60.6167 254.964 56.7085C250.399 55.7601 245.752 55.2564 241.089 55.2047C236.561 55.1544 235.152 57.7809 236.405 62.1708C237.582 66.2927 240.663 68.7641 244.131 70.4648C253.795 75.2108 263.433 80.1411 273.48 83.9739C286.14 88.8121 298.516 93.9225 308.927 102.87C313.028 106.397 317.425 109.572 321.586 112.856C334.064 104.122 347.091 98.4172 362.658 102.221C362.393 102.587 362.05 102.891 361.654 103.111C361.259 103.332 360.819 103.464 360.366 103.498C356.227 103.557 351.981 102.895 347.968 103.59C332.845 106.225 320.962 114.389 311.53 126.135C298.28 142.622 288.823 161.188 281.819 181.009C280.355 185.227 279.226 189.552 278.443 193.945C277.793 197.442 278.481 200.961 281.7 203.16C284.853 205.317 288.178 204.304 290.938 202.381C293.472 200.593 295.744 198.464 297.689 196.056C301.327 191.57 304.538 186.74 308.083 182.174C317.366 170.206 327.35 158.867 339.309 149.375C351.623 139.598 364.987 134.747 380.866 139.451C391.572 142.627 400.674 147.712 405.902 157.975C406.573 159.294 406.907 161.238 406.463 162.582C402.45 174.764 394.986 183.996 382.301 187.871C376.638 189.601 370.637 190.43 364.725 191.151C353.028 192.575 341.255 193.4 329.574 194.921C321.59 195.968 313.792 198.037 306.964 202.632C303.209 205.146 300.318 208.472 300.318 213.105C300.318 220.163 300.166 222.153 307.846 221.424C309.834 221.237 311.832 221.187 313.826 221.273C327.249 221.876 340.668 222.647 354.091 223.137C369.962 223.711 385.841 224.197 401.716 224.473C430.411 224.972 458.979 224.13 487.243 218.609C505.608 215.036 523.749 210.708 540.751 202.653C544.211 201.011 547.557 199.135 550.975 197.359L514.879 134.006C509.098 135.979 503.621 138.094 498 139.707C492.539 141.274 486.978 143.025 481.369 143.431C473.288 144.017 466.516 139.875 460.321 135.187C442.855 121.971 427.879 106.062 412.38 90.7557C402.623 81.1213 395.724 69.2249 388.221 57.8563C380.626 46.3494 373.237 34.7127 365.405 23.3692C362.949 19.8129 359.497 16.8848 356.227 13.9526C354.159 12.0886 351.711 12.2436 349.323 13.9526C347.078 15.5737 346.145 17.6346 346.829 20.2066C347.711 23.5116 348.433 26.9633 349.973 29.9709C357.961 45.5787 366.19 61.0608 374.338 76.5889C374.79 77.4519 375.287 78.2938 375.764 79.1442L375.064 79.7264C367.126 72.7896 358.919 66.1293 351.306 58.8574C336.136 44.3932 319.413 32.0863 300.871 22.2634C295.571 19.461 289.849 17.4001 284.22 15.2721C281.346 14.183 278.426 14.8532 276.464 17.3289C274.501 19.8045 275.303 22.6236 276.793 24.8395C279.08 28.2451 281.553 31.6674 284.549 34.4404C290.642 40.0703 297.246 45.1514 303.449 50.6723C317.603 63.2641 331.638 75.9857 345.719 88.6571C346.01 88.921 346.264 89.231 346.563 89.5493L345.128 91.1788ZM279.569 215.647C274.708 212.715 269.826 211.781 264.8 211.404C252.617 210.482 240.768 212.547 229.054 215.555C216.2 218.86 203.647 222.99 192.498 230.396C189.122 232.637 186.117 235.423 182.944 237.982L183.526 238.933C218.319 243.378 251.402 240.793 279.569 215.647ZM277.46 211.747C269.775 201.514 260.487 194.33 249.334 189.693C234.046 183.334 217.863 180.435 201.532 178.274C198.958 177.931 196.35 177.855 193.215 177.616C203.912 193.865 217.842 204.915 235.654 211.069C236.498 211.354 237.515 211.211 238.418 211.069C251.216 208.84 263.994 207.257 277.464 211.747H277.46ZM304.58 191.976L304.158 191.595L302.998 192.931L303.357 193.249L304.58 191.976Z" fill="#212121"/>
<path d="M294.353 95.9219C295.121 96.2528 295.994 96.4539 296.652 96.9356C304.311 102.586 311.932 108.275 319.503 113.905C315.612 118.223 311.633 122.06 308.337 126.404C293.939 145.393 283.242 166.257 276.971 189.238C276.306 191.819 276.022 194.483 276.127 197.146C276.317 203.526 280.908 207.158 287.263 206.261C287.846 206.177 288.432 206.14 289.373 206.048L282.157 213.952C279.203 210.354 276.528 206.626 273.376 203.354C262.826 192.392 249.665 185.991 234.975 182.41C234.58 182.281 234.194 182.121 233.823 181.932C235.389 178.979 237.064 176.068 238.503 173.064C243.934 161.717 249.196 150.294 254.695 138.984C260.67 126.693 268.692 115.823 279.064 106.851C283.14 103.328 287.926 100.567 292.352 97.4759C293.049 96.99 293.69 96.4413 294.353 95.9219Z" fill="#EBEAE9"/>
<path d="M359.471 452.155C357.053 454.216 356.868 454.187 355.349 451.544C361.332 448.109 364.084 442.994 363.143 435.756H389.875C389.647 431.852 389.597 428.325 389.196 424.84C388.255 416.642 387.162 408.461 386.094 400.28C385.634 396.766 383.6 394.55 380.186 393.603C372.692 391.542 365.214 389.414 357.703 387.454C354.361 386.57 350.327 386.796 347.753 384.941C345.179 383.085 344.145 379.223 342.267 376.353C337.068 368.432 331.772 360.574 326.519 352.69C324.831 350.177 322.468 349.297 319.442 349.339C304.947 349.503 290.439 349.268 275.953 349.687C255.411 350.282 234.873 351.228 214.343 352.23C206.646 352.607 198.975 353.566 191.291 354.261C189.109 354.462 187.813 355.204 187.746 357.826C187.455 368.751 186.788 379.667 186.552 390.591C186.311 401.713 186.404 412.843 186.366 423.964C186.366 428.597 186.366 433.23 186.366 437.922H216.968C217.905 447.61 222.838 452.536 231.467 452.545C239.485 452.545 244.452 447.238 245.393 437.465L335.536 436.393C334.659 442.952 337.224 447.577 342.288 451.003H338.22C335.579 448.188 333.545 445.063 333.097 441.122C333.144 441.071 333.232 441 333.22 440.967C333.172 440.854 333.114 440.746 333.047 440.644C333.081 439.17 332.486 438.675 330.89 438.701C321.476 438.868 312.062 438.893 302.647 438.969L302.141 438.99L269.779 439.409L269.285 439.471H259.356H258.85H247.494C247.152 445.286 244.262 449.198 240.321 452.516C238.996 453.274 237.742 454.283 236.316 454.702C235.337 454.991 234.122 454.392 232.999 454.308C232.265 454.25 231.134 454.107 230.83 454.497C229.632 456.059 228.509 455.804 227.079 454.916C226.345 454.455 225.391 454.35 224.522 454.078C222.918 452.872 221.222 451.757 219.724 450.429C216.694 447.744 215.246 444.201 214.723 440.301H183.779C183.779 439.484 183.779 438.588 183.779 437.687C183.94 423.394 184.101 409.099 184.265 394.801C184.265 393.683 184.205 392.564 184.172 391.45C184.552 380.696 184.934 369.944 185.32 359.196C185.543 353 185.522 352.686 191.561 351.987C200.772 350.923 210.022 350.051 219.285 349.62C239.472 348.684 259.67 347.94 279.877 347.387C293.153 347.019 306.462 347.044 319.729 347.031C321.653 347.031 323.573 347.806 325.498 348.225C330.561 355.17 335.739 362.048 340.63 369.094C343.267 372.906 345.478 377.015 347.736 381.07C348.614 382.649 349.74 383.332 351.487 383.747C360.374 385.87 369.181 388.355 378.098 390.336C384.967 391.869 388.428 395.962 389.132 402.722C390.335 414.338 391.576 425.95 392.854 438.076H365.746C365.982 444.1 363.016 448.268 359.471 452.155Z" fill="#222323"/>
<path d="M191.148 204.395C191.148 207.407 189.844 209.036 187.603 209.464C185.362 209.891 183.257 208.689 182.472 206.175C180.417 199.62 178.45 193.039 176.454 186.488C176.226 185.746 176.032 185.005 175.8 184.263C174.893 181.122 175.872 178.818 178.497 177.98C181.054 177.142 183.345 178.554 184.295 181.641C186.24 187.958 188.143 194.292 190.055 200.617C190.498 202.066 190.907 203.549 191.148 204.395Z" fill="#FF8025"/>
<path d="M158.191 78.0051C156.98 83.1867 155.659 88.7914 154.36 94.3962C153.807 96.7336 153.288 99.0835 152.642 101.396C151.87 104.181 149.777 105.48 147.228 104.893C144.793 104.336 143.43 102.296 144.03 99.5778C145.762 91.7781 147.578 83.9966 149.477 76.2332C149.726 75.1714 150.361 74.2383 151.261 73.6129C152.16 72.9875 153.261 72.7138 154.351 72.8444C156.731 73.1837 158.305 75.1064 158.191 78.0051Z" fill="#FF8025"/>
<path d="M105.465 163.27C105.916 163.387 106.68 163.55 107.418 163.781C114.524 165.987 121.626 168.203 128.724 170.429C131.788 171.392 133.265 173.675 132.484 176.159C131.674 178.756 129.315 179.803 126.18 178.848C118.817 176.614 111.464 174.338 104.118 172.02C101.422 171.183 100.321 169.231 100.827 166.675C101.219 164.715 103.08 163.249 105.465 163.27Z" fill="#FF8025"/>
<path d="M479.434 266.822C478.214 272.016 476.902 277.621 475.581 283.217C475.011 285.642 474.475 288.076 473.792 290.468C473.036 293.115 470.943 294.351 468.496 293.773C466.048 293.195 464.639 291.184 465.238 288.482C466.971 280.683 468.787 272.903 470.686 265.142C470.923 264.077 471.548 263.136 472.442 262.501C473.335 261.867 474.434 261.582 475.526 261.703C477.902 262.03 479.547 263.998 479.434 266.822Z" fill="#FF8025"/>
<path d="M202.048 93.3412C209.475 95.7204 217.889 98.3134 226.211 101.17C228.224 101.861 228.815 104.521 228.009 106.515C227.165 108.639 224.958 109.707 222.405 108.957C216.919 107.353 211.501 105.606 206.053 103.931C203.745 103.214 201.411 102.586 199.145 101.719C196.879 100.852 196.052 99.0297 196.453 96.7258C196.824 94.5978 198.736 93.2406 202.048 93.3412Z" fill="#FF8025"/>
<path d="M180.932 138.627C180.788 140.981 179.754 142.539 177.518 143.071C176.455 143.362 175.32 143.233 174.351 142.711C173.382 142.19 172.654 141.316 172.319 140.273C171.197 137.027 170.247 133.722 169.247 130.433C167.947 126.161 166.643 121.888 165.394 117.603C164.55 114.704 165.702 112.291 168.188 111.571C170.673 110.85 173.003 112.191 173.893 115.06C176.142 122.278 178.337 129.508 180.535 136.742C180.733 137.395 180.818 138.082 180.932 138.627Z" fill="#FF8025"/>
<path d="M537.864 220.127C539.442 220.19 540.881 221.229 541.472 223.131C543.866 230.846 546.208 238.578 548.498 246.324C548.834 247.407 548.723 248.577 548.191 249.579C547.658 250.581 546.748 251.333 545.658 251.669C545.101 251.862 544.511 251.941 543.923 251.903C543.334 251.864 542.759 251.708 542.233 251.444C541.706 251.18 541.239 250.814 540.858 250.367C540.477 249.92 540.191 249.401 540.016 248.842C537.603 241.132 535.261 233.399 532.99 225.644C532.129 222.691 534.358 220.039 537.864 220.127Z" fill="#FF8025"/>
<path d="M495.468 259.87C494.265 258.818 492.708 257.947 491.894 256.628C490.788 254.83 491.472 252.975 493.05 251.538C498.19 246.791 503.334 242.057 508.482 237.338C509.182 236.693 509.866 236.031 510.592 235.44C512.702 233.765 515.234 233.832 516.896 235.595C518.559 237.359 518.504 240.203 516.474 242.05C511.233 246.93 505.925 251.743 500.646 256.586C500.118 257.155 499.539 257.675 498.916 258.14C498 258.718 496.979 259.133 495.468 259.87Z" fill="#FF8025"/>
<path d="M161.719 148.661C164.8 148.782 166.817 151.011 166.213 153.78C164.479 161.739 162.589 169.697 160.635 177.614C160.36 178.718 159.656 179.668 158.677 180.257C157.697 180.846 156.523 181.025 155.411 180.756C153.094 180.22 151.482 178.121 152.035 175.729C153.835 167.687 155.743 159.667 157.757 151.669C157.952 150.783 158.458 149.995 159.183 149.444C159.909 148.894 160.807 148.616 161.719 148.661Z" fill="#FF8025"/>
<path d="M127.773 151.183C126.562 150.157 124.967 149.319 124.17 148C123.022 146.111 123.773 144.196 125.41 142.697C129.74 138.734 134.064 134.768 138.382 130.8C139.842 129.46 141.252 128.056 142.762 126.77C144.779 125.061 147.404 125.145 149.092 126.867C150.885 128.702 150.856 131.403 148.809 133.309C143.003 138.719 137.147 144.076 131.242 149.382C130.453 150.094 129.297 150.408 127.773 151.183Z" fill="#FF8025"/>
<path d="M524.226 270.713C523.981 272.657 522.901 274.248 520.479 274.642C512.461 275.941 504.418 277.273 496.375 278.488C494.012 278.848 491.86 277.08 491.493 274.818C491.092 272.359 492.493 270.248 495.181 269.791C503.204 268.431 511.24 267.151 519.289 265.95C521.993 265.548 524.26 267.73 524.226 270.713Z" fill="#FF8025"/>
<path d="M202.506 67.5373C201.515 69.0788 200.979 70.4025 200.034 71.3073C194.425 76.5811 188.741 81.7795 183.036 86.9528C180.829 88.9551 178.044 88.9048 176.327 86.9863C174.689 85.1599 174.892 82.3785 176.913 80.5103C182.627 75.2197 188.383 69.9711 194.117 64.7015C195.687 63.2563 197.603 62.7578 199.358 63.8637C200.607 64.6554 201.388 66.1801 202.506 67.5373Z" fill="#FF8025"/>
<path d="M433.239 309.259C432.247 310.813 431.728 312.133 430.787 313.029C425.127 318.335 419.412 323.591 413.642 328.796C411.532 330.711 408.87 330.623 407.152 328.796C405.435 326.97 405.464 324.327 407.574 322.375C413.317 317.021 419.12 311.726 424.909 306.423C426.454 305.007 428.344 304.425 430.121 305.623C431.327 306.415 432.112 307.889 433.239 309.259Z" fill="#FF8025"/>
<path d="M448.261 286.263C448.231 288.902 446.796 290.636 444.644 290.984C442.492 291.332 440.424 290.171 439.661 287.805C437.905 282.33 436.285 276.813 434.597 271.313C433.943 269.177 433.187 267.07 432.647 264.908C432.01 262.345 433.343 260.062 435.673 259.412C436.234 259.236 436.825 259.174 437.41 259.232C437.996 259.289 438.563 259.464 439.079 259.745C439.594 260.027 440.047 260.41 440.408 260.87C440.77 261.331 441.034 261.859 441.184 262.424C443.53 269.876 445.775 277.357 448.041 284.83C448.159 285.3 448.232 285.78 448.261 286.263Z" fill="#FF8025"/>
<path d="M110.414 210.769C107.785 210.798 105.823 209.093 105.591 206.76C105.359 204.427 106.823 202.454 109.389 202.027C117.243 200.731 125.109 199.492 132.986 198.311C135.809 197.892 137.953 199.417 138.341 201.93C138.712 204.335 137.277 206.446 134.564 206.924C128.513 207.992 122.428 208.876 116.36 209.856C114.309 210.162 112.262 210.492 110.414 210.769Z" fill="#FF8025"/>
<path d="M398.64 290.662C395.61 290.808 392.58 290.988 389.546 291.08C386.512 291.173 384.428 289.572 384.289 286.975C384.145 284.278 386.107 282.468 389.352 282.271C395.333 281.903 401.311 281.524 407.286 281.136C407.883 281.062 408.475 280.953 409.059 280.809C410.181 280.809 411.299 280.759 412.435 280.747C415.215 280.713 417.266 282.447 417.401 284.935C417.536 287.424 415.76 289.338 412.911 289.543C408.118 289.933 403.383 290.301 398.64 290.662Z" fill="#FF8025"/>
<path d="M342.137 287.231C341.606 287.838 341.188 288.806 340.529 289.002C332.841 291.302 325.114 293.489 317.32 295.705C316.477 294.419 316.244 293.61 318.088 293.082C325.832 290.934 333.546 288.684 341.268 286.477L342.137 287.231Z" fill="#323230"/>
<path d="M310.218 278.037L308.496 276.534L320.4 261.098C321.801 261.692 322.54 262.212 321.358 263.695C317.666 268.332 314.079 273.061 310.218 278.037Z" fill="#30302F"/>
<path d="M221.835 256.617C222.527 257.036 223.671 257.338 223.84 257.912C225.473 263.483 226.937 269.1 228.481 274.847L226.296 275.463L221.333 257.317L221.835 256.617Z" fill="#323231"/>
<path d="M196.887 291.424C196.768 289.447 197.574 289.17 199.098 289.66C203.432 291.051 207.808 292.32 212.12 293.774C212.804 294.004 213.243 294.951 213.808 295.567L213.146 296.404L196.887 291.424Z" fill="#323230"/>
<path d="M336.727 327.861C336.765 329.663 336.229 330.169 334.672 329.717C330.452 328.49 326.182 327.363 321.916 326.265C320.342 325.846 319.945 325.147 320.937 323.605L336.727 327.861Z" fill="#323230"/>
<path d="M197.072 328.59L211.145 326.789C211.723 328.268 211.639 329.139 209.879 329.332C206.115 329.751 202.364 330.324 198.591 330.672C197.975 330.731 197.283 329.947 196.625 329.55L197.072 328.59Z" fill="#373735"/>
<path d="M342.29 451C337.226 447.574 334.639 442.949 335.538 436.389L245.377 437.474C244.428 447.23 239.444 452.554 231.452 452.554C222.822 452.554 217.889 447.62 216.952 437.931H186.333C186.333 433.239 186.333 428.606 186.333 423.974C186.371 412.852 186.279 401.722 186.519 390.601C186.755 379.676 187.422 368.76 187.713 357.835C187.781 355.213 189.076 354.484 191.258 354.271C198.942 353.575 206.614 352.595 214.311 352.239C234.84 351.238 255.378 350.291 275.92 349.696C290.407 349.277 304.915 349.512 319.41 349.349C322.435 349.315 324.803 350.186 326.486 352.7C331.74 360.583 337.036 368.442 342.235 376.363C344.121 379.232 345.159 383.107 347.72 384.95C350.282 386.793 354.329 386.575 357.671 387.463C365.182 389.445 372.66 391.552 380.154 393.613C383.589 394.559 385.64 396.775 386.062 400.29C387.129 408.47 388.222 416.651 389.163 424.849C389.564 428.334 389.615 431.861 389.843 435.765H363.144C364.085 443.004 361.334 448.118 355.35 451.553L342.29 451Z" fill="white"/>
<path d="M345.129 91.173L346.568 89.556C346.264 89.2377 346.011 88.9277 345.724 88.6638C331.638 75.9925 317.603 63.2708 303.467 50.6791C297.263 45.1581 290.659 40.077 284.566 34.4471C281.57 31.6741 279.08 28.2518 276.81 24.8462C275.32 22.6303 274.54 19.7777 276.481 17.3356C278.422 14.8935 281.363 14.1897 284.237 15.2788C289.866 17.4068 295.588 19.4677 300.888 22.2701C319.43 32.0804 336.153 44.3874 351.319 58.8641C358.915 66.136 367.139 72.7963 375.077 79.7331L375.777 79.1509C375.3 78.3131 374.802 77.4753 374.351 76.5956C366.202 61.0675 357.974 45.5979 349.986 29.9776C348.446 26.97 347.724 23.5184 346.842 20.2133C346.158 17.6414 347.091 15.5804 349.336 13.9593C351.724 12.2377 354.172 12.0827 356.24 13.9593C359.497 16.8916 362.962 19.8238 365.418 23.3759C373.25 34.7194 380.638 46.3561 388.234 57.863C395.737 69.2316 402.636 81.128 412.393 90.7624C427.892 106.069 442.868 121.978 460.334 135.194C466.529 139.881 473.301 144.024 481.382 143.438C486.99 143.019 492.552 141.28 498.013 139.714C503.638 138.101 509.115 135.986 514.892 134.013L550.976 197.395C547.557 199.171 544.224 201.047 540.751 202.689C523.749 210.744 505.608 215.072 487.244 218.645C458.971 224.149 430.39 224.991 401.716 224.509C385.841 224.233 369.962 223.747 354.092 223.173C340.668 222.683 327.249 221.916 313.826 221.309C311.832 221.223 309.834 221.273 307.847 221.46C300.167 222.189 300.319 220.203 300.319 213.141C300.319 208.487 303.209 205.182 306.965 202.668C313.792 198.061 321.591 196.004 329.575 194.957C341.255 193.428 353.028 192.602 364.726 191.187C370.633 190.466 376.638 189.637 382.301 187.907C394.986 184.032 402.451 174.8 406.464 162.618C406.886 161.27 406.573 159.326 405.903 158.011C400.674 147.748 391.555 142.663 380.866 139.487C364.987 134.783 351.623 139.634 339.31 149.411C327.355 158.903 317.367 170.242 308.083 182.21C304.538 186.776 301.331 191.605 297.69 196.092C295.744 198.5 293.472 200.629 290.938 202.417C288.178 204.34 284.853 205.349 281.701 203.196C278.481 200.993 277.793 197.474 278.443 193.981C279.226 189.588 280.355 185.263 281.819 181.045C288.824 161.228 298.276 142.663 311.531 126.171C320.979 114.442 332.845 106.261 347.969 103.626C351.982 102.931 356.227 103.593 360.367 103.534C360.819 103.5 361.259 103.368 361.655 103.147C362.05 102.927 362.393 102.623 362.658 102.257C347.091 98.4532 334.064 104.158 321.586 112.892C317.409 109.621 313.012 106.433 308.927 102.906C298.517 93.9585 286.14 88.8481 273.481 84.01C263.433 80.1771 253.795 75.2468 244.132 70.5008C240.663 68.8001 237.583 66.3119 236.405 62.2068C235.139 57.8169 236.561 55.1905 241.089 55.2407C245.742 55.2734 250.38 55.756 254.939 56.6817C273.654 60.5899 292.187 65.2187 310.218 71.6863C322.034 75.9129 332.685 82.3009 342.85 89.5393C343.529 90.0168 344.226 90.5362 345.129 91.173Z" fill="#FEFEFE"/>
<path d="M250.444 286.111L252.528 286.463L253.052 286.63L255.638 286.986L256.187 287.167C256.502 287.299 256.837 287.376 257.179 287.393C260.132 286.974 261.82 288.327 262.508 291.1L261.014 291.351L256.33 289.738C255.993 290.233 255.626 290.782 255.026 291.665L259.77 293.211L260.39 293.454C265.032 294.057 267.939 292.725 269.948 289.081C269.184 288.457 269.184 288.457 264.914 290.652C264.428 289.583 263.947 288.528 263.268 287.045L275.59 280.515L276.239 280.288C290.616 279.802 299.634 287.116 302.369 301.48L302.596 302.125V313.171C302.529 313.385 302.457 313.59 302.39 313.812C302.288 314.474 302.191 315.14 302.09 315.802C302.006 316.007 301.921 316.221 301.833 316.413C298.638 328.536 289.827 334.363 278.269 337.115L274.986 337.89L274.379 338.128L271.847 338.447L271.252 338.648L267.699 338.92C267.626 338.888 267.545 338.882 267.468 338.901C267.392 338.921 267.324 338.966 267.277 339.029H266.078L265.542 339.18H261.555L261.023 339.029H259.82C259.774 338.965 259.706 338.919 259.629 338.899C259.552 338.879 259.47 338.887 259.398 338.92L256.33 338.66L255.769 338.447C246.486 336.646 238.552 332.499 233.594 324.251C231.611 320.95 230.775 316.97 229.416 313.297L229.214 312.564C229.214 310.478 229.214 308.392 229.214 306.306C229.273 306.083 229.328 305.857 229.383 305.635C229.492 304.797 229.599 303.96 229.703 303.122L229.948 302.515C231.809 298.598 233.358 294.489 235.62 290.815C238.151 286.702 242.24 284.951 247.169 285.483L247.857 285.675L249.916 285.948L250.444 286.111Z" fill="#FF8025"/>
<path d="M279.57 215.648C251.403 240.781 218.319 243.378 183.535 238.934L182.953 237.991C186.126 235.444 189.131 232.646 192.507 230.405C203.655 222.999 216.209 218.869 229.063 215.564C240.777 212.556 252.626 210.491 264.809 211.413C269.826 211.781 274.709 212.72 279.57 215.648Z" fill="#FDFDFE"/>
<path d="M277.463 211.744C263.994 207.254 251.216 208.837 238.422 211.049C237.519 211.208 236.481 211.351 235.658 211.049C217.846 204.895 203.916 193.862 193.219 177.613C196.354 177.852 198.962 177.927 201.536 178.271C217.867 180.432 234.029 183.331 249.338 189.69C260.491 194.327 269.779 201.511 277.463 211.744Z" fill="#FDFDFD"/>
<path d="M304.584 191.976L303.356 193.233L302.998 192.914L304.158 191.578L304.584 191.976Z" fill="#EBEAE9"/>
<path d="M261.015 291.349L262.509 291.098L261.015 291.349Z" fill="#33291F"/>
<path d="M329.317 77.0508L329.866 77.9472L328.6 77.4781L329.317 77.0508Z" fill="white"/>
<path d="M260.388 293.454L259.769 293.211L260.388 293.454Z" fill="#33291F"/>
<path d="M302.598 302.117L302.37 301.473L302.598 302.117Z" fill="#322D28"/>
<path d="M229.953 302.496L229.709 303.103C229.789 302.914 229.873 302.709 229.953 302.496Z" fill="#322D28"/>
<path d="M256.202 287.161L255.655 286.98L256.202 287.161Z" fill="#322D28"/>
<path d="M229.388 305.629C229.333 305.851 229.278 306.077 229.219 306.298C229.278 306.077 229.333 305.846 229.388 305.629Z" fill="#322D28"/>
<path d="M229.228 312.551L229.431 313.284L229.228 312.551Z" fill="#322D28"/>
<path d="M274.38 338.13L274.986 337.891L274.38 338.13Z" fill="#322D28"/>
<path d="M255.782 338.449L256.342 338.663L255.782 338.449Z" fill="#322D28"/>
<path d="M253.05 286.629L252.528 286.461L253.05 286.629Z" fill="#322D28"/>
<path d="M259.412 338.919C259.484 338.885 259.565 338.878 259.642 338.898C259.719 338.918 259.786 338.964 259.832 339.028L259.597 339.095L259.412 338.919Z" fill="#322D28"/>
<path d="M261.028 339.031L261.558 339.182L261.028 339.031Z" fill="#322D28"/>
<path d="M265.548 339.182L266.082 339.031L265.548 339.182Z" fill="#322D28"/>
<path d="M250.443 286.109L249.922 285.941L250.443 286.109Z" fill="#322D28"/>
<path d="M267.282 339.026C267.33 338.963 267.397 338.918 267.474 338.898C267.55 338.878 267.631 338.885 267.703 338.917L267.531 339.093L267.282 339.026Z" fill="#322D28"/>
<path d="M247.86 285.674L247.174 285.48L247.86 285.674Z" fill="#322D28"/>
<path d="M276.238 280.297L275.59 280.524L276.238 280.297Z" fill="#322D28"/>
<path d="M301.834 316.412C301.922 316.207 302.006 315.993 302.091 315.801C302.006 316.006 301.922 316.207 301.834 316.412Z" fill="#322D28"/>
<path d="M302.391 313.812C302.458 313.598 302.53 313.394 302.597 313.172C302.53 313.394 302.458 313.598 302.391 313.812Z" fill="#322D28"/>
<path d="M271.249 338.651L271.842 338.449L271.249 338.651Z" fill="#322D28"/>
<path d="M302.658 438.984L302.153 439.005L302.658 438.984Z" fill="#222223"/>
<path d="M269.791 439.438L269.555 439.547L269.303 439.488L269.791 439.438Z" fill="#222223"/>
<path d="M333.111 441.149C333.054 441.084 333.019 441.003 333.01 440.918C333.001 440.833 333.018 440.747 333.06 440.672C333.128 440.774 333.186 440.882 333.233 440.994C333.246 441.019 333.157 441.09 333.111 441.149Z" fill="#222223"/>
</svg>
