<svg width="37" height="37" viewBox="0 0 37 37" fill="none" xmlns="http://www.w3.org/2000/svg">
<path d="M35.72 22.4036L32.2605 21.4305L35.8902 17.7601C36.3712 17.2717 36.3157 17.0386 35.6719 16.861C34.5619 16.5576 33.4852 16.2616 32.3974 15.9471C32.2023 15.9332 32.0163 15.8596 31.8646 15.7362C33.2003 14.5189 34.5212 13.3238 35.8421 12.125C36.0086 11.9696 36.2528 11.8475 36.1862 11.5552C36.1196 11.2629 35.8495 11.2555 35.6312 11.1852C33.2521 10.5044 30.873 9.82356 28.4902 9.16126C22.7034 7.55176 16.9536 5.83126 11.1335 4.32166C10.9827 4.27101 10.8201 4.26761 10.6674 4.31191C10.5146 4.35621 10.379 4.4461 10.2788 4.56956C7.28919 7.56656 4.29589 10.5611 1.29889 13.5532C1.09169 13.7604 0.725394 13.9232 0.817894 14.2932C0.910394 14.6632 1.33589 14.6299 1.62449 14.715C2.68639 15.0295 3.75939 15.3181 4.87309 15.6289L4.52529 15.9989L1.02139 19.488C0.651394 19.858 0.725394 20.1244 1.22859 20.2687C1.48389 20.3427 1.74289 20.4056 1.99819 20.4759L4.70289 21.2418L4.78429 21.3713C4.65391 21.454 4.5302 21.5468 4.41429 21.6488C3.28209 22.7711 2.15483 23.8971 1.03249 25.0269C0.662494 25.3969 0.747594 25.6411 1.21749 25.7669L1.47279 25.8446L17.0202 30.1995L25.7818 32.6415C26.0704 32.7192 26.322 32.7969 26.5921 32.5268C29.7075 29.4212 32.8266 26.3219 35.9494 23.2287C36.3601 22.818 36.2861 22.5701 35.72 22.4036ZM35.0207 17.4641L34.0032 18.4446V18.1301C34.0032 17.0645 34.0032 17.0645 35.0207 17.4641ZM2.28309 14.1341C1.88719 14.0268 1.91309 13.938 2.17949 13.6901C5.00629 10.8904 7.82816 8.0821 10.6451 5.26516C10.7222 5.18022 10.8234 5.12087 10.9351 5.09507C11.0469 5.06928 11.1639 5.07828 11.2704 5.12086C16.036 6.33076 20.7461 7.74786 25.4784 9.07246C28.5568 9.93086 31.6241 10.8152 34.6988 11.6884C34.8098 11.718 34.9208 11.7587 35.0688 11.8105C34.0291 12.754 33.019 13.6605 32.0015 14.5966C31.2615 15.2478 30.5437 15.8842 29.837 16.5502C29.6113 16.7611 29.5003 16.7056 29.3079 16.5243C27.987 15.2848 26.6402 14.0601 25.323 12.8206C25.2049 12.6844 25.0459 12.5903 24.8698 12.5523C24.6936 12.5142 24.5099 12.5344 24.3462 12.6097C20.4797 13.9935 16.6058 15.3551 12.7356 16.7278C12.4343 16.8407 12.1043 16.8524 11.7958 16.7611C8.61873 15.878 5.44783 15.0048 2.28309 14.1415V14.1341ZM3.18219 20.0541C3.15434 20.0457 3.12589 20.0396 3.09709 20.0356C2.72709 19.9098 2.10919 19.932 2.03149 19.6656C1.95379 19.3992 2.49769 19.1143 2.74559 18.8183C2.92319 18.6037 3.11559 18.4002 3.29319 18.1893L3.42269 18.2633C3.42269 18.8035 3.42269 19.3437 3.42269 19.8839C3.42269 20.0504 3.35979 20.1207 3.18219 20.043V20.0541ZM6.73789 21.0309C5.93129 20.8089 5.19869 20.598 4.45869 20.4167C4.21449 20.3538 4.11829 20.2539 4.12569 19.9986C4.12569 19.2586 4.12569 18.4927 4.12569 17.7416C4.12112 17.6392 4.1397 17.5371 4.18006 17.443C4.22042 17.3488 4.28152 17.2649 4.35879 17.1977C4.72879 16.8277 5.11729 16.4577 5.48729 16.0877C5.53123 16.0112 5.59984 15.952 5.68187 15.9198C5.7639 15.8875 5.85447 15.8841 5.93869 15.9101C6.73049 16.1321 6.73789 16.1136 6.73789 16.9276V21.0309ZM10.0679 19.5028C10.0679 20.1984 10.0679 20.8903 10.0679 21.5822C10.0679 21.8634 10.0013 21.9522 9.69789 21.8597C9.03929 21.6599 8.37699 21.4638 7.71099 21.3047C7.47789 21.2492 7.44089 21.1456 7.44089 20.9347C7.44089 19.5176 7.44089 18.1042 7.44089 16.6871C7.44089 16.4392 7.47789 16.3393 7.75909 16.4244C8.39303 16.6168 9.02819 16.7919 9.66459 16.9498C9.94949 17.0201 10.0753 17.1385 10.0605 17.4604C10.0309 18.1301 10.0494 18.8146 10.0494 19.4917L10.0679 19.5028ZM13.3979 22.8772C12.5913 22.6552 11.8439 22.448 11.0928 22.2482C11.0434 22.2432 10.9955 22.2283 10.952 22.2043C10.9084 22.1804 10.8702 22.148 10.8394 22.109C10.8087 22.07 10.7861 22.0252 10.7731 21.9772C10.76 21.9293 10.7568 21.8793 10.7635 21.8301C10.7635 20.4142 10.7635 18.9983 10.7635 17.5825C10.7635 17.3198 10.8116 17.2532 11.0854 17.342C11.7296 17.5908 12.4201 17.6968 13.1093 17.6528C13.2906 17.6343 13.3757 17.6972 13.3757 17.897C13.372 19.5435 13.3757 21.1789 13.3757 22.8661L13.3979 22.8772ZM16.221 23.6801C15.6142 23.4692 14.9889 23.3101 14.371 23.1547C14.1527 23.1029 14.0861 23.0178 14.0898 22.8032C14.0898 21.1974 14.0898 19.5916 14.0898 17.9932C14.0898 17.7268 14.1823 17.6713 14.4228 17.675C15.0703 17.675 15.7178 17.6935 16.3653 17.675C16.6539 17.675 16.7094 17.786 16.7057 18.045C16.7057 18.9404 16.7057 19.8395 16.7057 20.7386C16.7057 21.6377 16.7057 22.448 16.7057 23.3027C16.7094 23.6801 16.6502 23.8207 16.221 23.6801ZM14.6078 16.9091C14.6374 16.7981 14.7447 16.7907 14.8224 16.7611C17.997 15.6412 21.1741 14.5189 24.3536 13.3941C24.4545 13.3409 24.5703 13.3233 24.6825 13.3441C24.7946 13.3649 24.8964 13.4229 24.9715 13.5088C26.1629 14.6188 27.3691 15.7288 28.6456 16.9091H14.6078ZM20.0172 24.7161L17.6788 24.076C17.6363 24.0701 17.5954 24.0558 17.5586 24.0339C17.5217 24.0121 17.4896 23.983 17.4641 23.9486C17.4385 23.9141 17.4202 23.8749 17.41 23.8332C17.3999 23.7916 17.3982 23.7483 17.405 23.706C17.405 21.8042 17.405 19.9061 17.405 18.0043C17.405 17.7231 17.5086 17.6565 17.775 17.6602C18.4225 17.6602 19.07 17.6602 19.7175 17.6602C19.9358 17.6602 20.0283 17.712 20.0283 17.9525C20.0135 20.191 20.0172 22.4295 20.0172 24.7161ZM22.9402 25.5301C22.3001 25.3118 21.6452 25.1601 20.9903 24.9862C20.9509 24.9826 20.9126 24.971 20.8779 24.952C20.8432 24.933 20.8128 24.9071 20.7885 24.8759C20.7642 24.8447 20.7466 24.8088 20.7367 24.7705C20.7269 24.7322 20.725 24.6922 20.7313 24.6532C20.7313 22.406 20.7313 20.1626 20.7313 17.9229C20.7313 17.6972 20.8238 17.6528 21.0199 17.6565C21.6711 17.6565 22.3186 17.6565 22.9698 17.6565C23.3065 17.6565 23.3398 17.7934 23.3398 18.0783C23.3398 19.2734 23.3398 20.4685 23.3398 21.6636C23.3398 22.8587 23.3398 24.0242 23.3398 25.2045C23.3398 25.5301 23.3102 25.667 22.9402 25.5301ZM26.6402 21.782C26.6402 23.0215 26.6402 24.261 26.6402 25.5005C26.6595 25.6302 26.644 25.7628 26.5953 25.8846C26.5465 26.0064 26.4663 26.113 26.3627 26.1936C26.2592 26.2742 26.1361 26.3258 26.0061 26.3431C25.876 26.3604 25.7437 26.3429 25.6227 26.2923C25.1861 26.1702 24.7495 26.0407 24.3092 25.9223C24.2662 25.9173 24.2246 25.9037 24.1871 25.8822C24.1495 25.8606 24.1167 25.8317 24.0907 25.797C24.0648 25.7624 24.0461 25.7228 24.036 25.6807C24.0258 25.6387 24.0244 25.5949 24.0317 25.5523C24.0317 23.0289 24.0317 20.5055 24.0317 17.9821C24.0317 17.7305 24.1168 17.6491 24.3647 17.6528C25.0122 17.6528 25.6634 17.6713 26.3109 17.6528C26.6032 17.6528 26.6476 17.7564 26.6476 18.0228C26.6402 19.2734 26.6402 20.5277 26.6402 21.782ZM29.9702 22.411C29.9695 22.5149 29.9283 22.6144 29.8555 22.6885C29.0711 23.5025 28.2941 24.3202 27.5134 25.1379L27.3654 25.0195C27.3654 22.6663 27.3654 20.3094 27.3654 17.9562C27.3654 17.712 27.4542 17.6676 27.6725 17.6602C28.3903 17.638 29.1155 17.749 29.8296 17.5899C30.0257 17.5492 29.9702 17.6935 29.9702 17.7712C29.9702 19.3178 29.9702 20.8644 29.9702 22.411ZM30.7102 17.416C30.7102 17.2014 30.4586 17.0016 30.7398 16.7463C30.8588 16.6014 31.022 16.4994 31.2044 16.456C31.3868 16.4125 31.5784 16.43 31.7499 16.5058C32.1513 16.6485 32.5617 16.7646 32.9783 16.8536C33.2003 16.9091 33.3261 16.9868 33.3113 17.2643C33.2854 17.8526 33.3113 18.4409 33.3113 19.0329C33.3227 19.0904 33.3213 19.1497 33.3073 19.2066C33.2932 19.2635 33.2668 19.3166 33.2299 19.3622C32.4159 20.1614 31.6056 20.9643 30.7065 21.856V19.9357C30.688 19.0958 30.6732 18.2559 30.7102 17.416Z" fill="#FF8025"/>
</svg>
